<?xml version="1.0" encoding="utf-8"?>
<svg xmlns="http://www.w3.org/2000/svg" xmlns:xlink="http://www.w3.org/1999/xlink" width="600" height="400" viewBox="0 0 2400 1600">
<defs>
  <clipPath id="clip850">
    <rect x="0" y="0" width="2400" height="1600"/>
  </clipPath>
</defs>
<path clip-path="url(#clip850)" d="
M0 1600 L2400 1600 L2400 0 L0 0  Z
  " fill="#ffffff" fill-rule="evenodd" fill-opacity="1"/>
<defs>
  <clipPath id="clip851">
    <rect x="480" y="0" width="1681" height="1600"/>
  </clipPath>
</defs>
<path clip-path="url(#clip850)" d="
M156.598 1486.45 L2352.76 1486.45 L2352.76 47.2441 L156.598 47.2441  Z
  " fill="#ffffff" fill-rule="evenodd" fill-opacity="1"/>
<defs>
  <clipPath id="clip852">
    <rect x="156" y="47" width="2197" height="1440"/>
  </clipPath>
</defs>
<polyline clip-path="url(#clip852)" style="stroke:#000000; stroke-width:2; stroke-opacity:0.1; fill:none" points="
  366.743,1486.45 366.743,47.2441 
  "/>
<polyline clip-path="url(#clip852)" style="stroke:#000000; stroke-width:2; stroke-opacity:0.1; fill:none" points="
  662.721,1486.45 662.721,47.2441 
  "/>
<polyline clip-path="url(#clip852)" style="stroke:#000000; stroke-width:2; stroke-opacity:0.1; fill:none" points="
  958.699,1486.45 958.699,47.2441 
  "/>
<polyline clip-path="url(#clip852)" style="stroke:#000000; stroke-width:2; stroke-opacity:0.1; fill:none" points="
  1254.68,1486.45 1254.68,47.2441 
  "/>
<polyline clip-path="url(#clip852)" style="stroke:#000000; stroke-width:2; stroke-opacity:0.1; fill:none" points="
  1550.66,1486.45 1550.66,47.2441 
  "/>
<polyline clip-path="url(#clip852)" style="stroke:#000000; stroke-width:2; stroke-opacity:0.1; fill:none" points="
  1846.63,1486.45 1846.63,47.2441 
  "/>
<polyline clip-path="url(#clip852)" style="stroke:#000000; stroke-width:2; stroke-opacity:0.1; fill:none" points="
  2142.61,1486.45 2142.61,47.2441 
  "/>
<polyline clip-path="url(#clip850)" style="stroke:#000000; stroke-width:4; stroke-opacity:1; fill:none" points="
  156.598,1486.45 2352.76,1486.45 
  "/>
<polyline clip-path="url(#clip850)" style="stroke:#000000; stroke-width:4; stroke-opacity:1; fill:none" points="
  366.743,1486.45 366.743,1469.18 
  "/>
<polyline clip-path="url(#clip850)" style="stroke:#000000; stroke-width:4; stroke-opacity:1; fill:none" points="
  662.721,1486.45 662.721,1469.18 
  "/>
<polyline clip-path="url(#clip850)" style="stroke:#000000; stroke-width:4; stroke-opacity:1; fill:none" points="
  958.699,1486.45 958.699,1469.18 
  "/>
<polyline clip-path="url(#clip850)" style="stroke:#000000; stroke-width:4; stroke-opacity:1; fill:none" points="
  1254.68,1486.45 1254.68,1469.18 
  "/>
<polyline clip-path="url(#clip850)" style="stroke:#000000; stroke-width:4; stroke-opacity:1; fill:none" points="
  1550.66,1486.45 1550.66,1469.18 
  "/>
<polyline clip-path="url(#clip850)" style="stroke:#000000; stroke-width:4; stroke-opacity:1; fill:none" points="
  1846.63,1486.45 1846.63,1469.18 
  "/>
<polyline clip-path="url(#clip850)" style="stroke:#000000; stroke-width:4; stroke-opacity:1; fill:none" points="
  2142.61,1486.45 2142.61,1469.18 
  "/>
<path clip-path="url(#clip850)" d="M 0 0 M361.396 1543.18 L377.715 1543.18 L377.715 1547.12 L355.771 1547.12 L355.771 1543.18 Q358.433 1540.43 363.016 1535.8 Q367.622 1531.15 368.803 1529.81 Q371.048 1527.28 371.928 1525.55 Q372.831 1523.79 372.831 1522.1 Q372.831 1519.34 370.886 1517.61 Q368.965 1515.87 365.863 1515.87 Q363.664 1515.87 361.21 1516.63 Q358.78 1517.4 356.002 1518.95 L356.002 1514.23 Q358.826 1513.09 361.28 1512.51 Q363.733 1511.93 365.77 1511.93 Q371.141 1511.93 374.335 1514.62 Q377.53 1517.31 377.53 1521.8 Q377.53 1523.93 376.72 1525.85 Q375.932 1527.74 373.826 1530.34 Q373.247 1531.01 370.145 1534.23 Q367.044 1537.42 361.396 1543.18 Z" fill="#000000" fill-rule="evenodd" fill-opacity="1" /><path clip-path="url(#clip850)" d="M 0 0 M665.73 1516.63 L653.925 1535.08 L665.73 1535.08 L665.73 1516.63 M664.503 1512.56 L670.383 1512.56 L670.383 1535.08 L675.313 1535.08 L675.313 1538.97 L670.383 1538.97 L670.383 1547.12 L665.73 1547.12 L665.73 1538.97 L650.128 1538.97 L650.128 1534.46 L664.503 1512.56 Z" fill="#000000" fill-rule="evenodd" fill-opacity="1" /><path clip-path="url(#clip850)" d="M 0 0 M959.104 1527.98 Q955.956 1527.98 954.104 1530.13 Q952.275 1532.28 952.275 1536.03 Q952.275 1539.76 954.104 1541.93 Q955.956 1544.09 959.104 1544.09 Q962.252 1544.09 964.081 1541.93 Q965.933 1539.76 965.933 1536.03 Q965.933 1532.28 964.081 1530.13 Q962.252 1527.98 959.104 1527.98 M968.386 1513.32 L968.386 1517.58 Q966.627 1516.75 964.822 1516.31 Q963.039 1515.87 961.28 1515.87 Q956.65 1515.87 954.197 1519 Q951.766 1522.12 951.419 1528.44 Q952.785 1526.43 954.845 1525.36 Q956.905 1524.27 959.382 1524.27 Q964.59 1524.27 967.599 1527.44 Q970.632 1530.59 970.632 1536.03 Q970.632 1541.36 967.484 1544.57 Q964.335 1547.79 959.104 1547.79 Q953.109 1547.79 949.937 1543.21 Q946.766 1538.6 946.766 1529.87 Q946.766 1521.68 950.655 1516.82 Q954.544 1511.93 961.095 1511.93 Q962.854 1511.93 964.636 1512.28 Q966.442 1512.63 968.386 1513.32 Z" fill="#000000" fill-rule="evenodd" fill-opacity="1" /><path clip-path="url(#clip850)" d="M 0 0 M1254.68 1530.71 Q1251.34 1530.71 1249.42 1532.49 Q1247.52 1534.27 1247.52 1537.4 Q1247.52 1540.52 1249.42 1542.31 Q1251.34 1544.09 1254.68 1544.09 Q1258.01 1544.09 1259.93 1542.31 Q1261.85 1540.5 1261.85 1537.4 Q1261.85 1534.27 1259.93 1532.49 Q1258.03 1530.71 1254.68 1530.71 M1250 1528.72 Q1246.99 1527.98 1245.3 1525.92 Q1243.64 1523.86 1243.64 1520.89 Q1243.64 1516.75 1246.58 1514.34 Q1249.54 1511.93 1254.68 1511.93 Q1259.84 1511.93 1262.78 1514.34 Q1265.72 1516.75 1265.72 1520.89 Q1265.72 1523.86 1264.03 1525.92 Q1262.36 1527.98 1259.38 1528.72 Q1262.76 1529.5 1264.63 1531.8 Q1266.53 1534.09 1266.53 1537.4 Q1266.53 1542.42 1263.45 1545.11 Q1260.39 1547.79 1254.68 1547.79 Q1248.96 1547.79 1245.88 1545.11 Q1242.83 1542.42 1242.83 1537.4 Q1242.83 1534.09 1244.72 1531.8 Q1246.62 1529.5 1250 1528.72 M1248.29 1521.33 Q1248.29 1524.02 1249.95 1525.52 Q1251.64 1527.03 1254.68 1527.03 Q1257.69 1527.03 1259.38 1525.52 Q1261.09 1524.02 1261.09 1521.33 Q1261.09 1518.65 1259.38 1517.14 Q1257.69 1515.64 1254.68 1515.64 Q1251.64 1515.64 1249.95 1517.14 Q1248.29 1518.65 1248.29 1521.33 Z" fill="#000000" fill-rule="evenodd" fill-opacity="1" /><path clip-path="url(#clip850)" d="M 0 0 M1525.34 1543.18 L1532.98 1543.18 L1532.98 1516.82 L1524.67 1518.49 L1524.67 1514.23 L1532.94 1512.56 L1537.61 1512.56 L1537.61 1543.18 L1545.25 1543.18 L1545.25 1547.12 L1525.34 1547.12 L1525.34 1543.18 Z" fill="#000000" fill-rule="evenodd" fill-opacity="1" /><path clip-path="url(#clip850)" d="M 0 0 M1564.69 1515.64 Q1561.08 1515.64 1559.25 1519.2 Q1557.45 1522.75 1557.45 1529.87 Q1557.45 1536.98 1559.25 1540.55 Q1561.08 1544.09 1564.69 1544.09 Q1568.33 1544.09 1570.13 1540.55 Q1571.96 1536.98 1571.96 1529.87 Q1571.96 1522.75 1570.13 1519.2 Q1568.33 1515.64 1564.69 1515.64 M1564.69 1511.93 Q1570.5 1511.93 1573.56 1516.54 Q1576.64 1521.12 1576.64 1529.87 Q1576.64 1538.6 1573.56 1543.21 Q1570.5 1547.79 1564.69 1547.79 Q1558.88 1547.79 1555.81 1543.21 Q1552.75 1538.6 1552.75 1529.87 Q1552.75 1521.12 1555.81 1516.54 Q1558.88 1511.93 1564.69 1511.93 Z" fill="#000000" fill-rule="evenodd" fill-opacity="1" /><path clip-path="url(#clip850)" d="M 0 0 M1822.12 1543.18 L1829.76 1543.18 L1829.76 1516.82 L1821.45 1518.49 L1821.45 1514.23 L1829.71 1512.56 L1834.39 1512.56 L1834.39 1543.18 L1842.03 1543.18 L1842.03 1547.12 L1822.12 1547.12 L1822.12 1543.18 Z" fill="#000000" fill-rule="evenodd" fill-opacity="1" /><path clip-path="url(#clip850)" d="M 0 0 M1855.5 1543.18 L1871.82 1543.18 L1871.82 1547.12 L1849.87 1547.12 L1849.87 1543.18 Q1852.54 1540.43 1857.12 1535.8 Q1861.73 1531.15 1862.91 1529.81 Q1865.15 1527.28 1866.03 1525.55 Q1866.93 1523.79 1866.93 1522.1 Q1866.93 1519.34 1864.99 1517.61 Q1863.07 1515.87 1859.97 1515.87 Q1857.77 1515.87 1855.31 1516.63 Q1852.88 1517.4 1850.11 1518.95 L1850.11 1514.23 Q1852.93 1513.09 1855.38 1512.51 Q1857.84 1511.93 1859.87 1511.93 Q1865.24 1511.93 1868.44 1514.62 Q1871.63 1517.31 1871.63 1521.8 Q1871.63 1523.93 1870.82 1525.85 Q1870.04 1527.74 1867.93 1530.34 Q1867.35 1531.01 1864.25 1534.23 Q1861.15 1537.42 1855.5 1543.18 Z" fill="#000000" fill-rule="evenodd" fill-opacity="1" /><path clip-path="url(#clip850)" d="M 0 0 M2117.06 1543.18 L2124.69 1543.18 L2124.69 1516.82 L2116.38 1518.49 L2116.38 1514.23 L2124.65 1512.56 L2129.32 1512.56 L2129.32 1543.18 L2136.96 1543.18 L2136.96 1547.12 L2117.06 1547.12 L2117.06 1543.18 Z" fill="#000000" fill-rule="evenodd" fill-opacity="1" /><path clip-path="url(#clip850)" d="M 0 0 M2159.25 1516.63 L2147.45 1535.08 L2159.25 1535.08 L2159.25 1516.63 M2158.03 1512.56 L2163.91 1512.56 L2163.91 1535.08 L2168.84 1535.08 L2168.84 1538.97 L2163.91 1538.97 L2163.91 1547.12 L2159.25 1547.12 L2159.25 1538.97 L2143.65 1538.97 L2143.65 1534.46 L2158.03 1512.56 Z" fill="#000000" fill-rule="evenodd" fill-opacity="1" /><polyline clip-path="url(#clip852)" style="stroke:#000000; stroke-width:2; stroke-opacity:0.1; fill:none" points="
  156.598,1313.16 2352.76,1313.16 
  "/>
<polyline clip-path="url(#clip852)" style="stroke:#000000; stroke-width:2; stroke-opacity:0.1; fill:none" points="
  156.598,972.802 2352.76,972.802 
  "/>
<polyline clip-path="url(#clip852)" style="stroke:#000000; stroke-width:2; stroke-opacity:0.1; fill:none" points="
  156.598,632.441 2352.76,632.441 
  "/>
<polyline clip-path="url(#clip852)" style="stroke:#000000; stroke-width:2; stroke-opacity:0.1; fill:none" points="
  156.598,292.08 2352.76,292.08 
  "/>
<polyline clip-path="url(#clip850)" style="stroke:#000000; stroke-width:4; stroke-opacity:1; fill:none" points="
  156.598,1486.45 156.598,47.2441 
  "/>
<polyline clip-path="url(#clip850)" style="stroke:#000000; stroke-width:4; stroke-opacity:1; fill:none" points="
  156.598,1313.16 182.952,1313.16 
  "/>
<polyline clip-path="url(#clip850)" style="stroke:#000000; stroke-width:4; stroke-opacity:1; fill:none" points="
  156.598,972.802 182.952,972.802 
  "/>
<polyline clip-path="url(#clip850)" style="stroke:#000000; stroke-width:4; stroke-opacity:1; fill:none" points="
  156.598,632.441 182.952,632.441 
  "/>
<polyline clip-path="url(#clip850)" style="stroke:#000000; stroke-width:4; stroke-opacity:1; fill:none" points="
  156.598,292.08 182.952,292.08 
  "/>
<path clip-path="url(#clip850)" d="M 0 0 M65.0198 1298.96 Q61.4087 1298.96 59.58 1302.53 Q57.7745 1306.07 57.7745 1313.2 Q57.7745 1320.3 59.58 1323.87 Q61.4087 1327.41 65.0198 1327.41 Q68.6541 1327.41 70.4596 1323.87 Q72.2883 1320.3 72.2883 1313.2 Q72.2883 1306.07 70.4596 1302.53 Q68.6541 1298.96 65.0198 1298.96 M65.0198 1295.26 Q70.83 1295.26 73.8855 1299.86 Q76.9642 1304.45 76.9642 1313.2 Q76.9642 1321.92 73.8855 1326.53 Q70.83 1331.11 65.0198 1331.11 Q59.2097 1331.11 56.131 1326.53 Q53.0754 1321.92 53.0754 1313.2 Q53.0754 1304.45 56.131 1299.86 Q59.2097 1295.26 65.0198 1295.26 Z" fill="#000000" fill-rule="evenodd" fill-opacity="1" /><path clip-path="url(#clip850)" d="M 0 0 M85.1818 1324.56 L90.066 1324.56 L90.066 1330.44 L85.1818 1330.44 L85.1818 1324.56 Z" fill="#000000" fill-rule="evenodd" fill-opacity="1" /><path clip-path="url(#clip850)" d="M 0 0 M104.279 1326.51 L120.598 1326.51 L120.598 1330.44 L98.6539 1330.44 L98.6539 1326.51 Q101.316 1323.75 105.899 1319.12 Q110.506 1314.47 111.686 1313.13 Q113.932 1310.6 114.811 1308.87 Q115.714 1307.11 115.714 1305.42 Q115.714 1302.66 113.77 1300.93 Q111.848 1299.19 108.746 1299.19 Q106.547 1299.19 104.094 1299.96 Q101.663 1300.72 98.8854 1302.27 L98.8854 1297.55 Q101.709 1296.41 104.163 1295.84 Q106.617 1295.26 108.654 1295.26 Q114.024 1295.26 117.219 1297.94 Q120.413 1300.63 120.413 1305.12 Q120.413 1307.25 119.603 1309.17 Q118.816 1311.07 116.709 1313.66 Q116.131 1314.33 113.029 1317.55 Q109.927 1320.74 104.279 1326.51 Z" fill="#000000" fill-rule="evenodd" fill-opacity="1" /><path clip-path="url(#clip850)" d="M 0 0 M62.9365 958.6 Q59.3254 958.6 57.4967 962.165 Q55.6912 965.707 55.6912 972.836 Q55.6912 979.943 57.4967 983.508 Q59.3254 987.049 62.9365 987.049 Q66.5707 987.049 68.3763 983.508 Q70.205 979.943 70.205 972.836 Q70.205 965.707 68.3763 962.165 Q66.5707 958.6 62.9365 958.6 M62.9365 954.897 Q68.7467 954.897 71.8022 959.503 Q74.8809 964.086 74.8809 972.836 Q74.8809 981.563 71.8022 986.17 Q68.7467 990.753 62.9365 990.753 Q57.1264 990.753 54.0477 986.17 Q50.9921 981.563 50.9921 972.836 Q50.9921 964.086 54.0477 959.503 Q57.1264 954.897 62.9365 954.897 Z" fill="#000000" fill-rule="evenodd" fill-opacity="1" /><path clip-path="url(#clip850)" d="M 0 0 M83.0984 984.202 L87.9827 984.202 L87.9827 990.082 L83.0984 990.082 L83.0984 984.202 Z" fill="#000000" fill-rule="evenodd" fill-opacity="1" /><path clip-path="url(#clip850)" d="M 0 0 M111.015 959.596 L99.2095 978.045 L111.015 978.045 L111.015 959.596 M109.788 955.522 L115.668 955.522 L115.668 978.045 L120.598 978.045 L120.598 981.934 L115.668 981.934 L115.668 990.082 L111.015 990.082 L111.015 981.934 L95.4132 981.934 L95.4132 977.42 L109.788 955.522 Z" fill="#000000" fill-rule="evenodd" fill-opacity="1" /><path clip-path="url(#clip850)" d="M 0 0 M63.2606 618.24 Q59.6495 618.24 57.8208 621.804 Q56.0152 625.346 56.0152 632.476 Q56.0152 639.582 57.8208 643.147 Q59.6495 646.688 63.2606 646.688 Q66.8948 646.688 68.7004 643.147 Q70.5291 639.582 70.5291 632.476 Q70.5291 625.346 68.7004 621.804 Q66.8948 618.24 63.2606 618.24 M63.2606 614.536 Q69.0707 614.536 72.1263 619.142 Q75.205 623.726 75.205 632.476 Q75.205 641.202 72.1263 645.809 Q69.0707 650.392 63.2606 650.392 Q57.4504 650.392 54.3717 645.809 Q51.3162 641.202 51.3162 632.476 Q51.3162 623.726 54.3717 619.142 Q57.4504 614.536 63.2606 614.536 Z" fill="#000000" fill-rule="evenodd" fill-opacity="1" /><path clip-path="url(#clip850)" d="M 0 0 M83.4225 643.841 L88.3067 643.841 L88.3067 649.721 L83.4225 649.721 L83.4225 643.841 Z" fill="#000000" fill-rule="evenodd" fill-opacity="1" /><path clip-path="url(#clip850)" d="M 0 0 M109.071 630.577 Q105.922 630.577 104.071 632.73 Q102.242 634.883 102.242 638.633 Q102.242 642.36 104.071 644.536 Q105.922 646.688 109.071 646.688 Q112.219 646.688 114.047 644.536 Q115.899 642.36 115.899 638.633 Q115.899 634.883 114.047 632.73 Q112.219 630.577 109.071 630.577 M118.353 615.925 L118.353 620.184 Q116.594 619.351 114.788 618.911 Q113.006 618.471 111.246 618.471 Q106.617 618.471 104.163 621.596 Q101.733 624.721 101.385 631.04 Q102.751 629.026 104.811 627.962 Q106.871 626.874 109.348 626.874 Q114.557 626.874 117.566 630.045 Q120.598 633.193 120.598 638.633 Q120.598 643.957 117.45 647.175 Q114.302 650.392 109.071 650.392 Q103.075 650.392 99.9039 645.809 Q96.7326 641.202 96.7326 632.476 Q96.7326 624.281 100.621 619.42 Q104.51 614.536 111.061 614.536 Q112.82 614.536 114.603 614.883 Q116.408 615.23 118.353 615.925 Z" fill="#000000" fill-rule="evenodd" fill-opacity="1" /><path clip-path="url(#clip850)" d="M 0 0 M63.5152 277.879 Q59.9041 277.879 58.0754 281.443 Q56.2699 284.985 56.2699 292.115 Q56.2699 299.221 58.0754 302.786 Q59.9041 306.328 63.5152 306.328 Q67.1494 306.328 68.955 302.786 Q70.7837 299.221 70.7837 292.115 Q70.7837 284.985 68.955 281.443 Q67.1494 277.879 63.5152 277.879 M63.5152 274.175 Q69.3254 274.175 72.3809 278.781 Q75.4596 283.365 75.4596 292.115 Q75.4596 300.841 72.3809 305.448 Q69.3254 310.031 63.5152 310.031 Q57.7051 310.031 54.6264 305.448 Q51.5708 300.841 51.5708 292.115 Q51.5708 283.365 54.6264 278.781 Q57.7051 274.175 63.5152 274.175 Z" fill="#000000" fill-rule="evenodd" fill-opacity="1" /><path clip-path="url(#clip850)" d="M 0 0 M83.6771 303.48 L88.5614 303.48 L88.5614 309.36 L83.6771 309.36 L83.6771 303.48 Z" fill="#000000" fill-rule="evenodd" fill-opacity="1" /><path clip-path="url(#clip850)" d="M 0 0 M108.746 292.948 Q105.413 292.948 103.492 294.73 Q101.594 296.513 101.594 299.638 Q101.594 302.763 103.492 304.545 Q105.413 306.328 108.746 306.328 Q112.08 306.328 114.001 304.545 Q115.922 302.74 115.922 299.638 Q115.922 296.513 114.001 294.73 Q112.103 292.948 108.746 292.948 M104.071 290.957 Q101.061 290.217 99.3715 288.156 Q97.7048 286.096 97.7048 283.133 Q97.7048 278.99 100.645 276.582 Q103.608 274.175 108.746 274.175 Q113.908 274.175 116.848 276.582 Q119.788 278.99 119.788 283.133 Q119.788 286.096 118.098 288.156 Q116.432 290.217 113.445 290.957 Q116.825 291.744 118.7 294.036 Q120.598 296.328 120.598 299.638 Q120.598 304.661 117.52 307.346 Q114.464 310.031 108.746 310.031 Q103.029 310.031 99.9502 307.346 Q96.8947 304.661 96.8947 299.638 Q96.8947 296.328 98.7928 294.036 Q100.691 291.744 104.071 290.957 M102.358 283.573 Q102.358 286.258 104.024 287.763 Q105.714 289.267 108.746 289.267 Q111.756 289.267 113.445 287.763 Q115.158 286.258 115.158 283.573 Q115.158 280.888 113.445 279.383 Q111.756 277.879 108.746 277.879 Q105.714 277.879 104.024 279.383 Q102.358 280.888 102.358 283.573 Z" fill="#000000" fill-rule="evenodd" fill-opacity="1" /><polyline clip-path="url(#clip852)" style="stroke:#009af9; stroke-width:4; stroke-opacity:1; fill:none" points="
  218.754,633.798 366.743,445.144 514.732,1416 662.721,1048.08 810.71,1271.56 958.699,365.708 1106.69,972.556 1254.68,1344.33 1402.67,1445.72 1550.66,1083.08 
  1698.64,1437.2 1846.63,1009.28 1994.62,171.887 2142.61,87.9763 2290.6,1371.48 
  "/>
<path clip-path="url(#clip850)" d="
M1983.1 216.178 L2279.55 216.178 L2279.55 95.2176 L1983.1 95.2176  Z
  " fill="#ffffff" fill-rule="evenodd" fill-opacity="1"/>
<polyline clip-path="url(#clip850)" style="stroke:#000000; stroke-width:4; stroke-opacity:1; fill:none" points="
  1983.1,216.178 2279.55,216.178 2279.55,95.2176 1983.1,95.2176 1983.1,216.178 
  "/>
<polyline clip-path="url(#clip850)" style="stroke:#009af9; stroke-width:4; stroke-opacity:1; fill:none" points="
  2007.5,155.698 2153.92,155.698 
  "/>
<path clip-path="url(#clip850)" d="M 0 0 M2192.16 175.385 Q2190.35 180.015 2188.64 181.427 Q2186.93 182.839 2184.06 182.839 L2180.65 182.839 L2180.65 179.274 L2183.15 179.274 Q2184.91 179.274 2185.89 178.44 Q2186.86 177.607 2188.04 174.505 L2188.8 172.561 L2178.32 147.052 L2182.83 147.052 L2190.93 167.329 L2199.03 147.052 L2203.55 147.052 L2192.16 175.385 Z" fill="#000000" fill-rule="evenodd" fill-opacity="1" /><path clip-path="url(#clip850)" d="M 0 0 M2210.84 169.042 L2218.48 169.042 L2218.48 142.677 L2210.17 144.343 L2210.17 140.084 L2218.43 138.418 L2223.11 138.418 L2223.11 169.042 L2230.75 169.042 L2230.75 172.978 L2210.84 172.978 L2210.84 169.042 Z" fill="#000000" fill-rule="evenodd" fill-opacity="1" /></svg>
