<?xml version="1.0" encoding="utf-8"?>
<svg xmlns="http://www.w3.org/2000/svg" xmlns:xlink="http://www.w3.org/1999/xlink" width="600" height="400" viewBox="0 0 2400 1600">
<defs>
  <clipPath id="clip090">
    <rect x="0" y="0" width="2400" height="1600"/>
  </clipPath>
</defs>
<path clip-path="url(#clip090)" d="
M0 1600 L2400 1600 L2400 0 L0 0  Z
  " fill="#ffffff" fill-rule="evenodd" fill-opacity="1"/>
<defs>
  <clipPath id="clip091">
    <rect x="480" y="0" width="1681" height="1600"/>
  </clipPath>
</defs>
<path clip-path="url(#clip090)" d="
M249.542 1423.18 L2352.76 1423.18 L2352.76 123.472 L249.542 123.472  Z
  " fill="#ffffff" fill-rule="evenodd" fill-opacity="1"/>
<defs>
  <clipPath id="clip092">
    <rect x="249" y="123" width="2104" height="1301"/>
  </clipPath>
</defs>
<polyline clip-path="url(#clip092)" style="stroke:#000000; stroke-width:2; stroke-opacity:0.1; fill:none" points="
  268.574,1423.18 268.574,123.472 
  "/>
<polyline clip-path="url(#clip092)" style="stroke:#000000; stroke-width:2; stroke-opacity:0.1; fill:none" points="
  673.505,1423.18 673.505,123.472 
  "/>
<polyline clip-path="url(#clip092)" style="stroke:#000000; stroke-width:2; stroke-opacity:0.1; fill:none" points="
  1078.44,1423.18 1078.44,123.472 
  "/>
<polyline clip-path="url(#clip092)" style="stroke:#000000; stroke-width:2; stroke-opacity:0.1; fill:none" points="
  1483.37,1423.18 1483.37,123.472 
  "/>
<polyline clip-path="url(#clip092)" style="stroke:#000000; stroke-width:2; stroke-opacity:0.1; fill:none" points="
  1888.3,1423.18 1888.3,123.472 
  "/>
<polyline clip-path="url(#clip092)" style="stroke:#000000; stroke-width:2; stroke-opacity:0.1; fill:none" points="
  2293.23,1423.18 2293.23,123.472 
  "/>
<polyline clip-path="url(#clip090)" style="stroke:#000000; stroke-width:4; stroke-opacity:1; fill:none" points="
  249.542,1423.18 2352.76,1423.18 
  "/>
<polyline clip-path="url(#clip090)" style="stroke:#000000; stroke-width:4; stroke-opacity:1; fill:none" points="
  268.574,1423.18 268.574,1407.58 
  "/>
<polyline clip-path="url(#clip090)" style="stroke:#000000; stroke-width:4; stroke-opacity:1; fill:none" points="
  673.505,1423.18 673.505,1407.58 
  "/>
<polyline clip-path="url(#clip090)" style="stroke:#000000; stroke-width:4; stroke-opacity:1; fill:none" points="
  1078.44,1423.18 1078.44,1407.58 
  "/>
<polyline clip-path="url(#clip090)" style="stroke:#000000; stroke-width:4; stroke-opacity:1; fill:none" points="
  1483.37,1423.18 1483.37,1407.58 
  "/>
<polyline clip-path="url(#clip090)" style="stroke:#000000; stroke-width:4; stroke-opacity:1; fill:none" points="
  1888.3,1423.18 1888.3,1407.58 
  "/>
<polyline clip-path="url(#clip090)" style="stroke:#000000; stroke-width:4; stroke-opacity:1; fill:none" points="
  2293.23,1423.18 2293.23,1407.58 
  "/>
<path clip-path="url(#clip090)" d="M 0 0 M268.574 1452.37 Q264.963 1452.37 263.134 1455.94 Q261.328 1459.48 261.328 1466.61 Q261.328 1473.71 263.134 1477.28 Q264.963 1480.82 268.574 1480.82 Q272.208 1480.82 274.014 1477.28 Q275.842 1473.71 275.842 1466.61 Q275.842 1459.48 274.014 1455.94 Q272.208 1452.37 268.574 1452.37 M268.574 1448.67 Q274.384 1448.67 277.44 1453.27 Q280.518 1457.86 280.518 1466.61 Q280.518 1475.33 277.44 1479.94 Q274.384 1484.52 268.574 1484.52 Q262.764 1484.52 259.685 1479.94 Q256.629 1475.33 256.629 1466.61 Q256.629 1457.86 259.685 1453.27 Q262.764 1448.67 268.574 1448.67 Z" fill="#000000" fill-rule="evenodd" fill-opacity="1" /><path clip-path="url(#clip090)" d="M 0 0 M648.193 1479.92 L655.832 1479.92 L655.832 1453.55 L647.522 1455.22 L647.522 1450.96 L655.785 1449.29 L660.461 1449.29 L660.461 1479.92 L668.1 1479.92 L668.1 1483.85 L648.193 1483.85 L648.193 1479.92 Z" fill="#000000" fill-rule="evenodd" fill-opacity="1" /><path clip-path="url(#clip090)" d="M 0 0 M687.545 1452.37 Q683.933 1452.37 682.105 1455.94 Q680.299 1459.48 680.299 1466.61 Q680.299 1473.71 682.105 1477.28 Q683.933 1480.82 687.545 1480.82 Q691.179 1480.82 692.984 1477.28 Q694.813 1473.71 694.813 1466.61 Q694.813 1459.48 692.984 1455.94 Q691.179 1452.37 687.545 1452.37 M687.545 1448.67 Q693.355 1448.67 696.41 1453.27 Q699.489 1457.86 699.489 1466.61 Q699.489 1475.33 696.41 1479.94 Q693.355 1484.52 687.545 1484.52 Q681.734 1484.52 678.656 1479.94 Q675.6 1475.33 675.6 1466.61 Q675.6 1457.86 678.656 1453.27 Q681.734 1448.67 687.545 1448.67 Z" fill="#000000" fill-rule="evenodd" fill-opacity="1" /><path clip-path="url(#clip090)" d="M 0 0 M1057.21 1479.92 L1073.53 1479.92 L1073.53 1483.85 L1051.58 1483.85 L1051.58 1479.92 Q1054.25 1477.16 1058.83 1472.53 Q1063.44 1467.88 1064.62 1466.54 Q1066.86 1464.01 1067.74 1462.28 Q1068.65 1460.52 1068.65 1458.83 Q1068.65 1456.07 1066.7 1454.34 Q1064.78 1452.6 1061.68 1452.6 Q1059.48 1452.6 1057.02 1453.37 Q1054.59 1454.13 1051.82 1455.68 L1051.82 1450.96 Q1054.64 1449.82 1057.09 1449.25 Q1059.55 1448.67 1061.58 1448.67 Q1066.96 1448.67 1070.15 1451.35 Q1073.34 1454.04 1073.34 1458.53 Q1073.34 1460.66 1072.53 1462.58 Q1071.75 1464.48 1069.64 1467.07 Q1069.06 1467.74 1065.96 1470.96 Q1062.86 1474.15 1057.21 1479.92 Z" fill="#000000" fill-rule="evenodd" fill-opacity="1" /><path clip-path="url(#clip090)" d="M 0 0 M1093.34 1452.37 Q1089.73 1452.37 1087.9 1455.94 Q1086.1 1459.48 1086.1 1466.61 Q1086.1 1473.71 1087.9 1477.28 Q1089.73 1480.82 1093.34 1480.82 Q1096.98 1480.82 1098.78 1477.28 Q1100.61 1473.71 1100.61 1466.61 Q1100.61 1459.48 1098.78 1455.94 Q1096.98 1452.37 1093.34 1452.37 M1093.34 1448.67 Q1099.15 1448.67 1102.21 1453.27 Q1105.29 1457.86 1105.29 1466.61 Q1105.29 1475.33 1102.21 1479.94 Q1099.15 1484.52 1093.34 1484.52 Q1087.53 1484.52 1084.46 1479.94 Q1081.4 1475.33 1081.4 1466.61 Q1081.4 1457.86 1084.46 1453.27 Q1087.53 1448.67 1093.34 1448.67 Z" fill="#000000" fill-rule="evenodd" fill-opacity="1" /><path clip-path="url(#clip090)" d="M 0 0 M1472.21 1465.22 Q1475.57 1465.94 1477.44 1468.2 Q1479.34 1470.47 1479.34 1473.81 Q1479.34 1478.92 1475.82 1481.72 Q1472.3 1484.52 1465.82 1484.52 Q1463.65 1484.52 1461.33 1484.08 Q1459.04 1483.67 1456.59 1482.81 L1456.59 1478.3 Q1458.53 1479.43 1460.85 1480.01 Q1463.16 1480.59 1465.68 1480.59 Q1470.08 1480.59 1472.37 1478.85 Q1474.69 1477.12 1474.69 1473.81 Q1474.69 1470.75 1472.53 1469.04 Q1470.41 1467.3 1466.59 1467.3 L1462.56 1467.3 L1462.56 1463.46 L1466.77 1463.46 Q1470.22 1463.46 1472.05 1462.09 Q1473.88 1460.7 1473.88 1458.11 Q1473.88 1455.45 1471.98 1454.04 Q1470.1 1452.6 1466.59 1452.6 Q1464.66 1452.6 1462.47 1453.02 Q1460.27 1453.44 1457.63 1454.31 L1457.63 1450.15 Q1460.29 1449.41 1462.6 1449.04 Q1464.94 1448.67 1467 1448.67 Q1472.33 1448.67 1475.43 1451.1 Q1478.53 1453.5 1478.53 1457.63 Q1478.53 1460.5 1476.89 1462.49 Q1475.24 1464.45 1472.21 1465.22 Z" fill="#000000" fill-rule="evenodd" fill-opacity="1" /><path clip-path="url(#clip090)" d="M 0 0 M1498.21 1452.37 Q1494.59 1452.37 1492.77 1455.94 Q1490.96 1459.48 1490.96 1466.61 Q1490.96 1473.71 1492.77 1477.28 Q1494.59 1480.82 1498.21 1480.82 Q1501.84 1480.82 1503.65 1477.28 Q1505.47 1473.71 1505.47 1466.61 Q1505.47 1459.48 1503.65 1455.94 Q1501.84 1452.37 1498.21 1452.37 M1498.21 1448.67 Q1504.02 1448.67 1507.07 1453.27 Q1510.15 1457.86 1510.15 1466.61 Q1510.15 1475.33 1507.07 1479.94 Q1504.02 1484.52 1498.21 1484.52 Q1492.4 1484.52 1489.32 1479.94 Q1486.26 1475.33 1486.26 1466.61 Q1486.26 1457.86 1489.32 1453.27 Q1492.4 1448.67 1498.21 1448.67 Z" fill="#000000" fill-rule="evenodd" fill-opacity="1" /><path clip-path="url(#clip090)" d="M 0 0 M1876.47 1453.37 L1864.67 1471.81 L1876.47 1471.81 L1876.47 1453.37 M1875.24 1449.29 L1881.12 1449.29 L1881.12 1471.81 L1886.05 1471.81 L1886.05 1475.7 L1881.12 1475.7 L1881.12 1483.85 L1876.47 1483.85 L1876.47 1475.7 L1860.87 1475.7 L1860.87 1471.19 L1875.24 1449.29 Z" fill="#000000" fill-rule="evenodd" fill-opacity="1" /><path clip-path="url(#clip090)" d="M 0 0 M1903.79 1452.37 Q1900.17 1452.37 1898.35 1455.94 Q1896.54 1459.48 1896.54 1466.61 Q1896.54 1473.71 1898.35 1477.28 Q1900.17 1480.82 1903.79 1480.82 Q1907.42 1480.82 1909.23 1477.28 Q1911.05 1473.71 1911.05 1466.61 Q1911.05 1459.48 1909.23 1455.94 Q1907.42 1452.37 1903.79 1452.37 M1903.79 1448.67 Q1909.6 1448.67 1912.65 1453.27 Q1915.73 1457.86 1915.73 1466.61 Q1915.73 1475.33 1912.65 1479.94 Q1909.6 1484.52 1903.79 1484.52 Q1897.98 1484.52 1894.9 1479.94 Q1891.84 1475.33 1891.84 1466.61 Q1891.84 1457.86 1894.9 1453.27 Q1897.98 1448.67 1903.79 1448.67 Z" fill="#000000" fill-rule="evenodd" fill-opacity="1" /><path clip-path="url(#clip090)" d="M 0 0 M2267.93 1449.29 L2286.29 1449.29 L2286.29 1453.23 L2272.21 1453.23 L2272.21 1461.7 Q2273.23 1461.35 2274.25 1461.19 Q2275.27 1461 2276.29 1461 Q2282.07 1461 2285.45 1464.18 Q2288.83 1467.35 2288.83 1472.76 Q2288.83 1478.34 2285.36 1481.44 Q2281.89 1484.52 2275.57 1484.52 Q2273.39 1484.52 2271.12 1484.15 Q2268.88 1483.78 2266.47 1483.04 L2266.47 1478.34 Q2268.56 1479.48 2270.78 1480.03 Q2273 1480.59 2275.48 1480.59 Q2279.48 1480.59 2281.82 1478.48 Q2284.16 1476.38 2284.16 1472.76 Q2284.16 1469.15 2281.82 1467.05 Q2279.48 1464.94 2275.48 1464.94 Q2273.6 1464.94 2271.73 1465.36 Q2269.87 1465.77 2267.93 1466.65 L2267.93 1449.29 Z" fill="#000000" fill-rule="evenodd" fill-opacity="1" /><path clip-path="url(#clip090)" d="M 0 0 M2308.05 1452.37 Q2304.43 1452.37 2302.61 1455.94 Q2300.8 1459.48 2300.8 1466.61 Q2300.8 1473.71 2302.61 1477.28 Q2304.43 1480.82 2308.05 1480.82 Q2311.68 1480.82 2313.49 1477.28 Q2315.31 1473.71 2315.31 1466.61 Q2315.31 1459.48 2313.49 1455.94 Q2311.68 1452.37 2308.05 1452.37 M2308.05 1448.67 Q2313.86 1448.67 2316.91 1453.27 Q2319.99 1457.86 2319.99 1466.61 Q2319.99 1475.33 2316.91 1479.94 Q2313.86 1484.52 2308.05 1484.52 Q2302.24 1484.52 2299.16 1479.94 Q2296.1 1475.33 2296.1 1466.61 Q2296.1 1457.86 2299.16 1453.27 Q2302.24 1448.67 2308.05 1448.67 Z" fill="#000000" fill-rule="evenodd" fill-opacity="1" /><path clip-path="url(#clip090)" d="M 0 0 M1206.51 1520.52 L1213.41 1520.52 L1225.22 1538.19 L1237.09 1520.52 L1244 1520.52 L1228.72 1543.34 L1245.02 1568.04 L1238.11 1568.04 L1224.74 1547.83 L1211.28 1568.04 L1204.34 1568.04 L1221.31 1542.68 L1206.51 1520.52 Z" fill="#000000" fill-rule="evenodd" fill-opacity="1" /><path clip-path="url(#clip090)" d="M 0 0 M1246.99 1547.58 L1264.15 1547.58 L1264.15 1552.8 L1246.99 1552.8 L1246.99 1547.58 Z" fill="#000000" fill-rule="evenodd" fill-opacity="1" /><path clip-path="url(#clip090)" d="M 0 0 M1288.18 1526.86 L1279.46 1550.51 L1296.93 1550.51 L1288.18 1526.86 M1284.55 1520.52 L1291.84 1520.52 L1309.95 1568.04 L1303.27 1568.04 L1298.94 1555.85 L1277.52 1555.85 L1273.19 1568.04 L1266.41 1568.04 L1284.55 1520.52 Z" fill="#000000" fill-rule="evenodd" fill-opacity="1" /><path clip-path="url(#clip090)" d="M 0 0 M1346.27 1532.4 L1333.38 1549.74 L1346.93 1568.04 L1340.03 1568.04 L1329.65 1554.04 L1319.28 1568.04 L1312.37 1568.04 L1326.21 1549.39 L1313.55 1532.4 L1320.45 1532.4 L1329.91 1545.1 L1339.36 1532.4 L1346.27 1532.4 Z" fill="#000000" fill-rule="evenodd" fill-opacity="1" /><path clip-path="url(#clip090)" d="M 0 0 M1355.21 1532.4 L1361.07 1532.4 L1361.07 1568.04 L1355.21 1568.04 L1355.21 1532.4 M1355.21 1518.52 L1361.07 1518.52 L1361.07 1525.93 L1355.21 1525.93 L1355.21 1518.52 Z" fill="#000000" fill-rule="evenodd" fill-opacity="1" /><path clip-path="url(#clip090)" d="M 0 0 M1396.05 1533.45 L1396.05 1538.98 Q1393.56 1537.71 1390.89 1537.07 Q1388.22 1536.44 1385.35 1536.44 Q1380.99 1536.44 1378.79 1537.77 Q1376.63 1539.11 1376.63 1541.79 Q1376.63 1543.82 1378.19 1545 Q1379.75 1546.15 1384.46 1547.2 L1386.47 1547.64 Q1392.7 1548.98 1395.31 1551.43 Q1397.96 1553.85 1397.96 1558.21 Q1397.96 1563.17 1394.01 1566.07 Q1390.09 1568.97 1383.22 1568.97 Q1380.35 1568.97 1377.24 1568.39 Q1374.15 1567.85 1370.71 1566.74 L1370.71 1560.69 Q1373.96 1562.38 1377.11 1563.24 Q1380.26 1564.07 1383.35 1564.07 Q1387.48 1564.07 1389.71 1562.66 Q1391.94 1561.23 1391.94 1558.65 Q1391.94 1556.27 1390.32 1554.99 Q1388.73 1553.72 1383.28 1552.54 L1381.25 1552.07 Q1375.8 1550.92 1373.38 1548.56 Q1370.96 1546.18 1370.96 1542.04 Q1370.96 1537.01 1374.53 1534.27 Q1378.09 1531.54 1384.65 1531.54 Q1387.9 1531.54 1390.76 1532.01 Q1393.63 1532.49 1396.05 1533.45 Z" fill="#000000" fill-rule="evenodd" fill-opacity="1" /><polyline clip-path="url(#clip092)" style="stroke:#000000; stroke-width:2; stroke-opacity:0.1; fill:none" points="
  249.542,1402.11 2352.76,1402.11 
  "/>
<polyline clip-path="url(#clip092)" style="stroke:#000000; stroke-width:2; stroke-opacity:0.1; fill:none" points="
  249.542,1087.65 2352.76,1087.65 
  "/>
<polyline clip-path="url(#clip092)" style="stroke:#000000; stroke-width:2; stroke-opacity:0.1; fill:none" points="
  249.542,773.184 2352.76,773.184 
  "/>
<polyline clip-path="url(#clip092)" style="stroke:#000000; stroke-width:2; stroke-opacity:0.1; fill:none" points="
  249.542,458.72 2352.76,458.72 
  "/>
<polyline clip-path="url(#clip092)" style="stroke:#000000; stroke-width:2; stroke-opacity:0.1; fill:none" points="
  249.542,144.257 2352.76,144.257 
  "/>
<polyline clip-path="url(#clip090)" style="stroke:#000000; stroke-width:4; stroke-opacity:1; fill:none" points="
  249.542,1423.18 249.542,123.472 
  "/>
<polyline clip-path="url(#clip090)" style="stroke:#000000; stroke-width:4; stroke-opacity:1; fill:none" points="
  249.542,1402.11 274.781,1402.11 
  "/>
<polyline clip-path="url(#clip090)" style="stroke:#000000; stroke-width:4; stroke-opacity:1; fill:none" points="
  249.542,1087.65 274.781,1087.65 
  "/>
<polyline clip-path="url(#clip090)" style="stroke:#000000; stroke-width:4; stroke-opacity:1; fill:none" points="
  249.542,773.184 274.781,773.184 
  "/>
<polyline clip-path="url(#clip090)" style="stroke:#000000; stroke-width:4; stroke-opacity:1; fill:none" points="
  249.542,458.72 274.781,458.72 
  "/>
<polyline clip-path="url(#clip090)" style="stroke:#000000; stroke-width:4; stroke-opacity:1; fill:none" points="
  249.542,144.257 274.781,144.257 
  "/>
<path clip-path="url(#clip090)" d="M 0 0 M126.205 1387.91 Q122.593 1387.91 120.765 1391.47 Q118.959 1395.02 118.959 1402.15 Q118.959 1409.25 120.765 1412.82 Q122.593 1416.36 126.205 1416.36 Q129.839 1416.36 131.644 1412.82 Q133.473 1409.25 133.473 1402.15 Q133.473 1395.02 131.644 1391.47 Q129.839 1387.91 126.205 1387.91 M126.205 1384.21 Q132.015 1384.21 135.07 1388.81 Q138.149 1393.4 138.149 1402.15 Q138.149 1410.87 135.07 1415.48 Q132.015 1420.06 126.205 1420.06 Q120.394 1420.06 117.316 1415.48 Q114.26 1410.87 114.26 1402.15 Q114.26 1393.4 117.316 1388.81 Q120.394 1384.21 126.205 1384.21 Z" fill="#000000" fill-rule="evenodd" fill-opacity="1" /><path clip-path="url(#clip090)" d="M 0 0 M146.366 1413.51 L151.251 1413.51 L151.251 1419.39 L146.366 1419.39 L146.366 1413.51 Z" fill="#000000" fill-rule="evenodd" fill-opacity="1" /><path clip-path="url(#clip090)" d="M 0 0 M171.436 1387.91 Q167.825 1387.91 165.996 1391.47 Q164.19 1395.02 164.19 1402.15 Q164.19 1409.25 165.996 1412.82 Q167.825 1416.36 171.436 1416.36 Q175.07 1416.36 176.876 1412.82 Q178.704 1409.25 178.704 1402.15 Q178.704 1395.02 176.876 1391.47 Q175.07 1387.91 171.436 1387.91 M171.436 1384.21 Q177.246 1384.21 180.301 1388.81 Q183.38 1393.4 183.38 1402.15 Q183.38 1410.87 180.301 1415.48 Q177.246 1420.06 171.436 1420.06 Q165.626 1420.06 162.547 1415.48 Q159.491 1410.87 159.491 1402.15 Q159.491 1393.4 162.547 1388.81 Q165.626 1384.21 171.436 1384.21 Z" fill="#000000" fill-rule="evenodd" fill-opacity="1" /><path clip-path="url(#clip090)" d="M 0 0 M201.598 1387.91 Q197.987 1387.91 196.158 1391.47 Q194.352 1395.02 194.352 1402.15 Q194.352 1409.25 196.158 1412.82 Q197.987 1416.36 201.598 1416.36 Q205.232 1416.36 207.037 1412.82 Q208.866 1409.25 208.866 1402.15 Q208.866 1395.02 207.037 1391.47 Q205.232 1387.91 201.598 1387.91 M201.598 1384.21 Q207.408 1384.21 210.463 1388.81 Q213.542 1393.4 213.542 1402.15 Q213.542 1410.87 210.463 1415.48 Q207.408 1420.06 201.598 1420.06 Q195.787 1420.06 192.709 1415.48 Q189.653 1410.87 189.653 1402.15 Q189.653 1393.4 192.709 1388.81 Q195.787 1384.21 201.598 1384.21 Z" fill="#000000" fill-rule="evenodd" fill-opacity="1" /><path clip-path="url(#clip090)" d="M 0 0 M127.2 1073.45 Q123.589 1073.45 121.76 1077.01 Q119.955 1080.55 119.955 1087.68 Q119.955 1094.79 121.76 1098.35 Q123.589 1101.89 127.2 1101.89 Q130.834 1101.89 132.64 1098.35 Q134.468 1094.79 134.468 1087.68 Q134.468 1080.55 132.64 1077.01 Q130.834 1073.45 127.2 1073.45 M127.2 1069.74 Q133.01 1069.74 136.066 1074.35 Q139.144 1078.93 139.144 1087.68 Q139.144 1096.41 136.066 1101.02 Q133.01 1105.6 127.2 1105.6 Q121.39 1105.6 118.311 1101.02 Q115.256 1096.41 115.256 1087.68 Q115.256 1078.93 118.311 1074.35 Q121.39 1069.74 127.2 1069.74 Z" fill="#000000" fill-rule="evenodd" fill-opacity="1" /><path clip-path="url(#clip090)" d="M 0 0 M147.362 1099.05 L152.246 1099.05 L152.246 1104.93 L147.362 1104.93 L147.362 1099.05 Z" fill="#000000" fill-rule="evenodd" fill-opacity="1" /><path clip-path="url(#clip090)" d="M 0 0 M166.459 1100.99 L182.778 1100.99 L182.778 1104.93 L160.834 1104.93 L160.834 1100.99 Q163.496 1098.24 168.079 1093.61 Q172.686 1088.96 173.866 1087.61 Q176.112 1085.09 176.991 1083.35 Q177.894 1081.59 177.894 1079.9 Q177.894 1077.15 175.95 1075.41 Q174.028 1073.68 170.927 1073.68 Q168.727 1073.68 166.274 1074.44 Q163.843 1075.21 161.065 1076.76 L161.065 1072.03 Q163.89 1070.9 166.343 1070.32 Q168.797 1069.74 170.834 1069.74 Q176.204 1069.74 179.399 1072.43 Q182.593 1075.11 182.593 1079.6 Q182.593 1081.73 181.783 1083.65 Q180.996 1085.55 178.889 1088.15 Q178.311 1088.82 175.209 1092.03 Q172.107 1095.23 166.459 1100.99 Z" fill="#000000" fill-rule="evenodd" fill-opacity="1" /><path clip-path="url(#clip090)" d="M 0 0 M192.639 1070.37 L210.996 1070.37 L210.996 1074.3 L196.922 1074.3 L196.922 1082.77 Q197.94 1082.43 198.959 1082.27 Q199.977 1082.08 200.996 1082.08 Q206.783 1082.08 210.162 1085.25 Q213.542 1088.42 213.542 1093.84 Q213.542 1099.42 210.07 1102.52 Q206.598 1105.6 200.278 1105.6 Q198.102 1105.6 195.834 1105.23 Q193.588 1104.86 191.181 1104.12 L191.181 1099.42 Q193.264 1100.55 195.487 1101.11 Q197.709 1101.66 200.186 1101.66 Q204.19 1101.66 206.528 1099.56 Q208.866 1097.45 208.866 1093.84 Q208.866 1090.23 206.528 1088.12 Q204.19 1086.02 200.186 1086.02 Q198.311 1086.02 196.436 1086.43 Q194.584 1086.85 192.639 1087.73 L192.639 1070.37 Z" fill="#000000" fill-rule="evenodd" fill-opacity="1" /><path clip-path="url(#clip090)" d="M 0 0 M126.205 758.983 Q122.593 758.983 120.765 762.547 Q118.959 766.089 118.959 773.219 Q118.959 780.325 120.765 783.89 Q122.593 787.432 126.205 787.432 Q129.839 787.432 131.644 783.89 Q133.473 780.325 133.473 773.219 Q133.473 766.089 131.644 762.547 Q129.839 758.983 126.205 758.983 M126.205 755.279 Q132.015 755.279 135.07 759.885 Q138.149 764.469 138.149 773.219 Q138.149 781.945 135.07 786.552 Q132.015 791.135 126.205 791.135 Q120.394 791.135 117.316 786.552 Q114.26 781.945 114.26 773.219 Q114.26 764.469 117.316 759.885 Q120.394 755.279 126.205 755.279 Z" fill="#000000" fill-rule="evenodd" fill-opacity="1" /><path clip-path="url(#clip090)" d="M 0 0 M146.366 784.584 L151.251 784.584 L151.251 790.464 L146.366 790.464 L146.366 784.584 Z" fill="#000000" fill-rule="evenodd" fill-opacity="1" /><path clip-path="url(#clip090)" d="M 0 0 M161.482 755.904 L179.839 755.904 L179.839 759.839 L165.765 759.839 L165.765 768.311 Q166.783 767.964 167.802 767.802 Q168.82 767.617 169.839 767.617 Q175.626 767.617 179.005 770.788 Q182.385 773.959 182.385 779.376 Q182.385 784.955 178.913 788.057 Q175.44 791.135 169.121 791.135 Q166.945 791.135 164.677 790.765 Q162.431 790.394 160.024 789.654 L160.024 784.955 Q162.107 786.089 164.329 786.644 Q166.552 787.2 169.028 787.2 Q173.033 787.2 175.371 785.094 Q177.709 782.987 177.709 779.376 Q177.709 775.765 175.371 773.658 Q173.033 771.552 169.028 771.552 Q167.153 771.552 165.278 771.969 Q163.427 772.385 161.482 773.265 L161.482 755.904 Z" fill="#000000" fill-rule="evenodd" fill-opacity="1" /><path clip-path="url(#clip090)" d="M 0 0 M201.598 758.983 Q197.987 758.983 196.158 762.547 Q194.352 766.089 194.352 773.219 Q194.352 780.325 196.158 783.89 Q197.987 787.432 201.598 787.432 Q205.232 787.432 207.037 783.89 Q208.866 780.325 208.866 773.219 Q208.866 766.089 207.037 762.547 Q205.232 758.983 201.598 758.983 M201.598 755.279 Q207.408 755.279 210.463 759.885 Q213.542 764.469 213.542 773.219 Q213.542 781.945 210.463 786.552 Q207.408 791.135 201.598 791.135 Q195.787 791.135 192.709 786.552 Q189.653 781.945 189.653 773.219 Q189.653 764.469 192.709 759.885 Q195.787 755.279 201.598 755.279 Z" fill="#000000" fill-rule="evenodd" fill-opacity="1" /><path clip-path="url(#clip090)" d="M 0 0 M127.2 444.519 Q123.589 444.519 121.76 448.084 Q119.955 451.626 119.955 458.755 Q119.955 465.862 121.76 469.426 Q123.589 472.968 127.2 472.968 Q130.834 472.968 132.64 469.426 Q134.468 465.862 134.468 458.755 Q134.468 451.626 132.64 448.084 Q130.834 444.519 127.2 444.519 M127.2 440.815 Q133.01 440.815 136.066 445.422 Q139.144 450.005 139.144 458.755 Q139.144 467.482 136.066 472.088 Q133.01 476.672 127.2 476.672 Q121.39 476.672 118.311 472.088 Q115.256 467.482 115.256 458.755 Q115.256 450.005 118.311 445.422 Q121.39 440.815 127.2 440.815 Z" fill="#000000" fill-rule="evenodd" fill-opacity="1" /><path clip-path="url(#clip090)" d="M 0 0 M147.362 470.121 L152.246 470.121 L152.246 476 L147.362 476 L147.362 470.121 Z" fill="#000000" fill-rule="evenodd" fill-opacity="1" /><path clip-path="url(#clip090)" d="M 0 0 M161.251 441.44 L183.473 441.44 L183.473 443.431 L170.927 476 L166.042 476 L177.848 445.376 L161.251 445.376 L161.251 441.44 Z" fill="#000000" fill-rule="evenodd" fill-opacity="1" /><path clip-path="url(#clip090)" d="M 0 0 M192.639 441.44 L210.996 441.44 L210.996 445.376 L196.922 445.376 L196.922 453.848 Q197.94 453.501 198.959 453.338 Q199.977 453.153 200.996 453.153 Q206.783 453.153 210.162 456.325 Q213.542 459.496 213.542 464.913 Q213.542 470.491 210.07 473.593 Q206.598 476.672 200.278 476.672 Q198.102 476.672 195.834 476.301 Q193.588 475.931 191.181 475.19 L191.181 470.491 Q193.264 471.625 195.487 472.181 Q197.709 472.737 200.186 472.737 Q204.19 472.737 206.528 470.63 Q208.866 468.524 208.866 464.913 Q208.866 461.301 206.528 459.195 Q204.19 457.088 200.186 457.088 Q198.311 457.088 196.436 457.505 Q194.584 457.922 192.639 458.801 L192.639 441.44 Z" fill="#000000" fill-rule="evenodd" fill-opacity="1" /><path clip-path="url(#clip090)" d="M 0 0 M117.015 157.602 L124.654 157.602 L124.654 131.236 L116.343 132.903 L116.343 128.644 L124.607 126.977 L129.283 126.977 L129.283 157.602 L136.922 157.602 L136.922 161.537 L117.015 161.537 L117.015 157.602 Z" fill="#000000" fill-rule="evenodd" fill-opacity="1" /><path clip-path="url(#clip090)" d="M 0 0 M146.366 155.657 L151.251 155.657 L151.251 161.537 L146.366 161.537 L146.366 155.657 Z" fill="#000000" fill-rule="evenodd" fill-opacity="1" /><path clip-path="url(#clip090)" d="M 0 0 M171.436 130.056 Q167.825 130.056 165.996 133.62 Q164.19 137.162 164.19 144.292 Q164.19 151.398 165.996 154.963 Q167.825 158.505 171.436 158.505 Q175.07 158.505 176.876 154.963 Q178.704 151.398 178.704 144.292 Q178.704 137.162 176.876 133.62 Q175.07 130.056 171.436 130.056 M171.436 126.352 Q177.246 126.352 180.301 130.958 Q183.38 135.542 183.38 144.292 Q183.38 153.018 180.301 157.625 Q177.246 162.208 171.436 162.208 Q165.626 162.208 162.547 157.625 Q159.491 153.018 159.491 144.292 Q159.491 135.542 162.547 130.958 Q165.626 126.352 171.436 126.352 Z" fill="#000000" fill-rule="evenodd" fill-opacity="1" /><path clip-path="url(#clip090)" d="M 0 0 M201.598 130.056 Q197.987 130.056 196.158 133.62 Q194.352 137.162 194.352 144.292 Q194.352 151.398 196.158 154.963 Q197.987 158.505 201.598 158.505 Q205.232 158.505 207.037 154.963 Q208.866 151.398 208.866 144.292 Q208.866 137.162 207.037 133.62 Q205.232 130.056 201.598 130.056 M201.598 126.352 Q207.408 126.352 210.463 130.958 Q213.542 135.542 213.542 144.292 Q213.542 153.018 210.463 157.625 Q207.408 162.208 201.598 162.208 Q195.787 162.208 192.709 157.625 Q189.653 153.018 189.653 144.292 Q189.653 135.542 192.709 130.958 Q195.787 126.352 201.598 126.352 Z" fill="#000000" fill-rule="evenodd" fill-opacity="1" /><path clip-path="url(#clip090)" d="M 0 0 M16.4842 866.504 L16.4842 859.597 L36.0269 846.42 L16.4842 833.339 L16.4842 826.432 L41.3741 843.237 L64.0042 843.237 L64.0042 849.699 L41.3741 849.699 L16.4842 866.504 Z" fill="#000000" fill-rule="evenodd" fill-opacity="1" /><path clip-path="url(#clip090)" d="M 0 0 M43.5384 831.111 L43.5384 813.955 L48.7583 813.955 L48.7583 831.111 L43.5384 831.111 Z" fill="#000000" fill-rule="evenodd" fill-opacity="1" /><path clip-path="url(#clip090)" d="M 0 0 M22.818 789.925 L46.4666 798.646 L46.4666 781.172 L22.818 789.925 M16.4842 793.553 L16.4842 786.264 L64.0042 768.154 L64.0042 774.838 L51.8138 779.167 L51.8138 800.587 L64.0042 804.916 L64.0042 811.695 L16.4842 793.553 Z" fill="#000000" fill-rule="evenodd" fill-opacity="1" /><path clip-path="url(#clip090)" d="M 0 0 M28.3562 731.837 L45.7028 744.728 L64.0042 731.169 L64.0042 738.076 L49.9996 748.452 L64.0042 758.828 L64.0042 765.735 L45.3526 751.889 L28.3562 764.557 L28.3562 757.65 L41.0558 748.197 L28.3562 738.744 L28.3562 731.837 Z" fill="#000000" fill-rule="evenodd" fill-opacity="1" /><path clip-path="url(#clip090)" d="M 0 0 M28.3562 722.894 L28.3562 717.037 L64.0042 717.037 L64.0042 722.894 L28.3562 722.894 M14.479 722.894 L14.479 717.037 L21.895 717.037 L21.895 722.894 L14.479 722.894 Z" fill="#000000" fill-rule="evenodd" fill-opacity="1" /><path clip-path="url(#clip090)" d="M 0 0 M29.4065 682.058 L34.9447 682.058 Q33.6716 684.54 33.035 687.214 Q32.3984 689.887 32.3984 692.752 Q32.3984 697.113 33.7352 699.309 Q35.072 701.473 37.7456 701.473 Q39.7826 701.473 40.9603 699.913 Q42.1061 698.354 43.1565 693.643 L43.6021 691.638 Q44.9389 685.4 47.3897 682.79 Q49.8086 680.148 54.1691 680.148 Q59.1344 680.148 62.0308 684.095 Q64.9272 688.01 64.9272 694.885 Q64.9272 697.749 64.3543 700.868 Q63.8132 703.956 62.6992 707.393 L56.6518 707.393 Q58.3387 704.147 59.198 700.996 Q60.0256 697.845 60.0256 694.757 Q60.0256 690.62 58.6251 688.392 Q57.1929 686.164 54.6147 686.164 Q52.2276 686.164 50.9545 687.787 Q49.6813 689.378 48.5037 694.821 L48.0262 696.858 Q46.8804 702.301 44.5251 704.72 Q42.138 707.139 38.0002 707.139 Q32.9713 707.139 30.2341 703.574 Q27.4968 700.009 27.4968 693.452 Q27.4968 690.206 27.9743 687.341 Q28.4517 684.477 29.4065 682.058 Z" fill="#000000" fill-rule="evenodd" fill-opacity="1" /><path clip-path="url(#clip090)" d="M 0 0 M1101.46 14.0809 L1101.46 22.0612 Q1096.8 19.8332 1092.67 18.7395 Q1088.54 17.6457 1084.69 17.6457 Q1078 17.6457 1074.36 20.2383 Q1070.75 22.8309 1070.75 27.611 Q1070.75 31.6214 1073.14 33.6873 Q1075.57 35.7128 1082.3 36.9686 L1087.24 37.9813 Q1096.4 39.7232 1100.73 44.1387 Q1105.11 48.5136 1105.11 55.8863 Q1105.11 64.6767 1099.19 69.2137 Q1093.32 73.7508 1081.93 73.7508 Q1077.64 73.7508 1072.78 72.7785 Q1067.96 71.8063 1062.77 69.9024 L1062.77 61.4765 Q1067.76 64.2716 1072.54 65.6895 Q1077.32 67.1073 1081.93 67.1073 Q1088.94 67.1073 1092.75 64.3527 Q1096.56 61.598 1096.56 56.4939 Q1096.56 52.0379 1093.8 49.5264 Q1091.09 47.0148 1084.85 45.759 L1079.87 44.7868 Q1070.71 42.9639 1066.62 39.075 Q1062.53 35.1862 1062.53 28.2591 Q1062.53 20.2383 1068.16 15.6203 Q1073.83 11.0023 1083.76 11.0023 Q1088.01 11.0023 1092.43 11.7719 Q1096.84 12.5416 1101.46 14.0809 Z" fill="#000000" fill-rule="evenodd" fill-opacity="1" /><path clip-path="url(#clip090)" d="M 0 0 M1150.19 28.9478 L1150.19 35.9153 Q1147.03 34.1734 1143.83 33.3227 Q1140.67 32.4315 1137.43 32.4315 Q1130.18 32.4315 1126.17 37.0496 Q1122.16 41.6271 1122.16 49.9314 Q1122.16 58.2358 1126.17 62.8538 Q1130.18 67.4314 1137.43 67.4314 Q1140.67 67.4314 1143.83 66.5807 Q1147.03 65.6895 1150.19 63.9476 L1150.19 70.8341 Q1147.07 72.2924 1143.71 73.0216 Q1140.39 73.7508 1136.62 73.7508 Q1126.37 73.7508 1120.34 67.3098 Q1114.3 60.8689 1114.3 49.9314 Q1114.3 38.832 1120.38 32.472 Q1126.49 26.1121 1137.11 26.1121 Q1140.55 26.1121 1143.83 26.8413 Q1147.11 27.5299 1150.19 28.9478 Z" fill="#000000" fill-rule="evenodd" fill-opacity="1" /><path clip-path="url(#clip090)" d="M 0 0 M1183.77 49.7694 Q1174.74 49.7694 1171.26 51.8354 Q1167.77 53.9013 1167.77 58.8839 Q1167.77 62.8538 1170.37 65.2034 Q1173 67.5124 1177.5 67.5124 Q1183.69 67.5124 1187.42 63.1374 Q1191.19 58.7219 1191.19 51.4303 L1191.19 49.7694 L1183.77 49.7694 M1198.64 46.6907 L1198.64 72.576 L1191.19 72.576 L1191.19 65.6895 Q1188.64 69.8214 1184.83 71.8063 Q1181.02 73.7508 1175.51 73.7508 Q1168.54 73.7508 1164.41 69.8619 Q1160.32 65.9325 1160.32 59.3701 Q1160.32 51.7138 1165.42 47.825 Q1170.57 43.9361 1180.74 43.9361 L1191.19 43.9361 L1191.19 43.2069 Q1191.19 38.0623 1187.78 35.2672 Q1184.42 32.4315 1178.31 32.4315 Q1174.42 32.4315 1170.73 33.3632 Q1167.04 34.295 1163.64 36.1584 L1163.64 29.2718 Q1167.73 27.692 1171.58 26.9223 Q1175.43 26.1121 1179.07 26.1121 Q1188.92 26.1121 1193.78 31.2163 Q1198.64 36.3204 1198.64 46.6907 Z" fill="#000000" fill-rule="evenodd" fill-opacity="1" /><path clip-path="url(#clip090)" d="M 0 0 M1221.37 14.324 L1221.37 27.2059 L1236.72 27.2059 L1236.72 32.9987 L1221.37 32.9987 L1221.37 57.6282 Q1221.37 63.1779 1222.87 64.7578 Q1224.4 66.3376 1229.06 66.3376 L1236.72 66.3376 L1236.72 72.576 L1229.06 72.576 Q1220.43 72.576 1217.15 69.3758 Q1213.87 66.1351 1213.87 57.6282 L1213.87 32.9987 L1208.4 32.9987 L1208.4 27.2059 L1213.87 27.2059 L1213.87 14.324 L1221.37 14.324 Z" fill="#000000" fill-rule="evenodd" fill-opacity="1" /><path clip-path="url(#clip090)" d="M 0 0 M1253.9 14.324 L1253.9 27.2059 L1269.25 27.2059 L1269.25 32.9987 L1253.9 32.9987 L1253.9 57.6282 Q1253.9 63.1779 1255.39 64.7578 Q1256.93 66.3376 1261.59 66.3376 L1269.25 66.3376 L1269.25 72.576 L1261.59 72.576 Q1252.96 72.576 1249.68 69.3758 Q1246.4 66.1351 1246.4 57.6282 L1246.4 32.9987 L1240.93 32.9987 L1240.93 27.2059 L1246.4 27.2059 L1246.4 14.324 L1253.9 14.324 Z" fill="#000000" fill-rule="evenodd" fill-opacity="1" /><path clip-path="url(#clip090)" d="M 0 0 M1317.86 48.0275 L1317.86 51.6733 L1283.59 51.6733 Q1284.07 59.3701 1288.21 63.421 Q1292.38 67.4314 1299.79 67.4314 Q1304.09 67.4314 1308.1 66.3781 Q1312.15 65.3249 1316.12 63.2184 L1316.12 70.267 Q1312.11 71.9684 1307.89 72.8596 Q1303.68 73.7508 1299.35 73.7508 Q1288.49 73.7508 1282.13 67.4314 Q1275.81 61.1119 1275.81 50.3365 Q1275.81 39.1965 1281.81 32.6746 Q1287.84 26.1121 1298.05 26.1121 Q1307.21 26.1121 1312.51 32.0264 Q1317.86 37.9003 1317.86 48.0275 M1310.41 45.84 Q1310.32 39.7232 1306.96 36.0774 Q1303.64 32.4315 1298.13 32.4315 Q1291.89 32.4315 1288.13 35.9558 Q1284.4 39.4801 1283.83 45.8805 L1310.41 45.84 Z" fill="#000000" fill-rule="evenodd" fill-opacity="1" /><path clip-path="url(#clip090)" d="M 0 0 M1356.38 34.1734 Q1355.13 33.4443 1353.63 33.1202 Q1352.17 32.7556 1350.39 32.7556 Q1344.07 32.7556 1340.67 36.8875 Q1337.3 40.9789 1337.3 48.6757 L1337.3 72.576 L1329.81 72.576 L1329.81 27.2059 L1337.3 27.2059 L1337.3 34.2544 Q1339.65 30.1225 1343.42 28.1376 Q1347.19 26.1121 1352.58 26.1121 Q1353.34 26.1121 1354.28 26.2337 Q1355.21 26.3147 1356.34 26.5172 L1356.38 34.1734 Z" fill="#000000" fill-rule="evenodd" fill-opacity="1" /><path clip-path="url(#clip090)" d="M 0 0 M1397.78 65.7705 L1397.78 89.8329 L1390.29 89.8329 L1390.29 27.2059 L1397.78 27.2059 L1397.78 34.0924 Q1400.13 30.0415 1403.7 28.0971 Q1407.3 26.1121 1412.29 26.1121 Q1420.55 26.1121 1425.69 32.6746 Q1430.88 39.2371 1430.88 49.9314 Q1430.88 60.6258 1425.69 67.1883 Q1420.55 73.7508 1412.29 73.7508 Q1407.3 73.7508 1403.7 71.8063 Q1400.13 69.8214 1397.78 65.7705 M1423.14 49.9314 Q1423.14 41.7081 1419.74 37.0496 Q1416.38 32.3505 1410.46 32.3505 Q1404.55 32.3505 1401.15 37.0496 Q1397.78 41.7081 1397.78 49.9314 Q1397.78 58.1548 1401.15 62.8538 Q1404.55 67.5124 1410.46 67.5124 Q1416.38 67.5124 1419.74 62.8538 Q1423.14 58.1548 1423.14 49.9314 Z" fill="#000000" fill-rule="evenodd" fill-opacity="1" /><path clip-path="url(#clip090)" d="M 0 0 M1443.23 9.54393 L1450.69 9.54393 L1450.69 72.576 L1443.23 72.576 L1443.23 9.54393 Z" fill="#000000" fill-rule="evenodd" fill-opacity="1" /><path clip-path="url(#clip090)" d="M 0 0 M1483.87 32.4315 Q1477.87 32.4315 1474.39 37.1306 Q1470.9 41.7891 1470.9 49.9314 Q1470.9 58.0738 1474.35 62.7728 Q1477.83 67.4314 1483.87 67.4314 Q1489.82 67.4314 1493.3 62.7323 Q1496.79 58.0333 1496.79 49.9314 Q1496.79 41.8701 1493.3 37.1711 Q1489.82 32.4315 1483.87 32.4315 M1483.87 26.1121 Q1493.59 26.1121 1499.14 32.4315 Q1504.69 38.7509 1504.69 49.9314 Q1504.69 61.0714 1499.14 67.4314 Q1493.59 73.7508 1483.87 73.7508 Q1474.1 73.7508 1468.55 67.4314 Q1463.04 61.0714 1463.04 49.9314 Q1463.04 38.7509 1468.55 32.4315 Q1474.1 26.1121 1483.87 26.1121 Z" fill="#000000" fill-rule="evenodd" fill-opacity="1" /><path clip-path="url(#clip090)" d="M 0 0 M1524.41 14.324 L1524.41 27.2059 L1539.77 27.2059 L1539.77 32.9987 L1524.41 32.9987 L1524.41 57.6282 Q1524.41 63.1779 1525.91 64.7578 Q1527.45 66.3376 1532.11 66.3376 L1539.77 66.3376 L1539.77 72.576 L1532.11 72.576 Q1523.48 72.576 1520.2 69.3758 Q1516.92 66.1351 1516.92 57.6282 L1516.92 32.9987 L1511.45 32.9987 L1511.45 27.2059 L1516.92 27.2059 L1516.92 14.324 L1524.41 14.324 Z" fill="#000000" fill-rule="evenodd" fill-opacity="1" /><circle clip-path="url(#clip092)" cx="309.067" cy="272.448" r="21" fill="#008000" fill-rule="evenodd" fill-opacity="1" stroke="#000000" stroke-opacity="1" stroke-width="3.2"/>
<circle clip-path="url(#clip092)" cx="349.56" cy="160.256" r="21" fill="#008000" fill-rule="evenodd" fill-opacity="1" stroke="#000000" stroke-opacity="1" stroke-width="3.2"/>
<circle clip-path="url(#clip092)" cx="390.053" cy="749.031" r="21" fill="#008000" fill-rule="evenodd" fill-opacity="1" stroke="#000000" stroke-opacity="1" stroke-width="3.2"/>
<circle clip-path="url(#clip092)" cx="430.546" cy="766.144" r="21" fill="#008000" fill-rule="evenodd" fill-opacity="1" stroke="#000000" stroke-opacity="1" stroke-width="3.2"/>
<circle clip-path="url(#clip092)" cx="471.04" cy="1007.59" r="21" fill="#008000" fill-rule="evenodd" fill-opacity="1" stroke="#000000" stroke-opacity="1" stroke-width="3.2"/>
<circle clip-path="url(#clip092)" cx="511.533" cy="871.587" r="21" fill="#008000" fill-rule="evenodd" fill-opacity="1" stroke="#000000" stroke-opacity="1" stroke-width="3.2"/>
<circle clip-path="url(#clip092)" cx="552.026" cy="1258.61" r="21" fill="#008000" fill-rule="evenodd" fill-opacity="1" stroke="#000000" stroke-opacity="1" stroke-width="3.2"/>
<circle clip-path="url(#clip092)" cx="592.519" cy="1066.93" r="21" fill="#008000" fill-rule="evenodd" fill-opacity="1" stroke="#000000" stroke-opacity="1" stroke-width="3.2"/>
<circle clip-path="url(#clip092)" cx="633.012" cy="1011.93" r="21" fill="#008000" fill-rule="evenodd" fill-opacity="1" stroke="#000000" stroke-opacity="1" stroke-width="3.2"/>
<circle clip-path="url(#clip092)" cx="673.505" cy="543.437" r="21" fill="#008000" fill-rule="evenodd" fill-opacity="1" stroke="#000000" stroke-opacity="1" stroke-width="3.2"/>
<circle clip-path="url(#clip092)" cx="713.998" cy="575.315" r="21" fill="#008000" fill-rule="evenodd" fill-opacity="1" stroke="#000000" stroke-opacity="1" stroke-width="3.2"/>
<circle clip-path="url(#clip092)" cx="754.492" cy="1382.39" r="21" fill="#008000" fill-rule="evenodd" fill-opacity="1" stroke="#000000" stroke-opacity="1" stroke-width="3.2"/>
<circle clip-path="url(#clip092)" cx="794.985" cy="661.301" r="21" fill="#008000" fill-rule="evenodd" fill-opacity="1" stroke="#000000" stroke-opacity="1" stroke-width="3.2"/>
<circle clip-path="url(#clip092)" cx="835.478" cy="443.854" r="21" fill="#008000" fill-rule="evenodd" fill-opacity="1" stroke="#000000" stroke-opacity="1" stroke-width="3.2"/>
<circle clip-path="url(#clip092)" cx="875.971" cy="1330.51" r="21" fill="#008000" fill-rule="evenodd" fill-opacity="1" stroke="#000000" stroke-opacity="1" stroke-width="3.2"/>
<circle clip-path="url(#clip092)" cx="916.464" cy="936.006" r="21" fill="#008000" fill-rule="evenodd" fill-opacity="1" stroke="#000000" stroke-opacity="1" stroke-width="3.2"/>
<circle clip-path="url(#clip092)" cx="956.957" cy="464.137" r="21" fill="#008000" fill-rule="evenodd" fill-opacity="1" stroke="#000000" stroke-opacity="1" stroke-width="3.2"/>
<circle clip-path="url(#clip092)" cx="997.45" cy="1258" r="21" fill="#008000" fill-rule="evenodd" fill-opacity="1" stroke="#000000" stroke-opacity="1" stroke-width="3.2"/>
<circle clip-path="url(#clip092)" cx="1037.94" cy="735.115" r="21" fill="#008000" fill-rule="evenodd" fill-opacity="1" stroke="#000000" stroke-opacity="1" stroke-width="3.2"/>
<circle clip-path="url(#clip092)" cx="1078.44" cy="752.058" r="21" fill="#008000" fill-rule="evenodd" fill-opacity="1" stroke="#000000" stroke-opacity="1" stroke-width="3.2"/>
<circle clip-path="url(#clip092)" cx="1118.93" cy="560.957" r="21" fill="#008000" fill-rule="evenodd" fill-opacity="1" stroke="#000000" stroke-opacity="1" stroke-width="3.2"/>
<circle clip-path="url(#clip092)" cx="1159.42" cy="1386.4" r="21" fill="#008000" fill-rule="evenodd" fill-opacity="1" stroke="#000000" stroke-opacity="1" stroke-width="3.2"/>
<circle clip-path="url(#clip092)" cx="1199.92" cy="227.957" r="21" fill="#008000" fill-rule="evenodd" fill-opacity="1" stroke="#000000" stroke-opacity="1" stroke-width="3.2"/>
<circle clip-path="url(#clip092)" cx="1240.41" cy="303.543" r="21" fill="#008000" fill-rule="evenodd" fill-opacity="1" stroke="#000000" stroke-opacity="1" stroke-width="3.2"/>
<circle clip-path="url(#clip092)" cx="1280.9" cy="975.138" r="21" fill="#008000" fill-rule="evenodd" fill-opacity="1" stroke="#000000" stroke-opacity="1" stroke-width="3.2"/>
<circle clip-path="url(#clip092)" cx="1321.4" cy="886.26" r="21" fill="#008000" fill-rule="evenodd" fill-opacity="1" stroke="#000000" stroke-opacity="1" stroke-width="3.2"/>
<circle clip-path="url(#clip092)" cx="1361.89" cy="707.873" r="21" fill="#008000" fill-rule="evenodd" fill-opacity="1" stroke="#000000" stroke-opacity="1" stroke-width="3.2"/>
<circle clip-path="url(#clip092)" cx="1402.38" cy="1001.62" r="21" fill="#008000" fill-rule="evenodd" fill-opacity="1" stroke="#000000" stroke-opacity="1" stroke-width="3.2"/>
<circle clip-path="url(#clip092)" cx="1442.87" cy="1034.04" r="21" fill="#008000" fill-rule="evenodd" fill-opacity="1" stroke="#000000" stroke-opacity="1" stroke-width="3.2"/>
<circle clip-path="url(#clip092)" cx="1483.37" cy="859.221" r="21" fill="#008000" fill-rule="evenodd" fill-opacity="1" stroke="#000000" stroke-opacity="1" stroke-width="3.2"/>
<circle clip-path="url(#clip092)" cx="1523.86" cy="280.125" r="21" fill="#008000" fill-rule="evenodd" fill-opacity="1" stroke="#000000" stroke-opacity="1" stroke-width="3.2"/>
<circle clip-path="url(#clip092)" cx="1564.35" cy="1224.75" r="21" fill="#008000" fill-rule="evenodd" fill-opacity="1" stroke="#000000" stroke-opacity="1" stroke-width="3.2"/>
<circle clip-path="url(#clip092)" cx="1604.85" cy="782.637" r="21" fill="#008000" fill-rule="evenodd" fill-opacity="1" stroke="#000000" stroke-opacity="1" stroke-width="3.2"/>
<circle clip-path="url(#clip092)" cx="1645.34" cy="1155.17" r="21" fill="#008000" fill-rule="evenodd" fill-opacity="1" stroke="#000000" stroke-opacity="1" stroke-width="3.2"/>
<circle clip-path="url(#clip092)" cx="1685.83" cy="1076.77" r="21" fill="#008000" fill-rule="evenodd" fill-opacity="1" stroke="#000000" stroke-opacity="1" stroke-width="3.2"/>
<circle clip-path="url(#clip092)" cx="1726.33" cy="1212.34" r="21" fill="#008000" fill-rule="evenodd" fill-opacity="1" stroke="#000000" stroke-opacity="1" stroke-width="3.2"/>
<circle clip-path="url(#clip092)" cx="1766.82" cy="819.81" r="21" fill="#008000" fill-rule="evenodd" fill-opacity="1" stroke="#000000" stroke-opacity="1" stroke-width="3.2"/>
<circle clip-path="url(#clip092)" cx="1807.31" cy="405.035" r="21" fill="#008000" fill-rule="evenodd" fill-opacity="1" stroke="#000000" stroke-opacity="1" stroke-width="3.2"/>
<circle clip-path="url(#clip092)" cx="1847.81" cy="644.021" r="21" fill="#008000" fill-rule="evenodd" fill-opacity="1" stroke="#000000" stroke-opacity="1" stroke-width="3.2"/>
<circle clip-path="url(#clip092)" cx="1888.3" cy="1127.49" r="21" fill="#008000" fill-rule="evenodd" fill-opacity="1" stroke="#000000" stroke-opacity="1" stroke-width="3.2"/>
<circle clip-path="url(#clip092)" cx="1928.79" cy="1228.05" r="21" fill="#008000" fill-rule="evenodd" fill-opacity="1" stroke="#000000" stroke-opacity="1" stroke-width="3.2"/>
<circle clip-path="url(#clip092)" cx="1969.29" cy="171.943" r="21" fill="#008000" fill-rule="evenodd" fill-opacity="1" stroke="#000000" stroke-opacity="1" stroke-width="3.2"/>
<circle clip-path="url(#clip092)" cx="2009.78" cy="465.524" r="21" fill="#008000" fill-rule="evenodd" fill-opacity="1" stroke="#000000" stroke-opacity="1" stroke-width="3.2"/>
<circle clip-path="url(#clip092)" cx="2050.27" cy="284.777" r="21" fill="#008000" fill-rule="evenodd" fill-opacity="1" stroke="#000000" stroke-opacity="1" stroke-width="3.2"/>
<circle clip-path="url(#clip092)" cx="2090.77" cy="291.55" r="21" fill="#008000" fill-rule="evenodd" fill-opacity="1" stroke="#000000" stroke-opacity="1" stroke-width="3.2"/>
<circle clip-path="url(#clip092)" cx="2131.26" cy="702.681" r="21" fill="#008000" fill-rule="evenodd" fill-opacity="1" stroke="#000000" stroke-opacity="1" stroke-width="3.2"/>
<circle clip-path="url(#clip092)" cx="2171.75" cy="1266.53" r="21" fill="#008000" fill-rule="evenodd" fill-opacity="1" stroke="#000000" stroke-opacity="1" stroke-width="3.2"/>
<circle clip-path="url(#clip092)" cx="2212.24" cy="264.136" r="21" fill="#008000" fill-rule="evenodd" fill-opacity="1" stroke="#000000" stroke-opacity="1" stroke-width="3.2"/>
<circle clip-path="url(#clip092)" cx="2252.74" cy="617.609" r="21" fill="#008000" fill-rule="evenodd" fill-opacity="1" stroke="#000000" stroke-opacity="1" stroke-width="3.2"/>
<circle clip-path="url(#clip092)" cx="2293.23" cy="919.381" r="21" fill="#008000" fill-rule="evenodd" fill-opacity="1" stroke="#000000" stroke-opacity="1" stroke-width="3.2"/>
<path clip-path="url(#clip090)" d="
M1996.53 287.756 L2282.65 287.756 L2282.65 166.796 L1996.53 166.796  Z
  " fill="#ffffff" fill-rule="evenodd" fill-opacity="1"/>
<polyline clip-path="url(#clip090)" style="stroke:#000000; stroke-width:4; stroke-opacity:1; fill:none" points="
  1996.53,287.756 2282.65,287.756 2282.65,166.796 1996.53,166.796 1996.53,287.756 
  "/>
<circle clip-path="url(#clip090)" cx="2090" cy="227.276" r="23" fill="#008000" fill-rule="evenodd" fill-opacity="1" stroke="#000000" stroke-opacity="1" stroke-width="3.41333"/>
<path clip-path="url(#clip090)" d="M 0 0 M2197.32 246.963 Q2195.52 251.593 2193.8 253.005 Q2192.09 254.417 2189.22 254.417 L2185.82 254.417 L2185.82 250.852 L2188.32 250.852 Q2190.08 250.852 2191.05 250.019 Q2192.02 249.185 2193.2 246.083 L2193.97 244.139 L2183.48 218.63 L2187.99 218.63 L2196.1 238.908 L2204.2 218.63 L2208.71 218.63 L2197.32 246.963 Z" fill="#000000" fill-rule="evenodd" fill-opacity="1" /><path clip-path="url(#clip090)" d="M 0 0 M2216 240.621 L2223.64 240.621 L2223.64 214.255 L2215.33 215.922 L2215.33 211.662 L2223.6 209.996 L2228.27 209.996 L2228.27 240.621 L2235.91 240.621 L2235.91 244.556 L2216 244.556 L2216 240.621 Z" fill="#000000" fill-rule="evenodd" fill-opacity="1" /></svg>
