<?xml version="1.0" encoding="utf-8"?>
<svg xmlns="http://www.w3.org/2000/svg" xmlns:xlink="http://www.w3.org/1999/xlink" width="600" height="400" viewBox="0 0 2400 1600">
<defs>
  <clipPath id="clip250">
    <rect x="0" y="0" width="2400" height="1600"/>
  </clipPath>
</defs>
<path clip-path="url(#clip250)" d="
M0 1600 L2400 1600 L2400 0 L0 0  Z
  " fill="#ffffff" fill-rule="evenodd" fill-opacity="1"/>
<defs>
  <clipPath id="clip251">
    <rect x="480" y="0" width="1681" height="1600"/>
  </clipPath>
</defs>
<path clip-path="url(#clip250)" d="
M186.274 286.448 L2352.76 286.448 L2352.76 47.2441 L186.274 47.2441  Z
  " fill="#ffffff" fill-rule="evenodd" fill-opacity="1"/>
<defs>
  <clipPath id="clip252">
    <rect x="186" y="47" width="2167" height="240"/>
  </clipPath>
</defs>
<polyline clip-path="url(#clip252)" style="stroke:#000000; stroke-width:2; stroke-opacity:0.1; fill:none" points="
  393.579,286.448 393.579,47.2441 
  "/>
<polyline clip-path="url(#clip252)" style="stroke:#000000; stroke-width:2; stroke-opacity:0.1; fill:none" points="
  685.558,286.448 685.558,47.2441 
  "/>
<polyline clip-path="url(#clip252)" style="stroke:#000000; stroke-width:2; stroke-opacity:0.1; fill:none" points="
  977.536,286.448 977.536,47.2441 
  "/>
<polyline clip-path="url(#clip252)" style="stroke:#000000; stroke-width:2; stroke-opacity:0.1; fill:none" points="
  1269.51,286.448 1269.51,47.2441 
  "/>
<polyline clip-path="url(#clip252)" style="stroke:#000000; stroke-width:2; stroke-opacity:0.1; fill:none" points="
  1561.49,286.448 1561.49,47.2441 
  "/>
<polyline clip-path="url(#clip252)" style="stroke:#000000; stroke-width:2; stroke-opacity:0.1; fill:none" points="
  1853.47,286.448 1853.47,47.2441 
  "/>
<polyline clip-path="url(#clip252)" style="stroke:#000000; stroke-width:2; stroke-opacity:0.1; fill:none" points="
  2145.45,286.448 2145.45,47.2441 
  "/>
<polyline clip-path="url(#clip250)" style="stroke:#000000; stroke-width:4; stroke-opacity:1; fill:none" points="
  186.274,286.448 2352.76,286.448 
  "/>
<polyline clip-path="url(#clip250)" style="stroke:#000000; stroke-width:4; stroke-opacity:1; fill:none" points="
  393.579,286.448 393.579,283.577 
  "/>
<polyline clip-path="url(#clip250)" style="stroke:#000000; stroke-width:4; stroke-opacity:1; fill:none" points="
  685.558,286.448 685.558,283.577 
  "/>
<polyline clip-path="url(#clip250)" style="stroke:#000000; stroke-width:4; stroke-opacity:1; fill:none" points="
  977.536,286.448 977.536,283.577 
  "/>
<polyline clip-path="url(#clip250)" style="stroke:#000000; stroke-width:4; stroke-opacity:1; fill:none" points="
  1269.51,286.448 1269.51,283.577 
  "/>
<polyline clip-path="url(#clip250)" style="stroke:#000000; stroke-width:4; stroke-opacity:1; fill:none" points="
  1561.49,286.448 1561.49,283.577 
  "/>
<polyline clip-path="url(#clip250)" style="stroke:#000000; stroke-width:4; stroke-opacity:1; fill:none" points="
  1853.47,286.448 1853.47,283.577 
  "/>
<polyline clip-path="url(#clip250)" style="stroke:#000000; stroke-width:4; stroke-opacity:1; fill:none" points="
  2145.45,286.448 2145.45,283.577 
  "/>
<path clip-path="url(#clip250)" d="M 0 0 M388.232 343.185 L404.551 343.185 L404.551 347.12 L382.607 347.12 L382.607 343.185 Q385.269 340.43 389.852 335.8 Q394.458 331.148 395.639 329.805 Q397.884 327.282 398.764 325.546 Q399.667 323.787 399.667 322.097 Q399.667 319.342 397.722 317.606 Q395.801 315.87 392.699 315.87 Q390.5 315.87 388.046 316.634 Q385.616 317.398 382.838 318.949 L382.838 314.227 Q385.662 313.092 388.116 312.514 Q390.57 311.935 392.607 311.935 Q397.977 311.935 401.171 314.62 Q404.366 317.305 404.366 321.796 Q404.366 323.926 403.556 325.847 Q402.769 327.745 400.662 330.338 Q400.083 331.009 396.982 334.226 Q393.88 337.421 388.232 343.185 Z" fill="#000000" fill-rule="evenodd" fill-opacity="1" /><path clip-path="url(#clip250)" d="M 0 0 M688.567 316.634 L676.761 335.083 L688.567 335.083 L688.567 316.634 M687.34 312.56 L693.22 312.56 L693.22 335.083 L698.15 335.083 L698.15 338.972 L693.22 338.972 L693.22 347.12 L688.567 347.12 L688.567 338.972 L672.965 338.972 L672.965 334.458 L687.34 312.56 Z" fill="#000000" fill-rule="evenodd" fill-opacity="1" /><path clip-path="url(#clip250)" d="M 0 0 M977.941 327.976 Q974.793 327.976 972.941 330.129 Q971.113 332.282 971.113 336.032 Q971.113 339.759 972.941 341.935 Q974.793 344.087 977.941 344.087 Q981.089 344.087 982.918 341.935 Q984.77 339.759 984.77 336.032 Q984.77 332.282 982.918 330.129 Q981.089 327.976 977.941 327.976 M987.224 313.324 L987.224 317.583 Q985.464 316.75 983.659 316.31 Q981.877 315.87 980.117 315.87 Q975.488 315.87 973.034 318.995 Q970.603 322.12 970.256 328.439 Q971.622 326.426 973.682 325.361 Q975.742 324.273 978.219 324.273 Q983.427 324.273 986.437 327.444 Q989.469 330.592 989.469 336.032 Q989.469 341.356 986.321 344.574 Q983.173 347.791 977.941 347.791 Q971.946 347.791 968.775 343.208 Q965.603 338.601 965.603 329.875 Q965.603 321.68 969.492 316.819 Q973.381 311.935 979.932 311.935 Q981.691 311.935 983.474 312.282 Q985.279 312.629 987.224 313.324 Z" fill="#000000" fill-rule="evenodd" fill-opacity="1" /><path clip-path="url(#clip250)" d="M 0 0 M1269.51 330.708 Q1266.18 330.708 1264.26 332.49 Q1262.36 334.273 1262.36 337.398 Q1262.36 340.523 1264.26 342.305 Q1266.18 344.087 1269.51 344.087 Q1272.85 344.087 1274.77 342.305 Q1276.69 340.5 1276.69 337.398 Q1276.69 334.273 1274.77 332.49 Q1272.87 330.708 1269.51 330.708 M1264.84 328.717 Q1261.83 327.976 1260.14 325.916 Q1258.47 323.856 1258.47 320.893 Q1258.47 316.75 1261.41 314.342 Q1264.38 311.935 1269.51 311.935 Q1274.68 311.935 1277.62 314.342 Q1280.56 316.75 1280.56 320.893 Q1280.56 323.856 1278.87 325.916 Q1277.2 327.976 1274.21 328.717 Q1277.59 329.504 1279.47 331.796 Q1281.37 334.088 1281.37 337.398 Q1281.37 342.421 1278.29 345.106 Q1275.23 347.791 1269.51 347.791 Q1263.8 347.791 1260.72 345.106 Q1257.66 342.421 1257.66 337.398 Q1257.66 334.088 1259.56 331.796 Q1261.46 329.504 1264.84 328.717 M1263.13 321.333 Q1263.13 324.018 1264.79 325.523 Q1266.48 327.027 1269.51 327.027 Q1272.52 327.027 1274.21 325.523 Q1275.93 324.018 1275.93 321.333 Q1275.93 318.648 1274.21 317.143 Q1272.52 315.639 1269.51 315.639 Q1266.48 315.639 1264.79 317.143 Q1263.13 318.648 1263.13 321.333 Z" fill="#000000" fill-rule="evenodd" fill-opacity="1" /><path clip-path="url(#clip250)" d="M 0 0 M1536.18 343.185 L1543.82 343.185 L1543.82 316.819 L1535.51 318.486 L1535.51 314.227 L1543.77 312.56 L1548.45 312.56 L1548.45 343.185 L1556.09 343.185 L1556.09 347.12 L1536.18 347.12 L1536.18 343.185 Z" fill="#000000" fill-rule="evenodd" fill-opacity="1" /><path clip-path="url(#clip250)" d="M 0 0 M1575.53 315.639 Q1571.92 315.639 1570.09 319.203 Q1568.29 322.745 1568.29 329.875 Q1568.29 336.981 1570.09 340.546 Q1571.92 344.087 1575.53 344.087 Q1579.17 344.087 1580.97 340.546 Q1582.8 336.981 1582.8 329.875 Q1582.8 322.745 1580.97 319.203 Q1579.17 315.639 1575.53 315.639 M1575.53 311.935 Q1581.34 311.935 1584.4 316.541 Q1587.48 321.125 1587.48 329.875 Q1587.48 338.601 1584.4 343.208 Q1581.34 347.791 1575.53 347.791 Q1569.72 347.791 1566.64 343.208 Q1563.59 338.601 1563.59 329.875 Q1563.59 321.125 1566.64 316.541 Q1569.72 311.935 1575.53 311.935 Z" fill="#000000" fill-rule="evenodd" fill-opacity="1" /><path clip-path="url(#clip250)" d="M 0 0 M1828.96 343.185 L1836.6 343.185 L1836.6 316.819 L1828.29 318.486 L1828.29 314.227 L1836.55 312.56 L1841.23 312.56 L1841.23 343.185 L1848.87 343.185 L1848.87 347.12 L1828.96 347.12 L1828.96 343.185 Z" fill="#000000" fill-rule="evenodd" fill-opacity="1" /><path clip-path="url(#clip250)" d="M 0 0 M1862.34 343.185 L1878.66 343.185 L1878.66 347.12 L1856.71 347.12 L1856.71 343.185 Q1859.38 340.43 1863.96 335.8 Q1868.56 331.148 1869.75 329.805 Q1871.99 327.282 1872.87 325.546 Q1873.77 323.787 1873.77 322.097 Q1873.77 319.342 1871.83 317.606 Q1869.91 315.87 1866.81 315.87 Q1864.61 315.87 1862.15 316.634 Q1859.72 317.398 1856.94 318.949 L1856.94 314.227 Q1859.77 313.092 1862.22 312.514 Q1864.68 311.935 1866.71 311.935 Q1872.08 311.935 1875.28 314.62 Q1878.47 317.305 1878.47 321.796 Q1878.47 323.926 1877.66 325.847 Q1876.87 327.745 1874.77 330.338 Q1874.19 331.009 1871.09 334.226 Q1867.99 337.421 1862.34 343.185 Z" fill="#000000" fill-rule="evenodd" fill-opacity="1" /><path clip-path="url(#clip250)" d="M 0 0 M2119.9 343.185 L2127.53 343.185 L2127.53 316.819 L2119.22 318.486 L2119.22 314.227 L2127.49 312.56 L2132.16 312.56 L2132.16 343.185 L2139.8 343.185 L2139.8 347.12 L2119.9 347.12 L2119.9 343.185 Z" fill="#000000" fill-rule="evenodd" fill-opacity="1" /><path clip-path="url(#clip250)" d="M 0 0 M2162.09 316.634 L2150.29 335.083 L2162.09 335.083 L2162.09 316.634 M2160.87 312.56 L2166.75 312.56 L2166.75 335.083 L2171.68 335.083 L2171.68 338.972 L2166.75 338.972 L2166.75 347.12 L2162.09 347.12 L2162.09 338.972 L2146.49 338.972 L2146.49 334.458 L2160.87 312.56 Z" fill="#000000" fill-rule="evenodd" fill-opacity="1" /><polyline clip-path="url(#clip252)" style="stroke:#000000; stroke-width:2; stroke-opacity:0.1; fill:none" points="
  186.274,240.925 2352.76,240.925 
  "/>
<polyline clip-path="url(#clip252)" style="stroke:#000000; stroke-width:2; stroke-opacity:0.1; fill:none" points="
  186.274,190.902 2352.76,190.902 
  "/>
<polyline clip-path="url(#clip252)" style="stroke:#000000; stroke-width:2; stroke-opacity:0.1; fill:none" points="
  186.274,140.879 2352.76,140.879 
  "/>
<polyline clip-path="url(#clip252)" style="stroke:#000000; stroke-width:2; stroke-opacity:0.1; fill:none" points="
  186.274,90.8568 2352.76,90.8568 
  "/>
<polyline clip-path="url(#clip250)" style="stroke:#000000; stroke-width:4; stroke-opacity:1; fill:none" points="
  186.274,286.448 186.274,47.2441 
  "/>
<polyline clip-path="url(#clip250)" style="stroke:#000000; stroke-width:4; stroke-opacity:1; fill:none" points="
  186.274,240.925 212.272,240.925 
  "/>
<polyline clip-path="url(#clip250)" style="stroke:#000000; stroke-width:4; stroke-opacity:1; fill:none" points="
  186.274,190.902 212.272,190.902 
  "/>
<polyline clip-path="url(#clip250)" style="stroke:#000000; stroke-width:4; stroke-opacity:1; fill:none" points="
  186.274,140.879 212.272,140.879 
  "/>
<polyline clip-path="url(#clip250)" style="stroke:#000000; stroke-width:4; stroke-opacity:1; fill:none" points="
  186.274,90.8568 212.272,90.8568 
  "/>
<path clip-path="url(#clip250)" d="M 0 0 M94.6956 226.723 Q91.0845 226.723 89.2558 230.288 Q87.4503 233.83 87.4503 240.96 Q87.4503 248.066 89.2558 251.631 Q91.0845 255.172 94.6956 255.172 Q98.3298 255.172 100.135 251.631 Q101.964 248.066 101.964 240.96 Q101.964 233.83 100.135 230.288 Q98.3298 226.723 94.6956 226.723 M94.6956 223.02 Q100.506 223.02 103.561 227.626 Q106.64 232.21 106.64 240.96 Q106.64 249.686 103.561 254.293 Q100.506 258.876 94.6956 258.876 Q88.8854 258.876 85.8068 254.293 Q82.7512 249.686 82.7512 240.96 Q82.7512 232.21 85.8068 227.626 Q88.8854 223.02 94.6956 223.02 Z" fill="#000000" fill-rule="evenodd" fill-opacity="1" /><path clip-path="url(#clip250)" d="M 0 0 M114.858 252.325 L119.742 252.325 L119.742 258.205 L114.858 258.205 L114.858 252.325 Z" fill="#000000" fill-rule="evenodd" fill-opacity="1" /><path clip-path="url(#clip250)" d="M 0 0 M133.955 254.27 L150.274 254.27 L150.274 258.205 L128.33 258.205 L128.33 254.27 Q130.992 251.515 135.575 246.885 Q140.181 242.233 141.362 240.89 Q143.607 238.367 144.487 236.631 Q145.39 234.872 145.39 233.182 Q145.39 230.427 143.445 228.691 Q141.524 226.955 138.422 226.955 Q136.223 226.955 133.769 227.719 Q131.339 228.483 128.561 230.034 L128.561 225.311 Q131.385 224.177 133.839 223.598 Q136.293 223.02 138.33 223.02 Q143.7 223.02 146.894 225.705 Q150.089 228.39 150.089 232.881 Q150.089 235.01 149.279 236.932 Q148.492 238.83 146.385 241.422 Q145.806 242.094 142.705 245.311 Q139.603 248.506 133.955 254.27 Z" fill="#000000" fill-rule="evenodd" fill-opacity="1" /><path clip-path="url(#clip250)" d="M 0 0 M92.6123 176.701 Q89.0012 176.701 87.1725 180.266 Q85.3669 183.807 85.3669 190.937 Q85.3669 198.043 87.1725 201.608 Q89.0012 205.15 92.6123 205.15 Q96.2465 205.15 98.0521 201.608 Q99.8808 198.043 99.8808 190.937 Q99.8808 183.807 98.0521 180.266 Q96.2465 176.701 92.6123 176.701 M92.6123 172.997 Q98.4224 172.997 101.478 177.604 Q104.557 182.187 104.557 190.937 Q104.557 199.664 101.478 204.27 Q98.4224 208.853 92.6123 208.853 Q86.8021 208.853 83.7234 204.27 Q80.6679 199.664 80.6679 190.937 Q80.6679 182.187 83.7234 177.604 Q86.8021 172.997 92.6123 172.997 Z" fill="#000000" fill-rule="evenodd" fill-opacity="1" /><path clip-path="url(#clip250)" d="M 0 0 M112.774 202.303 L117.658 202.303 L117.658 208.182 L112.774 208.182 L112.774 202.303 Z" fill="#000000" fill-rule="evenodd" fill-opacity="1" /><path clip-path="url(#clip250)" d="M 0 0 M140.691 177.696 L128.885 196.145 L140.691 196.145 L140.691 177.696 M139.464 173.622 L145.343 173.622 L145.343 196.145 L150.274 196.145 L150.274 200.034 L145.343 200.034 L145.343 208.182 L140.691 208.182 L140.691 200.034 L125.089 200.034 L125.089 195.52 L139.464 173.622 Z" fill="#000000" fill-rule="evenodd" fill-opacity="1" /><path clip-path="url(#clip250)" d="M 0 0 M92.9363 126.678 Q89.3253 126.678 87.4966 130.243 Q85.691 133.785 85.691 140.914 Q85.691 148.021 87.4966 151.585 Q89.3253 155.127 92.9363 155.127 Q96.5706 155.127 98.3761 151.585 Q100.205 148.021 100.205 140.914 Q100.205 133.785 98.3761 130.243 Q96.5706 126.678 92.9363 126.678 M92.9363 122.974 Q98.7465 122.974 101.802 127.581 Q104.881 132.164 104.881 140.914 Q104.881 149.641 101.802 154.247 Q98.7465 158.831 92.9363 158.831 Q87.1262 158.831 84.0475 154.247 Q80.992 149.641 80.992 140.914 Q80.992 132.164 84.0475 127.581 Q87.1262 122.974 92.9363 122.974 Z" fill="#000000" fill-rule="evenodd" fill-opacity="1" /><path clip-path="url(#clip250)" d="M 0 0 M113.098 152.28 L117.983 152.28 L117.983 158.159 L113.098 158.159 L113.098 152.28 Z" fill="#000000" fill-rule="evenodd" fill-opacity="1" /><path clip-path="url(#clip250)" d="M 0 0 M138.746 139.016 Q135.598 139.016 133.746 141.169 Q131.918 143.322 131.918 147.072 Q131.918 150.798 133.746 152.974 Q135.598 155.127 138.746 155.127 Q141.894 155.127 143.723 152.974 Q145.575 150.798 145.575 147.072 Q145.575 143.322 143.723 141.169 Q141.894 139.016 138.746 139.016 M148.029 124.363 L148.029 128.623 Q146.269 127.789 144.464 127.349 Q142.681 126.91 140.922 126.91 Q136.293 126.91 133.839 130.035 Q131.408 133.16 131.061 139.479 Q132.427 137.465 134.487 136.4 Q136.547 135.312 139.024 135.312 Q144.232 135.312 147.242 138.484 Q150.274 141.632 150.274 147.072 Q150.274 152.396 147.126 155.613 Q143.978 158.831 138.746 158.831 Q132.751 158.831 129.58 154.247 Q126.408 149.641 126.408 140.914 Q126.408 132.72 130.297 127.859 Q134.186 122.974 140.737 122.974 Q142.496 122.974 144.279 123.322 Q146.084 123.669 148.029 124.363 Z" fill="#000000" fill-rule="evenodd" fill-opacity="1" /><path clip-path="url(#clip250)" d="M 0 0 M93.191 76.6555 Q89.5799 76.6555 87.7512 80.2203 Q85.9456 83.762 85.9456 90.8916 Q85.9456 97.998 87.7512 101.563 Q89.5799 105.104 93.191 105.104 Q96.8252 105.104 98.6308 101.563 Q100.459 97.998 100.459 90.8916 Q100.459 83.762 98.6308 80.2203 Q96.8252 76.6555 93.191 76.6555 M93.191 72.9519 Q99.0011 72.9519 102.057 77.5583 Q105.135 82.1416 105.135 90.8916 Q105.135 99.6184 102.057 104.225 Q99.0011 108.808 93.191 108.808 Q87.3808 108.808 84.3021 104.225 Q81.2466 99.6184 81.2466 90.8916 Q81.2466 82.1416 84.3021 77.5583 Q87.3808 72.9519 93.191 72.9519 Z" fill="#000000" fill-rule="evenodd" fill-opacity="1" /><path clip-path="url(#clip250)" d="M 0 0 M113.353 102.257 L118.237 102.257 L118.237 108.137 L113.353 108.137 L113.353 102.257 Z" fill="#000000" fill-rule="evenodd" fill-opacity="1" /><path clip-path="url(#clip250)" d="M 0 0 M138.422 91.7249 Q135.089 91.7249 133.168 93.5073 Q131.269 95.2897 131.269 98.4147 Q131.269 101.54 133.168 103.322 Q135.089 105.104 138.422 105.104 Q141.756 105.104 143.677 103.322 Q145.598 101.517 145.598 98.4147 Q145.598 95.2897 143.677 93.5073 Q141.779 91.7249 138.422 91.7249 M133.746 89.7342 Q130.737 88.9934 129.047 86.9333 Q127.381 84.8731 127.381 81.9101 Q127.381 77.7666 130.32 75.3592 Q133.283 72.9519 138.422 72.9519 Q143.584 72.9519 146.524 75.3592 Q149.464 77.7666 149.464 81.9101 Q149.464 84.8731 147.774 86.9333 Q146.107 88.9934 143.121 89.7342 Q146.501 90.5212 148.376 92.8129 Q150.274 95.1045 150.274 98.4147 Q150.274 103.438 147.195 106.123 Q144.14 108.808 138.422 108.808 Q132.705 108.808 129.626 106.123 Q126.57 103.438 126.57 98.4147 Q126.57 95.1045 128.469 92.8129 Q130.367 90.5212 133.746 89.7342 M132.033 82.3499 Q132.033 85.0351 133.7 86.5397 Q135.39 88.0444 138.422 88.0444 Q141.431 88.0444 143.121 86.5397 Q144.834 85.0351 144.834 82.3499 Q144.834 79.6648 143.121 78.1602 Q141.431 76.6555 138.422 76.6555 Q135.39 76.6555 133.7 78.1602 Q132.033 79.6648 132.033 82.3499 Z" fill="#000000" fill-rule="evenodd" fill-opacity="1" /><polyline clip-path="url(#clip252)" style="stroke:#009af9; stroke-width:4; stroke-opacity:1; fill:none" points="
  247.59,210.165 393.579,207.384 539.568,188.097 685.558,112.43 831.547,236.892 977.536,266.302 1123.53,112.667 1269.51,157.39 1415.5,54.014 1561.49,240.82 
  1707.48,279.678 1853.47,196.921 1999.46,82.9041 2145.45,163.076 2291.44,278.086 
  "/>
<path clip-path="url(#clip250)" d="
M1987.39 176.178 L2280.54 176.178 L2280.54 55.2176 L1987.39 55.2176  Z
  " fill="#ffffff" fill-rule="evenodd" fill-opacity="1"/>
<polyline clip-path="url(#clip250)" style="stroke:#000000; stroke-width:4; stroke-opacity:1; fill:none" points="
  1987.39,176.178 2280.54,176.178 2280.54,55.2176 1987.39,55.2176 1987.39,176.178 
  "/>
<polyline clip-path="url(#clip250)" style="stroke:#009af9; stroke-width:4; stroke-opacity:1; fill:none" points="
  2011.46,115.698 2155.89,115.698 
  "/>
<path clip-path="url(#clip250)" d="M 0 0 M2193.81 135.385 Q2192 140.015 2190.29 141.427 Q2188.58 142.839 2185.71 142.839 L2182.3 142.839 L2182.3 139.274 L2184.8 139.274 Q2186.56 139.274 2187.53 138.44 Q2188.51 137.607 2189.69 134.505 L2190.45 132.561 L2179.97 107.052 L2184.48 107.052 L2192.58 127.329 L2200.68 107.052 L2205.2 107.052 L2193.81 135.385 Z" fill="#000000" fill-rule="evenodd" fill-opacity="1" /><path clip-path="url(#clip250)" d="M 0 0 M2212.49 129.042 L2220.13 129.042 L2220.13 102.677 L2211.82 104.343 L2211.82 100.084 L2220.08 98.4176 L2224.76 98.4176 L2224.76 129.042 L2232.4 129.042 L2232.4 132.978 L2212.49 132.978 L2212.49 129.042 Z" fill="#000000" fill-rule="evenodd" fill-opacity="1" /><path clip-path="url(#clip250)" d="
M186.274 686.448 L2352.76 686.448 L2352.76 447.244 L186.274 447.244  Z
  " fill="#ffffff" fill-rule="evenodd" fill-opacity="1"/>
<defs>
  <clipPath id="clip253">
    <rect x="186" y="447" width="2167" height="240"/>
  </clipPath>
</defs>
<polyline clip-path="url(#clip253)" style="stroke:#000000; stroke-width:2; stroke-opacity:0.1; fill:none" points="
  393.579,686.448 393.579,447.244 
  "/>
<polyline clip-path="url(#clip253)" style="stroke:#000000; stroke-width:2; stroke-opacity:0.1; fill:none" points="
  685.558,686.448 685.558,447.244 
  "/>
<polyline clip-path="url(#clip253)" style="stroke:#000000; stroke-width:2; stroke-opacity:0.1; fill:none" points="
  977.536,686.448 977.536,447.244 
  "/>
<polyline clip-path="url(#clip253)" style="stroke:#000000; stroke-width:2; stroke-opacity:0.1; fill:none" points="
  1269.51,686.448 1269.51,447.244 
  "/>
<polyline clip-path="url(#clip253)" style="stroke:#000000; stroke-width:2; stroke-opacity:0.1; fill:none" points="
  1561.49,686.448 1561.49,447.244 
  "/>
<polyline clip-path="url(#clip253)" style="stroke:#000000; stroke-width:2; stroke-opacity:0.1; fill:none" points="
  1853.47,686.448 1853.47,447.244 
  "/>
<polyline clip-path="url(#clip253)" style="stroke:#000000; stroke-width:2; stroke-opacity:0.1; fill:none" points="
  2145.45,686.448 2145.45,447.244 
  "/>
<polyline clip-path="url(#clip250)" style="stroke:#000000; stroke-width:4; stroke-opacity:1; fill:none" points="
  186.274,686.448 2352.76,686.448 
  "/>
<polyline clip-path="url(#clip250)" style="stroke:#000000; stroke-width:4; stroke-opacity:1; fill:none" points="
  393.579,686.448 393.579,683.577 
  "/>
<polyline clip-path="url(#clip250)" style="stroke:#000000; stroke-width:4; stroke-opacity:1; fill:none" points="
  685.558,686.448 685.558,683.577 
  "/>
<polyline clip-path="url(#clip250)" style="stroke:#000000; stroke-width:4; stroke-opacity:1; fill:none" points="
  977.536,686.448 977.536,683.577 
  "/>
<polyline clip-path="url(#clip250)" style="stroke:#000000; stroke-width:4; stroke-opacity:1; fill:none" points="
  1269.51,686.448 1269.51,683.577 
  "/>
<polyline clip-path="url(#clip250)" style="stroke:#000000; stroke-width:4; stroke-opacity:1; fill:none" points="
  1561.49,686.448 1561.49,683.577 
  "/>
<polyline clip-path="url(#clip250)" style="stroke:#000000; stroke-width:4; stroke-opacity:1; fill:none" points="
  1853.47,686.448 1853.47,683.577 
  "/>
<polyline clip-path="url(#clip250)" style="stroke:#000000; stroke-width:4; stroke-opacity:1; fill:none" points="
  2145.45,686.448 2145.45,683.577 
  "/>
<path clip-path="url(#clip250)" d="M 0 0 M388.232 743.185 L404.551 743.185 L404.551 747.12 L382.607 747.12 L382.607 743.185 Q385.269 740.43 389.852 735.8 Q394.458 731.148 395.639 729.805 Q397.884 727.282 398.764 725.546 Q399.667 723.787 399.667 722.097 Q399.667 719.342 397.722 717.606 Q395.801 715.87 392.699 715.87 Q390.5 715.87 388.046 716.634 Q385.616 717.398 382.838 718.949 L382.838 714.227 Q385.662 713.092 388.116 712.514 Q390.57 711.935 392.607 711.935 Q397.977 711.935 401.171 714.62 Q404.366 717.305 404.366 721.796 Q404.366 723.926 403.556 725.847 Q402.769 727.745 400.662 730.338 Q400.083 731.009 396.982 734.226 Q393.88 737.421 388.232 743.185 Z" fill="#000000" fill-rule="evenodd" fill-opacity="1" /><path clip-path="url(#clip250)" d="M 0 0 M688.567 716.634 L676.761 735.083 L688.567 735.083 L688.567 716.634 M687.34 712.56 L693.22 712.56 L693.22 735.083 L698.15 735.083 L698.15 738.972 L693.22 738.972 L693.22 747.12 L688.567 747.12 L688.567 738.972 L672.965 738.972 L672.965 734.458 L687.34 712.56 Z" fill="#000000" fill-rule="evenodd" fill-opacity="1" /><path clip-path="url(#clip250)" d="M 0 0 M977.941 727.976 Q974.793 727.976 972.941 730.129 Q971.113 732.282 971.113 736.032 Q971.113 739.759 972.941 741.935 Q974.793 744.087 977.941 744.087 Q981.089 744.087 982.918 741.935 Q984.77 739.759 984.77 736.032 Q984.77 732.282 982.918 730.129 Q981.089 727.976 977.941 727.976 M987.224 713.324 L987.224 717.583 Q985.464 716.75 983.659 716.31 Q981.877 715.87 980.117 715.87 Q975.488 715.87 973.034 718.995 Q970.603 722.12 970.256 728.439 Q971.622 726.426 973.682 725.361 Q975.742 724.273 978.219 724.273 Q983.427 724.273 986.437 727.444 Q989.469 730.592 989.469 736.032 Q989.469 741.356 986.321 744.574 Q983.173 747.791 977.941 747.791 Q971.946 747.791 968.775 743.208 Q965.603 738.601 965.603 729.875 Q965.603 721.68 969.492 716.819 Q973.381 711.935 979.932 711.935 Q981.691 711.935 983.474 712.282 Q985.279 712.629 987.224 713.324 Z" fill="#000000" fill-rule="evenodd" fill-opacity="1" /><path clip-path="url(#clip250)" d="M 0 0 M1269.51 730.708 Q1266.18 730.708 1264.26 732.49 Q1262.36 734.273 1262.36 737.398 Q1262.36 740.523 1264.26 742.305 Q1266.18 744.087 1269.51 744.087 Q1272.85 744.087 1274.77 742.305 Q1276.69 740.5 1276.69 737.398 Q1276.69 734.273 1274.77 732.49 Q1272.87 730.708 1269.51 730.708 M1264.84 728.717 Q1261.83 727.976 1260.14 725.916 Q1258.47 723.856 1258.47 720.893 Q1258.47 716.75 1261.41 714.342 Q1264.38 711.935 1269.51 711.935 Q1274.68 711.935 1277.62 714.342 Q1280.56 716.75 1280.56 720.893 Q1280.56 723.856 1278.87 725.916 Q1277.2 727.976 1274.21 728.717 Q1277.59 729.504 1279.47 731.796 Q1281.37 734.088 1281.37 737.398 Q1281.37 742.421 1278.29 745.106 Q1275.23 747.791 1269.51 747.791 Q1263.8 747.791 1260.72 745.106 Q1257.66 742.421 1257.66 737.398 Q1257.66 734.088 1259.56 731.796 Q1261.46 729.504 1264.84 728.717 M1263.13 721.333 Q1263.13 724.018 1264.79 725.523 Q1266.48 727.027 1269.51 727.027 Q1272.52 727.027 1274.21 725.523 Q1275.93 724.018 1275.93 721.333 Q1275.93 718.648 1274.21 717.143 Q1272.52 715.639 1269.51 715.639 Q1266.48 715.639 1264.79 717.143 Q1263.13 718.648 1263.13 721.333 Z" fill="#000000" fill-rule="evenodd" fill-opacity="1" /><path clip-path="url(#clip250)" d="M 0 0 M1536.18 743.185 L1543.82 743.185 L1543.82 716.819 L1535.51 718.486 L1535.51 714.227 L1543.77 712.56 L1548.45 712.56 L1548.45 743.185 L1556.09 743.185 L1556.09 747.12 L1536.18 747.12 L1536.18 743.185 Z" fill="#000000" fill-rule="evenodd" fill-opacity="1" /><path clip-path="url(#clip250)" d="M 0 0 M1575.53 715.639 Q1571.92 715.639 1570.09 719.203 Q1568.29 722.745 1568.29 729.875 Q1568.29 736.981 1570.09 740.546 Q1571.92 744.087 1575.53 744.087 Q1579.17 744.087 1580.97 740.546 Q1582.8 736.981 1582.8 729.875 Q1582.8 722.745 1580.97 719.203 Q1579.17 715.639 1575.53 715.639 M1575.53 711.935 Q1581.34 711.935 1584.4 716.541 Q1587.48 721.125 1587.48 729.875 Q1587.48 738.601 1584.4 743.208 Q1581.34 747.791 1575.53 747.791 Q1569.72 747.791 1566.64 743.208 Q1563.59 738.601 1563.59 729.875 Q1563.59 721.125 1566.64 716.541 Q1569.72 711.935 1575.53 711.935 Z" fill="#000000" fill-rule="evenodd" fill-opacity="1" /><path clip-path="url(#clip250)" d="M 0 0 M1828.96 743.185 L1836.6 743.185 L1836.6 716.819 L1828.29 718.486 L1828.29 714.227 L1836.55 712.56 L1841.23 712.56 L1841.23 743.185 L1848.87 743.185 L1848.87 747.12 L1828.96 747.12 L1828.96 743.185 Z" fill="#000000" fill-rule="evenodd" fill-opacity="1" /><path clip-path="url(#clip250)" d="M 0 0 M1862.34 743.185 L1878.66 743.185 L1878.66 747.12 L1856.71 747.12 L1856.71 743.185 Q1859.38 740.43 1863.96 735.8 Q1868.56 731.148 1869.75 729.805 Q1871.99 727.282 1872.87 725.546 Q1873.77 723.787 1873.77 722.097 Q1873.77 719.342 1871.83 717.606 Q1869.91 715.87 1866.81 715.87 Q1864.61 715.87 1862.15 716.634 Q1859.72 717.398 1856.94 718.949 L1856.94 714.227 Q1859.77 713.092 1862.22 712.514 Q1864.68 711.935 1866.71 711.935 Q1872.08 711.935 1875.28 714.62 Q1878.47 717.305 1878.47 721.796 Q1878.47 723.926 1877.66 725.847 Q1876.87 727.745 1874.77 730.338 Q1874.19 731.009 1871.09 734.226 Q1867.99 737.421 1862.34 743.185 Z" fill="#000000" fill-rule="evenodd" fill-opacity="1" /><path clip-path="url(#clip250)" d="M 0 0 M2119.9 743.185 L2127.53 743.185 L2127.53 716.819 L2119.22 718.486 L2119.22 714.227 L2127.49 712.56 L2132.16 712.56 L2132.16 743.185 L2139.8 743.185 L2139.8 747.12 L2119.9 747.12 L2119.9 743.185 Z" fill="#000000" fill-rule="evenodd" fill-opacity="1" /><path clip-path="url(#clip250)" d="M 0 0 M2162.09 716.634 L2150.29 735.083 L2162.09 735.083 L2162.09 716.634 M2160.87 712.56 L2166.75 712.56 L2166.75 735.083 L2171.68 735.083 L2171.68 738.972 L2166.75 738.972 L2166.75 747.12 L2162.09 747.12 L2162.09 738.972 L2146.49 738.972 L2146.49 734.458 L2160.87 712.56 Z" fill="#000000" fill-rule="evenodd" fill-opacity="1" /><polyline clip-path="url(#clip253)" style="stroke:#000000; stroke-width:2; stroke-opacity:0.1; fill:none" points="
  186.274,684.229 2352.76,684.229 
  "/>
<polyline clip-path="url(#clip253)" style="stroke:#000000; stroke-width:2; stroke-opacity:0.1; fill:none" points="
  186.274,625.871 2352.76,625.871 
  "/>
<polyline clip-path="url(#clip253)" style="stroke:#000000; stroke-width:2; stroke-opacity:0.1; fill:none" points="
  186.274,567.512 2352.76,567.512 
  "/>
<polyline clip-path="url(#clip253)" style="stroke:#000000; stroke-width:2; stroke-opacity:0.1; fill:none" points="
  186.274,509.154 2352.76,509.154 
  "/>
<polyline clip-path="url(#clip253)" style="stroke:#000000; stroke-width:2; stroke-opacity:0.1; fill:none" points="
  186.274,450.795 2352.76,450.795 
  "/>
<polyline clip-path="url(#clip250)" style="stroke:#000000; stroke-width:4; stroke-opacity:1; fill:none" points="
  186.274,686.448 186.274,447.244 
  "/>
<polyline clip-path="url(#clip250)" style="stroke:#000000; stroke-width:4; stroke-opacity:1; fill:none" points="
  186.274,684.229 212.272,684.229 
  "/>
<polyline clip-path="url(#clip250)" style="stroke:#000000; stroke-width:4; stroke-opacity:1; fill:none" points="
  186.274,625.871 212.272,625.871 
  "/>
<polyline clip-path="url(#clip250)" style="stroke:#000000; stroke-width:4; stroke-opacity:1; fill:none" points="
  186.274,567.512 212.272,567.512 
  "/>
<polyline clip-path="url(#clip250)" style="stroke:#000000; stroke-width:4; stroke-opacity:1; fill:none" points="
  186.274,509.154 212.272,509.154 
  "/>
<polyline clip-path="url(#clip250)" style="stroke:#000000; stroke-width:4; stroke-opacity:1; fill:none" points="
  186.274,450.795 212.272,450.795 
  "/>
<path clip-path="url(#clip250)" d="M 0 0 M62.9365 670.028 Q59.3254 670.028 57.4967 673.593 Q55.6912 677.135 55.6912 684.264 Q55.6912 691.371 57.4967 694.935 Q59.3254 698.477 62.9365 698.477 Q66.5707 698.477 68.3763 694.935 Q70.205 691.371 70.205 684.264 Q70.205 677.135 68.3763 673.593 Q66.5707 670.028 62.9365 670.028 M62.9365 666.324 Q68.7467 666.324 71.8022 670.931 Q74.8809 675.514 74.8809 684.264 Q74.8809 692.991 71.8022 697.597 Q68.7467 702.181 62.9365 702.181 Q57.1264 702.181 54.0477 697.597 Q50.9921 692.991 50.9921 684.264 Q50.9921 675.514 54.0477 670.931 Q57.1264 666.324 62.9365 666.324 Z" fill="#000000" fill-rule="evenodd" fill-opacity="1" /><path clip-path="url(#clip250)" d="M 0 0 M83.0984 695.63 L87.9827 695.63 L87.9827 701.509 L83.0984 701.509 L83.0984 695.63 Z" fill="#000000" fill-rule="evenodd" fill-opacity="1" /><path clip-path="url(#clip250)" d="M 0 0 M108.168 670.028 Q104.557 670.028 102.728 673.593 Q100.922 677.135 100.922 684.264 Q100.922 691.371 102.728 694.935 Q104.557 698.477 108.168 698.477 Q111.802 698.477 113.608 694.935 Q115.436 691.371 115.436 684.264 Q115.436 677.135 113.608 673.593 Q111.802 670.028 108.168 670.028 M108.168 666.324 Q113.978 666.324 117.033 670.931 Q120.112 675.514 120.112 684.264 Q120.112 692.991 117.033 697.597 Q113.978 702.181 108.168 702.181 Q102.358 702.181 99.2789 697.597 Q96.2234 692.991 96.2234 684.264 Q96.2234 675.514 99.2789 670.931 Q102.358 666.324 108.168 666.324 Z" fill="#000000" fill-rule="evenodd" fill-opacity="1" /><path clip-path="url(#clip250)" d="M 0 0 M138.33 670.028 Q134.719 670.028 132.89 673.593 Q131.084 677.135 131.084 684.264 Q131.084 691.371 132.89 694.935 Q134.719 698.477 138.33 698.477 Q141.964 698.477 143.769 694.935 Q145.598 691.371 145.598 684.264 Q145.598 677.135 143.769 673.593 Q141.964 670.028 138.33 670.028 M138.33 666.324 Q144.14 666.324 147.195 670.931 Q150.274 675.514 150.274 684.264 Q150.274 692.991 147.195 697.597 Q144.14 702.181 138.33 702.181 Q132.519 702.181 129.441 697.597 Q126.385 692.991 126.385 684.264 Q126.385 675.514 129.441 670.931 Q132.519 666.324 138.33 666.324 Z" fill="#000000" fill-rule="evenodd" fill-opacity="1" /><path clip-path="url(#clip250)" d="M 0 0 M63.9319 611.67 Q60.3208 611.67 58.4921 615.234 Q56.6865 618.776 56.6865 625.906 Q56.6865 633.012 58.4921 636.577 Q60.3208 640.118 63.9319 640.118 Q67.5661 640.118 69.3717 636.577 Q71.2004 633.012 71.2004 625.906 Q71.2004 618.776 69.3717 615.234 Q67.5661 611.67 63.9319 611.67 M63.9319 607.966 Q69.742 607.966 72.7976 612.572 Q75.8763 617.156 75.8763 625.906 Q75.8763 634.632 72.7976 639.239 Q69.742 643.822 63.9319 643.822 Q58.1217 643.822 55.043 639.239 Q51.9875 634.632 51.9875 625.906 Q51.9875 617.156 55.043 612.572 Q58.1217 607.966 63.9319 607.966 Z" fill="#000000" fill-rule="evenodd" fill-opacity="1" /><path clip-path="url(#clip250)" d="M 0 0 M84.0938 637.271 L88.978 637.271 L88.978 643.151 L84.0938 643.151 L84.0938 637.271 Z" fill="#000000" fill-rule="evenodd" fill-opacity="1" /><path clip-path="url(#clip250)" d="M 0 0 M103.191 639.216 L119.51 639.216 L119.51 643.151 L97.566 643.151 L97.566 639.216 Q100.228 636.461 104.811 631.831 Q109.418 627.179 110.598 625.836 Q112.844 623.313 113.723 621.577 Q114.626 619.818 114.626 618.128 Q114.626 615.373 112.682 613.637 Q110.76 611.901 107.658 611.901 Q105.459 611.901 103.006 612.665 Q100.575 613.429 97.7974 614.98 L97.7974 610.258 Q100.621 609.123 103.075 608.545 Q105.529 607.966 107.566 607.966 Q112.936 607.966 116.131 610.651 Q119.325 613.336 119.325 617.827 Q119.325 619.957 118.515 621.878 Q117.728 623.776 115.621 626.369 Q115.043 627.04 111.941 630.257 Q108.839 633.452 103.191 639.216 Z" fill="#000000" fill-rule="evenodd" fill-opacity="1" /><path clip-path="url(#clip250)" d="M 0 0 M129.371 608.591 L147.728 608.591 L147.728 612.526 L133.654 612.526 L133.654 620.998 Q134.672 620.651 135.691 620.489 Q136.709 620.304 137.728 620.304 Q143.515 620.304 146.894 623.475 Q150.274 626.646 150.274 632.063 Q150.274 637.642 146.802 640.743 Q143.33 643.822 137.01 643.822 Q134.834 643.822 132.566 643.452 Q130.32 643.081 127.913 642.341 L127.913 637.642 Q129.996 638.776 132.219 639.331 Q134.441 639.887 136.918 639.887 Q140.922 639.887 143.26 637.781 Q145.598 635.674 145.598 632.063 Q145.598 628.452 143.26 626.345 Q140.922 624.239 136.918 624.239 Q135.043 624.239 133.168 624.656 Q131.316 625.072 129.371 625.952 L129.371 608.591 Z" fill="#000000" fill-rule="evenodd" fill-opacity="1" /><path clip-path="url(#clip250)" d="M 0 0 M62.9365 553.311 Q59.3254 553.311 57.4967 556.876 Q55.6912 560.417 55.6912 567.547 Q55.6912 574.653 57.4967 578.218 Q59.3254 581.76 62.9365 581.76 Q66.5707 581.76 68.3763 578.218 Q70.205 574.653 70.205 567.547 Q70.205 560.417 68.3763 556.876 Q66.5707 553.311 62.9365 553.311 M62.9365 549.607 Q68.7467 549.607 71.8022 554.214 Q74.8809 558.797 74.8809 567.547 Q74.8809 576.274 71.8022 580.88 Q68.7467 585.464 62.9365 585.464 Q57.1264 585.464 54.0477 580.88 Q50.9921 576.274 50.9921 567.547 Q50.9921 558.797 54.0477 554.214 Q57.1264 549.607 62.9365 549.607 Z" fill="#000000" fill-rule="evenodd" fill-opacity="1" /><path clip-path="url(#clip250)" d="M 0 0 M83.0984 578.913 L87.9827 578.913 L87.9827 584.792 L83.0984 584.792 L83.0984 578.913 Z" fill="#000000" fill-rule="evenodd" fill-opacity="1" /><path clip-path="url(#clip250)" d="M 0 0 M98.2141 550.232 L116.57 550.232 L116.57 554.167 L102.496 554.167 L102.496 562.64 Q103.515 562.292 104.534 562.13 Q105.552 561.945 106.571 561.945 Q112.358 561.945 115.737 565.116 Q119.117 568.288 119.117 573.704 Q119.117 579.283 115.645 582.385 Q112.172 585.464 105.853 585.464 Q103.677 585.464 101.409 585.093 Q99.1632 584.723 96.7558 583.982 L96.7558 579.283 Q98.8391 580.417 101.061 580.973 Q103.284 581.528 105.76 581.528 Q109.765 581.528 112.103 579.422 Q114.441 577.315 114.441 573.704 Q114.441 570.093 112.103 567.987 Q109.765 565.88 105.76 565.88 Q103.885 565.88 102.01 566.297 Q100.159 566.714 98.2141 567.593 L98.2141 550.232 Z" fill="#000000" fill-rule="evenodd" fill-opacity="1" /><path clip-path="url(#clip250)" d="M 0 0 M138.33 553.311 Q134.719 553.311 132.89 556.876 Q131.084 560.417 131.084 567.547 Q131.084 574.653 132.89 578.218 Q134.719 581.76 138.33 581.76 Q141.964 581.76 143.769 578.218 Q145.598 574.653 145.598 567.547 Q145.598 560.417 143.769 556.876 Q141.964 553.311 138.33 553.311 M138.33 549.607 Q144.14 549.607 147.195 554.214 Q150.274 558.797 150.274 567.547 Q150.274 576.274 147.195 580.88 Q144.14 585.464 138.33 585.464 Q132.519 585.464 129.441 580.88 Q126.385 576.274 126.385 567.547 Q126.385 558.797 129.441 554.214 Q132.519 549.607 138.33 549.607 Z" fill="#000000" fill-rule="evenodd" fill-opacity="1" /><path clip-path="url(#clip250)" d="M 0 0 M63.9319 494.952 Q60.3208 494.952 58.4921 498.517 Q56.6865 502.059 56.6865 509.188 Q56.6865 516.295 58.4921 519.86 Q60.3208 523.401 63.9319 523.401 Q67.5661 523.401 69.3717 519.86 Q71.2004 516.295 71.2004 509.188 Q71.2004 502.059 69.3717 498.517 Q67.5661 494.952 63.9319 494.952 M63.9319 491.249 Q69.742 491.249 72.7976 495.855 Q75.8763 500.438 75.8763 509.188 Q75.8763 517.915 72.7976 522.522 Q69.742 527.105 63.9319 527.105 Q58.1217 527.105 55.043 522.522 Q51.9875 517.915 51.9875 509.188 Q51.9875 500.438 55.043 495.855 Q58.1217 491.249 63.9319 491.249 Z" fill="#000000" fill-rule="evenodd" fill-opacity="1" /><path clip-path="url(#clip250)" d="M 0 0 M84.0938 520.554 L88.978 520.554 L88.978 526.434 L84.0938 526.434 L84.0938 520.554 Z" fill="#000000" fill-rule="evenodd" fill-opacity="1" /><path clip-path="url(#clip250)" d="M 0 0 M97.9826 491.874 L120.205 491.874 L120.205 493.864 L107.658 526.434 L102.774 526.434 L114.58 495.809 L97.9826 495.809 L97.9826 491.874 Z" fill="#000000" fill-rule="evenodd" fill-opacity="1" /><path clip-path="url(#clip250)" d="M 0 0 M129.371 491.874 L147.728 491.874 L147.728 495.809 L133.654 495.809 L133.654 504.281 Q134.672 503.934 135.691 503.772 Q136.709 503.587 137.728 503.587 Q143.515 503.587 146.894 506.758 Q150.274 509.929 150.274 515.346 Q150.274 520.924 146.802 524.026 Q143.33 527.105 137.01 527.105 Q134.834 527.105 132.566 526.735 Q130.32 526.364 127.913 525.624 L127.913 520.924 Q129.996 522.059 132.219 522.614 Q134.441 523.17 136.918 523.17 Q140.922 523.17 143.26 521.063 Q145.598 518.957 145.598 515.346 Q145.598 511.735 143.26 509.628 Q140.922 507.522 136.918 507.522 Q135.043 507.522 133.168 507.938 Q131.316 508.355 129.371 509.235 L129.371 491.874 Z" fill="#000000" fill-rule="evenodd" fill-opacity="1" /><path clip-path="url(#clip250)" d="M 0 0 M53.7467 464.14 L61.3856 464.14 L61.3856 437.774 L53.0754 439.441 L53.0754 435.182 L61.3393 433.515 L66.0152 433.515 L66.0152 464.14 L73.654 464.14 L73.654 468.075 L53.7467 468.075 L53.7467 464.14 Z" fill="#000000" fill-rule="evenodd" fill-opacity="1" /><path clip-path="url(#clip250)" d="M 0 0 M83.0984 462.196 L87.9827 462.196 L87.9827 468.075 L83.0984 468.075 L83.0984 462.196 Z" fill="#000000" fill-rule="evenodd" fill-opacity="1" /><path clip-path="url(#clip250)" d="M 0 0 M108.168 436.594 Q104.557 436.594 102.728 440.159 Q100.922 443.7 100.922 450.83 Q100.922 457.936 102.728 461.501 Q104.557 465.043 108.168 465.043 Q111.802 465.043 113.608 461.501 Q115.436 457.936 115.436 450.83 Q115.436 443.7 113.608 440.159 Q111.802 436.594 108.168 436.594 M108.168 432.89 Q113.978 432.89 117.033 437.497 Q120.112 442.08 120.112 450.83 Q120.112 459.557 117.033 464.163 Q113.978 468.746 108.168 468.746 Q102.358 468.746 99.2789 464.163 Q96.2234 459.557 96.2234 450.83 Q96.2234 442.08 99.2789 437.497 Q102.358 432.89 108.168 432.89 Z" fill="#000000" fill-rule="evenodd" fill-opacity="1" /><path clip-path="url(#clip250)" d="M 0 0 M138.33 436.594 Q134.719 436.594 132.89 440.159 Q131.084 443.7 131.084 450.83 Q131.084 457.936 132.89 461.501 Q134.719 465.043 138.33 465.043 Q141.964 465.043 143.769 461.501 Q145.598 457.936 145.598 450.83 Q145.598 443.7 143.769 440.159 Q141.964 436.594 138.33 436.594 M138.33 432.89 Q144.14 432.89 147.195 437.497 Q150.274 442.08 150.274 450.83 Q150.274 459.557 147.195 464.163 Q144.14 468.746 138.33 468.746 Q132.519 468.746 129.441 464.163 Q126.385 459.557 126.385 450.83 Q126.385 442.08 129.441 437.497 Q132.519 432.89 138.33 432.89 Z" fill="#000000" fill-rule="evenodd" fill-opacity="1" /><polyline clip-path="url(#clip253)" style="stroke:#009af9; stroke-width:4; stroke-opacity:1; fill:none" points="
  247.59,454.014 393.579,679.678 539.568,484.3 685.558,521.846 831.547,588.144 977.536,660.156 1123.53,465.451 1269.51,525.968 1415.5,583.782 1561.49,514.732 
  1707.48,563.59 1853.47,662.435 1999.46,679.408 2145.45,586.853 2291.44,659.955 
  "/>
<path clip-path="url(#clip250)" d="
M1987.76 576.178 L2280.54 576.178 L2280.54 455.218 L1987.76 455.218  Z
  " fill="#ffffff" fill-rule="evenodd" fill-opacity="1"/>
<polyline clip-path="url(#clip250)" style="stroke:#000000; stroke-width:4; stroke-opacity:1; fill:none" points="
  1987.76,576.178 2280.54,576.178 2280.54,455.218 1987.76,455.218 1987.76,576.178 
  "/>
<polyline clip-path="url(#clip250)" style="stroke:#009af9; stroke-width:4; stroke-opacity:1; fill:none" points="
  2011.83,515.698 2156.26,515.698 
  "/>
<path clip-path="url(#clip250)" d="M 0 0 M2194.18 535.385 Q2192.37 540.015 2190.66 541.427 Q2188.95 542.839 2186.08 542.839 L2182.67 542.839 L2182.67 539.274 L2185.17 539.274 Q2186.93 539.274 2187.91 538.44 Q2188.88 537.607 2190.06 534.505 L2190.82 532.561 L2180.34 507.052 L2184.85 507.052 L2192.95 527.329 L2201.05 507.052 L2205.57 507.052 L2194.18 535.385 Z" fill="#000000" fill-rule="evenodd" fill-opacity="1" /><path clip-path="url(#clip250)" d="M 0 0 M2216.08 529.042 L2232.4 529.042 L2232.4 532.978 L2210.45 532.978 L2210.45 529.042 Q2213.11 526.288 2217.7 521.658 Q2222.3 517.005 2223.48 515.663 Q2225.73 513.14 2226.61 511.404 Q2227.51 509.644 2227.51 507.955 Q2227.51 505.2 2225.57 503.464 Q2223.65 501.728 2220.54 501.728 Q2218.34 501.728 2215.89 502.492 Q2213.46 503.255 2210.68 504.806 L2210.68 500.084 Q2213.51 498.95 2215.96 498.371 Q2218.41 497.793 2220.45 497.793 Q2225.82 497.793 2229.02 500.478 Q2232.21 503.163 2232.21 507.654 Q2232.21 509.783 2231.4 511.705 Q2230.61 513.603 2228.51 516.195 Q2227.93 516.867 2224.83 520.084 Q2221.72 523.279 2216.08 529.042 Z" fill="#000000" fill-rule="evenodd" fill-opacity="1" /><path clip-path="url(#clip250)" d="
M186.274 1086.45 L2352.76 1086.45 L2352.76 847.244 L186.274 847.244  Z
  " fill="#ffffff" fill-rule="evenodd" fill-opacity="1"/>
<defs>
  <clipPath id="clip254">
    <rect x="186" y="847" width="2167" height="240"/>
  </clipPath>
</defs>
<polyline clip-path="url(#clip254)" style="stroke:#000000; stroke-width:2; stroke-opacity:0.1; fill:none" points="
  393.579,1086.45 393.579,847.244 
  "/>
<polyline clip-path="url(#clip254)" style="stroke:#000000; stroke-width:2; stroke-opacity:0.1; fill:none" points="
  685.558,1086.45 685.558,847.244 
  "/>
<polyline clip-path="url(#clip254)" style="stroke:#000000; stroke-width:2; stroke-opacity:0.1; fill:none" points="
  977.536,1086.45 977.536,847.244 
  "/>
<polyline clip-path="url(#clip254)" style="stroke:#000000; stroke-width:2; stroke-opacity:0.1; fill:none" points="
  1269.51,1086.45 1269.51,847.244 
  "/>
<polyline clip-path="url(#clip254)" style="stroke:#000000; stroke-width:2; stroke-opacity:0.1; fill:none" points="
  1561.49,1086.45 1561.49,847.244 
  "/>
<polyline clip-path="url(#clip254)" style="stroke:#000000; stroke-width:2; stroke-opacity:0.1; fill:none" points="
  1853.47,1086.45 1853.47,847.244 
  "/>
<polyline clip-path="url(#clip254)" style="stroke:#000000; stroke-width:2; stroke-opacity:0.1; fill:none" points="
  2145.45,1086.45 2145.45,847.244 
  "/>
<polyline clip-path="url(#clip250)" style="stroke:#000000; stroke-width:4; stroke-opacity:1; fill:none" points="
  186.274,1086.45 2352.76,1086.45 
  "/>
<polyline clip-path="url(#clip250)" style="stroke:#000000; stroke-width:4; stroke-opacity:1; fill:none" points="
  393.579,1086.45 393.579,1083.58 
  "/>
<polyline clip-path="url(#clip250)" style="stroke:#000000; stroke-width:4; stroke-opacity:1; fill:none" points="
  685.558,1086.45 685.558,1083.58 
  "/>
<polyline clip-path="url(#clip250)" style="stroke:#000000; stroke-width:4; stroke-opacity:1; fill:none" points="
  977.536,1086.45 977.536,1083.58 
  "/>
<polyline clip-path="url(#clip250)" style="stroke:#000000; stroke-width:4; stroke-opacity:1; fill:none" points="
  1269.51,1086.45 1269.51,1083.58 
  "/>
<polyline clip-path="url(#clip250)" style="stroke:#000000; stroke-width:4; stroke-opacity:1; fill:none" points="
  1561.49,1086.45 1561.49,1083.58 
  "/>
<polyline clip-path="url(#clip250)" style="stroke:#000000; stroke-width:4; stroke-opacity:1; fill:none" points="
  1853.47,1086.45 1853.47,1083.58 
  "/>
<polyline clip-path="url(#clip250)" style="stroke:#000000; stroke-width:4; stroke-opacity:1; fill:none" points="
  2145.45,1086.45 2145.45,1083.58 
  "/>
<path clip-path="url(#clip250)" d="M 0 0 M388.232 1143.18 L404.551 1143.18 L404.551 1147.12 L382.607 1147.12 L382.607 1143.18 Q385.269 1140.43 389.852 1135.8 Q394.458 1131.15 395.639 1129.81 Q397.884 1127.28 398.764 1125.55 Q399.667 1123.79 399.667 1122.1 Q399.667 1119.34 397.722 1117.61 Q395.801 1115.87 392.699 1115.87 Q390.5 1115.87 388.046 1116.63 Q385.616 1117.4 382.838 1118.95 L382.838 1114.23 Q385.662 1113.09 388.116 1112.51 Q390.57 1111.93 392.607 1111.93 Q397.977 1111.93 401.171 1114.62 Q404.366 1117.31 404.366 1121.8 Q404.366 1123.93 403.556 1125.85 Q402.769 1127.74 400.662 1130.34 Q400.083 1131.01 396.982 1134.23 Q393.88 1137.42 388.232 1143.18 Z" fill="#000000" fill-rule="evenodd" fill-opacity="1" /><path clip-path="url(#clip250)" d="M 0 0 M688.567 1116.63 L676.761 1135.08 L688.567 1135.08 L688.567 1116.63 M687.34 1112.56 L693.22 1112.56 L693.22 1135.08 L698.15 1135.08 L698.15 1138.97 L693.22 1138.97 L693.22 1147.12 L688.567 1147.12 L688.567 1138.97 L672.965 1138.97 L672.965 1134.46 L687.34 1112.56 Z" fill="#000000" fill-rule="evenodd" fill-opacity="1" /><path clip-path="url(#clip250)" d="M 0 0 M977.941 1127.98 Q974.793 1127.98 972.941 1130.13 Q971.113 1132.28 971.113 1136.03 Q971.113 1139.76 972.941 1141.93 Q974.793 1144.09 977.941 1144.09 Q981.089 1144.09 982.918 1141.93 Q984.77 1139.76 984.77 1136.03 Q984.77 1132.28 982.918 1130.13 Q981.089 1127.98 977.941 1127.98 M987.224 1113.32 L987.224 1117.58 Q985.464 1116.75 983.659 1116.31 Q981.877 1115.87 980.117 1115.87 Q975.488 1115.87 973.034 1119 Q970.603 1122.12 970.256 1128.44 Q971.622 1126.43 973.682 1125.36 Q975.742 1124.27 978.219 1124.27 Q983.427 1124.27 986.437 1127.44 Q989.469 1130.59 989.469 1136.03 Q989.469 1141.36 986.321 1144.57 Q983.173 1147.79 977.941 1147.79 Q971.946 1147.79 968.775 1143.21 Q965.603 1138.6 965.603 1129.87 Q965.603 1121.68 969.492 1116.82 Q973.381 1111.93 979.932 1111.93 Q981.691 1111.93 983.474 1112.28 Q985.279 1112.63 987.224 1113.32 Z" fill="#000000" fill-rule="evenodd" fill-opacity="1" /><path clip-path="url(#clip250)" d="M 0 0 M1269.51 1130.71 Q1266.18 1130.71 1264.26 1132.49 Q1262.36 1134.27 1262.36 1137.4 Q1262.36 1140.52 1264.26 1142.31 Q1266.18 1144.09 1269.51 1144.09 Q1272.85 1144.09 1274.77 1142.31 Q1276.69 1140.5 1276.69 1137.4 Q1276.69 1134.27 1274.77 1132.49 Q1272.87 1130.71 1269.51 1130.71 M1264.84 1128.72 Q1261.83 1127.98 1260.14 1125.92 Q1258.47 1123.86 1258.47 1120.89 Q1258.47 1116.75 1261.41 1114.34 Q1264.38 1111.93 1269.51 1111.93 Q1274.68 1111.93 1277.62 1114.34 Q1280.56 1116.75 1280.56 1120.89 Q1280.56 1123.86 1278.87 1125.92 Q1277.2 1127.98 1274.21 1128.72 Q1277.59 1129.5 1279.47 1131.8 Q1281.37 1134.09 1281.37 1137.4 Q1281.37 1142.42 1278.29 1145.11 Q1275.23 1147.79 1269.51 1147.79 Q1263.8 1147.79 1260.72 1145.11 Q1257.66 1142.42 1257.66 1137.4 Q1257.66 1134.09 1259.56 1131.8 Q1261.46 1129.5 1264.84 1128.72 M1263.13 1121.33 Q1263.13 1124.02 1264.79 1125.52 Q1266.48 1127.03 1269.51 1127.03 Q1272.52 1127.03 1274.21 1125.52 Q1275.93 1124.02 1275.93 1121.33 Q1275.93 1118.65 1274.21 1117.14 Q1272.52 1115.64 1269.51 1115.64 Q1266.48 1115.64 1264.79 1117.14 Q1263.13 1118.65 1263.13 1121.33 Z" fill="#000000" fill-rule="evenodd" fill-opacity="1" /><path clip-path="url(#clip250)" d="M 0 0 M1536.18 1143.18 L1543.82 1143.18 L1543.82 1116.82 L1535.51 1118.49 L1535.51 1114.23 L1543.77 1112.56 L1548.45 1112.56 L1548.45 1143.18 L1556.09 1143.18 L1556.09 1147.12 L1536.18 1147.12 L1536.18 1143.18 Z" fill="#000000" fill-rule="evenodd" fill-opacity="1" /><path clip-path="url(#clip250)" d="M 0 0 M1575.53 1115.64 Q1571.92 1115.64 1570.09 1119.2 Q1568.29 1122.75 1568.29 1129.87 Q1568.29 1136.98 1570.09 1140.55 Q1571.92 1144.09 1575.53 1144.09 Q1579.17 1144.09 1580.97 1140.55 Q1582.8 1136.98 1582.8 1129.87 Q1582.8 1122.75 1580.97 1119.2 Q1579.17 1115.64 1575.53 1115.64 M1575.53 1111.93 Q1581.34 1111.93 1584.4 1116.54 Q1587.48 1121.12 1587.48 1129.87 Q1587.48 1138.6 1584.4 1143.21 Q1581.34 1147.79 1575.53 1147.79 Q1569.72 1147.79 1566.64 1143.21 Q1563.59 1138.6 1563.59 1129.87 Q1563.59 1121.12 1566.64 1116.54 Q1569.72 1111.93 1575.53 1111.93 Z" fill="#000000" fill-rule="evenodd" fill-opacity="1" /><path clip-path="url(#clip250)" d="M 0 0 M1828.96 1143.18 L1836.6 1143.18 L1836.6 1116.82 L1828.29 1118.49 L1828.29 1114.23 L1836.55 1112.56 L1841.23 1112.56 L1841.23 1143.18 L1848.87 1143.18 L1848.87 1147.12 L1828.96 1147.12 L1828.96 1143.18 Z" fill="#000000" fill-rule="evenodd" fill-opacity="1" /><path clip-path="url(#clip250)" d="M 0 0 M1862.34 1143.18 L1878.66 1143.18 L1878.66 1147.12 L1856.71 1147.12 L1856.71 1143.18 Q1859.38 1140.43 1863.96 1135.8 Q1868.56 1131.15 1869.75 1129.81 Q1871.99 1127.28 1872.87 1125.55 Q1873.77 1123.79 1873.77 1122.1 Q1873.77 1119.34 1871.83 1117.61 Q1869.91 1115.87 1866.81 1115.87 Q1864.61 1115.87 1862.15 1116.63 Q1859.72 1117.4 1856.94 1118.95 L1856.94 1114.23 Q1859.77 1113.09 1862.22 1112.51 Q1864.68 1111.93 1866.71 1111.93 Q1872.08 1111.93 1875.28 1114.62 Q1878.47 1117.31 1878.47 1121.8 Q1878.47 1123.93 1877.66 1125.85 Q1876.87 1127.74 1874.77 1130.34 Q1874.19 1131.01 1871.09 1134.23 Q1867.99 1137.42 1862.34 1143.18 Z" fill="#000000" fill-rule="evenodd" fill-opacity="1" /><path clip-path="url(#clip250)" d="M 0 0 M2119.9 1143.18 L2127.53 1143.18 L2127.53 1116.82 L2119.22 1118.49 L2119.22 1114.23 L2127.49 1112.56 L2132.16 1112.56 L2132.16 1143.18 L2139.8 1143.18 L2139.8 1147.12 L2119.9 1147.12 L2119.9 1143.18 Z" fill="#000000" fill-rule="evenodd" fill-opacity="1" /><path clip-path="url(#clip250)" d="M 0 0 M2162.09 1116.63 L2150.29 1135.08 L2162.09 1135.08 L2162.09 1116.63 M2160.87 1112.56 L2166.75 1112.56 L2166.75 1135.08 L2171.68 1135.08 L2171.68 1138.97 L2166.75 1138.97 L2166.75 1147.12 L2162.09 1147.12 L2162.09 1138.97 L2146.49 1138.97 L2146.49 1134.46 L2160.87 1112.56 Z" fill="#000000" fill-rule="evenodd" fill-opacity="1" /><polyline clip-path="url(#clip254)" style="stroke:#000000; stroke-width:2; stroke-opacity:0.1; fill:none" points="
  186.274,1070.21 2352.76,1070.21 
  "/>
<polyline clip-path="url(#clip254)" style="stroke:#000000; stroke-width:2; stroke-opacity:0.1; fill:none" points="
  186.274,1011.01 2352.76,1011.01 
  "/>
<polyline clip-path="url(#clip254)" style="stroke:#000000; stroke-width:2; stroke-opacity:0.1; fill:none" points="
  186.274,951.814 2352.76,951.814 
  "/>
<polyline clip-path="url(#clip254)" style="stroke:#000000; stroke-width:2; stroke-opacity:0.1; fill:none" points="
  186.274,892.614 2352.76,892.614 
  "/>
<polyline clip-path="url(#clip250)" style="stroke:#000000; stroke-width:4; stroke-opacity:1; fill:none" points="
  186.274,1086.45 186.274,847.244 
  "/>
<polyline clip-path="url(#clip250)" style="stroke:#000000; stroke-width:4; stroke-opacity:1; fill:none" points="
  186.274,1070.21 212.272,1070.21 
  "/>
<polyline clip-path="url(#clip250)" style="stroke:#000000; stroke-width:4; stroke-opacity:1; fill:none" points="
  186.274,1011.01 212.272,1011.01 
  "/>
<polyline clip-path="url(#clip250)" style="stroke:#000000; stroke-width:4; stroke-opacity:1; fill:none" points="
  186.274,951.814 212.272,951.814 
  "/>
<polyline clip-path="url(#clip250)" style="stroke:#000000; stroke-width:4; stroke-opacity:1; fill:none" points="
  186.274,892.614 212.272,892.614 
  "/>
<path clip-path="url(#clip250)" d="M 0 0 M94.6956 1056.01 Q91.0845 1056.01 89.2558 1059.58 Q87.4503 1063.12 87.4503 1070.25 Q87.4503 1077.36 89.2558 1080.92 Q91.0845 1084.46 94.6956 1084.46 Q98.3298 1084.46 100.135 1080.92 Q101.964 1077.36 101.964 1070.25 Q101.964 1063.12 100.135 1059.58 Q98.3298 1056.01 94.6956 1056.01 M94.6956 1052.31 Q100.506 1052.31 103.561 1056.92 Q106.64 1061.5 106.64 1070.25 Q106.64 1078.98 103.561 1083.58 Q100.506 1088.17 94.6956 1088.17 Q88.8854 1088.17 85.8068 1083.58 Q82.7512 1078.98 82.7512 1070.25 Q82.7512 1061.5 85.8068 1056.92 Q88.8854 1052.31 94.6956 1052.31 Z" fill="#000000" fill-rule="evenodd" fill-opacity="1" /><path clip-path="url(#clip250)" d="M 0 0 M114.858 1081.61 L119.742 1081.61 L119.742 1087.49 L114.858 1087.49 L114.858 1081.61 Z" fill="#000000" fill-rule="evenodd" fill-opacity="1" /><path clip-path="url(#clip250)" d="M 0 0 M133.955 1083.56 L150.274 1083.56 L150.274 1087.49 L128.33 1087.49 L128.33 1083.56 Q130.992 1080.8 135.575 1076.18 Q140.181 1071.52 141.362 1070.18 Q143.607 1067.66 144.487 1065.92 Q145.39 1064.16 145.39 1062.47 Q145.39 1059.72 143.445 1057.98 Q141.524 1056.24 138.422 1056.24 Q136.223 1056.24 133.769 1057.01 Q131.339 1057.77 128.561 1059.32 L128.561 1054.6 Q131.385 1053.47 133.839 1052.89 Q136.293 1052.31 138.33 1052.31 Q143.7 1052.31 146.894 1054.99 Q150.089 1057.68 150.089 1062.17 Q150.089 1064.3 149.279 1066.22 Q148.492 1068.12 146.385 1070.71 Q145.806 1071.38 142.705 1074.6 Q139.603 1077.8 133.955 1083.56 Z" fill="#000000" fill-rule="evenodd" fill-opacity="1" /><path clip-path="url(#clip250)" d="M 0 0 M92.6123 996.813 Q89.0012 996.813 87.1725 1000.38 Q85.3669 1003.92 85.3669 1011.05 Q85.3669 1018.16 87.1725 1021.72 Q89.0012 1025.26 92.6123 1025.26 Q96.2465 1025.26 98.0521 1021.72 Q99.8808 1018.16 99.8808 1011.05 Q99.8808 1003.92 98.0521 1000.38 Q96.2465 996.813 92.6123 996.813 M92.6123 993.109 Q98.4224 993.109 101.478 997.716 Q104.557 1002.3 104.557 1011.05 Q104.557 1019.78 101.478 1024.38 Q98.4224 1028.97 92.6123 1028.97 Q86.8021 1028.97 83.7234 1024.38 Q80.6679 1019.78 80.6679 1011.05 Q80.6679 1002.3 83.7234 997.716 Q86.8021 993.109 92.6123 993.109 Z" fill="#000000" fill-rule="evenodd" fill-opacity="1" /><path clip-path="url(#clip250)" d="M 0 0 M112.774 1022.41 L117.658 1022.41 L117.658 1028.29 L112.774 1028.29 L112.774 1022.41 Z" fill="#000000" fill-rule="evenodd" fill-opacity="1" /><path clip-path="url(#clip250)" d="M 0 0 M140.691 997.808 L128.885 1016.26 L140.691 1016.26 L140.691 997.808 M139.464 993.734 L145.343 993.734 L145.343 1016.26 L150.274 1016.26 L150.274 1020.15 L145.343 1020.15 L145.343 1028.29 L140.691 1028.29 L140.691 1020.15 L125.089 1020.15 L125.089 1015.63 L139.464 993.734 Z" fill="#000000" fill-rule="evenodd" fill-opacity="1" /><path clip-path="url(#clip250)" d="M 0 0 M92.9363 937.613 Q89.3253 937.613 87.4966 941.178 Q85.691 944.719 85.691 951.849 Q85.691 958.955 87.4966 962.52 Q89.3253 966.062 92.9363 966.062 Q96.5706 966.062 98.3761 962.52 Q100.205 958.955 100.205 951.849 Q100.205 944.719 98.3761 941.178 Q96.5706 937.613 92.9363 937.613 M92.9363 933.909 Q98.7465 933.909 101.802 938.516 Q104.881 943.099 104.881 951.849 Q104.881 960.576 101.802 965.182 Q98.7465 969.765 92.9363 969.765 Q87.1262 969.765 84.0475 965.182 Q80.992 960.576 80.992 951.849 Q80.992 943.099 84.0475 938.516 Q87.1262 933.909 92.9363 933.909 Z" fill="#000000" fill-rule="evenodd" fill-opacity="1" /><path clip-path="url(#clip250)" d="M 0 0 M113.098 963.215 L117.983 963.215 L117.983 969.094 L113.098 969.094 L113.098 963.215 Z" fill="#000000" fill-rule="evenodd" fill-opacity="1" /><path clip-path="url(#clip250)" d="M 0 0 M138.746 949.951 Q135.598 949.951 133.746 952.104 Q131.918 954.256 131.918 958.006 Q131.918 961.733 133.746 963.909 Q135.598 966.062 138.746 966.062 Q141.894 966.062 143.723 963.909 Q145.575 961.733 145.575 958.006 Q145.575 954.256 143.723 952.104 Q141.894 949.951 138.746 949.951 M148.029 935.298 L148.029 939.557 Q146.269 938.724 144.464 938.284 Q142.681 937.844 140.922 937.844 Q136.293 937.844 133.839 940.969 Q131.408 944.094 131.061 950.414 Q132.427 948.4 134.487 947.335 Q136.547 946.247 139.024 946.247 Q144.232 946.247 147.242 949.418 Q150.274 952.566 150.274 958.006 Q150.274 963.33 147.126 966.548 Q143.978 969.765 138.746 969.765 Q132.751 969.765 129.58 965.182 Q126.408 960.576 126.408 951.849 Q126.408 943.654 130.297 938.793 Q134.186 933.909 140.737 933.909 Q142.496 933.909 144.279 934.256 Q146.084 934.604 148.029 935.298 Z" fill="#000000" fill-rule="evenodd" fill-opacity="1" /><path clip-path="url(#clip250)" d="M 0 0 M93.191 878.413 Q89.5799 878.413 87.7512 881.978 Q85.9456 885.519 85.9456 892.649 Q85.9456 899.755 87.7512 903.32 Q89.5799 906.862 93.191 906.862 Q96.8252 906.862 98.6308 903.32 Q100.459 899.755 100.459 892.649 Q100.459 885.519 98.6308 881.978 Q96.8252 878.413 93.191 878.413 M93.191 874.709 Q99.0011 874.709 102.057 879.316 Q105.135 883.899 105.135 892.649 Q105.135 901.376 102.057 905.982 Q99.0011 910.565 93.191 910.565 Q87.3808 910.565 84.3021 905.982 Q81.2466 901.376 81.2466 892.649 Q81.2466 883.899 84.3021 879.316 Q87.3808 874.709 93.191 874.709 Z" fill="#000000" fill-rule="evenodd" fill-opacity="1" /><path clip-path="url(#clip250)" d="M 0 0 M113.353 904.014 L118.237 904.014 L118.237 909.894 L113.353 909.894 L113.353 904.014 Z" fill="#000000" fill-rule="evenodd" fill-opacity="1" /><path clip-path="url(#clip250)" d="M 0 0 M138.422 893.482 Q135.089 893.482 133.168 895.264 Q131.269 897.047 131.269 900.172 Q131.269 903.297 133.168 905.079 Q135.089 906.862 138.422 906.862 Q141.756 906.862 143.677 905.079 Q145.598 903.274 145.598 900.172 Q145.598 897.047 143.677 895.264 Q141.779 893.482 138.422 893.482 M133.746 891.491 Q130.737 890.751 129.047 888.69 Q127.381 886.63 127.381 883.667 Q127.381 879.524 130.32 877.116 Q133.283 874.709 138.422 874.709 Q143.584 874.709 146.524 877.116 Q149.464 879.524 149.464 883.667 Q149.464 886.63 147.774 888.69 Q146.107 890.751 143.121 891.491 Q146.501 892.278 148.376 894.57 Q150.274 896.862 150.274 900.172 Q150.274 905.195 147.195 907.88 Q144.14 910.565 138.422 910.565 Q132.705 910.565 129.626 907.88 Q126.57 905.195 126.57 900.172 Q126.57 896.862 128.469 894.57 Q130.367 892.278 133.746 891.491 M132.033 884.107 Q132.033 886.792 133.7 888.297 Q135.39 889.802 138.422 889.802 Q141.431 889.802 143.121 888.297 Q144.834 886.792 144.834 884.107 Q144.834 881.422 143.121 879.917 Q141.431 878.413 138.422 878.413 Q135.39 878.413 133.7 879.917 Q132.033 881.422 132.033 884.107 Z" fill="#000000" fill-rule="evenodd" fill-opacity="1" /><polyline clip-path="url(#clip254)" style="stroke:#009af9; stroke-width:4; stroke-opacity:1; fill:none" points="
  247.59,977.844 393.579,1050.44 539.568,1079.68 685.558,1065.17 831.547,854.133 977.536,947.921 1123.53,958.17 1269.51,946.011 1415.5,944.603 1561.49,854.014 
  1707.48,1051.24 1853.47,1011.29 1999.46,918.347 2145.45,1018.09 2291.44,897.405 
  "/>
<path clip-path="url(#clip250)" d="
M1986.81 976.178 L2280.54 976.178 L2280.54 855.218 L1986.81 855.218  Z
  " fill="#ffffff" fill-rule="evenodd" fill-opacity="1"/>
<polyline clip-path="url(#clip250)" style="stroke:#000000; stroke-width:4; stroke-opacity:1; fill:none" points="
  1986.81,976.178 2280.54,976.178 2280.54,855.218 1986.81,855.218 1986.81,976.178 
  "/>
<polyline clip-path="url(#clip250)" style="stroke:#009af9; stroke-width:4; stroke-opacity:1; fill:none" points="
  2010.88,915.698 2155.31,915.698 
  "/>
<path clip-path="url(#clip250)" d="M 0 0 M2193.23 935.385 Q2191.42 940.015 2189.71 941.427 Q2188 942.839 2185.13 942.839 L2181.72 942.839 L2181.72 939.274 L2184.22 939.274 Q2185.98 939.274 2186.96 938.44 Q2187.93 937.607 2189.11 934.505 L2189.87 932.561 L2179.39 907.052 L2183.9 907.052 L2192 927.329 L2200.1 907.052 L2204.62 907.052 L2193.23 935.385 Z" fill="#000000" fill-rule="evenodd" fill-opacity="1" /><path clip-path="url(#clip250)" d="M 0 0 M2225.27 914.343 Q2228.62 915.061 2230.5 917.329 Q2232.4 919.598 2232.4 922.931 Q2232.4 928.047 2228.88 930.848 Q2225.36 933.649 2218.88 933.649 Q2216.7 933.649 2214.39 933.209 Q2212.09 932.792 2209.64 931.936 L2209.64 927.422 Q2211.59 928.556 2213.9 929.135 Q2216.22 929.714 2218.74 929.714 Q2223.14 929.714 2225.43 927.978 Q2227.74 926.241 2227.74 922.931 Q2227.74 919.876 2225.59 918.163 Q2223.46 916.427 2219.64 916.427 L2215.61 916.427 L2215.61 912.584 L2219.83 912.584 Q2223.28 912.584 2225.1 911.218 Q2226.93 909.83 2226.93 907.237 Q2226.93 904.575 2225.03 903.163 Q2223.16 901.728 2219.64 901.728 Q2217.72 901.728 2215.52 902.144 Q2213.32 902.561 2210.68 903.441 L2210.68 899.274 Q2213.34 898.533 2215.66 898.163 Q2218 897.793 2220.06 897.793 Q2225.38 897.793 2228.48 900.223 Q2231.59 902.63 2231.59 906.751 Q2231.59 909.621 2229.94 911.612 Q2228.3 913.58 2225.27 914.343 Z" fill="#000000" fill-rule="evenodd" fill-opacity="1" /><path clip-path="url(#clip250)" d="
M186.274 1486.45 L2352.76 1486.45 L2352.76 1247.24 L186.274 1247.24  Z
  " fill="#ffffff" fill-rule="evenodd" fill-opacity="1"/>
<defs>
  <clipPath id="clip255">
    <rect x="186" y="1247" width="2167" height="240"/>
  </clipPath>
</defs>
<polyline clip-path="url(#clip255)" style="stroke:#000000; stroke-width:2; stroke-opacity:0.1; fill:none" points="
  393.579,1486.45 393.579,1247.24 
  "/>
<polyline clip-path="url(#clip255)" style="stroke:#000000; stroke-width:2; stroke-opacity:0.1; fill:none" points="
  685.558,1486.45 685.558,1247.24 
  "/>
<polyline clip-path="url(#clip255)" style="stroke:#000000; stroke-width:2; stroke-opacity:0.1; fill:none" points="
  977.536,1486.45 977.536,1247.24 
  "/>
<polyline clip-path="url(#clip255)" style="stroke:#000000; stroke-width:2; stroke-opacity:0.1; fill:none" points="
  1269.51,1486.45 1269.51,1247.24 
  "/>
<polyline clip-path="url(#clip255)" style="stroke:#000000; stroke-width:2; stroke-opacity:0.1; fill:none" points="
  1561.49,1486.45 1561.49,1247.24 
  "/>
<polyline clip-path="url(#clip255)" style="stroke:#000000; stroke-width:2; stroke-opacity:0.1; fill:none" points="
  1853.47,1486.45 1853.47,1247.24 
  "/>
<polyline clip-path="url(#clip255)" style="stroke:#000000; stroke-width:2; stroke-opacity:0.1; fill:none" points="
  2145.45,1486.45 2145.45,1247.24 
  "/>
<polyline clip-path="url(#clip250)" style="stroke:#000000; stroke-width:4; stroke-opacity:1; fill:none" points="
  186.274,1486.45 2352.76,1486.45 
  "/>
<polyline clip-path="url(#clip250)" style="stroke:#000000; stroke-width:4; stroke-opacity:1; fill:none" points="
  393.579,1486.45 393.579,1483.58 
  "/>
<polyline clip-path="url(#clip250)" style="stroke:#000000; stroke-width:4; stroke-opacity:1; fill:none" points="
  685.558,1486.45 685.558,1483.58 
  "/>
<polyline clip-path="url(#clip250)" style="stroke:#000000; stroke-width:4; stroke-opacity:1; fill:none" points="
  977.536,1486.45 977.536,1483.58 
  "/>
<polyline clip-path="url(#clip250)" style="stroke:#000000; stroke-width:4; stroke-opacity:1; fill:none" points="
  1269.51,1486.45 1269.51,1483.58 
  "/>
<polyline clip-path="url(#clip250)" style="stroke:#000000; stroke-width:4; stroke-opacity:1; fill:none" points="
  1561.49,1486.45 1561.49,1483.58 
  "/>
<polyline clip-path="url(#clip250)" style="stroke:#000000; stroke-width:4; stroke-opacity:1; fill:none" points="
  1853.47,1486.45 1853.47,1483.58 
  "/>
<polyline clip-path="url(#clip250)" style="stroke:#000000; stroke-width:4; stroke-opacity:1; fill:none" points="
  2145.45,1486.45 2145.45,1483.58 
  "/>
<path clip-path="url(#clip250)" d="M 0 0 M388.232 1543.18 L404.551 1543.18 L404.551 1547.12 L382.607 1547.12 L382.607 1543.18 Q385.269 1540.43 389.852 1535.8 Q394.458 1531.15 395.639 1529.81 Q397.884 1527.28 398.764 1525.55 Q399.667 1523.79 399.667 1522.1 Q399.667 1519.34 397.722 1517.61 Q395.801 1515.87 392.699 1515.87 Q390.5 1515.87 388.046 1516.63 Q385.616 1517.4 382.838 1518.95 L382.838 1514.23 Q385.662 1513.09 388.116 1512.51 Q390.57 1511.93 392.607 1511.93 Q397.977 1511.93 401.171 1514.62 Q404.366 1517.31 404.366 1521.8 Q404.366 1523.93 403.556 1525.85 Q402.769 1527.74 400.662 1530.34 Q400.083 1531.01 396.982 1534.23 Q393.88 1537.42 388.232 1543.18 Z" fill="#000000" fill-rule="evenodd" fill-opacity="1" /><path clip-path="url(#clip250)" d="M 0 0 M688.567 1516.63 L676.761 1535.08 L688.567 1535.08 L688.567 1516.63 M687.34 1512.56 L693.22 1512.56 L693.22 1535.08 L698.15 1535.08 L698.15 1538.97 L693.22 1538.97 L693.22 1547.12 L688.567 1547.12 L688.567 1538.97 L672.965 1538.97 L672.965 1534.46 L687.34 1512.56 Z" fill="#000000" fill-rule="evenodd" fill-opacity="1" /><path clip-path="url(#clip250)" d="M 0 0 M977.941 1527.98 Q974.793 1527.98 972.941 1530.13 Q971.113 1532.28 971.113 1536.03 Q971.113 1539.76 972.941 1541.93 Q974.793 1544.09 977.941 1544.09 Q981.089 1544.09 982.918 1541.93 Q984.77 1539.76 984.77 1536.03 Q984.77 1532.28 982.918 1530.13 Q981.089 1527.98 977.941 1527.98 M987.224 1513.32 L987.224 1517.58 Q985.464 1516.75 983.659 1516.31 Q981.877 1515.87 980.117 1515.87 Q975.488 1515.87 973.034 1519 Q970.603 1522.12 970.256 1528.44 Q971.622 1526.43 973.682 1525.36 Q975.742 1524.27 978.219 1524.27 Q983.427 1524.27 986.437 1527.44 Q989.469 1530.59 989.469 1536.03 Q989.469 1541.36 986.321 1544.57 Q983.173 1547.79 977.941 1547.79 Q971.946 1547.79 968.775 1543.21 Q965.603 1538.6 965.603 1529.87 Q965.603 1521.68 969.492 1516.82 Q973.381 1511.93 979.932 1511.93 Q981.691 1511.93 983.474 1512.28 Q985.279 1512.63 987.224 1513.32 Z" fill="#000000" fill-rule="evenodd" fill-opacity="1" /><path clip-path="url(#clip250)" d="M 0 0 M1269.51 1530.71 Q1266.18 1530.71 1264.26 1532.49 Q1262.36 1534.27 1262.36 1537.4 Q1262.36 1540.52 1264.26 1542.31 Q1266.18 1544.09 1269.51 1544.09 Q1272.85 1544.09 1274.77 1542.31 Q1276.69 1540.5 1276.69 1537.4 Q1276.69 1534.27 1274.77 1532.49 Q1272.87 1530.71 1269.51 1530.71 M1264.84 1528.72 Q1261.83 1527.98 1260.14 1525.92 Q1258.47 1523.86 1258.47 1520.89 Q1258.47 1516.75 1261.41 1514.34 Q1264.38 1511.93 1269.51 1511.93 Q1274.68 1511.93 1277.62 1514.34 Q1280.56 1516.75 1280.56 1520.89 Q1280.56 1523.86 1278.87 1525.92 Q1277.2 1527.98 1274.21 1528.72 Q1277.59 1529.5 1279.47 1531.8 Q1281.37 1534.09 1281.37 1537.4 Q1281.37 1542.42 1278.29 1545.11 Q1275.23 1547.79 1269.51 1547.79 Q1263.8 1547.79 1260.72 1545.11 Q1257.66 1542.42 1257.66 1537.4 Q1257.66 1534.09 1259.56 1531.8 Q1261.46 1529.5 1264.84 1528.72 M1263.13 1521.33 Q1263.13 1524.02 1264.79 1525.52 Q1266.48 1527.03 1269.51 1527.03 Q1272.52 1527.03 1274.21 1525.52 Q1275.93 1524.02 1275.93 1521.33 Q1275.93 1518.65 1274.21 1517.14 Q1272.52 1515.64 1269.51 1515.64 Q1266.48 1515.64 1264.79 1517.14 Q1263.13 1518.65 1263.13 1521.33 Z" fill="#000000" fill-rule="evenodd" fill-opacity="1" /><path clip-path="url(#clip250)" d="M 0 0 M1536.18 1543.18 L1543.82 1543.18 L1543.82 1516.82 L1535.51 1518.49 L1535.51 1514.23 L1543.77 1512.56 L1548.45 1512.56 L1548.45 1543.18 L1556.09 1543.18 L1556.09 1547.12 L1536.18 1547.12 L1536.18 1543.18 Z" fill="#000000" fill-rule="evenodd" fill-opacity="1" /><path clip-path="url(#clip250)" d="M 0 0 M1575.53 1515.64 Q1571.92 1515.64 1570.09 1519.2 Q1568.29 1522.75 1568.29 1529.87 Q1568.29 1536.98 1570.09 1540.55 Q1571.92 1544.09 1575.53 1544.09 Q1579.17 1544.09 1580.97 1540.55 Q1582.8 1536.98 1582.8 1529.87 Q1582.8 1522.75 1580.97 1519.2 Q1579.17 1515.64 1575.53 1515.64 M1575.53 1511.93 Q1581.34 1511.93 1584.4 1516.54 Q1587.48 1521.12 1587.48 1529.87 Q1587.48 1538.6 1584.4 1543.21 Q1581.34 1547.79 1575.53 1547.79 Q1569.72 1547.79 1566.64 1543.21 Q1563.59 1538.6 1563.59 1529.87 Q1563.59 1521.12 1566.64 1516.54 Q1569.72 1511.93 1575.53 1511.93 Z" fill="#000000" fill-rule="evenodd" fill-opacity="1" /><path clip-path="url(#clip250)" d="M 0 0 M1828.96 1543.18 L1836.6 1543.18 L1836.6 1516.82 L1828.29 1518.49 L1828.29 1514.23 L1836.55 1512.56 L1841.23 1512.56 L1841.23 1543.18 L1848.87 1543.18 L1848.87 1547.12 L1828.96 1547.12 L1828.96 1543.18 Z" fill="#000000" fill-rule="evenodd" fill-opacity="1" /><path clip-path="url(#clip250)" d="M 0 0 M1862.34 1543.18 L1878.66 1543.18 L1878.66 1547.12 L1856.71 1547.12 L1856.71 1543.18 Q1859.38 1540.43 1863.96 1535.8 Q1868.56 1531.15 1869.75 1529.81 Q1871.99 1527.28 1872.87 1525.55 Q1873.77 1523.79 1873.77 1522.1 Q1873.77 1519.34 1871.83 1517.61 Q1869.91 1515.87 1866.81 1515.87 Q1864.61 1515.87 1862.15 1516.63 Q1859.72 1517.4 1856.94 1518.95 L1856.94 1514.23 Q1859.77 1513.09 1862.22 1512.51 Q1864.68 1511.93 1866.71 1511.93 Q1872.08 1511.93 1875.28 1514.62 Q1878.47 1517.31 1878.47 1521.8 Q1878.47 1523.93 1877.66 1525.85 Q1876.87 1527.74 1874.77 1530.34 Q1874.19 1531.01 1871.09 1534.23 Q1867.99 1537.42 1862.34 1543.18 Z" fill="#000000" fill-rule="evenodd" fill-opacity="1" /><path clip-path="url(#clip250)" d="M 0 0 M2119.9 1543.18 L2127.53 1543.18 L2127.53 1516.82 L2119.22 1518.49 L2119.22 1514.23 L2127.49 1512.56 L2132.16 1512.56 L2132.16 1543.18 L2139.8 1543.18 L2139.8 1547.12 L2119.9 1547.12 L2119.9 1543.18 Z" fill="#000000" fill-rule="evenodd" fill-opacity="1" /><path clip-path="url(#clip250)" d="M 0 0 M2162.09 1516.63 L2150.29 1535.08 L2162.09 1535.08 L2162.09 1516.63 M2160.87 1512.56 L2166.75 1512.56 L2166.75 1535.08 L2171.68 1535.08 L2171.68 1538.97 L2166.75 1538.97 L2166.75 1547.12 L2162.09 1547.12 L2162.09 1538.97 L2146.49 1538.97 L2146.49 1534.46 L2160.87 1512.56 Z" fill="#000000" fill-rule="evenodd" fill-opacity="1" /><polyline clip-path="url(#clip255)" style="stroke:#000000; stroke-width:2; stroke-opacity:0.1; fill:none" points="
  186.274,1486.39 2352.76,1486.39 
  "/>
<polyline clip-path="url(#clip255)" style="stroke:#000000; stroke-width:2; stroke-opacity:0.1; fill:none" points="
  186.274,1427.72 2352.76,1427.72 
  "/>
<polyline clip-path="url(#clip255)" style="stroke:#000000; stroke-width:2; stroke-opacity:0.1; fill:none" points="
  186.274,1369.04 2352.76,1369.04 
  "/>
<polyline clip-path="url(#clip255)" style="stroke:#000000; stroke-width:2; stroke-opacity:0.1; fill:none" points="
  186.274,1310.37 2352.76,1310.37 
  "/>
<polyline clip-path="url(#clip255)" style="stroke:#000000; stroke-width:2; stroke-opacity:0.1; fill:none" points="
  186.274,1251.69 2352.76,1251.69 
  "/>
<polyline clip-path="url(#clip250)" style="stroke:#000000; stroke-width:4; stroke-opacity:1; fill:none" points="
  186.274,1486.45 186.274,1247.24 
  "/>
<polyline clip-path="url(#clip250)" style="stroke:#000000; stroke-width:4; stroke-opacity:1; fill:none" points="
  186.274,1486.39 212.272,1486.39 
  "/>
<polyline clip-path="url(#clip250)" style="stroke:#000000; stroke-width:4; stroke-opacity:1; fill:none" points="
  186.274,1427.72 212.272,1427.72 
  "/>
<polyline clip-path="url(#clip250)" style="stroke:#000000; stroke-width:4; stroke-opacity:1; fill:none" points="
  186.274,1369.04 212.272,1369.04 
  "/>
<polyline clip-path="url(#clip250)" style="stroke:#000000; stroke-width:4; stroke-opacity:1; fill:none" points="
  186.274,1310.37 212.272,1310.37 
  "/>
<polyline clip-path="url(#clip250)" style="stroke:#000000; stroke-width:4; stroke-opacity:1; fill:none" points="
  186.274,1251.69 212.272,1251.69 
  "/>
<path clip-path="url(#clip250)" d="M 0 0 M62.9365 1472.19 Q59.3254 1472.19 57.4967 1475.76 Q55.6912 1479.3 55.6912 1486.43 Q55.6912 1493.53 57.4967 1497.1 Q59.3254 1500.64 62.9365 1500.64 Q66.5707 1500.64 68.3763 1497.1 Q70.205 1493.53 70.205 1486.43 Q70.205 1479.3 68.3763 1475.76 Q66.5707 1472.19 62.9365 1472.19 M62.9365 1468.49 Q68.7467 1468.49 71.8022 1473.09 Q74.8809 1477.68 74.8809 1486.43 Q74.8809 1495.15 71.8022 1499.76 Q68.7467 1504.34 62.9365 1504.34 Q57.1264 1504.34 54.0477 1499.76 Q50.9921 1495.15 50.9921 1486.43 Q50.9921 1477.68 54.0477 1473.09 Q57.1264 1468.49 62.9365 1468.49 Z" fill="#000000" fill-rule="evenodd" fill-opacity="1" /><path clip-path="url(#clip250)" d="M 0 0 M83.0984 1497.79 L87.9827 1497.79 L87.9827 1503.67 L83.0984 1503.67 L83.0984 1497.79 Z" fill="#000000" fill-rule="evenodd" fill-opacity="1" /><path clip-path="url(#clip250)" d="M 0 0 M108.168 1472.19 Q104.557 1472.19 102.728 1475.76 Q100.922 1479.3 100.922 1486.43 Q100.922 1493.53 102.728 1497.1 Q104.557 1500.64 108.168 1500.64 Q111.802 1500.64 113.608 1497.1 Q115.436 1493.53 115.436 1486.43 Q115.436 1479.3 113.608 1475.76 Q111.802 1472.19 108.168 1472.19 M108.168 1468.49 Q113.978 1468.49 117.033 1473.09 Q120.112 1477.68 120.112 1486.43 Q120.112 1495.15 117.033 1499.76 Q113.978 1504.34 108.168 1504.34 Q102.358 1504.34 99.2789 1499.76 Q96.2234 1495.15 96.2234 1486.43 Q96.2234 1477.68 99.2789 1473.09 Q102.358 1468.49 108.168 1468.49 Z" fill="#000000" fill-rule="evenodd" fill-opacity="1" /><path clip-path="url(#clip250)" d="M 0 0 M138.33 1472.19 Q134.719 1472.19 132.89 1475.76 Q131.084 1479.3 131.084 1486.43 Q131.084 1493.53 132.89 1497.1 Q134.719 1500.64 138.33 1500.64 Q141.964 1500.64 143.769 1497.1 Q145.598 1493.53 145.598 1486.43 Q145.598 1479.3 143.769 1475.76 Q141.964 1472.19 138.33 1472.19 M138.33 1468.49 Q144.14 1468.49 147.195 1473.09 Q150.274 1477.68 150.274 1486.43 Q150.274 1495.15 147.195 1499.76 Q144.14 1504.34 138.33 1504.34 Q132.519 1504.34 129.441 1499.76 Q126.385 1495.15 126.385 1486.43 Q126.385 1477.68 129.441 1473.09 Q132.519 1468.49 138.33 1468.49 Z" fill="#000000" fill-rule="evenodd" fill-opacity="1" /><path clip-path="url(#clip250)" d="M 0 0 M63.9319 1413.52 Q60.3208 1413.52 58.4921 1417.08 Q56.6865 1420.62 56.6865 1427.75 Q56.6865 1434.86 58.4921 1438.42 Q60.3208 1441.97 63.9319 1441.97 Q67.5661 1441.97 69.3717 1438.42 Q71.2004 1434.86 71.2004 1427.75 Q71.2004 1420.62 69.3717 1417.08 Q67.5661 1413.52 63.9319 1413.52 M63.9319 1409.81 Q69.742 1409.81 72.7976 1414.42 Q75.8763 1419 75.8763 1427.75 Q75.8763 1436.48 72.7976 1441.09 Q69.742 1445.67 63.9319 1445.67 Q58.1217 1445.67 55.043 1441.09 Q51.9875 1436.48 51.9875 1427.75 Q51.9875 1419 55.043 1414.42 Q58.1217 1409.81 63.9319 1409.81 Z" fill="#000000" fill-rule="evenodd" fill-opacity="1" /><path clip-path="url(#clip250)" d="M 0 0 M84.0938 1439.12 L88.978 1439.12 L88.978 1445 L84.0938 1445 L84.0938 1439.12 Z" fill="#000000" fill-rule="evenodd" fill-opacity="1" /><path clip-path="url(#clip250)" d="M 0 0 M103.191 1441.06 L119.51 1441.06 L119.51 1445 L97.566 1445 L97.566 1441.06 Q100.228 1438.31 104.811 1433.68 Q109.418 1429.03 110.598 1427.68 Q112.844 1425.16 113.723 1423.42 Q114.626 1421.66 114.626 1419.97 Q114.626 1417.22 112.682 1415.48 Q110.76 1413.75 107.658 1413.75 Q105.459 1413.75 103.006 1414.51 Q100.575 1415.28 97.7974 1416.83 L97.7974 1412.1 Q100.621 1410.97 103.075 1410.39 Q105.529 1409.81 107.566 1409.81 Q112.936 1409.81 116.131 1412.5 Q119.325 1415.18 119.325 1419.67 Q119.325 1421.8 118.515 1423.72 Q117.728 1425.62 115.621 1428.22 Q115.043 1428.89 111.941 1432.1 Q108.839 1435.3 103.191 1441.06 Z" fill="#000000" fill-rule="evenodd" fill-opacity="1" /><path clip-path="url(#clip250)" d="M 0 0 M129.371 1410.44 L147.728 1410.44 L147.728 1414.37 L133.654 1414.37 L133.654 1422.85 Q134.672 1422.5 135.691 1422.34 Q136.709 1422.15 137.728 1422.15 Q143.515 1422.15 146.894 1425.32 Q150.274 1428.49 150.274 1433.91 Q150.274 1439.49 146.802 1442.59 Q143.33 1445.67 137.01 1445.67 Q134.834 1445.67 132.566 1445.3 Q130.32 1444.93 127.913 1444.19 L127.913 1439.49 Q129.996 1440.62 132.219 1441.18 Q134.441 1441.73 136.918 1441.73 Q140.922 1441.73 143.26 1439.63 Q145.598 1437.52 145.598 1433.91 Q145.598 1430.3 143.26 1428.19 Q140.922 1426.09 136.918 1426.09 Q135.043 1426.09 133.168 1426.5 Q131.316 1426.92 129.371 1427.8 L129.371 1410.44 Z" fill="#000000" fill-rule="evenodd" fill-opacity="1" /><path clip-path="url(#clip250)" d="M 0 0 M62.9365 1354.84 Q59.3254 1354.84 57.4967 1358.41 Q55.6912 1361.95 55.6912 1369.08 Q55.6912 1376.18 57.4967 1379.75 Q59.3254 1383.29 62.9365 1383.29 Q66.5707 1383.29 68.3763 1379.75 Q70.205 1376.18 70.205 1369.08 Q70.205 1361.95 68.3763 1358.41 Q66.5707 1354.84 62.9365 1354.84 M62.9365 1351.14 Q68.7467 1351.14 71.8022 1355.74 Q74.8809 1360.33 74.8809 1369.08 Q74.8809 1377.8 71.8022 1382.41 Q68.7467 1386.99 62.9365 1386.99 Q57.1264 1386.99 54.0477 1382.41 Q50.9921 1377.8 50.9921 1369.08 Q50.9921 1360.33 54.0477 1355.74 Q57.1264 1351.14 62.9365 1351.14 Z" fill="#000000" fill-rule="evenodd" fill-opacity="1" /><path clip-path="url(#clip250)" d="M 0 0 M83.0984 1380.44 L87.9827 1380.44 L87.9827 1386.32 L83.0984 1386.32 L83.0984 1380.44 Z" fill="#000000" fill-rule="evenodd" fill-opacity="1" /><path clip-path="url(#clip250)" d="M 0 0 M98.2141 1351.76 L116.57 1351.76 L116.57 1355.7 L102.496 1355.7 L102.496 1364.17 Q103.515 1363.82 104.534 1363.66 Q105.552 1363.48 106.571 1363.48 Q112.358 1363.48 115.737 1366.65 Q119.117 1369.82 119.117 1375.23 Q119.117 1380.81 115.645 1383.91 Q112.172 1386.99 105.853 1386.99 Q103.677 1386.99 101.409 1386.62 Q99.1632 1386.25 96.7558 1385.51 L96.7558 1380.81 Q98.8391 1381.95 101.061 1382.5 Q103.284 1383.06 105.76 1383.06 Q109.765 1383.06 112.103 1380.95 Q114.441 1378.85 114.441 1375.23 Q114.441 1371.62 112.103 1369.52 Q109.765 1367.41 105.76 1367.41 Q103.885 1367.41 102.01 1367.83 Q100.159 1368.24 98.2141 1369.12 L98.2141 1351.76 Z" fill="#000000" fill-rule="evenodd" fill-opacity="1" /><path clip-path="url(#clip250)" d="M 0 0 M138.33 1354.84 Q134.719 1354.84 132.89 1358.41 Q131.084 1361.95 131.084 1369.08 Q131.084 1376.18 132.89 1379.75 Q134.719 1383.29 138.33 1383.29 Q141.964 1383.29 143.769 1379.75 Q145.598 1376.18 145.598 1369.08 Q145.598 1361.95 143.769 1358.41 Q141.964 1354.84 138.33 1354.84 M138.33 1351.14 Q144.14 1351.14 147.195 1355.74 Q150.274 1360.33 150.274 1369.08 Q150.274 1377.8 147.195 1382.41 Q144.14 1386.99 138.33 1386.99 Q132.519 1386.99 129.441 1382.41 Q126.385 1377.8 126.385 1369.08 Q126.385 1360.33 129.441 1355.74 Q132.519 1351.14 138.33 1351.14 Z" fill="#000000" fill-rule="evenodd" fill-opacity="1" /><path clip-path="url(#clip250)" d="M 0 0 M63.9319 1296.17 Q60.3208 1296.17 58.4921 1299.73 Q56.6865 1303.27 56.6865 1310.4 Q56.6865 1317.51 58.4921 1321.07 Q60.3208 1324.61 63.9319 1324.61 Q67.5661 1324.61 69.3717 1321.07 Q71.2004 1317.51 71.2004 1310.4 Q71.2004 1303.27 69.3717 1299.73 Q67.5661 1296.17 63.9319 1296.17 M63.9319 1292.46 Q69.742 1292.46 72.7976 1297.07 Q75.8763 1301.65 75.8763 1310.4 Q75.8763 1319.13 72.7976 1323.73 Q69.742 1328.32 63.9319 1328.32 Q58.1217 1328.32 55.043 1323.73 Q51.9875 1319.13 51.9875 1310.4 Q51.9875 1301.65 55.043 1297.07 Q58.1217 1292.46 63.9319 1292.46 Z" fill="#000000" fill-rule="evenodd" fill-opacity="1" /><path clip-path="url(#clip250)" d="M 0 0 M84.0938 1321.77 L88.978 1321.77 L88.978 1327.65 L84.0938 1327.65 L84.0938 1321.77 Z" fill="#000000" fill-rule="evenodd" fill-opacity="1" /><path clip-path="url(#clip250)" d="M 0 0 M97.9826 1293.09 L120.205 1293.09 L120.205 1295.08 L107.658 1327.65 L102.774 1327.65 L114.58 1297.02 L97.9826 1297.02 L97.9826 1293.09 Z" fill="#000000" fill-rule="evenodd" fill-opacity="1" /><path clip-path="url(#clip250)" d="M 0 0 M129.371 1293.09 L147.728 1293.09 L147.728 1297.02 L133.654 1297.02 L133.654 1305.49 Q134.672 1305.15 135.691 1304.98 Q136.709 1304.8 137.728 1304.8 Q143.515 1304.8 146.894 1307.97 Q150.274 1311.14 150.274 1316.56 Q150.274 1322.14 146.802 1325.24 Q143.33 1328.32 137.01 1328.32 Q134.834 1328.32 132.566 1327.95 Q130.32 1327.58 127.913 1326.84 L127.913 1322.14 Q129.996 1323.27 132.219 1323.83 Q134.441 1324.38 136.918 1324.38 Q140.922 1324.38 143.26 1322.28 Q145.598 1320.17 145.598 1316.56 Q145.598 1312.95 143.26 1310.84 Q140.922 1308.73 136.918 1308.73 Q135.043 1308.73 133.168 1309.15 Q131.316 1309.57 129.371 1310.45 L129.371 1293.09 Z" fill="#000000" fill-rule="evenodd" fill-opacity="1" /><path clip-path="url(#clip250)" d="M 0 0 M53.7467 1265.04 L61.3856 1265.04 L61.3856 1238.67 L53.0754 1240.34 L53.0754 1236.08 L61.3393 1234.41 L66.0152 1234.41 L66.0152 1265.04 L73.654 1265.04 L73.654 1268.97 L53.7467 1268.97 L53.7467 1265.04 Z" fill="#000000" fill-rule="evenodd" fill-opacity="1" /><path clip-path="url(#clip250)" d="M 0 0 M83.0984 1263.09 L87.9827 1263.09 L87.9827 1268.97 L83.0984 1268.97 L83.0984 1263.09 Z" fill="#000000" fill-rule="evenodd" fill-opacity="1" /><path clip-path="url(#clip250)" d="M 0 0 M108.168 1237.49 Q104.557 1237.49 102.728 1241.05 Q100.922 1244.6 100.922 1251.73 Q100.922 1258.83 102.728 1262.4 Q104.557 1265.94 108.168 1265.94 Q111.802 1265.94 113.608 1262.4 Q115.436 1258.83 115.436 1251.73 Q115.436 1244.6 113.608 1241.05 Q111.802 1237.49 108.168 1237.49 M108.168 1233.79 Q113.978 1233.79 117.033 1238.39 Q120.112 1242.98 120.112 1251.73 Q120.112 1260.45 117.033 1265.06 Q113.978 1269.64 108.168 1269.64 Q102.358 1269.64 99.2789 1265.06 Q96.2234 1260.45 96.2234 1251.73 Q96.2234 1242.98 99.2789 1238.39 Q102.358 1233.79 108.168 1233.79 Z" fill="#000000" fill-rule="evenodd" fill-opacity="1" /><path clip-path="url(#clip250)" d="M 0 0 M138.33 1237.49 Q134.719 1237.49 132.89 1241.05 Q131.084 1244.6 131.084 1251.73 Q131.084 1258.83 132.89 1262.4 Q134.719 1265.94 138.33 1265.94 Q141.964 1265.94 143.769 1262.4 Q145.598 1258.83 145.598 1251.73 Q145.598 1244.6 143.769 1241.05 Q141.964 1237.49 138.33 1237.49 M138.33 1233.79 Q144.14 1233.79 147.195 1238.39 Q150.274 1242.98 150.274 1251.73 Q150.274 1260.45 147.195 1265.06 Q144.14 1269.64 138.33 1269.64 Q132.519 1269.64 129.441 1265.06 Q126.385 1260.45 126.385 1251.73 Q126.385 1242.98 129.441 1238.39 Q132.519 1233.79 138.33 1233.79 Z" fill="#000000" fill-rule="evenodd" fill-opacity="1" /><polyline clip-path="url(#clip255)" style="stroke:#009af9; stroke-width:4; stroke-opacity:1; fill:none" points="
  247.59,1479.68 393.579,1459.42 539.568,1358.16 685.558,1326.45 831.547,1448.02 977.536,1338.42 1123.53,1462.89 1269.51,1448.32 1415.5,1321.38 1561.49,1397.87 
  1707.48,1458.26 1853.47,1457.38 1999.46,1254.01 2145.45,1460.15 2291.44,1322.22 
  "/>
<path clip-path="url(#clip250)" d="
M1985.68 1376.18 L2280.54 1376.18 L2280.54 1255.22 L1985.68 1255.22  Z
  " fill="#ffffff" fill-rule="evenodd" fill-opacity="1"/>
<polyline clip-path="url(#clip250)" style="stroke:#000000; stroke-width:4; stroke-opacity:1; fill:none" points="
  1985.68,1376.18 2280.54,1376.18 2280.54,1255.22 1985.68,1255.22 1985.68,1376.18 
  "/>
<polyline clip-path="url(#clip250)" style="stroke:#009af9; stroke-width:4; stroke-opacity:1; fill:none" points="
  2009.75,1315.7 2154.18,1315.7 
  "/>
<path clip-path="url(#clip250)" d="M 0 0 M2192.1 1335.38 Q2190.29 1340.01 2188.58 1341.43 Q2186.86 1342.84 2183.99 1342.84 L2180.59 1342.84 L2180.59 1339.27 L2183.09 1339.27 Q2184.85 1339.27 2185.82 1338.44 Q2186.79 1337.61 2187.97 1334.51 L2188.74 1332.56 L2178.25 1307.05 L2182.77 1307.05 L2190.87 1327.33 L2198.97 1307.05 L2203.48 1307.05 L2192.1 1335.38 Z" fill="#000000" fill-rule="evenodd" fill-opacity="1" /><path clip-path="url(#clip250)" d="M 0 0 M2222.81 1302.49 L2211.01 1320.94 L2222.81 1320.94 L2222.81 1302.49 M2221.59 1298.42 L2227.47 1298.42 L2227.47 1320.94 L2232.4 1320.94 L2232.4 1324.83 L2227.47 1324.83 L2227.47 1332.98 L2222.81 1332.98 L2222.81 1324.83 L2207.21 1324.83 L2207.21 1320.32 L2221.59 1298.42 Z" fill="#000000" fill-rule="evenodd" fill-opacity="1" /></svg>
