<?xml version="1.0" encoding="utf-8"?>
<svg xmlns="http://www.w3.org/2000/svg" xmlns:xlink="http://www.w3.org/1999/xlink" width="600" height="400" viewBox="0 0 2400 1600">
<defs>
  <clipPath id="clip130">
    <rect x="0" y="0" width="2400" height="1600"/>
  </clipPath>
</defs>
<path clip-path="url(#clip130)" d="
M0 1600 L2400 1600 L2400 0 L0 0  Z
  " fill="#ffffff" fill-rule="evenodd" fill-opacity="1"/>
<defs>
  <clipPath id="clip131">
    <rect x="480" y="0" width="1681" height="1600"/>
  </clipPath>
</defs>
<path clip-path="url(#clip130)" d="
M219.866 1423.18 L2352.76 1423.18 L2352.76 123.472 L219.866 123.472  Z
  " fill="#ffffff" fill-rule="evenodd" fill-opacity="1"/>
<defs>
  <clipPath id="clip132">
    <rect x="219" y="123" width="2134" height="1301"/>
  </clipPath>
</defs>
<polyline clip-path="url(#clip132)" style="stroke:#000000; stroke-width:2; stroke-opacity:0.1; fill:none" points="
  260.222,1423.18 260.222,123.472 
  "/>
<polyline clip-path="url(#clip132)" style="stroke:#000000; stroke-width:2; stroke-opacity:0.1; fill:none" points="
  901.528,1423.18 901.528,123.472 
  "/>
<polyline clip-path="url(#clip132)" style="stroke:#000000; stroke-width:2; stroke-opacity:0.1; fill:none" points="
  1542.83,1423.18 1542.83,123.472 
  "/>
<polyline clip-path="url(#clip132)" style="stroke:#000000; stroke-width:2; stroke-opacity:0.1; fill:none" points="
  2184.14,1423.18 2184.14,123.472 
  "/>
<polyline clip-path="url(#clip130)" style="stroke:#000000; stroke-width:4; stroke-opacity:1; fill:none" points="
  219.866,1423.18 2352.76,1423.18 
  "/>
<polyline clip-path="url(#clip130)" style="stroke:#000000; stroke-width:4; stroke-opacity:1; fill:none" points="
  260.222,1423.18 260.222,1407.58 
  "/>
<polyline clip-path="url(#clip130)" style="stroke:#000000; stroke-width:4; stroke-opacity:1; fill:none" points="
  901.528,1423.18 901.528,1407.58 
  "/>
<polyline clip-path="url(#clip130)" style="stroke:#000000; stroke-width:4; stroke-opacity:1; fill:none" points="
  1542.83,1423.18 1542.83,1407.58 
  "/>
<polyline clip-path="url(#clip130)" style="stroke:#000000; stroke-width:4; stroke-opacity:1; fill:none" points="
  2184.14,1423.18 2184.14,1407.58 
  "/>
<path clip-path="url(#clip130)" d="M 0 0 M260.222 1452.37 Q256.611 1452.37 254.783 1455.94 Q252.977 1459.48 252.977 1466.61 Q252.977 1473.71 254.783 1477.28 Q256.611 1480.82 260.222 1480.82 Q263.857 1480.82 265.662 1477.28 Q267.491 1473.71 267.491 1466.61 Q267.491 1459.48 265.662 1455.94 Q263.857 1452.37 260.222 1452.37 M260.222 1448.67 Q266.032 1448.67 269.088 1453.27 Q272.167 1457.86 272.167 1466.61 Q272.167 1475.33 269.088 1479.94 Q266.032 1484.52 260.222 1484.52 Q254.412 1484.52 251.333 1479.94 Q248.278 1475.33 248.278 1466.61 Q248.278 1457.86 251.333 1453.27 Q254.412 1448.67 260.222 1448.67 Z" fill="#000000" fill-rule="evenodd" fill-opacity="1" /><path clip-path="url(#clip130)" d="M 0 0 M891.806 1449.29 L910.162 1449.29 L910.162 1453.23 L896.088 1453.23 L896.088 1461.7 Q897.107 1461.35 898.125 1461.19 Q899.144 1461 900.162 1461 Q905.949 1461 909.329 1464.18 Q912.708 1467.35 912.708 1472.76 Q912.708 1478.34 909.236 1481.44 Q905.764 1484.52 899.444 1484.52 Q897.269 1484.52 895 1484.15 Q892.755 1483.78 890.347 1483.04 L890.347 1478.34 Q892.431 1479.48 894.653 1480.03 Q896.875 1480.59 899.352 1480.59 Q903.356 1480.59 905.694 1478.48 Q908.032 1476.38 908.032 1472.76 Q908.032 1469.15 905.694 1467.05 Q903.356 1464.94 899.352 1464.94 Q897.477 1464.94 895.602 1465.36 Q893.75 1465.77 891.806 1466.65 L891.806 1449.29 Z" fill="#000000" fill-rule="evenodd" fill-opacity="1" /><path clip-path="url(#clip130)" d="M 0 0 M1517.52 1479.92 L1525.16 1479.92 L1525.16 1453.55 L1516.85 1455.22 L1516.85 1450.96 L1525.11 1449.29 L1529.79 1449.29 L1529.79 1479.92 L1537.43 1479.92 L1537.43 1483.85 L1517.52 1483.85 L1517.52 1479.92 Z" fill="#000000" fill-rule="evenodd" fill-opacity="1" /><path clip-path="url(#clip130)" d="M 0 0 M1556.87 1452.37 Q1553.26 1452.37 1551.43 1455.94 Q1549.63 1459.48 1549.63 1466.61 Q1549.63 1473.71 1551.43 1477.28 Q1553.26 1480.82 1556.87 1480.82 Q1560.51 1480.82 1562.31 1477.28 Q1564.14 1473.71 1564.14 1466.61 Q1564.14 1459.48 1562.31 1455.94 Q1560.51 1452.37 1556.87 1452.37 M1556.87 1448.67 Q1562.68 1448.67 1565.74 1453.27 Q1568.82 1457.86 1568.82 1466.61 Q1568.82 1475.33 1565.74 1479.94 Q1562.68 1484.52 1556.87 1484.52 Q1551.06 1484.52 1547.98 1479.94 Q1544.93 1475.33 1544.93 1466.61 Q1544.93 1457.86 1547.98 1453.27 Q1551.06 1448.67 1556.87 1448.67 Z" fill="#000000" fill-rule="evenodd" fill-opacity="1" /><path clip-path="url(#clip130)" d="M 0 0 M2159.32 1479.92 L2166.96 1479.92 L2166.96 1453.55 L2158.65 1455.22 L2158.65 1450.96 L2166.92 1449.29 L2171.59 1449.29 L2171.59 1479.92 L2179.23 1479.92 L2179.23 1483.85 L2159.32 1483.85 L2159.32 1479.92 Z" fill="#000000" fill-rule="evenodd" fill-opacity="1" /><path clip-path="url(#clip130)" d="M 0 0 M2188.72 1449.29 L2207.08 1449.29 L2207.08 1453.23 L2193 1453.23 L2193 1461.7 Q2194.02 1461.35 2195.04 1461.19 Q2196.06 1461 2197.08 1461 Q2202.87 1461 2206.25 1464.18 Q2209.62 1467.35 2209.62 1472.76 Q2209.62 1478.34 2206.15 1481.44 Q2202.68 1484.52 2196.36 1484.52 Q2194.18 1484.52 2191.92 1484.15 Q2189.67 1483.78 2187.26 1483.04 L2187.26 1478.34 Q2189.35 1479.48 2191.57 1480.03 Q2193.79 1480.59 2196.27 1480.59 Q2200.27 1480.59 2202.61 1478.48 Q2204.95 1476.38 2204.95 1472.76 Q2204.95 1469.15 2202.61 1467.05 Q2200.27 1464.94 2196.27 1464.94 Q2194.39 1464.94 2192.52 1465.36 Q2190.67 1465.77 2188.72 1466.65 L2188.72 1449.29 Z" fill="#000000" fill-rule="evenodd" fill-opacity="1" /><path clip-path="url(#clip130)" d="M 0 0 M1191.67 1520.52 L1198.58 1520.52 L1210.38 1538.19 L1222.26 1520.52 L1229.16 1520.52 L1213.89 1543.34 L1230.18 1568.04 L1223.27 1568.04 L1209.91 1547.83 L1196.44 1568.04 L1189.5 1568.04 L1206.47 1542.68 L1191.67 1520.52 Z" fill="#000000" fill-rule="evenodd" fill-opacity="1" /><path clip-path="url(#clip130)" d="M 0 0 M1232.15 1547.58 L1249.31 1547.58 L1249.31 1552.8 L1232.15 1552.8 L1232.15 1547.58 Z" fill="#000000" fill-rule="evenodd" fill-opacity="1" /><path clip-path="url(#clip130)" d="M 0 0 M1273.34 1526.86 L1264.62 1550.51 L1282.09 1550.51 L1273.34 1526.86 M1269.71 1520.52 L1277 1520.52 L1295.11 1568.04 L1288.43 1568.04 L1284.1 1555.85 L1262.68 1555.85 L1258.35 1568.04 L1251.57 1568.04 L1269.71 1520.52 Z" fill="#000000" fill-rule="evenodd" fill-opacity="1" /><path clip-path="url(#clip130)" d="M 0 0 M1331.43 1532.4 L1318.54 1549.74 L1332.1 1568.04 L1325.19 1568.04 L1314.81 1554.04 L1304.44 1568.04 L1297.53 1568.04 L1311.38 1549.39 L1298.71 1532.4 L1305.62 1532.4 L1315.07 1545.1 L1324.52 1532.4 L1331.43 1532.4 Z" fill="#000000" fill-rule="evenodd" fill-opacity="1" /><path clip-path="url(#clip130)" d="M 0 0 M1340.37 1532.4 L1346.23 1532.4 L1346.23 1568.04 L1340.37 1568.04 L1340.37 1532.4 M1340.37 1518.52 L1346.23 1518.52 L1346.23 1525.93 L1340.37 1525.93 L1340.37 1518.52 Z" fill="#000000" fill-rule="evenodd" fill-opacity="1" /><path clip-path="url(#clip130)" d="M 0 0 M1381.21 1533.45 L1381.21 1538.98 Q1378.73 1537.71 1376.05 1537.07 Q1373.38 1536.44 1370.51 1536.44 Q1366.15 1536.44 1363.96 1537.77 Q1361.79 1539.11 1361.79 1541.79 Q1361.79 1543.82 1363.35 1545 Q1364.91 1546.15 1369.62 1547.2 L1371.63 1547.64 Q1377.87 1548.98 1380.48 1551.43 Q1383.12 1553.85 1383.12 1558.21 Q1383.12 1563.17 1379.17 1566.07 Q1375.26 1568.97 1368.38 1568.97 Q1365.52 1568.97 1362.4 1568.39 Q1359.31 1567.85 1355.87 1566.74 L1355.87 1560.69 Q1359.12 1562.38 1362.27 1563.24 Q1365.42 1564.07 1368.51 1564.07 Q1372.65 1564.07 1374.87 1562.66 Q1377.1 1561.23 1377.1 1558.65 Q1377.1 1556.27 1375.48 1554.99 Q1373.89 1553.72 1368.44 1552.54 L1366.41 1552.07 Q1360.96 1550.92 1358.55 1548.56 Q1356.13 1546.18 1356.13 1542.04 Q1356.13 1537.01 1359.69 1534.27 Q1363.26 1531.54 1369.81 1531.54 Q1373.06 1531.54 1375.92 1532.01 Q1378.79 1532.49 1381.21 1533.45 Z" fill="#000000" fill-rule="evenodd" fill-opacity="1" /><polyline clip-path="url(#clip132)" style="stroke:#000000; stroke-width:2; stroke-opacity:0.1; fill:none" points="
  219.866,1386.4 2352.76,1386.4 
  "/>
<polyline clip-path="url(#clip132)" style="stroke:#000000; stroke-width:2; stroke-opacity:0.1; fill:none" points="
  219.866,1119.82 2352.76,1119.82 
  "/>
<polyline clip-path="url(#clip132)" style="stroke:#000000; stroke-width:2; stroke-opacity:0.1; fill:none" points="
  219.866,853.253 2352.76,853.253 
  "/>
<polyline clip-path="url(#clip132)" style="stroke:#000000; stroke-width:2; stroke-opacity:0.1; fill:none" points="
  219.866,586.682 2352.76,586.682 
  "/>
<polyline clip-path="url(#clip132)" style="stroke:#000000; stroke-width:2; stroke-opacity:0.1; fill:none" points="
  219.866,320.111 2352.76,320.111 
  "/>
<polyline clip-path="url(#clip130)" style="stroke:#000000; stroke-width:4; stroke-opacity:1; fill:none" points="
  219.866,1423.18 219.866,123.472 
  "/>
<polyline clip-path="url(#clip130)" style="stroke:#000000; stroke-width:4; stroke-opacity:1; fill:none" points="
  219.866,1386.4 245.461,1386.4 
  "/>
<polyline clip-path="url(#clip130)" style="stroke:#000000; stroke-width:4; stroke-opacity:1; fill:none" points="
  219.866,1119.82 245.461,1119.82 
  "/>
<polyline clip-path="url(#clip130)" style="stroke:#000000; stroke-width:4; stroke-opacity:1; fill:none" points="
  219.866,853.253 245.461,853.253 
  "/>
<polyline clip-path="url(#clip130)" style="stroke:#000000; stroke-width:4; stroke-opacity:1; fill:none" points="
  219.866,586.682 245.461,586.682 
  "/>
<polyline clip-path="url(#clip130)" style="stroke:#000000; stroke-width:4; stroke-opacity:1; fill:none" points="
  219.866,320.111 245.461,320.111 
  "/>
<path clip-path="url(#clip130)" d="M 0 0 M126.691 1372.19 Q123.08 1372.19 121.251 1375.76 Q119.445 1379.3 119.445 1386.43 Q119.445 1393.54 121.251 1397.1 Q123.08 1400.64 126.691 1400.64 Q130.325 1400.64 132.13 1397.1 Q133.959 1393.54 133.959 1386.43 Q133.959 1379.3 132.13 1375.76 Q130.325 1372.19 126.691 1372.19 M126.691 1368.49 Q132.501 1368.49 135.556 1373.1 Q138.635 1377.68 138.635 1386.43 Q138.635 1395.16 135.556 1399.76 Q132.501 1404.35 126.691 1404.35 Q120.88 1404.35 117.802 1399.76 Q114.746 1395.16 114.746 1386.43 Q114.746 1377.68 117.802 1373.1 Q120.88 1368.49 126.691 1368.49 Z" fill="#000000" fill-rule="evenodd" fill-opacity="1" /><path clip-path="url(#clip130)" d="M 0 0 M146.853 1397.8 L151.737 1397.8 L151.737 1403.68 L146.853 1403.68 L146.853 1397.8 Z" fill="#000000" fill-rule="evenodd" fill-opacity="1" /><path clip-path="url(#clip130)" d="M 0 0 M171.922 1372.19 Q168.311 1372.19 166.482 1375.76 Q164.677 1379.3 164.677 1386.43 Q164.677 1393.54 166.482 1397.1 Q168.311 1400.64 171.922 1400.64 Q175.556 1400.64 177.362 1397.1 Q179.19 1393.54 179.19 1386.43 Q179.19 1379.3 177.362 1375.76 Q175.556 1372.19 171.922 1372.19 M171.922 1368.49 Q177.732 1368.49 180.788 1373.1 Q183.866 1377.68 183.866 1386.43 Q183.866 1395.16 180.788 1399.76 Q177.732 1404.35 171.922 1404.35 Q166.112 1404.35 163.033 1399.76 Q159.978 1395.16 159.978 1386.43 Q159.978 1377.68 163.033 1373.1 Q166.112 1368.49 171.922 1368.49 Z" fill="#000000" fill-rule="evenodd" fill-opacity="1" /><path clip-path="url(#clip130)" d="M 0 0 M128.288 1105.62 Q124.677 1105.62 122.848 1109.19 Q121.043 1112.73 121.043 1119.86 Q121.043 1126.97 122.848 1130.53 Q124.677 1134.07 128.288 1134.07 Q131.922 1134.07 133.728 1130.53 Q135.556 1126.97 135.556 1119.86 Q135.556 1112.73 133.728 1109.19 Q131.922 1105.62 128.288 1105.62 M128.288 1101.92 Q134.098 1101.92 137.154 1106.53 Q140.232 1111.11 140.232 1119.86 Q140.232 1128.59 137.154 1133.19 Q134.098 1137.78 128.288 1137.78 Q122.478 1137.78 119.399 1133.19 Q116.343 1128.59 116.343 1119.86 Q116.343 1111.11 119.399 1106.53 Q122.478 1101.92 128.288 1101.92 Z" fill="#000000" fill-rule="evenodd" fill-opacity="1" /><path clip-path="url(#clip130)" d="M 0 0 M148.45 1131.22 L153.334 1131.22 L153.334 1137.1 L148.45 1137.1 L148.45 1131.22 Z" fill="#000000" fill-rule="evenodd" fill-opacity="1" /><path clip-path="url(#clip130)" d="M 0 0 M167.547 1133.17 L183.866 1133.17 L183.866 1137.1 L161.922 1137.1 L161.922 1133.17 Q164.584 1130.41 169.167 1125.79 Q173.774 1121.13 174.954 1119.79 Q177.2 1117.27 178.079 1115.53 Q178.982 1113.77 178.982 1112.08 Q178.982 1109.33 177.038 1107.59 Q175.116 1105.85 172.014 1105.85 Q169.815 1105.85 167.362 1106.62 Q164.931 1107.38 162.153 1108.93 L162.153 1104.21 Q164.977 1103.08 167.431 1102.5 Q169.885 1101.92 171.922 1101.92 Q177.292 1101.92 180.487 1104.6 Q183.681 1107.29 183.681 1111.78 Q183.681 1113.91 182.871 1115.83 Q182.084 1117.73 179.977 1120.32 Q179.399 1120.99 176.297 1124.21 Q173.195 1127.41 167.547 1133.17 Z" fill="#000000" fill-rule="evenodd" fill-opacity="1" /><path clip-path="url(#clip130)" d="M 0 0 M126.205 839.052 Q122.593 839.052 120.765 842.617 Q118.959 846.158 118.959 853.288 Q118.959 860.394 120.765 863.959 Q122.593 867.501 126.205 867.501 Q129.839 867.501 131.644 863.959 Q133.473 860.394 133.473 853.288 Q133.473 846.158 131.644 842.617 Q129.839 839.052 126.205 839.052 M126.205 835.348 Q132.015 835.348 135.07 839.955 Q138.149 844.538 138.149 853.288 Q138.149 862.015 135.07 866.621 Q132.015 871.204 126.205 871.204 Q120.394 871.204 117.316 866.621 Q114.26 862.015 114.26 853.288 Q114.26 844.538 117.316 839.955 Q120.394 835.348 126.205 835.348 Z" fill="#000000" fill-rule="evenodd" fill-opacity="1" /><path clip-path="url(#clip130)" d="M 0 0 M146.366 864.654 L151.251 864.654 L151.251 870.533 L146.366 870.533 L146.366 864.654 Z" fill="#000000" fill-rule="evenodd" fill-opacity="1" /><path clip-path="url(#clip130)" d="M 0 0 M174.283 840.047 L162.477 858.496 L174.283 858.496 L174.283 840.047 M173.056 835.973 L178.936 835.973 L178.936 858.496 L183.866 858.496 L183.866 862.385 L178.936 862.385 L178.936 870.533 L174.283 870.533 L174.283 862.385 L158.681 862.385 L158.681 857.871 L173.056 835.973 Z" fill="#000000" fill-rule="evenodd" fill-opacity="1" /><path clip-path="url(#clip130)" d="M 0 0 M126.529 572.481 Q122.918 572.481 121.089 576.045 Q119.283 579.587 119.283 586.717 Q119.283 593.823 121.089 597.388 Q122.918 600.93 126.529 600.93 Q130.163 600.93 131.968 597.388 Q133.797 593.823 133.797 586.717 Q133.797 579.587 131.968 576.045 Q130.163 572.481 126.529 572.481 M126.529 568.777 Q132.339 568.777 135.394 573.383 Q138.473 577.967 138.473 586.717 Q138.473 595.443 135.394 600.05 Q132.339 604.633 126.529 604.633 Q120.718 604.633 117.64 600.05 Q114.584 595.443 114.584 586.717 Q114.584 577.967 117.64 573.383 Q120.718 568.777 126.529 568.777 Z" fill="#000000" fill-rule="evenodd" fill-opacity="1" /><path clip-path="url(#clip130)" d="M 0 0 M146.691 598.082 L151.575 598.082 L151.575 603.962 L146.691 603.962 L146.691 598.082 Z" fill="#000000" fill-rule="evenodd" fill-opacity="1" /><path clip-path="url(#clip130)" d="M 0 0 M172.339 584.819 Q169.19 584.819 167.339 586.971 Q165.51 589.124 165.51 592.874 Q165.51 596.601 167.339 598.777 Q169.19 600.93 172.339 600.93 Q175.487 600.93 177.315 598.777 Q179.167 596.601 179.167 592.874 Q179.167 589.124 177.315 586.971 Q175.487 584.819 172.339 584.819 M181.621 570.166 L181.621 574.425 Q179.862 573.592 178.056 573.152 Q176.274 572.712 174.514 572.712 Q169.885 572.712 167.431 575.837 Q165.001 578.962 164.653 585.281 Q166.019 583.268 168.079 582.203 Q170.139 581.115 172.616 581.115 Q177.825 581.115 180.834 584.286 Q183.866 587.434 183.866 592.874 Q183.866 598.198 180.718 601.416 Q177.57 604.633 172.339 604.633 Q166.343 604.633 163.172 600.05 Q160.001 595.443 160.001 586.717 Q160.001 578.522 163.89 573.661 Q167.778 568.777 174.329 568.777 Q176.089 568.777 177.871 569.124 Q179.676 569.471 181.621 570.166 Z" fill="#000000" fill-rule="evenodd" fill-opacity="1" /><path clip-path="url(#clip130)" d="M 0 0 M126.783 305.909 Q123.172 305.909 121.343 309.474 Q119.538 313.016 119.538 320.145 Q119.538 327.252 121.343 330.817 Q123.172 334.358 126.783 334.358 Q130.417 334.358 132.223 330.817 Q134.052 327.252 134.052 320.145 Q134.052 313.016 132.223 309.474 Q130.417 305.909 126.783 305.909 M126.783 302.206 Q132.593 302.206 135.649 306.812 Q138.728 311.395 138.728 320.145 Q138.728 328.872 135.649 333.479 Q132.593 338.062 126.783 338.062 Q120.973 338.062 117.894 333.479 Q114.839 328.872 114.839 320.145 Q114.839 311.395 117.894 306.812 Q120.973 302.206 126.783 302.206 Z" fill="#000000" fill-rule="evenodd" fill-opacity="1" /><path clip-path="url(#clip130)" d="M 0 0 M146.945 331.511 L151.829 331.511 L151.829 337.391 L146.945 337.391 L146.945 331.511 Z" fill="#000000" fill-rule="evenodd" fill-opacity="1" /><path clip-path="url(#clip130)" d="M 0 0 M172.014 320.979 Q168.681 320.979 166.76 322.761 Q164.862 324.544 164.862 327.668 Q164.862 330.793 166.76 332.576 Q168.681 334.358 172.014 334.358 Q175.348 334.358 177.269 332.576 Q179.19 330.77 179.19 327.668 Q179.19 324.544 177.269 322.761 Q175.371 320.979 172.014 320.979 M167.339 318.988 Q164.329 318.247 162.64 316.187 Q160.973 314.127 160.973 311.164 Q160.973 307.02 163.913 304.613 Q166.876 302.206 172.014 302.206 Q177.176 302.206 180.116 304.613 Q183.056 307.02 183.056 311.164 Q183.056 314.127 181.366 316.187 Q179.7 318.247 176.714 318.988 Q180.093 319.775 181.968 322.067 Q183.866 324.358 183.866 327.668 Q183.866 332.692 180.788 335.377 Q177.732 338.062 172.014 338.062 Q166.297 338.062 163.218 335.377 Q160.163 332.692 160.163 327.668 Q160.163 324.358 162.061 322.067 Q163.959 319.775 167.339 318.988 M165.626 311.604 Q165.626 314.289 167.292 315.794 Q168.982 317.298 172.014 317.298 Q175.024 317.298 176.714 315.794 Q178.426 314.289 178.426 311.604 Q178.426 308.919 176.714 307.414 Q175.024 305.909 172.014 305.909 Q168.982 305.909 167.292 307.414 Q165.626 308.919 165.626 311.604 Z" fill="#000000" fill-rule="evenodd" fill-opacity="1" /><path clip-path="url(#clip130)" d="M 0 0 M16.4842 866.504 L16.4842 859.597 L36.0269 846.42 L16.4842 833.339 L16.4842 826.432 L41.3741 843.237 L64.0042 843.237 L64.0042 849.699 L41.3741 849.699 L16.4842 866.504 Z" fill="#000000" fill-rule="evenodd" fill-opacity="1" /><path clip-path="url(#clip130)" d="M 0 0 M43.5384 831.111 L43.5384 813.955 L48.7583 813.955 L48.7583 831.111 L43.5384 831.111 Z" fill="#000000" fill-rule="evenodd" fill-opacity="1" /><path clip-path="url(#clip130)" d="M 0 0 M22.818 789.925 L46.4666 798.646 L46.4666 781.172 L22.818 789.925 M16.4842 793.553 L16.4842 786.264 L64.0042 768.154 L64.0042 774.838 L51.8138 779.167 L51.8138 800.587 L64.0042 804.916 L64.0042 811.695 L16.4842 793.553 Z" fill="#000000" fill-rule="evenodd" fill-opacity="1" /><path clip-path="url(#clip130)" d="M 0 0 M28.3562 731.837 L45.7028 744.728 L64.0042 731.169 L64.0042 738.076 L49.9996 748.452 L64.0042 758.828 L64.0042 765.735 L45.3526 751.889 L28.3562 764.557 L28.3562 757.65 L41.0558 748.197 L28.3562 738.744 L28.3562 731.837 Z" fill="#000000" fill-rule="evenodd" fill-opacity="1" /><path clip-path="url(#clip130)" d="M 0 0 M28.3562 722.894 L28.3562 717.037 L64.0042 717.037 L64.0042 722.894 L28.3562 722.894 M14.479 722.894 L14.479 717.037 L21.895 717.037 L21.895 722.894 L14.479 722.894 Z" fill="#000000" fill-rule="evenodd" fill-opacity="1" /><path clip-path="url(#clip130)" d="M 0 0 M29.4065 682.058 L34.9447 682.058 Q33.6716 684.54 33.035 687.214 Q32.3984 689.887 32.3984 692.752 Q32.3984 697.113 33.7352 699.309 Q35.072 701.473 37.7456 701.473 Q39.7826 701.473 40.9603 699.913 Q42.1061 698.354 43.1565 693.643 L43.6021 691.638 Q44.9389 685.4 47.3897 682.79 Q49.8086 680.148 54.1691 680.148 Q59.1344 680.148 62.0308 684.095 Q64.9272 688.01 64.9272 694.885 Q64.9272 697.749 64.3543 700.868 Q63.8132 703.956 62.6992 707.393 L56.6518 707.393 Q58.3387 704.147 59.198 700.996 Q60.0256 697.845 60.0256 694.757 Q60.0256 690.62 58.6251 688.392 Q57.1929 686.164 54.6147 686.164 Q52.2276 686.164 50.9545 687.787 Q49.6813 689.378 48.5037 694.821 L48.0262 696.858 Q46.8804 702.301 44.5251 704.72 Q42.138 707.139 38.0002 707.139 Q32.9713 707.139 30.2341 703.574 Q27.4968 700.009 27.4968 693.452 Q27.4968 690.206 27.9743 687.341 Q28.4517 684.477 29.4065 682.058 Z" fill="#000000" fill-rule="evenodd" fill-opacity="1" /><path clip-path="url(#clip130)" d="M 0 0 M1135.94 43.6931 L1135.94 65.8515 L1149.07 65.8515 Q1155.67 65.8515 1158.83 63.1374 Q1162.03 60.3828 1162.03 54.752 Q1162.03 49.0808 1158.83 46.4072 Q1155.67 43.6931 1149.07 43.6931 L1135.94 43.6931 M1135.94 18.8205 L1135.94 37.0496 L1148.05 37.0496 Q1154.05 37.0496 1156.97 34.8216 Q1159.92 32.5531 1159.92 27.935 Q1159.92 23.3575 1156.97 21.089 Q1154.05 18.8205 1148.05 18.8205 L1135.94 18.8205 M1127.76 12.096 L1148.66 12.096 Q1158.02 12.096 1163.08 15.9849 Q1168.15 19.8737 1168.15 27.0438 Q1168.15 32.5936 1165.55 35.8748 Q1162.96 39.156 1157.94 39.9662 Q1163.97 41.2625 1167.3 45.3944 Q1170.66 49.4858 1170.66 55.6432 Q1170.66 63.745 1165.15 68.1605 Q1159.64 72.576 1149.47 72.576 L1127.76 72.576 L1127.76 12.096 Z" fill="#000000" fill-rule="evenodd" fill-opacity="1" /><path clip-path="url(#clip130)" d="M 0 0 M1204.97 49.7694 Q1195.94 49.7694 1192.45 51.8354 Q1188.97 53.9013 1188.97 58.8839 Q1188.97 62.8538 1191.56 65.2034 Q1194.19 67.5124 1198.69 67.5124 Q1204.89 67.5124 1208.61 63.1374 Q1212.38 58.7219 1212.38 51.4303 L1212.38 49.7694 L1204.97 49.7694 M1219.84 46.6907 L1219.84 72.576 L1212.38 72.576 L1212.38 65.6895 Q1209.83 69.8214 1206.02 71.8063 Q1202.21 73.7508 1196.71 73.7508 Q1189.74 73.7508 1185.61 69.8619 Q1181.51 65.9325 1181.51 59.3701 Q1181.51 51.7138 1186.62 47.825 Q1191.76 43.9361 1201.93 43.9361 L1212.38 43.9361 L1212.38 43.2069 Q1212.38 38.0623 1208.98 35.2672 Q1205.62 32.4315 1199.5 32.4315 Q1195.61 32.4315 1191.93 33.3632 Q1188.24 34.295 1184.84 36.1584 L1184.84 29.2718 Q1188.93 27.692 1192.78 26.9223 Q1196.62 26.1121 1200.27 26.1121 Q1210.11 26.1121 1214.97 31.2163 Q1219.84 36.3204 1219.84 46.6907 Z" fill="#000000" fill-rule="evenodd" fill-opacity="1" /><path clip-path="url(#clip130)" d="M 0 0 M1261.48 34.1734 Q1260.22 33.4443 1258.72 33.1202 Q1257.27 32.7556 1255.48 32.7556 Q1249.16 32.7556 1245.76 36.8875 Q1242.4 40.9789 1242.4 48.6757 L1242.4 72.576 L1234.91 72.576 L1234.91 27.2059 L1242.4 27.2059 L1242.4 34.2544 Q1244.75 30.1225 1248.52 28.1376 Q1252.28 26.1121 1257.67 26.1121 Q1258.44 26.1121 1259.37 26.2337 Q1260.3 26.3147 1261.44 26.5172 L1261.48 34.1734 Z" fill="#000000" fill-rule="evenodd" fill-opacity="1" /><path clip-path="url(#clip130)" d="M 0 0 M1302.88 65.7705 L1302.88 89.8329 L1295.39 89.8329 L1295.39 27.2059 L1302.88 27.2059 L1302.88 34.0924 Q1305.23 30.0415 1308.79 28.0971 Q1312.4 26.1121 1317.38 26.1121 Q1325.65 26.1121 1330.79 32.6746 Q1335.98 39.2371 1335.98 49.9314 Q1335.98 60.6258 1330.79 67.1883 Q1325.65 73.7508 1317.38 73.7508 Q1312.4 73.7508 1308.79 71.8063 Q1305.23 69.8214 1302.88 65.7705 M1328.24 49.9314 Q1328.24 41.7081 1324.84 37.0496 Q1321.47 32.3505 1315.56 32.3505 Q1309.64 32.3505 1306.24 37.0496 Q1302.88 41.7081 1302.88 49.9314 Q1302.88 58.1548 1306.24 62.8538 Q1309.64 67.5124 1315.56 67.5124 Q1321.47 67.5124 1324.84 62.8538 Q1328.24 58.1548 1328.24 49.9314 Z" fill="#000000" fill-rule="evenodd" fill-opacity="1" /><path clip-path="url(#clip130)" d="M 0 0 M1348.33 9.54393 L1355.78 9.54393 L1355.78 72.576 L1348.33 72.576 L1348.33 9.54393 Z" fill="#000000" fill-rule="evenodd" fill-opacity="1" /><path clip-path="url(#clip130)" d="M 0 0 M1388.96 32.4315 Q1382.97 32.4315 1379.48 37.1306 Q1376 41.7891 1376 49.9314 Q1376 58.0738 1379.44 62.7728 Q1382.93 67.4314 1388.96 67.4314 Q1394.92 67.4314 1398.4 62.7323 Q1401.88 58.0333 1401.88 49.9314 Q1401.88 41.8701 1398.4 37.1711 Q1394.92 32.4315 1388.96 32.4315 M1388.96 26.1121 Q1398.68 26.1121 1404.23 32.4315 Q1409.78 38.7509 1409.78 49.9314 Q1409.78 61.0714 1404.23 67.4314 Q1398.68 73.7508 1388.96 73.7508 Q1379.2 73.7508 1373.65 67.4314 Q1368.14 61.0714 1368.14 49.9314 Q1368.14 38.7509 1373.65 32.4315 Q1379.2 26.1121 1388.96 26.1121 Z" fill="#000000" fill-rule="evenodd" fill-opacity="1" /><path clip-path="url(#clip130)" d="M 0 0 M1429.51 14.324 L1429.51 27.2059 L1444.86 27.2059 L1444.86 32.9987 L1429.51 32.9987 L1429.51 57.6282 Q1429.51 63.1779 1431.01 64.7578 Q1432.55 66.3376 1437.21 66.3376 L1444.86 66.3376 L1444.86 72.576 L1437.21 72.576 Q1428.58 72.576 1425.3 69.3758 Q1422.02 66.1351 1422.02 57.6282 L1422.02 32.9987 L1416.55 32.9987 L1416.55 27.2059 L1422.02 27.2059 L1422.02 14.324 L1429.51 14.324 Z" fill="#000000" fill-rule="evenodd" fill-opacity="1" /><path clip-path="url(#clip132)" d="
M337.179 587.745 L337.179 1386.4 L439.788 1386.4 L439.788 587.745 L337.179 587.745 L337.179 587.745  Z
  " fill="#ffa500" fill-rule="evenodd" fill-opacity="1"/>
<polyline clip-path="url(#clip132)" style="stroke:#000000; stroke-width:4; stroke-opacity:1; fill:none" points="
  337.179,587.745 337.179,1386.4 439.788,1386.4 439.788,587.745 337.179,587.745 
  "/>
<path clip-path="url(#clip132)" d="
M465.44 439.99 L465.44 1386.4 L568.049 1386.4 L568.049 439.99 L465.44 439.99 L465.44 439.99  Z
  " fill="#ffa500" fill-rule="evenodd" fill-opacity="1"/>
<polyline clip-path="url(#clip132)" style="stroke:#000000; stroke-width:4; stroke-opacity:1; fill:none" points="
  465.44,439.99 465.44,1386.4 568.049,1386.4 568.049,439.99 465.44,439.99 
  "/>
<path clip-path="url(#clip132)" d="
M593.701 1200.37 L593.701 1386.4 L696.31 1386.4 L696.31 1200.37 L593.701 1200.37 L593.701 1200.37  Z
  " fill="#ffa500" fill-rule="evenodd" fill-opacity="1"/>
<polyline clip-path="url(#clip132)" style="stroke:#000000; stroke-width:4; stroke-opacity:1; fill:none" points="
  593.701,1200.37 593.701,1386.4 696.31,1386.4 696.31,1200.37 593.701,1200.37 
  "/>
<path clip-path="url(#clip132)" d="
M721.962 912.214 L721.962 1386.4 L824.571 1386.4 L824.571 912.214 L721.962 912.214 L721.962 912.214  Z
  " fill="#ffa500" fill-rule="evenodd" fill-opacity="1"/>
<polyline clip-path="url(#clip132)" style="stroke:#000000; stroke-width:4; stroke-opacity:1; fill:none" points="
  721.962,912.214 721.962,1386.4 824.571,1386.4 824.571,912.214 721.962,912.214 
  "/>
<path clip-path="url(#clip132)" d="
M850.223 1087.24 L850.223 1386.4 L952.832 1386.4 L952.832 1087.24 L850.223 1087.24 L850.223 1087.24  Z
  " fill="#ffa500" fill-rule="evenodd" fill-opacity="1"/>
<polyline clip-path="url(#clip132)" style="stroke:#000000; stroke-width:4; stroke-opacity:1; fill:none" points="
  850.223,1087.24 850.223,1386.4 952.832,1386.4 952.832,1087.24 850.223,1087.24 
  "/>
<path clip-path="url(#clip132)" d="
M978.484 377.776 L978.484 1386.4 L1081.09 1386.4 L1081.09 377.776 L978.484 377.776 L978.484 377.776  Z
  " fill="#ffa500" fill-rule="evenodd" fill-opacity="1"/>
<polyline clip-path="url(#clip132)" style="stroke:#000000; stroke-width:4; stroke-opacity:1; fill:none" points="
  978.484,377.776 978.484,1386.4 1081.09,1386.4 1081.09,377.776 978.484,377.776 
  "/>
<path clip-path="url(#clip132)" d="
M1106.75 853.061 L1106.75 1386.4 L1209.35 1386.4 L1209.35 853.061 L1106.75 853.061 L1106.75 853.061  Z
  " fill="#ffa500" fill-rule="evenodd" fill-opacity="1"/>
<polyline clip-path="url(#clip132)" style="stroke:#000000; stroke-width:4; stroke-opacity:1; fill:none" points="
  1106.75,853.061 1106.75,1386.4 1209.35,1386.4 1209.35,853.061 1106.75,853.061 
  "/>
<path clip-path="url(#clip132)" d="
M1235.01 1144.24 L1235.01 1386.4 L1337.62 1386.4 L1337.62 1144.24 L1235.01 1144.24 L1235.01 1144.24  Z
  " fill="#ffa500" fill-rule="evenodd" fill-opacity="1"/>
<polyline clip-path="url(#clip132)" style="stroke:#000000; stroke-width:4; stroke-opacity:1; fill:none" points="
  1235.01,1144.24 1235.01,1386.4 1337.62,1386.4 1337.62,1144.24 1235.01,1144.24 
  "/>
<path clip-path="url(#clip132)" d="
M1363.27 1223.64 L1363.27 1386.4 L1465.88 1386.4 L1465.88 1223.64 L1363.27 1223.64 L1363.27 1223.64  Z
  " fill="#ffa500" fill-rule="evenodd" fill-opacity="1"/>
<polyline clip-path="url(#clip132)" style="stroke:#000000; stroke-width:4; stroke-opacity:1; fill:none" points="
  1363.27,1223.64 1363.27,1386.4 1465.88,1386.4 1465.88,1223.64 1363.27,1223.64 
  "/>
<path clip-path="url(#clip132)" d="
M1491.53 939.624 L1491.53 1386.4 L1594.14 1386.4 L1594.14 939.624 L1491.53 939.624 L1491.53 939.624  Z
  " fill="#ffa500" fill-rule="evenodd" fill-opacity="1"/>
<polyline clip-path="url(#clip132)" style="stroke:#000000; stroke-width:4; stroke-opacity:1; fill:none" points="
  1491.53,939.624 1491.53,1386.4 1594.14,1386.4 1594.14,939.624 1491.53,939.624 
  "/>
<path clip-path="url(#clip132)" d="
M1619.79 1216.97 L1619.79 1386.4 L1722.4 1386.4 L1722.4 1216.97 L1619.79 1216.97 L1619.79 1216.97  Z
  " fill="#ffa500" fill-rule="evenodd" fill-opacity="1"/>
<polyline clip-path="url(#clip132)" style="stroke:#000000; stroke-width:4; stroke-opacity:1; fill:none" points="
  1619.79,1216.97 1619.79,1386.4 1722.4,1386.4 1722.4,1216.97 1619.79,1216.97 
  "/>
<path clip-path="url(#clip132)" d="
M1748.05 881.825 L1748.05 1386.4 L1850.66 1386.4 L1850.66 881.825 L1748.05 881.825 L1748.05 881.825  Z
  " fill="#ffa500" fill-rule="evenodd" fill-opacity="1"/>
<polyline clip-path="url(#clip132)" style="stroke:#000000; stroke-width:4; stroke-opacity:1; fill:none" points="
  1748.05,881.825 1748.05,1386.4 1850.66,1386.4 1850.66,881.825 1748.05,881.825 
  "/>
<path clip-path="url(#clip132)" d="
M1876.31 225.976 L1876.31 1386.4 L1978.92 1386.4 L1978.92 225.976 L1876.31 225.976 L1876.31 225.976  Z
  " fill="#ffa500" fill-rule="evenodd" fill-opacity="1"/>
<polyline clip-path="url(#clip132)" style="stroke:#000000; stroke-width:4; stroke-opacity:1; fill:none" points="
  1876.31,225.976 1876.31,1386.4 1978.92,1386.4 1978.92,225.976 1876.31,225.976 
  "/>
<path clip-path="url(#clip132)" d="
M2004.57 160.256 L2004.57 1386.4 L2107.18 1386.4 L2107.18 160.256 L2004.57 160.256 L2004.57 160.256  Z
  " fill="#ffa500" fill-rule="evenodd" fill-opacity="1"/>
<polyline clip-path="url(#clip132)" style="stroke:#000000; stroke-width:4; stroke-opacity:1; fill:none" points="
  2004.57,160.256 2004.57,1386.4 2107.18,1386.4 2107.18,160.256 2004.57,160.256 
  "/>
<path clip-path="url(#clip132)" d="
M2132.83 1165.5 L2132.83 1386.4 L2235.44 1386.4 L2235.44 1165.5 L2132.83 1165.5 L2132.83 1165.5  Z
  " fill="#ffa500" fill-rule="evenodd" fill-opacity="1"/>
<polyline clip-path="url(#clip132)" style="stroke:#000000; stroke-width:4; stroke-opacity:1; fill:none" points="
  2132.83,1165.5 2132.83,1386.4 2235.44,1386.4 2235.44,1165.5 2132.83,1165.5 
  "/>
<path clip-path="url(#clip130)" d="
M1992.24 287.756 L2281.66 287.756 L2281.66 166.796 L1992.24 166.796  Z
  " fill="#ffffff" fill-rule="evenodd" fill-opacity="1"/>
<polyline clip-path="url(#clip130)" style="stroke:#000000; stroke-width:4; stroke-opacity:1; fill:none" points="
  1992.24,287.756 2281.66,287.756 2281.66,166.796 1992.24,166.796 1992.24,287.756 
  "/>
<path clip-path="url(#clip130)" d="
M2015.94 251.468 L2158.13 251.468 L2158.13 203.084 L2015.94 203.084 L2015.94 251.468  Z
  " fill="#ffa500" fill-rule="evenodd" fill-opacity="1"/>
<polyline clip-path="url(#clip130)" style="stroke:#000000; stroke-width:4; stroke-opacity:1; fill:none" points="
  2015.94,251.468 2158.13,251.468 2158.13,203.084 2015.94,203.084 2015.94,251.468 
  "/>
<path clip-path="url(#clip130)" d="M 0 0 M2195.67 246.963 Q2193.87 251.593 2192.16 253.005 Q2190.44 254.417 2187.57 254.417 L2184.17 254.417 L2184.17 250.852 L2186.67 250.852 Q2188.43 250.852 2189.4 250.019 Q2190.37 249.185 2191.55 246.083 L2192.32 244.139 L2181.83 218.63 L2186.35 218.63 L2194.45 238.908 L2202.55 218.63 L2207.06 218.63 L2195.67 246.963 Z" fill="#000000" fill-rule="evenodd" fill-opacity="1" /><path clip-path="url(#clip130)" d="M 0 0 M2214.35 240.621 L2221.99 240.621 L2221.99 214.255 L2213.68 215.922 L2213.68 211.662 L2221.95 209.996 L2226.62 209.996 L2226.62 240.621 L2234.26 240.621 L2234.26 244.556 L2214.35 244.556 L2214.35 240.621 Z" fill="#000000" fill-rule="evenodd" fill-opacity="1" /></svg>
