<?xml version="1.0" encoding="utf-8"?>
<svg xmlns="http://www.w3.org/2000/svg" xmlns:xlink="http://www.w3.org/1999/xlink" width="600" height="400" viewBox="0 0 2400 1600">
<defs>
  <clipPath id="clip930">
    <rect x="0" y="0" width="2400" height="1600"/>
  </clipPath>
</defs>
<path clip-path="url(#clip930)" d="
M0 1600 L2400 1600 L2400 0 L0 0  Z
  " fill="#ffffff" fill-rule="evenodd" fill-opacity="1"/>
<defs>
  <clipPath id="clip931">
    <rect x="480" y="0" width="1681" height="1600"/>
  </clipPath>
</defs>
<path clip-path="url(#clip930)" d="
M156.598 1486.45 L2352.76 1486.45 L2352.76 47.2441 L156.598 47.2441  Z
  " fill="#ffffff" fill-rule="evenodd" fill-opacity="1"/>
<defs>
  <clipPath id="clip932">
    <rect x="156" y="47" width="2197" height="1440"/>
  </clipPath>
</defs>
<polyline clip-path="url(#clip932)" style="stroke:#000000; stroke-width:2; stroke-opacity:0.1; fill:none" points="
  366.743,1486.45 366.743,47.2441 
  "/>
<polyline clip-path="url(#clip932)" style="stroke:#000000; stroke-width:2; stroke-opacity:0.1; fill:none" points="
  662.721,1486.45 662.721,47.2441 
  "/>
<polyline clip-path="url(#clip932)" style="stroke:#000000; stroke-width:2; stroke-opacity:0.1; fill:none" points="
  958.699,1486.45 958.699,47.2441 
  "/>
<polyline clip-path="url(#clip932)" style="stroke:#000000; stroke-width:2; stroke-opacity:0.1; fill:none" points="
  1254.68,1486.45 1254.68,47.2441 
  "/>
<polyline clip-path="url(#clip932)" style="stroke:#000000; stroke-width:2; stroke-opacity:0.1; fill:none" points="
  1550.66,1486.45 1550.66,47.2441 
  "/>
<polyline clip-path="url(#clip932)" style="stroke:#000000; stroke-width:2; stroke-opacity:0.1; fill:none" points="
  1846.63,1486.45 1846.63,47.2441 
  "/>
<polyline clip-path="url(#clip932)" style="stroke:#000000; stroke-width:2; stroke-opacity:0.1; fill:none" points="
  2142.61,1486.45 2142.61,47.2441 
  "/>
<polyline clip-path="url(#clip930)" style="stroke:#000000; stroke-width:4; stroke-opacity:1; fill:none" points="
  156.598,1486.45 2352.76,1486.45 
  "/>
<polyline clip-path="url(#clip930)" style="stroke:#000000; stroke-width:4; stroke-opacity:1; fill:none" points="
  366.743,1486.45 366.743,1469.18 
  "/>
<polyline clip-path="url(#clip930)" style="stroke:#000000; stroke-width:4; stroke-opacity:1; fill:none" points="
  662.721,1486.45 662.721,1469.18 
  "/>
<polyline clip-path="url(#clip930)" style="stroke:#000000; stroke-width:4; stroke-opacity:1; fill:none" points="
  958.699,1486.45 958.699,1469.18 
  "/>
<polyline clip-path="url(#clip930)" style="stroke:#000000; stroke-width:4; stroke-opacity:1; fill:none" points="
  1254.68,1486.45 1254.68,1469.18 
  "/>
<polyline clip-path="url(#clip930)" style="stroke:#000000; stroke-width:4; stroke-opacity:1; fill:none" points="
  1550.66,1486.45 1550.66,1469.18 
  "/>
<polyline clip-path="url(#clip930)" style="stroke:#000000; stroke-width:4; stroke-opacity:1; fill:none" points="
  1846.63,1486.45 1846.63,1469.18 
  "/>
<polyline clip-path="url(#clip930)" style="stroke:#000000; stroke-width:4; stroke-opacity:1; fill:none" points="
  2142.61,1486.45 2142.61,1469.18 
  "/>
<path clip-path="url(#clip930)" d="M 0 0 M361.396 1543.18 L377.715 1543.18 L377.715 1547.12 L355.771 1547.12 L355.771 1543.18 Q358.433 1540.43 363.016 1535.8 Q367.622 1531.15 368.803 1529.81 Q371.048 1527.28 371.928 1525.55 Q372.831 1523.79 372.831 1522.1 Q372.831 1519.34 370.886 1517.61 Q368.965 1515.87 365.863 1515.87 Q363.664 1515.87 361.21 1516.63 Q358.78 1517.4 356.002 1518.95 L356.002 1514.23 Q358.826 1513.09 361.28 1512.51 Q363.733 1511.93 365.77 1511.93 Q371.141 1511.93 374.335 1514.62 Q377.53 1517.31 377.53 1521.8 Q377.53 1523.93 376.72 1525.85 Q375.932 1527.74 373.826 1530.34 Q373.247 1531.01 370.145 1534.23 Q367.044 1537.42 361.396 1543.18 Z" fill="#000000" fill-rule="evenodd" fill-opacity="1" /><path clip-path="url(#clip930)" d="M 0 0 M665.73 1516.63 L653.925 1535.08 L665.73 1535.08 L665.73 1516.63 M664.503 1512.56 L670.383 1512.56 L670.383 1535.08 L675.313 1535.08 L675.313 1538.97 L670.383 1538.97 L670.383 1547.12 L665.73 1547.12 L665.73 1538.97 L650.128 1538.97 L650.128 1534.46 L664.503 1512.56 Z" fill="#000000" fill-rule="evenodd" fill-opacity="1" /><path clip-path="url(#clip930)" d="M 0 0 M959.104 1527.98 Q955.956 1527.98 954.104 1530.13 Q952.275 1532.28 952.275 1536.03 Q952.275 1539.76 954.104 1541.93 Q955.956 1544.09 959.104 1544.09 Q962.252 1544.09 964.081 1541.93 Q965.933 1539.76 965.933 1536.03 Q965.933 1532.28 964.081 1530.13 Q962.252 1527.98 959.104 1527.98 M968.386 1513.32 L968.386 1517.58 Q966.627 1516.75 964.822 1516.31 Q963.039 1515.87 961.28 1515.87 Q956.65 1515.87 954.197 1519 Q951.766 1522.12 951.419 1528.44 Q952.785 1526.43 954.845 1525.36 Q956.905 1524.27 959.382 1524.27 Q964.59 1524.27 967.599 1527.44 Q970.632 1530.59 970.632 1536.03 Q970.632 1541.36 967.484 1544.57 Q964.335 1547.79 959.104 1547.79 Q953.109 1547.79 949.937 1543.21 Q946.766 1538.6 946.766 1529.87 Q946.766 1521.68 950.655 1516.82 Q954.544 1511.93 961.095 1511.93 Q962.854 1511.93 964.636 1512.28 Q966.442 1512.63 968.386 1513.32 Z" fill="#000000" fill-rule="evenodd" fill-opacity="1" /><path clip-path="url(#clip930)" d="M 0 0 M1254.68 1530.71 Q1251.34 1530.71 1249.42 1532.49 Q1247.52 1534.27 1247.52 1537.4 Q1247.52 1540.52 1249.42 1542.31 Q1251.34 1544.09 1254.68 1544.09 Q1258.01 1544.09 1259.93 1542.31 Q1261.85 1540.5 1261.85 1537.4 Q1261.85 1534.27 1259.93 1532.49 Q1258.03 1530.71 1254.68 1530.71 M1250 1528.72 Q1246.99 1527.98 1245.3 1525.92 Q1243.64 1523.86 1243.64 1520.89 Q1243.64 1516.75 1246.58 1514.34 Q1249.54 1511.93 1254.68 1511.93 Q1259.84 1511.93 1262.78 1514.34 Q1265.72 1516.75 1265.72 1520.89 Q1265.72 1523.86 1264.03 1525.92 Q1262.36 1527.98 1259.38 1528.72 Q1262.76 1529.5 1264.63 1531.8 Q1266.53 1534.09 1266.53 1537.4 Q1266.53 1542.42 1263.45 1545.11 Q1260.39 1547.79 1254.68 1547.79 Q1248.96 1547.79 1245.88 1545.11 Q1242.83 1542.42 1242.83 1537.4 Q1242.83 1534.09 1244.72 1531.8 Q1246.62 1529.5 1250 1528.72 M1248.29 1521.33 Q1248.29 1524.02 1249.95 1525.52 Q1251.64 1527.03 1254.68 1527.03 Q1257.69 1527.03 1259.38 1525.52 Q1261.09 1524.02 1261.09 1521.33 Q1261.09 1518.65 1259.38 1517.14 Q1257.69 1515.64 1254.68 1515.64 Q1251.64 1515.64 1249.95 1517.14 Q1248.29 1518.65 1248.29 1521.33 Z" fill="#000000" fill-rule="evenodd" fill-opacity="1" /><path clip-path="url(#clip930)" d="M 0 0 M1525.34 1543.18 L1532.98 1543.18 L1532.98 1516.82 L1524.67 1518.49 L1524.67 1514.23 L1532.94 1512.56 L1537.61 1512.56 L1537.61 1543.18 L1545.25 1543.18 L1545.25 1547.12 L1525.34 1547.12 L1525.34 1543.18 Z" fill="#000000" fill-rule="evenodd" fill-opacity="1" /><path clip-path="url(#clip930)" d="M 0 0 M1564.69 1515.64 Q1561.08 1515.64 1559.25 1519.2 Q1557.45 1522.75 1557.45 1529.87 Q1557.45 1536.98 1559.25 1540.55 Q1561.08 1544.09 1564.69 1544.09 Q1568.33 1544.09 1570.13 1540.55 Q1571.96 1536.98 1571.96 1529.87 Q1571.96 1522.75 1570.13 1519.2 Q1568.33 1515.64 1564.69 1515.64 M1564.69 1511.93 Q1570.5 1511.93 1573.56 1516.54 Q1576.64 1521.12 1576.64 1529.87 Q1576.64 1538.6 1573.56 1543.21 Q1570.5 1547.79 1564.69 1547.79 Q1558.88 1547.79 1555.81 1543.21 Q1552.75 1538.6 1552.75 1529.87 Q1552.75 1521.12 1555.81 1516.54 Q1558.88 1511.93 1564.69 1511.93 Z" fill="#000000" fill-rule="evenodd" fill-opacity="1" /><path clip-path="url(#clip930)" d="M 0 0 M1822.12 1543.18 L1829.76 1543.18 L1829.76 1516.82 L1821.45 1518.49 L1821.45 1514.23 L1829.71 1512.56 L1834.39 1512.56 L1834.39 1543.18 L1842.03 1543.18 L1842.03 1547.12 L1822.12 1547.12 L1822.12 1543.18 Z" fill="#000000" fill-rule="evenodd" fill-opacity="1" /><path clip-path="url(#clip930)" d="M 0 0 M1855.5 1543.18 L1871.82 1543.18 L1871.82 1547.12 L1849.87 1547.12 L1849.87 1543.18 Q1852.54 1540.43 1857.12 1535.8 Q1861.73 1531.15 1862.91 1529.81 Q1865.15 1527.28 1866.03 1525.55 Q1866.93 1523.79 1866.93 1522.1 Q1866.93 1519.34 1864.99 1517.61 Q1863.07 1515.87 1859.97 1515.87 Q1857.77 1515.87 1855.31 1516.63 Q1852.88 1517.4 1850.11 1518.95 L1850.11 1514.23 Q1852.93 1513.09 1855.38 1512.51 Q1857.84 1511.93 1859.87 1511.93 Q1865.24 1511.93 1868.44 1514.62 Q1871.63 1517.31 1871.63 1521.8 Q1871.63 1523.93 1870.82 1525.85 Q1870.04 1527.74 1867.93 1530.34 Q1867.35 1531.01 1864.25 1534.23 Q1861.15 1537.42 1855.5 1543.18 Z" fill="#000000" fill-rule="evenodd" fill-opacity="1" /><path clip-path="url(#clip930)" d="M 0 0 M2117.06 1543.18 L2124.69 1543.18 L2124.69 1516.82 L2116.38 1518.49 L2116.38 1514.23 L2124.65 1512.56 L2129.32 1512.56 L2129.32 1543.18 L2136.96 1543.18 L2136.96 1547.12 L2117.06 1547.12 L2117.06 1543.18 Z" fill="#000000" fill-rule="evenodd" fill-opacity="1" /><path clip-path="url(#clip930)" d="M 0 0 M2159.25 1516.63 L2147.45 1535.08 L2159.25 1535.08 L2159.25 1516.63 M2158.03 1512.56 L2163.91 1512.56 L2163.91 1535.08 L2168.84 1535.08 L2168.84 1538.97 L2163.91 1538.97 L2163.91 1547.12 L2159.25 1547.12 L2159.25 1538.97 L2143.65 1538.97 L2143.65 1534.46 L2158.03 1512.56 Z" fill="#000000" fill-rule="evenodd" fill-opacity="1" /><polyline clip-path="url(#clip932)" style="stroke:#000000; stroke-width:2; stroke-opacity:0.1; fill:none" points="
  156.598,1453.59 2352.76,1453.59 
  "/>
<polyline clip-path="url(#clip932)" style="stroke:#000000; stroke-width:2; stroke-opacity:0.1; fill:none" points="
  156.598,1156.69 2352.76,1156.69 
  "/>
<polyline clip-path="url(#clip932)" style="stroke:#000000; stroke-width:2; stroke-opacity:0.1; fill:none" points="
  156.598,859.8 2352.76,859.8 
  "/>
<polyline clip-path="url(#clip932)" style="stroke:#000000; stroke-width:2; stroke-opacity:0.1; fill:none" points="
  156.598,562.907 2352.76,562.907 
  "/>
<polyline clip-path="url(#clip932)" style="stroke:#000000; stroke-width:2; stroke-opacity:0.1; fill:none" points="
  156.598,266.014 2352.76,266.014 
  "/>
<polyline clip-path="url(#clip930)" style="stroke:#000000; stroke-width:4; stroke-opacity:1; fill:none" points="
  156.598,1486.45 156.598,47.2441 
  "/>
<polyline clip-path="url(#clip930)" style="stroke:#000000; stroke-width:4; stroke-opacity:1; fill:none" points="
  156.598,1453.59 182.952,1453.59 
  "/>
<polyline clip-path="url(#clip930)" style="stroke:#000000; stroke-width:4; stroke-opacity:1; fill:none" points="
  156.598,1156.69 182.952,1156.69 
  "/>
<polyline clip-path="url(#clip930)" style="stroke:#000000; stroke-width:4; stroke-opacity:1; fill:none" points="
  156.598,859.8 182.952,859.8 
  "/>
<polyline clip-path="url(#clip930)" style="stroke:#000000; stroke-width:4; stroke-opacity:1; fill:none" points="
  156.598,562.907 182.952,562.907 
  "/>
<polyline clip-path="url(#clip930)" style="stroke:#000000; stroke-width:4; stroke-opacity:1; fill:none" points="
  156.598,266.014 182.952,266.014 
  "/>
<path clip-path="url(#clip930)" d="M 0 0 M63.4226 1439.39 Q59.8115 1439.39 57.9828 1442.95 Q56.1773 1446.49 56.1773 1453.62 Q56.1773 1460.73 57.9828 1464.29 Q59.8115 1467.83 63.4226 1467.83 Q67.0569 1467.83 68.8624 1464.29 Q70.6911 1460.73 70.6911 1453.62 Q70.6911 1446.49 68.8624 1442.95 Q67.0569 1439.39 63.4226 1439.39 M63.4226 1435.68 Q69.2328 1435.68 72.2883 1440.29 Q75.367 1444.87 75.367 1453.62 Q75.367 1462.35 72.2883 1466.95 Q69.2328 1471.54 63.4226 1471.54 Q57.6125 1471.54 54.5338 1466.95 Q51.4782 1462.35 51.4782 1453.62 Q51.4782 1444.87 54.5338 1440.29 Q57.6125 1435.68 63.4226 1435.68 Z" fill="#000000" fill-rule="evenodd" fill-opacity="1" /><path clip-path="url(#clip930)" d="M 0 0 M83.5845 1464.99 L88.4688 1464.99 L88.4688 1470.87 L83.5845 1470.87 L83.5845 1464.99 Z" fill="#000000" fill-rule="evenodd" fill-opacity="1" /><path clip-path="url(#clip930)" d="M 0 0 M108.654 1439.39 Q105.043 1439.39 103.214 1442.95 Q101.409 1446.49 101.409 1453.62 Q101.409 1460.73 103.214 1464.29 Q105.043 1467.83 108.654 1467.83 Q112.288 1467.83 114.094 1464.29 Q115.922 1460.73 115.922 1453.62 Q115.922 1446.49 114.094 1442.95 Q112.288 1439.39 108.654 1439.39 M108.654 1435.68 Q114.464 1435.68 117.52 1440.29 Q120.598 1444.87 120.598 1453.62 Q120.598 1462.35 117.52 1466.95 Q114.464 1471.54 108.654 1471.54 Q102.844 1471.54 99.765 1466.95 Q96.7095 1462.35 96.7095 1453.62 Q96.7095 1444.87 99.765 1440.29 Q102.844 1435.68 108.654 1435.68 Z" fill="#000000" fill-rule="evenodd" fill-opacity="1" /><path clip-path="url(#clip930)" d="M 0 0 M65.0198 1142.49 Q61.4087 1142.49 59.58 1146.06 Q57.7745 1149.6 57.7745 1156.73 Q57.7745 1163.83 59.58 1167.4 Q61.4087 1170.94 65.0198 1170.94 Q68.6541 1170.94 70.4596 1167.4 Q72.2883 1163.83 72.2883 1156.73 Q72.2883 1149.6 70.4596 1146.06 Q68.6541 1142.49 65.0198 1142.49 M65.0198 1138.79 Q70.83 1138.79 73.8855 1143.39 Q76.9642 1147.98 76.9642 1156.73 Q76.9642 1165.45 73.8855 1170.06 Q70.83 1174.64 65.0198 1174.64 Q59.2097 1174.64 56.131 1170.06 Q53.0754 1165.45 53.0754 1156.73 Q53.0754 1147.98 56.131 1143.39 Q59.2097 1138.79 65.0198 1138.79 Z" fill="#000000" fill-rule="evenodd" fill-opacity="1" /><path clip-path="url(#clip930)" d="M 0 0 M85.1818 1168.09 L90.066 1168.09 L90.066 1173.97 L85.1818 1173.97 L85.1818 1168.09 Z" fill="#000000" fill-rule="evenodd" fill-opacity="1" /><path clip-path="url(#clip930)" d="M 0 0 M104.279 1170.04 L120.598 1170.04 L120.598 1173.97 L98.6539 1173.97 L98.6539 1170.04 Q101.316 1167.28 105.899 1162.65 Q110.506 1158 111.686 1156.66 Q113.932 1154.14 114.811 1152.4 Q115.714 1150.64 115.714 1148.95 Q115.714 1146.2 113.77 1144.46 Q111.848 1142.72 108.746 1142.72 Q106.547 1142.72 104.094 1143.49 Q101.663 1144.25 98.8854 1145.8 L98.8854 1141.08 Q101.709 1139.95 104.163 1139.37 Q106.617 1138.79 108.654 1138.79 Q114.024 1138.79 117.219 1141.47 Q120.413 1144.16 120.413 1148.65 Q120.413 1150.78 119.603 1152.7 Q118.816 1154.6 116.709 1157.19 Q116.131 1157.86 113.029 1161.08 Q109.927 1164.27 104.279 1170.04 Z" fill="#000000" fill-rule="evenodd" fill-opacity="1" /><path clip-path="url(#clip930)" d="M 0 0 M62.9365 845.599 Q59.3254 845.599 57.4967 849.164 Q55.6912 852.705 55.6912 859.835 Q55.6912 866.941 57.4967 870.506 Q59.3254 874.048 62.9365 874.048 Q66.5707 874.048 68.3763 870.506 Q70.205 866.941 70.205 859.835 Q70.205 852.705 68.3763 849.164 Q66.5707 845.599 62.9365 845.599 M62.9365 841.895 Q68.7467 841.895 71.8022 846.502 Q74.8809 851.085 74.8809 859.835 Q74.8809 868.562 71.8022 873.168 Q68.7467 877.751 62.9365 877.751 Q57.1264 877.751 54.0477 873.168 Q50.9921 868.562 50.9921 859.835 Q50.9921 851.085 54.0477 846.502 Q57.1264 841.895 62.9365 841.895 Z" fill="#000000" fill-rule="evenodd" fill-opacity="1" /><path clip-path="url(#clip930)" d="M 0 0 M83.0984 871.2 L87.9827 871.2 L87.9827 877.08 L83.0984 877.08 L83.0984 871.2 Z" fill="#000000" fill-rule="evenodd" fill-opacity="1" /><path clip-path="url(#clip930)" d="M 0 0 M111.015 846.594 L99.2095 865.043 L111.015 865.043 L111.015 846.594 M109.788 842.52 L115.668 842.52 L115.668 865.043 L120.598 865.043 L120.598 868.932 L115.668 868.932 L115.668 877.08 L111.015 877.08 L111.015 868.932 L95.4132 868.932 L95.4132 864.418 L109.788 842.52 Z" fill="#000000" fill-rule="evenodd" fill-opacity="1" /><path clip-path="url(#clip930)" d="M 0 0 M63.2606 548.706 Q59.6495 548.706 57.8208 552.27 Q56.0152 555.812 56.0152 562.942 Q56.0152 570.048 57.8208 573.613 Q59.6495 577.154 63.2606 577.154 Q66.8948 577.154 68.7004 573.613 Q70.5291 570.048 70.5291 562.942 Q70.5291 555.812 68.7004 552.27 Q66.8948 548.706 63.2606 548.706 M63.2606 545.002 Q69.0707 545.002 72.1263 549.608 Q75.205 554.192 75.205 562.942 Q75.205 571.668 72.1263 576.275 Q69.0707 580.858 63.2606 580.858 Q57.4504 580.858 54.3717 576.275 Q51.3162 571.668 51.3162 562.942 Q51.3162 554.192 54.3717 549.608 Q57.4504 545.002 63.2606 545.002 Z" fill="#000000" fill-rule="evenodd" fill-opacity="1" /><path clip-path="url(#clip930)" d="M 0 0 M83.4225 574.307 L88.3067 574.307 L88.3067 580.187 L83.4225 580.187 L83.4225 574.307 Z" fill="#000000" fill-rule="evenodd" fill-opacity="1" /><path clip-path="url(#clip930)" d="M 0 0 M109.071 561.043 Q105.922 561.043 104.071 563.196 Q102.242 565.349 102.242 569.099 Q102.242 572.826 104.071 575.002 Q105.922 577.154 109.071 577.154 Q112.219 577.154 114.047 575.002 Q115.899 572.826 115.899 569.099 Q115.899 565.349 114.047 563.196 Q112.219 561.043 109.071 561.043 M118.353 546.391 L118.353 550.65 Q116.594 549.817 114.788 549.377 Q113.006 548.937 111.246 548.937 Q106.617 548.937 104.163 552.062 Q101.733 555.187 101.385 561.506 Q102.751 559.493 104.811 558.428 Q106.871 557.34 109.348 557.34 Q114.557 557.34 117.566 560.511 Q120.598 563.659 120.598 569.099 Q120.598 574.423 117.45 577.641 Q114.302 580.858 109.071 580.858 Q103.075 580.858 99.9039 576.275 Q96.7326 571.668 96.7326 562.942 Q96.7326 554.747 100.621 549.886 Q104.51 545.002 111.061 545.002 Q112.82 545.002 114.603 545.349 Q116.408 545.696 118.353 546.391 Z" fill="#000000" fill-rule="evenodd" fill-opacity="1" /><path clip-path="url(#clip930)" d="M 0 0 M63.5152 251.812 Q59.9041 251.812 58.0754 255.377 Q56.2699 258.919 56.2699 266.048 Q56.2699 273.155 58.0754 276.72 Q59.9041 280.261 63.5152 280.261 Q67.1494 280.261 68.955 276.72 Q70.7837 273.155 70.7837 266.048 Q70.7837 258.919 68.955 255.377 Q67.1494 251.812 63.5152 251.812 M63.5152 248.109 Q69.3254 248.109 72.3809 252.715 Q75.4596 257.299 75.4596 266.048 Q75.4596 274.775 72.3809 279.382 Q69.3254 283.965 63.5152 283.965 Q57.7051 283.965 54.6264 279.382 Q51.5708 274.775 51.5708 266.048 Q51.5708 257.299 54.6264 252.715 Q57.7051 248.109 63.5152 248.109 Z" fill="#000000" fill-rule="evenodd" fill-opacity="1" /><path clip-path="url(#clip930)" d="M 0 0 M83.6771 277.414 L88.5614 277.414 L88.5614 283.294 L83.6771 283.294 L83.6771 277.414 Z" fill="#000000" fill-rule="evenodd" fill-opacity="1" /><path clip-path="url(#clip930)" d="M 0 0 M108.746 266.882 Q105.413 266.882 103.492 268.664 Q101.594 270.447 101.594 273.572 Q101.594 276.697 103.492 278.479 Q105.413 280.261 108.746 280.261 Q112.08 280.261 114.001 278.479 Q115.922 276.673 115.922 273.572 Q115.922 270.447 114.001 268.664 Q112.103 266.882 108.746 266.882 M104.071 264.891 Q101.061 264.15 99.3715 262.09 Q97.7048 260.03 97.7048 257.067 Q97.7048 252.924 100.645 250.516 Q103.608 248.109 108.746 248.109 Q113.908 248.109 116.848 250.516 Q119.788 252.924 119.788 257.067 Q119.788 260.03 118.098 262.09 Q116.432 264.15 113.445 264.891 Q116.825 265.678 118.7 267.97 Q120.598 270.261 120.598 273.572 Q120.598 278.595 117.52 281.28 Q114.464 283.965 108.746 283.965 Q103.029 283.965 99.9502 281.28 Q96.8947 278.595 96.8947 273.572 Q96.8947 270.261 98.7928 267.97 Q100.691 265.678 104.071 264.891 M102.358 257.507 Q102.358 260.192 104.024 261.697 Q105.714 263.201 108.746 263.201 Q111.756 263.201 113.445 261.697 Q115.158 260.192 115.158 257.507 Q115.158 254.822 113.445 253.317 Q111.756 251.812 108.746 251.812 Q105.714 251.812 104.024 253.317 Q102.358 254.822 102.358 257.507 Z" fill="#000000" fill-rule="evenodd" fill-opacity="1" /><polyline clip-path="url(#clip932)" style="stroke:#009af9; stroke-width:4; stroke-opacity:1; fill:none" points="
  218.754,564.091 366.743,399.53 514.732,1246.4 662.721,925.468 810.71,1120.4 958.699,330.239 1106.69,859.586 1254.68,1183.88 1402.67,1272.32 1550.66,955.995 
  1698.64,1264.89 1846.63,891.622 1994.62,161.171 2142.61,87.9763 2290.6,1207.57 
  "/>
<polyline clip-path="url(#clip932)" style="stroke:#e26f46; stroke-width:4; stroke-opacity:1; fill:none" points="
  218.754,877.205 366.743,675.075 514.732,1443.77 662.721,998.019 810.71,741.977 958.699,474.656 1106.69,1444.64 1254.68,1134.83 1402.67,1396.34 1550.66,1123.14 
  1698.64,1129.33 1846.63,1445.72 1994.62,232.133 2142.61,859.77 2290.6,162.996 
  "/>
<path clip-path="url(#clip930)" d="
M1983.1 276.658 L2279.55 276.658 L2279.55 95.2176 L1983.1 95.2176  Z
  " fill="#ffffff" fill-rule="evenodd" fill-opacity="1"/>
<polyline clip-path="url(#clip930)" style="stroke:#000000; stroke-width:4; stroke-opacity:1; fill:none" points="
  1983.1,276.658 2279.55,276.658 2279.55,95.2176 1983.1,95.2176 1983.1,276.658 
  "/>
<polyline clip-path="url(#clip930)" style="stroke:#009af9; stroke-width:4; stroke-opacity:1; fill:none" points="
  2007.5,155.698 2153.92,155.698 
  "/>
<path clip-path="url(#clip930)" d="M 0 0 M2192.16 175.385 Q2190.35 180.015 2188.64 181.427 Q2186.93 182.839 2184.06 182.839 L2180.65 182.839 L2180.65 179.274 L2183.15 179.274 Q2184.91 179.274 2185.89 178.44 Q2186.86 177.607 2188.04 174.505 L2188.8 172.561 L2178.32 147.052 L2182.83 147.052 L2190.93 167.329 L2199.03 147.052 L2203.55 147.052 L2192.16 175.385 Z" fill="#000000" fill-rule="evenodd" fill-opacity="1" /><path clip-path="url(#clip930)" d="M 0 0 M2210.84 169.042 L2218.48 169.042 L2218.48 142.677 L2210.17 144.343 L2210.17 140.084 L2218.43 138.418 L2223.11 138.418 L2223.11 169.042 L2230.75 169.042 L2230.75 172.978 L2210.84 172.978 L2210.84 169.042 Z" fill="#000000" fill-rule="evenodd" fill-opacity="1" /><polyline clip-path="url(#clip930)" style="stroke:#e26f46; stroke-width:4; stroke-opacity:1; fill:none" points="
  2007.5,216.178 2153.92,216.178 
  "/>
<path clip-path="url(#clip930)" d="M 0 0 M2192.16 235.865 Q2190.35 240.495 2188.64 241.907 Q2186.93 243.319 2184.06 243.319 L2180.65 243.319 L2180.65 239.754 L2183.15 239.754 Q2184.91 239.754 2185.89 238.92 Q2186.86 238.087 2188.04 234.985 L2188.8 233.041 L2178.32 207.532 L2182.83 207.532 L2190.93 227.809 L2199.03 207.532 L2203.55 207.532 L2192.16 235.865 Z" fill="#000000" fill-rule="evenodd" fill-opacity="1" /><path clip-path="url(#clip930)" d="M 0 0 M2214.06 229.522 L2230.38 229.522 L2230.38 233.458 L2208.43 233.458 L2208.43 229.522 Q2211.09 226.768 2215.68 222.138 Q2220.28 217.485 2221.46 216.143 Q2223.71 213.62 2224.59 211.884 Q2225.49 210.124 2225.49 208.435 Q2225.49 205.68 2223.55 203.944 Q2221.63 202.208 2218.52 202.208 Q2216.33 202.208 2213.87 202.972 Q2211.44 203.735 2208.66 205.286 L2208.66 200.564 Q2211.49 199.43 2213.94 198.851 Q2216.4 198.273 2218.43 198.273 Q2223.8 198.273 2227 200.958 Q2230.19 203.643 2230.19 208.134 Q2230.19 210.263 2229.38 212.185 Q2228.59 214.083 2226.49 216.675 Q2225.91 217.347 2222.81 220.564 Q2219.71 223.759 2214.06 229.522 Z" fill="#000000" fill-rule="evenodd" fill-opacity="1" /></svg>
