<?xml version="1.0" encoding="utf-8"?>
<svg xmlns="http://www.w3.org/2000/svg" xmlns:xlink="http://www.w3.org/1999/xlink" width="600" height="400" viewBox="0 0 2400 1600">
<defs>
  <clipPath id="clip810">
    <rect x="0" y="0" width="2400" height="1600"/>
  </clipPath>
</defs>
<path clip-path="url(#clip810)" d="
M0 1600 L2400 1600 L2400 0 L0 0  Z
  " fill="#ffffff" fill-rule="evenodd" fill-opacity="1"/>
<defs>
  <clipPath id="clip811">
    <rect x="480" y="0" width="1681" height="1600"/>
  </clipPath>
</defs>
<path clip-path="url(#clip810)" d="
M156.598 1486.45 L2352.76 1486.45 L2352.76 47.2441 L156.598 47.2441  Z
  " fill="#ffffff" fill-rule="evenodd" fill-opacity="1"/>
<defs>
  <clipPath id="clip812">
    <rect x="156" y="47" width="2197" height="1440"/>
  </clipPath>
</defs>
<polyline clip-path="url(#clip812)" style="stroke:#000000; stroke-width:2; stroke-opacity:0.1; fill:none" points="
  156.598,1486.45 156.598,47.2441 
  "/>
<polyline clip-path="url(#clip812)" style="stroke:#000000; stroke-width:2; stroke-opacity:0.1; fill:none" points="
  595.83,1486.45 595.83,47.2441 
  "/>
<polyline clip-path="url(#clip812)" style="stroke:#000000; stroke-width:2; stroke-opacity:0.1; fill:none" points="
  1035.06,1486.45 1035.06,47.2441 
  "/>
<polyline clip-path="url(#clip812)" style="stroke:#000000; stroke-width:2; stroke-opacity:0.1; fill:none" points="
  1474.29,1486.45 1474.29,47.2441 
  "/>
<polyline clip-path="url(#clip812)" style="stroke:#000000; stroke-width:2; stroke-opacity:0.1; fill:none" points="
  1913.52,1486.45 1913.52,47.2441 
  "/>
<polyline clip-path="url(#clip812)" style="stroke:#000000; stroke-width:2; stroke-opacity:0.1; fill:none" points="
  2352.76,1486.45 2352.76,47.2441 
  "/>
<polyline clip-path="url(#clip810)" style="stroke:#000000; stroke-width:4; stroke-opacity:1; fill:none" points="
  156.598,1486.45 2352.76,1486.45 
  "/>
<polyline clip-path="url(#clip810)" style="stroke:#000000; stroke-width:4; stroke-opacity:1; fill:none" points="
  156.598,1486.45 156.598,1469.18 
  "/>
<polyline clip-path="url(#clip810)" style="stroke:#000000; stroke-width:4; stroke-opacity:1; fill:none" points="
  595.83,1486.45 595.83,1469.18 
  "/>
<polyline clip-path="url(#clip810)" style="stroke:#000000; stroke-width:4; stroke-opacity:1; fill:none" points="
  1035.06,1486.45 1035.06,1469.18 
  "/>
<polyline clip-path="url(#clip810)" style="stroke:#000000; stroke-width:4; stroke-opacity:1; fill:none" points="
  1474.29,1486.45 1474.29,1469.18 
  "/>
<polyline clip-path="url(#clip810)" style="stroke:#000000; stroke-width:4; stroke-opacity:1; fill:none" points="
  1913.52,1486.45 1913.52,1469.18 
  "/>
<polyline clip-path="url(#clip810)" style="stroke:#000000; stroke-width:4; stroke-opacity:1; fill:none" points="
  2352.76,1486.45 2352.76,1469.18 
  "/>
<path clip-path="url(#clip810)" d="M 0 0 M133.983 1515.64 Q130.372 1515.64 128.543 1519.2 Q126.737 1522.75 126.737 1529.87 Q126.737 1536.98 128.543 1540.55 Q130.372 1544.09 133.983 1544.09 Q137.617 1544.09 139.422 1540.55 Q141.251 1536.98 141.251 1529.87 Q141.251 1522.75 139.422 1519.2 Q137.617 1515.64 133.983 1515.64 M133.983 1511.93 Q139.793 1511.93 142.848 1516.54 Q145.927 1521.12 145.927 1529.87 Q145.927 1538.6 142.848 1543.21 Q139.793 1547.79 133.983 1547.79 Q128.172 1547.79 125.094 1543.21 Q122.038 1538.6 122.038 1529.87 Q122.038 1521.12 125.094 1516.54 Q128.172 1511.93 133.983 1511.93 Z" fill="#000000" fill-rule="evenodd" fill-opacity="1" /><path clip-path="url(#clip810)" d="M 0 0 M154.145 1541.24 L159.029 1541.24 L159.029 1547.12 L154.145 1547.12 L154.145 1541.24 Z" fill="#000000" fill-rule="evenodd" fill-opacity="1" /><path clip-path="url(#clip810)" d="M 0 0 M179.214 1515.64 Q175.603 1515.64 173.774 1519.2 Q171.969 1522.75 171.969 1529.87 Q171.969 1536.98 173.774 1540.55 Q175.603 1544.09 179.214 1544.09 Q182.848 1544.09 184.654 1540.55 Q186.482 1536.98 186.482 1529.87 Q186.482 1522.75 184.654 1519.2 Q182.848 1515.64 179.214 1515.64 M179.214 1511.93 Q185.024 1511.93 188.08 1516.54 Q191.158 1521.12 191.158 1529.87 Q191.158 1538.6 188.08 1543.21 Q185.024 1547.79 179.214 1547.79 Q173.404 1547.79 170.325 1543.21 Q167.269 1538.6 167.269 1529.87 Q167.269 1521.12 170.325 1516.54 Q173.404 1511.93 179.214 1511.93 Z" fill="#000000" fill-rule="evenodd" fill-opacity="1" /><path clip-path="url(#clip810)" d="M 0 0 M574.013 1515.64 Q570.402 1515.64 568.573 1519.2 Q566.767 1522.75 566.767 1529.87 Q566.767 1536.98 568.573 1540.55 Q570.402 1544.09 574.013 1544.09 Q577.647 1544.09 579.453 1540.55 Q581.281 1536.98 581.281 1529.87 Q581.281 1522.75 579.453 1519.2 Q577.647 1515.64 574.013 1515.64 M574.013 1511.93 Q579.823 1511.93 582.878 1516.54 Q585.957 1521.12 585.957 1529.87 Q585.957 1538.6 582.878 1543.21 Q579.823 1547.79 574.013 1547.79 Q568.203 1547.79 565.124 1543.21 Q562.068 1538.6 562.068 1529.87 Q562.068 1521.12 565.124 1516.54 Q568.203 1511.93 574.013 1511.93 Z" fill="#000000" fill-rule="evenodd" fill-opacity="1" /><path clip-path="url(#clip810)" d="M 0 0 M594.175 1541.24 L599.059 1541.24 L599.059 1547.12 L594.175 1547.12 L594.175 1541.24 Z" fill="#000000" fill-rule="evenodd" fill-opacity="1" /><path clip-path="url(#clip810)" d="M 0 0 M613.272 1543.18 L629.591 1543.18 L629.591 1547.12 L607.647 1547.12 L607.647 1543.18 Q610.309 1540.43 614.892 1535.8 Q619.499 1531.15 620.679 1529.81 Q622.925 1527.28 623.804 1525.55 Q624.707 1523.79 624.707 1522.1 Q624.707 1519.34 622.762 1517.61 Q620.841 1515.87 617.739 1515.87 Q615.54 1515.87 613.087 1516.63 Q610.656 1517.4 607.878 1518.95 L607.878 1514.23 Q610.702 1513.09 613.156 1512.51 Q615.61 1511.93 617.647 1511.93 Q623.017 1511.93 626.212 1514.62 Q629.406 1517.31 629.406 1521.8 Q629.406 1523.93 628.596 1525.85 Q627.809 1527.74 625.702 1530.34 Q625.124 1531.01 622.022 1534.23 Q618.92 1537.42 613.272 1543.18 Z" fill="#000000" fill-rule="evenodd" fill-opacity="1" /><path clip-path="url(#clip810)" d="M 0 0 M1012.2 1515.64 Q1008.59 1515.64 1006.76 1519.2 Q1004.96 1522.75 1004.96 1529.87 Q1004.96 1536.98 1006.76 1540.55 Q1008.59 1544.09 1012.2 1544.09 Q1015.84 1544.09 1017.64 1540.55 Q1019.47 1536.98 1019.47 1529.87 Q1019.47 1522.75 1017.64 1519.2 Q1015.84 1515.64 1012.2 1515.64 M1012.2 1511.93 Q1018.01 1511.93 1021.07 1516.54 Q1024.15 1521.12 1024.15 1529.87 Q1024.15 1538.6 1021.07 1543.21 Q1018.01 1547.79 1012.2 1547.79 Q1006.39 1547.79 1003.31 1543.21 Q1000.26 1538.6 1000.26 1529.87 Q1000.26 1521.12 1003.31 1516.54 Q1006.39 1511.93 1012.2 1511.93 Z" fill="#000000" fill-rule="evenodd" fill-opacity="1" /><path clip-path="url(#clip810)" d="M 0 0 M1032.36 1541.24 L1037.25 1541.24 L1037.25 1547.12 L1032.36 1547.12 L1032.36 1541.24 Z" fill="#000000" fill-rule="evenodd" fill-opacity="1" /><path clip-path="url(#clip810)" d="M 0 0 M1060.28 1516.63 L1048.48 1535.08 L1060.28 1535.08 L1060.28 1516.63 M1059.05 1512.56 L1064.93 1512.56 L1064.93 1535.08 L1069.86 1535.08 L1069.86 1538.97 L1064.93 1538.97 L1064.93 1547.12 L1060.28 1547.12 L1060.28 1538.97 L1044.68 1538.97 L1044.68 1534.46 L1059.05 1512.56 Z" fill="#000000" fill-rule="evenodd" fill-opacity="1" /><path clip-path="url(#clip810)" d="M 0 0 M1451.6 1515.64 Q1447.99 1515.64 1446.16 1519.2 Q1444.35 1522.75 1444.35 1529.87 Q1444.35 1536.98 1446.16 1540.55 Q1447.99 1544.09 1451.6 1544.09 Q1455.23 1544.09 1457.04 1540.55 Q1458.86 1536.98 1458.86 1529.87 Q1458.86 1522.75 1457.04 1519.2 Q1455.23 1515.64 1451.6 1515.64 M1451.6 1511.93 Q1457.41 1511.93 1460.46 1516.54 Q1463.54 1521.12 1463.54 1529.87 Q1463.54 1538.6 1460.46 1543.21 Q1457.41 1547.79 1451.6 1547.79 Q1445.79 1547.79 1442.71 1543.21 Q1439.65 1538.6 1439.65 1529.87 Q1439.65 1521.12 1442.71 1516.54 Q1445.79 1511.93 1451.6 1511.93 Z" fill="#000000" fill-rule="evenodd" fill-opacity="1" /><path clip-path="url(#clip810)" d="M 0 0 M1471.76 1541.24 L1476.64 1541.24 L1476.64 1547.12 L1471.76 1547.12 L1471.76 1541.24 Z" fill="#000000" fill-rule="evenodd" fill-opacity="1" /><path clip-path="url(#clip810)" d="M 0 0 M1497.41 1527.98 Q1494.26 1527.98 1492.41 1530.13 Q1490.58 1532.28 1490.58 1536.03 Q1490.58 1539.76 1492.41 1541.93 Q1494.26 1544.09 1497.41 1544.09 Q1500.55 1544.09 1502.38 1541.93 Q1504.23 1539.76 1504.23 1536.03 Q1504.23 1532.28 1502.38 1530.13 Q1500.55 1527.98 1497.41 1527.98 M1506.69 1513.32 L1506.69 1517.58 Q1504.93 1516.75 1503.12 1516.31 Q1501.34 1515.87 1499.58 1515.87 Q1494.95 1515.87 1492.5 1519 Q1490.07 1522.12 1489.72 1528.44 Q1491.09 1526.43 1493.15 1525.36 Q1495.21 1524.27 1497.68 1524.27 Q1502.89 1524.27 1505.9 1527.44 Q1508.93 1530.59 1508.93 1536.03 Q1508.93 1541.36 1505.79 1544.57 Q1502.64 1547.79 1497.41 1547.79 Q1491.41 1547.79 1488.24 1543.21 Q1485.07 1538.6 1485.07 1529.87 Q1485.07 1521.68 1488.96 1516.82 Q1492.85 1511.93 1499.4 1511.93 Q1501.16 1511.93 1502.94 1512.28 Q1504.74 1512.63 1506.69 1513.32 Z" fill="#000000" fill-rule="evenodd" fill-opacity="1" /><path clip-path="url(#clip810)" d="M 0 0 M1890.96 1515.64 Q1887.34 1515.64 1885.52 1519.2 Q1883.71 1522.75 1883.71 1529.87 Q1883.71 1536.98 1885.52 1540.55 Q1887.34 1544.09 1890.96 1544.09 Q1894.59 1544.09 1896.39 1540.55 Q1898.22 1536.98 1898.22 1529.87 Q1898.22 1522.75 1896.39 1519.2 Q1894.59 1515.64 1890.96 1515.64 M1890.96 1511.93 Q1896.77 1511.93 1899.82 1516.54 Q1902.9 1521.12 1902.9 1529.87 Q1902.9 1538.6 1899.82 1543.21 Q1896.77 1547.79 1890.96 1547.79 Q1885.14 1547.79 1882.07 1543.21 Q1879.01 1538.6 1879.01 1529.87 Q1879.01 1521.12 1882.07 1516.54 Q1885.14 1511.93 1890.96 1511.93 Z" fill="#000000" fill-rule="evenodd" fill-opacity="1" /><path clip-path="url(#clip810)" d="M 0 0 M1911.12 1541.24 L1916 1541.24 L1916 1547.12 L1911.12 1547.12 L1911.12 1541.24 Z" fill="#000000" fill-rule="evenodd" fill-opacity="1" /><path clip-path="url(#clip810)" d="M 0 0 M1936.19 1530.71 Q1932.85 1530.71 1930.93 1532.49 Q1929.03 1534.27 1929.03 1537.4 Q1929.03 1540.52 1930.93 1542.31 Q1932.85 1544.09 1936.19 1544.09 Q1939.52 1544.09 1941.44 1542.31 Q1943.36 1540.5 1943.36 1537.4 Q1943.36 1534.27 1941.44 1532.49 Q1939.54 1530.71 1936.19 1530.71 M1931.51 1528.72 Q1928.5 1527.98 1926.81 1525.92 Q1925.14 1523.86 1925.14 1520.89 Q1925.14 1516.75 1928.08 1514.34 Q1931.05 1511.93 1936.19 1511.93 Q1941.35 1511.93 1944.29 1514.34 Q1947.23 1516.75 1947.23 1520.89 Q1947.23 1523.86 1945.54 1525.92 Q1943.87 1527.98 1940.89 1528.72 Q1944.26 1529.5 1946.14 1531.8 Q1948.04 1534.09 1948.04 1537.4 Q1948.04 1542.42 1944.96 1545.11 Q1941.9 1547.79 1936.19 1547.79 Q1930.47 1547.79 1927.39 1545.11 Q1924.33 1542.42 1924.33 1537.4 Q1924.33 1534.09 1926.23 1531.8 Q1928.13 1529.5 1931.51 1528.72 M1929.8 1521.33 Q1929.8 1524.02 1931.46 1525.52 Q1933.15 1527.03 1936.19 1527.03 Q1939.2 1527.03 1940.89 1525.52 Q1942.6 1524.02 1942.6 1521.33 Q1942.6 1518.65 1940.89 1517.14 Q1939.2 1515.64 1936.19 1515.64 Q1933.15 1515.64 1931.46 1517.14 Q1929.8 1518.65 1929.8 1521.33 Z" fill="#000000" fill-rule="evenodd" fill-opacity="1" /><path clip-path="url(#clip810)" d="M 0 0 M2319.91 1543.18 L2327.55 1543.18 L2327.55 1516.82 L2319.24 1518.49 L2319.24 1514.23 L2327.5 1512.56 L2332.18 1512.56 L2332.18 1543.18 L2339.82 1543.18 L2339.82 1547.12 L2319.91 1547.12 L2319.91 1543.18 Z" fill="#000000" fill-rule="evenodd" fill-opacity="1" /><path clip-path="url(#clip810)" d="M 0 0 M2349.26 1541.24 L2354.14 1541.24 L2354.14 1547.12 L2349.26 1547.12 L2349.26 1541.24 Z" fill="#000000" fill-rule="evenodd" fill-opacity="1" /><path clip-path="url(#clip810)" d="M 0 0 M2374.33 1515.64 Q2370.72 1515.64 2368.89 1519.2 Q2367.08 1522.75 2367.08 1529.87 Q2367.08 1536.98 2368.89 1540.55 Q2370.72 1544.09 2374.33 1544.09 Q2377.96 1544.09 2379.77 1540.55 Q2381.6 1536.98 2381.6 1529.87 Q2381.6 1522.75 2379.77 1519.2 Q2377.96 1515.64 2374.33 1515.64 M2374.33 1511.93 Q2380.14 1511.93 2383.2 1516.54 Q2386.27 1521.12 2386.27 1529.87 Q2386.27 1538.6 2383.2 1543.21 Q2380.14 1547.79 2374.33 1547.79 Q2368.52 1547.79 2365.44 1543.21 Q2362.39 1538.6 2362.39 1529.87 Q2362.39 1521.12 2365.44 1516.54 Q2368.52 1511.93 2374.33 1511.93 Z" fill="#000000" fill-rule="evenodd" fill-opacity="1" /><polyline clip-path="url(#clip812)" style="stroke:#000000; stroke-width:2; stroke-opacity:0.1; fill:none" points="
  156.598,1486.45 2352.76,1486.45 
  "/>
<polyline clip-path="url(#clip812)" style="stroke:#000000; stroke-width:2; stroke-opacity:0.1; fill:none" points="
  156.598,1198.61 2352.76,1198.61 
  "/>
<polyline clip-path="url(#clip812)" style="stroke:#000000; stroke-width:2; stroke-opacity:0.1; fill:none" points="
  156.598,910.766 2352.76,910.766 
  "/>
<polyline clip-path="url(#clip812)" style="stroke:#000000; stroke-width:2; stroke-opacity:0.1; fill:none" points="
  156.598,622.926 2352.76,622.926 
  "/>
<polyline clip-path="url(#clip812)" style="stroke:#000000; stroke-width:2; stroke-opacity:0.1; fill:none" points="
  156.598,335.085 2352.76,335.085 
  "/>
<polyline clip-path="url(#clip812)" style="stroke:#000000; stroke-width:2; stroke-opacity:0.1; fill:none" points="
  156.598,47.2441 2352.76,47.2441 
  "/>
<polyline clip-path="url(#clip810)" style="stroke:#000000; stroke-width:4; stroke-opacity:1; fill:none" points="
  156.598,1486.45 156.598,47.2441 
  "/>
<polyline clip-path="url(#clip810)" style="stroke:#000000; stroke-width:4; stroke-opacity:1; fill:none" points="
  156.598,1486.45 182.952,1486.45 
  "/>
<polyline clip-path="url(#clip810)" style="stroke:#000000; stroke-width:4; stroke-opacity:1; fill:none" points="
  156.598,1198.61 182.952,1198.61 
  "/>
<polyline clip-path="url(#clip810)" style="stroke:#000000; stroke-width:4; stroke-opacity:1; fill:none" points="
  156.598,910.766 182.952,910.766 
  "/>
<polyline clip-path="url(#clip810)" style="stroke:#000000; stroke-width:4; stroke-opacity:1; fill:none" points="
  156.598,622.926 182.952,622.926 
  "/>
<polyline clip-path="url(#clip810)" style="stroke:#000000; stroke-width:4; stroke-opacity:1; fill:none" points="
  156.598,335.085 182.952,335.085 
  "/>
<polyline clip-path="url(#clip810)" style="stroke:#000000; stroke-width:4; stroke-opacity:1; fill:none" points="
  156.598,47.2441 182.952,47.2441 
  "/>
<path clip-path="url(#clip810)" d="M 0 0 M63.4226 1472.25 Q59.8115 1472.25 57.9828 1475.81 Q56.1773 1479.35 56.1773 1486.48 Q56.1773 1493.59 57.9828 1497.15 Q59.8115 1500.7 63.4226 1500.7 Q67.0569 1500.7 68.8624 1497.15 Q70.6911 1493.59 70.6911 1486.48 Q70.6911 1479.35 68.8624 1475.81 Q67.0569 1472.25 63.4226 1472.25 M63.4226 1468.54 Q69.2328 1468.54 72.2883 1473.15 Q75.367 1477.73 75.367 1486.48 Q75.367 1495.21 72.2883 1499.82 Q69.2328 1504.4 63.4226 1504.4 Q57.6125 1504.4 54.5338 1499.82 Q51.4782 1495.21 51.4782 1486.48 Q51.4782 1477.73 54.5338 1473.15 Q57.6125 1468.54 63.4226 1468.54 Z" fill="#000000" fill-rule="evenodd" fill-opacity="1" /><path clip-path="url(#clip810)" d="M 0 0 M83.5845 1497.85 L88.4688 1497.85 L88.4688 1503.73 L83.5845 1503.73 L83.5845 1497.85 Z" fill="#000000" fill-rule="evenodd" fill-opacity="1" /><path clip-path="url(#clip810)" d="M 0 0 M108.654 1472.25 Q105.043 1472.25 103.214 1475.81 Q101.409 1479.35 101.409 1486.48 Q101.409 1493.59 103.214 1497.15 Q105.043 1500.7 108.654 1500.7 Q112.288 1500.7 114.094 1497.15 Q115.922 1493.59 115.922 1486.48 Q115.922 1479.35 114.094 1475.81 Q112.288 1472.25 108.654 1472.25 M108.654 1468.54 Q114.464 1468.54 117.52 1473.15 Q120.598 1477.73 120.598 1486.48 Q120.598 1495.21 117.52 1499.82 Q114.464 1504.4 108.654 1504.4 Q102.844 1504.4 99.765 1499.82 Q96.7095 1495.21 96.7095 1486.48 Q96.7095 1477.73 99.765 1473.15 Q102.844 1468.54 108.654 1468.54 Z" fill="#000000" fill-rule="evenodd" fill-opacity="1" /><path clip-path="url(#clip810)" d="M 0 0 M65.0198 1184.41 Q61.4087 1184.41 59.58 1187.97 Q57.7745 1191.51 57.7745 1198.64 Q57.7745 1205.75 59.58 1209.31 Q61.4087 1212.85 65.0198 1212.85 Q68.6541 1212.85 70.4596 1209.31 Q72.2883 1205.75 72.2883 1198.64 Q72.2883 1191.51 70.4596 1187.97 Q68.6541 1184.41 65.0198 1184.41 M65.0198 1180.7 Q70.83 1180.7 73.8855 1185.31 Q76.9642 1189.89 76.9642 1198.64 Q76.9642 1207.37 73.8855 1211.98 Q70.83 1216.56 65.0198 1216.56 Q59.2097 1216.56 56.131 1211.98 Q53.0754 1207.37 53.0754 1198.64 Q53.0754 1189.89 56.131 1185.31 Q59.2097 1180.7 65.0198 1180.7 Z" fill="#000000" fill-rule="evenodd" fill-opacity="1" /><path clip-path="url(#clip810)" d="M 0 0 M85.1818 1210.01 L90.066 1210.01 L90.066 1215.89 L85.1818 1215.89 L85.1818 1210.01 Z" fill="#000000" fill-rule="evenodd" fill-opacity="1" /><path clip-path="url(#clip810)" d="M 0 0 M104.279 1211.95 L120.598 1211.95 L120.598 1215.89 L98.6539 1215.89 L98.6539 1211.95 Q101.316 1209.2 105.899 1204.57 Q110.506 1199.91 111.686 1198.57 Q113.932 1196.05 114.811 1194.31 Q115.714 1192.55 115.714 1190.86 Q115.714 1188.11 113.77 1186.37 Q111.848 1184.64 108.746 1184.64 Q106.547 1184.64 104.094 1185.4 Q101.663 1186.17 98.8854 1187.72 L98.8854 1182.99 Q101.709 1181.86 104.163 1181.28 Q106.617 1180.7 108.654 1180.7 Q114.024 1180.7 117.219 1183.39 Q120.413 1186.07 120.413 1190.56 Q120.413 1192.69 119.603 1194.61 Q118.816 1196.51 116.709 1199.1 Q116.131 1199.78 113.029 1202.99 Q109.927 1206.19 104.279 1211.95 Z" fill="#000000" fill-rule="evenodd" fill-opacity="1" /><path clip-path="url(#clip810)" d="M 0 0 M62.9365 896.565 Q59.3254 896.565 57.4967 900.13 Q55.6912 903.671 55.6912 910.801 Q55.6912 917.908 57.4967 921.472 Q59.3254 925.014 62.9365 925.014 Q66.5707 925.014 68.3763 921.472 Q70.205 917.908 70.205 910.801 Q70.205 903.671 68.3763 900.13 Q66.5707 896.565 62.9365 896.565 M62.9365 892.861 Q68.7467 892.861 71.8022 897.468 Q74.8809 902.051 74.8809 910.801 Q74.8809 919.528 71.8022 924.134 Q68.7467 928.718 62.9365 928.718 Q57.1264 928.718 54.0477 924.134 Q50.9921 919.528 50.9921 910.801 Q50.9921 902.051 54.0477 897.468 Q57.1264 892.861 62.9365 892.861 Z" fill="#000000" fill-rule="evenodd" fill-opacity="1" /><path clip-path="url(#clip810)" d="M 0 0 M83.0984 922.167 L87.9827 922.167 L87.9827 928.046 L83.0984 928.046 L83.0984 922.167 Z" fill="#000000" fill-rule="evenodd" fill-opacity="1" /><path clip-path="url(#clip810)" d="M 0 0 M111.015 897.56 L99.2095 916.009 L111.015 916.009 L111.015 897.56 M109.788 893.486 L115.668 893.486 L115.668 916.009 L120.598 916.009 L120.598 919.898 L115.668 919.898 L115.668 928.046 L111.015 928.046 L111.015 919.898 L95.4132 919.898 L95.4132 915.384 L109.788 893.486 Z" fill="#000000" fill-rule="evenodd" fill-opacity="1" /><path clip-path="url(#clip810)" d="M 0 0 M63.2606 608.724 Q59.6495 608.724 57.8208 612.289 Q56.0152 615.831 56.0152 622.96 Q56.0152 630.067 57.8208 633.632 Q59.6495 637.173 63.2606 637.173 Q66.8948 637.173 68.7004 633.632 Q70.5291 630.067 70.5291 622.96 Q70.5291 615.831 68.7004 612.289 Q66.8948 608.724 63.2606 608.724 M63.2606 605.021 Q69.0707 605.021 72.1263 609.627 Q75.205 614.21 75.205 622.96 Q75.205 631.687 72.1263 636.294 Q69.0707 640.877 63.2606 640.877 Q57.4504 640.877 54.3717 636.294 Q51.3162 631.687 51.3162 622.96 Q51.3162 614.21 54.3717 609.627 Q57.4504 605.021 63.2606 605.021 Z" fill="#000000" fill-rule="evenodd" fill-opacity="1" /><path clip-path="url(#clip810)" d="M 0 0 M83.4225 634.326 L88.3067 634.326 L88.3067 640.206 L83.4225 640.206 L83.4225 634.326 Z" fill="#000000" fill-rule="evenodd" fill-opacity="1" /><path clip-path="url(#clip810)" d="M 0 0 M109.071 621.062 Q105.922 621.062 104.071 623.215 Q102.242 625.368 102.242 629.118 Q102.242 632.845 104.071 635.02 Q105.922 637.173 109.071 637.173 Q112.219 637.173 114.047 635.02 Q115.899 632.845 115.899 629.118 Q115.899 625.368 114.047 623.215 Q112.219 621.062 109.071 621.062 M118.353 606.409 L118.353 610.669 Q116.594 609.835 114.788 609.396 Q113.006 608.956 111.246 608.956 Q106.617 608.956 104.163 612.081 Q101.733 615.206 101.385 621.525 Q102.751 619.511 104.811 618.446 Q106.871 617.359 109.348 617.359 Q114.557 617.359 117.566 620.53 Q120.598 623.678 120.598 629.118 Q120.598 634.442 117.45 637.659 Q114.302 640.877 109.071 640.877 Q103.075 640.877 99.9039 636.294 Q96.7326 631.687 96.7326 622.96 Q96.7326 614.766 100.621 609.905 Q104.51 605.021 111.061 605.021 Q112.82 605.021 114.603 605.368 Q116.408 605.715 118.353 606.409 Z" fill="#000000" fill-rule="evenodd" fill-opacity="1" /><path clip-path="url(#clip810)" d="M 0 0 M63.5152 320.884 Q59.9041 320.884 58.0754 324.448 Q56.2699 327.99 56.2699 335.12 Q56.2699 342.226 58.0754 345.791 Q59.9041 349.332 63.5152 349.332 Q67.1494 349.332 68.955 345.791 Q70.7837 342.226 70.7837 335.12 Q70.7837 327.99 68.955 324.448 Q67.1494 320.884 63.5152 320.884 M63.5152 317.18 Q69.3254 317.18 72.3809 321.786 Q75.4596 326.37 75.4596 335.12 Q75.4596 343.846 72.3809 348.453 Q69.3254 353.036 63.5152 353.036 Q57.7051 353.036 54.6264 348.453 Q51.5708 343.846 51.5708 335.12 Q51.5708 326.37 54.6264 321.786 Q57.7051 317.18 63.5152 317.18 Z" fill="#000000" fill-rule="evenodd" fill-opacity="1" /><path clip-path="url(#clip810)" d="M 0 0 M83.6771 346.485 L88.5614 346.485 L88.5614 352.365 L83.6771 352.365 L83.6771 346.485 Z" fill="#000000" fill-rule="evenodd" fill-opacity="1" /><path clip-path="url(#clip810)" d="M 0 0 M108.746 335.953 Q105.413 335.953 103.492 337.735 Q101.594 339.518 101.594 342.643 Q101.594 345.768 103.492 347.55 Q105.413 349.332 108.746 349.332 Q112.08 349.332 114.001 347.55 Q115.922 345.745 115.922 342.643 Q115.922 339.518 114.001 337.735 Q112.103 335.953 108.746 335.953 M104.071 333.962 Q101.061 333.221 99.3715 331.161 Q97.7048 329.101 97.7048 326.138 Q97.7048 321.995 100.645 319.587 Q103.608 317.18 108.746 317.18 Q113.908 317.18 116.848 319.587 Q119.788 321.995 119.788 326.138 Q119.788 329.101 118.098 331.161 Q116.432 333.221 113.445 333.962 Q116.825 334.749 118.7 337.041 Q120.598 339.333 120.598 342.643 Q120.598 347.666 117.52 350.351 Q114.464 353.036 108.746 353.036 Q103.029 353.036 99.9502 350.351 Q96.8947 347.666 96.8947 342.643 Q96.8947 339.333 98.7928 337.041 Q100.691 334.749 104.071 333.962 M102.358 326.578 Q102.358 329.263 104.024 330.768 Q105.714 332.272 108.746 332.272 Q111.756 332.272 113.445 330.768 Q115.158 329.263 115.158 326.578 Q115.158 323.893 113.445 322.388 Q111.756 320.884 108.746 320.884 Q105.714 320.884 104.024 322.388 Q102.358 323.893 102.358 326.578 Z" fill="#000000" fill-rule="evenodd" fill-opacity="1" /><path clip-path="url(#clip810)" d="M 0 0 M54.2328 60.5889 L61.8717 60.5889 L61.8717 34.2233 L53.5616 35.89 L53.5616 31.6308 L61.8254 29.9641 L66.5013 29.9641 L66.5013 60.5889 L74.1402 60.5889 L74.1402 64.5241 L54.2328 64.5241 L54.2328 60.5889 Z" fill="#000000" fill-rule="evenodd" fill-opacity="1" /><path clip-path="url(#clip810)" d="M 0 0 M83.5845 58.6445 L88.4688 58.6445 L88.4688 64.5241 L83.5845 64.5241 L83.5845 58.6445 Z" fill="#000000" fill-rule="evenodd" fill-opacity="1" /><path clip-path="url(#clip810)" d="M 0 0 M108.654 33.0428 Q105.043 33.0428 103.214 36.6076 Q101.409 40.1492 101.409 47.2788 Q101.409 54.3853 103.214 57.9501 Q105.043 61.4917 108.654 61.4917 Q112.288 61.4917 114.094 57.9501 Q115.922 54.3853 115.922 47.2788 Q115.922 40.1492 114.094 36.6076 Q112.288 33.0428 108.654 33.0428 M108.654 29.3391 Q114.464 29.3391 117.52 33.9456 Q120.598 38.5289 120.598 47.2788 Q120.598 56.0056 117.52 60.6121 Q114.464 65.1954 108.654 65.1954 Q102.844 65.1954 99.765 60.6121 Q96.7095 56.0056 96.7095 47.2788 Q96.7095 38.5289 99.765 33.9456 Q102.844 29.3391 108.654 29.3391 Z" fill="#000000" fill-rule="evenodd" fill-opacity="1" /></svg>
