<?xml version="1.0" encoding="utf-8"?>
<svg xmlns="http://www.w3.org/2000/svg" xmlns:xlink="http://www.w3.org/1999/xlink" width="600" height="400" viewBox="0 0 2400 1600">
<defs>
  <clipPath id="clip330">
    <rect x="0" y="0" width="2400" height="1600"/>
  </clipPath>
</defs>
<path clip-path="url(#clip330)" d="
M0 1600 L2400 1600 L2400 0 L0 0  Z
  " fill="#ffffff" fill-rule="evenodd" fill-opacity="1"/>
<defs>
  <clipPath id="clip331">
    <rect x="480" y="0" width="1681" height="1600"/>
  </clipPath>
</defs>
<path clip-path="url(#clip330)" d="
M112.177 1486.45 L2352.76 1486.45 L2352.76 47.2441 L112.177 47.2441  Z
  " fill="#ffffff" fill-rule="evenodd" fill-opacity="1"/>
<defs>
  <clipPath id="clip332">
    <rect x="112" y="47" width="2242" height="1440"/>
  </clipPath>
</defs>
<polyline clip-path="url(#clip332)" style="stroke:#000000; stroke-width:2; stroke-opacity:0.1; fill:none" points="
  520.285,1486.45 520.285,47.2441 
  "/>
<polyline clip-path="url(#clip332)" style="stroke:#000000; stroke-width:2; stroke-opacity:0.1; fill:none" points="
  1232.47,1486.45 1232.47,47.2441 
  "/>
<polyline clip-path="url(#clip332)" style="stroke:#000000; stroke-width:2; stroke-opacity:0.1; fill:none" points="
  1944.65,1486.45 1944.65,47.2441 
  "/>
<polyline clip-path="url(#clip330)" style="stroke:#000000; stroke-width:4; stroke-opacity:1; fill:none" points="
  112.177,1486.45 2352.76,1486.45 
  "/>
<polyline clip-path="url(#clip330)" style="stroke:#000000; stroke-width:4; stroke-opacity:1; fill:none" points="
  520.285,1486.45 520.285,1469.18 
  "/>
<polyline clip-path="url(#clip330)" style="stroke:#000000; stroke-width:4; stroke-opacity:1; fill:none" points="
  1232.47,1486.45 1232.47,1469.18 
  "/>
<polyline clip-path="url(#clip330)" style="stroke:#000000; stroke-width:4; stroke-opacity:1; fill:none" points="
  1944.65,1486.45 1944.65,1469.18 
  "/>
<path clip-path="url(#clip330)" d="M 0 0 M402.937 1512.56 L407.612 1512.56 L407.612 1547.12 L402.937 1547.12 L402.937 1512.56 Z" fill="#000000" fill-rule="evenodd" fill-opacity="1" /><path clip-path="url(#clip330)" d="M 0 0 M431.756 1525.18 Q431.038 1524.76 430.182 1524.57 Q429.348 1524.37 428.33 1524.37 Q424.719 1524.37 422.774 1526.73 Q420.853 1529.06 420.853 1533.46 L420.853 1547.12 L416.571 1547.12 L416.571 1521.19 L420.853 1521.19 L420.853 1525.22 Q422.196 1522.86 424.348 1521.73 Q426.501 1520.57 429.58 1520.57 Q430.02 1520.57 430.552 1520.64 Q431.085 1520.68 431.733 1520.8 L431.756 1525.18 Z" fill="#000000" fill-rule="evenodd" fill-opacity="1" /><path clip-path="url(#clip330)" d="M 0 0 M436.223 1521.19 L440.483 1521.19 L440.483 1547.12 L436.223 1547.12 L436.223 1521.19 M436.223 1511.1 L440.483 1511.1 L440.483 1516.5 L436.223 1516.5 L436.223 1511.1 Z" fill="#000000" fill-rule="evenodd" fill-opacity="1" /><path clip-path="url(#clip330)" d="M 0 0 M465.922 1521.96 L465.922 1525.99 Q464.117 1525.06 462.172 1524.6 Q460.228 1524.13 458.145 1524.13 Q454.973 1524.13 453.376 1525.11 Q451.802 1526.08 451.802 1528.02 Q451.802 1529.5 452.936 1530.36 Q454.071 1531.19 457.496 1531.96 L458.955 1532.28 Q463.492 1533.25 465.39 1535.04 Q467.311 1536.8 467.311 1539.97 Q467.311 1543.58 464.441 1545.68 Q461.594 1547.79 456.594 1547.79 Q454.51 1547.79 452.242 1547.37 Q449.996 1546.98 447.496 1546.17 L447.496 1541.77 Q449.858 1543 452.149 1543.62 Q454.441 1544.23 456.686 1544.23 Q459.695 1544.23 461.316 1543.21 Q462.936 1542.17 462.936 1540.29 Q462.936 1538.56 461.756 1537.63 Q460.598 1536.7 456.64 1535.85 L455.158 1535.5 Q451.2 1534.67 449.441 1532.95 Q447.682 1531.22 447.682 1528.21 Q447.682 1524.55 450.274 1522.56 Q452.867 1520.57 457.635 1520.57 Q459.996 1520.57 462.08 1520.92 Q464.163 1521.26 465.922 1521.96 Z" fill="#000000" fill-rule="evenodd" fill-opacity="1" /><path clip-path="url(#clip330)" d="M 0 0 M471.941 1532.24 L484.418 1532.24 L484.418 1536.03 L471.941 1536.03 L471.941 1532.24 Z" fill="#000000" fill-rule="evenodd" fill-opacity="1" /><path clip-path="url(#clip330)" d="M 0 0 M507.728 1521.96 L507.728 1525.99 Q505.922 1525.06 503.978 1524.6 Q502.033 1524.13 499.95 1524.13 Q496.779 1524.13 495.181 1525.11 Q493.607 1526.08 493.607 1528.02 Q493.607 1529.5 494.742 1530.36 Q495.876 1531.19 499.302 1531.96 L500.76 1532.28 Q505.297 1533.25 507.195 1535.04 Q509.117 1536.8 509.117 1539.97 Q509.117 1543.58 506.246 1545.68 Q503.399 1547.79 498.399 1547.79 Q496.316 1547.79 494.047 1547.37 Q491.802 1546.98 489.302 1546.17 L489.302 1541.77 Q491.663 1543 493.955 1543.62 Q496.246 1544.23 498.492 1544.23 Q501.501 1544.23 503.121 1543.21 Q504.742 1542.17 504.742 1540.29 Q504.742 1538.56 503.561 1537.63 Q502.404 1536.7 498.445 1535.85 L496.964 1535.5 Q493.005 1534.67 491.246 1532.95 Q489.487 1531.22 489.487 1528.21 Q489.487 1524.55 492.08 1522.56 Q494.672 1520.57 499.441 1520.57 Q501.802 1520.57 503.885 1520.92 Q505.968 1521.26 507.728 1521.96 Z" fill="#000000" fill-rule="evenodd" fill-opacity="1" /><path clip-path="url(#clip330)" d="M 0 0 M538.075 1533.09 L538.075 1535.18 L518.491 1535.18 Q518.769 1539.57 521.13 1541.89 Q523.515 1544.18 527.751 1544.18 Q530.204 1544.18 532.496 1543.58 Q534.811 1542.98 537.079 1541.77 L537.079 1545.8 Q534.788 1546.77 532.38 1547.28 Q529.973 1547.79 527.496 1547.79 Q521.292 1547.79 517.658 1544.18 Q514.047 1540.57 514.047 1534.41 Q514.047 1528.05 517.473 1524.32 Q520.922 1520.57 526.755 1520.57 Q531.987 1520.57 535.019 1523.95 Q538.075 1527.31 538.075 1533.09 M533.815 1531.84 Q533.769 1528.35 531.848 1526.26 Q529.95 1524.18 526.802 1524.18 Q523.237 1524.18 521.084 1526.19 Q518.954 1528.21 518.63 1531.87 L533.815 1531.84 Z" fill="#000000" fill-rule="evenodd" fill-opacity="1" /><path clip-path="url(#clip330)" d="M 0 0 M549.278 1513.83 L549.278 1521.19 L558.051 1521.19 L558.051 1524.5 L549.278 1524.5 L549.278 1538.58 Q549.278 1541.75 550.135 1542.65 Q551.014 1543.56 553.676 1543.56 L558.051 1543.56 L558.051 1547.12 L553.676 1547.12 Q548.746 1547.12 546.871 1545.29 Q544.996 1543.44 544.996 1538.58 L544.996 1524.5 L541.871 1524.5 L541.871 1521.19 L544.996 1521.19 L544.996 1513.83 L549.278 1513.83 Z" fill="#000000" fill-rule="evenodd" fill-opacity="1" /><path clip-path="url(#clip330)" d="M 0 0 M573.7 1524.18 Q570.274 1524.18 568.283 1526.87 Q566.292 1529.53 566.292 1534.18 Q566.292 1538.83 568.26 1541.52 Q570.25 1544.18 573.7 1544.18 Q577.102 1544.18 579.093 1541.49 Q581.084 1538.81 581.084 1534.18 Q581.084 1529.57 579.093 1526.89 Q577.102 1524.18 573.7 1524.18 M573.7 1520.57 Q579.255 1520.57 582.426 1524.18 Q585.598 1527.79 585.598 1534.18 Q585.598 1540.55 582.426 1544.18 Q579.255 1547.79 573.7 1547.79 Q568.121 1547.79 564.95 1544.18 Q561.801 1540.55 561.801 1534.18 Q561.801 1527.79 564.95 1524.18 Q568.121 1520.57 573.7 1520.57 Z" fill="#000000" fill-rule="evenodd" fill-opacity="1" /><path clip-path="url(#clip330)" d="M 0 0 M609.185 1521.96 L609.185 1525.99 Q607.38 1525.06 605.435 1524.6 Q603.491 1524.13 601.408 1524.13 Q598.236 1524.13 596.639 1525.11 Q595.065 1526.08 595.065 1528.02 Q595.065 1529.5 596.199 1530.36 Q597.334 1531.19 600.76 1531.96 L602.218 1532.28 Q606.755 1533.25 608.653 1535.04 Q610.574 1536.8 610.574 1539.97 Q610.574 1543.58 607.704 1545.68 Q604.857 1547.79 599.857 1547.79 Q597.773 1547.79 595.505 1547.37 Q593.26 1546.98 590.76 1546.17 L590.76 1541.77 Q593.121 1543 595.412 1543.62 Q597.704 1544.23 599.949 1544.23 Q602.959 1544.23 604.579 1543.21 Q606.199 1542.17 606.199 1540.29 Q606.199 1538.56 605.019 1537.63 Q603.861 1536.7 599.903 1535.85 L598.422 1535.5 Q594.463 1534.67 592.704 1532.95 Q590.945 1531.22 590.945 1528.21 Q590.945 1524.55 593.537 1522.56 Q596.13 1520.57 600.898 1520.57 Q603.26 1520.57 605.343 1520.92 Q607.426 1521.26 609.185 1521.96 Z" fill="#000000" fill-rule="evenodd" fill-opacity="1" /><path clip-path="url(#clip330)" d="M 0 0 M629.139 1534.09 Q623.977 1534.09 621.986 1535.27 Q619.996 1536.45 619.996 1539.3 Q619.996 1541.56 621.477 1542.91 Q622.982 1544.23 625.551 1544.23 Q629.093 1544.23 631.222 1541.73 Q633.375 1539.2 633.375 1535.04 L633.375 1534.09 L629.139 1534.09 M637.634 1532.33 L637.634 1547.12 L633.375 1547.12 L633.375 1543.18 Q631.917 1545.55 629.741 1546.68 Q627.565 1547.79 624.417 1547.79 Q620.435 1547.79 618.074 1545.57 Q615.736 1543.32 615.736 1539.57 Q615.736 1535.2 618.653 1532.98 Q621.593 1530.75 627.403 1530.75 L633.375 1530.75 L633.375 1530.34 Q633.375 1527.4 631.431 1525.8 Q629.509 1524.18 626.014 1524.18 Q623.792 1524.18 621.685 1524.71 Q619.579 1525.24 617.634 1526.31 L617.634 1522.37 Q619.972 1521.47 622.171 1521.03 Q624.371 1520.57 626.454 1520.57 Q632.079 1520.57 634.857 1523.49 Q637.634 1526.4 637.634 1532.33 Z" fill="#000000" fill-rule="evenodd" fill-opacity="1" /><path clip-path="url(#clip330)" d="M 0 0 M1075.55 1512.56 L1080.22 1512.56 L1080.22 1547.12 L1075.55 1547.12 L1075.55 1512.56 Z" fill="#000000" fill-rule="evenodd" fill-opacity="1" /><path clip-path="url(#clip330)" d="M 0 0 M1104.37 1525.18 Q1103.65 1524.76 1102.79 1524.57 Q1101.96 1524.37 1100.94 1524.37 Q1097.33 1524.37 1095.38 1526.73 Q1093.46 1529.06 1093.46 1533.46 L1093.46 1547.12 L1089.18 1547.12 L1089.18 1521.19 L1093.46 1521.19 L1093.46 1525.22 Q1094.81 1522.86 1096.96 1521.73 Q1099.11 1520.57 1102.19 1520.57 Q1102.63 1520.57 1103.16 1520.64 Q1103.69 1520.68 1104.34 1520.8 L1104.37 1525.18 Z" fill="#000000" fill-rule="evenodd" fill-opacity="1" /><path clip-path="url(#clip330)" d="M 0 0 M1108.83 1521.19 L1113.09 1521.19 L1113.09 1547.12 L1108.83 1547.12 L1108.83 1521.19 M1108.83 1511.1 L1113.09 1511.1 L1113.09 1516.5 L1108.83 1516.5 L1108.83 1511.1 Z" fill="#000000" fill-rule="evenodd" fill-opacity="1" /><path clip-path="url(#clip330)" d="M 0 0 M1138.53 1521.96 L1138.53 1525.99 Q1136.73 1525.06 1134.78 1524.6 Q1132.84 1524.13 1130.75 1524.13 Q1127.58 1524.13 1125.99 1525.11 Q1124.41 1526.08 1124.41 1528.02 Q1124.41 1529.5 1125.55 1530.36 Q1126.68 1531.19 1130.11 1531.96 L1131.56 1532.28 Q1136.1 1533.25 1138 1535.04 Q1139.92 1536.8 1139.92 1539.97 Q1139.92 1543.58 1137.05 1545.68 Q1134.2 1547.79 1129.2 1547.79 Q1127.12 1547.79 1124.85 1547.37 Q1122.61 1546.98 1120.11 1546.17 L1120.11 1541.77 Q1122.47 1543 1124.76 1543.62 Q1127.05 1544.23 1129.3 1544.23 Q1132.31 1544.23 1133.93 1543.21 Q1135.55 1542.17 1135.55 1540.29 Q1135.55 1538.56 1134.37 1537.63 Q1133.21 1536.7 1129.25 1535.85 L1127.77 1535.5 Q1123.81 1534.67 1122.05 1532.95 Q1120.29 1531.22 1120.29 1528.21 Q1120.29 1524.55 1122.88 1522.56 Q1125.48 1520.57 1130.24 1520.57 Q1132.61 1520.57 1134.69 1520.92 Q1136.77 1521.26 1138.53 1521.96 Z" fill="#000000" fill-rule="evenodd" fill-opacity="1" /><path clip-path="url(#clip330)" d="M 0 0 M1144.55 1532.24 L1157.03 1532.24 L1157.03 1536.03 L1144.55 1536.03 L1144.55 1532.24 Z" fill="#000000" fill-rule="evenodd" fill-opacity="1" /><path clip-path="url(#clip330)" d="M 0 0 M1159.48 1521.19 L1163.99 1521.19 L1172.1 1542.95 L1180.2 1521.19 L1184.71 1521.19 L1174.99 1547.12 L1169.2 1547.12 L1159.48 1521.19 Z" fill="#000000" fill-rule="evenodd" fill-opacity="1" /><path clip-path="url(#clip330)" d="M 0 0 M1212.77 1533.09 L1212.77 1535.18 L1193.18 1535.18 Q1193.46 1539.57 1195.82 1541.89 Q1198.21 1544.18 1202.44 1544.18 Q1204.9 1544.18 1207.19 1543.58 Q1209.5 1542.98 1211.77 1541.77 L1211.77 1545.8 Q1209.48 1546.77 1207.07 1547.28 Q1204.67 1547.79 1202.19 1547.79 Q1195.99 1547.79 1192.35 1544.18 Q1188.74 1540.57 1188.74 1534.41 Q1188.74 1528.05 1192.17 1524.32 Q1195.61 1520.57 1201.45 1520.57 Q1206.68 1520.57 1209.71 1523.95 Q1212.77 1527.31 1212.77 1533.09 M1208.51 1531.84 Q1208.46 1528.35 1206.54 1526.26 Q1204.64 1524.18 1201.49 1524.18 Q1197.93 1524.18 1195.78 1526.19 Q1193.65 1528.21 1193.32 1531.87 L1208.51 1531.84 Z" fill="#000000" fill-rule="evenodd" fill-opacity="1" /><path clip-path="url(#clip330)" d="M 0 0 M1234.78 1525.18 Q1234.06 1524.76 1233.21 1524.57 Q1232.37 1524.37 1231.36 1524.37 Q1227.74 1524.37 1225.8 1526.73 Q1223.88 1529.06 1223.88 1533.46 L1223.88 1547.12 L1219.6 1547.12 L1219.6 1521.19 L1223.88 1521.19 L1223.88 1525.22 Q1225.22 1522.86 1227.37 1521.73 Q1229.53 1520.57 1232.61 1520.57 Q1233.05 1520.57 1233.58 1520.64 Q1234.11 1520.68 1234.76 1520.8 L1234.78 1525.18 Z" fill="#000000" fill-rule="evenodd" fill-opacity="1" /><path clip-path="url(#clip330)" d="M 0 0 M1255.78 1521.96 L1255.78 1525.99 Q1253.97 1525.06 1252.03 1524.6 Q1250.08 1524.13 1248 1524.13 Q1244.83 1524.13 1243.23 1525.11 Q1241.66 1526.08 1241.66 1528.02 Q1241.66 1529.5 1242.79 1530.36 Q1243.92 1531.19 1247.35 1531.96 L1248.81 1532.28 Q1253.35 1533.25 1255.24 1535.04 Q1257.17 1536.8 1257.17 1539.97 Q1257.17 1543.58 1254.3 1545.68 Q1251.45 1547.79 1246.45 1547.79 Q1244.36 1547.79 1242.1 1547.37 Q1239.85 1546.98 1237.35 1546.17 L1237.35 1541.77 Q1239.71 1543 1242 1543.62 Q1244.3 1544.23 1246.54 1544.23 Q1249.55 1544.23 1251.17 1543.21 Q1252.79 1542.17 1252.79 1540.29 Q1252.79 1538.56 1251.61 1537.63 Q1250.45 1536.7 1246.49 1535.85 L1245.01 1535.5 Q1241.05 1534.67 1239.3 1532.95 Q1237.54 1531.22 1237.54 1528.21 Q1237.54 1524.55 1240.13 1522.56 Q1242.72 1520.57 1247.49 1520.57 Q1249.85 1520.57 1251.93 1520.92 Q1254.02 1521.26 1255.78 1521.96 Z" fill="#000000" fill-rule="evenodd" fill-opacity="1" /><path clip-path="url(#clip330)" d="M 0 0 M1263.95 1521.19 L1268.21 1521.19 L1268.21 1547.12 L1263.95 1547.12 L1263.95 1521.19 M1263.95 1511.1 L1268.21 1511.1 L1268.21 1516.5 L1263.95 1516.5 L1263.95 1511.1 Z" fill="#000000" fill-rule="evenodd" fill-opacity="1" /><path clip-path="url(#clip330)" d="M 0 0 M1295.78 1522.19 L1295.78 1526.17 Q1293.97 1525.18 1292.14 1524.69 Q1290.34 1524.18 1288.48 1524.18 Q1284.34 1524.18 1282.05 1526.82 Q1279.76 1529.43 1279.76 1534.18 Q1279.76 1538.93 1282.05 1541.56 Q1284.34 1544.18 1288.48 1544.18 Q1290.34 1544.18 1292.14 1543.69 Q1293.97 1543.18 1295.78 1542.19 L1295.78 1546.12 Q1293.99 1546.96 1292.07 1547.37 Q1290.17 1547.79 1288.02 1547.79 Q1282.17 1547.79 1278.72 1544.11 Q1275.27 1540.43 1275.27 1534.18 Q1275.27 1527.84 1278.74 1524.2 Q1282.23 1520.57 1288.3 1520.57 Q1290.27 1520.57 1292.14 1520.99 Q1294.02 1521.38 1295.78 1522.19 Z" fill="#000000" fill-rule="evenodd" fill-opacity="1" /><path clip-path="url(#clip330)" d="M 0 0 M1313.23 1524.18 Q1309.8 1524.18 1307.81 1526.87 Q1305.82 1529.53 1305.82 1534.18 Q1305.82 1538.83 1307.79 1541.52 Q1309.78 1544.18 1313.23 1544.18 Q1316.63 1544.18 1318.62 1541.49 Q1320.61 1538.81 1320.61 1534.18 Q1320.61 1529.57 1318.62 1526.89 Q1316.63 1524.18 1313.23 1524.18 M1313.23 1520.57 Q1318.79 1520.57 1321.96 1524.18 Q1325.13 1527.79 1325.13 1534.18 Q1325.13 1540.55 1321.96 1544.18 Q1318.79 1547.79 1313.23 1547.79 Q1307.65 1547.79 1304.48 1544.18 Q1301.33 1540.55 1301.33 1534.18 Q1301.33 1527.79 1304.48 1524.18 Q1307.65 1520.57 1313.23 1520.57 Z" fill="#000000" fill-rule="evenodd" fill-opacity="1" /><path clip-path="url(#clip330)" d="M 0 0 M1332.19 1511.1 L1336.45 1511.1 L1336.45 1547.12 L1332.19 1547.12 L1332.19 1511.1 Z" fill="#000000" fill-rule="evenodd" fill-opacity="1" /><path clip-path="url(#clip330)" d="M 0 0 M1355.41 1524.18 Q1351.98 1524.18 1349.99 1526.87 Q1348 1529.53 1348 1534.18 Q1348 1538.83 1349.97 1541.52 Q1351.96 1544.18 1355.41 1544.18 Q1358.81 1544.18 1360.8 1541.49 Q1362.79 1538.81 1362.79 1534.18 Q1362.79 1529.57 1360.8 1526.89 Q1358.81 1524.18 1355.41 1524.18 M1355.41 1520.57 Q1360.96 1520.57 1364.13 1524.18 Q1367.3 1527.79 1367.3 1534.18 Q1367.3 1540.55 1364.13 1544.18 Q1360.96 1547.79 1355.41 1547.79 Q1349.83 1547.79 1346.66 1544.18 Q1343.51 1540.55 1343.51 1534.18 Q1343.51 1527.79 1346.66 1524.18 Q1349.83 1520.57 1355.41 1520.57 Z" fill="#000000" fill-rule="evenodd" fill-opacity="1" /><path clip-path="url(#clip330)" d="M 0 0 M1389.39 1525.18 Q1388.67 1524.76 1387.81 1524.57 Q1386.98 1524.37 1385.96 1524.37 Q1382.35 1524.37 1380.41 1526.73 Q1378.48 1529.06 1378.48 1533.46 L1378.48 1547.12 L1374.2 1547.12 L1374.2 1521.19 L1378.48 1521.19 L1378.48 1525.22 Q1379.83 1522.86 1381.98 1521.73 Q1384.13 1520.57 1387.21 1520.57 Q1387.65 1520.57 1388.18 1520.64 Q1388.72 1520.68 1389.36 1520.8 L1389.39 1525.18 Z" fill="#000000" fill-rule="evenodd" fill-opacity="1" /><path clip-path="url(#clip330)" d="M 0 0 M1804.8 1512.56 L1809.47 1512.56 L1809.47 1547.12 L1804.8 1547.12 L1804.8 1512.56 Z" fill="#000000" fill-rule="evenodd" fill-opacity="1" /><path clip-path="url(#clip330)" d="M 0 0 M1833.62 1525.18 Q1832.9 1524.76 1832.04 1524.57 Q1831.21 1524.37 1830.19 1524.37 Q1826.58 1524.37 1824.64 1526.73 Q1822.72 1529.06 1822.72 1533.46 L1822.72 1547.12 L1818.43 1547.12 L1818.43 1521.19 L1822.72 1521.19 L1822.72 1525.22 Q1824.06 1522.86 1826.21 1521.73 Q1828.36 1520.57 1831.44 1520.57 Q1831.88 1520.57 1832.41 1520.64 Q1832.95 1520.68 1833.59 1520.8 L1833.62 1525.18 Z" fill="#000000" fill-rule="evenodd" fill-opacity="1" /><path clip-path="url(#clip330)" d="M 0 0 M1838.09 1521.19 L1842.34 1521.19 L1842.34 1547.12 L1838.09 1547.12 L1838.09 1521.19 M1838.09 1511.1 L1842.34 1511.1 L1842.34 1516.5 L1838.09 1516.5 L1838.09 1511.1 Z" fill="#000000" fill-rule="evenodd" fill-opacity="1" /><path clip-path="url(#clip330)" d="M 0 0 M1867.78 1521.96 L1867.78 1525.99 Q1865.98 1525.06 1864.03 1524.6 Q1862.09 1524.13 1860.01 1524.13 Q1856.84 1524.13 1855.24 1525.11 Q1853.66 1526.08 1853.66 1528.02 Q1853.66 1529.5 1854.8 1530.36 Q1855.93 1531.19 1859.36 1531.96 L1860.82 1532.28 Q1865.35 1533.25 1867.25 1535.04 Q1869.17 1536.8 1869.17 1539.97 Q1869.17 1543.58 1866.3 1545.68 Q1863.46 1547.79 1858.46 1547.79 Q1856.37 1547.79 1854.1 1547.37 Q1851.86 1546.98 1849.36 1546.17 L1849.36 1541.77 Q1851.72 1543 1854.01 1543.62 Q1856.3 1544.23 1858.55 1544.23 Q1861.56 1544.23 1863.18 1543.21 Q1864.8 1542.17 1864.8 1540.29 Q1864.8 1538.56 1863.62 1537.63 Q1862.46 1536.7 1858.5 1535.85 L1857.02 1535.5 Q1853.06 1534.67 1851.3 1532.95 Q1849.54 1531.22 1849.54 1528.21 Q1849.54 1524.55 1852.14 1522.56 Q1854.73 1520.57 1859.5 1520.57 Q1861.86 1520.57 1863.94 1520.92 Q1866.03 1521.26 1867.78 1521.96 Z" fill="#000000" fill-rule="evenodd" fill-opacity="1" /><path clip-path="url(#clip330)" d="M 0 0 M1873.8 1532.24 L1886.28 1532.24 L1886.28 1536.03 L1873.8 1536.03 L1873.8 1532.24 Z" fill="#000000" fill-rule="evenodd" fill-opacity="1" /><path clip-path="url(#clip330)" d="M 0 0 M1888.73 1521.19 L1893.25 1521.19 L1901.35 1542.95 L1909.45 1521.19 L1913.96 1521.19 L1904.24 1547.12 L1898.46 1547.12 L1888.73 1521.19 Z" fill="#000000" fill-rule="evenodd" fill-opacity="1" /><path clip-path="url(#clip330)" d="M 0 0 M1919.84 1521.19 L1924.1 1521.19 L1924.1 1547.12 L1919.84 1547.12 L1919.84 1521.19 M1919.84 1511.1 L1924.1 1511.1 L1924.1 1516.5 L1919.84 1516.5 L1919.84 1511.1 Z" fill="#000000" fill-rule="evenodd" fill-opacity="1" /><path clip-path="url(#clip330)" d="M 0 0 M1948.04 1525.18 Q1947.32 1524.76 1946.46 1524.57 Q1945.63 1524.37 1944.61 1524.37 Q1941 1524.37 1939.06 1526.73 Q1937.14 1529.06 1937.14 1533.46 L1937.14 1547.12 L1932.85 1547.12 L1932.85 1521.19 L1937.14 1521.19 L1937.14 1525.22 Q1938.48 1522.86 1940.63 1521.73 Q1942.78 1520.57 1945.86 1520.57 Q1946.3 1520.57 1946.84 1520.64 Q1947.37 1520.68 1948.02 1520.8 L1948.04 1525.18 Z" fill="#000000" fill-rule="evenodd" fill-opacity="1" /><path clip-path="url(#clip330)" d="M 0 0 M1968.73 1533.86 Q1968.73 1529.23 1966.81 1526.68 Q1964.91 1524.13 1961.46 1524.13 Q1958.04 1524.13 1956.12 1526.68 Q1954.22 1529.23 1954.22 1533.86 Q1954.22 1538.46 1956.12 1541.01 Q1958.04 1543.56 1961.46 1543.56 Q1964.91 1543.56 1966.81 1541.01 Q1968.73 1538.46 1968.73 1533.86 M1972.99 1543.9 Q1972.99 1550.52 1970.05 1553.74 Q1967.11 1556.98 1961.05 1556.98 Q1958.8 1556.98 1956.81 1556.63 Q1954.82 1556.31 1952.95 1555.62 L1952.95 1551.47 Q1954.82 1552.49 1956.65 1552.98 Q1958.48 1553.46 1960.38 1553.46 Q1964.57 1553.46 1966.65 1551.26 Q1968.73 1549.09 1968.73 1544.67 L1968.73 1542.56 Q1967.41 1544.85 1965.35 1545.99 Q1963.29 1547.12 1960.42 1547.12 Q1955.65 1547.12 1952.74 1543.49 Q1949.82 1539.85 1949.82 1533.86 Q1949.82 1527.84 1952.74 1524.2 Q1955.65 1520.57 1960.42 1520.57 Q1963.29 1520.57 1965.35 1521.7 Q1967.41 1522.84 1968.73 1525.13 L1968.73 1521.19 L1972.99 1521.19 L1972.99 1543.9 Z" fill="#000000" fill-rule="evenodd" fill-opacity="1" /><path clip-path="url(#clip330)" d="M 0 0 M1981.77 1521.19 L1986.02 1521.19 L1986.02 1547.12 L1981.77 1547.12 L1981.77 1521.19 M1981.77 1511.1 L1986.02 1511.1 L1986.02 1516.5 L1981.77 1516.5 L1981.77 1511.1 Z" fill="#000000" fill-rule="evenodd" fill-opacity="1" /><path clip-path="url(#clip330)" d="M 0 0 M2016.49 1531.47 L2016.49 1547.12 L2012.23 1547.12 L2012.23 1531.61 Q2012.23 1527.93 2010.79 1526.1 Q2009.36 1524.27 2006.49 1524.27 Q2003.04 1524.27 2001.05 1526.47 Q1999.06 1528.67 1999.06 1532.47 L1999.06 1547.12 L1994.77 1547.12 L1994.77 1521.19 L1999.06 1521.19 L1999.06 1525.22 Q2000.58 1522.88 2002.65 1521.73 Q2004.73 1520.57 2007.44 1520.57 Q2011.9 1520.57 2014.2 1523.35 Q2016.49 1526.1 2016.49 1531.47 Z" fill="#000000" fill-rule="evenodd" fill-opacity="1" /><path clip-path="url(#clip330)" d="M 0 0 M2024.98 1521.19 L2029.24 1521.19 L2029.24 1547.12 L2024.98 1547.12 L2024.98 1521.19 M2024.98 1511.1 L2029.24 1511.1 L2029.24 1516.5 L2024.98 1516.5 L2024.98 1511.1 Z" fill="#000000" fill-rule="evenodd" fill-opacity="1" /><path clip-path="url(#clip330)" d="M 0 0 M2056.81 1522.19 L2056.81 1526.17 Q2055.01 1525.18 2053.18 1524.69 Q2051.37 1524.18 2049.52 1524.18 Q2045.38 1524.18 2043.08 1526.82 Q2040.79 1529.43 2040.79 1534.18 Q2040.79 1538.93 2043.08 1541.56 Q2045.38 1544.18 2049.52 1544.18 Q2051.37 1544.18 2053.18 1543.69 Q2055.01 1543.18 2056.81 1542.19 L2056.81 1546.12 Q2055.03 1546.96 2053.11 1547.37 Q2051.21 1547.79 2049.06 1547.79 Q2043.2 1547.79 2039.75 1544.11 Q2036.3 1540.43 2036.3 1534.18 Q2036.3 1527.84 2039.77 1524.2 Q2043.27 1520.57 2049.33 1520.57 Q2051.3 1520.57 2053.18 1520.99 Q2055.05 1521.38 2056.81 1522.19 Z" fill="#000000" fill-rule="evenodd" fill-opacity="1" /><path clip-path="url(#clip330)" d="M 0 0 M2076 1534.09 Q2070.84 1534.09 2068.85 1535.27 Q2066.86 1536.45 2066.86 1539.3 Q2066.86 1541.56 2068.34 1542.91 Q2069.84 1544.23 2072.41 1544.23 Q2075.95 1544.23 2078.08 1541.73 Q2080.24 1539.2 2080.24 1535.04 L2080.24 1534.09 L2076 1534.09 M2084.5 1532.33 L2084.5 1547.12 L2080.24 1547.12 L2080.24 1543.18 Q2078.78 1545.55 2076.6 1546.68 Q2074.43 1547.79 2071.28 1547.79 Q2067.3 1547.79 2064.94 1545.57 Q2062.6 1543.32 2062.6 1539.57 Q2062.6 1535.2 2065.52 1532.98 Q2068.45 1530.75 2074.27 1530.75 L2080.24 1530.75 L2080.24 1530.34 Q2080.24 1527.4 2078.29 1525.8 Q2076.37 1524.18 2072.88 1524.18 Q2070.65 1524.18 2068.55 1524.71 Q2066.44 1525.24 2064.5 1526.31 L2064.5 1522.37 Q2066.83 1521.47 2069.03 1521.03 Q2071.23 1520.57 2073.32 1520.57 Q2078.94 1520.57 2081.72 1523.49 Q2084.5 1526.4 2084.5 1532.33 Z" fill="#000000" fill-rule="evenodd" fill-opacity="1" /><polyline clip-path="url(#clip332)" style="stroke:#000000; stroke-width:2; stroke-opacity:0.1; fill:none" points="
  112.177,1445.72 2352.76,1445.72 
  "/>
<polyline clip-path="url(#clip332)" style="stroke:#000000; stroke-width:2; stroke-opacity:0.1; fill:none" points="
  112.177,1052.17 2352.76,1052.17 
  "/>
<polyline clip-path="url(#clip332)" style="stroke:#000000; stroke-width:2; stroke-opacity:0.1; fill:none" points="
  112.177,658.62 2352.76,658.62 
  "/>
<polyline clip-path="url(#clip332)" style="stroke:#000000; stroke-width:2; stroke-opacity:0.1; fill:none" points="
  112.177,265.073 2352.76,265.073 
  "/>
<polyline clip-path="url(#clip330)" style="stroke:#000000; stroke-width:4; stroke-opacity:1; fill:none" points="
  112.177,1486.45 112.177,47.2441 
  "/>
<polyline clip-path="url(#clip330)" style="stroke:#000000; stroke-width:4; stroke-opacity:1; fill:none" points="
  112.177,1445.72 139.064,1445.72 
  "/>
<polyline clip-path="url(#clip330)" style="stroke:#000000; stroke-width:4; stroke-opacity:1; fill:none" points="
  112.177,1052.17 139.064,1052.17 
  "/>
<polyline clip-path="url(#clip330)" style="stroke:#000000; stroke-width:4; stroke-opacity:1; fill:none" points="
  112.177,658.62 139.064,658.62 
  "/>
<polyline clip-path="url(#clip330)" style="stroke:#000000; stroke-width:4; stroke-opacity:1; fill:none" points="
  112.177,265.073 139.064,265.073 
  "/>
<path clip-path="url(#clip330)" d="M 0 0 M64.2328 1431.51 Q60.6217 1431.51 58.793 1435.08 Q56.9875 1438.62 56.9875 1445.75 Q56.9875 1452.86 58.793 1456.42 Q60.6217 1459.96 64.2328 1459.96 Q67.867 1459.96 69.6726 1456.42 Q71.5013 1452.86 71.5013 1445.75 Q71.5013 1438.62 69.6726 1435.08 Q67.867 1431.51 64.2328 1431.51 M64.2328 1427.81 Q70.0429 1427.81 73.0985 1432.42 Q76.1772 1437 76.1772 1445.75 Q76.1772 1454.48 73.0985 1459.08 Q70.0429 1463.67 64.2328 1463.67 Q58.4226 1463.67 55.344 1459.08 Q52.2884 1454.48 52.2884 1445.75 Q52.2884 1437 55.344 1432.42 Q58.4226 1427.81 64.2328 1427.81 Z" fill="#000000" fill-rule="evenodd" fill-opacity="1" /><path clip-path="url(#clip330)" d="M 0 0 M59.8578 1065.51 L76.1772 1065.51 L76.1772 1069.45 L54.2328 1069.45 L54.2328 1065.51 Q56.8949 1062.76 61.4782 1058.13 Q66.0846 1053.48 67.2652 1052.13 Q69.5105 1049.61 70.3902 1047.87 Q71.2929 1046.11 71.2929 1044.43 Q71.2929 1041.67 69.3485 1039.93 Q67.4272 1038.2 64.3254 1038.2 Q62.1263 1038.2 59.6726 1038.96 Q57.2421 1039.73 54.4643 1041.28 L54.4643 1036.55 Q57.2884 1035.42 59.7421 1034.84 Q62.1958 1034.26 64.2328 1034.26 Q69.6031 1034.26 72.7976 1036.95 Q75.992 1039.63 75.992 1044.12 Q75.992 1046.25 75.1818 1048.18 Q74.3948 1050.07 72.2883 1052.67 Q71.7096 1053.34 68.6078 1056.55 Q65.5059 1059.75 59.8578 1065.51 Z" fill="#000000" fill-rule="evenodd" fill-opacity="1" /><path clip-path="url(#clip330)" d="M 0 0 M66.5939 645.414 L54.7884 663.863 L66.5939 663.863 L66.5939 645.414 M65.367 641.34 L71.2466 641.34 L71.2466 663.863 L76.1772 663.863 L76.1772 667.752 L71.2466 667.752 L71.2466 675.9 L66.5939 675.9 L66.5939 667.752 L50.9921 667.752 L50.9921 663.238 L65.367 641.34 Z" fill="#000000" fill-rule="evenodd" fill-opacity="1" /><path clip-path="url(#clip330)" d="M 0 0 M64.6495 263.209 Q61.5013 263.209 59.6495 265.362 Q57.8208 267.515 57.8208 271.265 Q57.8208 274.992 59.6495 277.168 Q61.5013 279.32 64.6495 279.32 Q67.7976 279.32 69.6263 277.168 Q71.4781 274.992 71.4781 271.265 Q71.4781 267.515 69.6263 265.362 Q67.7976 263.209 64.6495 263.209 M73.9318 248.557 L73.9318 252.816 Q72.1726 251.983 70.367 251.543 Q68.5846 251.103 66.8254 251.103 Q62.1958 251.103 59.7421 254.228 Q57.3115 257.353 56.9643 263.672 Q58.33 261.658 60.3902 260.594 Q62.4504 259.506 64.9272 259.506 Q70.1355 259.506 73.1448 262.677 Q76.1772 265.825 76.1772 271.265 Q76.1772 276.589 73.029 279.806 Q69.8809 283.024 64.6495 283.024 Q58.6541 283.024 55.4828 278.441 Q52.3116 273.834 52.3116 265.107 Q52.3116 256.913 56.2004 252.052 Q60.0893 247.168 66.6402 247.168 Q68.3994 247.168 70.1818 247.515 Q71.9874 247.862 73.9318 248.557 Z" fill="#000000" fill-rule="evenodd" fill-opacity="1" /><path clip-path="url(#clip332)" d="
M235.413 1170.23 L235.413 1445.72 L805.158 1445.72 L805.158 1170.23 L235.413 1170.23 L235.413 1170.23  Z
  " fill="#ffa500" fill-rule="evenodd" fill-opacity="1"/>
<polyline clip-path="url(#clip332)" style="stroke:#000000; stroke-width:4; stroke-opacity:1; fill:none" points="
  235.413,1170.23 235.413,1445.72 805.158,1445.72 805.158,1170.23 235.413,1170.23 
  "/>
<path clip-path="url(#clip332)" d="
M235.413 1170.23 L235.413 1445.72 L805.158 1445.72 L805.158 1170.23 L235.413 1170.23 L235.413 1170.23  Z
  " fill="#ffa500" fill-rule="evenodd" fill-opacity="1"/>
<polyline clip-path="url(#clip332)" style="stroke:#000000; stroke-width:4; stroke-opacity:1; fill:none" points="
  235.413,1170.23 235.413,1445.72 805.158,1445.72 805.158,1170.23 235.413,1170.23 
  "/>
<path clip-path="url(#clip332)" d="
M235.413 1189.91 L235.413 1445.72 L805.158 1445.72 L805.158 1189.91 L235.413 1189.91 L235.413 1189.91  Z
  " fill="#ffa500" fill-rule="evenodd" fill-opacity="1"/>
<polyline clip-path="url(#clip332)" style="stroke:#000000; stroke-width:4; stroke-opacity:1; fill:none" points="
  235.413,1189.91 235.413,1445.72 805.158,1445.72 805.158,1189.91 235.413,1189.91 
  "/>
<path clip-path="url(#clip332)" d="
M235.413 1150.55 L235.413 1445.72 L805.158 1445.72 L805.158 1150.55 L235.413 1150.55 L235.413 1150.55  Z
  " fill="#ffa500" fill-rule="evenodd" fill-opacity="1"/>
<polyline clip-path="url(#clip332)" style="stroke:#000000; stroke-width:4; stroke-opacity:1; fill:none" points="
  235.413,1150.55 235.413,1445.72 805.158,1445.72 805.158,1150.55 235.413,1150.55 
  "/>
<path clip-path="url(#clip332)" d="
M235.413 1170.23 L235.413 1445.72 L805.158 1445.72 L805.158 1170.23 L235.413 1170.23 L235.413 1170.23  Z
  " fill="#ffa500" fill-rule="evenodd" fill-opacity="1"/>
<polyline clip-path="url(#clip332)" style="stroke:#000000; stroke-width:4; stroke-opacity:1; fill:none" points="
  235.413,1170.23 235.413,1445.72 805.158,1445.72 805.158,1170.23 235.413,1170.23 
  "/>
<path clip-path="url(#clip332)" d="
M235.413 1111.2 L235.413 1445.72 L805.158 1445.72 L805.158 1111.2 L235.413 1111.2 L235.413 1111.2  Z
  " fill="#ffa500" fill-rule="evenodd" fill-opacity="1"/>
<polyline clip-path="url(#clip332)" style="stroke:#000000; stroke-width:4; stroke-opacity:1; fill:none" points="
  235.413,1111.2 235.413,1445.72 805.158,1445.72 805.158,1111.2 235.413,1111.2 
  "/>
<path clip-path="url(#clip332)" d="
M235.413 1170.23 L235.413 1445.72 L805.158 1445.72 L805.158 1170.23 L235.413 1170.23 L235.413 1170.23  Z
  " fill="#ffa500" fill-rule="evenodd" fill-opacity="1"/>
<polyline clip-path="url(#clip332)" style="stroke:#000000; stroke-width:4; stroke-opacity:1; fill:none" points="
  235.413,1170.23 235.413,1445.72 805.158,1445.72 805.158,1170.23 235.413,1170.23 
  "/>
<path clip-path="url(#clip332)" d="
M235.413 1150.55 L235.413 1445.72 L805.158 1445.72 L805.158 1150.55 L235.413 1150.55 L235.413 1150.55  Z
  " fill="#ffa500" fill-rule="evenodd" fill-opacity="1"/>
<polyline clip-path="url(#clip332)" style="stroke:#000000; stroke-width:4; stroke-opacity:1; fill:none" points="
  235.413,1150.55 235.413,1445.72 805.158,1445.72 805.158,1150.55 235.413,1150.55 
  "/>
<path clip-path="url(#clip332)" d="
M235.413 1170.23 L235.413 1445.72 L805.158 1445.72 L805.158 1170.23 L235.413 1170.23 L235.413 1170.23  Z
  " fill="#ffa500" fill-rule="evenodd" fill-opacity="1"/>
<polyline clip-path="url(#clip332)" style="stroke:#000000; stroke-width:4; stroke-opacity:1; fill:none" points="
  235.413,1170.23 235.413,1445.72 805.158,1445.72 805.158,1170.23 235.413,1170.23 
  "/>
<path clip-path="url(#clip332)" d="
M235.413 1150.55 L235.413 1445.72 L805.158 1445.72 L805.158 1150.55 L235.413 1150.55 L235.413 1150.55  Z
  " fill="#ffa500" fill-rule="evenodd" fill-opacity="1"/>
<polyline clip-path="url(#clip332)" style="stroke:#000000; stroke-width:4; stroke-opacity:1; fill:none" points="
  235.413,1150.55 235.413,1445.72 805.158,1445.72 805.158,1150.55 235.413,1150.55 
  "/>
<path clip-path="url(#clip332)" d="
M235.413 1150.55 L235.413 1445.72 L805.158 1445.72 L805.158 1150.55 L235.413 1150.55 L235.413 1150.55  Z
  " fill="#ffa500" fill-rule="evenodd" fill-opacity="1"/>
<polyline clip-path="url(#clip332)" style="stroke:#000000; stroke-width:4; stroke-opacity:1; fill:none" points="
  235.413,1150.55 235.413,1445.72 805.158,1445.72 805.158,1150.55 235.413,1150.55 
  "/>
<path clip-path="url(#clip332)" d="
M235.413 1130.88 L235.413 1445.72 L805.158 1445.72 L805.158 1130.88 L235.413 1130.88 L235.413 1130.88  Z
  " fill="#ffa500" fill-rule="evenodd" fill-opacity="1"/>
<polyline clip-path="url(#clip332)" style="stroke:#000000; stroke-width:4; stroke-opacity:1; fill:none" points="
  235.413,1130.88 235.413,1445.72 805.158,1445.72 805.158,1130.88 235.413,1130.88 
  "/>
<path clip-path="url(#clip332)" d="
M235.413 1170.23 L235.413 1445.72 L805.158 1445.72 L805.158 1170.23 L235.413 1170.23 L235.413 1170.23  Z
  " fill="#ffa500" fill-rule="evenodd" fill-opacity="1"/>
<polyline clip-path="url(#clip332)" style="stroke:#000000; stroke-width:4; stroke-opacity:1; fill:none" points="
  235.413,1170.23 235.413,1445.72 805.158,1445.72 805.158,1170.23 235.413,1170.23 
  "/>
<path clip-path="url(#clip332)" d="
M235.413 1229.26 L235.413 1445.72 L805.158 1445.72 L805.158 1229.26 L235.413 1229.26 L235.413 1229.26  Z
  " fill="#ffa500" fill-rule="evenodd" fill-opacity="1"/>
<polyline clip-path="url(#clip332)" style="stroke:#000000; stroke-width:4; stroke-opacity:1; fill:none" points="
  235.413,1229.26 235.413,1445.72 805.158,1445.72 805.158,1229.26 235.413,1229.26 
  "/>
<path clip-path="url(#clip332)" d="
M235.413 1209.59 L235.413 1445.72 L805.158 1445.72 L805.158 1209.59 L235.413 1209.59 L235.413 1209.59  Z
  " fill="#ffa500" fill-rule="evenodd" fill-opacity="1"/>
<polyline clip-path="url(#clip332)" style="stroke:#000000; stroke-width:4; stroke-opacity:1; fill:none" points="
  235.413,1209.59 235.413,1445.72 805.158,1445.72 805.158,1209.59 235.413,1209.59 
  "/>
<path clip-path="url(#clip332)" d="
M235.413 1150.55 L235.413 1445.72 L805.158 1445.72 L805.158 1150.55 L235.413 1150.55 L235.413 1150.55  Z
  " fill="#ffa500" fill-rule="evenodd" fill-opacity="1"/>
<polyline clip-path="url(#clip332)" style="stroke:#000000; stroke-width:4; stroke-opacity:1; fill:none" points="
  235.413,1150.55 235.413,1445.72 805.158,1445.72 805.158,1150.55 235.413,1150.55 
  "/>
<path clip-path="url(#clip332)" d="
M235.413 1189.91 L235.413 1445.72 L805.158 1445.72 L805.158 1189.91 L235.413 1189.91 L235.413 1189.91  Z
  " fill="#ffa500" fill-rule="evenodd" fill-opacity="1"/>
<polyline clip-path="url(#clip332)" style="stroke:#000000; stroke-width:4; stroke-opacity:1; fill:none" points="
  235.413,1189.91 235.413,1445.72 805.158,1445.72 805.158,1189.91 235.413,1189.91 
  "/>
<path clip-path="url(#clip332)" d="
M235.413 1170.23 L235.413 1445.72 L805.158 1445.72 L805.158 1170.23 L235.413 1170.23 L235.413 1170.23  Z
  " fill="#ffa500" fill-rule="evenodd" fill-opacity="1"/>
<polyline clip-path="url(#clip332)" style="stroke:#000000; stroke-width:4; stroke-opacity:1; fill:none" points="
  235.413,1170.23 235.413,1445.72 805.158,1445.72 805.158,1170.23 235.413,1170.23 
  "/>
<path clip-path="url(#clip332)" d="
M235.413 1111.2 L235.413 1445.72 L805.158 1445.72 L805.158 1111.2 L235.413 1111.2 L235.413 1111.2  Z
  " fill="#ffa500" fill-rule="evenodd" fill-opacity="1"/>
<polyline clip-path="url(#clip332)" style="stroke:#000000; stroke-width:4; stroke-opacity:1; fill:none" points="
  235.413,1111.2 235.413,1445.72 805.158,1445.72 805.158,1111.2 235.413,1111.2 
  "/>
<path clip-path="url(#clip332)" d="
M235.413 1150.55 L235.413 1445.72 L805.158 1445.72 L805.158 1150.55 L235.413 1150.55 L235.413 1150.55  Z
  " fill="#ffa500" fill-rule="evenodd" fill-opacity="1"/>
<polyline clip-path="url(#clip332)" style="stroke:#000000; stroke-width:4; stroke-opacity:1; fill:none" points="
  235.413,1150.55 235.413,1445.72 805.158,1445.72 805.158,1150.55 235.413,1150.55 
  "/>
<path clip-path="url(#clip332)" d="
M235.413 1111.2 L235.413 1445.72 L805.158 1445.72 L805.158 1111.2 L235.413 1111.2 L235.413 1111.2  Z
  " fill="#ffa500" fill-rule="evenodd" fill-opacity="1"/>
<polyline clip-path="url(#clip332)" style="stroke:#000000; stroke-width:4; stroke-opacity:1; fill:none" points="
  235.413,1111.2 235.413,1445.72 805.158,1445.72 805.158,1111.2 235.413,1111.2 
  "/>
<path clip-path="url(#clip332)" d="
M235.413 1150.55 L235.413 1445.72 L805.158 1445.72 L805.158 1150.55 L235.413 1150.55 L235.413 1150.55  Z
  " fill="#ffa500" fill-rule="evenodd" fill-opacity="1"/>
<polyline clip-path="url(#clip332)" style="stroke:#000000; stroke-width:4; stroke-opacity:1; fill:none" points="
  235.413,1150.55 235.413,1445.72 805.158,1445.72 805.158,1150.55 235.413,1150.55 
  "/>
<path clip-path="url(#clip332)" d="
M235.413 1248.94 L235.413 1445.72 L805.158 1445.72 L805.158 1248.94 L235.413 1248.94 L235.413 1248.94  Z
  " fill="#ffa500" fill-rule="evenodd" fill-opacity="1"/>
<polyline clip-path="url(#clip332)" style="stroke:#000000; stroke-width:4; stroke-opacity:1; fill:none" points="
  235.413,1248.94 235.413,1445.72 805.158,1445.72 805.158,1248.94 235.413,1248.94 
  "/>
<path clip-path="url(#clip332)" d="
M235.413 1111.2 L235.413 1445.72 L805.158 1445.72 L805.158 1111.2 L235.413 1111.2 L235.413 1111.2  Z
  " fill="#ffa500" fill-rule="evenodd" fill-opacity="1"/>
<polyline clip-path="url(#clip332)" style="stroke:#000000; stroke-width:4; stroke-opacity:1; fill:none" points="
  235.413,1111.2 235.413,1445.72 805.158,1445.72 805.158,1111.2 235.413,1111.2 
  "/>
<path clip-path="url(#clip332)" d="
M235.413 1071.85 L235.413 1445.72 L805.158 1445.72 L805.158 1071.85 L235.413 1071.85 L235.413 1071.85  Z
  " fill="#ffa500" fill-rule="evenodd" fill-opacity="1"/>
<polyline clip-path="url(#clip332)" style="stroke:#000000; stroke-width:4; stroke-opacity:1; fill:none" points="
  235.413,1071.85 235.413,1445.72 805.158,1445.72 805.158,1071.85 235.413,1071.85 
  "/>
<path clip-path="url(#clip332)" d="
M235.413 1130.88 L235.413 1445.72 L805.158 1445.72 L805.158 1130.88 L235.413 1130.88 L235.413 1130.88  Z
  " fill="#ffa500" fill-rule="evenodd" fill-opacity="1"/>
<polyline clip-path="url(#clip332)" style="stroke:#000000; stroke-width:4; stroke-opacity:1; fill:none" points="
  235.413,1130.88 235.413,1445.72 805.158,1445.72 805.158,1130.88 235.413,1130.88 
  "/>
<path clip-path="url(#clip332)" d="
M235.413 1130.88 L235.413 1445.72 L805.158 1445.72 L805.158 1130.88 L235.413 1130.88 L235.413 1130.88  Z
  " fill="#ffa500" fill-rule="evenodd" fill-opacity="1"/>
<polyline clip-path="url(#clip332)" style="stroke:#000000; stroke-width:4; stroke-opacity:1; fill:none" points="
  235.413,1130.88 235.413,1445.72 805.158,1445.72 805.158,1130.88 235.413,1130.88 
  "/>
<path clip-path="url(#clip332)" d="
M235.413 1150.55 L235.413 1445.72 L805.158 1445.72 L805.158 1150.55 L235.413 1150.55 L235.413 1150.55  Z
  " fill="#ffa500" fill-rule="evenodd" fill-opacity="1"/>
<polyline clip-path="url(#clip332)" style="stroke:#000000; stroke-width:4; stroke-opacity:1; fill:none" points="
  235.413,1150.55 235.413,1445.72 805.158,1445.72 805.158,1150.55 235.413,1150.55 
  "/>
<path clip-path="url(#clip332)" d="
M235.413 1170.23 L235.413 1445.72 L805.158 1445.72 L805.158 1170.23 L235.413 1170.23 L235.413 1170.23  Z
  " fill="#ffa500" fill-rule="evenodd" fill-opacity="1"/>
<polyline clip-path="url(#clip332)" style="stroke:#000000; stroke-width:4; stroke-opacity:1; fill:none" points="
  235.413,1170.23 235.413,1445.72 805.158,1445.72 805.158,1170.23 235.413,1170.23 
  "/>
<path clip-path="url(#clip332)" d="
M235.413 1130.88 L235.413 1445.72 L805.158 1445.72 L805.158 1130.88 L235.413 1130.88 L235.413 1130.88  Z
  " fill="#ffa500" fill-rule="evenodd" fill-opacity="1"/>
<polyline clip-path="url(#clip332)" style="stroke:#000000; stroke-width:4; stroke-opacity:1; fill:none" points="
  235.413,1130.88 235.413,1445.72 805.158,1445.72 805.158,1130.88 235.413,1130.88 
  "/>
<path clip-path="url(#clip332)" d="
M235.413 1130.88 L235.413 1445.72 L805.158 1445.72 L805.158 1130.88 L235.413 1130.88 L235.413 1130.88  Z
  " fill="#ffa500" fill-rule="evenodd" fill-opacity="1"/>
<polyline clip-path="url(#clip332)" style="stroke:#000000; stroke-width:4; stroke-opacity:1; fill:none" points="
  235.413,1130.88 235.413,1445.72 805.158,1445.72 805.158,1130.88 235.413,1130.88 
  "/>
<path clip-path="url(#clip332)" d="
M235.413 1150.55 L235.413 1445.72 L805.158 1445.72 L805.158 1150.55 L235.413 1150.55 L235.413 1150.55  Z
  " fill="#ffa500" fill-rule="evenodd" fill-opacity="1"/>
<polyline clip-path="url(#clip332)" style="stroke:#000000; stroke-width:4; stroke-opacity:1; fill:none" points="
  235.413,1150.55 235.413,1445.72 805.158,1445.72 805.158,1150.55 235.413,1150.55 
  "/>
<path clip-path="url(#clip332)" d="
M235.413 1150.55 L235.413 1445.72 L805.158 1445.72 L805.158 1150.55 L235.413 1150.55 L235.413 1150.55  Z
  " fill="#ffa500" fill-rule="evenodd" fill-opacity="1"/>
<polyline clip-path="url(#clip332)" style="stroke:#000000; stroke-width:4; stroke-opacity:1; fill:none" points="
  235.413,1150.55 235.413,1445.72 805.158,1445.72 805.158,1150.55 235.413,1150.55 
  "/>
<path clip-path="url(#clip332)" d="
M235.413 1170.23 L235.413 1445.72 L805.158 1445.72 L805.158 1170.23 L235.413 1170.23 L235.413 1170.23  Z
  " fill="#ffa500" fill-rule="evenodd" fill-opacity="1"/>
<polyline clip-path="url(#clip332)" style="stroke:#000000; stroke-width:4; stroke-opacity:1; fill:none" points="
  235.413,1170.23 235.413,1445.72 805.158,1445.72 805.158,1170.23 235.413,1170.23 
  "/>
<path clip-path="url(#clip332)" d="
M235.413 1150.55 L235.413 1445.72 L805.158 1445.72 L805.158 1150.55 L235.413 1150.55 L235.413 1150.55  Z
  " fill="#ffa500" fill-rule="evenodd" fill-opacity="1"/>
<polyline clip-path="url(#clip332)" style="stroke:#000000; stroke-width:4; stroke-opacity:1; fill:none" points="
  235.413,1150.55 235.413,1445.72 805.158,1445.72 805.158,1150.55 235.413,1150.55 
  "/>
<path clip-path="url(#clip332)" d="
M235.413 1209.59 L235.413 1445.72 L805.158 1445.72 L805.158 1209.59 L235.413 1209.59 L235.413 1209.59  Z
  " fill="#ffa500" fill-rule="evenodd" fill-opacity="1"/>
<polyline clip-path="url(#clip332)" style="stroke:#000000; stroke-width:4; stroke-opacity:1; fill:none" points="
  235.413,1209.59 235.413,1445.72 805.158,1445.72 805.158,1209.59 235.413,1209.59 
  "/>
<path clip-path="url(#clip332)" d="
M235.413 1189.91 L235.413 1445.72 L805.158 1445.72 L805.158 1189.91 L235.413 1189.91 L235.413 1189.91  Z
  " fill="#ffa500" fill-rule="evenodd" fill-opacity="1"/>
<polyline clip-path="url(#clip332)" style="stroke:#000000; stroke-width:4; stroke-opacity:1; fill:none" points="
  235.413,1189.91 235.413,1445.72 805.158,1445.72 805.158,1189.91 235.413,1189.91 
  "/>
<path clip-path="url(#clip332)" d="
M235.413 1150.55 L235.413 1445.72 L805.158 1445.72 L805.158 1150.55 L235.413 1150.55 L235.413 1150.55  Z
  " fill="#ffa500" fill-rule="evenodd" fill-opacity="1"/>
<polyline clip-path="url(#clip332)" style="stroke:#000000; stroke-width:4; stroke-opacity:1; fill:none" points="
  235.413,1150.55 235.413,1445.72 805.158,1445.72 805.158,1150.55 235.413,1150.55 
  "/>
<path clip-path="url(#clip332)" d="
M235.413 1189.91 L235.413 1445.72 L805.158 1445.72 L805.158 1189.91 L235.413 1189.91 L235.413 1189.91  Z
  " fill="#ffa500" fill-rule="evenodd" fill-opacity="1"/>
<polyline clip-path="url(#clip332)" style="stroke:#000000; stroke-width:4; stroke-opacity:1; fill:none" points="
  235.413,1189.91 235.413,1445.72 805.158,1445.72 805.158,1189.91 235.413,1189.91 
  "/>
<path clip-path="url(#clip332)" d="
M235.413 1150.55 L235.413 1445.72 L805.158 1445.72 L805.158 1150.55 L235.413 1150.55 L235.413 1150.55  Z
  " fill="#ffa500" fill-rule="evenodd" fill-opacity="1"/>
<polyline clip-path="url(#clip332)" style="stroke:#000000; stroke-width:4; stroke-opacity:1; fill:none" points="
  235.413,1150.55 235.413,1445.72 805.158,1445.72 805.158,1150.55 235.413,1150.55 
  "/>
<path clip-path="url(#clip332)" d="
M235.413 1189.91 L235.413 1445.72 L805.158 1445.72 L805.158 1189.91 L235.413 1189.91 L235.413 1189.91  Z
  " fill="#ffa500" fill-rule="evenodd" fill-opacity="1"/>
<polyline clip-path="url(#clip332)" style="stroke:#000000; stroke-width:4; stroke-opacity:1; fill:none" points="
  235.413,1189.91 235.413,1445.72 805.158,1445.72 805.158,1189.91 235.413,1189.91 
  "/>
<path clip-path="url(#clip332)" d="
M235.413 1189.91 L235.413 1445.72 L805.158 1445.72 L805.158 1189.91 L235.413 1189.91 L235.413 1189.91  Z
  " fill="#ffa500" fill-rule="evenodd" fill-opacity="1"/>
<polyline clip-path="url(#clip332)" style="stroke:#000000; stroke-width:4; stroke-opacity:1; fill:none" points="
  235.413,1189.91 235.413,1445.72 805.158,1445.72 805.158,1189.91 235.413,1189.91 
  "/>
<path clip-path="url(#clip332)" d="
M235.413 1189.91 L235.413 1445.72 L805.158 1445.72 L805.158 1189.91 L235.413 1189.91 L235.413 1189.91  Z
  " fill="#ffa500" fill-rule="evenodd" fill-opacity="1"/>
<polyline clip-path="url(#clip332)" style="stroke:#000000; stroke-width:4; stroke-opacity:1; fill:none" points="
  235.413,1189.91 235.413,1445.72 805.158,1445.72 805.158,1189.91 235.413,1189.91 
  "/>
<path clip-path="url(#clip332)" d="
M235.413 1130.88 L235.413 1445.72 L805.158 1445.72 L805.158 1130.88 L235.413 1130.88 L235.413 1130.88  Z
  " fill="#ffa500" fill-rule="evenodd" fill-opacity="1"/>
<polyline clip-path="url(#clip332)" style="stroke:#000000; stroke-width:4; stroke-opacity:1; fill:none" points="
  235.413,1130.88 235.413,1445.72 805.158,1445.72 805.158,1130.88 235.413,1130.88 
  "/>
<path clip-path="url(#clip332)" d="
M235.413 1071.85 L235.413 1445.72 L805.158 1445.72 L805.158 1071.85 L235.413 1071.85 L235.413 1071.85  Z
  " fill="#ffa500" fill-rule="evenodd" fill-opacity="1"/>
<polyline clip-path="url(#clip332)" style="stroke:#000000; stroke-width:4; stroke-opacity:1; fill:none" points="
  235.413,1071.85 235.413,1445.72 805.158,1445.72 805.158,1071.85 235.413,1071.85 
  "/>
<path clip-path="url(#clip332)" d="
M235.413 1170.23 L235.413 1445.72 L805.158 1445.72 L805.158 1170.23 L235.413 1170.23 L235.413 1170.23  Z
  " fill="#ffa500" fill-rule="evenodd" fill-opacity="1"/>
<polyline clip-path="url(#clip332)" style="stroke:#000000; stroke-width:4; stroke-opacity:1; fill:none" points="
  235.413,1170.23 235.413,1445.72 805.158,1445.72 805.158,1170.23 235.413,1170.23 
  "/>
<path clip-path="url(#clip332)" d="
M235.413 1130.88 L235.413 1445.72 L805.158 1445.72 L805.158 1130.88 L235.413 1130.88 L235.413 1130.88  Z
  " fill="#ffa500" fill-rule="evenodd" fill-opacity="1"/>
<polyline clip-path="url(#clip332)" style="stroke:#000000; stroke-width:4; stroke-opacity:1; fill:none" points="
  235.413,1130.88 235.413,1445.72 805.158,1445.72 805.158,1130.88 235.413,1130.88 
  "/>
<path clip-path="url(#clip332)" d="
M235.413 1170.23 L235.413 1445.72 L805.158 1445.72 L805.158 1170.23 L235.413 1170.23 L235.413 1170.23  Z
  " fill="#ffa500" fill-rule="evenodd" fill-opacity="1"/>
<polyline clip-path="url(#clip332)" style="stroke:#000000; stroke-width:4; stroke-opacity:1; fill:none" points="
  235.413,1170.23 235.413,1445.72 805.158,1445.72 805.158,1170.23 235.413,1170.23 
  "/>
<path clip-path="url(#clip332)" d="
M235.413 1150.55 L235.413 1445.72 L805.158 1445.72 L805.158 1150.55 L235.413 1150.55 L235.413 1150.55  Z
  " fill="#ffa500" fill-rule="evenodd" fill-opacity="1"/>
<polyline clip-path="url(#clip332)" style="stroke:#000000; stroke-width:4; stroke-opacity:1; fill:none" points="
  235.413,1150.55 235.413,1445.72 805.158,1445.72 805.158,1150.55 235.413,1150.55 
  "/>
<path clip-path="url(#clip332)" d="
M235.413 1170.23 L235.413 1445.72 L805.158 1445.72 L805.158 1170.23 L235.413 1170.23 L235.413 1170.23  Z
  " fill="#ffa500" fill-rule="evenodd" fill-opacity="1"/>
<polyline clip-path="url(#clip332)" style="stroke:#000000; stroke-width:4; stroke-opacity:1; fill:none" points="
  235.413,1170.23 235.413,1445.72 805.158,1445.72 805.158,1170.23 235.413,1170.23 
  "/>
<path clip-path="url(#clip332)" d="
M947.594 520.879 L947.594 1445.72 L1517.34 1445.72 L1517.34 520.879 L947.594 520.879 L947.594 520.879  Z
  " fill="#ffa500" fill-rule="evenodd" fill-opacity="1"/>
<polyline clip-path="url(#clip332)" style="stroke:#000000; stroke-width:4; stroke-opacity:1; fill:none" points="
  947.594,520.879 947.594,1445.72 1517.34,1445.72 1517.34,520.879 947.594,520.879 
  "/>
<path clip-path="url(#clip332)" d="
M947.594 560.233 L947.594 1445.72 L1517.34 1445.72 L1517.34 560.233 L947.594 560.233 L947.594 560.233  Z
  " fill="#ffa500" fill-rule="evenodd" fill-opacity="1"/>
<polyline clip-path="url(#clip332)" style="stroke:#000000; stroke-width:4; stroke-opacity:1; fill:none" points="
  947.594,560.233 947.594,1445.72 1517.34,1445.72 1517.34,560.233 947.594,560.233 
  "/>
<path clip-path="url(#clip332)" d="
M947.594 481.524 L947.594 1445.72 L1517.34 1445.72 L1517.34 481.524 L947.594 481.524 L947.594 481.524  Z
  " fill="#ffa500" fill-rule="evenodd" fill-opacity="1"/>
<polyline clip-path="url(#clip332)" style="stroke:#000000; stroke-width:4; stroke-opacity:1; fill:none" points="
  947.594,481.524 947.594,1445.72 1517.34,1445.72 1517.34,481.524 947.594,481.524 
  "/>
<path clip-path="url(#clip332)" d="
M947.594 658.62 L947.594 1445.72 L1517.34 1445.72 L1517.34 658.62 L947.594 658.62 L947.594 658.62  Z
  " fill="#ffa500" fill-rule="evenodd" fill-opacity="1"/>
<polyline clip-path="url(#clip332)" style="stroke:#000000; stroke-width:4; stroke-opacity:1; fill:none" points="
  947.594,658.62 947.594,1445.72 1517.34,1445.72 1517.34,658.62 947.594,658.62 
  "/>
<path clip-path="url(#clip332)" d="
M947.594 540.556 L947.594 1445.72 L1517.34 1445.72 L1517.34 540.556 L947.594 540.556 L947.594 540.556  Z
  " fill="#ffa500" fill-rule="evenodd" fill-opacity="1"/>
<polyline clip-path="url(#clip332)" style="stroke:#000000; stroke-width:4; stroke-opacity:1; fill:none" points="
  947.594,540.556 947.594,1445.72 1517.34,1445.72 1517.34,540.556 947.594,540.556 
  "/>
<path clip-path="url(#clip332)" d="
M947.594 560.233 L947.594 1445.72 L1517.34 1445.72 L1517.34 560.233 L947.594 560.233 L947.594 560.233  Z
  " fill="#ffa500" fill-rule="evenodd" fill-opacity="1"/>
<polyline clip-path="url(#clip332)" style="stroke:#000000; stroke-width:4; stroke-opacity:1; fill:none" points="
  947.594,560.233 947.594,1445.72 1517.34,1445.72 1517.34,560.233 947.594,560.233 
  "/>
<path clip-path="url(#clip332)" d="
M947.594 520.879 L947.594 1445.72 L1517.34 1445.72 L1517.34 520.879 L947.594 520.879 L947.594 520.879  Z
  " fill="#ffa500" fill-rule="evenodd" fill-opacity="1"/>
<polyline clip-path="url(#clip332)" style="stroke:#000000; stroke-width:4; stroke-opacity:1; fill:none" points="
  947.594,520.879 947.594,1445.72 1517.34,1445.72 1517.34,520.879 947.594,520.879 
  "/>
<path clip-path="url(#clip332)" d="
M947.594 796.362 L947.594 1445.72 L1517.34 1445.72 L1517.34 796.362 L947.594 796.362 L947.594 796.362  Z
  " fill="#ffa500" fill-rule="evenodd" fill-opacity="1"/>
<polyline clip-path="url(#clip332)" style="stroke:#000000; stroke-width:4; stroke-opacity:1; fill:none" points="
  947.594,796.362 947.594,1445.72 1517.34,1445.72 1517.34,796.362 947.594,796.362 
  "/>
<path clip-path="url(#clip332)" d="
M947.594 540.556 L947.594 1445.72 L1517.34 1445.72 L1517.34 540.556 L947.594 540.556 L947.594 540.556  Z
  " fill="#ffa500" fill-rule="evenodd" fill-opacity="1"/>
<polyline clip-path="url(#clip332)" style="stroke:#000000; stroke-width:4; stroke-opacity:1; fill:none" points="
  947.594,540.556 947.594,1445.72 1517.34,1445.72 1517.34,540.556 947.594,540.556 
  "/>
<path clip-path="url(#clip332)" d="
M947.594 678.298 L947.594 1445.72 L1517.34 1445.72 L1517.34 678.298 L947.594 678.298 L947.594 678.298  Z
  " fill="#ffa500" fill-rule="evenodd" fill-opacity="1"/>
<polyline clip-path="url(#clip332)" style="stroke:#000000; stroke-width:4; stroke-opacity:1; fill:none" points="
  947.594,678.298 947.594,1445.72 1517.34,1445.72 1517.34,678.298 947.594,678.298 
  "/>
<path clip-path="url(#clip332)" d="
M947.594 757.007 L947.594 1445.72 L1517.34 1445.72 L1517.34 757.007 L947.594 757.007 L947.594 757.007  Z
  " fill="#ffa500" fill-rule="evenodd" fill-opacity="1"/>
<polyline clip-path="url(#clip332)" style="stroke:#000000; stroke-width:4; stroke-opacity:1; fill:none" points="
  947.594,757.007 947.594,1445.72 1517.34,1445.72 1517.34,757.007 947.594,757.007 
  "/>
<path clip-path="url(#clip332)" d="
M947.594 619.266 L947.594 1445.72 L1517.34 1445.72 L1517.34 619.266 L947.594 619.266 L947.594 619.266  Z
  " fill="#ffa500" fill-rule="evenodd" fill-opacity="1"/>
<polyline clip-path="url(#clip332)" style="stroke:#000000; stroke-width:4; stroke-opacity:1; fill:none" points="
  947.594,619.266 947.594,1445.72 1517.34,1445.72 1517.34,619.266 947.594,619.266 
  "/>
<path clip-path="url(#clip332)" d="
M947.594 658.62 L947.594 1445.72 L1517.34 1445.72 L1517.34 658.62 L947.594 658.62 L947.594 658.62  Z
  " fill="#ffa500" fill-rule="evenodd" fill-opacity="1"/>
<polyline clip-path="url(#clip332)" style="stroke:#000000; stroke-width:4; stroke-opacity:1; fill:none" points="
  947.594,658.62 947.594,1445.72 1517.34,1445.72 1517.34,658.62 947.594,658.62 
  "/>
<path clip-path="url(#clip332)" d="
M947.594 520.879 L947.594 1445.72 L1517.34 1445.72 L1517.34 520.879 L947.594 520.879 L947.594 520.879  Z
  " fill="#ffa500" fill-rule="evenodd" fill-opacity="1"/>
<polyline clip-path="url(#clip332)" style="stroke:#000000; stroke-width:4; stroke-opacity:1; fill:none" points="
  947.594,520.879 947.594,1445.72 1517.34,1445.72 1517.34,520.879 947.594,520.879 
  "/>
<path clip-path="url(#clip332)" d="
M947.594 737.33 L947.594 1445.72 L1517.34 1445.72 L1517.34 737.33 L947.594 737.33 L947.594 737.33  Z
  " fill="#ffa500" fill-rule="evenodd" fill-opacity="1"/>
<polyline clip-path="url(#clip332)" style="stroke:#000000; stroke-width:4; stroke-opacity:1; fill:none" points="
  947.594,737.33 947.594,1445.72 1517.34,1445.72 1517.34,737.33 947.594,737.33 
  "/>
<path clip-path="url(#clip332)" d="
M947.594 579.911 L947.594 1445.72 L1517.34 1445.72 L1517.34 579.911 L947.594 579.911 L947.594 579.911  Z
  " fill="#ffa500" fill-rule="evenodd" fill-opacity="1"/>
<polyline clip-path="url(#clip332)" style="stroke:#000000; stroke-width:4; stroke-opacity:1; fill:none" points="
  947.594,579.911 947.594,1445.72 1517.34,1445.72 1517.34,579.911 947.594,579.911 
  "/>
<path clip-path="url(#clip332)" d="
M947.594 560.233 L947.594 1445.72 L1517.34 1445.72 L1517.34 560.233 L947.594 560.233 L947.594 560.233  Z
  " fill="#ffa500" fill-rule="evenodd" fill-opacity="1"/>
<polyline clip-path="url(#clip332)" style="stroke:#000000; stroke-width:4; stroke-opacity:1; fill:none" points="
  947.594,560.233 947.594,1445.72 1517.34,1445.72 1517.34,560.233 947.594,560.233 
  "/>
<path clip-path="url(#clip332)" d="
M947.594 638.943 L947.594 1445.72 L1517.34 1445.72 L1517.34 638.943 L947.594 638.943 L947.594 638.943  Z
  " fill="#ffa500" fill-rule="evenodd" fill-opacity="1"/>
<polyline clip-path="url(#clip332)" style="stroke:#000000; stroke-width:4; stroke-opacity:1; fill:none" points="
  947.594,638.943 947.594,1445.72 1517.34,1445.72 1517.34,638.943 947.594,638.943 
  "/>
<path clip-path="url(#clip332)" d="
M947.594 560.233 L947.594 1445.72 L1517.34 1445.72 L1517.34 560.233 L947.594 560.233 L947.594 560.233  Z
  " fill="#ffa500" fill-rule="evenodd" fill-opacity="1"/>
<polyline clip-path="url(#clip332)" style="stroke:#000000; stroke-width:4; stroke-opacity:1; fill:none" points="
  947.594,560.233 947.594,1445.72 1517.34,1445.72 1517.34,560.233 947.594,560.233 
  "/>
<path clip-path="url(#clip332)" d="
M947.594 678.298 L947.594 1445.72 L1517.34 1445.72 L1517.34 678.298 L947.594 678.298 L947.594 678.298  Z
  " fill="#ffa500" fill-rule="evenodd" fill-opacity="1"/>
<polyline clip-path="url(#clip332)" style="stroke:#000000; stroke-width:4; stroke-opacity:1; fill:none" points="
  947.594,678.298 947.594,1445.72 1517.34,1445.72 1517.34,678.298 947.594,678.298 
  "/>
<path clip-path="url(#clip332)" d="
M947.594 501.201 L947.594 1445.72 L1517.34 1445.72 L1517.34 501.201 L947.594 501.201 L947.594 501.201  Z
  " fill="#ffa500" fill-rule="evenodd" fill-opacity="1"/>
<polyline clip-path="url(#clip332)" style="stroke:#000000; stroke-width:4; stroke-opacity:1; fill:none" points="
  947.594,501.201 947.594,1445.72 1517.34,1445.72 1517.34,501.201 947.594,501.201 
  "/>
<path clip-path="url(#clip332)" d="
M947.594 658.62 L947.594 1445.72 L1517.34 1445.72 L1517.34 658.62 L947.594 658.62 L947.594 658.62  Z
  " fill="#ffa500" fill-rule="evenodd" fill-opacity="1"/>
<polyline clip-path="url(#clip332)" style="stroke:#000000; stroke-width:4; stroke-opacity:1; fill:none" points="
  947.594,658.62 947.594,1445.72 1517.34,1445.72 1517.34,658.62 947.594,658.62 
  "/>
<path clip-path="url(#clip332)" d="
M947.594 481.524 L947.594 1445.72 L1517.34 1445.72 L1517.34 481.524 L947.594 481.524 L947.594 481.524  Z
  " fill="#ffa500" fill-rule="evenodd" fill-opacity="1"/>
<polyline clip-path="url(#clip332)" style="stroke:#000000; stroke-width:4; stroke-opacity:1; fill:none" points="
  947.594,481.524 947.594,1445.72 1517.34,1445.72 1517.34,481.524 947.594,481.524 
  "/>
<path clip-path="url(#clip332)" d="
M947.594 520.879 L947.594 1445.72 L1517.34 1445.72 L1517.34 520.879 L947.594 520.879 L947.594 520.879  Z
  " fill="#ffa500" fill-rule="evenodd" fill-opacity="1"/>
<polyline clip-path="url(#clip332)" style="stroke:#000000; stroke-width:4; stroke-opacity:1; fill:none" points="
  947.594,520.879 947.594,1445.72 1517.34,1445.72 1517.34,520.879 947.594,520.879 
  "/>
<path clip-path="url(#clip332)" d="
M947.594 599.588 L947.594 1445.72 L1517.34 1445.72 L1517.34 599.588 L947.594 599.588 L947.594 599.588  Z
  " fill="#ffa500" fill-rule="evenodd" fill-opacity="1"/>
<polyline clip-path="url(#clip332)" style="stroke:#000000; stroke-width:4; stroke-opacity:1; fill:none" points="
  947.594,599.588 947.594,1445.72 1517.34,1445.72 1517.34,599.588 947.594,599.588 
  "/>
<path clip-path="url(#clip332)" d="
M947.594 579.911 L947.594 1445.72 L1517.34 1445.72 L1517.34 579.911 L947.594 579.911 L947.594 579.911  Z
  " fill="#ffa500" fill-rule="evenodd" fill-opacity="1"/>
<polyline clip-path="url(#clip332)" style="stroke:#000000; stroke-width:4; stroke-opacity:1; fill:none" points="
  947.594,579.911 947.594,1445.72 1517.34,1445.72 1517.34,579.911 947.594,579.911 
  "/>
<path clip-path="url(#clip332)" d="
M947.594 501.201 L947.594 1445.72 L1517.34 1445.72 L1517.34 501.201 L947.594 501.201 L947.594 501.201  Z
  " fill="#ffa500" fill-rule="evenodd" fill-opacity="1"/>
<polyline clip-path="url(#clip332)" style="stroke:#000000; stroke-width:4; stroke-opacity:1; fill:none" points="
  947.594,501.201 947.594,1445.72 1517.34,1445.72 1517.34,501.201 947.594,501.201 
  "/>
<path clip-path="url(#clip332)" d="
M947.594 461.847 L947.594 1445.72 L1517.34 1445.72 L1517.34 461.847 L947.594 461.847 L947.594 461.847  Z
  " fill="#ffa500" fill-rule="evenodd" fill-opacity="1"/>
<polyline clip-path="url(#clip332)" style="stroke:#000000; stroke-width:4; stroke-opacity:1; fill:none" points="
  947.594,461.847 947.594,1445.72 1517.34,1445.72 1517.34,461.847 947.594,461.847 
  "/>
<path clip-path="url(#clip332)" d="
M947.594 560.233 L947.594 1445.72 L1517.34 1445.72 L1517.34 560.233 L947.594 560.233 L947.594 560.233  Z
  " fill="#ffa500" fill-rule="evenodd" fill-opacity="1"/>
<polyline clip-path="url(#clip332)" style="stroke:#000000; stroke-width:4; stroke-opacity:1; fill:none" points="
  947.594,560.233 947.594,1445.72 1517.34,1445.72 1517.34,560.233 947.594,560.233 
  "/>
<path clip-path="url(#clip332)" d="
M947.594 757.007 L947.594 1445.72 L1517.34 1445.72 L1517.34 757.007 L947.594 757.007 L947.594 757.007  Z
  " fill="#ffa500" fill-rule="evenodd" fill-opacity="1"/>
<polyline clip-path="url(#clip332)" style="stroke:#000000; stroke-width:4; stroke-opacity:1; fill:none" points="
  947.594,757.007 947.594,1445.72 1517.34,1445.72 1517.34,757.007 947.594,757.007 
  "/>
<path clip-path="url(#clip332)" d="
M947.594 697.975 L947.594 1445.72 L1517.34 1445.72 L1517.34 697.975 L947.594 697.975 L947.594 697.975  Z
  " fill="#ffa500" fill-rule="evenodd" fill-opacity="1"/>
<polyline clip-path="url(#clip332)" style="stroke:#000000; stroke-width:4; stroke-opacity:1; fill:none" points="
  947.594,697.975 947.594,1445.72 1517.34,1445.72 1517.34,697.975 947.594,697.975 
  "/>
<path clip-path="url(#clip332)" d="
M947.594 717.653 L947.594 1445.72 L1517.34 1445.72 L1517.34 717.653 L947.594 717.653 L947.594 717.653  Z
  " fill="#ffa500" fill-rule="evenodd" fill-opacity="1"/>
<polyline clip-path="url(#clip332)" style="stroke:#000000; stroke-width:4; stroke-opacity:1; fill:none" points="
  947.594,717.653 947.594,1445.72 1517.34,1445.72 1517.34,717.653 947.594,717.653 
  "/>
<path clip-path="url(#clip332)" d="
M947.594 678.298 L947.594 1445.72 L1517.34 1445.72 L1517.34 678.298 L947.594 678.298 L947.594 678.298  Z
  " fill="#ffa500" fill-rule="evenodd" fill-opacity="1"/>
<polyline clip-path="url(#clip332)" style="stroke:#000000; stroke-width:4; stroke-opacity:1; fill:none" points="
  947.594,678.298 947.594,1445.72 1517.34,1445.72 1517.34,678.298 947.594,678.298 
  "/>
<path clip-path="url(#clip332)" d="
M947.594 442.169 L947.594 1445.72 L1517.34 1445.72 L1517.34 442.169 L947.594 442.169 L947.594 442.169  Z
  " fill="#ffa500" fill-rule="evenodd" fill-opacity="1"/>
<polyline clip-path="url(#clip332)" style="stroke:#000000; stroke-width:4; stroke-opacity:1; fill:none" points="
  947.594,442.169 947.594,1445.72 1517.34,1445.72 1517.34,442.169 947.594,442.169 
  "/>
<path clip-path="url(#clip332)" d="
M947.594 560.233 L947.594 1445.72 L1517.34 1445.72 L1517.34 560.233 L947.594 560.233 L947.594 560.233  Z
  " fill="#ffa500" fill-rule="evenodd" fill-opacity="1"/>
<polyline clip-path="url(#clip332)" style="stroke:#000000; stroke-width:4; stroke-opacity:1; fill:none" points="
  947.594,560.233 947.594,1445.72 1517.34,1445.72 1517.34,560.233 947.594,560.233 
  "/>
<path clip-path="url(#clip332)" d="
M947.594 560.233 L947.594 1445.72 L1517.34 1445.72 L1517.34 560.233 L947.594 560.233 L947.594 560.233  Z
  " fill="#ffa500" fill-rule="evenodd" fill-opacity="1"/>
<polyline clip-path="url(#clip332)" style="stroke:#000000; stroke-width:4; stroke-opacity:1; fill:none" points="
  947.594,560.233 947.594,1445.72 1517.34,1445.72 1517.34,560.233 947.594,560.233 
  "/>
<path clip-path="url(#clip332)" d="
M947.594 520.879 L947.594 1445.72 L1517.34 1445.72 L1517.34 520.879 L947.594 520.879 L947.594 520.879  Z
  " fill="#ffa500" fill-rule="evenodd" fill-opacity="1"/>
<polyline clip-path="url(#clip332)" style="stroke:#000000; stroke-width:4; stroke-opacity:1; fill:none" points="
  947.594,520.879 947.594,1445.72 1517.34,1445.72 1517.34,520.879 947.594,520.879 
  "/>
<path clip-path="url(#clip332)" d="
M947.594 579.911 L947.594 1445.72 L1517.34 1445.72 L1517.34 579.911 L947.594 579.911 L947.594 579.911  Z
  " fill="#ffa500" fill-rule="evenodd" fill-opacity="1"/>
<polyline clip-path="url(#clip332)" style="stroke:#000000; stroke-width:4; stroke-opacity:1; fill:none" points="
  947.594,579.911 947.594,1445.72 1517.34,1445.72 1517.34,579.911 947.594,579.911 
  "/>
<path clip-path="url(#clip332)" d="
M947.594 638.943 L947.594 1445.72 L1517.34 1445.72 L1517.34 638.943 L947.594 638.943 L947.594 638.943  Z
  " fill="#ffa500" fill-rule="evenodd" fill-opacity="1"/>
<polyline clip-path="url(#clip332)" style="stroke:#000000; stroke-width:4; stroke-opacity:1; fill:none" points="
  947.594,638.943 947.594,1445.72 1517.34,1445.72 1517.34,638.943 947.594,638.943 
  "/>
<path clip-path="url(#clip332)" d="
M947.594 658.62 L947.594 1445.72 L1517.34 1445.72 L1517.34 658.62 L947.594 658.62 L947.594 658.62  Z
  " fill="#ffa500" fill-rule="evenodd" fill-opacity="1"/>
<polyline clip-path="url(#clip332)" style="stroke:#000000; stroke-width:4; stroke-opacity:1; fill:none" points="
  947.594,658.62 947.594,1445.72 1517.34,1445.72 1517.34,658.62 947.594,658.62 
  "/>
<path clip-path="url(#clip332)" d="
M947.594 579.911 L947.594 1445.72 L1517.34 1445.72 L1517.34 579.911 L947.594 579.911 L947.594 579.911  Z
  " fill="#ffa500" fill-rule="evenodd" fill-opacity="1"/>
<polyline clip-path="url(#clip332)" style="stroke:#000000; stroke-width:4; stroke-opacity:1; fill:none" points="
  947.594,579.911 947.594,1445.72 1517.34,1445.72 1517.34,579.911 947.594,579.911 
  "/>
<path clip-path="url(#clip332)" d="
M947.594 540.556 L947.594 1445.72 L1517.34 1445.72 L1517.34 540.556 L947.594 540.556 L947.594 540.556  Z
  " fill="#ffa500" fill-rule="evenodd" fill-opacity="1"/>
<polyline clip-path="url(#clip332)" style="stroke:#000000; stroke-width:4; stroke-opacity:1; fill:none" points="
  947.594,540.556 947.594,1445.72 1517.34,1445.72 1517.34,540.556 947.594,540.556 
  "/>
<path clip-path="url(#clip332)" d="
M947.594 658.62 L947.594 1445.72 L1517.34 1445.72 L1517.34 658.62 L947.594 658.62 L947.594 658.62  Z
  " fill="#ffa500" fill-rule="evenodd" fill-opacity="1"/>
<polyline clip-path="url(#clip332)" style="stroke:#000000; stroke-width:4; stroke-opacity:1; fill:none" points="
  947.594,658.62 947.594,1445.72 1517.34,1445.72 1517.34,658.62 947.594,658.62 
  "/>
<path clip-path="url(#clip332)" d="
M947.594 796.362 L947.594 1445.72 L1517.34 1445.72 L1517.34 796.362 L947.594 796.362 L947.594 796.362  Z
  " fill="#ffa500" fill-rule="evenodd" fill-opacity="1"/>
<polyline clip-path="url(#clip332)" style="stroke:#000000; stroke-width:4; stroke-opacity:1; fill:none" points="
  947.594,796.362 947.594,1445.72 1517.34,1445.72 1517.34,796.362 947.594,796.362 
  "/>
<path clip-path="url(#clip332)" d="
M947.594 619.266 L947.594 1445.72 L1517.34 1445.72 L1517.34 619.266 L947.594 619.266 L947.594 619.266  Z
  " fill="#ffa500" fill-rule="evenodd" fill-opacity="1"/>
<polyline clip-path="url(#clip332)" style="stroke:#000000; stroke-width:4; stroke-opacity:1; fill:none" points="
  947.594,619.266 947.594,1445.72 1517.34,1445.72 1517.34,619.266 947.594,619.266 
  "/>
<path clip-path="url(#clip332)" d="
M947.594 619.266 L947.594 1445.72 L1517.34 1445.72 L1517.34 619.266 L947.594 619.266 L947.594 619.266  Z
  " fill="#ffa500" fill-rule="evenodd" fill-opacity="1"/>
<polyline clip-path="url(#clip332)" style="stroke:#000000; stroke-width:4; stroke-opacity:1; fill:none" points="
  947.594,619.266 947.594,1445.72 1517.34,1445.72 1517.34,619.266 947.594,619.266 
  "/>
<path clip-path="url(#clip332)" d="
M947.594 619.266 L947.594 1445.72 L1517.34 1445.72 L1517.34 619.266 L947.594 619.266 L947.594 619.266  Z
  " fill="#ffa500" fill-rule="evenodd" fill-opacity="1"/>
<polyline clip-path="url(#clip332)" style="stroke:#000000; stroke-width:4; stroke-opacity:1; fill:none" points="
  947.594,619.266 947.594,1445.72 1517.34,1445.72 1517.34,619.266 947.594,619.266 
  "/>
<path clip-path="url(#clip332)" d="
M947.594 599.588 L947.594 1445.72 L1517.34 1445.72 L1517.34 599.588 L947.594 599.588 L947.594 599.588  Z
  " fill="#ffa500" fill-rule="evenodd" fill-opacity="1"/>
<polyline clip-path="url(#clip332)" style="stroke:#000000; stroke-width:4; stroke-opacity:1; fill:none" points="
  947.594,599.588 947.594,1445.72 1517.34,1445.72 1517.34,599.588 947.594,599.588 
  "/>
<path clip-path="url(#clip332)" d="
M947.594 855.394 L947.594 1445.72 L1517.34 1445.72 L1517.34 855.394 L947.594 855.394 L947.594 855.394  Z
  " fill="#ffa500" fill-rule="evenodd" fill-opacity="1"/>
<polyline clip-path="url(#clip332)" style="stroke:#000000; stroke-width:4; stroke-opacity:1; fill:none" points="
  947.594,855.394 947.594,1445.72 1517.34,1445.72 1517.34,855.394 947.594,855.394 
  "/>
<path clip-path="url(#clip332)" d="
M947.594 638.943 L947.594 1445.72 L1517.34 1445.72 L1517.34 638.943 L947.594 638.943 L947.594 638.943  Z
  " fill="#ffa500" fill-rule="evenodd" fill-opacity="1"/>
<polyline clip-path="url(#clip332)" style="stroke:#000000; stroke-width:4; stroke-opacity:1; fill:none" points="
  947.594,638.943 947.594,1445.72 1517.34,1445.72 1517.34,638.943 947.594,638.943 
  "/>
<path clip-path="url(#clip332)" d="
M1659.78 265.073 L1659.78 1445.72 L2229.52 1445.72 L2229.52 265.073 L1659.78 265.073 L1659.78 265.073  Z
  " fill="#ffa500" fill-rule="evenodd" fill-opacity="1"/>
<polyline clip-path="url(#clip332)" style="stroke:#000000; stroke-width:4; stroke-opacity:1; fill:none" points="
  1659.78,265.073 1659.78,1445.72 2229.52,1445.72 2229.52,265.073 1659.78,265.073 
  "/>
<path clip-path="url(#clip332)" d="
M1659.78 442.169 L1659.78 1445.72 L2229.52 1445.72 L2229.52 442.169 L1659.78 442.169 L1659.78 442.169  Z
  " fill="#ffa500" fill-rule="evenodd" fill-opacity="1"/>
<polyline clip-path="url(#clip332)" style="stroke:#000000; stroke-width:4; stroke-opacity:1; fill:none" points="
  1659.78,442.169 1659.78,1445.72 2229.52,1445.72 2229.52,442.169 1659.78,442.169 
  "/>
<path clip-path="url(#clip332)" d="
M1659.78 284.75 L1659.78 1445.72 L2229.52 1445.72 L2229.52 284.75 L1659.78 284.75 L1659.78 284.75  Z
  " fill="#ffa500" fill-rule="evenodd" fill-opacity="1"/>
<polyline clip-path="url(#clip332)" style="stroke:#000000; stroke-width:4; stroke-opacity:1; fill:none" points="
  1659.78,284.75 1659.78,1445.72 2229.52,1445.72 2229.52,284.75 1659.78,284.75 
  "/>
<path clip-path="url(#clip332)" d="
M1659.78 343.782 L1659.78 1445.72 L2229.52 1445.72 L2229.52 343.782 L1659.78 343.782 L1659.78 343.782  Z
  " fill="#ffa500" fill-rule="evenodd" fill-opacity="1"/>
<polyline clip-path="url(#clip332)" style="stroke:#000000; stroke-width:4; stroke-opacity:1; fill:none" points="
  1659.78,343.782 1659.78,1445.72 2229.52,1445.72 2229.52,343.782 1659.78,343.782 
  "/>
<path clip-path="url(#clip332)" d="
M1659.78 304.427 L1659.78 1445.72 L2229.52 1445.72 L2229.52 304.427 L1659.78 304.427 L1659.78 304.427  Z
  " fill="#ffa500" fill-rule="evenodd" fill-opacity="1"/>
<polyline clip-path="url(#clip332)" style="stroke:#000000; stroke-width:4; stroke-opacity:1; fill:none" points="
  1659.78,304.427 1659.78,1445.72 2229.52,1445.72 2229.52,304.427 1659.78,304.427 
  "/>
<path clip-path="url(#clip332)" d="
M1659.78 147.008 L1659.78 1445.72 L2229.52 1445.72 L2229.52 147.008 L1659.78 147.008 L1659.78 147.008  Z
  " fill="#ffa500" fill-rule="evenodd" fill-opacity="1"/>
<polyline clip-path="url(#clip332)" style="stroke:#000000; stroke-width:4; stroke-opacity:1; fill:none" points="
  1659.78,147.008 1659.78,1445.72 2229.52,1445.72 2229.52,147.008 1659.78,147.008 
  "/>
<path clip-path="url(#clip332)" d="
M1659.78 560.233 L1659.78 1445.72 L2229.52 1445.72 L2229.52 560.233 L1659.78 560.233 L1659.78 560.233  Z
  " fill="#ffa500" fill-rule="evenodd" fill-opacity="1"/>
<polyline clip-path="url(#clip332)" style="stroke:#000000; stroke-width:4; stroke-opacity:1; fill:none" points="
  1659.78,560.233 1659.78,1445.72 2229.52,1445.72 2229.52,560.233 1659.78,560.233 
  "/>
<path clip-path="url(#clip332)" d="
M1659.78 206.041 L1659.78 1445.72 L2229.52 1445.72 L2229.52 206.041 L1659.78 206.041 L1659.78 206.041  Z
  " fill="#ffa500" fill-rule="evenodd" fill-opacity="1"/>
<polyline clip-path="url(#clip332)" style="stroke:#000000; stroke-width:4; stroke-opacity:1; fill:none" points="
  1659.78,206.041 1659.78,1445.72 2229.52,1445.72 2229.52,206.041 1659.78,206.041 
  "/>
<path clip-path="url(#clip332)" d="
M1659.78 304.427 L1659.78 1445.72 L2229.52 1445.72 L2229.52 304.427 L1659.78 304.427 L1659.78 304.427  Z
  " fill="#ffa500" fill-rule="evenodd" fill-opacity="1"/>
<polyline clip-path="url(#clip332)" style="stroke:#000000; stroke-width:4; stroke-opacity:1; fill:none" points="
  1659.78,304.427 1659.78,1445.72 2229.52,1445.72 2229.52,304.427 1659.78,304.427 
  "/>
<path clip-path="url(#clip332)" d="
M1659.78 245.395 L1659.78 1445.72 L2229.52 1445.72 L2229.52 245.395 L1659.78 245.395 L1659.78 245.395  Z
  " fill="#ffa500" fill-rule="evenodd" fill-opacity="1"/>
<polyline clip-path="url(#clip332)" style="stroke:#000000; stroke-width:4; stroke-opacity:1; fill:none" points="
  1659.78,245.395 1659.78,1445.72 2229.52,1445.72 2229.52,245.395 1659.78,245.395 
  "/>
<path clip-path="url(#clip332)" d="
M1659.78 442.169 L1659.78 1445.72 L2229.52 1445.72 L2229.52 442.169 L1659.78 442.169 L1659.78 442.169  Z
  " fill="#ffa500" fill-rule="evenodd" fill-opacity="1"/>
<polyline clip-path="url(#clip332)" style="stroke:#000000; stroke-width:4; stroke-opacity:1; fill:none" points="
  1659.78,442.169 1659.78,1445.72 2229.52,1445.72 2229.52,442.169 1659.78,442.169 
  "/>
<path clip-path="url(#clip332)" d="
M1659.78 402.814 L1659.78 1445.72 L2229.52 1445.72 L2229.52 402.814 L1659.78 402.814 L1659.78 402.814  Z
  " fill="#ffa500" fill-rule="evenodd" fill-opacity="1"/>
<polyline clip-path="url(#clip332)" style="stroke:#000000; stroke-width:4; stroke-opacity:1; fill:none" points="
  1659.78,402.814 1659.78,1445.72 2229.52,1445.72 2229.52,402.814 1659.78,402.814 
  "/>
<path clip-path="url(#clip332)" d="
M1659.78 363.46 L1659.78 1445.72 L2229.52 1445.72 L2229.52 363.46 L1659.78 363.46 L1659.78 363.46  Z
  " fill="#ffa500" fill-rule="evenodd" fill-opacity="1"/>
<polyline clip-path="url(#clip332)" style="stroke:#000000; stroke-width:4; stroke-opacity:1; fill:none" points="
  1659.78,363.46 1659.78,1445.72 2229.52,1445.72 2229.52,363.46 1659.78,363.46 
  "/>
<path clip-path="url(#clip332)" d="
M1659.78 461.847 L1659.78 1445.72 L2229.52 1445.72 L2229.52 461.847 L1659.78 461.847 L1659.78 461.847  Z
  " fill="#ffa500" fill-rule="evenodd" fill-opacity="1"/>
<polyline clip-path="url(#clip332)" style="stroke:#000000; stroke-width:4; stroke-opacity:1; fill:none" points="
  1659.78,461.847 1659.78,1445.72 2229.52,1445.72 2229.52,461.847 1659.78,461.847 
  "/>
<path clip-path="url(#clip332)" d="
M1659.78 442.169 L1659.78 1445.72 L2229.52 1445.72 L2229.52 442.169 L1659.78 442.169 L1659.78 442.169  Z
  " fill="#ffa500" fill-rule="evenodd" fill-opacity="1"/>
<polyline clip-path="url(#clip332)" style="stroke:#000000; stroke-width:4; stroke-opacity:1; fill:none" points="
  1659.78,442.169 1659.78,1445.72 2229.52,1445.72 2229.52,442.169 1659.78,442.169 
  "/>
<path clip-path="url(#clip332)" d="
M1659.78 402.814 L1659.78 1445.72 L2229.52 1445.72 L2229.52 402.814 L1659.78 402.814 L1659.78 402.814  Z
  " fill="#ffa500" fill-rule="evenodd" fill-opacity="1"/>
<polyline clip-path="url(#clip332)" style="stroke:#000000; stroke-width:4; stroke-opacity:1; fill:none" points="
  1659.78,402.814 1659.78,1445.72 2229.52,1445.72 2229.52,402.814 1659.78,402.814 
  "/>
<path clip-path="url(#clip332)" d="
M1659.78 363.46 L1659.78 1445.72 L2229.52 1445.72 L2229.52 363.46 L1659.78 363.46 L1659.78 363.46  Z
  " fill="#ffa500" fill-rule="evenodd" fill-opacity="1"/>
<polyline clip-path="url(#clip332)" style="stroke:#000000; stroke-width:4; stroke-opacity:1; fill:none" points="
  1659.78,363.46 1659.78,1445.72 2229.52,1445.72 2229.52,363.46 1659.78,363.46 
  "/>
<path clip-path="url(#clip332)" d="
M1659.78 127.331 L1659.78 1445.72 L2229.52 1445.72 L2229.52 127.331 L1659.78 127.331 L1659.78 127.331  Z
  " fill="#ffa500" fill-rule="evenodd" fill-opacity="1"/>
<polyline clip-path="url(#clip332)" style="stroke:#000000; stroke-width:4; stroke-opacity:1; fill:none" points="
  1659.78,127.331 1659.78,1445.72 2229.52,1445.72 2229.52,127.331 1659.78,127.331 
  "/>
<path clip-path="url(#clip332)" d="
M1659.78 87.9763 L1659.78 1445.72 L2229.52 1445.72 L2229.52 87.9763 L1659.78 87.9763 L1659.78 87.9763  Z
  " fill="#ffa500" fill-rule="evenodd" fill-opacity="1"/>
<polyline clip-path="url(#clip332)" style="stroke:#000000; stroke-width:4; stroke-opacity:1; fill:none" points="
  1659.78,87.9763 1659.78,1445.72 2229.52,1445.72 2229.52,87.9763 1659.78,87.9763 
  "/>
<path clip-path="url(#clip332)" d="
M1659.78 461.847 L1659.78 1445.72 L2229.52 1445.72 L2229.52 461.847 L1659.78 461.847 L1659.78 461.847  Z
  " fill="#ffa500" fill-rule="evenodd" fill-opacity="1"/>
<polyline clip-path="url(#clip332)" style="stroke:#000000; stroke-width:4; stroke-opacity:1; fill:none" points="
  1659.78,461.847 1659.78,1445.72 2229.52,1445.72 2229.52,461.847 1659.78,461.847 
  "/>
<path clip-path="url(#clip332)" d="
M1659.78 324.105 L1659.78 1445.72 L2229.52 1445.72 L2229.52 324.105 L1659.78 324.105 L1659.78 324.105  Z
  " fill="#ffa500" fill-rule="evenodd" fill-opacity="1"/>
<polyline clip-path="url(#clip332)" style="stroke:#000000; stroke-width:4; stroke-opacity:1; fill:none" points="
  1659.78,324.105 1659.78,1445.72 2229.52,1445.72 2229.52,324.105 1659.78,324.105 
  "/>
<path clip-path="url(#clip332)" d="
M1659.78 481.524 L1659.78 1445.72 L2229.52 1445.72 L2229.52 481.524 L1659.78 481.524 L1659.78 481.524  Z
  " fill="#ffa500" fill-rule="evenodd" fill-opacity="1"/>
<polyline clip-path="url(#clip332)" style="stroke:#000000; stroke-width:4; stroke-opacity:1; fill:none" points="
  1659.78,481.524 1659.78,1445.72 2229.52,1445.72 2229.52,481.524 1659.78,481.524 
  "/>
<path clip-path="url(#clip332)" d="
M1659.78 127.331 L1659.78 1445.72 L2229.52 1445.72 L2229.52 127.331 L1659.78 127.331 L1659.78 127.331  Z
  " fill="#ffa500" fill-rule="evenodd" fill-opacity="1"/>
<polyline clip-path="url(#clip332)" style="stroke:#000000; stroke-width:4; stroke-opacity:1; fill:none" points="
  1659.78,127.331 1659.78,1445.72 2229.52,1445.72 2229.52,127.331 1659.78,127.331 
  "/>
<path clip-path="url(#clip332)" d="
M1659.78 481.524 L1659.78 1445.72 L2229.52 1445.72 L2229.52 481.524 L1659.78 481.524 L1659.78 481.524  Z
  " fill="#ffa500" fill-rule="evenodd" fill-opacity="1"/>
<polyline clip-path="url(#clip332)" style="stroke:#000000; stroke-width:4; stroke-opacity:1; fill:none" points="
  1659.78,481.524 1659.78,1445.72 2229.52,1445.72 2229.52,481.524 1659.78,481.524 
  "/>
<path clip-path="url(#clip332)" d="
M1659.78 324.105 L1659.78 1445.72 L2229.52 1445.72 L2229.52 324.105 L1659.78 324.105 L1659.78 324.105  Z
  " fill="#ffa500" fill-rule="evenodd" fill-opacity="1"/>
<polyline clip-path="url(#clip332)" style="stroke:#000000; stroke-width:4; stroke-opacity:1; fill:none" points="
  1659.78,324.105 1659.78,1445.72 2229.52,1445.72 2229.52,324.105 1659.78,324.105 
  "/>
<path clip-path="url(#clip332)" d="
M1659.78 265.073 L1659.78 1445.72 L2229.52 1445.72 L2229.52 265.073 L1659.78 265.073 L1659.78 265.073  Z
  " fill="#ffa500" fill-rule="evenodd" fill-opacity="1"/>
<polyline clip-path="url(#clip332)" style="stroke:#000000; stroke-width:4; stroke-opacity:1; fill:none" points="
  1659.78,265.073 1659.78,1445.72 2229.52,1445.72 2229.52,265.073 1659.78,265.073 
  "/>
<path clip-path="url(#clip332)" d="
M1659.78 501.201 L1659.78 1445.72 L2229.52 1445.72 L2229.52 501.201 L1659.78 501.201 L1659.78 501.201  Z
  " fill="#ffa500" fill-rule="evenodd" fill-opacity="1"/>
<polyline clip-path="url(#clip332)" style="stroke:#000000; stroke-width:4; stroke-opacity:1; fill:none" points="
  1659.78,501.201 1659.78,1445.72 2229.52,1445.72 2229.52,501.201 1659.78,501.201 
  "/>
<path clip-path="url(#clip332)" d="
M1659.78 481.524 L1659.78 1445.72 L2229.52 1445.72 L2229.52 481.524 L1659.78 481.524 L1659.78 481.524  Z
  " fill="#ffa500" fill-rule="evenodd" fill-opacity="1"/>
<polyline clip-path="url(#clip332)" style="stroke:#000000; stroke-width:4; stroke-opacity:1; fill:none" points="
  1659.78,481.524 1659.78,1445.72 2229.52,1445.72 2229.52,481.524 1659.78,481.524 
  "/>
<path clip-path="url(#clip332)" d="
M1659.78 343.782 L1659.78 1445.72 L2229.52 1445.72 L2229.52 343.782 L1659.78 343.782 L1659.78 343.782  Z
  " fill="#ffa500" fill-rule="evenodd" fill-opacity="1"/>
<polyline clip-path="url(#clip332)" style="stroke:#000000; stroke-width:4; stroke-opacity:1; fill:none" points="
  1659.78,343.782 1659.78,1445.72 2229.52,1445.72 2229.52,343.782 1659.78,343.782 
  "/>
<path clip-path="url(#clip332)" d="
M1659.78 304.427 L1659.78 1445.72 L2229.52 1445.72 L2229.52 304.427 L1659.78 304.427 L1659.78 304.427  Z
  " fill="#ffa500" fill-rule="evenodd" fill-opacity="1"/>
<polyline clip-path="url(#clip332)" style="stroke:#000000; stroke-width:4; stroke-opacity:1; fill:none" points="
  1659.78,304.427 1659.78,1445.72 2229.52,1445.72 2229.52,304.427 1659.78,304.427 
  "/>
<path clip-path="url(#clip332)" d="
M1659.78 245.395 L1659.78 1445.72 L2229.52 1445.72 L2229.52 245.395 L1659.78 245.395 L1659.78 245.395  Z
  " fill="#ffa500" fill-rule="evenodd" fill-opacity="1"/>
<polyline clip-path="url(#clip332)" style="stroke:#000000; stroke-width:4; stroke-opacity:1; fill:none" points="
  1659.78,245.395 1659.78,1445.72 2229.52,1445.72 2229.52,245.395 1659.78,245.395 
  "/>
<path clip-path="url(#clip332)" d="
M1659.78 186.363 L1659.78 1445.72 L2229.52 1445.72 L2229.52 186.363 L1659.78 186.363 L1659.78 186.363  Z
  " fill="#ffa500" fill-rule="evenodd" fill-opacity="1"/>
<polyline clip-path="url(#clip332)" style="stroke:#000000; stroke-width:4; stroke-opacity:1; fill:none" points="
  1659.78,186.363 1659.78,1445.72 2229.52,1445.72 2229.52,186.363 1659.78,186.363 
  "/>
<path clip-path="url(#clip332)" d="
M1659.78 343.782 L1659.78 1445.72 L2229.52 1445.72 L2229.52 343.782 L1659.78 343.782 L1659.78 343.782  Z
  " fill="#ffa500" fill-rule="evenodd" fill-opacity="1"/>
<polyline clip-path="url(#clip332)" style="stroke:#000000; stroke-width:4; stroke-opacity:1; fill:none" points="
  1659.78,343.782 1659.78,1445.72 2229.52,1445.72 2229.52,343.782 1659.78,343.782 
  "/>
<path clip-path="url(#clip332)" d="
M1659.78 442.169 L1659.78 1445.72 L2229.52 1445.72 L2229.52 442.169 L1659.78 442.169 L1659.78 442.169  Z
  " fill="#ffa500" fill-rule="evenodd" fill-opacity="1"/>
<polyline clip-path="url(#clip332)" style="stroke:#000000; stroke-width:4; stroke-opacity:1; fill:none" points="
  1659.78,442.169 1659.78,1445.72 2229.52,1445.72 2229.52,442.169 1659.78,442.169 
  "/>
<path clip-path="url(#clip332)" d="
M1659.78 343.782 L1659.78 1445.72 L2229.52 1445.72 L2229.52 343.782 L1659.78 343.782 L1659.78 343.782  Z
  " fill="#ffa500" fill-rule="evenodd" fill-opacity="1"/>
<polyline clip-path="url(#clip332)" style="stroke:#000000; stroke-width:4; stroke-opacity:1; fill:none" points="
  1659.78,343.782 1659.78,1445.72 2229.52,1445.72 2229.52,343.782 1659.78,343.782 
  "/>
<path clip-path="url(#clip332)" d="
M1659.78 245.395 L1659.78 1445.72 L2229.52 1445.72 L2229.52 245.395 L1659.78 245.395 L1659.78 245.395  Z
  " fill="#ffa500" fill-rule="evenodd" fill-opacity="1"/>
<polyline clip-path="url(#clip332)" style="stroke:#000000; stroke-width:4; stroke-opacity:1; fill:none" points="
  1659.78,245.395 1659.78,1445.72 2229.52,1445.72 2229.52,245.395 1659.78,245.395 
  "/>
<path clip-path="url(#clip332)" d="
M1659.78 343.782 L1659.78 1445.72 L2229.52 1445.72 L2229.52 343.782 L1659.78 343.782 L1659.78 343.782  Z
  " fill="#ffa500" fill-rule="evenodd" fill-opacity="1"/>
<polyline clip-path="url(#clip332)" style="stroke:#000000; stroke-width:4; stroke-opacity:1; fill:none" points="
  1659.78,343.782 1659.78,1445.72 2229.52,1445.72 2229.52,343.782 1659.78,343.782 
  "/>
<path clip-path="url(#clip332)" d="
M1659.78 363.46 L1659.78 1445.72 L2229.52 1445.72 L2229.52 363.46 L1659.78 363.46 L1659.78 363.46  Z
  " fill="#ffa500" fill-rule="evenodd" fill-opacity="1"/>
<polyline clip-path="url(#clip332)" style="stroke:#000000; stroke-width:4; stroke-opacity:1; fill:none" points="
  1659.78,363.46 1659.78,1445.72 2229.52,1445.72 2229.52,363.46 1659.78,363.46 
  "/>
<path clip-path="url(#clip332)" d="
M1659.78 501.201 L1659.78 1445.72 L2229.52 1445.72 L2229.52 501.201 L1659.78 501.201 L1659.78 501.201  Z
  " fill="#ffa500" fill-rule="evenodd" fill-opacity="1"/>
<polyline clip-path="url(#clip332)" style="stroke:#000000; stroke-width:4; stroke-opacity:1; fill:none" points="
  1659.78,501.201 1659.78,1445.72 2229.52,1445.72 2229.52,501.201 1659.78,501.201 
  "/>
<path clip-path="url(#clip332)" d="
M1659.78 383.137 L1659.78 1445.72 L2229.52 1445.72 L2229.52 383.137 L1659.78 383.137 L1659.78 383.137  Z
  " fill="#ffa500" fill-rule="evenodd" fill-opacity="1"/>
<polyline clip-path="url(#clip332)" style="stroke:#000000; stroke-width:4; stroke-opacity:1; fill:none" points="
  1659.78,383.137 1659.78,1445.72 2229.52,1445.72 2229.52,383.137 1659.78,383.137 
  "/>
<path clip-path="url(#clip332)" d="
M1659.78 343.782 L1659.78 1445.72 L2229.52 1445.72 L2229.52 343.782 L1659.78 343.782 L1659.78 343.782  Z
  " fill="#ffa500" fill-rule="evenodd" fill-opacity="1"/>
<polyline clip-path="url(#clip332)" style="stroke:#000000; stroke-width:4; stroke-opacity:1; fill:none" points="
  1659.78,343.782 1659.78,1445.72 2229.52,1445.72 2229.52,343.782 1659.78,343.782 
  "/>
<path clip-path="url(#clip332)" d="
M1659.78 442.169 L1659.78 1445.72 L2229.52 1445.72 L2229.52 442.169 L1659.78 442.169 L1659.78 442.169  Z
  " fill="#ffa500" fill-rule="evenodd" fill-opacity="1"/>
<polyline clip-path="url(#clip332)" style="stroke:#000000; stroke-width:4; stroke-opacity:1; fill:none" points="
  1659.78,442.169 1659.78,1445.72 2229.52,1445.72 2229.52,442.169 1659.78,442.169 
  "/>
<path clip-path="url(#clip332)" d="
M1659.78 442.169 L1659.78 1445.72 L2229.52 1445.72 L2229.52 442.169 L1659.78 442.169 L1659.78 442.169  Z
  " fill="#ffa500" fill-rule="evenodd" fill-opacity="1"/>
<polyline clip-path="url(#clip332)" style="stroke:#000000; stroke-width:4; stroke-opacity:1; fill:none" points="
  1659.78,442.169 1659.78,1445.72 2229.52,1445.72 2229.52,442.169 1659.78,442.169 
  "/>
<path clip-path="url(#clip332)" d="
M1659.78 284.75 L1659.78 1445.72 L2229.52 1445.72 L2229.52 284.75 L1659.78 284.75 L1659.78 284.75  Z
  " fill="#ffa500" fill-rule="evenodd" fill-opacity="1"/>
<polyline clip-path="url(#clip332)" style="stroke:#000000; stroke-width:4; stroke-opacity:1; fill:none" points="
  1659.78,284.75 1659.78,1445.72 2229.52,1445.72 2229.52,284.75 1659.78,284.75 
  "/>
<path clip-path="url(#clip332)" d="
M1659.78 324.105 L1659.78 1445.72 L2229.52 1445.72 L2229.52 324.105 L1659.78 324.105 L1659.78 324.105  Z
  " fill="#ffa500" fill-rule="evenodd" fill-opacity="1"/>
<polyline clip-path="url(#clip332)" style="stroke:#000000; stroke-width:4; stroke-opacity:1; fill:none" points="
  1659.78,324.105 1659.78,1445.72 2229.52,1445.72 2229.52,324.105 1659.78,324.105 
  "/>
<path clip-path="url(#clip332)" d="
M1659.78 422.492 L1659.78 1445.72 L2229.52 1445.72 L2229.52 422.492 L1659.78 422.492 L1659.78 422.492  Z
  " fill="#ffa500" fill-rule="evenodd" fill-opacity="1"/>
<polyline clip-path="url(#clip332)" style="stroke:#000000; stroke-width:4; stroke-opacity:1; fill:none" points="
  1659.78,422.492 1659.78,1445.72 2229.52,1445.72 2229.52,422.492 1659.78,422.492 
  "/>
<path clip-path="url(#clip332)" d="
M1659.78 461.847 L1659.78 1445.72 L2229.52 1445.72 L2229.52 461.847 L1659.78 461.847 L1659.78 461.847  Z
  " fill="#ffa500" fill-rule="evenodd" fill-opacity="1"/>
<polyline clip-path="url(#clip332)" style="stroke:#000000; stroke-width:4; stroke-opacity:1; fill:none" points="
  1659.78,461.847 1659.78,1445.72 2229.52,1445.72 2229.52,461.847 1659.78,461.847 
  "/>
<path clip-path="url(#clip332)" d="
M1659.78 422.492 L1659.78 1445.72 L2229.52 1445.72 L2229.52 422.492 L1659.78 422.492 L1659.78 422.492  Z
  " fill="#ffa500" fill-rule="evenodd" fill-opacity="1"/>
<polyline clip-path="url(#clip332)" style="stroke:#000000; stroke-width:4; stroke-opacity:1; fill:none" points="
  1659.78,422.492 1659.78,1445.72 2229.52,1445.72 2229.52,422.492 1659.78,422.492 
  "/>
<path clip-path="url(#clip332)" d="
M1659.78 383.137 L1659.78 1445.72 L2229.52 1445.72 L2229.52 383.137 L1659.78 383.137 L1659.78 383.137  Z
  " fill="#ffa500" fill-rule="evenodd" fill-opacity="1"/>
<polyline clip-path="url(#clip332)" style="stroke:#000000; stroke-width:4; stroke-opacity:1; fill:none" points="
  1659.78,383.137 1659.78,1445.72 2229.52,1445.72 2229.52,383.137 1659.78,383.137 
  "/>
<path clip-path="url(#clip332)" d="
M1659.78 442.169 L1659.78 1445.72 L2229.52 1445.72 L2229.52 442.169 L1659.78 442.169 L1659.78 442.169  Z
  " fill="#ffa500" fill-rule="evenodd" fill-opacity="1"/>
<polyline clip-path="url(#clip332)" style="stroke:#000000; stroke-width:4; stroke-opacity:1; fill:none" points="
  1659.78,442.169 1659.78,1445.72 2229.52,1445.72 2229.52,442.169 1659.78,442.169 
  "/>
<path clip-path="url(#clip330)" d="
M1976.69 216.178 L2278.07 216.178 L2278.07 95.2176 L1976.69 95.2176  Z
  " fill="#ffffff" fill-rule="evenodd" fill-opacity="1"/>
<polyline clip-path="url(#clip330)" style="stroke:#000000; stroke-width:4; stroke-opacity:1; fill:none" points="
  1976.69,216.178 2278.07,216.178 2278.07,95.2176 1976.69,95.2176 1976.69,216.178 
  "/>
<path clip-path="url(#clip330)" d="
M2001.58 179.89 L2150.95 179.89 L2150.95 131.506 L2001.58 131.506 L2001.58 179.89  Z
  " fill="#ffa500" fill-rule="evenodd" fill-opacity="1"/>
<polyline clip-path="url(#clip330)" style="stroke:#000000; stroke-width:4; stroke-opacity:1; fill:none" points="
  2001.58,179.89 2150.95,179.89 2150.95,131.506 2001.58,131.506 2001.58,179.89 
  "/>
<path clip-path="url(#clip330)" d="M 0 0 M2189.69 175.385 Q2187.89 180.015 2186.17 181.427 Q2184.46 182.839 2181.59 182.839 L2178.19 182.839 L2178.19 179.274 L2180.69 179.274 Q2182.45 179.274 2183.42 178.44 Q2184.39 177.607 2185.57 174.505 L2186.34 172.561 L2175.85 147.052 L2180.36 147.052 L2188.46 167.329 L2196.57 147.052 L2201.08 147.052 L2189.69 175.385 Z" fill="#000000" fill-rule="evenodd" fill-opacity="1" /><path clip-path="url(#clip330)" d="M 0 0 M2208.37 169.042 L2216.01 169.042 L2216.01 142.677 L2207.7 144.343 L2207.7 140.084 L2215.96 138.418 L2220.64 138.418 L2220.64 169.042 L2228.28 169.042 L2228.28 172.978 L2208.37 172.978 L2208.37 169.042 Z" fill="#000000" fill-rule="evenodd" fill-opacity="1" /></svg>
