<?xml version="1.0" encoding="utf-8"?>
<svg xmlns="http://www.w3.org/2000/svg" xmlns:xlink="http://www.w3.org/1999/xlink" width="600" height="400" viewBox="0 0 2400 1600">
<defs>
  <clipPath id="clip010">
    <rect x="0" y="0" width="2400" height="1600"/>
  </clipPath>
</defs>
<path clip-path="url(#clip010)" d="
M0 1600 L2400 1600 L2400 0 L0 0  Z
  " fill="#ffffff" fill-rule="evenodd" fill-opacity="1"/>
<defs>
  <clipPath id="clip011">
    <rect x="480" y="0" width="1681" height="1600"/>
  </clipPath>
</defs>
<path clip-path="url(#clip010)" d="
M156.598 1486.45 L2352.76 1486.45 L2352.76 123.472 L156.598 123.472  Z
  " fill="#ffffff" fill-rule="evenodd" fill-opacity="1"/>
<defs>
  <clipPath id="clip012">
    <rect x="156" y="123" width="2197" height="1364"/>
  </clipPath>
</defs>
<polyline clip-path="url(#clip012)" style="stroke:#000000; stroke-width:2; stroke-opacity:0.1; fill:none" points="
  366.743,1486.45 366.743,123.472 
  "/>
<polyline clip-path="url(#clip012)" style="stroke:#000000; stroke-width:2; stroke-opacity:0.1; fill:none" points="
  662.721,1486.45 662.721,123.472 
  "/>
<polyline clip-path="url(#clip012)" style="stroke:#000000; stroke-width:2; stroke-opacity:0.1; fill:none" points="
  958.699,1486.45 958.699,123.472 
  "/>
<polyline clip-path="url(#clip012)" style="stroke:#000000; stroke-width:2; stroke-opacity:0.1; fill:none" points="
  1254.68,1486.45 1254.68,123.472 
  "/>
<polyline clip-path="url(#clip012)" style="stroke:#000000; stroke-width:2; stroke-opacity:0.1; fill:none" points="
  1550.66,1486.45 1550.66,123.472 
  "/>
<polyline clip-path="url(#clip012)" style="stroke:#000000; stroke-width:2; stroke-opacity:0.1; fill:none" points="
  1846.63,1486.45 1846.63,123.472 
  "/>
<polyline clip-path="url(#clip012)" style="stroke:#000000; stroke-width:2; stroke-opacity:0.1; fill:none" points="
  2142.61,1486.45 2142.61,123.472 
  "/>
<polyline clip-path="url(#clip010)" style="stroke:#000000; stroke-width:4; stroke-opacity:1; fill:none" points="
  156.598,1486.45 2352.76,1486.45 
  "/>
<polyline clip-path="url(#clip010)" style="stroke:#000000; stroke-width:4; stroke-opacity:1; fill:none" points="
  366.743,1486.45 366.743,1470.09 
  "/>
<polyline clip-path="url(#clip010)" style="stroke:#000000; stroke-width:4; stroke-opacity:1; fill:none" points="
  662.721,1486.45 662.721,1470.09 
  "/>
<polyline clip-path="url(#clip010)" style="stroke:#000000; stroke-width:4; stroke-opacity:1; fill:none" points="
  958.699,1486.45 958.699,1470.09 
  "/>
<polyline clip-path="url(#clip010)" style="stroke:#000000; stroke-width:4; stroke-opacity:1; fill:none" points="
  1254.68,1486.45 1254.68,1470.09 
  "/>
<polyline clip-path="url(#clip010)" style="stroke:#000000; stroke-width:4; stroke-opacity:1; fill:none" points="
  1550.66,1486.45 1550.66,1470.09 
  "/>
<polyline clip-path="url(#clip010)" style="stroke:#000000; stroke-width:4; stroke-opacity:1; fill:none" points="
  1846.63,1486.45 1846.63,1470.09 
  "/>
<polyline clip-path="url(#clip010)" style="stroke:#000000; stroke-width:4; stroke-opacity:1; fill:none" points="
  2142.61,1486.45 2142.61,1470.09 
  "/>
<path clip-path="url(#clip010)" d="M 0 0 M361.396 1543.18 L377.715 1543.18 L377.715 1547.12 L355.771 1547.12 L355.771 1543.18 Q358.433 1540.43 363.016 1535.8 Q367.622 1531.15 368.803 1529.81 Q371.048 1527.28 371.928 1525.55 Q372.831 1523.79 372.831 1522.1 Q372.831 1519.34 370.886 1517.61 Q368.965 1515.87 365.863 1515.87 Q363.664 1515.87 361.21 1516.63 Q358.78 1517.4 356.002 1518.95 L356.002 1514.23 Q358.826 1513.09 361.28 1512.51 Q363.733 1511.93 365.77 1511.93 Q371.141 1511.93 374.335 1514.62 Q377.53 1517.31 377.53 1521.8 Q377.53 1523.93 376.72 1525.85 Q375.932 1527.74 373.826 1530.34 Q373.247 1531.01 370.145 1534.23 Q367.044 1537.42 361.396 1543.18 Z" fill="#000000" fill-rule="evenodd" fill-opacity="1" /><path clip-path="url(#clip010)" d="M 0 0 M665.73 1516.63 L653.925 1535.08 L665.73 1535.08 L665.73 1516.63 M664.503 1512.56 L670.383 1512.56 L670.383 1535.08 L675.313 1535.08 L675.313 1538.97 L670.383 1538.97 L670.383 1547.12 L665.73 1547.12 L665.73 1538.97 L650.128 1538.97 L650.128 1534.46 L664.503 1512.56 Z" fill="#000000" fill-rule="evenodd" fill-opacity="1" /><path clip-path="url(#clip010)" d="M 0 0 M959.104 1527.98 Q955.956 1527.98 954.104 1530.13 Q952.275 1532.28 952.275 1536.03 Q952.275 1539.76 954.104 1541.93 Q955.956 1544.09 959.104 1544.09 Q962.252 1544.09 964.081 1541.93 Q965.933 1539.76 965.933 1536.03 Q965.933 1532.28 964.081 1530.13 Q962.252 1527.98 959.104 1527.98 M968.386 1513.32 L968.386 1517.58 Q966.627 1516.75 964.822 1516.31 Q963.039 1515.87 961.28 1515.87 Q956.65 1515.87 954.197 1519 Q951.766 1522.12 951.419 1528.44 Q952.785 1526.43 954.845 1525.36 Q956.905 1524.27 959.382 1524.27 Q964.59 1524.27 967.599 1527.44 Q970.632 1530.59 970.632 1536.03 Q970.632 1541.36 967.484 1544.57 Q964.335 1547.79 959.104 1547.79 Q953.109 1547.79 949.937 1543.21 Q946.766 1538.6 946.766 1529.87 Q946.766 1521.68 950.655 1516.82 Q954.544 1511.93 961.095 1511.93 Q962.854 1511.93 964.636 1512.28 Q966.442 1512.63 968.386 1513.32 Z" fill="#000000" fill-rule="evenodd" fill-opacity="1" /><path clip-path="url(#clip010)" d="M 0 0 M1254.68 1530.71 Q1251.34 1530.71 1249.42 1532.49 Q1247.52 1534.27 1247.52 1537.4 Q1247.52 1540.52 1249.42 1542.31 Q1251.34 1544.09 1254.68 1544.09 Q1258.01 1544.09 1259.93 1542.31 Q1261.85 1540.5 1261.85 1537.4 Q1261.85 1534.27 1259.93 1532.49 Q1258.03 1530.71 1254.68 1530.71 M1250 1528.72 Q1246.99 1527.98 1245.3 1525.92 Q1243.64 1523.86 1243.64 1520.89 Q1243.64 1516.75 1246.58 1514.34 Q1249.54 1511.93 1254.68 1511.93 Q1259.84 1511.93 1262.78 1514.34 Q1265.72 1516.75 1265.72 1520.89 Q1265.72 1523.86 1264.03 1525.92 Q1262.36 1527.98 1259.38 1528.72 Q1262.76 1529.5 1264.63 1531.8 Q1266.53 1534.09 1266.53 1537.4 Q1266.53 1542.42 1263.45 1545.11 Q1260.39 1547.79 1254.68 1547.79 Q1248.96 1547.79 1245.88 1545.11 Q1242.83 1542.42 1242.83 1537.4 Q1242.83 1534.09 1244.72 1531.8 Q1246.62 1529.5 1250 1528.72 M1248.29 1521.33 Q1248.29 1524.02 1249.95 1525.52 Q1251.64 1527.03 1254.68 1527.03 Q1257.69 1527.03 1259.38 1525.52 Q1261.09 1524.02 1261.09 1521.33 Q1261.09 1518.65 1259.38 1517.14 Q1257.69 1515.64 1254.68 1515.64 Q1251.64 1515.64 1249.95 1517.14 Q1248.29 1518.65 1248.29 1521.33 Z" fill="#000000" fill-rule="evenodd" fill-opacity="1" /><path clip-path="url(#clip010)" d="M 0 0 M1525.34 1543.18 L1532.98 1543.18 L1532.98 1516.82 L1524.67 1518.49 L1524.67 1514.23 L1532.94 1512.56 L1537.61 1512.56 L1537.61 1543.18 L1545.25 1543.18 L1545.25 1547.12 L1525.34 1547.12 L1525.34 1543.18 Z" fill="#000000" fill-rule="evenodd" fill-opacity="1" /><path clip-path="url(#clip010)" d="M 0 0 M1564.69 1515.64 Q1561.08 1515.64 1559.25 1519.2 Q1557.45 1522.75 1557.45 1529.87 Q1557.45 1536.98 1559.25 1540.55 Q1561.08 1544.09 1564.69 1544.09 Q1568.33 1544.09 1570.13 1540.55 Q1571.96 1536.98 1571.96 1529.87 Q1571.96 1522.75 1570.13 1519.2 Q1568.33 1515.64 1564.69 1515.64 M1564.69 1511.93 Q1570.5 1511.93 1573.56 1516.54 Q1576.64 1521.12 1576.64 1529.87 Q1576.64 1538.6 1573.56 1543.21 Q1570.5 1547.79 1564.69 1547.79 Q1558.88 1547.79 1555.81 1543.21 Q1552.75 1538.6 1552.75 1529.87 Q1552.75 1521.12 1555.81 1516.54 Q1558.88 1511.93 1564.69 1511.93 Z" fill="#000000" fill-rule="evenodd" fill-opacity="1" /><path clip-path="url(#clip010)" d="M 0 0 M1822.12 1543.18 L1829.76 1543.18 L1829.76 1516.82 L1821.45 1518.49 L1821.45 1514.23 L1829.71 1512.56 L1834.39 1512.56 L1834.39 1543.18 L1842.03 1543.18 L1842.03 1547.12 L1822.12 1547.12 L1822.12 1543.18 Z" fill="#000000" fill-rule="evenodd" fill-opacity="1" /><path clip-path="url(#clip010)" d="M 0 0 M1855.5 1543.18 L1871.82 1543.18 L1871.82 1547.12 L1849.87 1547.12 L1849.87 1543.18 Q1852.54 1540.43 1857.12 1535.8 Q1861.73 1531.15 1862.91 1529.81 Q1865.15 1527.28 1866.03 1525.55 Q1866.93 1523.79 1866.93 1522.1 Q1866.93 1519.34 1864.99 1517.61 Q1863.07 1515.87 1859.97 1515.87 Q1857.77 1515.87 1855.31 1516.63 Q1852.88 1517.4 1850.11 1518.95 L1850.11 1514.23 Q1852.93 1513.09 1855.38 1512.51 Q1857.84 1511.93 1859.87 1511.93 Q1865.24 1511.93 1868.44 1514.62 Q1871.63 1517.31 1871.63 1521.8 Q1871.63 1523.93 1870.82 1525.85 Q1870.04 1527.74 1867.93 1530.34 Q1867.35 1531.01 1864.25 1534.23 Q1861.15 1537.42 1855.5 1543.18 Z" fill="#000000" fill-rule="evenodd" fill-opacity="1" /><path clip-path="url(#clip010)" d="M 0 0 M2117.06 1543.18 L2124.69 1543.18 L2124.69 1516.82 L2116.38 1518.49 L2116.38 1514.23 L2124.65 1512.56 L2129.32 1512.56 L2129.32 1543.18 L2136.96 1543.18 L2136.96 1547.12 L2117.06 1547.12 L2117.06 1543.18 Z" fill="#000000" fill-rule="evenodd" fill-opacity="1" /><path clip-path="url(#clip010)" d="M 0 0 M2159.25 1516.63 L2147.45 1535.08 L2159.25 1535.08 L2159.25 1516.63 M2158.03 1512.56 L2163.91 1512.56 L2163.91 1535.08 L2168.84 1535.08 L2168.84 1538.97 L2163.91 1538.97 L2163.91 1547.12 L2159.25 1547.12 L2159.25 1538.97 L2143.65 1538.97 L2143.65 1534.46 L2158.03 1512.56 Z" fill="#000000" fill-rule="evenodd" fill-opacity="1" /><polyline clip-path="url(#clip012)" style="stroke:#000000; stroke-width:2; stroke-opacity:0.1; fill:none" points="
  156.598,1322.34 2352.76,1322.34 
  "/>
<polyline clip-path="url(#clip012)" style="stroke:#000000; stroke-width:2; stroke-opacity:0.1; fill:none" points="
  156.598,1000.01 2352.76,1000.01 
  "/>
<polyline clip-path="url(#clip012)" style="stroke:#000000; stroke-width:2; stroke-opacity:0.1; fill:none" points="
  156.598,677.674 2352.76,677.674 
  "/>
<polyline clip-path="url(#clip012)" style="stroke:#000000; stroke-width:2; stroke-opacity:0.1; fill:none" points="
  156.598,355.34 2352.76,355.34 
  "/>
<polyline clip-path="url(#clip010)" style="stroke:#000000; stroke-width:4; stroke-opacity:1; fill:none" points="
  156.598,1486.45 156.598,123.472 
  "/>
<polyline clip-path="url(#clip010)" style="stroke:#000000; stroke-width:4; stroke-opacity:1; fill:none" points="
  156.598,1322.34 182.952,1322.34 
  "/>
<polyline clip-path="url(#clip010)" style="stroke:#000000; stroke-width:4; stroke-opacity:1; fill:none" points="
  156.598,1000.01 182.952,1000.01 
  "/>
<polyline clip-path="url(#clip010)" style="stroke:#000000; stroke-width:4; stroke-opacity:1; fill:none" points="
  156.598,677.674 182.952,677.674 
  "/>
<polyline clip-path="url(#clip010)" style="stroke:#000000; stroke-width:4; stroke-opacity:1; fill:none" points="
  156.598,355.34 182.952,355.34 
  "/>
<path clip-path="url(#clip010)" d="M 0 0 M65.0198 1308.14 Q61.4087 1308.14 59.58 1311.7 Q57.7745 1315.25 57.7745 1322.38 Q57.7745 1329.48 59.58 1333.05 Q61.4087 1336.59 65.0198 1336.59 Q68.6541 1336.59 70.4596 1333.05 Q72.2883 1329.48 72.2883 1322.38 Q72.2883 1315.25 70.4596 1311.7 Q68.6541 1308.14 65.0198 1308.14 M65.0198 1304.44 Q70.83 1304.44 73.8855 1309.04 Q76.9642 1313.63 76.9642 1322.38 Q76.9642 1331.1 73.8855 1335.71 Q70.83 1340.29 65.0198 1340.29 Q59.2097 1340.29 56.131 1335.71 Q53.0754 1331.1 53.0754 1322.38 Q53.0754 1313.63 56.131 1309.04 Q59.2097 1304.44 65.0198 1304.44 Z" fill="#000000" fill-rule="evenodd" fill-opacity="1" /><path clip-path="url(#clip010)" d="M 0 0 M85.1818 1333.74 L90.066 1333.74 L90.066 1339.62 L85.1818 1339.62 L85.1818 1333.74 Z" fill="#000000" fill-rule="evenodd" fill-opacity="1" /><path clip-path="url(#clip010)" d="M 0 0 M104.279 1335.69 L120.598 1335.69 L120.598 1339.62 L98.6539 1339.62 L98.6539 1335.69 Q101.316 1332.93 105.899 1328.3 Q110.506 1323.65 111.686 1322.31 Q113.932 1319.78 114.811 1318.05 Q115.714 1316.29 115.714 1314.6 Q115.714 1311.84 113.77 1310.11 Q111.848 1308.37 108.746 1308.37 Q106.547 1308.37 104.094 1309.13 Q101.663 1309.9 98.8854 1311.45 L98.8854 1306.73 Q101.709 1305.59 104.163 1305.01 Q106.617 1304.44 108.654 1304.44 Q114.024 1304.44 117.219 1307.12 Q120.413 1309.81 120.413 1314.3 Q120.413 1316.43 119.603 1318.35 Q118.816 1320.25 116.709 1322.84 Q116.131 1323.51 113.029 1326.73 Q109.927 1329.92 104.279 1335.69 Z" fill="#000000" fill-rule="evenodd" fill-opacity="1" /><path clip-path="url(#clip010)" d="M 0 0 M62.9365 985.806 Q59.3254 985.806 57.4967 989.371 Q55.6912 992.912 55.6912 1000.04 Q55.6912 1007.15 57.4967 1010.71 Q59.3254 1014.25 62.9365 1014.25 Q66.5707 1014.25 68.3763 1010.71 Q70.205 1007.15 70.205 1000.04 Q70.205 992.912 68.3763 989.371 Q66.5707 985.806 62.9365 985.806 M62.9365 982.102 Q68.7467 982.102 71.8022 986.709 Q74.8809 991.292 74.8809 1000.04 Q74.8809 1008.77 71.8022 1013.38 Q68.7467 1017.96 62.9365 1017.96 Q57.1264 1017.96 54.0477 1013.38 Q50.9921 1008.77 50.9921 1000.04 Q50.9921 991.292 54.0477 986.709 Q57.1264 982.102 62.9365 982.102 Z" fill="#000000" fill-rule="evenodd" fill-opacity="1" /><path clip-path="url(#clip010)" d="M 0 0 M83.0984 1011.41 L87.9827 1011.41 L87.9827 1017.29 L83.0984 1017.29 L83.0984 1011.41 Z" fill="#000000" fill-rule="evenodd" fill-opacity="1" /><path clip-path="url(#clip010)" d="M 0 0 M111.015 986.801 L99.2095 1005.25 L111.015 1005.25 L111.015 986.801 M109.788 982.727 L115.668 982.727 L115.668 1005.25 L120.598 1005.25 L120.598 1009.14 L115.668 1009.14 L115.668 1017.29 L111.015 1017.29 L111.015 1009.14 L95.4132 1009.14 L95.4132 1004.63 L109.788 982.727 Z" fill="#000000" fill-rule="evenodd" fill-opacity="1" /><path clip-path="url(#clip010)" d="M 0 0 M63.2606 663.472 Q59.6495 663.472 57.8208 667.037 Q56.0152 670.579 56.0152 677.708 Q56.0152 684.815 57.8208 688.38 Q59.6495 691.921 63.2606 691.921 Q66.8948 691.921 68.7004 688.38 Q70.5291 684.815 70.5291 677.708 Q70.5291 670.579 68.7004 667.037 Q66.8948 663.472 63.2606 663.472 M63.2606 659.769 Q69.0707 659.769 72.1263 664.375 Q75.205 668.958 75.205 677.708 Q75.205 686.435 72.1263 691.042 Q69.0707 695.625 63.2606 695.625 Q57.4504 695.625 54.3717 691.042 Q51.3162 686.435 51.3162 677.708 Q51.3162 668.958 54.3717 664.375 Q57.4504 659.769 63.2606 659.769 Z" fill="#000000" fill-rule="evenodd" fill-opacity="1" /><path clip-path="url(#clip010)" d="M 0 0 M83.4225 689.074 L88.3067 689.074 L88.3067 694.954 L83.4225 694.954 L83.4225 689.074 Z" fill="#000000" fill-rule="evenodd" fill-opacity="1" /><path clip-path="url(#clip010)" d="M 0 0 M109.071 675.81 Q105.922 675.81 104.071 677.963 Q102.242 680.116 102.242 683.866 Q102.242 687.593 104.071 689.769 Q105.922 691.921 109.071 691.921 Q112.219 691.921 114.047 689.769 Q115.899 687.593 115.899 683.866 Q115.899 680.116 114.047 677.963 Q112.219 675.81 109.071 675.81 M118.353 661.158 L118.353 665.417 Q116.594 664.583 114.788 664.144 Q113.006 663.704 111.246 663.704 Q106.617 663.704 104.163 666.829 Q101.733 669.954 101.385 676.273 Q102.751 674.259 104.811 673.195 Q106.871 672.107 109.348 672.107 Q114.557 672.107 117.566 675.278 Q120.598 678.426 120.598 683.866 Q120.598 689.19 117.45 692.407 Q114.302 695.625 109.071 695.625 Q103.075 695.625 99.9039 691.042 Q96.7326 686.435 96.7326 677.708 Q96.7326 669.514 100.621 664.653 Q104.51 659.769 111.061 659.769 Q112.82 659.769 114.603 660.116 Q116.408 660.463 118.353 661.158 Z" fill="#000000" fill-rule="evenodd" fill-opacity="1" /><path clip-path="url(#clip010)" d="M 0 0 M63.5152 341.139 Q59.9041 341.139 58.0754 344.704 Q56.2699 348.245 56.2699 355.375 Q56.2699 362.481 58.0754 366.046 Q59.9041 369.588 63.5152 369.588 Q67.1494 369.588 68.955 366.046 Q70.7837 362.481 70.7837 355.375 Q70.7837 348.245 68.955 344.704 Q67.1494 341.139 63.5152 341.139 M63.5152 337.435 Q69.3254 337.435 72.3809 342.042 Q75.4596 346.625 75.4596 355.375 Q75.4596 364.102 72.3809 368.708 Q69.3254 373.291 63.5152 373.291 Q57.7051 373.291 54.6264 368.708 Q51.5708 364.102 51.5708 355.375 Q51.5708 346.625 54.6264 342.042 Q57.7051 337.435 63.5152 337.435 Z" fill="#000000" fill-rule="evenodd" fill-opacity="1" /><path clip-path="url(#clip010)" d="M 0 0 M83.6771 366.741 L88.5614 366.741 L88.5614 372.62 L83.6771 372.62 L83.6771 366.741 Z" fill="#000000" fill-rule="evenodd" fill-opacity="1" /><path clip-path="url(#clip010)" d="M 0 0 M108.746 356.208 Q105.413 356.208 103.492 357.991 Q101.594 359.773 101.594 362.898 Q101.594 366.023 103.492 367.805 Q105.413 369.588 108.746 369.588 Q112.08 369.588 114.001 367.805 Q115.922 366 115.922 362.898 Q115.922 359.773 114.001 357.991 Q112.103 356.208 108.746 356.208 M104.071 354.217 Q101.061 353.477 99.3715 351.417 Q97.7048 349.356 97.7048 346.393 Q97.7048 342.25 100.645 339.843 Q103.608 337.435 108.746 337.435 Q113.908 337.435 116.848 339.843 Q119.788 342.25 119.788 346.393 Q119.788 349.356 118.098 351.417 Q116.432 353.477 113.445 354.217 Q116.825 355.004 118.7 357.296 Q120.598 359.588 120.598 362.898 Q120.598 367.921 117.52 370.606 Q114.464 373.291 108.746 373.291 Q103.029 373.291 99.9502 370.606 Q96.8947 367.921 96.8947 362.898 Q96.8947 359.588 98.7928 357.296 Q100.691 355.004 104.071 354.217 M102.358 346.833 Q102.358 349.518 104.024 351.023 Q105.714 352.528 108.746 352.528 Q111.756 352.528 113.445 351.023 Q115.158 349.518 115.158 346.833 Q115.158 344.148 113.445 342.643 Q111.756 341.139 108.746 341.139 Q105.714 341.139 104.024 342.643 Q102.358 344.148 102.358 346.833 Z" fill="#000000" fill-rule="evenodd" fill-opacity="1" /><path clip-path="url(#clip010)" d="M 0 0 M889.873 44.2197 Q892.506 45.1109 894.977 48.0275 Q897.489 50.9442 900 56.0483 L908.305 72.576 L899.514 72.576 L891.777 57.061 Q888.779 50.9847 885.944 48.9997 Q883.148 47.0148 878.287 47.0148 L869.375 47.0148 L869.375 72.576 L861.192 72.576 L861.192 12.096 L879.665 12.096 Q890.035 12.096 895.139 16.4305 Q900.243 20.7649 900.243 29.5149 Q900.243 35.2267 897.57 38.994 Q894.937 42.7613 889.873 44.2197 M869.375 18.8205 L869.375 40.2903 L879.665 40.2903 Q885.579 40.2903 888.577 37.5762 Q891.615 34.8216 891.615 29.5149 Q891.615 24.2082 888.577 21.5346 Q885.579 18.8205 879.665 18.8205 L869.375 18.8205 Z" fill="#000000" fill-rule="evenodd" fill-opacity="1" /><path clip-path="url(#clip010)" d="M 0 0 M937.309 49.7694 Q928.275 49.7694 924.792 51.8354 Q921.308 53.9013 921.308 58.8839 Q921.308 62.8538 923.9 65.2034 Q926.534 67.5124 931.03 67.5124 Q937.228 67.5124 940.955 63.1374 Q944.722 58.7219 944.722 51.4303 L944.722 49.7694 L937.309 49.7694 M952.176 46.6907 L952.176 72.576 L944.722 72.576 L944.722 65.6895 Q942.17 69.8214 938.362 71.8063 Q934.554 73.7508 929.045 73.7508 Q922.078 73.7508 917.946 69.8619 Q913.854 65.9325 913.854 59.3701 Q913.854 51.7138 918.958 47.825 Q924.103 43.9361 934.271 43.9361 L944.722 43.9361 L944.722 43.2069 Q944.722 38.0623 941.319 35.2672 Q937.957 32.4315 931.84 32.4315 Q927.951 32.4315 924.265 33.3632 Q920.579 34.295 917.176 36.1584 L917.176 29.2718 Q921.267 27.692 925.116 26.9223 Q928.964 26.1121 932.61 26.1121 Q942.454 26.1121 947.315 31.2163 Q952.176 36.3204 952.176 46.6907 Z" fill="#000000" fill-rule="evenodd" fill-opacity="1" /><path clip-path="url(#clip010)" d="M 0 0 M1005.24 45.1919 L1005.24 72.576 L997.789 72.576 L997.789 45.4349 Q997.789 38.994 995.277 35.7938 Q992.766 32.5936 987.743 32.5936 Q981.707 32.5936 978.223 36.4419 Q974.739 40.2903 974.739 46.9338 L974.739 72.576 L967.245 72.576 L967.245 27.2059 L974.739 27.2059 L974.739 34.2544 Q977.413 30.163 981.018 28.1376 Q984.664 26.1121 989.404 26.1121 Q997.222 26.1121 1001.23 30.9732 Q1005.24 35.7938 1005.24 45.1919 Z" fill="#000000" fill-rule="evenodd" fill-opacity="1" /><path clip-path="url(#clip010)" d="M 0 0 M1049.96 34.0924 L1049.96 9.54393 L1057.42 9.54393 L1057.42 72.576 L1049.96 72.576 L1049.96 65.7705 Q1047.62 69.8214 1044.01 71.8063 Q1040.45 73.7508 1035.42 73.7508 Q1027.2 73.7508 1022.01 67.1883 Q1016.87 60.6258 1016.87 49.9314 Q1016.87 39.2371 1022.01 32.6746 Q1027.2 26.1121 1035.42 26.1121 Q1040.45 26.1121 1044.01 28.0971 Q1047.62 30.0415 1049.96 34.0924 M1024.57 49.9314 Q1024.57 58.1548 1027.93 62.8538 Q1031.33 67.5124 1037.24 67.5124 Q1043.16 67.5124 1046.56 62.8538 Q1049.96 58.1548 1049.96 49.9314 Q1049.96 41.7081 1046.56 37.0496 Q1043.16 32.3505 1037.24 32.3505 Q1031.33 32.3505 1027.93 37.0496 Q1024.57 41.7081 1024.57 49.9314 Z" fill="#000000" fill-rule="evenodd" fill-opacity="1" /><path clip-path="url(#clip010)" d="M 0 0 M1090.35 32.4315 Q1084.36 32.4315 1080.87 37.1306 Q1077.39 41.7891 1077.39 49.9314 Q1077.39 58.0738 1080.83 62.7728 Q1084.32 67.4314 1090.35 67.4314 Q1096.31 67.4314 1099.79 62.7323 Q1103.27 58.0333 1103.27 49.9314 Q1103.27 41.8701 1099.79 37.1711 Q1096.31 32.4315 1090.35 32.4315 M1090.35 26.1121 Q1100.07 26.1121 1105.62 32.4315 Q1111.17 38.7509 1111.17 49.9314 Q1111.17 61.0714 1105.62 67.4314 Q1100.07 73.7508 1090.35 73.7508 Q1080.59 73.7508 1075.04 67.4314 Q1069.53 61.0714 1069.53 49.9314 Q1069.53 38.7509 1075.04 32.4315 Q1080.59 26.1121 1090.35 26.1121 Z" fill="#000000" fill-rule="evenodd" fill-opacity="1" /><path clip-path="url(#clip010)" d="M 0 0 M1158.85 35.9153 Q1161.65 30.8922 1165.54 28.5022 Q1169.43 26.1121 1174.69 26.1121 Q1181.78 26.1121 1185.63 31.0947 Q1189.48 36.0368 1189.48 45.1919 L1189.48 72.576 L1181.98 72.576 L1181.98 45.4349 Q1181.98 38.913 1179.67 35.7533 Q1177.37 32.5936 1172.63 32.5936 Q1166.83 32.5936 1163.47 36.4419 Q1160.11 40.2903 1160.11 46.9338 L1160.11 72.576 L1152.61 72.576 L1152.61 45.4349 Q1152.61 38.8725 1150.31 35.7533 Q1148 32.5936 1143.18 32.5936 Q1137.46 32.5936 1134.1 36.4824 Q1130.74 40.3308 1130.74 46.9338 L1130.74 72.576 L1123.25 72.576 L1123.25 27.2059 L1130.74 27.2059 L1130.74 34.2544 Q1133.29 30.082 1136.86 28.0971 Q1140.42 26.1121 1145.32 26.1121 Q1150.27 26.1121 1153.71 28.6237 Q1157.19 31.1352 1158.85 35.9153 Z" fill="#000000" fill-rule="evenodd" fill-opacity="1" /><path clip-path="url(#clip010)" d="M 0 0 M1231.04 12.096 L1239.22 12.096 L1239.22 65.6895 L1268.67 65.6895 L1268.67 72.576 L1231.04 72.576 L1231.04 12.096 Z" fill="#000000" fill-rule="evenodd" fill-opacity="1" /><path clip-path="url(#clip010)" d="M 0 0 M1276.94 27.2059 L1284.39 27.2059 L1284.39 72.576 L1276.94 72.576 L1276.94 27.2059 M1276.94 9.54393 L1284.39 9.54393 L1284.39 18.9825 L1276.94 18.9825 L1276.94 9.54393 Z" fill="#000000" fill-rule="evenodd" fill-opacity="1" /><path clip-path="url(#clip010)" d="M 0 0 M1337.7 45.1919 L1337.7 72.576 L1330.25 72.576 L1330.25 45.4349 Q1330.25 38.994 1327.74 35.7938 Q1325.22 32.5936 1320.2 32.5936 Q1314.16 32.5936 1310.68 36.4419 Q1307.2 40.2903 1307.2 46.9338 L1307.2 72.576 L1299.7 72.576 L1299.7 27.2059 L1307.2 27.2059 L1307.2 34.2544 Q1309.87 30.163 1313.48 28.1376 Q1317.12 26.1121 1321.86 26.1121 Q1329.68 26.1121 1333.69 30.9732 Q1337.7 35.7938 1337.7 45.1919 Z" fill="#000000" fill-rule="evenodd" fill-opacity="1" /><path clip-path="url(#clip010)" d="M 0 0 M1391.37 48.0275 L1391.37 51.6733 L1357.1 51.6733 Q1357.59 59.3701 1361.72 63.421 Q1365.89 67.4314 1373.31 67.4314 Q1377.6 67.4314 1381.61 66.3781 Q1385.66 65.3249 1389.63 63.2184 L1389.63 70.267 Q1385.62 71.9684 1381.41 72.8596 Q1377.2 73.7508 1372.86 73.7508 Q1362.01 73.7508 1355.65 67.4314 Q1349.33 61.1119 1349.33 50.3365 Q1349.33 39.1965 1355.32 32.6746 Q1361.36 26.1121 1371.57 26.1121 Q1380.72 26.1121 1386.03 32.0264 Q1391.37 37.9003 1391.37 48.0275 M1383.92 45.84 Q1383.84 39.7232 1380.48 36.0774 Q1377.16 32.4315 1371.65 32.4315 Q1365.41 32.4315 1361.64 35.9558 Q1357.91 39.4801 1357.35 45.8805 L1383.92 45.84 Z" fill="#000000" fill-rule="evenodd" fill-opacity="1" /><path clip-path="url(#clip010)" d="M 0 0 M1475.59 16.7545 L1475.59 25.383 Q1471.46 21.5346 1466.76 19.6307 Q1462.1 17.7268 1456.84 17.7268 Q1446.47 17.7268 1440.96 24.0867 Q1435.45 30.4061 1435.45 42.3968 Q1435.45 54.3469 1440.96 60.7069 Q1446.47 67.0263 1456.84 67.0263 Q1462.1 67.0263 1466.76 65.1223 Q1471.46 63.2184 1475.59 59.3701 L1475.59 67.9175 Q1471.3 70.8341 1466.48 72.2924 Q1461.7 73.7508 1456.35 73.7508 Q1442.62 73.7508 1434.72 65.3654 Q1426.82 56.9395 1426.82 42.3968 Q1426.82 27.8135 1434.72 19.4281 Q1442.62 11.0023 1456.35 11.0023 Q1461.78 11.0023 1466.56 12.4606 Q1471.38 13.8784 1475.59 16.7545 Z" fill="#000000" fill-rule="evenodd" fill-opacity="1" /><path clip-path="url(#clip010)" d="M 0 0 M1525.62 45.1919 L1525.62 72.576 L1518.17 72.576 L1518.17 45.4349 Q1518.17 38.994 1515.66 35.7938 Q1513.15 32.5936 1508.12 32.5936 Q1502.09 32.5936 1498.6 36.4419 Q1495.12 40.2903 1495.12 46.9338 L1495.12 72.576 L1487.62 72.576 L1487.62 9.54393 L1495.12 9.54393 L1495.12 34.2544 Q1497.79 30.163 1501.4 28.1376 Q1505.04 26.1121 1509.78 26.1121 Q1517.6 26.1121 1521.61 30.9732 Q1525.62 35.7938 1525.62 45.1919 Z" fill="#000000" fill-rule="evenodd" fill-opacity="1" /><path clip-path="url(#clip010)" d="M 0 0 M1561.11 49.7694 Q1552.07 49.7694 1548.59 51.8354 Q1545.11 53.9013 1545.11 58.8839 Q1545.11 62.8538 1547.7 65.2034 Q1550.33 67.5124 1554.83 67.5124 Q1561.03 67.5124 1564.75 63.1374 Q1568.52 58.7219 1568.52 51.4303 L1568.52 49.7694 L1561.11 49.7694 M1575.97 46.6907 L1575.97 72.576 L1568.52 72.576 L1568.52 65.6895 Q1565.97 69.8214 1562.16 71.8063 Q1558.35 73.7508 1552.84 73.7508 Q1545.88 73.7508 1541.74 69.8619 Q1537.65 65.9325 1537.65 59.3701 Q1537.65 51.7138 1542.76 47.825 Q1547.9 43.9361 1558.07 43.9361 L1568.52 43.9361 L1568.52 43.2069 Q1568.52 38.0623 1565.12 35.2672 Q1561.76 32.4315 1555.64 32.4315 Q1551.75 32.4315 1548.06 33.3632 Q1544.38 34.295 1540.97 36.1584 L1540.97 29.2718 Q1545.07 27.692 1548.91 26.9223 Q1552.76 26.1121 1556.41 26.1121 Q1566.25 26.1121 1571.11 31.2163 Q1575.97 36.3204 1575.97 46.6907 Z" fill="#000000" fill-rule="evenodd" fill-opacity="1" /><path clip-path="url(#clip010)" d="M 0 0 M1617.62 34.1734 Q1616.36 33.4443 1614.86 33.1202 Q1613.4 32.7556 1611.62 32.7556 Q1605.3 32.7556 1601.9 36.8875 Q1598.54 40.9789 1598.54 48.6757 L1598.54 72.576 L1591.04 72.576 L1591.04 27.2059 L1598.54 27.2059 L1598.54 34.2544 Q1600.89 30.1225 1604.65 28.1376 Q1608.42 26.1121 1613.81 26.1121 Q1614.58 26.1121 1615.51 26.2337 Q1616.44 26.3147 1617.58 26.5172 L1617.62 34.1734 Z" fill="#000000" fill-rule="evenodd" fill-opacity="1" /><path clip-path="url(#clip010)" d="M 0 0 M1632.81 14.324 L1632.81 27.2059 L1648.16 27.2059 L1648.16 32.9987 L1632.81 32.9987 L1632.81 57.6282 Q1632.81 63.1779 1634.31 64.7578 Q1635.85 66.3376 1640.51 66.3376 L1648.16 66.3376 L1648.16 72.576 L1640.51 72.576 Q1631.88 72.576 1628.6 69.3758 Q1625.31 66.1351 1625.31 57.6282 L1625.31 32.9987 L1619.85 32.9987 L1619.85 27.2059 L1625.31 27.2059 L1625.31 14.324 L1632.81 14.324 Z" fill="#000000" fill-rule="evenodd" fill-opacity="1" /><polyline clip-path="url(#clip012)" style="stroke:#009af9; stroke-width:8; stroke-opacity:1; fill:none" points="
  218.754,678.959 366.743,500.297 514.732,1419.73 662.721,1071.3 810.71,1282.94 958.699,425.069 1106.69,999.774 1254.68,1351.86 1402.67,1447.87 1550.66,1104.45 
  1698.64,1439.8 1846.63,1034.56 1994.62,241.514 2142.61,162.047 2290.6,1377.57 
  "/>
<path clip-path="url(#clip010)" d="
M1900.53 289.865 L2279.55 289.865 L2279.55 168.905 L1900.53 168.905  Z
  " fill="#ffffff" fill-rule="evenodd" fill-opacity="1"/>
<polyline clip-path="url(#clip010)" style="stroke:#000000; stroke-width:4; stroke-opacity:1; fill:none" points="
  1900.53,289.865 2279.55,289.865 2279.55,168.905 1900.53,168.905 1900.53,289.865 
  "/>
<polyline clip-path="url(#clip010)" style="stroke:#009af9; stroke-width:4; stroke-opacity:1; fill:none" points="
  1924.94,229.385 2071.35,229.385 
  "/>
<path clip-path="url(#clip010)" d="M 0 0 M2095.75 212.105 L2100.42 212.105 L2100.42 242.729 L2117.25 242.729 L2117.25 246.665 L2095.75 246.665 L2095.75 212.105 Z" fill="#000000" fill-rule="evenodd" fill-opacity="1" /><path clip-path="url(#clip010)" d="M 0 0 M2121.97 220.739 L2126.23 220.739 L2126.23 246.665 L2121.97 246.665 L2121.97 220.739 M2121.97 210.646 L2126.23 210.646 L2126.23 216.04 L2121.97 216.04 L2121.97 210.646 Z" fill="#000000" fill-rule="evenodd" fill-opacity="1" /><path clip-path="url(#clip010)" d="M 0 0 M2156.7 231.017 L2156.7 246.665 L2152.44 246.665 L2152.44 231.155 Q2152.44 227.475 2151 225.646 Q2149.57 223.818 2146.7 223.818 Q2143.25 223.818 2141.26 226.017 Q2139.27 228.216 2139.27 232.012 L2139.27 246.665 L2134.98 246.665 L2134.98 220.739 L2139.27 220.739 L2139.27 224.767 Q2140.79 222.429 2142.85 221.271 Q2144.94 220.114 2147.65 220.114 Q2152.11 220.114 2154.4 222.892 Q2156.7 225.646 2156.7 231.017 Z" fill="#000000" fill-rule="evenodd" fill-opacity="1" /><path clip-path="url(#clip010)" d="M 0 0 M2187.37 232.637 L2187.37 234.72 L2167.78 234.72 Q2168.06 239.118 2170.42 241.433 Q2172.81 243.725 2177.04 243.725 Q2179.5 243.725 2181.79 243.123 Q2184.1 242.521 2186.37 241.317 L2186.37 245.345 Q2184.08 246.317 2181.67 246.827 Q2179.27 247.336 2176.79 247.336 Q2170.59 247.336 2166.95 243.725 Q2163.34 240.114 2163.34 233.956 Q2163.34 227.591 2166.77 223.864 Q2170.22 220.114 2176.05 220.114 Q2181.28 220.114 2184.31 223.493 Q2187.37 226.85 2187.37 232.637 M2183.11 231.387 Q2183.06 227.892 2181.14 225.808 Q2179.24 223.725 2176.09 223.725 Q2172.53 223.725 2170.38 225.739 Q2168.25 227.753 2167.92 231.41 L2183.11 231.387 Z" fill="#000000" fill-rule="evenodd" fill-opacity="1" /><path clip-path="url(#clip010)" d="M 0 0 M2210.84 242.729 L2218.48 242.729 L2218.48 216.364 L2210.17 218.031 L2210.17 213.771 L2218.43 212.105 L2223.11 212.105 L2223.11 242.729 L2230.75 242.729 L2230.75 246.665 L2210.84 246.665 L2210.84 242.729 Z" fill="#000000" fill-rule="evenodd" fill-opacity="1" /></svg>
