<?xml version="1.0" encoding="utf-8"?>
<svg xmlns="http://www.w3.org/2000/svg" xmlns:xlink="http://www.w3.org/1999/xlink" width="600" height="400" viewBox="0 0 2400 1600">
<defs>
  <clipPath id="clip210">
    <rect x="0" y="0" width="2400" height="1600"/>
  </clipPath>
</defs>
<path clip-path="url(#clip210)" d="
M0 1600 L2400 1600 L2400 0 L0 0  Z
  " fill="#ffffff" fill-rule="evenodd" fill-opacity="1"/>
<defs>
  <clipPath id="clip211">
    <rect x="480" y="0" width="1681" height="1600"/>
  </clipPath>
</defs>
<path clip-path="url(#clip210)" d="
M156.598 686.448 L1138.96 686.448 L1138.96 47.2441 L156.598 47.2441  Z
  " fill="#ffffff" fill-rule="evenodd" fill-opacity="1"/>
<defs>
  <clipPath id="clip212">
    <rect x="156" y="47" width="983" height="640"/>
  </clipPath>
</defs>
<polyline clip-path="url(#clip212)" style="stroke:#000000; stroke-width:2; stroke-opacity:0.1; fill:none" points="
  250.598,686.448 250.598,47.2441 
  "/>
<polyline clip-path="url(#clip212)" style="stroke:#000000; stroke-width:2; stroke-opacity:0.1; fill:none" points="
  382.992,686.448 382.992,47.2441 
  "/>
<polyline clip-path="url(#clip212)" style="stroke:#000000; stroke-width:2; stroke-opacity:0.1; fill:none" points="
  515.385,686.448 515.385,47.2441 
  "/>
<polyline clip-path="url(#clip212)" style="stroke:#000000; stroke-width:2; stroke-opacity:0.1; fill:none" points="
  647.779,686.448 647.779,47.2441 
  "/>
<polyline clip-path="url(#clip212)" style="stroke:#000000; stroke-width:2; stroke-opacity:0.1; fill:none" points="
  780.173,686.448 780.173,47.2441 
  "/>
<polyline clip-path="url(#clip212)" style="stroke:#000000; stroke-width:2; stroke-opacity:0.1; fill:none" points="
  912.566,686.448 912.566,47.2441 
  "/>
<polyline clip-path="url(#clip212)" style="stroke:#000000; stroke-width:2; stroke-opacity:0.1; fill:none" points="
  1044.96,686.448 1044.96,47.2441 
  "/>
<polyline clip-path="url(#clip210)" style="stroke:#000000; stroke-width:4; stroke-opacity:1; fill:none" points="
  156.598,686.448 1138.96,686.448 
  "/>
<polyline clip-path="url(#clip210)" style="stroke:#000000; stroke-width:4; stroke-opacity:1; fill:none" points="
  250.598,686.448 250.598,678.777 
  "/>
<polyline clip-path="url(#clip210)" style="stroke:#000000; stroke-width:4; stroke-opacity:1; fill:none" points="
  382.992,686.448 382.992,678.777 
  "/>
<polyline clip-path="url(#clip210)" style="stroke:#000000; stroke-width:4; stroke-opacity:1; fill:none" points="
  515.385,686.448 515.385,678.777 
  "/>
<polyline clip-path="url(#clip210)" style="stroke:#000000; stroke-width:4; stroke-opacity:1; fill:none" points="
  647.779,686.448 647.779,678.777 
  "/>
<polyline clip-path="url(#clip210)" style="stroke:#000000; stroke-width:4; stroke-opacity:1; fill:none" points="
  780.173,686.448 780.173,678.777 
  "/>
<polyline clip-path="url(#clip210)" style="stroke:#000000; stroke-width:4; stroke-opacity:1; fill:none" points="
  912.566,686.448 912.566,678.777 
  "/>
<polyline clip-path="url(#clip210)" style="stroke:#000000; stroke-width:4; stroke-opacity:1; fill:none" points="
  1044.96,686.448 1044.96,678.777 
  "/>
<path clip-path="url(#clip210)" d="M 0 0 M245.251 743.185 L261.57 743.185 L261.57 747.12 L239.626 747.12 L239.626 743.185 Q242.288 740.43 246.871 735.8 Q251.477 731.148 252.658 729.805 Q254.903 727.282 255.783 725.546 Q256.686 723.787 256.686 722.097 Q256.686 719.342 254.741 717.606 Q252.82 715.87 249.718 715.87 Q247.519 715.87 245.065 716.634 Q242.635 717.398 239.857 718.949 L239.857 714.227 Q242.681 713.092 245.135 712.514 Q247.589 711.935 249.626 711.935 Q254.996 711.935 258.19 714.62 Q261.385 717.305 261.385 721.796 Q261.385 723.926 260.575 725.847 Q259.788 727.745 257.681 730.338 Q257.102 731.009 254.001 734.226 Q250.899 737.421 245.251 743.185 Z" fill="#000000" fill-rule="evenodd" fill-opacity="1" /><path clip-path="url(#clip210)" d="M 0 0 M386.001 716.634 L374.195 735.083 L386.001 735.083 L386.001 716.634 M384.774 712.56 L390.654 712.56 L390.654 735.083 L395.584 735.083 L395.584 738.972 L390.654 738.972 L390.654 747.12 L386.001 747.12 L386.001 738.972 L370.399 738.972 L370.399 734.458 L384.774 712.56 Z" fill="#000000" fill-rule="evenodd" fill-opacity="1" /><path clip-path="url(#clip210)" d="M 0 0 M515.79 727.976 Q512.642 727.976 510.79 730.129 Q508.962 732.282 508.962 736.032 Q508.962 739.759 510.79 741.935 Q512.642 744.087 515.79 744.087 Q518.938 744.087 520.767 741.935 Q522.619 739.759 522.619 736.032 Q522.619 732.282 520.767 730.129 Q518.938 727.976 515.79 727.976 M525.073 713.324 L525.073 717.583 Q523.313 716.75 521.508 716.31 Q519.725 715.87 517.966 715.87 Q513.337 715.87 510.883 718.995 Q508.452 722.12 508.105 728.439 Q509.471 726.426 511.531 725.361 Q513.591 724.273 516.068 724.273 Q521.276 724.273 524.286 727.444 Q527.318 730.592 527.318 736.032 Q527.318 741.356 524.17 744.574 Q521.022 747.791 515.79 747.791 Q509.795 747.791 506.624 743.208 Q503.452 738.601 503.452 729.875 Q503.452 721.68 507.341 716.819 Q511.23 711.935 517.781 711.935 Q519.54 711.935 521.323 712.282 Q523.128 712.629 525.073 713.324 Z" fill="#000000" fill-rule="evenodd" fill-opacity="1" /><path clip-path="url(#clip210)" d="M 0 0 M647.779 730.708 Q644.446 730.708 642.524 732.49 Q640.626 734.273 640.626 737.398 Q640.626 740.523 642.524 742.305 Q644.446 744.087 647.779 744.087 Q651.112 744.087 653.034 742.305 Q654.955 740.5 654.955 737.398 Q654.955 734.273 653.034 732.49 Q651.135 730.708 647.779 730.708 M643.103 728.717 Q640.094 727.976 638.404 725.916 Q636.737 723.856 636.737 720.893 Q636.737 716.75 639.677 714.342 Q642.64 711.935 647.779 711.935 Q652.941 711.935 655.881 714.342 Q658.821 716.75 658.821 720.893 Q658.821 723.856 657.131 725.916 Q655.464 727.976 652.478 728.717 Q655.858 729.504 657.733 731.796 Q659.631 734.088 659.631 737.398 Q659.631 742.421 656.552 745.106 Q653.497 747.791 647.779 747.791 Q642.061 747.791 638.983 745.106 Q635.927 742.421 635.927 737.398 Q635.927 734.088 637.825 731.796 Q639.723 729.504 643.103 728.717 M641.39 721.333 Q641.39 724.018 643.057 725.523 Q644.747 727.027 647.779 727.027 Q650.788 727.027 652.478 725.523 Q654.191 724.018 654.191 721.333 Q654.191 718.648 652.478 717.143 Q650.788 715.639 647.779 715.639 Q644.747 715.639 643.057 717.143 Q641.39 718.648 641.39 721.333 Z" fill="#000000" fill-rule="evenodd" fill-opacity="1" /><path clip-path="url(#clip210)" d="M 0 0 M754.86 743.185 L762.499 743.185 L762.499 716.819 L754.189 718.486 L754.189 714.227 L762.453 712.56 L767.129 712.56 L767.129 743.185 L774.768 743.185 L774.768 747.12 L754.86 747.12 L754.86 743.185 Z" fill="#000000" fill-rule="evenodd" fill-opacity="1" /><path clip-path="url(#clip210)" d="M 0 0 M794.212 715.639 Q790.601 715.639 788.772 719.203 Q786.967 722.745 786.967 729.875 Q786.967 736.981 788.772 740.546 Q790.601 744.087 794.212 744.087 Q797.846 744.087 799.652 740.546 Q801.48 736.981 801.48 729.875 Q801.48 722.745 799.652 719.203 Q797.846 715.639 794.212 715.639 M794.212 711.935 Q800.022 711.935 803.078 716.541 Q806.156 721.125 806.156 729.875 Q806.156 738.601 803.078 743.208 Q800.022 747.791 794.212 747.791 Q788.402 747.791 785.323 743.208 Q782.268 738.601 782.268 729.875 Q782.268 721.125 785.323 716.541 Q788.402 711.935 794.212 711.935 Z" fill="#000000" fill-rule="evenodd" fill-opacity="1" /><path clip-path="url(#clip210)" d="M 0 0 M888.053 743.185 L895.692 743.185 L895.692 716.819 L887.381 718.486 L887.381 714.227 L895.645 712.56 L900.321 712.56 L900.321 743.185 L907.96 743.185 L907.96 747.12 L888.053 747.12 L888.053 743.185 Z" fill="#000000" fill-rule="evenodd" fill-opacity="1" /><path clip-path="url(#clip210)" d="M 0 0 M921.432 743.185 L937.751 743.185 L937.751 747.12 L915.807 747.12 L915.807 743.185 Q918.469 740.43 923.052 735.8 Q927.659 731.148 928.839 729.805 Q931.085 727.282 931.964 725.546 Q932.867 723.787 932.867 722.097 Q932.867 719.342 930.923 717.606 Q929.002 715.87 925.9 715.87 Q923.701 715.87 921.247 716.634 Q918.816 717.398 916.039 718.949 L916.039 714.227 Q918.863 713.092 921.316 712.514 Q923.77 711.935 925.807 711.935 Q931.177 711.935 934.372 714.62 Q937.566 717.305 937.566 721.796 Q937.566 723.926 936.756 725.847 Q935.969 727.745 933.863 730.338 Q933.284 731.009 930.182 734.226 Q927.08 737.421 921.432 743.185 Z" fill="#000000" fill-rule="evenodd" fill-opacity="1" /><path clip-path="url(#clip210)" d="M 0 0 M1019.4 743.185 L1027.04 743.185 L1027.04 716.819 L1018.73 718.486 L1018.73 714.227 L1027 712.56 L1031.67 712.56 L1031.67 743.185 L1039.31 743.185 L1039.31 747.12 L1019.4 747.12 L1019.4 743.185 Z" fill="#000000" fill-rule="evenodd" fill-opacity="1" /><path clip-path="url(#clip210)" d="M 0 0 M1061.6 716.634 L1049.8 735.083 L1061.6 735.083 L1061.6 716.634 M1060.38 712.56 L1066.26 712.56 L1066.26 735.083 L1071.19 735.083 L1071.19 738.972 L1066.26 738.972 L1066.26 747.12 L1061.6 747.12 L1061.6 738.972 L1046 738.972 L1046 734.458 L1060.38 712.56 Z" fill="#000000" fill-rule="evenodd" fill-opacity="1" /><polyline clip-path="url(#clip212)" style="stroke:#000000; stroke-width:2; stroke-opacity:0.1; fill:none" points="
  156.598,609.485 1138.96,609.485 
  "/>
<polyline clip-path="url(#clip212)" style="stroke:#000000; stroke-width:2; stroke-opacity:0.1; fill:none" points="
  156.598,458.319 1138.96,458.319 
  "/>
<polyline clip-path="url(#clip212)" style="stroke:#000000; stroke-width:2; stroke-opacity:0.1; fill:none" points="
  156.598,307.152 1138.96,307.152 
  "/>
<polyline clip-path="url(#clip212)" style="stroke:#000000; stroke-width:2; stroke-opacity:0.1; fill:none" points="
  156.598,155.985 1138.96,155.985 
  "/>
<polyline clip-path="url(#clip210)" style="stroke:#000000; stroke-width:4; stroke-opacity:1; fill:none" points="
  156.598,686.448 156.598,47.2441 
  "/>
<polyline clip-path="url(#clip210)" style="stroke:#000000; stroke-width:4; stroke-opacity:1; fill:none" points="
  156.598,609.485 168.387,609.485 
  "/>
<polyline clip-path="url(#clip210)" style="stroke:#000000; stroke-width:4; stroke-opacity:1; fill:none" points="
  156.598,458.319 168.387,458.319 
  "/>
<polyline clip-path="url(#clip210)" style="stroke:#000000; stroke-width:4; stroke-opacity:1; fill:none" points="
  156.598,307.152 168.387,307.152 
  "/>
<polyline clip-path="url(#clip210)" style="stroke:#000000; stroke-width:4; stroke-opacity:1; fill:none" points="
  156.598,155.985 168.387,155.985 
  "/>
<path clip-path="url(#clip210)" d="M 0 0 M65.0198 595.284 Q61.4087 595.284 59.58 598.849 Q57.7745 602.391 57.7745 609.52 Q57.7745 616.627 59.58 620.191 Q61.4087 623.733 65.0198 623.733 Q68.6541 623.733 70.4596 620.191 Q72.2883 616.627 72.2883 609.52 Q72.2883 602.391 70.4596 598.849 Q68.6541 595.284 65.0198 595.284 M65.0198 591.58 Q70.83 591.58 73.8855 596.187 Q76.9642 600.77 76.9642 609.52 Q76.9642 618.247 73.8855 622.853 Q70.83 627.437 65.0198 627.437 Q59.2097 627.437 56.131 622.853 Q53.0754 618.247 53.0754 609.52 Q53.0754 600.77 56.131 596.187 Q59.2097 591.58 65.0198 591.58 Z" fill="#000000" fill-rule="evenodd" fill-opacity="1" /><path clip-path="url(#clip210)" d="M 0 0 M85.1818 620.886 L90.066 620.886 L90.066 626.765 L85.1818 626.765 L85.1818 620.886 Z" fill="#000000" fill-rule="evenodd" fill-opacity="1" /><path clip-path="url(#clip210)" d="M 0 0 M104.279 622.83 L120.598 622.83 L120.598 626.765 L98.6539 626.765 L98.6539 622.83 Q101.316 620.076 105.899 615.446 Q110.506 610.793 111.686 609.451 Q113.932 606.928 114.811 605.191 Q115.714 603.432 115.714 601.742 Q115.714 598.988 113.77 597.252 Q111.848 595.516 108.746 595.516 Q106.547 595.516 104.094 596.279 Q101.663 597.043 98.8854 598.594 L98.8854 593.872 Q101.709 592.738 104.163 592.159 Q106.617 591.58 108.654 591.58 Q114.024 591.58 117.219 594.266 Q120.413 596.951 120.413 601.441 Q120.413 603.571 119.603 605.492 Q118.816 607.391 116.709 609.983 Q116.131 610.654 113.029 613.872 Q109.927 617.066 104.279 622.83 Z" fill="#000000" fill-rule="evenodd" fill-opacity="1" /><path clip-path="url(#clip210)" d="M 0 0 M62.9365 444.117 Q59.3254 444.117 57.4967 447.682 Q55.6912 451.224 55.6912 458.353 Q55.6912 465.46 57.4967 469.025 Q59.3254 472.566 62.9365 472.566 Q66.5707 472.566 68.3763 469.025 Q70.205 465.46 70.205 458.353 Q70.205 451.224 68.3763 447.682 Q66.5707 444.117 62.9365 444.117 M62.9365 440.414 Q68.7467 440.414 71.8022 445.02 Q74.8809 449.603 74.8809 458.353 Q74.8809 467.08 71.8022 471.687 Q68.7467 476.27 62.9365 476.27 Q57.1264 476.27 54.0477 471.687 Q50.9921 467.08 50.9921 458.353 Q50.9921 449.603 54.0477 445.02 Q57.1264 440.414 62.9365 440.414 Z" fill="#000000" fill-rule="evenodd" fill-opacity="1" /><path clip-path="url(#clip210)" d="M 0 0 M83.0984 469.719 L87.9827 469.719 L87.9827 475.599 L83.0984 475.599 L83.0984 469.719 Z" fill="#000000" fill-rule="evenodd" fill-opacity="1" /><path clip-path="url(#clip210)" d="M 0 0 M111.015 445.113 L99.2095 463.562 L111.015 463.562 L111.015 445.113 M109.788 441.039 L115.668 441.039 L115.668 463.562 L120.598 463.562 L120.598 467.45 L115.668 467.45 L115.668 475.599 L111.015 475.599 L111.015 467.45 L95.4132 467.45 L95.4132 462.937 L109.788 441.039 Z" fill="#000000" fill-rule="evenodd" fill-opacity="1" /><path clip-path="url(#clip210)" d="M 0 0 M63.2606 292.95 Q59.6495 292.95 57.8208 296.515 Q56.0152 300.057 56.0152 307.186 Q56.0152 314.293 57.8208 317.858 Q59.6495 321.399 63.2606 321.399 Q66.8948 321.399 68.7004 317.858 Q70.5291 314.293 70.5291 307.186 Q70.5291 300.057 68.7004 296.515 Q66.8948 292.95 63.2606 292.95 M63.2606 289.247 Q69.0707 289.247 72.1263 293.853 Q75.205 298.436 75.205 307.186 Q75.205 315.913 72.1263 320.52 Q69.0707 325.103 63.2606 325.103 Q57.4504 325.103 54.3717 320.52 Q51.3162 315.913 51.3162 307.186 Q51.3162 298.436 54.3717 293.853 Q57.4504 289.247 63.2606 289.247 Z" fill="#000000" fill-rule="evenodd" fill-opacity="1" /><path clip-path="url(#clip210)" d="M 0 0 M83.4225 318.552 L88.3067 318.552 L88.3067 324.432 L83.4225 324.432 L83.4225 318.552 Z" fill="#000000" fill-rule="evenodd" fill-opacity="1" /><path clip-path="url(#clip210)" d="M 0 0 M109.071 305.288 Q105.922 305.288 104.071 307.441 Q102.242 309.594 102.242 313.344 Q102.242 317.071 104.071 319.247 Q105.922 321.399 109.071 321.399 Q112.219 321.399 114.047 319.247 Q115.899 317.071 115.899 313.344 Q115.899 309.594 114.047 307.441 Q112.219 305.288 109.071 305.288 M118.353 290.636 L118.353 294.895 Q116.594 294.061 114.788 293.622 Q113.006 293.182 111.246 293.182 Q106.617 293.182 104.163 296.307 Q101.733 299.432 101.385 305.751 Q102.751 303.737 104.811 302.673 Q106.871 301.585 109.348 301.585 Q114.557 301.585 117.566 304.756 Q120.598 307.904 120.598 313.344 Q120.598 318.668 117.45 321.885 Q114.302 325.103 109.071 325.103 Q103.075 325.103 99.9039 320.52 Q96.7326 315.913 96.7326 307.186 Q96.7326 298.992 100.621 294.131 Q104.51 289.247 111.061 289.247 Q112.82 289.247 114.603 289.594 Q116.408 289.941 118.353 290.636 Z" fill="#000000" fill-rule="evenodd" fill-opacity="1" /><path clip-path="url(#clip210)" d="M 0 0 M63.5152 141.783 Q59.9041 141.783 58.0754 145.348 Q56.2699 148.89 56.2699 156.019 Q56.2699 163.126 58.0754 166.691 Q59.9041 170.232 63.5152 170.232 Q67.1494 170.232 68.955 166.691 Q70.7837 163.126 70.7837 156.019 Q70.7837 148.89 68.955 145.348 Q67.1494 141.783 63.5152 141.783 M63.5152 138.08 Q69.3254 138.08 72.3809 142.686 Q75.4596 147.27 75.4596 156.019 Q75.4596 164.746 72.3809 169.353 Q69.3254 173.936 63.5152 173.936 Q57.7051 173.936 54.6264 169.353 Q51.5708 164.746 51.5708 156.019 Q51.5708 147.27 54.6264 142.686 Q57.7051 138.08 63.5152 138.08 Z" fill="#000000" fill-rule="evenodd" fill-opacity="1" /><path clip-path="url(#clip210)" d="M 0 0 M83.6771 167.385 L88.5614 167.385 L88.5614 173.265 L83.6771 173.265 L83.6771 167.385 Z" fill="#000000" fill-rule="evenodd" fill-opacity="1" /><path clip-path="url(#clip210)" d="M 0 0 M108.746 156.853 Q105.413 156.853 103.492 158.635 Q101.594 160.418 101.594 163.543 Q101.594 166.668 103.492 168.45 Q105.413 170.232 108.746 170.232 Q112.08 170.232 114.001 168.45 Q115.922 166.644 115.922 163.543 Q115.922 160.418 114.001 158.635 Q112.103 156.853 108.746 156.853 M104.071 154.862 Q101.061 154.121 99.3715 152.061 Q97.7048 150.001 97.7048 147.038 Q97.7048 142.895 100.645 140.487 Q103.608 138.08 108.746 138.08 Q113.908 138.08 116.848 140.487 Q119.788 142.895 119.788 147.038 Q119.788 150.001 118.098 152.061 Q116.432 154.121 113.445 154.862 Q116.825 155.649 118.7 157.941 Q120.598 160.232 120.598 163.543 Q120.598 168.566 117.52 171.251 Q114.464 173.936 108.746 173.936 Q103.029 173.936 99.9502 171.251 Q96.8947 168.566 96.8947 163.543 Q96.8947 160.232 98.7928 157.941 Q100.691 155.649 104.071 154.862 M102.358 147.478 Q102.358 150.163 104.024 151.668 Q105.714 153.172 108.746 153.172 Q111.756 153.172 113.445 151.668 Q115.158 150.163 115.158 147.478 Q115.158 144.793 113.445 143.288 Q111.756 141.783 108.746 141.783 Q105.714 141.783 104.024 143.288 Q102.358 144.793 102.358 147.478 Z" fill="#000000" fill-rule="evenodd" fill-opacity="1" /><polyline clip-path="url(#clip212)" style="stroke:#008000; stroke-width:8; stroke-opacity:1; fill:none" points="
  184.401,307.754 250.598,223.966 316.795,655.16 382.992,491.754 449.188,591.009 515.385,188.686 581.582,458.209 647.779,623.33 713.976,668.357 780.173,507.298 
  846.37,664.573 912.566,474.521 978.763,102.603 1044.96,65.3348 1111.16,635.389 
  "/>
<path clip-path="url(#clip210)" d="
M944.633 189.511 L1106.21 189.511 L1106.21 68.5509 L944.633 68.5509  Z
  " fill="#ffffff" fill-rule="evenodd" fill-opacity="1"/>
<polyline clip-path="url(#clip210)" style="stroke:#000000; stroke-width:4; stroke-opacity:1; fill:none" points="
  944.633,189.511 1106.21,189.511 1106.21,68.5509 944.633,68.5509 944.633,189.511 
  "/>
<polyline clip-path="url(#clip210)" style="stroke:#008000; stroke-width:4; stroke-opacity:1; fill:none" points="
  955.548,129.031 1021.04,129.031 
  "/>
<path clip-path="url(#clip210)" d="M 0 0 M1045.8 148.718 Q1043.99 153.348 1042.28 154.76 Q1040.56 156.172 1037.69 156.172 L1034.29 156.172 L1034.29 152.607 L1036.79 152.607 Q1038.55 152.607 1039.52 151.774 Q1040.5 150.94 1041.68 147.839 L1042.44 145.894 L1031.95 120.385 L1036.47 120.385 L1044.57 140.663 L1052.67 120.385 L1057.19 120.385 L1045.8 148.718 Z" fill="#000000" fill-rule="evenodd" fill-opacity="1" /><path clip-path="url(#clip210)" d="M 0 0 M1064.48 142.376 L1072.12 142.376 L1072.12 116.01 L1063.81 117.677 L1063.81 113.418 L1072.07 111.751 L1076.75 111.751 L1076.75 142.376 L1084.38 142.376 L1084.38 146.311 L1064.48 146.311 L1064.48 142.376 Z" fill="#000000" fill-rule="evenodd" fill-opacity="1" /><path clip-path="url(#clip210)" d="
M1370.39 686.448 L2352.76 686.448 L2352.76 47.2441 L1370.39 47.2441  Z
  " fill="#ffffff" fill-rule="evenodd" fill-opacity="1"/>
<defs>
  <clipPath id="clip213">
    <rect x="1370" y="47" width="983" height="640"/>
  </clipPath>
</defs>
<polyline clip-path="url(#clip213)" style="stroke:#000000; stroke-width:2; stroke-opacity:0.1; fill:none" points="
  1464.39,686.448 1464.39,47.2441 
  "/>
<polyline clip-path="url(#clip213)" style="stroke:#000000; stroke-width:2; stroke-opacity:0.1; fill:none" points="
  1596.79,686.448 1596.79,47.2441 
  "/>
<polyline clip-path="url(#clip213)" style="stroke:#000000; stroke-width:2; stroke-opacity:0.1; fill:none" points="
  1729.18,686.448 1729.18,47.2441 
  "/>
<polyline clip-path="url(#clip213)" style="stroke:#000000; stroke-width:2; stroke-opacity:0.1; fill:none" points="
  1861.58,686.448 1861.58,47.2441 
  "/>
<polyline clip-path="url(#clip213)" style="stroke:#000000; stroke-width:2; stroke-opacity:0.1; fill:none" points="
  1993.97,686.448 1993.97,47.2441 
  "/>
<polyline clip-path="url(#clip213)" style="stroke:#000000; stroke-width:2; stroke-opacity:0.1; fill:none" points="
  2126.36,686.448 2126.36,47.2441 
  "/>
<polyline clip-path="url(#clip213)" style="stroke:#000000; stroke-width:2; stroke-opacity:0.1; fill:none" points="
  2258.76,686.448 2258.76,47.2441 
  "/>
<polyline clip-path="url(#clip210)" style="stroke:#000000; stroke-width:4; stroke-opacity:1; fill:none" points="
  1370.39,686.448 2352.76,686.448 
  "/>
<polyline clip-path="url(#clip210)" style="stroke:#000000; stroke-width:4; stroke-opacity:1; fill:none" points="
  1464.39,686.448 1464.39,678.777 
  "/>
<polyline clip-path="url(#clip210)" style="stroke:#000000; stroke-width:4; stroke-opacity:1; fill:none" points="
  1596.79,686.448 1596.79,678.777 
  "/>
<polyline clip-path="url(#clip210)" style="stroke:#000000; stroke-width:4; stroke-opacity:1; fill:none" points="
  1729.18,686.448 1729.18,678.777 
  "/>
<polyline clip-path="url(#clip210)" style="stroke:#000000; stroke-width:4; stroke-opacity:1; fill:none" points="
  1861.58,686.448 1861.58,678.777 
  "/>
<polyline clip-path="url(#clip210)" style="stroke:#000000; stroke-width:4; stroke-opacity:1; fill:none" points="
  1993.97,686.448 1993.97,678.777 
  "/>
<polyline clip-path="url(#clip210)" style="stroke:#000000; stroke-width:4; stroke-opacity:1; fill:none" points="
  2126.36,686.448 2126.36,678.777 
  "/>
<polyline clip-path="url(#clip210)" style="stroke:#000000; stroke-width:4; stroke-opacity:1; fill:none" points="
  2258.76,686.448 2258.76,678.777 
  "/>
<path clip-path="url(#clip210)" d="M 0 0 M1459.05 743.185 L1475.37 743.185 L1475.37 747.12 L1453.42 747.12 L1453.42 743.185 Q1456.08 740.43 1460.67 735.8 Q1465.27 731.148 1466.45 729.805 Q1468.7 727.282 1469.58 725.546 Q1470.48 723.787 1470.48 722.097 Q1470.48 719.342 1468.54 717.606 Q1466.62 715.87 1463.51 715.87 Q1461.32 715.87 1458.86 716.634 Q1456.43 717.398 1453.65 718.949 L1453.65 714.227 Q1456.48 713.092 1458.93 712.514 Q1461.38 711.935 1463.42 711.935 Q1468.79 711.935 1471.99 714.62 Q1475.18 717.305 1475.18 721.796 Q1475.18 723.926 1474.37 725.847 Q1473.58 727.745 1471.48 730.338 Q1470.9 731.009 1467.8 734.226 Q1464.69 737.421 1459.05 743.185 Z" fill="#000000" fill-rule="evenodd" fill-opacity="1" /><path clip-path="url(#clip210)" d="M 0 0 M1599.8 716.634 L1587.99 735.083 L1599.8 735.083 L1599.8 716.634 M1598.57 712.56 L1604.45 712.56 L1604.45 735.083 L1609.38 735.083 L1609.38 738.972 L1604.45 738.972 L1604.45 747.12 L1599.8 747.12 L1599.8 738.972 L1584.2 738.972 L1584.2 734.458 L1598.57 712.56 Z" fill="#000000" fill-rule="evenodd" fill-opacity="1" /><path clip-path="url(#clip210)" d="M 0 0 M1729.59 727.976 Q1726.44 727.976 1724.59 730.129 Q1722.76 732.282 1722.76 736.032 Q1722.76 739.759 1724.59 741.935 Q1726.44 744.087 1729.59 744.087 Q1732.73 744.087 1734.56 741.935 Q1736.42 739.759 1736.42 736.032 Q1736.42 732.282 1734.56 730.129 Q1732.73 727.976 1729.59 727.976 M1738.87 713.324 L1738.87 717.583 Q1737.11 716.75 1735.3 716.31 Q1733.52 715.87 1731.76 715.87 Q1727.13 715.87 1724.68 718.995 Q1722.25 722.12 1721.9 728.439 Q1723.27 726.426 1725.33 725.361 Q1727.39 724.273 1729.86 724.273 Q1735.07 724.273 1738.08 727.444 Q1741.11 730.592 1741.11 736.032 Q1741.11 741.356 1737.97 744.574 Q1734.82 747.791 1729.59 747.791 Q1723.59 747.791 1720.42 743.208 Q1717.25 738.601 1717.25 729.875 Q1717.25 721.68 1721.14 716.819 Q1725.03 711.935 1731.58 711.935 Q1733.34 711.935 1735.12 712.282 Q1736.92 712.629 1738.87 713.324 Z" fill="#000000" fill-rule="evenodd" fill-opacity="1" /><path clip-path="url(#clip210)" d="M 0 0 M1861.58 730.708 Q1858.24 730.708 1856.32 732.49 Q1854.42 734.273 1854.42 737.398 Q1854.42 740.523 1856.32 742.305 Q1858.24 744.087 1861.58 744.087 Q1864.91 744.087 1866.83 742.305 Q1868.75 740.5 1868.75 737.398 Q1868.75 734.273 1866.83 732.49 Q1864.93 730.708 1861.58 730.708 M1856.9 728.717 Q1853.89 727.976 1852.2 725.916 Q1850.53 723.856 1850.53 720.893 Q1850.53 716.75 1853.47 714.342 Q1856.44 711.935 1861.58 711.935 Q1866.74 711.935 1869.68 714.342 Q1872.62 716.75 1872.62 720.893 Q1872.62 723.856 1870.93 725.916 Q1869.26 727.976 1866.27 728.717 Q1869.65 729.504 1871.53 731.796 Q1873.43 734.088 1873.43 737.398 Q1873.43 742.421 1870.35 745.106 Q1867.29 747.791 1861.58 747.791 Q1855.86 747.791 1852.78 745.106 Q1849.72 742.421 1849.72 737.398 Q1849.72 734.088 1851.62 731.796 Q1853.52 729.504 1856.9 728.717 M1855.19 721.333 Q1855.19 724.018 1856.85 725.523 Q1858.54 727.027 1861.58 727.027 Q1864.58 727.027 1866.27 725.523 Q1867.99 724.018 1867.99 721.333 Q1867.99 718.648 1866.27 717.143 Q1864.58 715.639 1861.58 715.639 Q1858.54 715.639 1856.85 717.143 Q1855.19 718.648 1855.19 721.333 Z" fill="#000000" fill-rule="evenodd" fill-opacity="1" /><path clip-path="url(#clip210)" d="M 0 0 M1968.66 743.185 L1976.3 743.185 L1976.3 716.819 L1967.99 718.486 L1967.99 714.227 L1976.25 712.56 L1980.92 712.56 L1980.92 743.185 L1988.56 743.185 L1988.56 747.12 L1968.66 747.12 L1968.66 743.185 Z" fill="#000000" fill-rule="evenodd" fill-opacity="1" /><path clip-path="url(#clip210)" d="M 0 0 M2008.01 715.639 Q2004.4 715.639 2002.57 719.203 Q2000.76 722.745 2000.76 729.875 Q2000.76 736.981 2002.57 740.546 Q2004.4 744.087 2008.01 744.087 Q2011.64 744.087 2013.45 740.546 Q2015.28 736.981 2015.28 729.875 Q2015.28 722.745 2013.45 719.203 Q2011.64 715.639 2008.01 715.639 M2008.01 711.935 Q2013.82 711.935 2016.87 716.541 Q2019.95 721.125 2019.95 729.875 Q2019.95 738.601 2016.87 743.208 Q2013.82 747.791 2008.01 747.791 Q2002.2 747.791 1999.12 743.208 Q1996.06 738.601 1996.06 729.875 Q1996.06 721.125 1999.12 716.541 Q2002.2 711.935 2008.01 711.935 Z" fill="#000000" fill-rule="evenodd" fill-opacity="1" /><path clip-path="url(#clip210)" d="M 0 0 M2101.85 743.185 L2109.49 743.185 L2109.49 716.819 L2101.18 718.486 L2101.18 714.227 L2109.44 712.56 L2114.12 712.56 L2114.12 743.185 L2121.76 743.185 L2121.76 747.12 L2101.85 747.12 L2101.85 743.185 Z" fill="#000000" fill-rule="evenodd" fill-opacity="1" /><path clip-path="url(#clip210)" d="M 0 0 M2135.23 743.185 L2151.55 743.185 L2151.55 747.12 L2129.6 747.12 L2129.6 743.185 Q2132.27 740.43 2136.85 735.8 Q2141.46 731.148 2142.64 729.805 Q2144.88 727.282 2145.76 725.546 Q2146.66 723.787 2146.66 722.097 Q2146.66 719.342 2144.72 717.606 Q2142.8 715.87 2139.7 715.87 Q2137.5 715.87 2135.04 716.634 Q2132.61 717.398 2129.83 718.949 L2129.83 714.227 Q2132.66 713.092 2135.11 712.514 Q2137.57 711.935 2139.6 711.935 Q2144.97 711.935 2148.17 714.62 Q2151.36 717.305 2151.36 721.796 Q2151.36 723.926 2150.55 725.847 Q2149.77 727.745 2147.66 730.338 Q2147.08 731.009 2143.98 734.226 Q2140.88 737.421 2135.23 743.185 Z" fill="#000000" fill-rule="evenodd" fill-opacity="1" /><path clip-path="url(#clip210)" d="M 0 0 M2233.2 743.185 L2240.84 743.185 L2240.84 716.819 L2232.53 718.486 L2232.53 714.227 L2240.79 712.56 L2245.47 712.56 L2245.47 743.185 L2253.11 743.185 L2253.11 747.12 L2233.2 747.12 L2233.2 743.185 Z" fill="#000000" fill-rule="evenodd" fill-opacity="1" /><path clip-path="url(#clip210)" d="M 0 0 M2275.4 716.634 L2263.59 735.083 L2275.4 735.083 L2275.4 716.634 M2274.17 712.56 L2280.05 712.56 L2280.05 735.083 L2284.98 735.083 L2284.98 738.972 L2280.05 738.972 L2280.05 747.12 L2275.4 747.12 L2275.4 738.972 L2259.8 738.972 L2259.8 734.458 L2274.17 712.56 Z" fill="#000000" fill-rule="evenodd" fill-opacity="1" /><polyline clip-path="url(#clip213)" style="stroke:#000000; stroke-width:2; stroke-opacity:0.1; fill:none" points="
  1370.39,609.485 2352.76,609.485 
  "/>
<polyline clip-path="url(#clip213)" style="stroke:#000000; stroke-width:2; stroke-opacity:0.1; fill:none" points="
  1370.39,458.319 2352.76,458.319 
  "/>
<polyline clip-path="url(#clip213)" style="stroke:#000000; stroke-width:2; stroke-opacity:0.1; fill:none" points="
  1370.39,307.152 2352.76,307.152 
  "/>
<polyline clip-path="url(#clip213)" style="stroke:#000000; stroke-width:2; stroke-opacity:0.1; fill:none" points="
  1370.39,155.985 2352.76,155.985 
  "/>
<polyline clip-path="url(#clip210)" style="stroke:#000000; stroke-width:4; stroke-opacity:1; fill:none" points="
  1370.39,686.448 1370.39,47.2441 
  "/>
<polyline clip-path="url(#clip210)" style="stroke:#000000; stroke-width:4; stroke-opacity:1; fill:none" points="
  1370.39,609.485 1382.18,609.485 
  "/>
<polyline clip-path="url(#clip210)" style="stroke:#000000; stroke-width:4; stroke-opacity:1; fill:none" points="
  1370.39,458.319 1382.18,458.319 
  "/>
<polyline clip-path="url(#clip210)" style="stroke:#000000; stroke-width:4; stroke-opacity:1; fill:none" points="
  1370.39,307.152 1382.18,307.152 
  "/>
<polyline clip-path="url(#clip210)" style="stroke:#000000; stroke-width:4; stroke-opacity:1; fill:none" points="
  1370.39,155.985 1382.18,155.985 
  "/>
<path clip-path="url(#clip210)" d="M 0 0 M1278.82 595.284 Q1275.2 595.284 1273.38 598.849 Q1271.57 602.391 1271.57 609.52 Q1271.57 616.627 1273.38 620.191 Q1275.2 623.733 1278.82 623.733 Q1282.45 623.733 1284.26 620.191 Q1286.08 616.627 1286.08 609.52 Q1286.08 602.391 1284.26 598.849 Q1282.45 595.284 1278.82 595.284 M1278.82 591.58 Q1284.63 591.58 1287.68 596.187 Q1290.76 600.77 1290.76 609.52 Q1290.76 618.247 1287.68 622.853 Q1284.63 627.437 1278.82 627.437 Q1273.01 627.437 1269.93 622.853 Q1266.87 618.247 1266.87 609.52 Q1266.87 600.77 1269.93 596.187 Q1273.01 591.58 1278.82 591.58 Z" fill="#000000" fill-rule="evenodd" fill-opacity="1" /><path clip-path="url(#clip210)" d="M 0 0 M1298.98 620.886 L1303.86 620.886 L1303.86 626.765 L1298.98 626.765 L1298.98 620.886 Z" fill="#000000" fill-rule="evenodd" fill-opacity="1" /><path clip-path="url(#clip210)" d="M 0 0 M1318.08 622.83 L1334.39 622.83 L1334.39 626.765 L1312.45 626.765 L1312.45 622.83 Q1315.11 620.076 1319.7 615.446 Q1324.3 610.793 1325.48 609.451 Q1327.73 606.928 1328.61 605.191 Q1329.51 603.432 1329.51 601.742 Q1329.51 598.988 1327.57 597.252 Q1325.64 595.516 1322.54 595.516 Q1320.34 595.516 1317.89 596.279 Q1315.46 597.043 1312.68 598.594 L1312.68 593.872 Q1315.51 592.738 1317.96 592.159 Q1320.41 591.58 1322.45 591.58 Q1327.82 591.58 1331.01 594.266 Q1334.21 596.951 1334.21 601.441 Q1334.21 603.571 1333.4 605.492 Q1332.61 607.391 1330.51 609.983 Q1329.93 610.654 1326.83 613.872 Q1323.72 617.066 1318.08 622.83 Z" fill="#000000" fill-rule="evenodd" fill-opacity="1" /><path clip-path="url(#clip210)" d="M 0 0 M1276.73 444.117 Q1273.12 444.117 1271.29 447.682 Q1269.49 451.224 1269.49 458.353 Q1269.49 465.46 1271.29 469.025 Q1273.12 472.566 1276.73 472.566 Q1280.37 472.566 1282.17 469.025 Q1284 465.46 1284 458.353 Q1284 451.224 1282.17 447.682 Q1280.37 444.117 1276.73 444.117 M1276.73 440.414 Q1282.54 440.414 1285.6 445.02 Q1288.68 449.603 1288.68 458.353 Q1288.68 467.08 1285.6 471.687 Q1282.54 476.27 1276.73 476.27 Q1270.92 476.27 1267.84 471.687 Q1264.79 467.08 1264.79 458.353 Q1264.79 449.603 1267.84 445.02 Q1270.92 440.414 1276.73 440.414 Z" fill="#000000" fill-rule="evenodd" fill-opacity="1" /><path clip-path="url(#clip210)" d="M 0 0 M1296.89 469.719 L1301.78 469.719 L1301.78 475.599 L1296.89 475.599 L1296.89 469.719 Z" fill="#000000" fill-rule="evenodd" fill-opacity="1" /><path clip-path="url(#clip210)" d="M 0 0 M1324.81 445.113 L1313.01 463.562 L1324.81 463.562 L1324.81 445.113 M1323.58 441.039 L1329.46 441.039 L1329.46 463.562 L1334.39 463.562 L1334.39 467.45 L1329.46 467.45 L1329.46 475.599 L1324.81 475.599 L1324.81 467.45 L1309.21 467.45 L1309.21 462.937 L1323.58 441.039 Z" fill="#000000" fill-rule="evenodd" fill-opacity="1" /><path clip-path="url(#clip210)" d="M 0 0 M1277.06 292.95 Q1273.45 292.95 1271.62 296.515 Q1269.81 300.057 1269.81 307.186 Q1269.81 314.293 1271.62 317.858 Q1273.45 321.399 1277.06 321.399 Q1280.69 321.399 1282.5 317.858 Q1284.33 314.293 1284.33 307.186 Q1284.33 300.057 1282.5 296.515 Q1280.69 292.95 1277.06 292.95 M1277.06 289.247 Q1282.87 289.247 1285.92 293.853 Q1289 298.436 1289 307.186 Q1289 315.913 1285.92 320.52 Q1282.87 325.103 1277.06 325.103 Q1271.25 325.103 1268.17 320.52 Q1265.11 315.913 1265.11 307.186 Q1265.11 298.436 1268.17 293.853 Q1271.25 289.247 1277.06 289.247 Z" fill="#000000" fill-rule="evenodd" fill-opacity="1" /><path clip-path="url(#clip210)" d="M 0 0 M1297.22 318.552 L1302.1 318.552 L1302.1 324.432 L1297.22 324.432 L1297.22 318.552 Z" fill="#000000" fill-rule="evenodd" fill-opacity="1" /><path clip-path="url(#clip210)" d="M 0 0 M1322.87 305.288 Q1319.72 305.288 1317.87 307.441 Q1316.04 309.594 1316.04 313.344 Q1316.04 317.071 1317.87 319.247 Q1319.72 321.399 1322.87 321.399 Q1326.01 321.399 1327.84 319.247 Q1329.7 317.071 1329.7 313.344 Q1329.7 309.594 1327.84 307.441 Q1326.01 305.288 1322.87 305.288 M1332.15 290.636 L1332.15 294.895 Q1330.39 294.061 1328.58 293.622 Q1326.8 293.182 1325.04 293.182 Q1320.41 293.182 1317.96 296.307 Q1315.53 299.432 1315.18 305.751 Q1316.55 303.737 1318.61 302.673 Q1320.67 301.585 1323.14 301.585 Q1328.35 301.585 1331.36 304.756 Q1334.39 307.904 1334.39 313.344 Q1334.39 318.668 1331.25 321.885 Q1328.1 325.103 1322.87 325.103 Q1316.87 325.103 1313.7 320.52 Q1310.53 315.913 1310.53 307.186 Q1310.53 298.992 1314.42 294.131 Q1318.31 289.247 1324.86 289.247 Q1326.62 289.247 1328.4 289.594 Q1330.2 289.941 1332.15 290.636 Z" fill="#000000" fill-rule="evenodd" fill-opacity="1" /><path clip-path="url(#clip210)" d="M 0 0 M1277.31 141.783 Q1273.7 141.783 1271.87 145.348 Q1270.07 148.89 1270.07 156.019 Q1270.07 163.126 1271.87 166.691 Q1273.7 170.232 1277.31 170.232 Q1280.95 170.232 1282.75 166.691 Q1284.58 163.126 1284.58 156.019 Q1284.58 148.89 1282.75 145.348 Q1280.95 141.783 1277.31 141.783 M1277.31 138.08 Q1283.12 138.08 1286.18 142.686 Q1289.26 147.27 1289.26 156.019 Q1289.26 164.746 1286.18 169.353 Q1283.12 173.936 1277.31 173.936 Q1271.5 173.936 1268.42 169.353 Q1265.37 164.746 1265.37 156.019 Q1265.37 147.27 1268.42 142.686 Q1271.5 138.08 1277.31 138.08 Z" fill="#000000" fill-rule="evenodd" fill-opacity="1" /><path clip-path="url(#clip210)" d="M 0 0 M1297.47 167.385 L1302.36 167.385 L1302.36 173.265 L1297.47 173.265 L1297.47 167.385 Z" fill="#000000" fill-rule="evenodd" fill-opacity="1" /><path clip-path="url(#clip210)" d="M 0 0 M1322.54 156.853 Q1319.21 156.853 1317.29 158.635 Q1315.39 160.418 1315.39 163.543 Q1315.39 166.668 1317.29 168.45 Q1319.21 170.232 1322.54 170.232 Q1325.88 170.232 1327.8 168.45 Q1329.72 166.644 1329.72 163.543 Q1329.72 160.418 1327.8 158.635 Q1325.9 156.853 1322.54 156.853 M1317.87 154.862 Q1314.86 154.121 1313.17 152.061 Q1311.5 150.001 1311.5 147.038 Q1311.5 142.895 1314.44 140.487 Q1317.4 138.08 1322.54 138.08 Q1327.7 138.08 1330.64 140.487 Q1333.58 142.895 1333.58 147.038 Q1333.58 150.001 1331.89 152.061 Q1330.23 154.121 1327.24 154.862 Q1330.62 155.649 1332.5 157.941 Q1334.39 160.232 1334.39 163.543 Q1334.39 168.566 1331.32 171.251 Q1328.26 173.936 1322.54 173.936 Q1316.83 173.936 1313.75 171.251 Q1310.69 168.566 1310.69 163.543 Q1310.69 160.232 1312.59 157.941 Q1314.49 155.649 1317.87 154.862 M1316.15 147.478 Q1316.15 150.163 1317.82 151.668 Q1319.51 153.172 1322.54 153.172 Q1325.55 153.172 1327.24 151.668 Q1328.95 150.163 1328.95 147.478 Q1328.95 144.793 1327.24 143.288 Q1325.55 141.783 1322.54 141.783 Q1319.51 141.783 1317.82 143.288 Q1316.15 144.793 1316.15 147.478 Z" fill="#000000" fill-rule="evenodd" fill-opacity="1" /><circle clip-path="url(#clip213)" cx="1398.2" cy="307.754" r="14" fill="#ff0000" fill-rule="evenodd" fill-opacity="1" stroke="#000000" stroke-opacity="1" stroke-width="3.2"/>
<circle clip-path="url(#clip213)" cx="1464.39" cy="223.966" r="14" fill="#ff0000" fill-rule="evenodd" fill-opacity="1" stroke="#000000" stroke-opacity="1" stroke-width="3.2"/>
<circle clip-path="url(#clip213)" cx="1530.59" cy="655.16" r="14" fill="#ff0000" fill-rule="evenodd" fill-opacity="1" stroke="#000000" stroke-opacity="1" stroke-width="3.2"/>
<circle clip-path="url(#clip213)" cx="1596.79" cy="491.754" r="14" fill="#ff0000" fill-rule="evenodd" fill-opacity="1" stroke="#000000" stroke-opacity="1" stroke-width="3.2"/>
<circle clip-path="url(#clip213)" cx="1662.98" cy="591.009" r="14" fill="#ff0000" fill-rule="evenodd" fill-opacity="1" stroke="#000000" stroke-opacity="1" stroke-width="3.2"/>
<circle clip-path="url(#clip213)" cx="1729.18" cy="188.686" r="14" fill="#ff0000" fill-rule="evenodd" fill-opacity="1" stroke="#000000" stroke-opacity="1" stroke-width="3.2"/>
<circle clip-path="url(#clip213)" cx="1795.38" cy="458.209" r="14" fill="#ff0000" fill-rule="evenodd" fill-opacity="1" stroke="#000000" stroke-opacity="1" stroke-width="3.2"/>
<circle clip-path="url(#clip213)" cx="1861.58" cy="623.33" r="14" fill="#ff0000" fill-rule="evenodd" fill-opacity="1" stroke="#000000" stroke-opacity="1" stroke-width="3.2"/>
<circle clip-path="url(#clip213)" cx="1927.77" cy="668.357" r="14" fill="#ff0000" fill-rule="evenodd" fill-opacity="1" stroke="#000000" stroke-opacity="1" stroke-width="3.2"/>
<circle clip-path="url(#clip213)" cx="1993.97" cy="507.298" r="14" fill="#ff0000" fill-rule="evenodd" fill-opacity="1" stroke="#000000" stroke-opacity="1" stroke-width="3.2"/>
<circle clip-path="url(#clip213)" cx="2060.17" cy="664.573" r="14" fill="#ff0000" fill-rule="evenodd" fill-opacity="1" stroke="#000000" stroke-opacity="1" stroke-width="3.2"/>
<circle clip-path="url(#clip213)" cx="2126.36" cy="474.521" r="14" fill="#ff0000" fill-rule="evenodd" fill-opacity="1" stroke="#000000" stroke-opacity="1" stroke-width="3.2"/>
<circle clip-path="url(#clip213)" cx="2192.56" cy="102.603" r="14" fill="#ff0000" fill-rule="evenodd" fill-opacity="1" stroke="#000000" stroke-opacity="1" stroke-width="3.2"/>
<circle clip-path="url(#clip213)" cx="2258.76" cy="65.3348" r="14" fill="#ff0000" fill-rule="evenodd" fill-opacity="1" stroke="#000000" stroke-opacity="1" stroke-width="3.2"/>
<circle clip-path="url(#clip213)" cx="2324.95" cy="635.389" r="14" fill="#ff0000" fill-rule="evenodd" fill-opacity="1" stroke="#000000" stroke-opacity="1" stroke-width="3.2"/>
<path clip-path="url(#clip210)" d="
M2158.43 189.511 L2320.01 189.511 L2320.01 68.5509 L2158.43 68.5509  Z
  " fill="#ffffff" fill-rule="evenodd" fill-opacity="1"/>
<polyline clip-path="url(#clip210)" style="stroke:#000000; stroke-width:4; stroke-opacity:1; fill:none" points="
  2158.43,189.511 2320.01,189.511 2320.01,68.5509 2158.43,68.5509 2158.43,189.511 
  "/>
<circle clip-path="url(#clip210)" cx="2202.09" cy="129.031" r="23" fill="#ff0000" fill-rule="evenodd" fill-opacity="1" stroke="#000000" stroke-opacity="1" stroke-width="5.12"/>
<path clip-path="url(#clip210)" d="M 0 0 M2259.59 148.718 Q2257.79 153.348 2256.07 154.76 Q2254.36 156.172 2251.49 156.172 L2248.09 156.172 L2248.09 152.607 L2250.59 152.607 Q2252.35 152.607 2253.32 151.774 Q2254.29 150.94 2255.47 147.839 L2256.24 145.894 L2245.75 120.385 L2250.26 120.385 L2258.37 140.663 L2266.47 120.385 L2270.98 120.385 L2259.59 148.718 Z" fill="#000000" fill-rule="evenodd" fill-opacity="1" /><path clip-path="url(#clip210)" d="M 0 0 M2278.27 142.376 L2285.91 142.376 L2285.91 116.01 L2277.6 117.677 L2277.6 113.418 L2285.87 111.751 L2290.54 111.751 L2290.54 142.376 L2298.18 142.376 L2298.18 146.311 L2278.27 146.311 L2278.27 142.376 Z" fill="#000000" fill-rule="evenodd" fill-opacity="1" /><path clip-path="url(#clip210)" d="
M156.598 1486.45 L1138.96 1486.45 L1138.96 847.244 L156.598 847.244  Z
  " fill="#ffffff" fill-rule="evenodd" fill-opacity="1"/>
<defs>
  <clipPath id="clip214">
    <rect x="156" y="847" width="983" height="640"/>
  </clipPath>
</defs>
<polyline clip-path="url(#clip214)" style="stroke:#000000; stroke-width:2; stroke-opacity:0.1; fill:none" points="
  175.185,1486.45 175.185,847.244 
  "/>
<polyline clip-path="url(#clip214)" style="stroke:#000000; stroke-width:2; stroke-opacity:0.1; fill:none" points="
  470.556,1486.45 470.556,847.244 
  "/>
<polyline clip-path="url(#clip214)" style="stroke:#000000; stroke-width:2; stroke-opacity:0.1; fill:none" points="
  765.927,1486.45 765.927,847.244 
  "/>
<polyline clip-path="url(#clip214)" style="stroke:#000000; stroke-width:2; stroke-opacity:0.1; fill:none" points="
  1061.3,1486.45 1061.3,847.244 
  "/>
<polyline clip-path="url(#clip210)" style="stroke:#000000; stroke-width:4; stroke-opacity:1; fill:none" points="
  156.598,1486.45 1138.96,1486.45 
  "/>
<polyline clip-path="url(#clip210)" style="stroke:#000000; stroke-width:4; stroke-opacity:1; fill:none" points="
  175.185,1486.45 175.185,1478.78 
  "/>
<polyline clip-path="url(#clip210)" style="stroke:#000000; stroke-width:4; stroke-opacity:1; fill:none" points="
  470.556,1486.45 470.556,1478.78 
  "/>
<polyline clip-path="url(#clip210)" style="stroke:#000000; stroke-width:4; stroke-opacity:1; fill:none" points="
  765.927,1486.45 765.927,1478.78 
  "/>
<polyline clip-path="url(#clip210)" style="stroke:#000000; stroke-width:4; stroke-opacity:1; fill:none" points="
  1061.3,1486.45 1061.3,1478.78 
  "/>
<path clip-path="url(#clip210)" d="M 0 0 M175.185 1515.64 Q171.574 1515.64 169.746 1519.2 Q167.94 1522.75 167.94 1529.87 Q167.94 1536.98 169.746 1540.55 Q171.574 1544.09 175.185 1544.09 Q178.82 1544.09 180.625 1540.55 Q182.454 1536.98 182.454 1529.87 Q182.454 1522.75 180.625 1519.2 Q178.82 1515.64 175.185 1515.64 M175.185 1511.93 Q180.995 1511.93 184.051 1516.54 Q187.13 1521.12 187.13 1529.87 Q187.13 1538.6 184.051 1543.21 Q180.995 1547.79 175.185 1547.79 Q169.375 1547.79 166.297 1543.21 Q163.241 1538.6 163.241 1529.87 Q163.241 1521.12 166.297 1516.54 Q169.375 1511.93 175.185 1511.93 Z" fill="#000000" fill-rule="evenodd" fill-opacity="1" /><path clip-path="url(#clip210)" d="M 0 0 M460.834 1512.56 L479.191 1512.56 L479.191 1516.5 L465.117 1516.5 L465.117 1524.97 Q466.135 1524.62 467.154 1524.46 Q468.172 1524.27 469.191 1524.27 Q474.978 1524.27 478.357 1527.44 Q481.737 1530.62 481.737 1536.03 Q481.737 1541.61 478.265 1544.71 Q474.792 1547.79 468.473 1547.79 Q466.297 1547.79 464.029 1547.42 Q461.783 1547.05 459.376 1546.31 L459.376 1541.61 Q461.459 1542.74 463.681 1543.3 Q465.904 1543.86 468.38 1543.86 Q472.385 1543.86 474.723 1541.75 Q477.061 1539.64 477.061 1536.03 Q477.061 1532.42 474.723 1530.31 Q472.385 1528.21 468.38 1528.21 Q466.505 1528.21 464.63 1528.62 Q462.779 1529.04 460.834 1529.92 L460.834 1512.56 Z" fill="#000000" fill-rule="evenodd" fill-opacity="1" /><path clip-path="url(#clip210)" d="M 0 0 M740.615 1543.18 L748.254 1543.18 L748.254 1516.82 L739.944 1518.49 L739.944 1514.23 L748.208 1512.56 L752.883 1512.56 L752.883 1543.18 L760.522 1543.18 L760.522 1547.12 L740.615 1547.12 L740.615 1543.18 Z" fill="#000000" fill-rule="evenodd" fill-opacity="1" /><path clip-path="url(#clip210)" d="M 0 0 M779.967 1515.64 Q776.356 1515.64 774.527 1519.2 Q772.721 1522.75 772.721 1529.87 Q772.721 1536.98 774.527 1540.55 Q776.356 1544.09 779.967 1544.09 Q783.601 1544.09 785.406 1540.55 Q787.235 1536.98 787.235 1529.87 Q787.235 1522.75 785.406 1519.2 Q783.601 1515.64 779.967 1515.64 M779.967 1511.93 Q785.777 1511.93 788.832 1516.54 Q791.911 1521.12 791.911 1529.87 Q791.911 1538.6 788.832 1543.21 Q785.777 1547.79 779.967 1547.79 Q774.156 1547.79 771.078 1543.21 Q768.022 1538.6 768.022 1529.87 Q768.022 1521.12 771.078 1516.54 Q774.156 1511.93 779.967 1511.93 Z" fill="#000000" fill-rule="evenodd" fill-opacity="1" /><path clip-path="url(#clip210)" d="M 0 0 M1036.48 1543.18 L1044.12 1543.18 L1044.12 1516.82 L1035.81 1518.49 L1035.81 1514.23 L1044.08 1512.56 L1048.75 1512.56 L1048.75 1543.18 L1056.39 1543.18 L1056.39 1547.12 L1036.48 1547.12 L1036.48 1543.18 Z" fill="#000000" fill-rule="evenodd" fill-opacity="1" /><path clip-path="url(#clip210)" d="M 0 0 M1065.88 1512.56 L1084.24 1512.56 L1084.24 1516.5 L1070.16 1516.5 L1070.16 1524.97 Q1071.18 1524.62 1072.2 1524.46 Q1073.22 1524.27 1074.24 1524.27 Q1080.03 1524.27 1083.4 1527.44 Q1086.78 1530.62 1086.78 1536.03 Q1086.78 1541.61 1083.31 1544.71 Q1079.84 1547.79 1073.52 1547.79 Q1071.34 1547.79 1069.08 1547.42 Q1066.83 1547.05 1064.42 1546.31 L1064.42 1541.61 Q1066.51 1542.74 1068.73 1543.3 Q1070.95 1543.86 1073.43 1543.86 Q1077.43 1543.86 1079.77 1541.75 Q1082.11 1539.64 1082.11 1536.03 Q1082.11 1532.42 1079.77 1530.31 Q1077.43 1528.21 1073.43 1528.21 Q1071.55 1528.21 1069.68 1528.62 Q1067.83 1529.04 1065.88 1529.92 L1065.88 1512.56 Z" fill="#000000" fill-rule="evenodd" fill-opacity="1" /><polyline clip-path="url(#clip214)" style="stroke:#000000; stroke-width:2; stroke-opacity:0.1; fill:none" points="
  156.598,1468.36 1138.96,1468.36 
  "/>
<polyline clip-path="url(#clip214)" style="stroke:#000000; stroke-width:2; stroke-opacity:0.1; fill:none" points="
  156.598,1337.26 1138.96,1337.26 
  "/>
<polyline clip-path="url(#clip214)" style="stroke:#000000; stroke-width:2; stroke-opacity:0.1; fill:none" points="
  156.598,1206.15 1138.96,1206.15 
  "/>
<polyline clip-path="url(#clip214)" style="stroke:#000000; stroke-width:2; stroke-opacity:0.1; fill:none" points="
  156.598,1075.05 1138.96,1075.05 
  "/>
<polyline clip-path="url(#clip214)" style="stroke:#000000; stroke-width:2; stroke-opacity:0.1; fill:none" points="
  156.598,943.952 1138.96,943.952 
  "/>
<polyline clip-path="url(#clip210)" style="stroke:#000000; stroke-width:4; stroke-opacity:1; fill:none" points="
  156.598,1486.45 156.598,847.244 
  "/>
<polyline clip-path="url(#clip210)" style="stroke:#000000; stroke-width:4; stroke-opacity:1; fill:none" points="
  156.598,1468.36 168.387,1468.36 
  "/>
<polyline clip-path="url(#clip210)" style="stroke:#000000; stroke-width:4; stroke-opacity:1; fill:none" points="
  156.598,1337.26 168.387,1337.26 
  "/>
<polyline clip-path="url(#clip210)" style="stroke:#000000; stroke-width:4; stroke-opacity:1; fill:none" points="
  156.598,1206.15 168.387,1206.15 
  "/>
<polyline clip-path="url(#clip210)" style="stroke:#000000; stroke-width:4; stroke-opacity:1; fill:none" points="
  156.598,1075.05 168.387,1075.05 
  "/>
<polyline clip-path="url(#clip210)" style="stroke:#000000; stroke-width:4; stroke-opacity:1; fill:none" points="
  156.598,943.952 168.387,943.952 
  "/>
<path clip-path="url(#clip210)" d="M 0 0 M63.4226 1454.16 Q59.8115 1454.16 57.9828 1457.72 Q56.1773 1461.26 56.1773 1468.39 Q56.1773 1475.5 57.9828 1479.06 Q59.8115 1482.6 63.4226 1482.6 Q67.0569 1482.6 68.8624 1479.06 Q70.6911 1475.5 70.6911 1468.39 Q70.6911 1461.26 68.8624 1457.72 Q67.0569 1454.16 63.4226 1454.16 M63.4226 1450.45 Q69.2328 1450.45 72.2883 1455.06 Q75.367 1459.64 75.367 1468.39 Q75.367 1477.12 72.2883 1481.73 Q69.2328 1486.31 63.4226 1486.31 Q57.6125 1486.31 54.5338 1481.73 Q51.4782 1477.12 51.4782 1468.39 Q51.4782 1459.64 54.5338 1455.06 Q57.6125 1450.45 63.4226 1450.45 Z" fill="#000000" fill-rule="evenodd" fill-opacity="1" /><path clip-path="url(#clip210)" d="M 0 0 M83.5845 1479.76 L88.4688 1479.76 L88.4688 1485.64 L83.5845 1485.64 L83.5845 1479.76 Z" fill="#000000" fill-rule="evenodd" fill-opacity="1" /><path clip-path="url(#clip210)" d="M 0 0 M108.654 1454.16 Q105.043 1454.16 103.214 1457.72 Q101.409 1461.26 101.409 1468.39 Q101.409 1475.5 103.214 1479.06 Q105.043 1482.6 108.654 1482.6 Q112.288 1482.6 114.094 1479.06 Q115.922 1475.5 115.922 1468.39 Q115.922 1461.26 114.094 1457.72 Q112.288 1454.16 108.654 1454.16 M108.654 1450.45 Q114.464 1450.45 117.52 1455.06 Q120.598 1459.64 120.598 1468.39 Q120.598 1477.12 117.52 1481.73 Q114.464 1486.31 108.654 1486.31 Q102.844 1486.31 99.765 1481.73 Q96.7095 1477.12 96.7095 1468.39 Q96.7095 1459.64 99.765 1455.06 Q102.844 1450.45 108.654 1450.45 Z" fill="#000000" fill-rule="evenodd" fill-opacity="1" /><path clip-path="url(#clip210)" d="M 0 0 M65.0198 1323.05 Q61.4087 1323.05 59.58 1326.62 Q57.7745 1330.16 57.7745 1337.29 Q57.7745 1344.4 59.58 1347.96 Q61.4087 1351.5 65.0198 1351.5 Q68.6541 1351.5 70.4596 1347.96 Q72.2883 1344.4 72.2883 1337.29 Q72.2883 1330.16 70.4596 1326.62 Q68.6541 1323.05 65.0198 1323.05 M65.0198 1319.35 Q70.83 1319.35 73.8855 1323.96 Q76.9642 1328.54 76.9642 1337.29 Q76.9642 1346.02 73.8855 1350.62 Q70.83 1355.21 65.0198 1355.21 Q59.2097 1355.21 56.131 1350.62 Q53.0754 1346.02 53.0754 1337.29 Q53.0754 1328.54 56.131 1323.96 Q59.2097 1319.35 65.0198 1319.35 Z" fill="#000000" fill-rule="evenodd" fill-opacity="1" /><path clip-path="url(#clip210)" d="M 0 0 M85.1818 1348.66 L90.066 1348.66 L90.066 1354.54 L85.1818 1354.54 L85.1818 1348.66 Z" fill="#000000" fill-rule="evenodd" fill-opacity="1" /><path clip-path="url(#clip210)" d="M 0 0 M104.279 1350.6 L120.598 1350.6 L120.598 1354.54 L98.6539 1354.54 L98.6539 1350.6 Q101.316 1347.85 105.899 1343.22 Q110.506 1338.56 111.686 1337.22 Q113.932 1334.7 114.811 1332.96 Q115.714 1331.2 115.714 1329.51 Q115.714 1326.76 113.77 1325.02 Q111.848 1323.29 108.746 1323.29 Q106.547 1323.29 104.094 1324.05 Q101.663 1324.81 98.8854 1326.36 L98.8854 1321.64 Q101.709 1320.51 104.163 1319.93 Q106.617 1319.35 108.654 1319.35 Q114.024 1319.35 117.219 1322.04 Q120.413 1324.72 120.413 1329.21 Q120.413 1331.34 119.603 1333.26 Q118.816 1335.16 116.709 1337.75 Q116.131 1338.42 113.029 1341.64 Q109.927 1344.84 104.279 1350.6 Z" fill="#000000" fill-rule="evenodd" fill-opacity="1" /><path clip-path="url(#clip210)" d="M 0 0 M62.9365 1191.95 Q59.3254 1191.95 57.4967 1195.52 Q55.6912 1199.06 55.6912 1206.19 Q55.6912 1213.3 57.4967 1216.86 Q59.3254 1220.4 62.9365 1220.4 Q66.5707 1220.4 68.3763 1216.86 Q70.205 1213.3 70.205 1206.19 Q70.205 1199.06 68.3763 1195.52 Q66.5707 1191.95 62.9365 1191.95 M62.9365 1188.25 Q68.7467 1188.25 71.8022 1192.86 Q74.8809 1197.44 74.8809 1206.19 Q74.8809 1214.92 71.8022 1219.52 Q68.7467 1224.11 62.9365 1224.11 Q57.1264 1224.11 54.0477 1219.52 Q50.9921 1214.92 50.9921 1206.19 Q50.9921 1197.44 54.0477 1192.86 Q57.1264 1188.25 62.9365 1188.25 Z" fill="#000000" fill-rule="evenodd" fill-opacity="1" /><path clip-path="url(#clip210)" d="M 0 0 M83.0984 1217.56 L87.9827 1217.56 L87.9827 1223.43 L83.0984 1223.43 L83.0984 1217.56 Z" fill="#000000" fill-rule="evenodd" fill-opacity="1" /><path clip-path="url(#clip210)" d="M 0 0 M111.015 1192.95 L99.2095 1211.4 L111.015 1211.4 L111.015 1192.95 M109.788 1188.87 L115.668 1188.87 L115.668 1211.4 L120.598 1211.4 L120.598 1215.29 L115.668 1215.29 L115.668 1223.43 L111.015 1223.43 L111.015 1215.29 L95.4132 1215.29 L95.4132 1210.77 L109.788 1188.87 Z" fill="#000000" fill-rule="evenodd" fill-opacity="1" /><path clip-path="url(#clip210)" d="M 0 0 M63.2606 1060.85 Q59.6495 1060.85 57.8208 1064.42 Q56.0152 1067.96 56.0152 1075.09 Q56.0152 1082.19 57.8208 1085.76 Q59.6495 1089.3 63.2606 1089.3 Q66.8948 1089.3 68.7004 1085.76 Q70.5291 1082.19 70.5291 1075.09 Q70.5291 1067.96 68.7004 1064.42 Q66.8948 1060.85 63.2606 1060.85 M63.2606 1057.15 Q69.0707 1057.15 72.1263 1061.75 Q75.205 1066.34 75.205 1075.09 Q75.205 1083.81 72.1263 1088.42 Q69.0707 1093 63.2606 1093 Q57.4504 1093 54.3717 1088.42 Q51.3162 1083.81 51.3162 1075.09 Q51.3162 1066.34 54.3717 1061.75 Q57.4504 1057.15 63.2606 1057.15 Z" fill="#000000" fill-rule="evenodd" fill-opacity="1" /><path clip-path="url(#clip210)" d="M 0 0 M83.4225 1086.45 L88.3067 1086.45 L88.3067 1092.33 L83.4225 1092.33 L83.4225 1086.45 Z" fill="#000000" fill-rule="evenodd" fill-opacity="1" /><path clip-path="url(#clip210)" d="M 0 0 M109.071 1073.19 Q105.922 1073.19 104.071 1075.34 Q102.242 1077.5 102.242 1081.25 Q102.242 1084.97 104.071 1087.15 Q105.922 1089.3 109.071 1089.3 Q112.219 1089.3 114.047 1087.15 Q115.899 1084.97 115.899 1081.25 Q115.899 1077.5 114.047 1075.34 Q112.219 1073.19 109.071 1073.19 M118.353 1058.54 L118.353 1062.8 Q116.594 1061.96 114.788 1061.52 Q113.006 1061.08 111.246 1061.08 Q106.617 1061.08 104.163 1064.21 Q101.733 1067.33 101.385 1073.65 Q102.751 1071.64 104.811 1070.57 Q106.871 1069.49 109.348 1069.49 Q114.557 1069.49 117.566 1072.66 Q120.598 1075.81 120.598 1081.25 Q120.598 1086.57 117.45 1089.79 Q114.302 1093 109.071 1093 Q103.075 1093 99.9039 1088.42 Q96.7326 1083.81 96.7326 1075.09 Q96.7326 1066.89 100.621 1062.03 Q104.51 1057.15 111.061 1057.15 Q112.82 1057.15 114.603 1057.5 Q116.408 1057.84 118.353 1058.54 Z" fill="#000000" fill-rule="evenodd" fill-opacity="1" /><path clip-path="url(#clip210)" d="M 0 0 M63.5152 929.751 Q59.9041 929.751 58.0754 933.316 Q56.2699 936.857 56.2699 943.987 Q56.2699 951.093 58.0754 954.658 Q59.9041 958.2 63.5152 958.2 Q67.1494 958.2 68.955 954.658 Q70.7837 951.093 70.7837 943.987 Q70.7837 936.857 68.955 933.316 Q67.1494 929.751 63.5152 929.751 M63.5152 926.047 Q69.3254 926.047 72.3809 930.654 Q75.4596 935.237 75.4596 943.987 Q75.4596 952.714 72.3809 957.32 Q69.3254 961.903 63.5152 961.903 Q57.7051 961.903 54.6264 957.32 Q51.5708 952.714 51.5708 943.987 Q51.5708 935.237 54.6264 930.654 Q57.7051 926.047 63.5152 926.047 Z" fill="#000000" fill-rule="evenodd" fill-opacity="1" /><path clip-path="url(#clip210)" d="M 0 0 M83.6771 955.352 L88.5614 955.352 L88.5614 961.232 L83.6771 961.232 L83.6771 955.352 Z" fill="#000000" fill-rule="evenodd" fill-opacity="1" /><path clip-path="url(#clip210)" d="M 0 0 M108.746 944.82 Q105.413 944.82 103.492 946.603 Q101.594 948.385 101.594 951.51 Q101.594 954.635 103.492 956.417 Q105.413 958.2 108.746 958.2 Q112.08 958.2 114.001 956.417 Q115.922 954.612 115.922 951.51 Q115.922 948.385 114.001 946.603 Q112.103 944.82 108.746 944.82 M104.071 942.829 Q101.061 942.089 99.3715 940.028 Q97.7048 937.968 97.7048 935.005 Q97.7048 930.862 100.645 928.454 Q103.608 926.047 108.746 926.047 Q113.908 926.047 116.848 928.454 Q119.788 930.862 119.788 935.005 Q119.788 937.968 118.098 940.028 Q116.432 942.089 113.445 942.829 Q116.825 943.616 118.7 945.908 Q120.598 948.2 120.598 951.51 Q120.598 956.533 117.52 959.218 Q114.464 961.903 108.746 961.903 Q103.029 961.903 99.9502 959.218 Q96.8947 956.533 96.8947 951.51 Q96.8947 948.2 98.7928 945.908 Q100.691 943.616 104.071 942.829 M102.358 935.445 Q102.358 938.13 104.024 939.635 Q105.714 941.14 108.746 941.14 Q111.756 941.14 113.445 939.635 Q115.158 938.13 115.158 935.445 Q115.158 932.76 113.445 931.255 Q111.756 929.751 108.746 929.751 Q105.714 929.751 104.024 931.255 Q102.358 932.76 102.358 935.445 Z" fill="#000000" fill-rule="evenodd" fill-opacity="1" /><path clip-path="url(#clip214)" d="
M210.63 1075.58 L210.63 1468.36 L257.889 1468.36 L257.889 1075.58 L210.63 1075.58 L210.63 1075.58  Z
  " fill="#ffff00" fill-rule="evenodd" fill-opacity="1"/>
<polyline clip-path="url(#clip214)" style="stroke:#000000; stroke-width:4; stroke-opacity:1; fill:none" points="
  210.63,1075.58 210.63,1468.36 257.889,1468.36 257.889,1075.58 210.63,1075.58 
  "/>
<path clip-path="url(#clip214)" d="
M269.704 1002.91 L269.704 1468.36 L316.963 1468.36 L316.963 1002.91 L269.704 1002.91 L269.704 1002.91  Z
  " fill="#ffff00" fill-rule="evenodd" fill-opacity="1"/>
<polyline clip-path="url(#clip214)" style="stroke:#000000; stroke-width:4; stroke-opacity:1; fill:none" points="
  269.704,1002.91 269.704,1468.36 316.963,1468.36 316.963,1002.91 269.704,1002.91 
  "/>
<path clip-path="url(#clip214)" d="
M328.778 1376.87 L328.778 1468.36 L376.038 1468.36 L376.038 1376.87 L328.778 1376.87 L328.778 1376.87  Z
  " fill="#ffff00" fill-rule="evenodd" fill-opacity="1"/>
<polyline clip-path="url(#clip214)" style="stroke:#000000; stroke-width:4; stroke-opacity:1; fill:none" points="
  328.778,1376.87 328.778,1468.36 376.038,1468.36 376.038,1376.87 328.778,1376.87 
  "/>
<path clip-path="url(#clip214)" d="
M387.852 1235.15 L387.852 1468.36 L435.112 1468.36 L435.112 1235.15 L387.852 1235.15 L387.852 1235.15  Z
  " fill="#ffff00" fill-rule="evenodd" fill-opacity="1"/>
<polyline clip-path="url(#clip214)" style="stroke:#000000; stroke-width:4; stroke-opacity:1; fill:none" points="
  387.852,1235.15 387.852,1468.36 435.112,1468.36 435.112,1235.15 387.852,1235.15 
  "/>
<path clip-path="url(#clip214)" d="
M446.927 1321.23 L446.927 1468.36 L494.186 1468.36 L494.186 1321.23 L446.927 1321.23 L446.927 1321.23  Z
  " fill="#ffff00" fill-rule="evenodd" fill-opacity="1"/>
<polyline clip-path="url(#clip214)" style="stroke:#000000; stroke-width:4; stroke-opacity:1; fill:none" points="
  446.927,1321.23 446.927,1468.36 494.186,1468.36 494.186,1321.23 446.927,1321.23 
  "/>
<path clip-path="url(#clip214)" d="
M506.001 972.312 L506.001 1468.36 L553.26 1468.36 L553.26 972.312 L506.001 972.312 L506.001 972.312  Z
  " fill="#ffff00" fill-rule="evenodd" fill-opacity="1"/>
<polyline clip-path="url(#clip214)" style="stroke:#000000; stroke-width:4; stroke-opacity:1; fill:none" points="
  506.001,972.312 506.001,1468.36 553.26,1468.36 553.26,972.312 506.001,972.312 
  "/>
<path clip-path="url(#clip214)" d="
M565.075 1206.06 L565.075 1468.36 L612.334 1468.36 L612.334 1206.06 L565.075 1206.06 L565.075 1206.06  Z
  " fill="#ffff00" fill-rule="evenodd" fill-opacity="1"/>
<polyline clip-path="url(#clip214)" style="stroke:#000000; stroke-width:4; stroke-opacity:1; fill:none" points="
  565.075,1206.06 565.075,1468.36 612.334,1468.36 612.334,1206.06 565.075,1206.06 
  "/>
<path clip-path="url(#clip214)" d="
M624.149 1349.26 L624.149 1468.36 L671.409 1468.36 L671.409 1349.26 L624.149 1349.26 L624.149 1349.26  Z
  " fill="#ffff00" fill-rule="evenodd" fill-opacity="1"/>
<polyline clip-path="url(#clip214)" style="stroke:#000000; stroke-width:4; stroke-opacity:1; fill:none" points="
  624.149,1349.26 624.149,1468.36 671.409,1468.36 671.409,1349.26 624.149,1349.26 
  "/>
<path clip-path="url(#clip214)" d="
M683.223 1388.31 L683.223 1468.36 L730.483 1468.36 L730.483 1388.31 L683.223 1388.31 L683.223 1388.31  Z
  " fill="#ffff00" fill-rule="evenodd" fill-opacity="1"/>
<polyline clip-path="url(#clip214)" style="stroke:#000000; stroke-width:4; stroke-opacity:1; fill:none" points="
  683.223,1388.31 683.223,1468.36 730.483,1468.36 730.483,1388.31 683.223,1388.31 
  "/>
<path clip-path="url(#clip214)" d="
M742.298 1248.63 L742.298 1468.36 L789.557 1468.36 L789.557 1248.63 L742.298 1248.63 L742.298 1248.63  Z
  " fill="#ffff00" fill-rule="evenodd" fill-opacity="1"/>
<polyline clip-path="url(#clip214)" style="stroke:#000000; stroke-width:4; stroke-opacity:1; fill:none" points="
  742.298,1248.63 742.298,1468.36 789.557,1468.36 789.557,1248.63 742.298,1248.63 
  "/>
<path clip-path="url(#clip214)" d="
M801.372 1385.03 L801.372 1468.36 L848.631 1468.36 L848.631 1385.03 L801.372 1385.03 L801.372 1385.03  Z
  " fill="#ffff00" fill-rule="evenodd" fill-opacity="1"/>
<polyline clip-path="url(#clip214)" style="stroke:#000000; stroke-width:4; stroke-opacity:1; fill:none" points="
  801.372,1385.03 801.372,1468.36 848.631,1468.36 848.631,1385.03 801.372,1385.03 
  "/>
<path clip-path="url(#clip214)" d="
M860.446 1220.21 L860.446 1468.36 L907.705 1468.36 L907.705 1220.21 L860.446 1220.21 L860.446 1220.21  Z
  " fill="#ffff00" fill-rule="evenodd" fill-opacity="1"/>
<polyline clip-path="url(#clip214)" style="stroke:#000000; stroke-width:4; stroke-opacity:1; fill:none" points="
  860.446,1220.21 860.446,1468.36 907.705,1468.36 907.705,1220.21 860.446,1220.21 
  "/>
<path clip-path="url(#clip214)" d="
M919.52 897.656 L919.52 1468.36 L966.78 1468.36 L966.78 897.656 L919.52 897.656 L919.52 897.656  Z
  " fill="#ffff00" fill-rule="evenodd" fill-opacity="1"/>
<polyline clip-path="url(#clip214)" style="stroke:#000000; stroke-width:4; stroke-opacity:1; fill:none" points="
  919.52,897.656 919.52,1468.36 966.78,1468.36 966.78,897.656 919.52,897.656 
  "/>
<path clip-path="url(#clip214)" d="
M978.594 865.335 L978.594 1468.36 L1025.85 1468.36 L1025.85 865.335 L978.594 865.335 L978.594 865.335  Z
  " fill="#ffff00" fill-rule="evenodd" fill-opacity="1"/>
<polyline clip-path="url(#clip214)" style="stroke:#000000; stroke-width:4; stroke-opacity:1; fill:none" points="
  978.594,865.335 978.594,1468.36 1025.85,1468.36 1025.85,865.335 978.594,865.335 
  "/>
<path clip-path="url(#clip214)" d="
M1037.67 1359.72 L1037.67 1468.36 L1084.93 1468.36 L1084.93 1359.72 L1037.67 1359.72 L1037.67 1359.72  Z
  " fill="#ffff00" fill-rule="evenodd" fill-opacity="1"/>
<polyline clip-path="url(#clip214)" style="stroke:#000000; stroke-width:4; stroke-opacity:1; fill:none" points="
  1037.67,1359.72 1037.67,1468.36 1084.93,1468.36 1084.93,1359.72 1037.67,1359.72 
  "/>
<path clip-path="url(#clip210)" d="
M944.633 989.511 L1106.21 989.511 L1106.21 868.551 L944.633 868.551  Z
  " fill="#ffffff" fill-rule="evenodd" fill-opacity="1"/>
<polyline clip-path="url(#clip210)" style="stroke:#000000; stroke-width:4; stroke-opacity:1; fill:none" points="
  944.633,989.511 1106.21,989.511 1106.21,868.551 944.633,868.551 944.633,989.511 
  "/>
<path clip-path="url(#clip210)" d="
M955.548 953.223 L1021.04 953.223 L1021.04 904.839 L955.548 904.839 L955.548 953.223  Z
  " fill="#ffff00" fill-rule="evenodd" fill-opacity="1"/>
<polyline clip-path="url(#clip210)" style="stroke:#000000; stroke-width:4; stroke-opacity:1; fill:none" points="
  955.548,953.223 1021.04,953.223 1021.04,904.839 955.548,904.839 955.548,953.223 
  "/>
<path clip-path="url(#clip210)" d="M 0 0 M1045.8 948.718 Q1043.99 953.348 1042.28 954.76 Q1040.56 956.172 1037.69 956.172 L1034.29 956.172 L1034.29 952.607 L1036.79 952.607 Q1038.55 952.607 1039.52 951.774 Q1040.5 950.94 1041.68 947.839 L1042.44 945.894 L1031.95 920.385 L1036.47 920.385 L1044.57 940.663 L1052.67 920.385 L1057.19 920.385 L1045.8 948.718 Z" fill="#000000" fill-rule="evenodd" fill-opacity="1" /><path clip-path="url(#clip210)" d="M 0 0 M1064.48 942.376 L1072.12 942.376 L1072.12 916.01 L1063.81 917.677 L1063.81 913.418 L1072.07 911.751 L1076.75 911.751 L1076.75 942.376 L1084.38 942.376 L1084.38 946.311 L1064.48 946.311 L1064.48 942.376 Z" fill="#000000" fill-rule="evenodd" fill-opacity="1" /><path clip-path="url(#clip210)" d="
M1370.39 1486.45 L2352.76 1486.45 L2352.76 847.244 L1370.39 847.244  Z
  " fill="#ffffff" fill-rule="evenodd" fill-opacity="1"/>
<defs>
  <clipPath id="clip215">
    <rect x="1370" y="847" width="983" height="640"/>
  </clipPath>
</defs>
<polyline clip-path="url(#clip215)" style="stroke:#000000; stroke-width:2; stroke-opacity:0.1; fill:none" points="
  1424.43,1486.45 1424.43,847.244 
  "/>
<polyline clip-path="url(#clip215)" style="stroke:#000000; stroke-width:2; stroke-opacity:0.1; fill:none" points="
  1643,1486.45 1643,847.244 
  "/>
<polyline clip-path="url(#clip215)" style="stroke:#000000; stroke-width:2; stroke-opacity:0.1; fill:none" points="
  1861.58,1486.45 1861.58,847.244 
  "/>
<polyline clip-path="url(#clip215)" style="stroke:#000000; stroke-width:2; stroke-opacity:0.1; fill:none" points="
  2080.15,1486.45 2080.15,847.244 
  "/>
<polyline clip-path="url(#clip215)" style="stroke:#000000; stroke-width:2; stroke-opacity:0.1; fill:none" points="
  2298.72,1486.45 2298.72,847.244 
  "/>
<polyline clip-path="url(#clip210)" style="stroke:#000000; stroke-width:4; stroke-opacity:1; fill:none" points="
  1370.39,1486.45 2352.76,1486.45 
  "/>
<polyline clip-path="url(#clip210)" style="stroke:#000000; stroke-width:4; stroke-opacity:1; fill:none" points="
  1424.43,1486.45 1424.43,1478.78 
  "/>
<polyline clip-path="url(#clip210)" style="stroke:#000000; stroke-width:4; stroke-opacity:1; fill:none" points="
  1643,1486.45 1643,1478.78 
  "/>
<polyline clip-path="url(#clip210)" style="stroke:#000000; stroke-width:4; stroke-opacity:1; fill:none" points="
  1861.58,1486.45 1861.58,1478.78 
  "/>
<polyline clip-path="url(#clip210)" style="stroke:#000000; stroke-width:4; stroke-opacity:1; fill:none" points="
  2080.15,1486.45 2080.15,1478.78 
  "/>
<polyline clip-path="url(#clip210)" style="stroke:#000000; stroke-width:4; stroke-opacity:1; fill:none" points="
  2298.72,1486.45 2298.72,1478.78 
  "/>
<path clip-path="url(#clip210)" d="M 0 0 M1386.73 1515.64 Q1383.12 1515.64 1381.29 1519.2 Q1379.48 1522.75 1379.48 1529.87 Q1379.48 1536.98 1381.29 1540.55 Q1383.12 1544.09 1386.73 1544.09 Q1390.36 1544.09 1392.17 1540.55 Q1394 1536.98 1394 1529.87 Q1394 1522.75 1392.17 1519.2 Q1390.36 1515.64 1386.73 1515.64 M1386.73 1511.93 Q1392.54 1511.93 1395.6 1516.54 Q1398.67 1521.12 1398.67 1529.87 Q1398.67 1538.6 1395.6 1543.21 Q1392.54 1547.79 1386.73 1547.79 Q1380.92 1547.79 1377.84 1543.21 Q1374.79 1538.6 1374.79 1529.87 Q1374.79 1521.12 1377.84 1516.54 Q1380.92 1511.93 1386.73 1511.93 Z" fill="#000000" fill-rule="evenodd" fill-opacity="1" /><path clip-path="url(#clip210)" d="M 0 0 M1406.89 1541.24 L1411.78 1541.24 L1411.78 1547.12 L1406.89 1547.12 L1406.89 1541.24 Z" fill="#000000" fill-rule="evenodd" fill-opacity="1" /><path clip-path="url(#clip210)" d="M 0 0 M1431.96 1515.64 Q1428.35 1515.64 1426.52 1519.2 Q1424.72 1522.75 1424.72 1529.87 Q1424.72 1536.98 1426.52 1540.55 Q1428.35 1544.09 1431.96 1544.09 Q1435.6 1544.09 1437.4 1540.55 Q1439.23 1536.98 1439.23 1529.87 Q1439.23 1522.75 1437.4 1519.2 Q1435.6 1515.64 1431.96 1515.64 M1431.96 1511.93 Q1437.77 1511.93 1440.83 1516.54 Q1443.91 1521.12 1443.91 1529.87 Q1443.91 1538.6 1440.83 1543.21 Q1437.77 1547.79 1431.96 1547.79 Q1426.15 1547.79 1423.07 1543.21 Q1420.02 1538.6 1420.02 1529.87 Q1420.02 1521.12 1423.07 1516.54 Q1426.15 1511.93 1431.96 1511.93 Z" fill="#000000" fill-rule="evenodd" fill-opacity="1" /><path clip-path="url(#clip210)" d="M 0 0 M1462.12 1515.64 Q1458.51 1515.64 1456.68 1519.2 Q1454.88 1522.75 1454.88 1529.87 Q1454.88 1536.98 1456.68 1540.55 Q1458.51 1544.09 1462.12 1544.09 Q1465.76 1544.09 1467.56 1540.55 Q1469.39 1536.98 1469.39 1529.87 Q1469.39 1522.75 1467.56 1519.2 Q1465.76 1515.64 1462.12 1515.64 M1462.12 1511.93 Q1467.93 1511.93 1470.99 1516.54 Q1474.07 1521.12 1474.07 1529.87 Q1474.07 1538.6 1470.99 1543.21 Q1467.93 1547.79 1462.12 1547.79 Q1456.31 1547.79 1453.23 1543.21 Q1450.18 1538.6 1450.18 1529.87 Q1450.18 1521.12 1453.23 1516.54 Q1456.31 1511.93 1462.12 1511.93 Z" fill="#000000" fill-rule="evenodd" fill-opacity="1" /><path clip-path="url(#clip210)" d="M 0 0 M1605.8 1515.64 Q1602.19 1515.64 1600.36 1519.2 Q1598.56 1522.75 1598.56 1529.87 Q1598.56 1536.98 1600.36 1540.55 Q1602.19 1544.09 1605.8 1544.09 Q1609.44 1544.09 1611.24 1540.55 Q1613.07 1536.98 1613.07 1529.87 Q1613.07 1522.75 1611.24 1519.2 Q1609.44 1515.64 1605.8 1515.64 M1605.8 1511.93 Q1611.61 1511.93 1614.67 1516.54 Q1617.75 1521.12 1617.75 1529.87 Q1617.75 1538.6 1614.67 1543.21 Q1611.61 1547.79 1605.8 1547.79 Q1599.99 1547.79 1596.91 1543.21 Q1593.86 1538.6 1593.86 1529.87 Q1593.86 1521.12 1596.91 1516.54 Q1599.99 1511.93 1605.8 1511.93 Z" fill="#000000" fill-rule="evenodd" fill-opacity="1" /><path clip-path="url(#clip210)" d="M 0 0 M1625.96 1541.24 L1630.85 1541.24 L1630.85 1547.12 L1625.96 1547.12 L1625.96 1541.24 Z" fill="#000000" fill-rule="evenodd" fill-opacity="1" /><path clip-path="url(#clip210)" d="M 0 0 M1645.06 1543.18 L1661.38 1543.18 L1661.38 1547.12 L1639.44 1547.12 L1639.44 1543.18 Q1642.1 1540.43 1646.68 1535.8 Q1651.29 1531.15 1652.47 1529.81 Q1654.71 1527.28 1655.59 1525.55 Q1656.5 1523.79 1656.5 1522.1 Q1656.5 1519.34 1654.55 1517.61 Q1652.63 1515.87 1649.53 1515.87 Q1647.33 1515.87 1644.88 1516.63 Q1642.45 1517.4 1639.67 1518.95 L1639.67 1514.23 Q1642.49 1513.09 1644.95 1512.51 Q1647.4 1511.93 1649.44 1511.93 Q1654.81 1511.93 1658 1514.62 Q1661.19 1517.31 1661.19 1521.8 Q1661.19 1523.93 1660.38 1525.85 Q1659.6 1527.74 1657.49 1530.34 Q1656.91 1531.01 1653.81 1534.23 Q1650.71 1537.42 1645.06 1543.18 Z" fill="#000000" fill-rule="evenodd" fill-opacity="1" /><path clip-path="url(#clip210)" d="M 0 0 M1671.24 1512.56 L1689.6 1512.56 L1689.6 1516.5 L1675.52 1516.5 L1675.52 1524.97 Q1676.54 1524.62 1677.56 1524.46 Q1678.58 1524.27 1679.6 1524.27 Q1685.38 1524.27 1688.76 1527.44 Q1692.14 1530.62 1692.14 1536.03 Q1692.14 1541.61 1688.67 1544.71 Q1685.2 1547.79 1678.88 1547.79 Q1676.7 1547.79 1674.44 1547.42 Q1672.19 1547.05 1669.78 1546.31 L1669.78 1541.61 Q1671.87 1542.74 1674.09 1543.3 Q1676.31 1543.86 1678.79 1543.86 Q1682.79 1543.86 1685.13 1541.75 Q1687.47 1539.64 1687.47 1536.03 Q1687.47 1532.42 1685.13 1530.31 Q1682.79 1528.21 1678.79 1528.21 Q1676.91 1528.21 1675.04 1528.62 Q1673.19 1529.04 1671.24 1529.92 L1671.24 1512.56 Z" fill="#000000" fill-rule="evenodd" fill-opacity="1" /><path clip-path="url(#clip210)" d="M 0 0 M1823.88 1515.64 Q1820.27 1515.64 1818.44 1519.2 Q1816.63 1522.75 1816.63 1529.87 Q1816.63 1536.98 1818.44 1540.55 Q1820.27 1544.09 1823.88 1544.09 Q1827.51 1544.09 1829.32 1540.55 Q1831.15 1536.98 1831.15 1529.87 Q1831.15 1522.75 1829.32 1519.2 Q1827.51 1515.64 1823.88 1515.64 M1823.88 1511.93 Q1829.69 1511.93 1832.74 1516.54 Q1835.82 1521.12 1835.82 1529.87 Q1835.82 1538.6 1832.74 1543.21 Q1829.69 1547.79 1823.88 1547.79 Q1818.07 1547.79 1814.99 1543.21 Q1811.93 1538.6 1811.93 1529.87 Q1811.93 1521.12 1814.99 1516.54 Q1818.07 1511.93 1823.88 1511.93 Z" fill="#000000" fill-rule="evenodd" fill-opacity="1" /><path clip-path="url(#clip210)" d="M 0 0 M1844.04 1541.24 L1848.92 1541.24 L1848.92 1547.12 L1844.04 1547.12 L1844.04 1541.24 Z" fill="#000000" fill-rule="evenodd" fill-opacity="1" /><path clip-path="url(#clip210)" d="M 0 0 M1859.16 1512.56 L1877.51 1512.56 L1877.51 1516.5 L1863.44 1516.5 L1863.44 1524.97 Q1864.46 1524.62 1865.48 1524.46 Q1866.49 1524.27 1867.51 1524.27 Q1873.3 1524.27 1876.68 1527.44 Q1880.06 1530.62 1880.06 1536.03 Q1880.06 1541.61 1876.59 1544.71 Q1873.11 1547.79 1866.8 1547.79 Q1864.62 1547.79 1862.35 1547.42 Q1860.11 1547.05 1857.7 1546.31 L1857.7 1541.61 Q1859.78 1542.74 1862 1543.3 Q1864.23 1543.86 1866.7 1543.86 Q1870.71 1543.86 1873.05 1541.75 Q1875.38 1539.64 1875.38 1536.03 Q1875.38 1532.42 1873.05 1530.31 Q1870.71 1528.21 1866.7 1528.21 Q1864.83 1528.21 1862.95 1528.62 Q1861.1 1529.04 1859.16 1529.92 L1859.16 1512.56 Z" fill="#000000" fill-rule="evenodd" fill-opacity="1" /><path clip-path="url(#clip210)" d="M 0 0 M1899.27 1515.64 Q1895.66 1515.64 1893.83 1519.2 Q1892.03 1522.75 1892.03 1529.87 Q1892.03 1536.98 1893.83 1540.55 Q1895.66 1544.09 1899.27 1544.09 Q1902.91 1544.09 1904.71 1540.55 Q1906.54 1536.98 1906.54 1529.87 Q1906.54 1522.75 1904.71 1519.2 Q1902.91 1515.64 1899.27 1515.64 M1899.27 1511.93 Q1905.08 1511.93 1908.14 1516.54 Q1911.22 1521.12 1911.22 1529.87 Q1911.22 1538.6 1908.14 1543.21 Q1905.08 1547.79 1899.27 1547.79 Q1893.46 1547.79 1890.38 1543.21 Q1887.33 1538.6 1887.33 1529.87 Q1887.33 1521.12 1890.38 1516.54 Q1893.46 1511.93 1899.27 1511.93 Z" fill="#000000" fill-rule="evenodd" fill-opacity="1" /><path clip-path="url(#clip210)" d="M 0 0 M2042.95 1515.64 Q2039.34 1515.64 2037.51 1519.2 Q2035.71 1522.75 2035.71 1529.87 Q2035.71 1536.98 2037.51 1540.55 Q2039.34 1544.09 2042.95 1544.09 Q2046.59 1544.09 2048.39 1540.55 Q2050.22 1536.98 2050.22 1529.87 Q2050.22 1522.75 2048.39 1519.2 Q2046.59 1515.64 2042.95 1515.64 M2042.95 1511.93 Q2048.76 1511.93 2051.82 1516.54 Q2054.9 1521.12 2054.9 1529.87 Q2054.9 1538.6 2051.82 1543.21 Q2048.76 1547.79 2042.95 1547.79 Q2037.14 1547.79 2034.06 1543.21 Q2031.01 1538.6 2031.01 1529.87 Q2031.01 1521.12 2034.06 1516.54 Q2037.14 1511.93 2042.95 1511.93 Z" fill="#000000" fill-rule="evenodd" fill-opacity="1" /><path clip-path="url(#clip210)" d="M 0 0 M2063.11 1541.24 L2068 1541.24 L2068 1547.12 L2063.11 1547.12 L2063.11 1541.24 Z" fill="#000000" fill-rule="evenodd" fill-opacity="1" /><path clip-path="url(#clip210)" d="M 0 0 M2077 1512.56 L2099.22 1512.56 L2099.22 1514.55 L2086.68 1547.12 L2081.79 1547.12 L2093.6 1516.5 L2077 1516.5 L2077 1512.56 Z" fill="#000000" fill-rule="evenodd" fill-opacity="1" /><path clip-path="url(#clip210)" d="M 0 0 M2108.39 1512.56 L2126.75 1512.56 L2126.75 1516.5 L2112.67 1516.5 L2112.67 1524.97 Q2113.69 1524.62 2114.71 1524.46 Q2115.73 1524.27 2116.75 1524.27 Q2122.53 1524.27 2125.91 1527.44 Q2129.29 1530.62 2129.29 1536.03 Q2129.29 1541.61 2125.82 1544.71 Q2122.35 1547.79 2116.03 1547.79 Q2113.85 1547.79 2111.58 1547.42 Q2109.34 1547.05 2106.93 1546.31 L2106.93 1541.61 Q2109.02 1542.74 2111.24 1543.3 Q2113.46 1543.86 2115.94 1543.86 Q2119.94 1543.86 2122.28 1541.75 Q2124.62 1539.64 2124.62 1536.03 Q2124.62 1532.42 2122.28 1530.31 Q2119.94 1528.21 2115.94 1528.21 Q2114.06 1528.21 2112.19 1528.62 Q2110.33 1529.04 2108.39 1529.92 L2108.39 1512.56 Z" fill="#000000" fill-rule="evenodd" fill-opacity="1" /><path clip-path="url(#clip210)" d="M 0 0 M2250.8 1543.18 L2258.44 1543.18 L2258.44 1516.82 L2250.13 1518.49 L2250.13 1514.23 L2258.39 1512.56 L2263.06 1512.56 L2263.06 1543.18 L2270.7 1543.18 L2270.7 1547.12 L2250.8 1547.12 L2250.8 1543.18 Z" fill="#000000" fill-rule="evenodd" fill-opacity="1" /><path clip-path="url(#clip210)" d="M 0 0 M2280.15 1541.24 L2285.03 1541.24 L2285.03 1547.12 L2280.15 1547.12 L2280.15 1541.24 Z" fill="#000000" fill-rule="evenodd" fill-opacity="1" /><path clip-path="url(#clip210)" d="M 0 0 M2305.22 1515.64 Q2301.61 1515.64 2299.78 1519.2 Q2297.97 1522.75 2297.97 1529.87 Q2297.97 1536.98 2299.78 1540.55 Q2301.61 1544.09 2305.22 1544.09 Q2308.85 1544.09 2310.66 1540.55 Q2312.49 1536.98 2312.49 1529.87 Q2312.49 1522.75 2310.66 1519.2 Q2308.85 1515.64 2305.22 1515.64 M2305.22 1511.93 Q2311.03 1511.93 2314.08 1516.54 Q2317.16 1521.12 2317.16 1529.87 Q2317.16 1538.6 2314.08 1543.21 Q2311.03 1547.79 2305.22 1547.79 Q2299.41 1547.79 2296.33 1543.21 Q2293.27 1538.6 2293.27 1529.87 Q2293.27 1521.12 2296.33 1516.54 Q2299.41 1511.93 2305.22 1511.93 Z" fill="#000000" fill-rule="evenodd" fill-opacity="1" /><path clip-path="url(#clip210)" d="M 0 0 M2335.38 1515.64 Q2331.77 1515.64 2329.94 1519.2 Q2328.13 1522.75 2328.13 1529.87 Q2328.13 1536.98 2329.94 1540.55 Q2331.77 1544.09 2335.38 1544.09 Q2339.01 1544.09 2340.82 1540.55 Q2342.65 1536.98 2342.65 1529.87 Q2342.65 1522.75 2340.82 1519.2 Q2339.01 1515.64 2335.38 1515.64 M2335.38 1511.93 Q2341.19 1511.93 2344.24 1516.54 Q2347.32 1521.12 2347.32 1529.87 Q2347.32 1538.6 2344.24 1543.21 Q2341.19 1547.79 2335.38 1547.79 Q2329.57 1547.79 2326.49 1543.21 Q2323.43 1538.6 2323.43 1529.87 Q2323.43 1521.12 2326.49 1516.54 Q2329.57 1511.93 2335.38 1511.93 Z" fill="#000000" fill-rule="evenodd" fill-opacity="1" /><polyline clip-path="url(#clip215)" style="stroke:#000000; stroke-width:2; stroke-opacity:0.1; fill:none" points="
  1370.39,1468.36 2352.76,1468.36 
  "/>
<polyline clip-path="url(#clip215)" style="stroke:#000000; stroke-width:2; stroke-opacity:0.1; fill:none" points="
  1370.39,1317.6 2352.76,1317.6 
  "/>
<polyline clip-path="url(#clip215)" style="stroke:#000000; stroke-width:2; stroke-opacity:0.1; fill:none" points="
  1370.39,1166.85 2352.76,1166.85 
  "/>
<polyline clip-path="url(#clip215)" style="stroke:#000000; stroke-width:2; stroke-opacity:0.1; fill:none" points="
  1370.39,1016.09 2352.76,1016.09 
  "/>
<polyline clip-path="url(#clip215)" style="stroke:#000000; stroke-width:2; stroke-opacity:0.1; fill:none" points="
  1370.39,865.335 2352.76,865.335 
  "/>
<polyline clip-path="url(#clip210)" style="stroke:#000000; stroke-width:4; stroke-opacity:1; fill:none" points="
  1370.39,1486.45 1370.39,847.244 
  "/>
<polyline clip-path="url(#clip210)" style="stroke:#000000; stroke-width:4; stroke-opacity:1; fill:none" points="
  1370.39,1468.36 1382.18,1468.36 
  "/>
<polyline clip-path="url(#clip210)" style="stroke:#000000; stroke-width:4; stroke-opacity:1; fill:none" points="
  1370.39,1317.6 1382.18,1317.6 
  "/>
<polyline clip-path="url(#clip210)" style="stroke:#000000; stroke-width:4; stroke-opacity:1; fill:none" points="
  1370.39,1166.85 1382.18,1166.85 
  "/>
<polyline clip-path="url(#clip210)" style="stroke:#000000; stroke-width:4; stroke-opacity:1; fill:none" points="
  1370.39,1016.09 1382.18,1016.09 
  "/>
<polyline clip-path="url(#clip210)" style="stroke:#000000; stroke-width:4; stroke-opacity:1; fill:none" points="
  1370.39,865.335 1382.18,865.335 
  "/>
<path clip-path="url(#clip210)" d="M 0 0 M1277.22 1454.16 Q1273.61 1454.16 1271.78 1457.72 Q1269.97 1461.26 1269.97 1468.39 Q1269.97 1475.5 1271.78 1479.06 Q1273.61 1482.6 1277.22 1482.6 Q1280.85 1482.6 1282.66 1479.06 Q1284.49 1475.5 1284.49 1468.39 Q1284.49 1461.26 1282.66 1457.72 Q1280.85 1454.16 1277.22 1454.16 M1277.22 1450.45 Q1283.03 1450.45 1286.08 1455.06 Q1289.16 1459.64 1289.16 1468.39 Q1289.16 1477.12 1286.08 1481.73 Q1283.03 1486.31 1277.22 1486.31 Q1271.41 1486.31 1268.33 1481.73 Q1265.27 1477.12 1265.27 1468.39 Q1265.27 1459.64 1268.33 1455.06 Q1271.41 1450.45 1277.22 1450.45 Z" fill="#000000" fill-rule="evenodd" fill-opacity="1" /><path clip-path="url(#clip210)" d="M 0 0 M1297.38 1479.76 L1302.26 1479.76 L1302.26 1485.64 L1297.38 1485.64 L1297.38 1479.76 Z" fill="#000000" fill-rule="evenodd" fill-opacity="1" /><path clip-path="url(#clip210)" d="M 0 0 M1322.45 1454.16 Q1318.84 1454.16 1317.01 1457.72 Q1315.2 1461.26 1315.2 1468.39 Q1315.2 1475.5 1317.01 1479.06 Q1318.84 1482.6 1322.45 1482.6 Q1326.08 1482.6 1327.89 1479.06 Q1329.72 1475.5 1329.72 1468.39 Q1329.72 1461.26 1327.89 1457.72 Q1326.08 1454.16 1322.45 1454.16 M1322.45 1450.45 Q1328.26 1450.45 1331.32 1455.06 Q1334.39 1459.64 1334.39 1468.39 Q1334.39 1477.12 1331.32 1481.73 Q1328.26 1486.31 1322.45 1486.31 Q1316.64 1486.31 1313.56 1481.73 Q1310.51 1477.12 1310.51 1468.39 Q1310.51 1459.64 1313.56 1455.06 Q1316.64 1450.45 1322.45 1450.45 Z" fill="#000000" fill-rule="evenodd" fill-opacity="1" /><path clip-path="url(#clip210)" d="M 0 0 M1272.24 1330.95 L1288.56 1330.95 L1288.56 1334.88 L1266.62 1334.88 L1266.62 1330.95 Q1269.28 1328.19 1273.86 1323.56 Q1278.47 1318.91 1279.65 1317.57 Q1281.89 1315.04 1282.77 1313.31 Q1283.68 1311.55 1283.68 1309.86 Q1283.68 1307.1 1281.73 1305.37 Q1279.81 1303.63 1276.71 1303.63 Q1274.51 1303.63 1272.06 1304.4 Q1269.63 1305.16 1266.85 1306.71 L1266.85 1301.99 Q1269.67 1300.85 1272.13 1300.28 Q1274.58 1299.7 1276.62 1299.7 Q1281.99 1299.7 1285.18 1302.38 Q1288.38 1305.07 1288.38 1309.56 Q1288.38 1311.69 1287.57 1313.61 Q1286.78 1315.51 1284.67 1318.1 Q1284.09 1318.77 1280.99 1321.99 Q1277.89 1325.18 1272.24 1330.95 Z" fill="#000000" fill-rule="evenodd" fill-opacity="1" /><path clip-path="url(#clip210)" d="M 0 0 M1298.38 1329 L1303.26 1329 L1303.26 1334.88 L1298.38 1334.88 L1298.38 1329 Z" fill="#000000" fill-rule="evenodd" fill-opacity="1" /><path clip-path="url(#clip210)" d="M 0 0 M1313.49 1300.32 L1331.85 1300.32 L1331.85 1304.26 L1317.77 1304.26 L1317.77 1312.73 Q1318.79 1312.38 1319.81 1312.22 Q1320.83 1312.03 1321.85 1312.03 Q1327.64 1312.03 1331.01 1315.21 Q1334.39 1318.38 1334.39 1323.79 Q1334.39 1329.37 1330.92 1332.47 Q1327.45 1335.55 1321.13 1335.55 Q1318.95 1335.55 1316.69 1335.18 Q1314.44 1334.81 1312.03 1334.07 L1312.03 1329.37 Q1314.12 1330.51 1316.34 1331.06 Q1318.56 1331.62 1321.04 1331.62 Q1325.04 1331.62 1327.38 1329.51 Q1329.72 1327.4 1329.72 1323.79 Q1329.72 1320.18 1327.38 1318.08 Q1325.04 1315.97 1321.04 1315.97 Q1319.16 1315.97 1317.29 1316.39 Q1315.44 1316.8 1313.49 1317.68 L1313.49 1300.32 Z" fill="#000000" fill-rule="evenodd" fill-opacity="1" /><path clip-path="url(#clip210)" d="M 0 0 M1267.27 1149.57 L1285.62 1149.57 L1285.62 1153.5 L1271.55 1153.5 L1271.55 1161.97 Q1272.57 1161.63 1273.58 1161.46 Q1274.6 1161.28 1275.62 1161.28 Q1281.41 1161.28 1284.79 1164.45 Q1288.17 1167.62 1288.17 1173.04 Q1288.17 1178.62 1284.7 1181.72 Q1281.22 1184.8 1274.9 1184.8 Q1272.73 1184.8 1270.46 1184.43 Q1268.21 1184.06 1265.81 1183.32 L1265.81 1178.62 Q1267.89 1179.75 1270.11 1180.31 Q1272.33 1180.86 1274.81 1180.86 Q1278.82 1180.86 1281.15 1178.76 Q1283.49 1176.65 1283.49 1173.04 Q1283.49 1169.43 1281.15 1167.32 Q1278.82 1165.21 1274.81 1165.21 Q1272.94 1165.21 1271.06 1165.63 Q1269.21 1166.05 1267.27 1166.93 L1267.27 1149.57 Z" fill="#000000" fill-rule="evenodd" fill-opacity="1" /><path clip-path="url(#clip210)" d="M 0 0 M1297.38 1178.25 L1302.26 1178.25 L1302.26 1184.13 L1297.38 1184.13 L1297.38 1178.25 Z" fill="#000000" fill-rule="evenodd" fill-opacity="1" /><path clip-path="url(#clip210)" d="M 0 0 M1322.45 1152.64 Q1318.84 1152.64 1317.01 1156.21 Q1315.2 1159.75 1315.2 1166.88 Q1315.2 1173.99 1317.01 1177.55 Q1318.84 1181.09 1322.45 1181.09 Q1326.08 1181.09 1327.89 1177.55 Q1329.72 1173.99 1329.72 1166.88 Q1329.72 1159.75 1327.89 1156.21 Q1326.08 1152.64 1322.45 1152.64 M1322.45 1148.94 Q1328.26 1148.94 1331.32 1153.55 Q1334.39 1158.13 1334.39 1166.88 Q1334.39 1175.61 1331.32 1180.21 Q1328.26 1184.8 1322.45 1184.8 Q1316.64 1184.8 1313.56 1180.21 Q1310.51 1175.61 1310.51 1166.88 Q1310.51 1158.13 1313.56 1153.55 Q1316.64 1148.94 1322.45 1148.94 Z" fill="#000000" fill-rule="evenodd" fill-opacity="1" /><path clip-path="url(#clip210)" d="M 0 0 M1267.03 998.81 L1289.26 998.81 L1289.26 1000.8 L1276.71 1033.37 L1271.83 1033.37 L1283.63 1002.75 L1267.03 1002.75 L1267.03 998.81 Z" fill="#000000" fill-rule="evenodd" fill-opacity="1" /><path clip-path="url(#clip210)" d="M 0 0 M1298.38 1027.49 L1303.26 1027.49 L1303.26 1033.37 L1298.38 1033.37 L1298.38 1027.49 Z" fill="#000000" fill-rule="evenodd" fill-opacity="1" /><path clip-path="url(#clip210)" d="M 0 0 M1313.49 998.81 L1331.85 998.81 L1331.85 1002.75 L1317.77 1002.75 L1317.77 1011.22 Q1318.79 1010.87 1319.81 1010.71 Q1320.83 1010.52 1321.85 1010.52 Q1327.64 1010.52 1331.01 1013.69 Q1334.39 1016.87 1334.39 1022.28 Q1334.39 1027.86 1330.92 1030.96 Q1327.45 1034.04 1321.13 1034.04 Q1318.95 1034.04 1316.69 1033.67 Q1314.44 1033.3 1312.03 1032.56 L1312.03 1027.86 Q1314.12 1029 1316.34 1029.55 Q1318.56 1030.11 1321.04 1030.11 Q1325.04 1030.11 1327.38 1028 Q1329.72 1025.89 1329.72 1022.28 Q1329.72 1018.67 1327.38 1016.56 Q1325.04 1014.46 1321.04 1014.46 Q1319.16 1014.46 1317.29 1014.88 Q1315.44 1015.29 1313.49 1016.17 L1313.49 998.81 Z" fill="#000000" fill-rule="evenodd" fill-opacity="1" /><path clip-path="url(#clip210)" d="M 0 0 M1237.87 878.68 L1245.51 878.68 L1245.51 852.314 L1237.2 853.981 L1237.2 849.721 L1245.46 848.055 L1250.14 848.055 L1250.14 878.68 L1257.77 878.68 L1257.77 882.615 L1237.87 882.615 L1237.87 878.68 Z" fill="#000000" fill-rule="evenodd" fill-opacity="1" /><path clip-path="url(#clip210)" d="M 0 0 M1277.22 851.133 Q1273.61 851.133 1271.78 854.698 Q1269.97 858.24 1269.97 865.369 Q1269.97 872.476 1271.78 876.041 Q1273.61 879.582 1277.22 879.582 Q1280.85 879.582 1282.66 876.041 Q1284.49 872.476 1284.49 865.369 Q1284.49 858.24 1282.66 854.698 Q1280.85 851.133 1277.22 851.133 M1277.22 847.43 Q1283.03 847.43 1286.08 852.036 Q1289.16 856.62 1289.16 865.369 Q1289.16 874.096 1286.08 878.703 Q1283.03 883.286 1277.22 883.286 Q1271.41 883.286 1268.33 878.703 Q1265.27 874.096 1265.27 865.369 Q1265.27 856.62 1268.33 852.036 Q1271.41 847.43 1277.22 847.43 Z" fill="#000000" fill-rule="evenodd" fill-opacity="1" /><path clip-path="url(#clip210)" d="M 0 0 M1297.38 876.735 L1302.26 876.735 L1302.26 882.615 L1297.38 882.615 L1297.38 876.735 Z" fill="#000000" fill-rule="evenodd" fill-opacity="1" /><path clip-path="url(#clip210)" d="M 0 0 M1322.45 851.133 Q1318.84 851.133 1317.01 854.698 Q1315.2 858.24 1315.2 865.369 Q1315.2 872.476 1317.01 876.041 Q1318.84 879.582 1322.45 879.582 Q1326.08 879.582 1327.89 876.041 Q1329.72 872.476 1329.72 865.369 Q1329.72 858.24 1327.89 854.698 Q1326.08 851.133 1322.45 851.133 M1322.45 847.43 Q1328.26 847.43 1331.32 852.036 Q1334.39 856.62 1334.39 865.369 Q1334.39 874.096 1331.32 878.703 Q1328.26 883.286 1322.45 883.286 Q1316.64 883.286 1313.56 878.703 Q1310.51 874.096 1310.51 865.369 Q1310.51 856.62 1313.56 852.036 Q1316.64 847.43 1322.45 847.43 Z" fill="#000000" fill-rule="evenodd" fill-opacity="1" /><path clip-path="url(#clip215)" d="
M1424.43 865.335 L1424.43 1468.36 L1861.58 1468.36 L1861.58 865.335 L1424.43 865.335 L1424.43 865.335  Z
  " fill="#ffa500" fill-rule="evenodd" fill-opacity="1"/>
<polyline clip-path="url(#clip215)" style="stroke:#000000; stroke-width:4; stroke-opacity:1; fill:none" points="
  1424.43,865.335 1424.43,1468.36 1861.58,1468.36 1861.58,865.335 1424.43,865.335 
  "/>
<path clip-path="url(#clip215)" d="
M1861.58 1166.85 L1861.58 1468.36 L2298.72 1468.36 L2298.72 1166.85 L1861.58 1166.85 L1861.58 1166.85  Z
  " fill="#ffa500" fill-rule="evenodd" fill-opacity="1"/>
<polyline clip-path="url(#clip215)" style="stroke:#000000; stroke-width:4; stroke-opacity:1; fill:none" points="
  1861.58,1166.85 1861.58,1468.36 2298.72,1468.36 2298.72,1166.85 1861.58,1166.85 
  "/>
<path clip-path="url(#clip210)" d="
M2158.43 989.511 L2320.01 989.511 L2320.01 868.551 L2158.43 868.551  Z
  " fill="#ffffff" fill-rule="evenodd" fill-opacity="1"/>
<polyline clip-path="url(#clip210)" style="stroke:#000000; stroke-width:4; stroke-opacity:1; fill:none" points="
  2158.43,989.511 2320.01,989.511 2320.01,868.551 2158.43,868.551 2158.43,989.511 
  "/>
<path clip-path="url(#clip210)" d="
M2169.34 953.223 L2234.83 953.223 L2234.83 904.839 L2169.34 904.839 L2169.34 953.223  Z
  " fill="#ffa500" fill-rule="evenodd" fill-opacity="1"/>
<polyline clip-path="url(#clip210)" style="stroke:#000000; stroke-width:4; stroke-opacity:1; fill:none" points="
  2169.34,953.223 2234.83,953.223 2234.83,904.839 2169.34,904.839 2169.34,953.223 
  "/>
<path clip-path="url(#clip210)" d="M 0 0 M2259.59 948.718 Q2257.79 953.348 2256.07 954.76 Q2254.36 956.172 2251.49 956.172 L2248.09 956.172 L2248.09 952.607 L2250.59 952.607 Q2252.35 952.607 2253.32 951.774 Q2254.29 950.94 2255.47 947.839 L2256.24 945.894 L2245.75 920.385 L2250.26 920.385 L2258.37 940.663 L2266.47 920.385 L2270.98 920.385 L2259.59 948.718 Z" fill="#000000" fill-rule="evenodd" fill-opacity="1" /><path clip-path="url(#clip210)" d="M 0 0 M2278.27 942.376 L2285.91 942.376 L2285.91 916.01 L2277.6 917.677 L2277.6 913.418 L2285.87 911.751 L2290.54 911.751 L2290.54 942.376 L2298.18 942.376 L2298.18 946.311 L2278.27 946.311 L2278.27 942.376 Z" fill="#000000" fill-rule="evenodd" fill-opacity="1" /></svg>
