<?xml version="1.0" encoding="utf-8"?>
<svg xmlns="http://www.w3.org/2000/svg" xmlns:xlink="http://www.w3.org/1999/xlink" width="600" height="400" viewBox="0 0 2400 1600">
<defs>
  <clipPath id="clip410">
    <rect x="0" y="0" width="2400" height="1600"/>
  </clipPath>
</defs>
<path clip-path="url(#clip410)" d="
M0 1600 L2400 1600 L2400 0 L0 0  Z
  " fill="#ffffff" fill-rule="evenodd" fill-opacity="1"/>
<defs>
  <clipPath id="clip411">
    <rect x="480" y="0" width="1681" height="1600"/>
  </clipPath>
</defs>
<path clip-path="url(#clip410)" d="
M141.853 1486.45 L2352.76 1486.45 L2352.76 47.2441 L141.853 47.2441  Z
  " fill="#ffffff" fill-rule="evenodd" fill-opacity="1"/>
<defs>
  <clipPath id="clip412">
    <rect x="141" y="47" width="2212" height="1440"/>
  </clipPath>
</defs>
<polyline clip-path="url(#clip412)" style="stroke:#000000; stroke-width:2; stroke-opacity:0.1; fill:none" points="
  263.457,1486.45 263.457,47.2441 
  "/>
<polyline clip-path="url(#clip412)" style="stroke:#000000; stroke-width:2; stroke-opacity:0.1; fill:none" points="
  755.38,1486.45 755.38,47.2441 
  "/>
<polyline clip-path="url(#clip412)" style="stroke:#000000; stroke-width:2; stroke-opacity:0.1; fill:none" points="
  1247.3,1486.45 1247.3,47.2441 
  "/>
<polyline clip-path="url(#clip412)" style="stroke:#000000; stroke-width:2; stroke-opacity:0.1; fill:none" points="
  1739.23,1486.45 1739.23,47.2441 
  "/>
<polyline clip-path="url(#clip412)" style="stroke:#000000; stroke-width:2; stroke-opacity:0.1; fill:none" points="
  2231.15,1486.45 2231.15,47.2441 
  "/>
<polyline clip-path="url(#clip410)" style="stroke:#000000; stroke-width:4; stroke-opacity:1; fill:none" points="
  141.853,1486.45 2352.76,1486.45 
  "/>
<polyline clip-path="url(#clip410)" style="stroke:#000000; stroke-width:4; stroke-opacity:1; fill:none" points="
  263.457,1486.45 263.457,1469.18 
  "/>
<polyline clip-path="url(#clip410)" style="stroke:#000000; stroke-width:4; stroke-opacity:1; fill:none" points="
  755.38,1486.45 755.38,1469.18 
  "/>
<polyline clip-path="url(#clip410)" style="stroke:#000000; stroke-width:4; stroke-opacity:1; fill:none" points="
  1247.3,1486.45 1247.3,1469.18 
  "/>
<polyline clip-path="url(#clip410)" style="stroke:#000000; stroke-width:4; stroke-opacity:1; fill:none" points="
  1739.23,1486.45 1739.23,1469.18 
  "/>
<polyline clip-path="url(#clip410)" style="stroke:#000000; stroke-width:4; stroke-opacity:1; fill:none" points="
  2231.15,1486.45 2231.15,1469.18 
  "/>
<path clip-path="url(#clip410)" d="M 0 0 M263.457 1515.64 Q259.845 1515.64 258.017 1519.2 Q256.211 1522.75 256.211 1529.87 Q256.211 1536.98 258.017 1540.55 Q259.845 1544.09 263.457 1544.09 Q267.091 1544.09 268.896 1540.55 Q270.725 1536.98 270.725 1529.87 Q270.725 1522.75 268.896 1519.2 Q267.091 1515.64 263.457 1515.64 M263.457 1511.93 Q269.267 1511.93 272.322 1516.54 Q275.401 1521.12 275.401 1529.87 Q275.401 1538.6 272.322 1543.21 Q269.267 1547.79 263.457 1547.79 Q257.646 1547.79 254.568 1543.21 Q251.512 1538.6 251.512 1529.87 Q251.512 1521.12 254.568 1516.54 Q257.646 1511.93 263.457 1511.93 Z" fill="#000000" fill-rule="evenodd" fill-opacity="1" /><path clip-path="url(#clip410)" d="M 0 0 M750.033 1543.18 L766.353 1543.18 L766.353 1547.12 L744.408 1547.12 L744.408 1543.18 Q747.07 1540.43 751.654 1535.8 Q756.26 1531.15 757.441 1529.81 Q759.686 1527.28 760.566 1525.55 Q761.468 1523.79 761.468 1522.1 Q761.468 1519.34 759.524 1517.61 Q757.603 1515.87 754.501 1515.87 Q752.302 1515.87 749.848 1516.63 Q747.418 1517.4 744.64 1518.95 L744.64 1514.23 Q747.464 1513.09 749.918 1512.51 Q752.371 1511.93 754.408 1511.93 Q759.779 1511.93 762.973 1514.62 Q766.167 1517.31 766.167 1521.8 Q766.167 1523.93 765.357 1525.85 Q764.57 1527.74 762.464 1530.34 Q761.885 1531.01 758.783 1534.23 Q755.681 1537.42 750.033 1543.18 Z" fill="#000000" fill-rule="evenodd" fill-opacity="1" /><path clip-path="url(#clip410)" d="M 0 0 M1250.31 1516.63 L1238.51 1535.08 L1250.31 1535.08 L1250.31 1516.63 M1249.09 1512.56 L1254.97 1512.56 L1254.97 1535.08 L1259.9 1535.08 L1259.9 1538.97 L1254.97 1538.97 L1254.97 1547.12 L1250.31 1547.12 L1250.31 1538.97 L1234.71 1538.97 L1234.71 1534.46 L1249.09 1512.56 Z" fill="#000000" fill-rule="evenodd" fill-opacity="1" /><path clip-path="url(#clip410)" d="M 0 0 M1739.63 1527.98 Q1736.49 1527.98 1734.63 1530.13 Q1732.8 1532.28 1732.8 1536.03 Q1732.8 1539.76 1734.63 1541.93 Q1736.49 1544.09 1739.63 1544.09 Q1742.78 1544.09 1744.61 1541.93 Q1746.46 1539.76 1746.46 1536.03 Q1746.46 1532.28 1744.61 1530.13 Q1742.78 1527.98 1739.63 1527.98 M1748.92 1513.32 L1748.92 1517.58 Q1747.16 1516.75 1745.35 1516.31 Q1743.57 1515.87 1741.81 1515.87 Q1737.18 1515.87 1734.73 1519 Q1732.3 1522.12 1731.95 1528.44 Q1733.31 1526.43 1735.37 1525.36 Q1737.43 1524.27 1739.91 1524.27 Q1745.12 1524.27 1748.13 1527.44 Q1751.16 1530.59 1751.16 1536.03 Q1751.16 1541.36 1748.01 1544.57 Q1744.86 1547.79 1739.63 1547.79 Q1733.64 1547.79 1730.47 1543.21 Q1727.3 1538.6 1727.3 1529.87 Q1727.3 1521.68 1731.18 1516.82 Q1735.07 1511.93 1741.62 1511.93 Q1743.38 1511.93 1745.17 1512.28 Q1746.97 1512.63 1748.92 1513.32 Z" fill="#000000" fill-rule="evenodd" fill-opacity="1" /><path clip-path="url(#clip410)" d="M 0 0 M2231.15 1530.71 Q2227.82 1530.71 2225.9 1532.49 Q2224 1534.27 2224 1537.4 Q2224 1540.52 2225.9 1542.31 Q2227.82 1544.09 2231.15 1544.09 Q2234.49 1544.09 2236.41 1542.31 Q2238.33 1540.5 2238.33 1537.4 Q2238.33 1534.27 2236.41 1532.49 Q2234.51 1530.71 2231.15 1530.71 M2226.48 1528.72 Q2223.47 1527.98 2221.78 1525.92 Q2220.11 1523.86 2220.11 1520.89 Q2220.11 1516.75 2223.05 1514.34 Q2226.01 1511.93 2231.15 1511.93 Q2236.31 1511.93 2239.25 1514.34 Q2242.19 1516.75 2242.19 1520.89 Q2242.19 1523.86 2240.5 1525.92 Q2238.84 1527.98 2235.85 1528.72 Q2239.23 1529.5 2241.11 1531.8 Q2243 1534.09 2243 1537.4 Q2243 1542.42 2239.93 1545.11 Q2236.87 1547.79 2231.15 1547.79 Q2225.43 1547.79 2222.36 1545.11 Q2219.3 1542.42 2219.3 1537.4 Q2219.3 1534.09 2221.2 1531.8 Q2223.1 1529.5 2226.48 1528.72 M2224.76 1521.33 Q2224.76 1524.02 2226.43 1525.52 Q2228.12 1527.03 2231.15 1527.03 Q2234.16 1527.03 2235.85 1525.52 Q2237.56 1524.02 2237.56 1521.33 Q2237.56 1518.65 2235.85 1517.14 Q2234.16 1515.64 2231.15 1515.64 Q2228.12 1515.64 2226.43 1517.14 Q2224.76 1518.65 2224.76 1521.33 Z" fill="#000000" fill-rule="evenodd" fill-opacity="1" /><polyline clip-path="url(#clip412)" style="stroke:#000000; stroke-width:2; stroke-opacity:0.1; fill:none" points="
  141.853,1445.72 2352.76,1445.72 
  "/>
<polyline clip-path="url(#clip412)" style="stroke:#000000; stroke-width:2; stroke-opacity:0.1; fill:none" points="
  141.853,1097.58 2352.76,1097.58 
  "/>
<polyline clip-path="url(#clip412)" style="stroke:#000000; stroke-width:2; stroke-opacity:0.1; fill:none" points="
  141.853,749.439 2352.76,749.439 
  "/>
<polyline clip-path="url(#clip412)" style="stroke:#000000; stroke-width:2; stroke-opacity:0.1; fill:none" points="
  141.853,401.301 2352.76,401.301 
  "/>
<polyline clip-path="url(#clip412)" style="stroke:#000000; stroke-width:2; stroke-opacity:0.1; fill:none" points="
  141.853,53.1624 2352.76,53.1624 
  "/>
<polyline clip-path="url(#clip410)" style="stroke:#000000; stroke-width:4; stroke-opacity:1; fill:none" points="
  141.853,1486.45 141.853,47.2441 
  "/>
<polyline clip-path="url(#clip410)" style="stroke:#000000; stroke-width:4; stroke-opacity:1; fill:none" points="
  141.853,1445.72 168.384,1445.72 
  "/>
<polyline clip-path="url(#clip410)" style="stroke:#000000; stroke-width:4; stroke-opacity:1; fill:none" points="
  141.853,1097.58 168.384,1097.58 
  "/>
<polyline clip-path="url(#clip410)" style="stroke:#000000; stroke-width:4; stroke-opacity:1; fill:none" points="
  141.853,749.439 168.384,749.439 
  "/>
<polyline clip-path="url(#clip410)" style="stroke:#000000; stroke-width:4; stroke-opacity:1; fill:none" points="
  141.853,401.301 168.384,401.301 
  "/>
<polyline clip-path="url(#clip410)" style="stroke:#000000; stroke-width:4; stroke-opacity:1; fill:none" points="
  141.853,53.1624 168.384,53.1624 
  "/>
<path clip-path="url(#clip410)" d="M 0 0 M93.9086 1431.51 Q90.2975 1431.51 88.4688 1435.08 Q86.6632 1438.62 86.6632 1445.75 Q86.6632 1452.86 88.4688 1456.42 Q90.2975 1459.96 93.9086 1459.96 Q97.5428 1459.96 99.3483 1456.42 Q101.177 1452.86 101.177 1445.75 Q101.177 1438.62 99.3483 1435.08 Q97.5428 1431.51 93.9086 1431.51 M93.9086 1427.81 Q99.7187 1427.81 102.774 1432.42 Q105.853 1437 105.853 1445.75 Q105.853 1454.48 102.774 1459.08 Q99.7187 1463.67 93.9086 1463.67 Q88.0984 1463.67 85.0197 1459.08 Q81.9642 1454.48 81.9642 1445.75 Q81.9642 1437 85.0197 1432.42 Q88.0984 1427.81 93.9086 1427.81 Z" fill="#000000" fill-rule="evenodd" fill-opacity="1" /><path clip-path="url(#clip410)" d="M 0 0 M57.7745 1110.92 L74.0939 1110.92 L74.0939 1114.86 L52.1495 1114.86 L52.1495 1110.92 Q54.8115 1108.17 59.3949 1103.54 Q64.0013 1098.89 65.1819 1097.54 Q67.4272 1095.02 68.3068 1093.28 Q69.2096 1091.52 69.2096 1089.83 Q69.2096 1087.08 67.2652 1085.34 Q65.3439 1083.61 62.2421 1083.61 Q60.043 1083.61 57.5893 1084.37 Q55.1588 1085.14 52.381 1086.69 L52.381 1081.96 Q55.2051 1080.83 57.6588 1080.25 Q60.1124 1079.67 62.1495 1079.67 Q67.5198 1079.67 70.7142 1082.36 Q73.9087 1085.04 73.9087 1089.53 Q73.9087 1091.66 73.0985 1093.58 Q72.3115 1095.48 70.205 1098.08 Q69.6263 1098.75 66.5245 1101.96 Q63.4226 1105.16 57.7745 1110.92 Z" fill="#000000" fill-rule="evenodd" fill-opacity="1" /><path clip-path="url(#clip410)" d="M 0 0 M93.9086 1083.38 Q90.2975 1083.38 88.4688 1086.94 Q86.6632 1090.48 86.6632 1097.61 Q86.6632 1104.72 88.4688 1108.28 Q90.2975 1111.82 93.9086 1111.82 Q97.5428 1111.82 99.3483 1108.28 Q101.177 1104.72 101.177 1097.61 Q101.177 1090.48 99.3483 1086.94 Q97.5428 1083.38 93.9086 1083.38 M93.9086 1079.67 Q99.7187 1079.67 102.774 1084.28 Q105.853 1088.86 105.853 1097.61 Q105.853 1106.34 102.774 1110.95 Q99.7187 1115.53 93.9086 1115.53 Q88.0984 1115.53 85.0197 1110.95 Q81.9642 1106.34 81.9642 1097.61 Q81.9642 1088.86 85.0197 1084.28 Q88.0984 1079.67 93.9086 1079.67 Z" fill="#000000" fill-rule="evenodd" fill-opacity="1" /><path clip-path="url(#clip410)" d="M 0 0 M66.5939 736.233 L54.7884 754.682 L66.5939 754.682 L66.5939 736.233 M65.367 732.159 L71.2466 732.159 L71.2466 754.682 L76.1772 754.682 L76.1772 758.571 L71.2466 758.571 L71.2466 766.719 L66.5939 766.719 L66.5939 758.571 L50.9921 758.571 L50.9921 754.057 L65.367 732.159 Z" fill="#000000" fill-rule="evenodd" fill-opacity="1" /><path clip-path="url(#clip410)" d="M 0 0 M93.9086 735.238 Q90.2975 735.238 88.4688 738.803 Q86.6632 742.344 86.6632 749.474 Q86.6632 756.58 88.4688 760.145 Q90.2975 763.687 93.9086 763.687 Q97.5428 763.687 99.3483 760.145 Q101.177 756.58 101.177 749.474 Q101.177 742.344 99.3483 738.803 Q97.5428 735.238 93.9086 735.238 M93.9086 731.534 Q99.7187 731.534 102.774 736.141 Q105.853 740.724 105.853 749.474 Q105.853 758.201 102.774 762.807 Q99.7187 767.39 93.9086 767.39 Q88.0984 767.39 85.0197 762.807 Q81.9642 758.201 81.9642 749.474 Q81.9642 740.724 85.0197 736.141 Q88.0984 731.534 93.9086 731.534 Z" fill="#000000" fill-rule="evenodd" fill-opacity="1" /><path clip-path="url(#clip410)" d="M 0 0 M64.3254 399.437 Q61.1773 399.437 59.3254 401.59 Q57.4967 403.743 57.4967 407.493 Q57.4967 411.22 59.3254 413.396 Q61.1773 415.548 64.3254 415.548 Q67.4735 415.548 69.3022 413.396 Q71.1541 411.22 71.1541 407.493 Q71.1541 403.743 69.3022 401.59 Q67.4735 399.437 64.3254 399.437 M73.6077 384.785 L73.6077 389.044 Q71.8485 388.211 70.0429 387.771 Q68.2606 387.331 66.5013 387.331 Q61.8717 387.331 59.418 390.456 Q56.9875 393.581 56.6402 399.9 Q58.006 397.886 60.0662 396.822 Q62.1263 395.734 64.6032 395.734 Q69.8115 395.734 72.8207 398.905 Q75.8531 402.053 75.8531 407.493 Q75.8531 412.817 72.705 416.034 Q69.5568 419.252 64.3254 419.252 Q58.33 419.252 55.1588 414.669 Q51.9875 410.062 51.9875 401.335 Q51.9875 393.141 55.8764 388.28 Q59.7652 383.396 66.3161 383.396 Q68.0754 383.396 69.8578 383.743 Q71.6633 384.09 73.6077 384.785 Z" fill="#000000" fill-rule="evenodd" fill-opacity="1" /><path clip-path="url(#clip410)" d="M 0 0 M93.9086 387.099 Q90.2975 387.099 88.4688 390.664 Q86.6632 394.206 86.6632 401.335 Q86.6632 408.442 88.4688 412.007 Q90.2975 415.548 93.9086 415.548 Q97.5428 415.548 99.3483 412.007 Q101.177 408.442 101.177 401.335 Q101.177 394.206 99.3483 390.664 Q97.5428 387.099 93.9086 387.099 M93.9086 383.396 Q99.7187 383.396 102.774 388.002 Q105.853 392.586 105.853 401.335 Q105.853 410.062 102.774 414.669 Q99.7187 419.252 93.9086 419.252 Q88.0984 419.252 85.0197 414.669 Q81.9642 410.062 81.9642 401.335 Q81.9642 392.586 85.0197 388.002 Q88.0984 383.396 93.9086 383.396 Z" fill="#000000" fill-rule="evenodd" fill-opacity="1" /><path clip-path="url(#clip410)" d="M 0 0 M63.7467 54.0305 Q60.4134 54.0305 58.4921 55.8129 Q56.5939 57.5953 56.5939 60.7203 Q56.5939 63.8453 58.4921 65.6277 Q60.4134 67.4101 63.7467 67.4101 Q67.08 67.4101 69.0013 65.6277 Q70.9226 63.8221 70.9226 60.7203 Q70.9226 57.5953 69.0013 55.8129 Q67.1032 54.0305 63.7467 54.0305 M59.0708 52.0398 Q56.0615 51.299 54.3717 49.2389 Q52.7051 47.1787 52.7051 44.2157 Q52.7051 40.0722 55.6449 37.6648 Q58.6078 35.2574 63.7467 35.2574 Q68.9087 35.2574 71.8485 37.6648 Q74.7883 40.0722 74.7883 44.2157 Q74.7883 47.1787 73.0985 49.2389 Q71.4318 51.299 68.4457 52.0398 Q71.8253 52.8268 73.7003 55.1185 Q75.5985 57.4101 75.5985 60.7203 Q75.5985 65.7434 72.5198 68.4286 Q69.4642 71.1137 63.7467 71.1137 Q58.0291 71.1137 54.9504 68.4286 Q51.8949 65.7434 51.8949 60.7203 Q51.8949 57.4101 53.793 55.1185 Q55.6912 52.8268 59.0708 52.0398 M57.3578 44.6555 Q57.3578 47.3407 59.0245 48.8453 Q60.7143 50.35 63.7467 50.35 Q66.7559 50.35 68.4457 48.8453 Q70.1587 47.3407 70.1587 44.6555 Q70.1587 41.9704 68.4457 40.4658 Q66.7559 38.9611 63.7467 38.9611 Q60.7143 38.9611 59.0245 40.4658 Q57.3578 41.9704 57.3578 44.6555 Z" fill="#000000" fill-rule="evenodd" fill-opacity="1" /><path clip-path="url(#clip410)" d="M 0 0 M93.9086 38.9611 Q90.2975 38.9611 88.4688 42.5259 Q86.6632 46.0676 86.6632 53.1972 Q86.6632 60.3036 88.4688 63.8684 Q90.2975 67.4101 93.9086 67.4101 Q97.5428 67.4101 99.3483 63.8684 Q101.177 60.3036 101.177 53.1972 Q101.177 46.0676 99.3483 42.5259 Q97.5428 38.9611 93.9086 38.9611 M93.9086 35.2574 Q99.7187 35.2574 102.774 39.8639 Q105.853 44.4472 105.853 53.1972 Q105.853 61.924 102.774 66.5304 Q99.7187 71.1137 93.9086 71.1137 Q88.0984 71.1137 85.0197 66.5304 Q81.9642 61.924 81.9642 53.1972 Q81.9642 44.4472 85.0197 39.8639 Q88.0984 35.2574 93.9086 35.2574 Z" fill="#000000" fill-rule="evenodd" fill-opacity="1" /><path clip-path="url(#clip412)" d="
M263.457 575.37 L263.457 1445.72 L755.38 1445.72 L755.38 575.37 L263.457 575.37 L263.457 575.37  Z
  " fill="#009af9" fill-rule="evenodd" fill-opacity="1"/>
<polyline clip-path="url(#clip412)" style="stroke:#000000; stroke-width:4; stroke-opacity:1; fill:none" points="
  263.457,575.37 263.457,1445.72 755.38,1445.72 755.38,575.37 263.457,575.37 
  "/>
<path clip-path="url(#clip412)" d="
M755.38 1254.24 L755.38 1445.72 L1247.3 1445.72 L1247.3 1254.24 L755.38 1254.24 L755.38 1254.24  Z
  " fill="#009af9" fill-rule="evenodd" fill-opacity="1"/>
<polyline clip-path="url(#clip412)" style="stroke:#000000; stroke-width:4; stroke-opacity:1; fill:none" points="
  755.38,1254.24 755.38,1445.72 1247.3,1445.72 1247.3,1254.24 755.38,1254.24 
  "/>
<path clip-path="url(#clip412)" d="
M1247.3 87.9763 L1247.3 1445.72 L1739.23 1445.72 L1739.23 87.9763 L1247.3 87.9763 L1247.3 87.9763  Z
  " fill="#009af9" fill-rule="evenodd" fill-opacity="1"/>
<polyline clip-path="url(#clip412)" style="stroke:#000000; stroke-width:4; stroke-opacity:1; fill:none" points="
  1247.3,87.9763 1247.3,1445.72 1739.23,1445.72 1739.23,87.9763 1247.3,87.9763 
  "/>
<path clip-path="url(#clip412)" d="
M1739.23 1254.24 L1739.23 1445.72 L2231.15 1445.72 L2231.15 1254.24 L1739.23 1254.24 L1739.23 1254.24  Z
  " fill="#009af9" fill-rule="evenodd" fill-opacity="1"/>
<polyline clip-path="url(#clip412)" style="stroke:#000000; stroke-width:4; stroke-opacity:1; fill:none" points="
  1739.23,1254.24 1739.23,1445.72 2231.15,1445.72 2231.15,1254.24 1739.23,1254.24 
  "/>
<path clip-path="url(#clip410)" d="
M1980.97 216.178 L2279.06 216.178 L2279.06 95.2176 L1980.97 95.2176  Z
  " fill="#ffffff" fill-rule="evenodd" fill-opacity="1"/>
<polyline clip-path="url(#clip410)" style="stroke:#000000; stroke-width:4; stroke-opacity:1; fill:none" points="
  1980.97,216.178 2279.06,216.178 2279.06,95.2176 1980.97,95.2176 1980.97,216.178 
  "/>
<path clip-path="url(#clip410)" d="
M2005.54 179.89 L2152.93 179.89 L2152.93 131.506 L2005.54 131.506 L2005.54 179.89  Z
  " fill="#009af9" fill-rule="evenodd" fill-opacity="1"/>
<polyline clip-path="url(#clip410)" style="stroke:#000000; stroke-width:4; stroke-opacity:1; fill:none" points="
  2005.54,179.89 2152.93,179.89 2152.93,131.506 2005.54,131.506 2005.54,179.89 
  "/>
<path clip-path="url(#clip410)" d="M 0 0 M2191.34 175.385 Q2189.53 180.015 2187.82 181.427 Q2186.11 182.839 2183.24 182.839 L2179.84 182.839 L2179.84 179.274 L2182.34 179.274 Q2184.09 179.274 2185.07 178.44 Q2186.04 177.607 2187.22 174.505 L2187.98 172.561 L2177.5 147.052 L2182.01 147.052 L2190.11 167.329 L2198.22 147.052 L2202.73 147.052 L2191.34 175.385 Z" fill="#000000" fill-rule="evenodd" fill-opacity="1" /><path clip-path="url(#clip410)" d="M 0 0 M2210.02 169.042 L2217.66 169.042 L2217.66 142.677 L2209.35 144.343 L2209.35 140.084 L2217.61 138.418 L2222.29 138.418 L2222.29 169.042 L2229.93 169.042 L2229.93 172.978 L2210.02 172.978 L2210.02 169.042 Z" fill="#000000" fill-rule="evenodd" fill-opacity="1" /></svg>
