<?xml version="1.0" encoding="utf-8"?>
<svg xmlns="http://www.w3.org/2000/svg" xmlns:xlink="http://www.w3.org/1999/xlink" width="600" height="400" viewBox="0 0 2400 1600">
<defs>
  <clipPath id="clip370">
    <rect x="0" y="0" width="2400" height="1600"/>
  </clipPath>
</defs>
<path clip-path="url(#clip370)" d="
M0 1600 L2400 1600 L2400 0 L0 0  Z
  " fill="#ffffff" fill-rule="evenodd" fill-opacity="1"/>
<defs>
  <clipPath id="clip371">
    <rect x="480" y="0" width="1681" height="1600"/>
  </clipPath>
</defs>
<path clip-path="url(#clip370)" d="
M155.765 1486.45 L2352.76 1486.45 L2352.76 47.2441 L155.765 47.2441  Z
  " fill="#ffffff" fill-rule="evenodd" fill-opacity="1"/>
<defs>
  <clipPath id="clip372">
    <rect x="155" y="47" width="2198" height="1440"/>
  </clipPath>
</defs>
<polyline clip-path="url(#clip372)" style="stroke:#000000; stroke-width:2; stroke-opacity:0.1; fill:none" points="
  217.944,1486.45 217.944,47.2441 
  "/>
<polyline clip-path="url(#clip372)" style="stroke:#000000; stroke-width:2; stroke-opacity:0.1; fill:none" points="
  569.238,1486.45 569.238,47.2441 
  "/>
<polyline clip-path="url(#clip372)" style="stroke:#000000; stroke-width:2; stroke-opacity:0.1; fill:none" points="
  920.531,1486.45 920.531,47.2441 
  "/>
<polyline clip-path="url(#clip372)" style="stroke:#000000; stroke-width:2; stroke-opacity:0.1; fill:none" points="
  1271.83,1486.45 1271.83,47.2441 
  "/>
<polyline clip-path="url(#clip372)" style="stroke:#000000; stroke-width:2; stroke-opacity:0.1; fill:none" points="
  1623.12,1486.45 1623.12,47.2441 
  "/>
<polyline clip-path="url(#clip372)" style="stroke:#000000; stroke-width:2; stroke-opacity:0.1; fill:none" points="
  1974.41,1486.45 1974.41,47.2441 
  "/>
<polyline clip-path="url(#clip372)" style="stroke:#000000; stroke-width:2; stroke-opacity:0.1; fill:none" points="
  2325.71,1486.45 2325.71,47.2441 
  "/>
<polyline clip-path="url(#clip370)" style="stroke:#000000; stroke-width:4; stroke-opacity:1; fill:none" points="
  155.765,1486.45 2352.76,1486.45 
  "/>
<polyline clip-path="url(#clip370)" style="stroke:#000000; stroke-width:4; stroke-opacity:1; fill:none" points="
  217.944,1486.45 217.944,1469.18 
  "/>
<polyline clip-path="url(#clip370)" style="stroke:#000000; stroke-width:4; stroke-opacity:1; fill:none" points="
  569.238,1486.45 569.238,1469.18 
  "/>
<polyline clip-path="url(#clip370)" style="stroke:#000000; stroke-width:4; stroke-opacity:1; fill:none" points="
  920.531,1486.45 920.531,1469.18 
  "/>
<polyline clip-path="url(#clip370)" style="stroke:#000000; stroke-width:4; stroke-opacity:1; fill:none" points="
  1271.83,1486.45 1271.83,1469.18 
  "/>
<polyline clip-path="url(#clip370)" style="stroke:#000000; stroke-width:4; stroke-opacity:1; fill:none" points="
  1623.12,1486.45 1623.12,1469.18 
  "/>
<polyline clip-path="url(#clip370)" style="stroke:#000000; stroke-width:4; stroke-opacity:1; fill:none" points="
  1974.41,1486.45 1974.41,1469.18 
  "/>
<polyline clip-path="url(#clip370)" style="stroke:#000000; stroke-width:4; stroke-opacity:1; fill:none" points="
  2325.71,1486.45 2325.71,1469.18 
  "/>
<path clip-path="url(#clip370)" d="M 0 0 M208.326 1543.18 L215.965 1543.18 L215.965 1516.82 L207.655 1518.49 L207.655 1514.23 L215.918 1512.56 L220.594 1512.56 L220.594 1543.18 L228.233 1543.18 L228.233 1547.12 L208.326 1547.12 L208.326 1543.18 Z" fill="#000000" fill-rule="evenodd" fill-opacity="1" /><path clip-path="url(#clip370)" d="M 0 0 M563.89 1543.18 L580.21 1543.18 L580.21 1547.12 L558.265 1547.12 L558.265 1543.18 Q560.927 1540.43 565.511 1535.8 Q570.117 1531.15 571.298 1529.81 Q573.543 1527.28 574.423 1525.55 Q575.326 1523.79 575.326 1522.1 Q575.326 1519.34 573.381 1517.61 Q571.46 1515.87 568.358 1515.87 Q566.159 1515.87 563.705 1516.63 Q561.275 1517.4 558.497 1518.95 L558.497 1514.23 Q561.321 1513.09 563.775 1512.51 Q566.228 1511.93 568.265 1511.93 Q573.636 1511.93 576.83 1514.62 Q580.025 1517.31 580.025 1521.8 Q580.025 1523.93 579.214 1525.85 Q578.427 1527.74 576.321 1530.34 Q575.742 1531.01 572.64 1534.23 Q569.539 1537.42 563.89 1543.18 Z" fill="#000000" fill-rule="evenodd" fill-opacity="1" /><path clip-path="url(#clip370)" d="M 0 0 M924.779 1528.49 Q928.135 1529.2 930.01 1531.47 Q931.909 1533.74 931.909 1537.07 Q931.909 1542.19 928.39 1544.99 Q924.872 1547.79 918.39 1547.79 Q916.214 1547.79 913.899 1547.35 Q911.608 1546.93 909.154 1546.08 L909.154 1541.56 Q911.099 1542.7 913.413 1543.28 Q915.728 1543.86 918.251 1543.86 Q922.649 1543.86 924.941 1542.12 Q927.256 1540.38 927.256 1537.07 Q927.256 1534.02 925.103 1532.31 Q922.973 1530.57 919.154 1530.57 L915.126 1530.57 L915.126 1526.73 L919.339 1526.73 Q922.788 1526.73 924.617 1525.36 Q926.446 1523.97 926.446 1521.38 Q926.446 1518.72 924.548 1517.31 Q922.673 1515.87 919.154 1515.87 Q917.233 1515.87 915.034 1516.29 Q912.835 1516.7 910.196 1517.58 L910.196 1513.42 Q912.858 1512.68 915.173 1512.31 Q917.511 1511.93 919.571 1511.93 Q924.895 1511.93 927.997 1514.37 Q931.098 1516.77 931.098 1520.89 Q931.098 1523.76 929.455 1525.75 Q927.811 1527.72 924.779 1528.49 Z" fill="#000000" fill-rule="evenodd" fill-opacity="1" /><path clip-path="url(#clip370)" d="M 0 0 M1274.83 1516.63 L1263.03 1535.08 L1274.83 1535.08 L1274.83 1516.63 M1273.61 1512.56 L1279.49 1512.56 L1279.49 1535.08 L1284.42 1535.08 L1284.42 1538.97 L1279.49 1538.97 L1279.49 1547.12 L1274.83 1547.12 L1274.83 1538.97 L1259.23 1538.97 L1259.23 1534.46 L1273.61 1512.56 Z" fill="#000000" fill-rule="evenodd" fill-opacity="1" /><path clip-path="url(#clip370)" d="M 0 0 M1613.4 1512.56 L1631.75 1512.56 L1631.75 1516.5 L1617.68 1516.5 L1617.68 1524.97 Q1618.7 1524.62 1619.72 1524.46 Q1620.73 1524.27 1621.75 1524.27 Q1627.54 1524.27 1630.92 1527.44 Q1634.3 1530.62 1634.3 1536.03 Q1634.3 1541.61 1630.83 1544.71 Q1627.35 1547.79 1621.04 1547.79 Q1618.86 1547.79 1616.59 1547.42 Q1614.35 1547.05 1611.94 1546.31 L1611.94 1541.61 Q1614.02 1542.74 1616.24 1543.3 Q1618.47 1543.86 1620.94 1543.86 Q1624.95 1543.86 1627.29 1541.75 Q1629.62 1539.64 1629.62 1536.03 Q1629.62 1532.42 1627.29 1530.31 Q1624.95 1528.21 1620.94 1528.21 Q1619.07 1528.21 1617.19 1528.62 Q1615.34 1529.04 1613.4 1529.92 L1613.4 1512.56 Z" fill="#000000" fill-rule="evenodd" fill-opacity="1" /><path clip-path="url(#clip370)" d="M 0 0 M1974.82 1527.98 Q1971.67 1527.98 1969.82 1530.13 Q1967.99 1532.28 1967.99 1536.03 Q1967.99 1539.76 1969.82 1541.93 Q1971.67 1544.09 1974.82 1544.09 Q1977.97 1544.09 1979.79 1541.93 Q1981.65 1539.76 1981.65 1536.03 Q1981.65 1532.28 1979.79 1530.13 Q1977.97 1527.98 1974.82 1527.98 M1984.1 1513.32 L1984.1 1517.58 Q1982.34 1516.75 1980.54 1516.31 Q1978.75 1515.87 1976.99 1515.87 Q1972.36 1515.87 1969.91 1519 Q1967.48 1522.12 1967.13 1528.44 Q1968.5 1526.43 1970.56 1525.36 Q1972.62 1524.27 1975.1 1524.27 Q1980.3 1524.27 1983.31 1527.44 Q1986.35 1530.59 1986.35 1536.03 Q1986.35 1541.36 1983.2 1544.57 Q1980.05 1547.79 1974.82 1547.79 Q1968.82 1547.79 1965.65 1543.21 Q1962.48 1538.6 1962.48 1529.87 Q1962.48 1521.68 1966.37 1516.82 Q1970.26 1511.93 1976.81 1511.93 Q1978.57 1511.93 1980.35 1512.28 Q1982.16 1512.63 1984.1 1513.32 Z" fill="#000000" fill-rule="evenodd" fill-opacity="1" /><path clip-path="url(#clip370)" d="M 0 0 M2314.6 1512.56 L2336.82 1512.56 L2336.82 1514.55 L2324.27 1547.12 L2319.39 1547.12 L2331.19 1516.5 L2314.6 1516.5 L2314.6 1512.56 Z" fill="#000000" fill-rule="evenodd" fill-opacity="1" /><polyline clip-path="url(#clip372)" style="stroke:#000000; stroke-width:2; stroke-opacity:0.1; fill:none" points="
  155.765,1219.43 2352.76,1219.43 
  "/>
<polyline clip-path="url(#clip372)" style="stroke:#000000; stroke-width:2; stroke-opacity:0.1; fill:none" points="
  155.765,936.563 2352.76,936.563 
  "/>
<polyline clip-path="url(#clip372)" style="stroke:#000000; stroke-width:2; stroke-opacity:0.1; fill:none" points="
  155.765,653.701 2352.76,653.701 
  "/>
<polyline clip-path="url(#clip372)" style="stroke:#000000; stroke-width:2; stroke-opacity:0.1; fill:none" points="
  155.765,370.839 2352.76,370.839 
  "/>
<polyline clip-path="url(#clip372)" style="stroke:#000000; stroke-width:2; stroke-opacity:0.1; fill:none" points="
  155.765,87.9763 2352.76,87.9763 
  "/>
<polyline clip-path="url(#clip370)" style="stroke:#000000; stroke-width:4; stroke-opacity:1; fill:none" points="
  155.765,1486.45 155.765,47.2441 
  "/>
<polyline clip-path="url(#clip370)" style="stroke:#000000; stroke-width:4; stroke-opacity:1; fill:none" points="
  155.765,1219.43 182.129,1219.43 
  "/>
<polyline clip-path="url(#clip370)" style="stroke:#000000; stroke-width:4; stroke-opacity:1; fill:none" points="
  155.765,936.563 182.129,936.563 
  "/>
<polyline clip-path="url(#clip370)" style="stroke:#000000; stroke-width:4; stroke-opacity:1; fill:none" points="
  155.765,653.701 182.129,653.701 
  "/>
<polyline clip-path="url(#clip370)" style="stroke:#000000; stroke-width:4; stroke-opacity:1; fill:none" points="
  155.765,370.839 182.129,370.839 
  "/>
<polyline clip-path="url(#clip370)" style="stroke:#000000; stroke-width:4; stroke-opacity:1; fill:none" points="
  155.765,87.9763 182.129,87.9763 
  "/>
<path clip-path="url(#clip370)" d="M 0 0 M63.5847 1205.22 Q59.9736 1205.22 58.1449 1208.79 Q56.3393 1212.33 56.3393 1219.46 Q56.3393 1226.57 58.1449 1230.13 Q59.9736 1233.67 63.5847 1233.67 Q67.2189 1233.67 69.0244 1230.13 Q70.8531 1226.57 70.8531 1219.46 Q70.8531 1212.33 69.0244 1208.79 Q67.2189 1205.22 63.5847 1205.22 M63.5847 1201.52 Q69.3948 1201.52 72.4503 1206.13 Q75.529 1210.71 75.529 1219.46 Q75.529 1228.19 72.4503 1232.79 Q69.3948 1237.38 63.5847 1237.38 Q57.7745 1237.38 54.6958 1232.79 Q51.6403 1228.19 51.6403 1219.46 Q51.6403 1210.71 54.6958 1206.13 Q57.7745 1201.52 63.5847 1201.52 Z" fill="#000000" fill-rule="evenodd" fill-opacity="1" /><path clip-path="url(#clip370)" d="M 0 0 M83.7466 1230.83 L88.6308 1230.83 L88.6308 1236.71 L83.7466 1236.71 L83.7466 1230.83 Z" fill="#000000" fill-rule="evenodd" fill-opacity="1" /><path clip-path="url(#clip370)" d="M 0 0 M98.8622 1202.15 L117.219 1202.15 L117.219 1206.08 L103.145 1206.08 L103.145 1214.55 Q104.163 1214.21 105.182 1214.04 Q106.2 1213.86 107.219 1213.86 Q113.006 1213.86 116.385 1217.03 Q119.765 1220.2 119.765 1225.62 Q119.765 1231.2 116.293 1234.3 Q112.82 1237.38 106.501 1237.38 Q104.325 1237.38 102.057 1237.01 Q99.8113 1236.64 97.4039 1235.9 L97.4039 1231.2 Q99.4872 1232.33 101.709 1232.89 Q103.932 1233.44 106.408 1233.44 Q110.413 1233.44 112.751 1231.34 Q115.089 1229.23 115.089 1225.62 Q115.089 1222.01 112.751 1219.9 Q110.413 1217.79 106.408 1217.79 Q104.534 1217.79 102.659 1218.21 Q100.807 1218.63 98.8622 1219.51 L98.8622 1202.15 Z" fill="#000000" fill-rule="evenodd" fill-opacity="1" /><path clip-path="url(#clip370)" d="M 0 0 M53.3995 949.908 L61.0384 949.908 L61.0384 923.543 L52.7282 925.209 L52.7282 920.95 L60.9921 919.283 L65.668 919.283 L65.668 949.908 L73.3068 949.908 L73.3068 953.843 L53.3995 953.843 L53.3995 949.908 Z" fill="#000000" fill-rule="evenodd" fill-opacity="1" /><path clip-path="url(#clip370)" d="M 0 0 M82.7512 947.964 L87.6354 947.964 L87.6354 953.843 L82.7512 953.843 L82.7512 947.964 Z" fill="#000000" fill-rule="evenodd" fill-opacity="1" /><path clip-path="url(#clip370)" d="M 0 0 M107.821 922.362 Q104.209 922.362 102.381 925.927 Q100.575 929.469 100.575 936.598 Q100.575 943.705 102.381 947.269 Q104.209 950.811 107.821 950.811 Q111.455 950.811 113.26 947.269 Q115.089 943.705 115.089 936.598 Q115.089 929.469 113.26 925.927 Q111.455 922.362 107.821 922.362 M107.821 918.658 Q113.631 918.658 116.686 923.265 Q119.765 927.848 119.765 936.598 Q119.765 945.325 116.686 949.931 Q113.631 954.515 107.821 954.515 Q102.01 954.515 98.9317 949.931 Q95.8761 945.325 95.8761 936.598 Q95.8761 927.848 98.9317 923.265 Q102.01 918.658 107.821 918.658 Z" fill="#000000" fill-rule="evenodd" fill-opacity="1" /><path clip-path="url(#clip370)" d="M 0 0 M54.3949 667.046 L62.0337 667.046 L62.0337 640.68 L53.7236 642.347 L53.7236 638.088 L61.9874 636.421 L66.6633 636.421 L66.6633 667.046 L74.3022 667.046 L74.3022 670.981 L54.3949 670.981 L54.3949 667.046 Z" fill="#000000" fill-rule="evenodd" fill-opacity="1" /><path clip-path="url(#clip370)" d="M 0 0 M83.7466 665.101 L88.6308 665.101 L88.6308 670.981 L83.7466 670.981 L83.7466 665.101 Z" fill="#000000" fill-rule="evenodd" fill-opacity="1" /><path clip-path="url(#clip370)" d="M 0 0 M98.8622 636.421 L117.219 636.421 L117.219 640.356 L103.145 640.356 L103.145 648.828 Q104.163 648.481 105.182 648.319 Q106.2 648.134 107.219 648.134 Q113.006 648.134 116.385 651.305 Q119.765 654.476 119.765 659.893 Q119.765 665.472 116.293 668.574 Q112.82 671.652 106.501 671.652 Q104.325 671.652 102.057 671.282 Q99.8113 670.912 97.4039 670.171 L97.4039 665.472 Q99.4872 666.606 101.709 667.162 Q103.932 667.717 106.408 667.717 Q110.413 667.717 112.751 665.611 Q115.089 663.504 115.089 659.893 Q115.089 656.282 112.751 654.176 Q110.413 652.069 106.408 652.069 Q104.534 652.069 102.659 652.486 Q100.807 652.902 98.8622 653.782 L98.8622 636.421 Z" fill="#000000" fill-rule="evenodd" fill-opacity="1" /><path clip-path="url(#clip370)" d="M 0 0 M56.6171 384.183 L72.9365 384.183 L72.9365 388.119 L50.9921 388.119 L50.9921 384.183 Q53.6541 381.429 58.2375 376.799 Q62.8439 372.147 64.0245 370.804 Q66.2698 368.281 67.1494 366.545 Q68.0522 364.785 68.0522 363.096 Q68.0522 360.341 66.1078 358.605 Q64.1865 356.869 61.0847 356.869 Q58.8856 356.869 56.4319 357.633 Q54.0014 358.397 51.2236 359.948 L51.2236 355.225 Q54.0477 354.091 56.5014 353.512 Q58.955 352.934 60.9921 352.934 Q66.3624 352.934 69.5568 355.619 Q72.7513 358.304 72.7513 362.795 Q72.7513 364.924 71.9411 366.846 Q71.1541 368.744 69.0476 371.336 Q68.4689 372.008 65.367 375.225 Q62.2652 378.42 56.6171 384.183 Z" fill="#000000" fill-rule="evenodd" fill-opacity="1" /><path clip-path="url(#clip370)" d="M 0 0 M82.7512 382.239 L87.6354 382.239 L87.6354 388.119 L82.7512 388.119 L82.7512 382.239 Z" fill="#000000" fill-rule="evenodd" fill-opacity="1" /><path clip-path="url(#clip370)" d="M 0 0 M107.821 356.637 Q104.209 356.637 102.381 360.202 Q100.575 363.744 100.575 370.873 Q100.575 377.98 102.381 381.545 Q104.209 385.086 107.821 385.086 Q111.455 385.086 113.26 381.545 Q115.089 377.98 115.089 370.873 Q115.089 363.744 113.26 360.202 Q111.455 356.637 107.821 356.637 M107.821 352.934 Q113.631 352.934 116.686 357.54 Q119.765 362.123 119.765 370.873 Q119.765 379.6 116.686 384.207 Q113.631 388.79 107.821 388.79 Q102.01 388.79 98.9317 384.207 Q95.8761 379.6 95.8761 370.873 Q95.8761 362.123 98.9317 357.54 Q102.01 352.934 107.821 352.934 Z" fill="#000000" fill-rule="evenodd" fill-opacity="1" /><path clip-path="url(#clip370)" d="M 0 0 M57.6125 101.321 L73.9318 101.321 L73.9318 105.256 L51.9875 105.256 L51.9875 101.321 Q54.6495 98.5665 59.2328 93.9369 Q63.8393 89.2841 65.0198 87.9416 Q67.2652 85.4184 68.1448 83.6823 Q69.0476 81.9231 69.0476 80.2333 Q69.0476 77.4786 67.1032 75.7425 Q65.1819 74.0064 62.08 74.0064 Q59.881 74.0064 57.4273 74.7703 Q54.9967 75.5342 52.219 77.0851 L52.219 72.3629 Q55.043 71.2287 57.4967 70.65 Q59.9504 70.0713 61.9874 70.0713 Q67.3578 70.0713 70.5522 72.7565 Q73.7466 75.4416 73.7466 79.9323 Q73.7466 82.062 72.9365 83.9832 Q72.1494 85.8814 70.0429 88.474 Q69.4642 89.1453 66.3624 92.3628 Q63.2606 95.5573 57.6125 101.321 Z" fill="#000000" fill-rule="evenodd" fill-opacity="1" /><path clip-path="url(#clip370)" d="M 0 0 M83.7466 99.3767 L88.6308 99.3767 L88.6308 105.256 L83.7466 105.256 L83.7466 99.3767 Z" fill="#000000" fill-rule="evenodd" fill-opacity="1" /><path clip-path="url(#clip370)" d="M 0 0 M98.8622 70.6963 L117.219 70.6963 L117.219 74.6314 L103.145 74.6314 L103.145 83.1036 Q104.163 82.7564 105.182 82.5944 Q106.2 82.4092 107.219 82.4092 Q113.006 82.4092 116.385 85.5805 Q119.765 88.7517 119.765 94.1684 Q119.765 99.747 116.293 102.849 Q112.82 105.928 106.501 105.928 Q104.325 105.928 102.057 105.557 Q99.8113 105.187 97.4039 104.446 L97.4039 99.747 Q99.4872 100.881 101.709 101.437 Q103.932 101.992 106.408 101.992 Q110.413 101.992 112.751 99.8859 Q115.089 97.7795 115.089 94.1684 Q115.089 90.5573 112.751 88.4508 Q110.413 86.3443 106.408 86.3443 Q104.534 86.3443 102.659 86.761 Q100.807 87.1777 98.8622 88.0573 L98.8622 70.6963 Z" fill="#000000" fill-rule="evenodd" fill-opacity="1" /><circle clip-path="url(#clip372)" cx="358.461" cy="1389.14" r="14" fill="#ffff00" fill-rule="evenodd" fill-opacity="1" stroke="#000000" stroke-opacity="1" stroke-width="3.2"/>
<circle clip-path="url(#clip372)" cx="358.461" cy="1389.14" r="14" fill="#ffff00" fill-rule="evenodd" fill-opacity="1" stroke="#000000" stroke-opacity="1" stroke-width="3.2"/>
<circle clip-path="url(#clip372)" cx="323.332" cy="1389.14" r="14" fill="#ffff00" fill-rule="evenodd" fill-opacity="1" stroke="#000000" stroke-opacity="1" stroke-width="3.2"/>
<circle clip-path="url(#clip372)" cx="393.591" cy="1389.14" r="14" fill="#ffff00" fill-rule="evenodd" fill-opacity="1" stroke="#000000" stroke-opacity="1" stroke-width="3.2"/>
<circle clip-path="url(#clip372)" cx="358.461" cy="1389.14" r="14" fill="#ffff00" fill-rule="evenodd" fill-opacity="1" stroke="#000000" stroke-opacity="1" stroke-width="3.2"/>
<circle clip-path="url(#clip372)" cx="463.85" cy="1276" r="14" fill="#ffff00" fill-rule="evenodd" fill-opacity="1" stroke="#000000" stroke-opacity="1" stroke-width="3.2"/>
<circle clip-path="url(#clip372)" cx="358.461" cy="1332.57" r="14" fill="#ffff00" fill-rule="evenodd" fill-opacity="1" stroke="#000000" stroke-opacity="1" stroke-width="3.2"/>
<circle clip-path="url(#clip372)" cx="393.591" cy="1389.14" r="14" fill="#ffff00" fill-rule="evenodd" fill-opacity="1" stroke="#000000" stroke-opacity="1" stroke-width="3.2"/>
<circle clip-path="url(#clip372)" cx="358.461" cy="1389.14" r="14" fill="#ffff00" fill-rule="evenodd" fill-opacity="1" stroke="#000000" stroke-opacity="1" stroke-width="3.2"/>
<circle clip-path="url(#clip372)" cx="393.591" cy="1445.72" r="14" fill="#ffff00" fill-rule="evenodd" fill-opacity="1" stroke="#000000" stroke-opacity="1" stroke-width="3.2"/>
<circle clip-path="url(#clip372)" cx="393.591" cy="1389.14" r="14" fill="#ffff00" fill-rule="evenodd" fill-opacity="1" stroke="#000000" stroke-opacity="1" stroke-width="3.2"/>
<circle clip-path="url(#clip372)" cx="428.72" cy="1389.14" r="14" fill="#ffff00" fill-rule="evenodd" fill-opacity="1" stroke="#000000" stroke-opacity="1" stroke-width="3.2"/>
<circle clip-path="url(#clip372)" cx="358.461" cy="1445.72" r="14" fill="#ffff00" fill-rule="evenodd" fill-opacity="1" stroke="#000000" stroke-opacity="1" stroke-width="3.2"/>
<circle clip-path="url(#clip372)" cx="253.073" cy="1445.72" r="14" fill="#ffff00" fill-rule="evenodd" fill-opacity="1" stroke="#000000" stroke-opacity="1" stroke-width="3.2"/>
<circle clip-path="url(#clip372)" cx="288.203" cy="1389.14" r="14" fill="#ffff00" fill-rule="evenodd" fill-opacity="1" stroke="#000000" stroke-opacity="1" stroke-width="3.2"/>
<circle clip-path="url(#clip372)" cx="393.591" cy="1276" r="14" fill="#ffff00" fill-rule="evenodd" fill-opacity="1" stroke="#000000" stroke-opacity="1" stroke-width="3.2"/>
<circle clip-path="url(#clip372)" cx="323.332" cy="1276" r="14" fill="#ffff00" fill-rule="evenodd" fill-opacity="1" stroke="#000000" stroke-opacity="1" stroke-width="3.2"/>
<circle clip-path="url(#clip372)" cx="358.461" cy="1332.57" r="14" fill="#ffff00" fill-rule="evenodd" fill-opacity="1" stroke="#000000" stroke-opacity="1" stroke-width="3.2"/>
<circle clip-path="url(#clip372)" cx="463.85" cy="1332.57" r="14" fill="#ffff00" fill-rule="evenodd" fill-opacity="1" stroke="#000000" stroke-opacity="1" stroke-width="3.2"/>
<circle clip-path="url(#clip372)" cx="393.591" cy="1332.57" r="14" fill="#ffff00" fill-rule="evenodd" fill-opacity="1" stroke="#000000" stroke-opacity="1" stroke-width="3.2"/>
<circle clip-path="url(#clip372)" cx="463.85" cy="1389.14" r="14" fill="#ffff00" fill-rule="evenodd" fill-opacity="1" stroke="#000000" stroke-opacity="1" stroke-width="3.2"/>
<circle clip-path="url(#clip372)" cx="393.591" cy="1276" r="14" fill="#ffff00" fill-rule="evenodd" fill-opacity="1" stroke="#000000" stroke-opacity="1" stroke-width="3.2"/>
<circle clip-path="url(#clip372)" cx="217.944" cy="1389.14" r="14" fill="#ffff00" fill-rule="evenodd" fill-opacity="1" stroke="#000000" stroke-opacity="1" stroke-width="3.2"/>
<circle clip-path="url(#clip372)" cx="463.85" cy="1219.43" r="14" fill="#ffff00" fill-rule="evenodd" fill-opacity="1" stroke="#000000" stroke-opacity="1" stroke-width="3.2"/>
<circle clip-path="url(#clip372)" cx="534.108" cy="1389.14" r="14" fill="#ffff00" fill-rule="evenodd" fill-opacity="1" stroke="#000000" stroke-opacity="1" stroke-width="3.2"/>
<circle clip-path="url(#clip372)" cx="428.72" cy="1389.14" r="14" fill="#ffff00" fill-rule="evenodd" fill-opacity="1" stroke="#000000" stroke-opacity="1" stroke-width="3.2"/>
<circle clip-path="url(#clip372)" cx="428.72" cy="1276" r="14" fill="#ffff00" fill-rule="evenodd" fill-opacity="1" stroke="#000000" stroke-opacity="1" stroke-width="3.2"/>
<circle clip-path="url(#clip372)" cx="393.591" cy="1389.14" r="14" fill="#ffff00" fill-rule="evenodd" fill-opacity="1" stroke="#000000" stroke-opacity="1" stroke-width="3.2"/>
<circle clip-path="url(#clip372)" cx="358.461" cy="1389.14" r="14" fill="#ffff00" fill-rule="evenodd" fill-opacity="1" stroke="#000000" stroke-opacity="1" stroke-width="3.2"/>
<circle clip-path="url(#clip372)" cx="428.72" cy="1389.14" r="14" fill="#ffff00" fill-rule="evenodd" fill-opacity="1" stroke="#000000" stroke-opacity="1" stroke-width="3.2"/>
<circle clip-path="url(#clip372)" cx="428.72" cy="1389.14" r="14" fill="#ffff00" fill-rule="evenodd" fill-opacity="1" stroke="#000000" stroke-opacity="1" stroke-width="3.2"/>
<circle clip-path="url(#clip372)" cx="393.591" cy="1276" r="14" fill="#ffff00" fill-rule="evenodd" fill-opacity="1" stroke="#000000" stroke-opacity="1" stroke-width="3.2"/>
<circle clip-path="url(#clip372)" cx="393.591" cy="1445.72" r="14" fill="#ffff00" fill-rule="evenodd" fill-opacity="1" stroke="#000000" stroke-opacity="1" stroke-width="3.2"/>
<circle clip-path="url(#clip372)" cx="358.461" cy="1389.14" r="14" fill="#ffff00" fill-rule="evenodd" fill-opacity="1" stroke="#000000" stroke-opacity="1" stroke-width="3.2"/>
<circle clip-path="url(#clip372)" cx="393.591" cy="1445.72" r="14" fill="#ffff00" fill-rule="evenodd" fill-opacity="1" stroke="#000000" stroke-opacity="1" stroke-width="3.2"/>
<circle clip-path="url(#clip372)" cx="288.203" cy="1389.14" r="14" fill="#ffff00" fill-rule="evenodd" fill-opacity="1" stroke="#000000" stroke-opacity="1" stroke-width="3.2"/>
<circle clip-path="url(#clip372)" cx="323.332" cy="1389.14" r="14" fill="#ffff00" fill-rule="evenodd" fill-opacity="1" stroke="#000000" stroke-opacity="1" stroke-width="3.2"/>
<circle clip-path="url(#clip372)" cx="393.591" cy="1445.72" r="14" fill="#ffff00" fill-rule="evenodd" fill-opacity="1" stroke="#000000" stroke-opacity="1" stroke-width="3.2"/>
<circle clip-path="url(#clip372)" cx="323.332" cy="1389.14" r="14" fill="#ffff00" fill-rule="evenodd" fill-opacity="1" stroke="#000000" stroke-opacity="1" stroke-width="3.2"/>
<circle clip-path="url(#clip372)" cx="393.591" cy="1389.14" r="14" fill="#ffff00" fill-rule="evenodd" fill-opacity="1" stroke="#000000" stroke-opacity="1" stroke-width="3.2"/>
<circle clip-path="url(#clip372)" cx="323.332" cy="1332.57" r="14" fill="#ffff00" fill-rule="evenodd" fill-opacity="1" stroke="#000000" stroke-opacity="1" stroke-width="3.2"/>
<circle clip-path="url(#clip372)" cx="323.332" cy="1332.57" r="14" fill="#ffff00" fill-rule="evenodd" fill-opacity="1" stroke="#000000" stroke-opacity="1" stroke-width="3.2"/>
<circle clip-path="url(#clip372)" cx="323.332" cy="1389.14" r="14" fill="#ffff00" fill-rule="evenodd" fill-opacity="1" stroke="#000000" stroke-opacity="1" stroke-width="3.2"/>
<circle clip-path="url(#clip372)" cx="428.72" cy="1162.85" r="14" fill="#ffff00" fill-rule="evenodd" fill-opacity="1" stroke="#000000" stroke-opacity="1" stroke-width="3.2"/>
<circle clip-path="url(#clip372)" cx="534.108" cy="1276" r="14" fill="#ffff00" fill-rule="evenodd" fill-opacity="1" stroke="#000000" stroke-opacity="1" stroke-width="3.2"/>
<circle clip-path="url(#clip372)" cx="358.461" cy="1332.57" r="14" fill="#ffff00" fill-rule="evenodd" fill-opacity="1" stroke="#000000" stroke-opacity="1" stroke-width="3.2"/>
<circle clip-path="url(#clip372)" cx="428.72" cy="1389.14" r="14" fill="#ffff00" fill-rule="evenodd" fill-opacity="1" stroke="#000000" stroke-opacity="1" stroke-width="3.2"/>
<circle clip-path="url(#clip372)" cx="358.461" cy="1389.14" r="14" fill="#ffff00" fill-rule="evenodd" fill-opacity="1" stroke="#000000" stroke-opacity="1" stroke-width="3.2"/>
<circle clip-path="url(#clip372)" cx="393.591" cy="1389.14" r="14" fill="#ffff00" fill-rule="evenodd" fill-opacity="1" stroke="#000000" stroke-opacity="1" stroke-width="3.2"/>
<circle clip-path="url(#clip372)" cx="358.461" cy="1389.14" r="14" fill="#ffff00" fill-rule="evenodd" fill-opacity="1" stroke="#000000" stroke-opacity="1" stroke-width="3.2"/>
<circle clip-path="url(#clip372)" cx="1517.73" cy="710.274" r="14" fill="#ffff00" fill-rule="evenodd" fill-opacity="1" stroke="#000000" stroke-opacity="1" stroke-width="3.2"/>
<circle clip-path="url(#clip372)" cx="1447.47" cy="653.701" r="14" fill="#ffff00" fill-rule="evenodd" fill-opacity="1" stroke="#000000" stroke-opacity="1" stroke-width="3.2"/>
<circle clip-path="url(#clip372)" cx="1587.99" cy="653.701" r="14" fill="#ffff00" fill-rule="evenodd" fill-opacity="1" stroke="#000000" stroke-opacity="1" stroke-width="3.2"/>
<circle clip-path="url(#clip372)" cx="1271.83" cy="766.846" r="14" fill="#ffff00" fill-rule="evenodd" fill-opacity="1" stroke="#000000" stroke-opacity="1" stroke-width="3.2"/>
<circle clip-path="url(#clip372)" cx="1482.6" cy="653.701" r="14" fill="#ffff00" fill-rule="evenodd" fill-opacity="1" stroke="#000000" stroke-opacity="1" stroke-width="3.2"/>
<circle clip-path="url(#clip372)" cx="1447.47" cy="766.846" r="14" fill="#ffff00" fill-rule="evenodd" fill-opacity="1" stroke="#000000" stroke-opacity="1" stroke-width="3.2"/>
<circle clip-path="url(#clip372)" cx="1517.73" cy="597.129" r="14" fill="#ffff00" fill-rule="evenodd" fill-opacity="1" stroke="#000000" stroke-opacity="1" stroke-width="3.2"/>
<circle clip-path="url(#clip372)" cx="1025.92" cy="936.563" r="14" fill="#ffff00" fill-rule="evenodd" fill-opacity="1" stroke="#000000" stroke-opacity="1" stroke-width="3.2"/>
<circle clip-path="url(#clip372)" cx="1482.6" cy="766.846" r="14" fill="#ffff00" fill-rule="evenodd" fill-opacity="1" stroke="#000000" stroke-opacity="1" stroke-width="3.2"/>
<circle clip-path="url(#clip372)" cx="1236.7" cy="710.274" r="14" fill="#ffff00" fill-rule="evenodd" fill-opacity="1" stroke="#000000" stroke-opacity="1" stroke-width="3.2"/>
<circle clip-path="url(#clip372)" cx="1096.18" cy="936.563" r="14" fill="#ffff00" fill-rule="evenodd" fill-opacity="1" stroke="#000000" stroke-opacity="1" stroke-width="3.2"/>
<circle clip-path="url(#clip372)" cx="1342.08" cy="653.701" r="14" fill="#ffff00" fill-rule="evenodd" fill-opacity="1" stroke="#000000" stroke-opacity="1" stroke-width="3.2"/>
<circle clip-path="url(#clip372)" cx="1271.83" cy="936.563" r="14" fill="#ffff00" fill-rule="evenodd" fill-opacity="1" stroke="#000000" stroke-opacity="1" stroke-width="3.2"/>
<circle clip-path="url(#clip372)" cx="1517.73" cy="710.274" r="14" fill="#ffff00" fill-rule="evenodd" fill-opacity="1" stroke="#000000" stroke-opacity="1" stroke-width="3.2"/>
<circle clip-path="url(#clip372)" cx="1131.31" cy="766.846" r="14" fill="#ffff00" fill-rule="evenodd" fill-opacity="1" stroke="#000000" stroke-opacity="1" stroke-width="3.2"/>
<circle clip-path="url(#clip372)" cx="1412.34" cy="710.274" r="14" fill="#ffff00" fill-rule="evenodd" fill-opacity="1" stroke="#000000" stroke-opacity="1" stroke-width="3.2"/>
<circle clip-path="url(#clip372)" cx="1447.47" cy="653.701" r="14" fill="#ffff00" fill-rule="evenodd" fill-opacity="1" stroke="#000000" stroke-opacity="1" stroke-width="3.2"/>
<circle clip-path="url(#clip372)" cx="1306.95" cy="936.563" r="14" fill="#ffff00" fill-rule="evenodd" fill-opacity="1" stroke="#000000" stroke-opacity="1" stroke-width="3.2"/>
<circle clip-path="url(#clip372)" cx="1447.47" cy="653.701" r="14" fill="#ffff00" fill-rule="evenodd" fill-opacity="1" stroke="#000000" stroke-opacity="1" stroke-width="3.2"/>
<circle clip-path="url(#clip372)" cx="1236.7" cy="879.991" r="14" fill="#ffff00" fill-rule="evenodd" fill-opacity="1" stroke="#000000" stroke-opacity="1" stroke-width="3.2"/>
<circle clip-path="url(#clip372)" cx="1552.86" cy="483.984" r="14" fill="#ffff00" fill-rule="evenodd" fill-opacity="1" stroke="#000000" stroke-opacity="1" stroke-width="3.2"/>
<circle clip-path="url(#clip372)" cx="1271.83" cy="766.846" r="14" fill="#ffff00" fill-rule="evenodd" fill-opacity="1" stroke="#000000" stroke-opacity="1" stroke-width="3.2"/>
<circle clip-path="url(#clip372)" cx="1587.99" cy="653.701" r="14" fill="#ffff00" fill-rule="evenodd" fill-opacity="1" stroke="#000000" stroke-opacity="1" stroke-width="3.2"/>
<circle clip-path="url(#clip372)" cx="1517.73" cy="823.418" r="14" fill="#ffff00" fill-rule="evenodd" fill-opacity="1" stroke="#000000" stroke-opacity="1" stroke-width="3.2"/>
<circle clip-path="url(#clip372)" cx="1377.21" cy="766.846" r="14" fill="#ffff00" fill-rule="evenodd" fill-opacity="1" stroke="#000000" stroke-opacity="1" stroke-width="3.2"/>
<circle clip-path="url(#clip372)" cx="1412.34" cy="710.274" r="14" fill="#ffff00" fill-rule="evenodd" fill-opacity="1" stroke="#000000" stroke-opacity="1" stroke-width="3.2"/>
<circle clip-path="url(#clip372)" cx="1552.86" cy="710.274" r="14" fill="#ffff00" fill-rule="evenodd" fill-opacity="1" stroke="#000000" stroke-opacity="1" stroke-width="3.2"/>
<circle clip-path="url(#clip372)" cx="1623.12" cy="540.556" r="14" fill="#ffff00" fill-rule="evenodd" fill-opacity="1" stroke="#000000" stroke-opacity="1" stroke-width="3.2"/>
<circle clip-path="url(#clip372)" cx="1447.47" cy="653.701" r="14" fill="#ffff00" fill-rule="evenodd" fill-opacity="1" stroke="#000000" stroke-opacity="1" stroke-width="3.2"/>
<circle clip-path="url(#clip372)" cx="1096.18" cy="936.563" r="14" fill="#ffff00" fill-rule="evenodd" fill-opacity="1" stroke="#000000" stroke-opacity="1" stroke-width="3.2"/>
<circle clip-path="url(#clip372)" cx="1201.57" cy="879.991" r="14" fill="#ffff00" fill-rule="evenodd" fill-opacity="1" stroke="#000000" stroke-opacity="1" stroke-width="3.2"/>
<circle clip-path="url(#clip372)" cx="1166.44" cy="936.563" r="14" fill="#ffff00" fill-rule="evenodd" fill-opacity="1" stroke="#000000" stroke-opacity="1" stroke-width="3.2"/>
<circle clip-path="url(#clip372)" cx="1236.7" cy="823.418" r="14" fill="#ffff00" fill-rule="evenodd" fill-opacity="1" stroke="#000000" stroke-opacity="1" stroke-width="3.2"/>
<circle clip-path="url(#clip372)" cx="1658.25" cy="597.129" r="14" fill="#ffff00" fill-rule="evenodd" fill-opacity="1" stroke="#000000" stroke-opacity="1" stroke-width="3.2"/>
<circle clip-path="url(#clip372)" cx="1447.47" cy="653.701" r="14" fill="#ffff00" fill-rule="evenodd" fill-opacity="1" stroke="#000000" stroke-opacity="1" stroke-width="3.2"/>
<circle clip-path="url(#clip372)" cx="1447.47" cy="597.129" r="14" fill="#ffff00" fill-rule="evenodd" fill-opacity="1" stroke="#000000" stroke-opacity="1" stroke-width="3.2"/>
<circle clip-path="url(#clip372)" cx="1517.73" cy="653.701" r="14" fill="#ffff00" fill-rule="evenodd" fill-opacity="1" stroke="#000000" stroke-opacity="1" stroke-width="3.2"/>
<circle clip-path="url(#clip372)" cx="1412.34" cy="766.846" r="14" fill="#ffff00" fill-rule="evenodd" fill-opacity="1" stroke="#000000" stroke-opacity="1" stroke-width="3.2"/>
<circle clip-path="url(#clip372)" cx="1306.95" cy="766.846" r="14" fill="#ffff00" fill-rule="evenodd" fill-opacity="1" stroke="#000000" stroke-opacity="1" stroke-width="3.2"/>
<circle clip-path="url(#clip372)" cx="1271.83" cy="766.846" r="14" fill="#ffff00" fill-rule="evenodd" fill-opacity="1" stroke="#000000" stroke-opacity="1" stroke-width="3.2"/>
<circle clip-path="url(#clip372)" cx="1412.34" cy="823.418" r="14" fill="#ffff00" fill-rule="evenodd" fill-opacity="1" stroke="#000000" stroke-opacity="1" stroke-width="3.2"/>
<circle clip-path="url(#clip372)" cx="1482.6" cy="710.274" r="14" fill="#ffff00" fill-rule="evenodd" fill-opacity="1" stroke="#000000" stroke-opacity="1" stroke-width="3.2"/>
<circle clip-path="url(#clip372)" cx="1271.83" cy="823.418" r="14" fill="#ffff00" fill-rule="evenodd" fill-opacity="1" stroke="#000000" stroke-opacity="1" stroke-width="3.2"/>
<circle clip-path="url(#clip372)" cx="1025.92" cy="936.563" r="14" fill="#ffff00" fill-rule="evenodd" fill-opacity="1" stroke="#000000" stroke-opacity="1" stroke-width="3.2"/>
<circle clip-path="url(#clip372)" cx="1342.08" cy="766.846" r="14" fill="#ffff00" fill-rule="evenodd" fill-opacity="1" stroke="#000000" stroke-opacity="1" stroke-width="3.2"/>
<circle clip-path="url(#clip372)" cx="1342.08" cy="823.418" r="14" fill="#ffff00" fill-rule="evenodd" fill-opacity="1" stroke="#000000" stroke-opacity="1" stroke-width="3.2"/>
<circle clip-path="url(#clip372)" cx="1342.08" cy="766.846" r="14" fill="#ffff00" fill-rule="evenodd" fill-opacity="1" stroke="#000000" stroke-opacity="1" stroke-width="3.2"/>
<circle clip-path="url(#clip372)" cx="1377.21" cy="766.846" r="14" fill="#ffff00" fill-rule="evenodd" fill-opacity="1" stroke="#000000" stroke-opacity="1" stroke-width="3.2"/>
<circle clip-path="url(#clip372)" cx="920.531" cy="879.991" r="14" fill="#ffff00" fill-rule="evenodd" fill-opacity="1" stroke="#000000" stroke-opacity="1" stroke-width="3.2"/>
<circle clip-path="url(#clip372)" cx="1306.95" cy="766.846" r="14" fill="#ffff00" fill-rule="evenodd" fill-opacity="1" stroke="#000000" stroke-opacity="1" stroke-width="3.2"/>
<circle clip-path="url(#clip372)" cx="1974.41" cy="87.9763" r="14" fill="#ffff00" fill-rule="evenodd" fill-opacity="1" stroke="#000000" stroke-opacity="1" stroke-width="3.2"/>
<circle clip-path="url(#clip372)" cx="1658.25" cy="427.411" r="14" fill="#ffff00" fill-rule="evenodd" fill-opacity="1" stroke="#000000" stroke-opacity="1" stroke-width="3.2"/>
<circle clip-path="url(#clip372)" cx="1939.28" cy="314.266" r="14" fill="#ffff00" fill-rule="evenodd" fill-opacity="1" stroke="#000000" stroke-opacity="1" stroke-width="3.2"/>
<circle clip-path="url(#clip372)" cx="1833.9" cy="483.984" r="14" fill="#ffff00" fill-rule="evenodd" fill-opacity="1" stroke="#000000" stroke-opacity="1" stroke-width="3.2"/>
<circle clip-path="url(#clip372)" cx="1904.15" cy="257.694" r="14" fill="#ffff00" fill-rule="evenodd" fill-opacity="1" stroke="#000000" stroke-opacity="1" stroke-width="3.2"/>
<circle clip-path="url(#clip372)" cx="2185.19" cy="314.266" r="14" fill="#ffff00" fill-rule="evenodd" fill-opacity="1" stroke="#000000" stroke-opacity="1" stroke-width="3.2"/>
<circle clip-path="url(#clip372)" cx="1447.47" cy="540.556" r="14" fill="#ffff00" fill-rule="evenodd" fill-opacity="1" stroke="#000000" stroke-opacity="1" stroke-width="3.2"/>
<circle clip-path="url(#clip372)" cx="2079.8" cy="483.984" r="14" fill="#ffff00" fill-rule="evenodd" fill-opacity="1" stroke="#000000" stroke-opacity="1" stroke-width="3.2"/>
<circle clip-path="url(#clip372)" cx="1904.15" cy="483.984" r="14" fill="#ffff00" fill-rule="evenodd" fill-opacity="1" stroke="#000000" stroke-opacity="1" stroke-width="3.2"/>
<circle clip-path="url(#clip372)" cx="2009.54" cy="87.9763" r="14" fill="#ffff00" fill-rule="evenodd" fill-opacity="1" stroke="#000000" stroke-opacity="1" stroke-width="3.2"/>
<circle clip-path="url(#clip372)" cx="1658.25" cy="370.839" r="14" fill="#ffff00" fill-rule="evenodd" fill-opacity="1" stroke="#000000" stroke-opacity="1" stroke-width="3.2"/>
<circle clip-path="url(#clip372)" cx="1728.51" cy="427.411" r="14" fill="#ffff00" fill-rule="evenodd" fill-opacity="1" stroke="#000000" stroke-opacity="1" stroke-width="3.2"/>
<circle clip-path="url(#clip372)" cx="1798.77" cy="314.266" r="14" fill="#ffff00" fill-rule="evenodd" fill-opacity="1" stroke="#000000" stroke-opacity="1" stroke-width="3.2"/>
<circle clip-path="url(#clip372)" cx="1623.12" cy="370.839" r="14" fill="#ffff00" fill-rule="evenodd" fill-opacity="1" stroke="#000000" stroke-opacity="1" stroke-width="3.2"/>
<circle clip-path="url(#clip372)" cx="1658.25" cy="144.549" r="14" fill="#ffff00" fill-rule="evenodd" fill-opacity="1" stroke="#000000" stroke-opacity="1" stroke-width="3.2"/>
<circle clip-path="url(#clip372)" cx="1728.51" cy="201.121" r="14" fill="#ffff00" fill-rule="evenodd" fill-opacity="1" stroke="#000000" stroke-opacity="1" stroke-width="3.2"/>
<circle clip-path="url(#clip372)" cx="1798.77" cy="483.984" r="14" fill="#ffff00" fill-rule="evenodd" fill-opacity="1" stroke="#000000" stroke-opacity="1" stroke-width="3.2"/>
<circle clip-path="url(#clip372)" cx="2220.32" cy="257.694" r="14" fill="#ffff00" fill-rule="evenodd" fill-opacity="1" stroke="#000000" stroke-opacity="1" stroke-width="3.2"/>
<circle clip-path="url(#clip372)" cx="2290.58" cy="201.121" r="14" fill="#ffff00" fill-rule="evenodd" fill-opacity="1" stroke="#000000" stroke-opacity="1" stroke-width="3.2"/>
<circle clip-path="url(#clip372)" cx="1623.12" cy="653.701" r="14" fill="#ffff00" fill-rule="evenodd" fill-opacity="1" stroke="#000000" stroke-opacity="1" stroke-width="3.2"/>
<circle clip-path="url(#clip372)" cx="1869.02" cy="201.121" r="14" fill="#ffff00" fill-rule="evenodd" fill-opacity="1" stroke="#000000" stroke-opacity="1" stroke-width="3.2"/>
<circle clip-path="url(#clip372)" cx="1587.99" cy="370.839" r="14" fill="#ffff00" fill-rule="evenodd" fill-opacity="1" stroke="#000000" stroke-opacity="1" stroke-width="3.2"/>
<circle clip-path="url(#clip372)" cx="2220.32" cy="370.839" r="14" fill="#ffff00" fill-rule="evenodd" fill-opacity="1" stroke="#000000" stroke-opacity="1" stroke-width="3.2"/>
<circle clip-path="url(#clip372)" cx="1587.99" cy="483.984" r="14" fill="#ffff00" fill-rule="evenodd" fill-opacity="1" stroke="#000000" stroke-opacity="1" stroke-width="3.2"/>
<circle clip-path="url(#clip372)" cx="1869.02" cy="314.266" r="14" fill="#ffff00" fill-rule="evenodd" fill-opacity="1" stroke="#000000" stroke-opacity="1" stroke-width="3.2"/>
<circle clip-path="url(#clip372)" cx="1974.41" cy="483.984" r="14" fill="#ffff00" fill-rule="evenodd" fill-opacity="1" stroke="#000000" stroke-opacity="1" stroke-width="3.2"/>
<circle clip-path="url(#clip372)" cx="1552.86" cy="483.984" r="14" fill="#ffff00" fill-rule="evenodd" fill-opacity="1" stroke="#000000" stroke-opacity="1" stroke-width="3.2"/>
<circle clip-path="url(#clip372)" cx="1587.99" cy="483.984" r="14" fill="#ffff00" fill-rule="evenodd" fill-opacity="1" stroke="#000000" stroke-opacity="1" stroke-width="3.2"/>
<circle clip-path="url(#clip372)" cx="1833.9" cy="314.266" r="14" fill="#ffff00" fill-rule="evenodd" fill-opacity="1" stroke="#000000" stroke-opacity="1" stroke-width="3.2"/>
<circle clip-path="url(#clip372)" cx="1904.15" cy="597.129" r="14" fill="#ffff00" fill-rule="evenodd" fill-opacity="1" stroke="#000000" stroke-opacity="1" stroke-width="3.2"/>
<circle clip-path="url(#clip372)" cx="2009.54" cy="427.411" r="14" fill="#ffff00" fill-rule="evenodd" fill-opacity="1" stroke="#000000" stroke-opacity="1" stroke-width="3.2"/>
<circle clip-path="url(#clip372)" cx="2114.93" cy="370.839" r="14" fill="#ffff00" fill-rule="evenodd" fill-opacity="1" stroke="#000000" stroke-opacity="1" stroke-width="3.2"/>
<circle clip-path="url(#clip372)" cx="1833.9" cy="257.694" r="14" fill="#ffff00" fill-rule="evenodd" fill-opacity="1" stroke="#000000" stroke-opacity="1" stroke-width="3.2"/>
<circle clip-path="url(#clip372)" cx="1658.25" cy="653.701" r="14" fill="#ffff00" fill-rule="evenodd" fill-opacity="1" stroke="#000000" stroke-opacity="1" stroke-width="3.2"/>
<circle clip-path="url(#clip372)" cx="1833.9" cy="710.274" r="14" fill="#ffff00" fill-rule="evenodd" fill-opacity="1" stroke="#000000" stroke-opacity="1" stroke-width="3.2"/>
<circle clip-path="url(#clip372)" cx="2009.54" cy="201.121" r="14" fill="#ffff00" fill-rule="evenodd" fill-opacity="1" stroke="#000000" stroke-opacity="1" stroke-width="3.2"/>
<circle clip-path="url(#clip372)" cx="1833.9" cy="144.549" r="14" fill="#ffff00" fill-rule="evenodd" fill-opacity="1" stroke="#000000" stroke-opacity="1" stroke-width="3.2"/>
<circle clip-path="url(#clip372)" cx="1798.77" cy="483.984" r="14" fill="#ffff00" fill-rule="evenodd" fill-opacity="1" stroke="#000000" stroke-opacity="1" stroke-width="3.2"/>
<circle clip-path="url(#clip372)" cx="1552.86" cy="483.984" r="14" fill="#ffff00" fill-rule="evenodd" fill-opacity="1" stroke="#000000" stroke-opacity="1" stroke-width="3.2"/>
<circle clip-path="url(#clip372)" cx="1763.64" cy="314.266" r="14" fill="#ffff00" fill-rule="evenodd" fill-opacity="1" stroke="#000000" stroke-opacity="1" stroke-width="3.2"/>
<circle clip-path="url(#clip372)" cx="1833.9" cy="144.549" r="14" fill="#ffff00" fill-rule="evenodd" fill-opacity="1" stroke="#000000" stroke-opacity="1" stroke-width="3.2"/>
<circle clip-path="url(#clip372)" cx="1658.25" cy="201.121" r="14" fill="#ffff00" fill-rule="evenodd" fill-opacity="1" stroke="#000000" stroke-opacity="1" stroke-width="3.2"/>
<circle clip-path="url(#clip372)" cx="1658.25" cy="427.411" r="14" fill="#ffff00" fill-rule="evenodd" fill-opacity="1" stroke="#000000" stroke-opacity="1" stroke-width="3.2"/>
<circle clip-path="url(#clip372)" cx="1939.28" cy="201.121" r="14" fill="#ffff00" fill-rule="evenodd" fill-opacity="1" stroke="#000000" stroke-opacity="1" stroke-width="3.2"/>
<circle clip-path="url(#clip372)" cx="1869.02" cy="87.9763" r="14" fill="#ffff00" fill-rule="evenodd" fill-opacity="1" stroke="#000000" stroke-opacity="1" stroke-width="3.2"/>
<circle clip-path="url(#clip372)" cx="1693.38" cy="201.121" r="14" fill="#ffff00" fill-rule="evenodd" fill-opacity="1" stroke="#000000" stroke-opacity="1" stroke-width="3.2"/>
<circle clip-path="url(#clip372)" cx="1623.12" cy="427.411" r="14" fill="#ffff00" fill-rule="evenodd" fill-opacity="1" stroke="#000000" stroke-opacity="1" stroke-width="3.2"/>
<circle clip-path="url(#clip372)" cx="1693.38" cy="370.839" r="14" fill="#ffff00" fill-rule="evenodd" fill-opacity="1" stroke="#000000" stroke-opacity="1" stroke-width="3.2"/>
<circle clip-path="url(#clip372)" cx="1763.64" cy="201.121" r="14" fill="#ffff00" fill-rule="evenodd" fill-opacity="1" stroke="#000000" stroke-opacity="1" stroke-width="3.2"/>
<circle clip-path="url(#clip372)" cx="1658.25" cy="483.984" r="14" fill="#ffff00" fill-rule="evenodd" fill-opacity="1" stroke="#000000" stroke-opacity="1" stroke-width="3.2"/>
<path clip-path="url(#clip370)" d="
M1982.98 216.178 L2279.52 216.178 L2279.52 95.2176 L1982.98 95.2176  Z
  " fill="#ffffff" fill-rule="evenodd" fill-opacity="1"/>
<polyline clip-path="url(#clip370)" style="stroke:#000000; stroke-width:4; stroke-opacity:1; fill:none" points="
  1982.98,216.178 2279.52,216.178 2279.52,95.2176 1982.98,95.2176 1982.98,216.178 
  "/>
<circle clip-path="url(#clip370)" cx="2080.63" cy="155.698" r="23" fill="#ffff00" fill-rule="evenodd" fill-opacity="1" stroke="#000000" stroke-opacity="1" stroke-width="5.12"/>
<path clip-path="url(#clip370)" d="M 0 0 M2192.11 175.385 Q2190.31 180.015 2188.59 181.427 Q2186.88 182.839 2184.01 182.839 L2180.61 182.839 L2180.61 179.274 L2183.11 179.274 Q2184.87 179.274 2185.84 178.44 Q2186.81 177.607 2187.99 174.505 L2188.76 172.561 L2178.27 147.052 L2182.78 147.052 L2190.89 167.329 L2198.99 147.052 L2203.5 147.052 L2192.11 175.385 Z" fill="#000000" fill-rule="evenodd" fill-opacity="1" /><path clip-path="url(#clip370)" d="M 0 0 M2210.79 169.042 L2218.43 169.042 L2218.43 142.677 L2210.12 144.343 L2210.12 140.084 L2218.39 138.418 L2223.06 138.418 L2223.06 169.042 L2230.7 169.042 L2230.7 172.978 L2210.79 172.978 L2210.79 169.042 Z" fill="#000000" fill-rule="evenodd" fill-opacity="1" /></svg>
