<?xml version="1.0" encoding="utf-8"?>
<svg xmlns="http://www.w3.org/2000/svg" xmlns:xlink="http://www.w3.org/1999/xlink" width="600" height="400" viewBox="0 0 2400 1600">
<defs>
  <clipPath id="clip170">
    <rect x="0" y="0" width="2400" height="1600"/>
  </clipPath>
</defs>
<path clip-path="url(#clip170)" d="
M0 1600 L2400 1600 L2400 0 L0 0  Z
  " fill="#ffffff" fill-rule="evenodd" fill-opacity="1"/>
<defs>
  <clipPath id="clip171">
    <rect x="480" y="0" width="1681" height="1600"/>
  </clipPath>
</defs>
<path clip-path="url(#clip170)" d="
M247.459 1423.18 L2352.76 1423.18 L2352.76 123.472 L247.459 123.472  Z
  " fill="#ffffff" fill-rule="evenodd" fill-opacity="1"/>
<defs>
  <clipPath id="clip172">
    <rect x="247" y="123" width="2106" height="1301"/>
  </clipPath>
</defs>
<polyline clip-path="url(#clip172)" style="stroke:#000000; stroke-width:2; stroke-opacity:0.1; fill:none" points="
  363.254,1423.18 363.254,123.472 
  "/>
<polyline clip-path="url(#clip172)" style="stroke:#000000; stroke-width:2; stroke-opacity:0.1; fill:none" points="
  831.681,1423.18 831.681,123.472 
  "/>
<polyline clip-path="url(#clip172)" style="stroke:#000000; stroke-width:2; stroke-opacity:0.1; fill:none" points="
  1300.11,1423.18 1300.11,123.472 
  "/>
<polyline clip-path="url(#clip172)" style="stroke:#000000; stroke-width:2; stroke-opacity:0.1; fill:none" points="
  1768.53,1423.18 1768.53,123.472 
  "/>
<polyline clip-path="url(#clip172)" style="stroke:#000000; stroke-width:2; stroke-opacity:0.1; fill:none" points="
  2236.96,1423.18 2236.96,123.472 
  "/>
<polyline clip-path="url(#clip170)" style="stroke:#000000; stroke-width:4; stroke-opacity:1; fill:none" points="
  247.459,1423.18 2352.76,1423.18 
  "/>
<polyline clip-path="url(#clip170)" style="stroke:#000000; stroke-width:4; stroke-opacity:1; fill:none" points="
  363.254,1423.18 363.254,1407.58 
  "/>
<polyline clip-path="url(#clip170)" style="stroke:#000000; stroke-width:4; stroke-opacity:1; fill:none" points="
  831.681,1423.18 831.681,1407.58 
  "/>
<polyline clip-path="url(#clip170)" style="stroke:#000000; stroke-width:4; stroke-opacity:1; fill:none" points="
  1300.11,1423.18 1300.11,1407.58 
  "/>
<polyline clip-path="url(#clip170)" style="stroke:#000000; stroke-width:4; stroke-opacity:1; fill:none" points="
  1768.53,1423.18 1768.53,1407.58 
  "/>
<polyline clip-path="url(#clip170)" style="stroke:#000000; stroke-width:4; stroke-opacity:1; fill:none" points="
  2236.96,1423.18 2236.96,1407.58 
  "/>
<path clip-path="url(#clip170)" d="M 0 0 M325.557 1452.37 Q321.946 1452.37 320.117 1455.94 Q318.312 1459.48 318.312 1466.61 Q318.312 1473.71 320.117 1477.28 Q321.946 1480.82 325.557 1480.82 Q329.191 1480.82 330.997 1477.28 Q332.826 1473.71 332.826 1466.61 Q332.826 1459.48 330.997 1455.94 Q329.191 1452.37 325.557 1452.37 M325.557 1448.67 Q331.367 1448.67 334.423 1453.27 Q337.502 1457.86 337.502 1466.61 Q337.502 1475.33 334.423 1479.94 Q331.367 1484.52 325.557 1484.52 Q319.747 1484.52 316.668 1479.94 Q313.613 1475.33 313.613 1466.61 Q313.613 1457.86 316.668 1453.27 Q319.747 1448.67 325.557 1448.67 Z" fill="#000000" fill-rule="evenodd" fill-opacity="1" /><path clip-path="url(#clip170)" d="M 0 0 M345.719 1477.97 L350.603 1477.97 L350.603 1483.85 L345.719 1483.85 L345.719 1477.97 Z" fill="#000000" fill-rule="evenodd" fill-opacity="1" /><path clip-path="url(#clip170)" d="M 0 0 M370.788 1452.37 Q367.177 1452.37 365.349 1455.94 Q363.543 1459.48 363.543 1466.61 Q363.543 1473.71 365.349 1477.28 Q367.177 1480.82 370.788 1480.82 Q374.423 1480.82 376.228 1477.28 Q378.057 1473.71 378.057 1466.61 Q378.057 1459.48 376.228 1455.94 Q374.423 1452.37 370.788 1452.37 M370.788 1448.67 Q376.599 1448.67 379.654 1453.27 Q382.733 1457.86 382.733 1466.61 Q382.733 1475.33 379.654 1479.94 Q376.599 1484.52 370.788 1484.52 Q364.978 1484.52 361.9 1479.94 Q358.844 1475.33 358.844 1466.61 Q358.844 1457.86 361.9 1453.27 Q364.978 1448.67 370.788 1448.67 Z" fill="#000000" fill-rule="evenodd" fill-opacity="1" /><path clip-path="url(#clip170)" d="M 0 0 M400.95 1452.37 Q397.339 1452.37 395.511 1455.94 Q393.705 1459.48 393.705 1466.61 Q393.705 1473.71 395.511 1477.28 Q397.339 1480.82 400.95 1480.82 Q404.585 1480.82 406.39 1477.28 Q408.219 1473.71 408.219 1466.61 Q408.219 1459.48 406.39 1455.94 Q404.585 1452.37 400.95 1452.37 M400.95 1448.67 Q406.761 1448.67 409.816 1453.27 Q412.895 1457.86 412.895 1466.61 Q412.895 1475.33 409.816 1479.94 Q406.761 1484.52 400.95 1484.52 Q395.14 1484.52 392.062 1479.94 Q389.006 1475.33 389.006 1466.61 Q389.006 1457.86 392.062 1453.27 Q395.14 1448.67 400.95 1448.67 Z" fill="#000000" fill-rule="evenodd" fill-opacity="1" /><path clip-path="url(#clip170)" d="M 0 0 M794.482 1452.37 Q790.871 1452.37 789.042 1455.94 Q787.236 1459.48 787.236 1466.61 Q787.236 1473.71 789.042 1477.28 Q790.871 1480.82 794.482 1480.82 Q798.116 1480.82 799.921 1477.28 Q801.75 1473.71 801.75 1466.61 Q801.75 1459.48 799.921 1455.94 Q798.116 1452.37 794.482 1452.37 M794.482 1448.67 Q800.292 1448.67 803.347 1453.27 Q806.426 1457.86 806.426 1466.61 Q806.426 1475.33 803.347 1479.94 Q800.292 1484.52 794.482 1484.52 Q788.672 1484.52 785.593 1479.94 Q782.537 1475.33 782.537 1466.61 Q782.537 1457.86 785.593 1453.27 Q788.672 1448.67 794.482 1448.67 Z" fill="#000000" fill-rule="evenodd" fill-opacity="1" /><path clip-path="url(#clip170)" d="M 0 0 M814.644 1477.97 L819.528 1477.97 L819.528 1483.85 L814.644 1483.85 L814.644 1477.97 Z" fill="#000000" fill-rule="evenodd" fill-opacity="1" /><path clip-path="url(#clip170)" d="M 0 0 M833.741 1479.92 L850.06 1479.92 L850.06 1483.85 L828.116 1483.85 L828.116 1479.92 Q830.778 1477.16 835.361 1472.53 Q839.968 1467.88 841.148 1466.54 Q843.393 1464.01 844.273 1462.28 Q845.176 1460.52 845.176 1458.83 Q845.176 1456.07 843.231 1454.34 Q841.31 1452.6 838.208 1452.6 Q836.009 1452.6 833.556 1453.37 Q831.125 1454.13 828.347 1455.68 L828.347 1450.96 Q831.171 1449.82 833.625 1449.25 Q836.079 1448.67 838.116 1448.67 Q843.486 1448.67 846.68 1451.35 Q849.875 1454.04 849.875 1458.53 Q849.875 1460.66 849.065 1462.58 Q848.278 1464.48 846.171 1467.07 Q845.593 1467.74 842.491 1470.96 Q839.389 1474.15 833.741 1479.92 Z" fill="#000000" fill-rule="evenodd" fill-opacity="1" /><path clip-path="url(#clip170)" d="M 0 0 M859.921 1449.29 L878.278 1449.29 L878.278 1453.23 L864.204 1453.23 L864.204 1461.7 Q865.222 1461.35 866.241 1461.19 Q867.259 1461 868.278 1461 Q874.065 1461 877.444 1464.18 Q880.824 1467.35 880.824 1472.76 Q880.824 1478.34 877.352 1481.44 Q873.879 1484.52 867.56 1484.52 Q865.384 1484.52 863.116 1484.15 Q860.87 1483.78 858.463 1483.04 L858.463 1478.34 Q860.546 1479.48 862.768 1480.03 Q864.991 1480.59 867.467 1480.59 Q871.472 1480.59 873.81 1478.48 Q876.148 1476.38 876.148 1472.76 Q876.148 1469.15 873.81 1467.05 Q871.472 1464.94 867.467 1464.94 Q865.592 1464.94 863.717 1465.36 Q861.866 1465.77 859.921 1466.65 L859.921 1449.29 Z" fill="#000000" fill-rule="evenodd" fill-opacity="1" /><path clip-path="url(#clip170)" d="M 0 0 M1262.41 1452.37 Q1258.8 1452.37 1256.97 1455.94 Q1255.17 1459.48 1255.17 1466.61 Q1255.17 1473.71 1256.97 1477.28 Q1258.8 1480.82 1262.41 1480.82 Q1266.04 1480.82 1267.85 1477.28 Q1269.68 1473.71 1269.68 1466.61 Q1269.68 1459.48 1267.85 1455.94 Q1266.04 1452.37 1262.41 1452.37 M1262.41 1448.67 Q1268.22 1448.67 1271.28 1453.27 Q1274.36 1457.86 1274.36 1466.61 Q1274.36 1475.33 1271.28 1479.94 Q1268.22 1484.52 1262.41 1484.52 Q1256.6 1484.52 1253.52 1479.94 Q1250.47 1475.33 1250.47 1466.61 Q1250.47 1457.86 1253.52 1453.27 Q1256.6 1448.67 1262.41 1448.67 Z" fill="#000000" fill-rule="evenodd" fill-opacity="1" /><path clip-path="url(#clip170)" d="M 0 0 M1282.57 1477.97 L1287.46 1477.97 L1287.46 1483.85 L1282.57 1483.85 L1282.57 1477.97 Z" fill="#000000" fill-rule="evenodd" fill-opacity="1" /><path clip-path="url(#clip170)" d="M 0 0 M1297.69 1449.29 L1316.04 1449.29 L1316.04 1453.23 L1301.97 1453.23 L1301.97 1461.7 Q1302.99 1461.35 1304.01 1461.19 Q1305.03 1461 1306.04 1461 Q1311.83 1461 1315.21 1464.18 Q1318.59 1467.35 1318.59 1472.76 Q1318.59 1478.34 1315.12 1481.44 Q1311.65 1484.52 1305.33 1484.52 Q1303.15 1484.52 1300.88 1484.15 Q1298.64 1483.78 1296.23 1483.04 L1296.23 1478.34 Q1298.31 1479.48 1300.54 1480.03 Q1302.76 1480.59 1305.23 1480.59 Q1309.24 1480.59 1311.58 1478.48 Q1313.92 1476.38 1313.92 1472.76 Q1313.92 1469.15 1311.58 1467.05 Q1309.24 1464.94 1305.23 1464.94 Q1303.36 1464.94 1301.48 1465.36 Q1299.63 1465.77 1297.69 1466.65 L1297.69 1449.29 Z" fill="#000000" fill-rule="evenodd" fill-opacity="1" /><path clip-path="url(#clip170)" d="M 0 0 M1337.8 1452.37 Q1334.19 1452.37 1332.36 1455.94 Q1330.56 1459.48 1330.56 1466.61 Q1330.56 1473.71 1332.36 1477.28 Q1334.19 1480.82 1337.8 1480.82 Q1341.44 1480.82 1343.24 1477.28 Q1345.07 1473.71 1345.07 1466.61 Q1345.07 1459.48 1343.24 1455.94 Q1341.44 1452.37 1337.8 1452.37 M1337.8 1448.67 Q1343.61 1448.67 1346.67 1453.27 Q1349.75 1457.86 1349.75 1466.61 Q1349.75 1475.33 1346.67 1479.94 Q1343.61 1484.52 1337.8 1484.52 Q1331.99 1484.52 1328.92 1479.94 Q1325.86 1475.33 1325.86 1466.61 Q1325.86 1457.86 1328.92 1453.27 Q1331.99 1448.67 1337.8 1448.67 Z" fill="#000000" fill-rule="evenodd" fill-opacity="1" /><path clip-path="url(#clip170)" d="M 0 0 M1731.34 1452.37 Q1727.72 1452.37 1725.9 1455.94 Q1724.09 1459.48 1724.09 1466.61 Q1724.09 1473.71 1725.9 1477.28 Q1727.72 1480.82 1731.34 1480.82 Q1734.97 1480.82 1736.77 1477.28 Q1738.6 1473.71 1738.6 1466.61 Q1738.6 1459.48 1736.77 1455.94 Q1734.97 1452.37 1731.34 1452.37 M1731.34 1448.67 Q1737.15 1448.67 1740.2 1453.27 Q1743.28 1457.86 1743.28 1466.61 Q1743.28 1475.33 1740.2 1479.94 Q1737.15 1484.52 1731.34 1484.52 Q1725.53 1484.52 1722.45 1479.94 Q1719.39 1475.33 1719.39 1466.61 Q1719.39 1457.86 1722.45 1453.27 Q1725.53 1448.67 1731.34 1448.67 Z" fill="#000000" fill-rule="evenodd" fill-opacity="1" /><path clip-path="url(#clip170)" d="M 0 0 M1751.5 1477.97 L1756.38 1477.97 L1756.38 1483.85 L1751.5 1483.85 L1751.5 1477.97 Z" fill="#000000" fill-rule="evenodd" fill-opacity="1" /><path clip-path="url(#clip170)" d="M 0 0 M1765.39 1449.29 L1787.61 1449.29 L1787.61 1451.28 L1775.06 1483.85 L1770.18 1483.85 L1781.98 1453.23 L1765.39 1453.23 L1765.39 1449.29 Z" fill="#000000" fill-rule="evenodd" fill-opacity="1" /><path clip-path="url(#clip170)" d="M 0 0 M1796.77 1449.29 L1815.13 1449.29 L1815.13 1453.23 L1801.06 1453.23 L1801.06 1461.7 Q1802.08 1461.35 1803.09 1461.19 Q1804.11 1461 1805.13 1461 Q1810.92 1461 1814.3 1464.18 Q1817.68 1467.35 1817.68 1472.76 Q1817.68 1478.34 1814.21 1481.44 Q1810.73 1484.52 1804.41 1484.52 Q1802.24 1484.52 1799.97 1484.15 Q1797.72 1483.78 1795.32 1483.04 L1795.32 1478.34 Q1797.4 1479.48 1799.62 1480.03 Q1801.84 1480.59 1804.32 1480.59 Q1808.33 1480.59 1810.66 1478.48 Q1813 1476.38 1813 1472.76 Q1813 1469.15 1810.66 1467.05 Q1808.33 1464.94 1804.32 1464.94 Q1802.45 1464.94 1800.57 1465.36 Q1798.72 1465.77 1796.77 1466.65 L1796.77 1449.29 Z" fill="#000000" fill-rule="evenodd" fill-opacity="1" /><path clip-path="url(#clip170)" d="M 0 0 M2189.03 1479.92 L2196.67 1479.92 L2196.67 1453.55 L2188.36 1455.22 L2188.36 1450.96 L2196.63 1449.29 L2201.3 1449.29 L2201.3 1479.92 L2208.94 1479.92 L2208.94 1483.85 L2189.03 1483.85 L2189.03 1479.92 Z" fill="#000000" fill-rule="evenodd" fill-opacity="1" /><path clip-path="url(#clip170)" d="M 0 0 M2218.38 1477.97 L2223.27 1477.97 L2223.27 1483.85 L2218.38 1483.85 L2218.38 1477.97 Z" fill="#000000" fill-rule="evenodd" fill-opacity="1" /><path clip-path="url(#clip170)" d="M 0 0 M2243.45 1452.37 Q2239.84 1452.37 2238.01 1455.94 Q2236.21 1459.48 2236.21 1466.61 Q2236.21 1473.71 2238.01 1477.28 Q2239.84 1480.82 2243.45 1480.82 Q2247.09 1480.82 2248.89 1477.28 Q2250.72 1473.71 2250.72 1466.61 Q2250.72 1459.48 2248.89 1455.94 Q2247.09 1452.37 2243.45 1452.37 M2243.45 1448.67 Q2249.26 1448.67 2252.32 1453.27 Q2255.4 1457.86 2255.4 1466.61 Q2255.4 1475.33 2252.32 1479.94 Q2249.26 1484.52 2243.45 1484.52 Q2237.64 1484.52 2234.56 1479.94 Q2231.51 1475.33 2231.51 1466.61 Q2231.51 1457.86 2234.56 1453.27 Q2237.64 1448.67 2243.45 1448.67 Z" fill="#000000" fill-rule="evenodd" fill-opacity="1" /><path clip-path="url(#clip170)" d="M 0 0 M2273.62 1452.37 Q2270 1452.37 2268.18 1455.94 Q2266.37 1459.48 2266.37 1466.61 Q2266.37 1473.71 2268.18 1477.28 Q2270 1480.82 2273.62 1480.82 Q2277.25 1480.82 2279.06 1477.28 Q2280.88 1473.71 2280.88 1466.61 Q2280.88 1459.48 2279.06 1455.94 Q2277.25 1452.37 2273.62 1452.37 M2273.62 1448.67 Q2279.43 1448.67 2282.48 1453.27 Q2285.56 1457.86 2285.56 1466.61 Q2285.56 1475.33 2282.48 1479.94 Q2279.43 1484.52 2273.62 1484.52 Q2267.81 1484.52 2264.73 1479.94 Q2261.67 1475.33 2261.67 1466.61 Q2261.67 1457.86 2264.73 1453.27 Q2267.81 1448.67 2273.62 1448.67 Z" fill="#000000" fill-rule="evenodd" fill-opacity="1" /><path clip-path="url(#clip170)" d="M 0 0 M1205.47 1520.52 L1212.37 1520.52 L1224.18 1538.19 L1236.05 1520.52 L1242.96 1520.52 L1227.68 1543.34 L1243.98 1568.04 L1237.07 1568.04 L1223.7 1547.83 L1210.24 1568.04 L1203.3 1568.04 L1220.27 1542.68 L1205.47 1520.52 Z" fill="#000000" fill-rule="evenodd" fill-opacity="1" /><path clip-path="url(#clip170)" d="M 0 0 M1245.95 1547.58 L1263.11 1547.58 L1263.11 1552.8 L1245.95 1552.8 L1245.95 1547.58 Z" fill="#000000" fill-rule="evenodd" fill-opacity="1" /><path clip-path="url(#clip170)" d="M 0 0 M1287.14 1526.86 L1278.42 1550.51 L1295.89 1550.51 L1287.14 1526.86 M1283.51 1520.52 L1290.8 1520.52 L1308.91 1568.04 L1302.22 1568.04 L1297.9 1555.85 L1276.47 1555.85 L1272.15 1568.04 L1265.37 1568.04 L1283.51 1520.52 Z" fill="#000000" fill-rule="evenodd" fill-opacity="1" /><path clip-path="url(#clip170)" d="M 0 0 M1345.22 1532.4 L1332.33 1549.74 L1345.89 1568.04 L1338.99 1568.04 L1328.61 1554.04 L1318.23 1568.04 L1311.33 1568.04 L1325.17 1549.39 L1312.5 1532.4 L1319.41 1532.4 L1328.86 1545.1 L1338.32 1532.4 L1345.22 1532.4 Z" fill="#000000" fill-rule="evenodd" fill-opacity="1" /><path clip-path="url(#clip170)" d="M 0 0 M1354.17 1532.4 L1360.02 1532.4 L1360.02 1568.04 L1354.17 1568.04 L1354.17 1532.4 M1354.17 1518.52 L1360.02 1518.52 L1360.02 1525.93 L1354.17 1525.93 L1354.17 1518.52 Z" fill="#000000" fill-rule="evenodd" fill-opacity="1" /><path clip-path="url(#clip170)" d="M 0 0 M1395 1533.45 L1395 1538.98 Q1392.52 1537.71 1389.85 1537.07 Q1387.17 1536.44 1384.31 1536.44 Q1379.95 1536.44 1377.75 1537.77 Q1375.59 1539.11 1375.59 1541.79 Q1375.59 1543.82 1377.15 1545 Q1378.71 1546.15 1383.42 1547.2 L1385.42 1547.64 Q1391.66 1548.98 1394.27 1551.43 Q1396.91 1553.85 1396.91 1558.21 Q1396.91 1563.17 1392.97 1566.07 Q1389.05 1568.97 1382.18 1568.97 Q1379.31 1568.97 1376.19 1568.39 Q1373.11 1567.85 1369.67 1566.74 L1369.67 1560.69 Q1372.92 1562.38 1376.07 1563.24 Q1379.22 1564.07 1382.3 1564.07 Q1386.44 1564.07 1388.67 1562.66 Q1390.9 1561.23 1390.9 1558.65 Q1390.9 1556.27 1389.27 1554.99 Q1387.68 1553.72 1382.24 1552.54 L1380.2 1552.07 Q1374.76 1550.92 1372.34 1548.56 Q1369.92 1546.18 1369.92 1542.04 Q1369.92 1537.01 1373.49 1534.27 Q1377.05 1531.54 1383.61 1531.54 Q1386.86 1531.54 1389.72 1532.01 Q1392.59 1532.49 1395 1533.45 Z" fill="#000000" fill-rule="evenodd" fill-opacity="1" /><polyline clip-path="url(#clip172)" style="stroke:#000000; stroke-width:2; stroke-opacity:0.1; fill:none" points="
  247.459,1386.4 2352.76,1386.4 
  "/>
<polyline clip-path="url(#clip172)" style="stroke:#000000; stroke-width:2; stroke-opacity:0.1; fill:none" points="
  247.459,1079.86 2352.76,1079.86 
  "/>
<polyline clip-path="url(#clip172)" style="stroke:#000000; stroke-width:2; stroke-opacity:0.1; fill:none" points="
  247.459,773.326 2352.76,773.326 
  "/>
<polyline clip-path="url(#clip172)" style="stroke:#000000; stroke-width:2; stroke-opacity:0.1; fill:none" points="
  247.459,466.791 2352.76,466.791 
  "/>
<polyline clip-path="url(#clip172)" style="stroke:#000000; stroke-width:2; stroke-opacity:0.1; fill:none" points="
  247.459,160.256 2352.76,160.256 
  "/>
<polyline clip-path="url(#clip170)" style="stroke:#000000; stroke-width:4; stroke-opacity:1; fill:none" points="
  247.459,1423.18 247.459,123.472 
  "/>
<polyline clip-path="url(#clip170)" style="stroke:#000000; stroke-width:4; stroke-opacity:1; fill:none" points="
  247.459,1386.4 272.722,1386.4 
  "/>
<polyline clip-path="url(#clip170)" style="stroke:#000000; stroke-width:4; stroke-opacity:1; fill:none" points="
  247.459,1079.86 272.722,1079.86 
  "/>
<polyline clip-path="url(#clip170)" style="stroke:#000000; stroke-width:4; stroke-opacity:1; fill:none" points="
  247.459,773.326 272.722,773.326 
  "/>
<polyline clip-path="url(#clip170)" style="stroke:#000000; stroke-width:4; stroke-opacity:1; fill:none" points="
  247.459,466.791 272.722,466.791 
  "/>
<polyline clip-path="url(#clip170)" style="stroke:#000000; stroke-width:4; stroke-opacity:1; fill:none" points="
  247.459,160.256 272.722,160.256 
  "/>
<path clip-path="url(#clip170)" d="M 0 0 M154.283 1372.19 Q150.672 1372.19 148.843 1375.76 Q147.038 1379.3 147.038 1386.43 Q147.038 1393.54 148.843 1397.1 Q150.672 1400.64 154.283 1400.64 Q157.917 1400.64 159.723 1397.1 Q161.552 1393.54 161.552 1386.43 Q161.552 1379.3 159.723 1375.76 Q157.917 1372.19 154.283 1372.19 M154.283 1368.49 Q160.093 1368.49 163.149 1373.1 Q166.227 1377.68 166.227 1386.43 Q166.227 1395.16 163.149 1399.76 Q160.093 1404.35 154.283 1404.35 Q148.473 1404.35 145.394 1399.76 Q142.339 1395.16 142.339 1386.43 Q142.339 1377.68 145.394 1373.1 Q148.473 1368.49 154.283 1368.49 Z" fill="#000000" fill-rule="evenodd" fill-opacity="1" /><path clip-path="url(#clip170)" d="M 0 0 M174.445 1397.8 L179.329 1397.8 L179.329 1403.68 L174.445 1403.68 L174.445 1397.8 Z" fill="#000000" fill-rule="evenodd" fill-opacity="1" /><path clip-path="url(#clip170)" d="M 0 0 M199.514 1372.19 Q195.903 1372.19 194.075 1375.76 Q192.269 1379.3 192.269 1386.43 Q192.269 1393.54 194.075 1397.1 Q195.903 1400.64 199.514 1400.64 Q203.149 1400.64 204.954 1397.1 Q206.783 1393.54 206.783 1386.43 Q206.783 1379.3 204.954 1375.76 Q203.149 1372.19 199.514 1372.19 M199.514 1368.49 Q205.324 1368.49 208.38 1373.1 Q211.459 1377.68 211.459 1386.43 Q211.459 1395.16 208.38 1399.76 Q205.324 1404.35 199.514 1404.35 Q193.704 1404.35 190.625 1399.76 Q187.57 1395.16 187.57 1386.43 Q187.57 1377.68 190.625 1373.1 Q193.704 1368.49 199.514 1368.49 Z" fill="#000000" fill-rule="evenodd" fill-opacity="1" /><path clip-path="url(#clip170)" d="M 0 0 M149.306 1093.21 L165.626 1093.21 L165.626 1097.14 L143.681 1097.14 L143.681 1093.21 Q146.343 1090.45 150.927 1085.82 Q155.533 1081.17 156.714 1079.83 Q158.959 1077.3 159.839 1075.57 Q160.741 1073.81 160.741 1072.12 Q160.741 1069.36 158.797 1067.63 Q156.876 1065.89 153.774 1065.89 Q151.575 1065.89 149.121 1066.65 Q146.691 1067.42 143.913 1068.97 L143.913 1064.25 Q146.737 1063.11 149.191 1062.53 Q151.644 1061.96 153.681 1061.96 Q159.052 1061.96 162.246 1064.64 Q165.44 1067.33 165.44 1071.82 Q165.44 1073.95 164.63 1075.87 Q163.843 1077.77 161.737 1080.36 Q161.158 1081.03 158.056 1084.25 Q154.954 1087.44 149.306 1093.21 Z" fill="#000000" fill-rule="evenodd" fill-opacity="1" /><path clip-path="url(#clip170)" d="M 0 0 M175.44 1091.26 L180.325 1091.26 L180.325 1097.14 L175.44 1097.14 L175.44 1091.26 Z" fill="#000000" fill-rule="evenodd" fill-opacity="1" /><path clip-path="url(#clip170)" d="M 0 0 M190.556 1062.58 L208.912 1062.58 L208.912 1066.52 L194.838 1066.52 L194.838 1074.99 Q195.857 1074.64 196.875 1074.48 Q197.894 1074.29 198.912 1074.29 Q204.699 1074.29 208.079 1077.47 Q211.459 1080.64 211.459 1086.05 Q211.459 1091.63 207.987 1094.73 Q204.514 1097.81 198.195 1097.81 Q196.019 1097.81 193.75 1097.44 Q191.505 1097.07 189.098 1096.33 L189.098 1091.63 Q191.181 1092.77 193.403 1093.32 Q195.625 1093.88 198.102 1093.88 Q202.107 1093.88 204.445 1091.77 Q206.783 1089.66 206.783 1086.05 Q206.783 1082.44 204.445 1080.34 Q202.107 1078.23 198.102 1078.23 Q196.227 1078.23 194.352 1078.65 Q192.5 1079.06 190.556 1079.94 L190.556 1062.58 Z" fill="#000000" fill-rule="evenodd" fill-opacity="1" /><path clip-path="url(#clip170)" d="M 0 0 M144.329 756.046 L162.686 756.046 L162.686 759.981 L148.612 759.981 L148.612 768.453 Q149.63 768.106 150.649 767.944 Q151.667 767.759 152.686 767.759 Q158.473 767.759 161.852 770.93 Q165.232 774.101 165.232 779.518 Q165.232 785.097 161.76 788.199 Q158.288 791.277 151.968 791.277 Q149.792 791.277 147.524 790.907 Q145.279 790.537 142.871 789.796 L142.871 785.097 Q144.954 786.231 147.177 786.787 Q149.399 787.342 151.876 787.342 Q155.88 787.342 158.218 785.236 Q160.556 783.129 160.556 779.518 Q160.556 775.907 158.218 773.801 Q155.88 771.694 151.876 771.694 Q150.001 771.694 148.126 772.111 Q146.274 772.527 144.329 773.407 L144.329 756.046 Z" fill="#000000" fill-rule="evenodd" fill-opacity="1" /><path clip-path="url(#clip170)" d="M 0 0 M174.445 784.726 L179.329 784.726 L179.329 790.606 L174.445 790.606 L174.445 784.726 Z" fill="#000000" fill-rule="evenodd" fill-opacity="1" /><path clip-path="url(#clip170)" d="M 0 0 M199.514 759.125 Q195.903 759.125 194.075 762.689 Q192.269 766.231 192.269 773.361 Q192.269 780.467 194.075 784.032 Q195.903 787.574 199.514 787.574 Q203.149 787.574 204.954 784.032 Q206.783 780.467 206.783 773.361 Q206.783 766.231 204.954 762.689 Q203.149 759.125 199.514 759.125 M199.514 755.421 Q205.324 755.421 208.38 760.027 Q211.459 764.611 211.459 773.361 Q211.459 782.088 208.38 786.694 Q205.324 791.277 199.514 791.277 Q193.704 791.277 190.625 786.694 Q187.57 782.088 187.57 773.361 Q187.57 764.611 190.625 760.027 Q193.704 755.421 199.514 755.421 Z" fill="#000000" fill-rule="evenodd" fill-opacity="1" /><path clip-path="url(#clip170)" d="M 0 0 M144.098 449.511 L166.32 449.511 L166.32 451.502 L153.774 484.071 L148.89 484.071 L160.695 453.446 L144.098 453.446 L144.098 449.511 Z" fill="#000000" fill-rule="evenodd" fill-opacity="1" /><path clip-path="url(#clip170)" d="M 0 0 M175.44 478.192 L180.325 478.192 L180.325 484.071 L175.44 484.071 L175.44 478.192 Z" fill="#000000" fill-rule="evenodd" fill-opacity="1" /><path clip-path="url(#clip170)" d="M 0 0 M190.556 449.511 L208.912 449.511 L208.912 453.446 L194.838 453.446 L194.838 461.918 Q195.857 461.571 196.875 461.409 Q197.894 461.224 198.912 461.224 Q204.699 461.224 208.079 464.395 Q211.459 467.567 211.459 472.983 Q211.459 478.562 207.987 481.664 Q204.514 484.742 198.195 484.742 Q196.019 484.742 193.75 484.372 Q191.505 484.002 189.098 483.261 L189.098 478.562 Q191.181 479.696 193.403 480.252 Q195.625 480.807 198.102 480.807 Q202.107 480.807 204.445 478.701 Q206.783 476.594 206.783 472.983 Q206.783 469.372 204.445 467.266 Q202.107 465.159 198.102 465.159 Q196.227 465.159 194.352 465.576 Q192.5 465.993 190.556 466.872 L190.556 449.511 Z" fill="#000000" fill-rule="evenodd" fill-opacity="1" /><path clip-path="url(#clip170)" d="M 0 0 M114.931 173.601 L122.57 173.601 L122.57 147.236 L114.26 148.902 L114.26 144.643 L122.524 142.976 L127.2 142.976 L127.2 173.601 L134.839 173.601 L134.839 177.536 L114.931 177.536 L114.931 173.601 Z" fill="#000000" fill-rule="evenodd" fill-opacity="1" /><path clip-path="url(#clip170)" d="M 0 0 M154.283 146.055 Q150.672 146.055 148.843 149.62 Q147.038 153.161 147.038 160.291 Q147.038 167.397 148.843 170.962 Q150.672 174.504 154.283 174.504 Q157.917 174.504 159.723 170.962 Q161.552 167.397 161.552 160.291 Q161.552 153.161 159.723 149.62 Q157.917 146.055 154.283 146.055 M154.283 142.351 Q160.093 142.351 163.149 146.958 Q166.227 151.541 166.227 160.291 Q166.227 169.018 163.149 173.624 Q160.093 178.208 154.283 178.208 Q148.473 178.208 145.394 173.624 Q142.339 169.018 142.339 160.291 Q142.339 151.541 145.394 146.958 Q148.473 142.351 154.283 142.351 Z" fill="#000000" fill-rule="evenodd" fill-opacity="1" /><path clip-path="url(#clip170)" d="M 0 0 M174.445 171.657 L179.329 171.657 L179.329 177.536 L174.445 177.536 L174.445 171.657 Z" fill="#000000" fill-rule="evenodd" fill-opacity="1" /><path clip-path="url(#clip170)" d="M 0 0 M199.514 146.055 Q195.903 146.055 194.075 149.62 Q192.269 153.161 192.269 160.291 Q192.269 167.397 194.075 170.962 Q195.903 174.504 199.514 174.504 Q203.149 174.504 204.954 170.962 Q206.783 167.397 206.783 160.291 Q206.783 153.161 204.954 149.62 Q203.149 146.055 199.514 146.055 M199.514 142.351 Q205.324 142.351 208.38 146.958 Q211.459 151.541 211.459 160.291 Q211.459 169.018 208.38 173.624 Q205.324 178.208 199.514 178.208 Q193.704 178.208 190.625 173.624 Q187.57 169.018 187.57 160.291 Q187.57 151.541 190.625 146.958 Q193.704 142.351 199.514 142.351 Z" fill="#000000" fill-rule="evenodd" fill-opacity="1" /><path clip-path="url(#clip170)" d="M 0 0 M16.4842 866.504 L16.4842 859.597 L36.0269 846.42 L16.4842 833.339 L16.4842 826.432 L41.3741 843.237 L64.0042 843.237 L64.0042 849.699 L41.3741 849.699 L16.4842 866.504 Z" fill="#000000" fill-rule="evenodd" fill-opacity="1" /><path clip-path="url(#clip170)" d="M 0 0 M43.5384 831.111 L43.5384 813.955 L48.7583 813.955 L48.7583 831.111 L43.5384 831.111 Z" fill="#000000" fill-rule="evenodd" fill-opacity="1" /><path clip-path="url(#clip170)" d="M 0 0 M22.818 789.925 L46.4666 798.646 L46.4666 781.172 L22.818 789.925 M16.4842 793.553 L16.4842 786.264 L64.0042 768.154 L64.0042 774.838 L51.8138 779.167 L51.8138 800.587 L64.0042 804.916 L64.0042 811.695 L16.4842 793.553 Z" fill="#000000" fill-rule="evenodd" fill-opacity="1" /><path clip-path="url(#clip170)" d="M 0 0 M28.3562 731.837 L45.7028 744.728 L64.0042 731.169 L64.0042 738.076 L49.9996 748.452 L64.0042 758.828 L64.0042 765.735 L45.3526 751.889 L28.3562 764.557 L28.3562 757.65 L41.0558 748.197 L28.3562 738.744 L28.3562 731.837 Z" fill="#000000" fill-rule="evenodd" fill-opacity="1" /><path clip-path="url(#clip170)" d="M 0 0 M28.3562 722.894 L28.3562 717.037 L64.0042 717.037 L64.0042 722.894 L28.3562 722.894 M14.479 722.894 L14.479 717.037 L21.895 717.037 L21.895 722.894 L14.479 722.894 Z" fill="#000000" fill-rule="evenodd" fill-opacity="1" /><path clip-path="url(#clip170)" d="M 0 0 M29.4065 682.058 L34.9447 682.058 Q33.6716 684.54 33.035 687.214 Q32.3984 689.887 32.3984 692.752 Q32.3984 697.113 33.7352 699.309 Q35.072 701.473 37.7456 701.473 Q39.7826 701.473 40.9603 699.913 Q42.1061 698.354 43.1565 693.643 L43.6021 691.638 Q44.9389 685.4 47.3897 682.79 Q49.8086 680.148 54.1691 680.148 Q59.1344 680.148 62.0308 684.095 Q64.9272 688.01 64.9272 694.885 Q64.9272 697.749 64.3543 700.868 Q63.8132 703.956 62.6992 707.393 L56.6518 707.393 Q58.3387 704.147 59.198 700.996 Q60.0256 697.845 60.0256 694.757 Q60.0256 690.62 58.6251 688.392 Q57.1929 686.164 54.6147 686.164 Q52.2276 686.164 50.9545 687.787 Q49.6813 689.378 48.5037 694.821 L48.0262 696.858 Q46.8804 702.301 44.5251 704.72 Q42.138 707.139 38.0002 707.139 Q32.9713 707.139 30.2341 703.574 Q27.4968 700.009 27.4968 693.452 Q27.4968 690.206 27.9743 687.341 Q28.4517 684.477 29.4065 682.058 Z" fill="#000000" fill-rule="evenodd" fill-opacity="1" /><path clip-path="url(#clip170)" d="M 0 0 M998.619 12.096 L1006.8 12.096 L1006.8 36.8875 L1036.54 36.8875 L1036.54 12.096 L1044.72 12.096 L1044.72 72.576 L1036.54 72.576 L1036.54 43.7741 L1006.8 43.7741 L1006.8 72.576 L998.619 72.576 L998.619 12.096 Z" fill="#000000" fill-rule="evenodd" fill-opacity="1" /><path clip-path="url(#clip170)" d="M 0 0 M1060.68 27.2059 L1068.13 27.2059 L1068.13 72.576 L1060.68 72.576 L1060.68 27.2059 M1060.68 9.54393 L1068.13 9.54393 L1068.13 18.9825 L1060.68 18.9825 L1060.68 9.54393 Z" fill="#000000" fill-rule="evenodd" fill-opacity="1" /><path clip-path="url(#clip170)" d="M 0 0 M1112.65 28.5427 L1112.65 35.5912 Q1109.49 33.9709 1106.09 33.1607 Q1102.69 32.3505 1099.04 32.3505 Q1093.49 32.3505 1090.7 34.0519 Q1087.94 35.7533 1087.94 39.156 Q1087.94 41.7486 1089.93 43.2475 Q1091.91 44.7058 1097.91 46.0426 L1100.46 46.6097 Q1108.4 48.3111 1111.72 51.4303 Q1115.08 54.509 1115.08 60.0587 Q1115.08 66.3781 1110.06 70.0644 Q1105.08 73.7508 1096.33 73.7508 Q1092.68 73.7508 1088.71 73.0216 Q1084.78 72.3329 1080.41 70.9151 L1080.41 63.2184 Q1084.54 65.3654 1088.55 66.4591 Q1092.56 67.5124 1096.49 67.5124 Q1101.75 67.5124 1104.59 65.73 Q1107.43 63.9071 1107.43 60.6258 Q1107.43 57.5877 1105.36 55.9673 Q1103.33 54.3469 1096.41 52.8481 L1093.82 52.2405 Q1086.89 50.7821 1083.81 47.7845 Q1080.73 44.7463 1080.73 39.4801 Q1080.73 33.0797 1085.27 29.5959 Q1089.8 26.1121 1098.15 26.1121 Q1102.28 26.1121 1105.93 26.7198 Q1109.57 27.3274 1112.65 28.5427 Z" fill="#000000" fill-rule="evenodd" fill-opacity="1" /><path clip-path="url(#clip170)" d="M 0 0 M1134.32 14.324 L1134.32 27.2059 L1149.68 27.2059 L1149.68 32.9987 L1134.32 32.9987 L1134.32 57.6282 Q1134.32 63.1779 1135.82 64.7578 Q1137.36 66.3376 1142.02 66.3376 L1149.68 66.3376 L1149.68 72.576 L1142.02 72.576 Q1133.39 72.576 1130.11 69.3758 Q1126.83 66.1351 1126.83 57.6282 L1126.83 32.9987 L1121.36 32.9987 L1121.36 27.2059 L1126.83 27.2059 L1126.83 14.324 L1134.32 14.324 Z" fill="#000000" fill-rule="evenodd" fill-opacity="1" /><path clip-path="url(#clip170)" d="M 0 0 M1177.06 32.4315 Q1171.07 32.4315 1167.58 37.1306 Q1164.1 41.7891 1164.1 49.9314 Q1164.1 58.0738 1167.54 62.7728 Q1171.03 67.4314 1177.06 67.4314 Q1183.02 67.4314 1186.5 62.7323 Q1189.98 58.0333 1189.98 49.9314 Q1189.98 41.8701 1186.5 37.1711 Q1183.02 32.4315 1177.06 32.4315 M1177.06 26.1121 Q1186.78 26.1121 1192.33 32.4315 Q1197.88 38.7509 1197.88 49.9314 Q1197.88 61.0714 1192.33 67.4314 Q1186.78 73.7508 1177.06 73.7508 Q1167.3 73.7508 1161.75 67.4314 Q1156.24 61.0714 1156.24 49.9314 Q1156.24 38.7509 1161.75 32.4315 Q1167.3 26.1121 1177.06 26.1121 Z" fill="#000000" fill-rule="evenodd" fill-opacity="1" /><path clip-path="url(#clip170)" d="M 0 0 M1240.09 49.3643 Q1240.09 41.2625 1236.73 36.8065 Q1233.41 32.3505 1227.37 32.3505 Q1221.38 32.3505 1218.02 36.8065 Q1214.69 41.2625 1214.69 49.3643 Q1214.69 57.4256 1218.02 61.8816 Q1221.38 66.3376 1227.37 66.3376 Q1233.41 66.3376 1236.73 61.8816 Q1240.09 57.4256 1240.09 49.3643 M1247.55 66.9452 Q1247.55 78.5308 1242.4 84.1616 Q1237.26 89.8329 1226.64 89.8329 Q1222.71 89.8329 1219.23 89.2252 Q1215.75 88.6581 1212.47 87.4428 L1212.47 80.1917 Q1215.75 81.9741 1218.95 82.8248 Q1222.15 83.6755 1225.47 83.6755 Q1232.8 83.6755 1236.45 79.8271 Q1240.09 76.0193 1240.09 68.282 L1240.09 64.5957 Q1237.78 68.6061 1234.18 70.5911 Q1230.57 72.576 1225.55 72.576 Q1217.21 72.576 1212.1 66.2161 Q1207 59.8562 1207 49.3643 Q1207 38.832 1212.1 32.472 Q1217.21 26.1121 1225.55 26.1121 Q1230.57 26.1121 1234.18 28.0971 Q1237.78 30.082 1240.09 34.0924 L1240.09 27.2059 L1247.55 27.2059 L1247.55 66.9452 Z" fill="#000000" fill-rule="evenodd" fill-opacity="1" /><path clip-path="url(#clip170)" d="M 0 0 M1289.19 34.1734 Q1287.93 33.4443 1286.44 33.1202 Q1284.98 32.7556 1283.19 32.7556 Q1276.88 32.7556 1273.47 36.8875 Q1270.11 40.9789 1270.11 48.6757 L1270.11 72.576 L1262.62 72.576 L1262.62 27.2059 L1270.11 27.2059 L1270.11 34.2544 Q1272.46 30.1225 1276.23 28.1376 Q1279.99 26.1121 1285.38 26.1121 Q1286.15 26.1121 1287.08 26.2337 Q1288.02 26.3147 1289.15 26.5172 L1289.19 34.1734 Z" fill="#000000" fill-rule="evenodd" fill-opacity="1" /><path clip-path="url(#clip170)" d="M 0 0 M1317.63 49.7694 Q1308.59 49.7694 1305.11 51.8354 Q1301.63 53.9013 1301.63 58.8839 Q1301.63 62.8538 1304.22 65.2034 Q1306.85 67.5124 1311.35 67.5124 Q1317.55 67.5124 1321.27 63.1374 Q1325.04 58.7219 1325.04 51.4303 L1325.04 49.7694 L1317.63 49.7694 M1332.49 46.6907 L1332.49 72.576 L1325.04 72.576 L1325.04 65.6895 Q1322.49 69.8214 1318.68 71.8063 Q1314.87 73.7508 1309.36 73.7508 Q1302.4 73.7508 1298.26 69.8619 Q1294.17 65.9325 1294.17 59.3701 Q1294.17 51.7138 1299.28 47.825 Q1304.42 43.9361 1314.59 43.9361 L1325.04 43.9361 L1325.04 43.2069 Q1325.04 38.0623 1321.64 35.2672 Q1318.28 32.4315 1312.16 32.4315 Q1308.27 32.4315 1304.58 33.3632 Q1300.9 34.295 1297.49 36.1584 L1297.49 29.2718 Q1301.59 27.692 1305.43 26.9223 Q1309.28 26.1121 1312.93 26.1121 Q1322.77 26.1121 1327.63 31.2163 Q1332.49 36.3204 1332.49 46.6907 Z" fill="#000000" fill-rule="evenodd" fill-opacity="1" /><path clip-path="url(#clip170)" d="M 0 0 M1383.17 35.9153 Q1385.97 30.8922 1389.86 28.5022 Q1393.74 26.1121 1399.01 26.1121 Q1406.1 26.1121 1409.95 31.0947 Q1413.8 36.0368 1413.8 45.1919 L1413.8 72.576 L1406.3 72.576 L1406.3 45.4349 Q1406.3 38.913 1403.99 35.7533 Q1401.68 32.5936 1396.94 32.5936 Q1391.15 32.5936 1387.79 36.4419 Q1384.43 40.2903 1384.43 46.9338 L1384.43 72.576 L1376.93 72.576 L1376.93 45.4349 Q1376.93 38.8725 1374.62 35.7533 Q1372.31 32.5936 1367.49 32.5936 Q1361.78 32.5936 1358.42 36.4824 Q1355.06 40.3308 1355.06 46.9338 L1355.06 72.576 L1347.56 72.576 L1347.56 27.2059 L1355.06 27.2059 L1355.06 34.2544 Q1357.61 30.082 1361.17 28.0971 Q1364.74 26.1121 1369.64 26.1121 Q1374.58 26.1121 1378.03 28.6237 Q1381.51 31.1352 1383.17 35.9153 Z" fill="#000000" fill-rule="evenodd" fill-opacity="1" /><path clip-path="url(#clip170)" d="M 0 0 M1463.54 18.8205 L1463.54 41.5461 L1473.83 41.5461 Q1479.54 41.5461 1482.66 38.5889 Q1485.78 35.6318 1485.78 30.163 Q1485.78 24.7348 1482.66 21.7777 Q1479.54 18.8205 1473.83 18.8205 L1463.54 18.8205 M1455.36 12.096 L1473.83 12.096 Q1484 12.096 1489.18 16.714 Q1494.41 21.2916 1494.41 30.163 Q1494.41 39.1155 1489.18 43.6931 Q1484 48.2706 1473.83 48.2706 L1463.54 48.2706 L1463.54 72.576 L1455.36 72.576 L1455.36 12.096 Z" fill="#000000" fill-rule="evenodd" fill-opacity="1" /><path clip-path="url(#clip170)" d="M 0 0 M1505.06 9.54393 L1512.52 9.54393 L1512.52 72.576 L1505.06 72.576 L1505.06 9.54393 Z" fill="#000000" fill-rule="evenodd" fill-opacity="1" /><path clip-path="url(#clip170)" d="M 0 0 M1545.69 32.4315 Q1539.7 32.4315 1536.21 37.1306 Q1532.73 41.7891 1532.73 49.9314 Q1532.73 58.0738 1536.17 62.7728 Q1539.66 67.4314 1545.69 67.4314 Q1551.65 67.4314 1555.13 62.7323 Q1558.62 58.0333 1558.62 49.9314 Q1558.62 41.8701 1555.13 37.1711 Q1551.65 32.4315 1545.69 32.4315 M1545.69 26.1121 Q1555.42 26.1121 1560.97 32.4315 Q1566.52 38.7509 1566.52 49.9314 Q1566.52 61.0714 1560.97 67.4314 Q1555.42 73.7508 1545.69 73.7508 Q1535.93 73.7508 1530.38 67.4314 Q1524.87 61.0714 1524.87 49.9314 Q1524.87 38.7509 1530.38 32.4315 Q1535.93 26.1121 1545.69 26.1121 Z" fill="#000000" fill-rule="evenodd" fill-opacity="1" /><path clip-path="url(#clip170)" d="M 0 0 M1586.24 14.324 L1586.24 27.2059 L1601.6 27.2059 L1601.6 32.9987 L1586.24 32.9987 L1586.24 57.6282 Q1586.24 63.1779 1587.74 64.7578 Q1589.28 66.3376 1593.94 66.3376 L1601.6 66.3376 L1601.6 72.576 L1593.94 72.576 Q1585.31 72.576 1582.03 69.3758 Q1578.75 66.1351 1578.75 57.6282 L1578.75 32.9987 L1573.28 32.9987 L1573.28 27.2059 L1578.75 27.2059 L1578.75 14.324 L1586.24 14.324 Z" fill="#000000" fill-rule="evenodd" fill-opacity="1" /><path clip-path="url(#clip172)" d="
M363.254 160.256 L363.254 1386.4 L1300.11 1386.4 L1300.11 160.256 L363.254 160.256 L363.254 160.256  Z
  " fill="#009af9" fill-rule="evenodd" fill-opacity="1"/>
<polyline clip-path="url(#clip172)" style="stroke:#000000; stroke-width:4; stroke-opacity:1; fill:none" points="
  363.254,160.256 363.254,1386.4 1300.11,1386.4 1300.11,160.256 363.254,160.256 
  "/>
<path clip-path="url(#clip172)" d="
M1300.11 773.326 L1300.11 1386.4 L2236.96 1386.4 L2236.96 773.326 L1300.11 773.326 L1300.11 773.326  Z
  " fill="#009af9" fill-rule="evenodd" fill-opacity="1"/>
<polyline clip-path="url(#clip172)" style="stroke:#000000; stroke-width:4; stroke-opacity:1; fill:none" points="
  1300.11,773.326 1300.11,1386.4 2236.96,1386.4 2236.96,773.326 1300.11,773.326 
  "/>
<path clip-path="url(#clip170)" d="
M1996.23 287.756 L2282.58 287.756 L2282.58 166.796 L1996.23 166.796  Z
  " fill="#ffffff" fill-rule="evenodd" fill-opacity="1"/>
<polyline clip-path="url(#clip170)" style="stroke:#000000; stroke-width:4; stroke-opacity:1; fill:none" points="
  1996.23,287.756 2282.58,287.756 2282.58,166.796 1996.23,166.796 1996.23,287.756 
  "/>
<path clip-path="url(#clip170)" d="
M2019.62 251.468 L2159.97 251.468 L2159.97 203.084 L2019.62 203.084 L2019.62 251.468  Z
  " fill="#009af9" fill-rule="evenodd" fill-opacity="1"/>
<polyline clip-path="url(#clip170)" style="stroke:#000000; stroke-width:4; stroke-opacity:1; fill:none" points="
  2019.62,251.468 2159.97,251.468 2159.97,203.084 2019.62,203.084 2019.62,251.468 
  "/>
<path clip-path="url(#clip170)" d="M 0 0 M2197.21 246.963 Q2195.4 251.593 2193.69 253.005 Q2191.98 254.417 2189.11 254.417 L2185.7 254.417 L2185.7 250.852 L2188.2 250.852 Q2189.96 250.852 2190.93 250.019 Q2191.91 249.185 2193.09 246.083 L2193.85 244.139 L2183.36 218.63 L2187.88 218.63 L2195.98 238.908 L2204.08 218.63 L2208.6 218.63 L2197.21 246.963 Z" fill="#000000" fill-rule="evenodd" fill-opacity="1" /><path clip-path="url(#clip170)" d="M 0 0 M2215.89 240.621 L2223.53 240.621 L2223.53 214.255 L2215.22 215.922 L2215.22 211.662 L2223.48 209.996 L2228.16 209.996 L2228.16 240.621 L2235.79 240.621 L2235.79 244.556 L2215.89 244.556 L2215.89 240.621 Z" fill="#000000" fill-rule="evenodd" fill-opacity="1" /></svg>
