<?xml version="1.0" encoding="utf-8"?>
<svg xmlns="http://www.w3.org/2000/svg" xmlns:xlink="http://www.w3.org/1999/xlink" width="600" height="400" viewBox="0 0 2400 1600">
<defs>
  <clipPath id="clip290">
    <rect x="0" y="0" width="2400" height="1600"/>
  </clipPath>
</defs>
<path clip-path="url(#clip290)" d="
M0 1600 L2400 1600 L2400 0 L0 0  Z
  " fill="#ffffff" fill-rule="evenodd" fill-opacity="1"/>
<defs>
  <clipPath id="clip291">
    <rect x="480" y="0" width="1681" height="1600"/>
  </clipPath>
</defs>
<path clip-path="url(#clip290)" d="
M112.177 1486.45 L2352.76 1486.45 L2352.76 47.2441 L112.177 47.2441  Z
  " fill="#ffffff" fill-rule="evenodd" fill-opacity="1"/>
<defs>
  <clipPath id="clip292">
    <rect x="112" y="47" width="2242" height="1440"/>
  </clipPath>
</defs>
<polyline clip-path="url(#clip292)" style="stroke:#000000; stroke-width:2; stroke-opacity:0.1; fill:none" points="
  161.404,1486.45 161.404,47.2441 
  "/>
<polyline clip-path="url(#clip292)" style="stroke:#000000; stroke-width:2; stroke-opacity:0.1; fill:none" points="
  870.717,1486.45 870.717,47.2441 
  "/>
<polyline clip-path="url(#clip292)" style="stroke:#000000; stroke-width:2; stroke-opacity:0.1; fill:none" points="
  1580.03,1486.45 1580.03,47.2441 
  "/>
<polyline clip-path="url(#clip292)" style="stroke:#000000; stroke-width:2; stroke-opacity:0.1; fill:none" points="
  2289.34,1486.45 2289.34,47.2441 
  "/>
<polyline clip-path="url(#clip290)" style="stroke:#000000; stroke-width:4; stroke-opacity:1; fill:none" points="
  112.177,1486.45 2352.76,1486.45 
  "/>
<polyline clip-path="url(#clip290)" style="stroke:#000000; stroke-width:4; stroke-opacity:1; fill:none" points="
  161.404,1486.45 161.404,1469.18 
  "/>
<polyline clip-path="url(#clip290)" style="stroke:#000000; stroke-width:4; stroke-opacity:1; fill:none" points="
  870.717,1486.45 870.717,1469.18 
  "/>
<polyline clip-path="url(#clip290)" style="stroke:#000000; stroke-width:4; stroke-opacity:1; fill:none" points="
  1580.03,1486.45 1580.03,1469.18 
  "/>
<polyline clip-path="url(#clip290)" style="stroke:#000000; stroke-width:4; stroke-opacity:1; fill:none" points="
  2289.34,1486.45 2289.34,1469.18 
  "/>
<path clip-path="url(#clip290)" d="M 0 0 M161.404 1515.64 Q157.792 1515.64 155.964 1519.2 Q154.158 1522.75 154.158 1529.87 Q154.158 1536.98 155.964 1540.55 Q157.792 1544.09 161.404 1544.09 Q165.038 1544.09 166.843 1540.55 Q168.672 1536.98 168.672 1529.87 Q168.672 1522.75 166.843 1519.2 Q165.038 1515.64 161.404 1515.64 M161.404 1511.93 Q167.214 1511.93 170.269 1516.54 Q173.348 1521.12 173.348 1529.87 Q173.348 1538.6 170.269 1543.21 Q167.214 1547.79 161.404 1547.79 Q155.593 1547.79 152.515 1543.21 Q149.459 1538.6 149.459 1529.87 Q149.459 1521.12 152.515 1516.54 Q155.593 1511.93 161.404 1511.93 Z" fill="#000000" fill-rule="evenodd" fill-opacity="1" /><path clip-path="url(#clip290)" d="M 0 0 M845.416 1512.56 L863.772 1512.56 L863.772 1516.5 L849.698 1516.5 L849.698 1524.97 Q850.717 1524.62 851.735 1524.46 Q852.754 1524.27 853.772 1524.27 Q859.559 1524.27 862.939 1527.44 Q866.319 1530.62 866.319 1536.03 Q866.319 1541.61 862.846 1544.71 Q859.374 1547.79 853.055 1547.79 Q850.879 1547.79 848.61 1547.42 Q846.365 1547.05 843.958 1546.31 L843.958 1541.61 Q846.041 1542.74 848.263 1543.3 Q850.485 1543.86 852.962 1543.86 Q856.967 1543.86 859.305 1541.75 Q861.643 1539.64 861.643 1536.03 Q861.643 1532.42 859.305 1530.31 Q856.967 1528.21 852.962 1528.21 Q851.087 1528.21 849.212 1528.62 Q847.36 1529.04 845.416 1529.92 L845.416 1512.56 Z" fill="#000000" fill-rule="evenodd" fill-opacity="1" /><path clip-path="url(#clip290)" d="M 0 0 M885.532 1515.64 Q881.92 1515.64 880.092 1519.2 Q878.286 1522.75 878.286 1529.87 Q878.286 1536.98 880.092 1540.55 Q881.92 1544.09 885.532 1544.09 Q889.166 1544.09 890.971 1540.55 Q892.8 1536.98 892.8 1529.87 Q892.8 1522.75 890.971 1519.2 Q889.166 1515.64 885.532 1515.64 M885.532 1511.93 Q891.342 1511.93 894.397 1516.54 Q897.476 1521.12 897.476 1529.87 Q897.476 1538.6 894.397 1543.21 Q891.342 1547.79 885.532 1547.79 Q879.721 1547.79 876.643 1543.21 Q873.587 1538.6 873.587 1529.87 Q873.587 1521.12 876.643 1516.54 Q879.721 1511.93 885.532 1511.93 Z" fill="#000000" fill-rule="evenodd" fill-opacity="1" /><path clip-path="url(#clip290)" d="M 0 0 M1539.64 1543.18 L1547.28 1543.18 L1547.28 1516.82 L1538.97 1518.49 L1538.97 1514.23 L1547.23 1512.56 L1551.91 1512.56 L1551.91 1543.18 L1559.54 1543.18 L1559.54 1547.12 L1539.64 1547.12 L1539.64 1543.18 Z" fill="#000000" fill-rule="evenodd" fill-opacity="1" /><path clip-path="url(#clip290)" d="M 0 0 M1578.99 1515.64 Q1575.38 1515.64 1573.55 1519.2 Q1571.74 1522.75 1571.74 1529.87 Q1571.74 1536.98 1573.55 1540.55 Q1575.38 1544.09 1578.99 1544.09 Q1582.62 1544.09 1584.43 1540.55 Q1586.26 1536.98 1586.26 1529.87 Q1586.26 1522.75 1584.43 1519.2 Q1582.62 1515.64 1578.99 1515.64 M1578.99 1511.93 Q1584.8 1511.93 1587.85 1516.54 Q1590.93 1521.12 1590.93 1529.87 Q1590.93 1538.6 1587.85 1543.21 Q1584.8 1547.79 1578.99 1547.79 Q1573.18 1547.79 1570.1 1543.21 Q1567.04 1538.6 1567.04 1529.87 Q1567.04 1521.12 1570.1 1516.54 Q1573.18 1511.93 1578.99 1511.93 Z" fill="#000000" fill-rule="evenodd" fill-opacity="1" /><path clip-path="url(#clip290)" d="M 0 0 M1609.15 1515.64 Q1605.54 1515.64 1603.71 1519.2 Q1601.9 1522.75 1601.9 1529.87 Q1601.9 1536.98 1603.71 1540.55 Q1605.54 1544.09 1609.15 1544.09 Q1612.78 1544.09 1614.59 1540.55 Q1616.42 1536.98 1616.42 1529.87 Q1616.42 1522.75 1614.59 1519.2 Q1612.78 1515.64 1609.15 1515.64 M1609.15 1511.93 Q1614.96 1511.93 1618.02 1516.54 Q1621.09 1521.12 1621.09 1529.87 Q1621.09 1538.6 1618.02 1543.21 Q1614.96 1547.79 1609.15 1547.79 Q1603.34 1547.79 1600.26 1543.21 Q1597.21 1538.6 1597.21 1529.87 Q1597.21 1521.12 1600.26 1516.54 Q1603.34 1511.93 1609.15 1511.93 Z" fill="#000000" fill-rule="evenodd" fill-opacity="1" /><path clip-path="url(#clip290)" d="M 0 0 M2248.95 1543.18 L2256.59 1543.18 L2256.59 1516.82 L2248.28 1518.49 L2248.28 1514.23 L2256.54 1512.56 L2261.22 1512.56 L2261.22 1543.18 L2268.86 1543.18 L2268.86 1547.12 L2248.95 1547.12 L2248.95 1543.18 Z" fill="#000000" fill-rule="evenodd" fill-opacity="1" /><path clip-path="url(#clip290)" d="M 0 0 M2278.35 1512.56 L2296.7 1512.56 L2296.7 1516.5 L2282.63 1516.5 L2282.63 1524.97 Q2283.65 1524.62 2284.67 1524.46 Q2285.69 1524.27 2286.7 1524.27 Q2292.49 1524.27 2295.87 1527.44 Q2299.25 1530.62 2299.25 1536.03 Q2299.25 1541.61 2295.78 1544.71 Q2292.31 1547.79 2285.99 1547.79 Q2283.81 1547.79 2281.54 1547.42 Q2279.3 1547.05 2276.89 1546.31 L2276.89 1541.61 Q2278.97 1542.74 2281.2 1543.3 Q2283.42 1543.86 2285.89 1543.86 Q2289.9 1543.86 2292.24 1541.75 Q2294.57 1539.64 2294.57 1536.03 Q2294.57 1532.42 2292.24 1530.31 Q2289.9 1528.21 2285.89 1528.21 Q2284.02 1528.21 2282.14 1528.62 Q2280.29 1529.04 2278.35 1529.92 L2278.35 1512.56 Z" fill="#000000" fill-rule="evenodd" fill-opacity="1" /><path clip-path="url(#clip290)" d="M 0 0 M2318.46 1515.64 Q2314.85 1515.64 2313.02 1519.2 Q2311.22 1522.75 2311.22 1529.87 Q2311.22 1536.98 2313.02 1540.55 Q2314.85 1544.09 2318.46 1544.09 Q2322.1 1544.09 2323.9 1540.55 Q2325.73 1536.98 2325.73 1529.87 Q2325.73 1522.75 2323.9 1519.2 Q2322.1 1515.64 2318.46 1515.64 M2318.46 1511.93 Q2324.27 1511.93 2327.33 1516.54 Q2330.41 1521.12 2330.41 1529.87 Q2330.41 1538.6 2327.33 1543.21 Q2324.27 1547.79 2318.46 1547.79 Q2312.65 1547.79 2309.57 1543.21 Q2306.52 1538.6 2306.52 1529.87 Q2306.52 1521.12 2309.57 1516.54 Q2312.65 1511.93 2318.46 1511.93 Z" fill="#000000" fill-rule="evenodd" fill-opacity="1" /><polyline clip-path="url(#clip292)" style="stroke:#000000; stroke-width:2; stroke-opacity:0.1; fill:none" points="
  112.177,1445.72 2352.76,1445.72 
  "/>
<polyline clip-path="url(#clip292)" style="stroke:#000000; stroke-width:2; stroke-opacity:0.1; fill:none" points="
  112.177,1215.59 2352.76,1215.59 
  "/>
<polyline clip-path="url(#clip292)" style="stroke:#000000; stroke-width:2; stroke-opacity:0.1; fill:none" points="
  112.177,985.465 2352.76,985.465 
  "/>
<polyline clip-path="url(#clip292)" style="stroke:#000000; stroke-width:2; stroke-opacity:0.1; fill:none" points="
  112.177,755.34 2352.76,755.34 
  "/>
<polyline clip-path="url(#clip292)" style="stroke:#000000; stroke-width:2; stroke-opacity:0.1; fill:none" points="
  112.177,525.214 2352.76,525.214 
  "/>
<polyline clip-path="url(#clip292)" style="stroke:#000000; stroke-width:2; stroke-opacity:0.1; fill:none" points="
  112.177,295.089 2352.76,295.089 
  "/>
<polyline clip-path="url(#clip292)" style="stroke:#000000; stroke-width:2; stroke-opacity:0.1; fill:none" points="
  112.177,64.9637 2352.76,64.9637 
  "/>
<polyline clip-path="url(#clip290)" style="stroke:#000000; stroke-width:4; stroke-opacity:1; fill:none" points="
  112.177,1486.45 112.177,47.2441 
  "/>
<polyline clip-path="url(#clip290)" style="stroke:#000000; stroke-width:4; stroke-opacity:1; fill:none" points="
  112.177,1445.72 139.064,1445.72 
  "/>
<polyline clip-path="url(#clip290)" style="stroke:#000000; stroke-width:4; stroke-opacity:1; fill:none" points="
  112.177,1215.59 139.064,1215.59 
  "/>
<polyline clip-path="url(#clip290)" style="stroke:#000000; stroke-width:4; stroke-opacity:1; fill:none" points="
  112.177,985.465 139.064,985.465 
  "/>
<polyline clip-path="url(#clip290)" style="stroke:#000000; stroke-width:4; stroke-opacity:1; fill:none" points="
  112.177,755.34 139.064,755.34 
  "/>
<polyline clip-path="url(#clip290)" style="stroke:#000000; stroke-width:4; stroke-opacity:1; fill:none" points="
  112.177,525.214 139.064,525.214 
  "/>
<polyline clip-path="url(#clip290)" style="stroke:#000000; stroke-width:4; stroke-opacity:1; fill:none" points="
  112.177,295.089 139.064,295.089 
  "/>
<polyline clip-path="url(#clip290)" style="stroke:#000000; stroke-width:4; stroke-opacity:1; fill:none" points="
  112.177,64.9637 139.064,64.9637 
  "/>
<path clip-path="url(#clip290)" d="M 0 0 M56.2699 1459.06 L63.9087 1459.06 L63.9087 1432.69 L55.5986 1434.36 L55.5986 1430.1 L63.8624 1428.44 L68.5383 1428.44 L68.5383 1459.06 L76.1772 1459.06 L76.1772 1463 L56.2699 1463 L56.2699 1459.06 Z" fill="#000000" fill-rule="evenodd" fill-opacity="1" /><path clip-path="url(#clip290)" d="M 0 0 M59.8578 1228.94 L76.1772 1228.94 L76.1772 1232.87 L54.2328 1232.87 L54.2328 1228.94 Q56.8949 1226.18 61.4782 1221.55 Q66.0846 1216.9 67.2652 1215.56 Q69.5105 1213.03 70.3902 1211.3 Q71.2929 1209.54 71.2929 1207.85 Q71.2929 1205.09 69.3485 1203.36 Q67.4272 1201.62 64.3254 1201.62 Q62.1263 1201.62 59.6726 1202.38 Q57.2421 1203.15 54.4643 1204.7 L54.4643 1199.98 Q57.2884 1198.84 59.7421 1198.26 Q62.1958 1197.69 64.2328 1197.69 Q69.6031 1197.69 72.7976 1200.37 Q75.992 1203.06 75.992 1207.55 Q75.992 1209.68 75.1818 1211.6 Q74.3948 1213.5 72.2883 1216.09 Q71.7096 1216.76 68.6078 1219.98 Q65.5059 1223.17 59.8578 1228.94 Z" fill="#000000" fill-rule="evenodd" fill-opacity="1" /><path clip-path="url(#clip290)" d="M 0 0 M69.0476 984.111 Q72.404 984.828 74.279 987.097 Q76.1772 989.365 76.1772 992.699 Q76.1772 997.815 72.6587 1000.62 Q69.1402 1003.42 62.6587 1003.42 Q60.4828 1003.42 58.168 1002.98 Q55.8764 1002.56 53.4227 1001.7 L53.4227 997.19 Q55.3671 998.324 57.6819 998.902 Q59.9967 999.481 62.5198 999.481 Q66.918 999.481 69.2096 997.745 Q71.5244 996.009 71.5244 992.699 Q71.5244 989.643 69.3717 987.93 Q67.242 986.194 63.4226 986.194 L59.3949 986.194 L59.3949 982.352 L63.6078 982.352 Q67.0569 982.352 68.8855 980.986 Q70.7142 979.597 70.7142 977.004 Q70.7142 974.342 68.8161 972.93 Q66.9411 971.495 63.4226 971.495 Q61.5013 971.495 59.3023 971.912 Q57.1032 972.329 54.4643 973.208 L54.4643 969.042 Q57.1264 968.301 59.4412 967.93 Q61.7791 967.56 63.8393 967.56 Q69.1633 967.56 72.2652 969.991 Q75.367 972.398 75.367 976.518 Q75.367 979.389 73.7235 981.379 Q72.08 983.347 69.0476 984.111 Z" fill="#000000" fill-rule="evenodd" fill-opacity="1" /><path clip-path="url(#clip290)" d="M 0 0 M66.5939 742.134 L54.7884 760.583 L66.5939 760.583 L66.5939 742.134 M65.367 738.06 L71.2466 738.06 L71.2466 760.583 L76.1772 760.583 L76.1772 764.472 L71.2466 764.472 L71.2466 772.62 L66.5939 772.62 L66.5939 764.472 L50.9921 764.472 L50.9921 759.958 L65.367 738.06 Z" fill="#000000" fill-rule="evenodd" fill-opacity="1" /><path clip-path="url(#clip290)" d="M 0 0 M55.2745 507.934 L73.6309 507.934 L73.6309 511.87 L59.5569 511.87 L59.5569 520.342 Q60.5754 519.995 61.5939 519.832 Q62.6124 519.647 63.6309 519.647 Q69.418 519.647 72.7976 522.819 Q76.1772 525.99 76.1772 531.406 Q76.1772 536.985 72.705 540.087 Q69.2328 543.166 62.9134 543.166 Q60.7374 543.166 58.4689 542.795 Q56.2236 542.425 53.8162 541.684 L53.8162 536.985 Q55.8995 538.119 58.1217 538.675 Q60.3439 539.231 62.8208 539.231 Q66.8254 539.231 69.1633 537.124 Q71.5013 535.018 71.5013 531.406 Q71.5013 527.795 69.1633 525.689 Q66.8254 523.582 62.8208 523.582 Q60.9458 523.582 59.0708 523.999 Q57.2189 524.416 55.2745 525.295 L55.2745 507.934 Z" fill="#000000" fill-rule="evenodd" fill-opacity="1" /><path clip-path="url(#clip290)" d="M 0 0 M64.6495 293.226 Q61.5013 293.226 59.6495 295.378 Q57.8208 297.531 57.8208 301.281 Q57.8208 305.008 59.6495 307.184 Q61.5013 309.337 64.6495 309.337 Q67.7976 309.337 69.6263 307.184 Q71.4781 305.008 71.4781 301.281 Q71.4781 297.531 69.6263 295.378 Q67.7976 293.226 64.6495 293.226 M73.9318 278.573 L73.9318 282.832 Q72.1726 281.999 70.367 281.559 Q68.5846 281.119 66.8254 281.119 Q62.1958 281.119 59.7421 284.244 Q57.3115 287.369 56.9643 293.689 Q58.33 291.675 60.3902 290.61 Q62.4504 289.522 64.9272 289.522 Q70.1355 289.522 73.1448 292.693 Q76.1772 295.841 76.1772 301.281 Q76.1772 306.605 73.029 309.823 Q69.8809 313.04 64.6495 313.04 Q58.6541 313.04 55.4828 308.457 Q52.3116 303.851 52.3116 295.124 Q52.3116 286.929 56.2004 282.068 Q60.0893 277.184 66.6402 277.184 Q68.3994 277.184 70.1818 277.531 Q71.9874 277.879 73.9318 278.573 Z" fill="#000000" fill-rule="evenodd" fill-opacity="1" /><path clip-path="url(#clip290)" d="M 0 0 M53.9551 47.6837 L76.1772 47.6837 L76.1772 49.6745 L63.6309 82.2437 L58.7467 82.2437 L70.5522 51.6189 L53.9551 51.6189 L53.9551 47.6837 Z" fill="#000000" fill-rule="evenodd" fill-opacity="1" /><polyline clip-path="url(#clip292)" style="stroke:#009af9; stroke-width:4; stroke-opacity:1; fill:none" points="
  175.59,1353.67 189.776,1353.67 203.962,1376.68 218.149,1330.65 232.335,1353.67 246.521,1284.63 260.707,1353.67 274.894,1330.65 289.08,1353.67 303.266,1330.65 
  317.452,1330.65 331.639,1307.64 345.825,1353.67 360.011,1422.7 374.197,1399.69 388.384,1330.65 402.57,1376.68 416.756,1353.67 430.943,1284.63 445.129,1330.65 
  459.315,1284.63 473.501,1330.65 487.688,1445.72 501.874,1284.63 516.06,1238.6 530.246,1307.64 544.433,1307.64 558.619,1330.65 572.805,1353.67 586.991,1307.64 
  601.178,1307.64 615.364,1330.65 629.55,1330.65 643.737,1353.67 657.923,1330.65 672.109,1399.69 686.295,1376.68 700.482,1330.65 714.668,1376.68 728.854,1330.65 
  743.04,1376.68 757.227,1376.68 771.413,1376.68 785.599,1307.64 799.785,1238.6 813.972,1353.67 828.158,1307.64 842.344,1353.67 856.531,1330.65 870.717,1353.67 
  884.903,594.252 899.089,640.277 913.276,548.227 927.462,755.34 941.648,617.265 955.834,640.277 970.021,594.252 984.207,916.427 998.393,617.265 1012.58,778.352 
  1026.77,870.402 1040.95,709.315 1055.14,755.34 1069.32,594.252 1083.51,847.39 1097.7,663.29 1111.88,640.277 1126.07,732.327 1140.26,640.277 1154.44,778.352 
  1168.63,571.239 1182.81,755.34 1197,548.227 1211.19,594.252 1225.37,686.302 1239.56,663.29 1253.75,571.239 1267.93,525.214 1282.12,640.277 1296.3,870.402 
  1310.49,801.365 1324.68,824.377 1338.86,778.352 1353.05,502.202 1367.24,640.277 1381.42,640.277 1395.61,594.252 1409.79,663.29 1423.98,732.327 1438.17,755.34 
  1452.35,663.29 1466.54,617.265 1480.73,755.34 1494.91,916.427 1509.1,709.315 1523.28,709.315 1537.47,709.315 1551.66,686.302 1565.84,985.465 1580.03,732.327 
  1594.22,295.089 1608.4,502.202 1622.59,318.102 1636.78,387.139 1650.96,341.114 1665.15,157.014 1679.33,640.277 1693.52,226.051 1707.71,341.114 1721.89,272.077 
  1736.08,502.202 1750.27,456.177 1764.45,410.152 1778.64,525.214 1792.82,502.202 1807.01,456.177 1821.2,410.152 1835.38,134.001 1849.57,87.9763 1863.76,525.214 
  1877.94,364.127 1892.13,548.227 1906.31,134.001 1920.5,548.227 1934.69,364.127 1948.87,295.089 1963.06,571.239 1977.25,548.227 1991.43,387.139 2005.62,341.114 
  2019.8,272.077 2033.99,203.039 2048.18,387.139 2062.36,502.202 2076.55,387.139 2090.74,272.077 2104.92,387.139 2119.11,410.152 2133.29,571.239 2147.48,433.164 
  2161.67,387.139 2175.85,502.202 2190.04,502.202 2204.23,318.102 2218.41,364.127 2232.6,479.189 2246.78,525.214 2260.97,479.189 2275.16,433.164 2289.34,502.202 
  
  "/>
<path clip-path="url(#clip290)" d="
M1976.69 216.178 L2278.07 216.178 L2278.07 95.2176 L1976.69 95.2176  Z
  " fill="#ffffff" fill-rule="evenodd" fill-opacity="1"/>
<polyline clip-path="url(#clip290)" style="stroke:#000000; stroke-width:4; stroke-opacity:1; fill:none" points="
  1976.69,216.178 2278.07,216.178 2278.07,95.2176 1976.69,95.2176 1976.69,216.178 
  "/>
<polyline clip-path="url(#clip290)" style="stroke:#009af9; stroke-width:4; stroke-opacity:1; fill:none" points="
  2001.58,155.698 2150.95,155.698 
  "/>
<path clip-path="url(#clip290)" d="M 0 0 M2189.69 175.385 Q2187.89 180.015 2186.17 181.427 Q2184.46 182.839 2181.59 182.839 L2178.19 182.839 L2178.19 179.274 L2180.69 179.274 Q2182.45 179.274 2183.42 178.44 Q2184.39 177.607 2185.57 174.505 L2186.34 172.561 L2175.85 147.052 L2180.36 147.052 L2188.46 167.329 L2196.57 147.052 L2201.08 147.052 L2189.69 175.385 Z" fill="#000000" fill-rule="evenodd" fill-opacity="1" /><path clip-path="url(#clip290)" d="M 0 0 M2208.37 169.042 L2216.01 169.042 L2216.01 142.677 L2207.7 144.343 L2207.7 140.084 L2215.96 138.418 L2220.64 138.418 L2220.64 169.042 L2228.28 169.042 L2228.28 172.978 L2208.37 172.978 L2208.37 169.042 Z" fill="#000000" fill-rule="evenodd" fill-opacity="1" /></svg>
