<?xml version="1.0" encoding="utf-8"?>
<svg xmlns="http://www.w3.org/2000/svg" xmlns:xlink="http://www.w3.org/1999/xlink" width="600" height="400" viewBox="0 0 2400 1600">
<defs>
  <clipPath id="clip050">
    <rect x="0" y="0" width="2400" height="1600"/>
  </clipPath>
</defs>
<path clip-path="url(#clip050)" d="
M0 1600 L2400 1600 L2400 0 L0 0  Z
  " fill="#ffffff" fill-rule="evenodd" fill-opacity="1"/>
<defs>
  <clipPath id="clip051">
    <rect x="480" y="0" width="1681" height="1600"/>
  </clipPath>
</defs>
<path clip-path="url(#clip050)" d="
M219.866 1423.18 L2352.76 1423.18 L2352.76 123.472 L219.866 123.472  Z
  " fill="#ffffff" fill-rule="evenodd" fill-opacity="1"/>
<defs>
  <clipPath id="clip052">
    <rect x="219" y="123" width="2134" height="1301"/>
  </clipPath>
</defs>
<polyline clip-path="url(#clip052)" style="stroke:#000000; stroke-width:2; stroke-opacity:0.1; fill:none" points="
  423.957,1423.18 423.957,123.472 
  "/>
<polyline clip-path="url(#clip052)" style="stroke:#000000; stroke-width:2; stroke-opacity:0.1; fill:none" points="
  711.408,1423.18 711.408,123.472 
  "/>
<polyline clip-path="url(#clip052)" style="stroke:#000000; stroke-width:2; stroke-opacity:0.1; fill:none" points="
  998.86,1423.18 998.86,123.472 
  "/>
<polyline clip-path="url(#clip052)" style="stroke:#000000; stroke-width:2; stroke-opacity:0.1; fill:none" points="
  1286.31,1423.18 1286.31,123.472 
  "/>
<polyline clip-path="url(#clip052)" style="stroke:#000000; stroke-width:2; stroke-opacity:0.1; fill:none" points="
  1573.76,1423.18 1573.76,123.472 
  "/>
<polyline clip-path="url(#clip052)" style="stroke:#000000; stroke-width:2; stroke-opacity:0.1; fill:none" points="
  1861.21,1423.18 1861.21,123.472 
  "/>
<polyline clip-path="url(#clip052)" style="stroke:#000000; stroke-width:2; stroke-opacity:0.1; fill:none" points="
  2148.67,1423.18 2148.67,123.472 
  "/>
<polyline clip-path="url(#clip050)" style="stroke:#000000; stroke-width:4; stroke-opacity:1; fill:none" points="
  219.866,1423.18 2352.76,1423.18 
  "/>
<polyline clip-path="url(#clip050)" style="stroke:#000000; stroke-width:4; stroke-opacity:1; fill:none" points="
  423.957,1423.18 423.957,1407.58 
  "/>
<polyline clip-path="url(#clip050)" style="stroke:#000000; stroke-width:4; stroke-opacity:1; fill:none" points="
  711.408,1423.18 711.408,1407.58 
  "/>
<polyline clip-path="url(#clip050)" style="stroke:#000000; stroke-width:4; stroke-opacity:1; fill:none" points="
  998.86,1423.18 998.86,1407.58 
  "/>
<polyline clip-path="url(#clip050)" style="stroke:#000000; stroke-width:4; stroke-opacity:1; fill:none" points="
  1286.31,1423.18 1286.31,1407.58 
  "/>
<polyline clip-path="url(#clip050)" style="stroke:#000000; stroke-width:4; stroke-opacity:1; fill:none" points="
  1573.76,1423.18 1573.76,1407.58 
  "/>
<polyline clip-path="url(#clip050)" style="stroke:#000000; stroke-width:4; stroke-opacity:1; fill:none" points="
  1861.21,1423.18 1861.21,1407.58 
  "/>
<polyline clip-path="url(#clip050)" style="stroke:#000000; stroke-width:4; stroke-opacity:1; fill:none" points="
  2148.67,1423.18 2148.67,1407.58 
  "/>
<path clip-path="url(#clip050)" d="M 0 0 M418.61 1479.92 L434.929 1479.92 L434.929 1483.85 L412.985 1483.85 L412.985 1479.92 Q415.647 1477.16 420.23 1472.53 Q424.836 1467.88 426.017 1466.54 Q428.262 1464.01 429.142 1462.28 Q430.045 1460.52 430.045 1458.83 Q430.045 1456.07 428.1 1454.34 Q426.179 1452.6 423.077 1452.6 Q420.878 1452.6 418.424 1453.37 Q415.994 1454.13 413.216 1455.68 L413.216 1450.96 Q416.04 1449.82 418.494 1449.25 Q420.948 1448.67 422.985 1448.67 Q428.355 1448.67 431.549 1451.35 Q434.744 1454.04 434.744 1458.53 Q434.744 1460.66 433.934 1462.58 Q433.147 1464.48 431.04 1467.07 Q430.461 1467.74 427.36 1470.96 Q424.258 1474.15 418.61 1479.92 Z" fill="#000000" fill-rule="evenodd" fill-opacity="1" /><path clip-path="url(#clip050)" d="M 0 0 M714.417 1453.37 L702.612 1471.81 L714.417 1471.81 L714.417 1453.37 M713.191 1449.29 L719.07 1449.29 L719.07 1471.81 L724.001 1471.81 L724.001 1475.7 L719.07 1475.7 L719.07 1483.85 L714.417 1483.85 L714.417 1475.7 L698.816 1475.7 L698.816 1471.19 L713.191 1449.29 Z" fill="#000000" fill-rule="evenodd" fill-opacity="1" /><path clip-path="url(#clip050)" d="M 0 0 M999.265 1464.71 Q996.117 1464.71 994.265 1466.86 Q992.436 1469.01 992.436 1472.76 Q992.436 1476.49 994.265 1478.67 Q996.117 1480.82 999.265 1480.82 Q1002.41 1480.82 1004.24 1478.67 Q1006.09 1476.49 1006.09 1472.76 Q1006.09 1469.01 1004.24 1466.86 Q1002.41 1464.71 999.265 1464.71 M1008.55 1450.06 L1008.55 1454.31 Q1006.79 1453.48 1004.98 1453.04 Q1003.2 1452.6 1001.44 1452.6 Q996.811 1452.6 994.357 1455.73 Q991.927 1458.85 991.58 1465.17 Q992.945 1463.16 995.006 1462.09 Q997.066 1461 999.543 1461 Q1004.75 1461 1007.76 1464.18 Q1010.79 1467.32 1010.79 1472.76 Q1010.79 1478.09 1007.64 1481.31 Q1004.5 1484.52 999.265 1484.52 Q993.269 1484.52 990.098 1479.94 Q986.927 1475.33 986.927 1466.61 Q986.927 1458.41 990.816 1453.55 Q994.705 1448.67 1001.26 1448.67 Q1003.01 1448.67 1004.8 1449.01 Q1006.6 1449.36 1008.55 1450.06 Z" fill="#000000" fill-rule="evenodd" fill-opacity="1" /><path clip-path="url(#clip050)" d="M 0 0 M1286.31 1467.44 Q1282.98 1467.44 1281.06 1469.22 Q1279.16 1471 1279.16 1474.13 Q1279.16 1477.25 1281.06 1479.04 Q1282.98 1480.82 1286.31 1480.82 Q1289.64 1480.82 1291.57 1479.04 Q1293.49 1477.23 1293.49 1474.13 Q1293.49 1471 1291.57 1469.22 Q1289.67 1467.44 1286.31 1467.44 M1281.64 1465.45 Q1278.63 1464.71 1276.94 1462.65 Q1275.27 1460.59 1275.27 1457.63 Q1275.27 1453.48 1278.21 1451.07 Q1281.17 1448.67 1286.31 1448.67 Q1291.47 1448.67 1294.41 1451.07 Q1297.35 1453.48 1297.35 1457.63 Q1297.35 1460.59 1295.66 1462.65 Q1294 1464.71 1291.01 1465.45 Q1294.39 1466.24 1296.26 1468.53 Q1298.16 1470.82 1298.16 1474.13 Q1298.16 1479.15 1295.08 1481.84 Q1292.03 1484.52 1286.31 1484.52 Q1280.59 1484.52 1277.51 1481.84 Q1274.46 1479.15 1274.46 1474.13 Q1274.46 1470.82 1276.36 1468.53 Q1278.26 1466.24 1281.64 1465.45 M1279.92 1458.06 Q1279.92 1460.75 1281.59 1462.25 Q1283.28 1463.76 1286.31 1463.76 Q1289.32 1463.76 1291.01 1462.25 Q1292.72 1460.75 1292.72 1458.06 Q1292.72 1455.38 1291.01 1453.88 Q1289.32 1452.37 1286.31 1452.37 Q1283.28 1452.37 1281.59 1453.88 Q1279.92 1455.38 1279.92 1458.06 Z" fill="#000000" fill-rule="evenodd" fill-opacity="1" /><path clip-path="url(#clip050)" d="M 0 0 M1548.45 1479.92 L1556.09 1479.92 L1556.09 1453.55 L1547.78 1455.22 L1547.78 1450.96 L1556.04 1449.29 L1560.72 1449.29 L1560.72 1479.92 L1568.36 1479.92 L1568.36 1483.85 L1548.45 1483.85 L1548.45 1479.92 Z" fill="#000000" fill-rule="evenodd" fill-opacity="1" /><path clip-path="url(#clip050)" d="M 0 0 M1587.8 1452.37 Q1584.19 1452.37 1582.36 1455.94 Q1580.56 1459.48 1580.56 1466.61 Q1580.56 1473.71 1582.36 1477.28 Q1584.19 1480.82 1587.8 1480.82 Q1591.44 1480.82 1593.24 1477.28 Q1595.07 1473.71 1595.07 1466.61 Q1595.07 1459.48 1593.24 1455.94 Q1591.44 1452.37 1587.8 1452.37 M1587.8 1448.67 Q1593.61 1448.67 1596.67 1453.27 Q1599.75 1457.86 1599.75 1466.61 Q1599.75 1475.33 1596.67 1479.94 Q1593.61 1484.52 1587.8 1484.52 Q1581.99 1484.52 1578.91 1479.94 Q1575.86 1475.33 1575.86 1466.61 Q1575.86 1457.86 1578.91 1453.27 Q1581.99 1448.67 1587.8 1448.67 Z" fill="#000000" fill-rule="evenodd" fill-opacity="1" /><path clip-path="url(#clip050)" d="M 0 0 M1836.7 1479.92 L1844.34 1479.92 L1844.34 1453.55 L1836.03 1455.22 L1836.03 1450.96 L1844.29 1449.29 L1848.97 1449.29 L1848.97 1479.92 L1856.61 1479.92 L1856.61 1483.85 L1836.7 1483.85 L1836.7 1479.92 Z" fill="#000000" fill-rule="evenodd" fill-opacity="1" /><path clip-path="url(#clip050)" d="M 0 0 M1870.08 1479.92 L1886.4 1479.92 L1886.4 1483.85 L1864.45 1483.85 L1864.45 1479.92 Q1867.12 1477.16 1871.7 1472.53 Q1876.31 1467.88 1877.49 1466.54 Q1879.73 1464.01 1880.61 1462.28 Q1881.51 1460.52 1881.51 1458.83 Q1881.51 1456.07 1879.57 1454.34 Q1877.65 1452.6 1874.55 1452.6 Q1872.35 1452.6 1869.89 1453.37 Q1867.46 1454.13 1864.69 1455.68 L1864.69 1450.96 Q1867.51 1449.82 1869.96 1449.25 Q1872.42 1448.67 1874.45 1448.67 Q1879.82 1448.67 1883.02 1451.35 Q1886.21 1454.04 1886.21 1458.53 Q1886.21 1460.66 1885.4 1462.58 Q1884.62 1464.48 1882.51 1467.07 Q1881.93 1467.74 1878.83 1470.96 Q1875.73 1474.15 1870.08 1479.92 Z" fill="#000000" fill-rule="evenodd" fill-opacity="1" /><path clip-path="url(#clip050)" d="M 0 0 M2123.11 1479.92 L2130.75 1479.92 L2130.75 1453.55 L2122.44 1455.22 L2122.44 1450.96 L2130.7 1449.29 L2135.38 1449.29 L2135.38 1479.92 L2143.02 1479.92 L2143.02 1483.85 L2123.11 1483.85 L2123.11 1479.92 Z" fill="#000000" fill-rule="evenodd" fill-opacity="1" /><path clip-path="url(#clip050)" d="M 0 0 M2165.31 1453.37 L2153.5 1471.81 L2165.31 1471.81 L2165.31 1453.37 M2164.08 1449.29 L2169.96 1449.29 L2169.96 1471.81 L2174.89 1471.81 L2174.89 1475.7 L2169.96 1475.7 L2169.96 1483.85 L2165.31 1483.85 L2165.31 1475.7 L2149.71 1475.7 L2149.71 1471.19 L2164.08 1449.29 Z" fill="#000000" fill-rule="evenodd" fill-opacity="1" /><path clip-path="url(#clip050)" d="M 0 0 M1190.73 1520.52 L1197.64 1520.52 L1209.45 1538.19 L1221.32 1520.52 L1228.22 1520.52 L1212.95 1543.34 L1229.24 1568.04 L1222.34 1568.04 L1208.97 1547.83 L1195.5 1568.04 L1188.57 1568.04 L1205.53 1542.68 L1190.73 1520.52 Z" fill="#000000" fill-rule="evenodd" fill-opacity="1" /><path clip-path="url(#clip050)" d="M 0 0 M1274.28 1526.86 L1265.56 1550.51 L1283.03 1550.51 L1274.28 1526.86 M1270.65 1520.52 L1277.94 1520.52 L1296.05 1568.04 L1289.37 1568.04 L1285.04 1555.85 L1263.62 1555.85 L1259.29 1568.04 L1252.51 1568.04 L1270.65 1520.52 Z" fill="#000000" fill-rule="evenodd" fill-opacity="1" /><path clip-path="url(#clip050)" d="M 0 0 M1332.37 1532.4 L1319.48 1549.74 L1333.04 1568.04 L1326.13 1568.04 L1315.75 1554.04 L1305.38 1568.04 L1298.47 1568.04 L1312.31 1549.39 L1299.65 1532.4 L1306.55 1532.4 L1316.01 1545.1 L1325.46 1532.4 L1332.37 1532.4 Z" fill="#000000" fill-rule="evenodd" fill-opacity="1" /><path clip-path="url(#clip050)" d="M 0 0 M1341.31 1532.4 L1347.17 1532.4 L1347.17 1568.04 L1341.31 1568.04 L1341.31 1532.4 M1341.31 1518.52 L1347.17 1518.52 L1347.17 1525.93 L1341.31 1525.93 L1341.31 1518.52 Z" fill="#000000" fill-rule="evenodd" fill-opacity="1" /><path clip-path="url(#clip050)" d="M 0 0 M1382.15 1533.45 L1382.15 1538.98 Q1379.66 1537.71 1376.99 1537.07 Q1374.32 1536.44 1371.45 1536.44 Q1367.09 1536.44 1364.9 1537.77 Q1362.73 1539.11 1362.73 1541.79 Q1362.73 1543.82 1364.29 1545 Q1365.85 1546.15 1370.56 1547.2 L1372.57 1547.64 Q1378.8 1548.98 1381.41 1551.43 Q1384.06 1553.85 1384.06 1558.21 Q1384.06 1563.17 1380.11 1566.07 Q1376.19 1568.97 1369.32 1568.97 Q1366.46 1568.97 1363.34 1568.39 Q1360.25 1567.85 1356.81 1566.74 L1356.81 1560.69 Q1360.06 1562.38 1363.21 1563.24 Q1366.36 1564.07 1369.45 1564.07 Q1373.58 1564.07 1375.81 1562.66 Q1378.04 1561.23 1378.04 1558.65 Q1378.04 1556.27 1376.42 1554.99 Q1374.83 1553.72 1369.38 1552.54 L1367.35 1552.07 Q1361.9 1550.92 1359.48 1548.56 Q1357.07 1546.18 1357.07 1542.04 Q1357.07 1537.01 1360.63 1534.27 Q1364.2 1531.54 1370.75 1531.54 Q1374 1531.54 1376.86 1532.01 Q1379.73 1532.49 1382.15 1533.45 Z" fill="#000000" fill-rule="evenodd" fill-opacity="1" /><polyline clip-path="url(#clip052)" style="stroke:#000000; stroke-width:2; stroke-opacity:0.1; fill:none" points="
  219.866,1266.69 2352.76,1266.69 
  "/>
<polyline clip-path="url(#clip052)" style="stroke:#000000; stroke-width:2; stroke-opacity:0.1; fill:none" points="
  219.866,959.319 2352.76,959.319 
  "/>
<polyline clip-path="url(#clip052)" style="stroke:#000000; stroke-width:2; stroke-opacity:0.1; fill:none" points="
  219.866,651.948 2352.76,651.948 
  "/>
<polyline clip-path="url(#clip052)" style="stroke:#000000; stroke-width:2; stroke-opacity:0.1; fill:none" points="
  219.866,344.577 2352.76,344.577 
  "/>
<polyline clip-path="url(#clip050)" style="stroke:#000000; stroke-width:4; stroke-opacity:1; fill:none" points="
  219.866,1423.18 219.866,123.472 
  "/>
<polyline clip-path="url(#clip050)" style="stroke:#000000; stroke-width:4; stroke-opacity:1; fill:none" points="
  219.866,1266.69 245.461,1266.69 
  "/>
<polyline clip-path="url(#clip050)" style="stroke:#000000; stroke-width:4; stroke-opacity:1; fill:none" points="
  219.866,959.319 245.461,959.319 
  "/>
<polyline clip-path="url(#clip050)" style="stroke:#000000; stroke-width:4; stroke-opacity:1; fill:none" points="
  219.866,651.948 245.461,651.948 
  "/>
<polyline clip-path="url(#clip050)" style="stroke:#000000; stroke-width:4; stroke-opacity:1; fill:none" points="
  219.866,344.577 245.461,344.577 
  "/>
<path clip-path="url(#clip050)" d="M 0 0 M128.288 1252.49 Q124.677 1252.49 122.848 1256.05 Q121.043 1259.6 121.043 1266.73 Q121.043 1273.83 122.848 1277.4 Q124.677 1280.94 128.288 1280.94 Q131.922 1280.94 133.728 1277.4 Q135.556 1273.83 135.556 1266.73 Q135.556 1259.6 133.728 1256.05 Q131.922 1252.49 128.288 1252.49 M128.288 1248.79 Q134.098 1248.79 137.154 1253.39 Q140.232 1257.98 140.232 1266.73 Q140.232 1275.45 137.154 1280.06 Q134.098 1284.64 128.288 1284.64 Q122.478 1284.64 119.399 1280.06 Q116.343 1275.45 116.343 1266.73 Q116.343 1257.98 119.399 1253.39 Q122.478 1248.79 128.288 1248.79 Z" fill="#000000" fill-rule="evenodd" fill-opacity="1" /><path clip-path="url(#clip050)" d="M 0 0 M148.45 1278.09 L153.334 1278.09 L153.334 1283.97 L148.45 1283.97 L148.45 1278.09 Z" fill="#000000" fill-rule="evenodd" fill-opacity="1" /><path clip-path="url(#clip050)" d="M 0 0 M167.547 1280.04 L183.866 1280.04 L183.866 1283.97 L161.922 1283.97 L161.922 1280.04 Q164.584 1277.28 169.167 1272.65 Q173.774 1268 174.954 1266.66 Q177.2 1264.13 178.079 1262.4 Q178.982 1260.64 178.982 1258.95 Q178.982 1256.19 177.038 1254.46 Q175.116 1252.72 172.014 1252.72 Q169.815 1252.72 167.362 1253.48 Q164.931 1254.25 162.153 1255.8 L162.153 1251.08 Q164.977 1249.94 167.431 1249.36 Q169.885 1248.79 171.922 1248.79 Q177.292 1248.79 180.487 1251.47 Q183.681 1254.16 183.681 1258.65 Q183.681 1260.78 182.871 1262.7 Q182.084 1264.6 179.977 1267.19 Q179.399 1267.86 176.297 1271.08 Q173.195 1274.27 167.547 1280.04 Z" fill="#000000" fill-rule="evenodd" fill-opacity="1" /><path clip-path="url(#clip050)" d="M 0 0 M126.205 945.118 Q122.593 945.118 120.765 948.683 Q118.959 952.224 118.959 959.354 Q118.959 966.46 120.765 970.025 Q122.593 973.567 126.205 973.567 Q129.839 973.567 131.644 970.025 Q133.473 966.46 133.473 959.354 Q133.473 952.224 131.644 948.683 Q129.839 945.118 126.205 945.118 M126.205 941.414 Q132.015 941.414 135.07 946.021 Q138.149 950.604 138.149 959.354 Q138.149 968.081 135.07 972.687 Q132.015 977.271 126.205 977.271 Q120.394 977.271 117.316 972.687 Q114.26 968.081 114.26 959.354 Q114.26 950.604 117.316 946.021 Q120.394 941.414 126.205 941.414 Z" fill="#000000" fill-rule="evenodd" fill-opacity="1" /><path clip-path="url(#clip050)" d="M 0 0 M146.366 970.72 L151.251 970.72 L151.251 976.599 L146.366 976.599 L146.366 970.72 Z" fill="#000000" fill-rule="evenodd" fill-opacity="1" /><path clip-path="url(#clip050)" d="M 0 0 M174.283 946.113 L162.477 964.562 L174.283 964.562 L174.283 946.113 M173.056 942.039 L178.936 942.039 L178.936 964.562 L183.866 964.562 L183.866 968.451 L178.936 968.451 L178.936 976.599 L174.283 976.599 L174.283 968.451 L158.681 968.451 L158.681 963.937 L173.056 942.039 Z" fill="#000000" fill-rule="evenodd" fill-opacity="1" /><path clip-path="url(#clip050)" d="M 0 0 M126.529 637.747 Q122.918 637.747 121.089 641.312 Q119.283 644.853 119.283 651.983 Q119.283 659.089 121.089 662.654 Q122.918 666.196 126.529 666.196 Q130.163 666.196 131.968 662.654 Q133.797 659.089 133.797 651.983 Q133.797 644.853 131.968 641.312 Q130.163 637.747 126.529 637.747 M126.529 634.043 Q132.339 634.043 135.394 638.65 Q138.473 643.233 138.473 651.983 Q138.473 660.71 135.394 665.316 Q132.339 669.899 126.529 669.899 Q120.718 669.899 117.64 665.316 Q114.584 660.71 114.584 651.983 Q114.584 643.233 117.64 638.65 Q120.718 634.043 126.529 634.043 Z" fill="#000000" fill-rule="evenodd" fill-opacity="1" /><path clip-path="url(#clip050)" d="M 0 0 M146.691 663.349 L151.575 663.349 L151.575 669.228 L146.691 669.228 L146.691 663.349 Z" fill="#000000" fill-rule="evenodd" fill-opacity="1" /><path clip-path="url(#clip050)" d="M 0 0 M172.339 650.085 Q169.19 650.085 167.339 652.238 Q165.51 654.39 165.51 658.14 Q165.51 661.867 167.339 664.043 Q169.19 666.196 172.339 666.196 Q175.487 666.196 177.315 664.043 Q179.167 661.867 179.167 658.14 Q179.167 654.39 177.315 652.238 Q175.487 650.085 172.339 650.085 M181.621 635.432 L181.621 639.691 Q179.862 638.858 178.056 638.418 Q176.274 637.978 174.514 637.978 Q169.885 637.978 167.431 641.103 Q165.001 644.228 164.653 650.548 Q166.019 648.534 168.079 647.469 Q170.139 646.381 172.616 646.381 Q177.825 646.381 180.834 649.552 Q183.866 652.7 183.866 658.14 Q183.866 663.464 180.718 666.682 Q177.57 669.899 172.339 669.899 Q166.343 669.899 163.172 665.316 Q160.001 660.71 160.001 651.983 Q160.001 643.788 163.89 638.927 Q167.778 634.043 174.329 634.043 Q176.089 634.043 177.871 634.39 Q179.676 634.738 181.621 635.432 Z" fill="#000000" fill-rule="evenodd" fill-opacity="1" /><path clip-path="url(#clip050)" d="M 0 0 M126.783 330.376 Q123.172 330.376 121.343 333.941 Q119.538 337.482 119.538 344.612 Q119.538 351.718 121.343 355.283 Q123.172 358.825 126.783 358.825 Q130.417 358.825 132.223 355.283 Q134.052 351.718 134.052 344.612 Q134.052 337.482 132.223 333.941 Q130.417 330.376 126.783 330.376 M126.783 326.672 Q132.593 326.672 135.649 331.279 Q138.728 335.862 138.728 344.612 Q138.728 353.339 135.649 357.945 Q132.593 362.528 126.783 362.528 Q120.973 362.528 117.894 357.945 Q114.839 353.339 114.839 344.612 Q114.839 335.862 117.894 331.279 Q120.973 326.672 126.783 326.672 Z" fill="#000000" fill-rule="evenodd" fill-opacity="1" /><path clip-path="url(#clip050)" d="M 0 0 M146.945 355.977 L151.829 355.977 L151.829 361.857 L146.945 361.857 L146.945 355.977 Z" fill="#000000" fill-rule="evenodd" fill-opacity="1" /><path clip-path="url(#clip050)" d="M 0 0 M172.014 345.445 Q168.681 345.445 166.76 347.228 Q164.862 349.01 164.862 352.135 Q164.862 355.26 166.76 357.042 Q168.681 358.825 172.014 358.825 Q175.348 358.825 177.269 357.042 Q179.19 355.237 179.19 352.135 Q179.19 349.01 177.269 347.228 Q175.371 345.445 172.014 345.445 M167.339 343.454 Q164.329 342.714 162.64 340.653 Q160.973 338.593 160.973 335.63 Q160.973 331.487 163.913 329.079 Q166.876 326.672 172.014 326.672 Q177.176 326.672 180.116 329.079 Q183.056 331.487 183.056 335.63 Q183.056 338.593 181.366 340.653 Q179.7 342.714 176.714 343.454 Q180.093 344.241 181.968 346.533 Q183.866 348.825 183.866 352.135 Q183.866 357.158 180.788 359.843 Q177.732 362.528 172.014 362.528 Q166.297 362.528 163.218 359.843 Q160.163 357.158 160.163 352.135 Q160.163 348.825 162.061 346.533 Q163.959 344.241 167.339 343.454 M165.626 336.07 Q165.626 338.755 167.292 340.26 Q168.982 341.765 172.014 341.765 Q175.024 341.765 176.714 340.26 Q178.426 338.755 178.426 336.07 Q178.426 333.385 176.714 331.88 Q175.024 330.376 172.014 330.376 Q168.982 330.376 167.292 331.88 Q165.626 333.385 165.626 336.07 Z" fill="#000000" fill-rule="evenodd" fill-opacity="1" /><path clip-path="url(#clip050)" d="M 0 0 M16.4842 869.687 L16.4842 862.78 L36.0269 849.603 L16.4842 836.522 L16.4842 829.615 L41.3741 846.42 L64.0042 846.42 L64.0042 852.881 L41.3741 852.881 L16.4842 869.687 Z" fill="#000000" fill-rule="evenodd" fill-opacity="1" /><path clip-path="url(#clip050)" d="M 0 0 M22.818 786.742 L46.4666 795.463 L46.4666 777.989 L22.818 786.742 M16.4842 790.37 L16.4842 783.081 L64.0042 764.971 L64.0042 771.655 L51.8138 775.984 L51.8138 797.404 L64.0042 801.733 L64.0042 808.512 L16.4842 790.37 Z" fill="#000000" fill-rule="evenodd" fill-opacity="1" /><path clip-path="url(#clip050)" d="M 0 0 M28.3562 728.655 L45.7028 741.545 L64.0042 727.986 L64.0042 734.893 L49.9996 745.269 L64.0042 755.645 L64.0042 762.552 L45.3526 748.707 L28.3562 761.374 L28.3562 754.468 L41.0558 745.015 L28.3562 735.561 L28.3562 728.655 Z" fill="#000000" fill-rule="evenodd" fill-opacity="1" /><path clip-path="url(#clip050)" d="M 0 0 M28.3562 719.711 L28.3562 713.854 L64.0042 713.854 L64.0042 719.711 L28.3562 719.711 M14.479 719.711 L14.479 713.854 L21.895 713.854 L21.895 719.711 L14.479 719.711 Z" fill="#000000" fill-rule="evenodd" fill-opacity="1" /><path clip-path="url(#clip050)" d="M 0 0 M29.4065 678.875 L34.9447 678.875 Q33.6716 681.357 33.035 684.031 Q32.3984 686.705 32.3984 689.569 Q32.3984 693.93 33.7352 696.126 Q35.072 698.29 37.7456 698.29 Q39.7826 698.29 40.9603 696.731 Q42.1061 695.171 43.1565 690.46 L43.6021 688.455 Q44.9389 682.217 47.3897 679.607 Q49.8086 676.965 54.1691 676.965 Q59.1344 676.965 62.0308 680.912 Q64.9272 684.827 64.9272 691.702 Q64.9272 694.566 64.3543 697.685 Q63.8132 700.773 62.6992 704.21 L56.6518 704.21 Q58.3387 700.964 59.198 697.813 Q60.0256 694.662 60.0256 691.574 Q60.0256 687.437 58.6251 685.209 Q57.1929 682.981 54.6147 682.981 Q52.2276 682.981 50.9545 684.604 Q49.6813 686.195 48.5037 691.638 L48.0262 693.675 Q46.8804 699.118 44.5251 701.537 Q42.138 703.956 38.0002 703.956 Q32.9713 703.956 30.2341 700.391 Q27.4968 696.826 27.4968 690.269 Q27.4968 687.023 27.9743 684.158 Q28.4517 681.294 29.4065 678.875 Z" fill="#000000" fill-rule="evenodd" fill-opacity="1" /><path clip-path="url(#clip050)" d="M 0 0 M921.507 44.2197 Q924.14 45.1109 926.611 48.0275 Q929.123 50.9442 931.634 56.0483 L939.939 72.576 L931.148 72.576 L923.411 57.061 Q920.413 50.9847 917.578 48.9997 Q914.782 47.0148 909.921 47.0148 L901.009 47.0148 L901.009 72.576 L892.827 72.576 L892.827 12.096 L911.299 12.096 Q921.669 12.096 926.773 16.4305 Q931.877 20.7649 931.877 29.5149 Q931.877 35.2267 929.204 38.994 Q926.571 42.7613 921.507 44.2197 M901.009 18.8205 L901.009 40.2903 L911.299 40.2903 Q917.213 40.2903 920.211 37.5762 Q923.249 34.8216 923.249 29.5149 Q923.249 24.2082 920.211 21.5346 Q917.213 18.8205 911.299 18.8205 L901.009 18.8205 Z" fill="#000000" fill-rule="evenodd" fill-opacity="1" /><path clip-path="url(#clip050)" d="M 0 0 M968.943 49.7694 Q959.909 49.7694 956.426 51.8354 Q952.942 53.9013 952.942 58.8839 Q952.942 62.8538 955.535 65.2034 Q958.168 67.5124 962.664 67.5124 Q968.862 67.5124 972.589 63.1374 Q976.356 58.7219 976.356 51.4303 L976.356 49.7694 L968.943 49.7694 M983.81 46.6907 L983.81 72.576 L976.356 72.576 L976.356 65.6895 Q973.804 69.8214 969.996 71.8063 Q966.188 73.7508 960.679 73.7508 Q953.712 73.7508 949.58 69.8619 Q945.488 65.9325 945.488 59.3701 Q945.488 51.7138 950.592 47.825 Q955.737 43.9361 965.905 43.9361 L976.356 43.9361 L976.356 43.2069 Q976.356 38.0623 972.953 35.2672 Q969.591 32.4315 963.474 32.4315 Q959.585 32.4315 955.899 33.3632 Q952.213 34.295 948.81 36.1584 L948.81 29.2718 Q952.901 27.692 956.75 26.9223 Q960.598 26.1121 964.244 26.1121 Q974.088 26.1121 978.949 31.2163 Q983.81 36.3204 983.81 46.6907 Z" fill="#000000" fill-rule="evenodd" fill-opacity="1" /><path clip-path="url(#clip050)" d="M 0 0 M1036.88 45.1919 L1036.88 72.576 L1029.42 72.576 L1029.42 45.4349 Q1029.42 38.994 1026.91 35.7938 Q1024.4 32.5936 1019.38 32.5936 Q1013.34 32.5936 1009.86 36.4419 Q1006.37 40.2903 1006.37 46.9338 L1006.37 72.576 L998.879 72.576 L998.879 27.2059 L1006.37 27.2059 L1006.37 34.2544 Q1009.05 30.163 1012.65 28.1376 Q1016.3 26.1121 1021.04 26.1121 Q1028.86 26.1121 1032.87 30.9732 Q1036.88 35.7938 1036.88 45.1919 Z" fill="#000000" fill-rule="evenodd" fill-opacity="1" /><path clip-path="url(#clip050)" d="M 0 0 M1081.6 34.0924 L1081.6 9.54393 L1089.05 9.54393 L1089.05 72.576 L1081.6 72.576 L1081.6 65.7705 Q1079.25 69.8214 1075.64 71.8063 Q1072.08 73.7508 1067.06 73.7508 Q1058.83 73.7508 1053.65 67.1883 Q1048.5 60.6258 1048.5 49.9314 Q1048.5 39.2371 1053.65 32.6746 Q1058.83 26.1121 1067.06 26.1121 Q1072.08 26.1121 1075.64 28.0971 Q1079.25 30.0415 1081.6 34.0924 M1056.2 49.9314 Q1056.2 58.1548 1059.56 62.8538 Q1062.96 67.5124 1068.88 67.5124 Q1074.79 67.5124 1078.2 62.8538 Q1081.6 58.1548 1081.6 49.9314 Q1081.6 41.7081 1078.2 37.0496 Q1074.79 32.3505 1068.88 32.3505 Q1062.96 32.3505 1059.56 37.0496 Q1056.2 41.7081 1056.2 49.9314 Z" fill="#000000" fill-rule="evenodd" fill-opacity="1" /><path clip-path="url(#clip050)" d="M 0 0 M1121.99 32.4315 Q1115.99 32.4315 1112.51 37.1306 Q1109.02 41.7891 1109.02 49.9314 Q1109.02 58.0738 1112.47 62.7728 Q1115.95 67.4314 1121.99 67.4314 Q1127.94 67.4314 1131.42 62.7323 Q1134.91 58.0333 1134.91 49.9314 Q1134.91 41.8701 1131.42 37.1711 Q1127.94 32.4315 1121.99 32.4315 M1121.99 26.1121 Q1131.71 26.1121 1137.26 32.4315 Q1142.81 38.7509 1142.81 49.9314 Q1142.81 61.0714 1137.26 67.4314 Q1131.71 73.7508 1121.99 73.7508 Q1112.22 73.7508 1106.67 67.4314 Q1101.16 61.0714 1101.16 49.9314 Q1101.16 38.7509 1106.67 32.4315 Q1112.22 26.1121 1121.99 26.1121 Z" fill="#000000" fill-rule="evenodd" fill-opacity="1" /><path clip-path="url(#clip050)" d="M 0 0 M1190.49 35.9153 Q1193.28 30.8922 1197.17 28.5022 Q1201.06 26.1121 1206.33 26.1121 Q1213.42 26.1121 1217.26 31.0947 Q1221.11 36.0368 1221.11 45.1919 L1221.11 72.576 L1213.62 72.576 L1213.62 45.4349 Q1213.62 38.913 1211.31 35.7533 Q1209 32.5936 1204.26 32.5936 Q1198.47 32.5936 1195.1 36.4419 Q1191.74 40.2903 1191.74 46.9338 L1191.74 72.576 L1184.25 72.576 L1184.25 45.4349 Q1184.25 38.8725 1181.94 35.7533 Q1179.63 32.5936 1174.81 32.5936 Q1169.1 32.5936 1165.74 36.4824 Q1162.37 40.3308 1162.37 46.9338 L1162.37 72.576 L1154.88 72.576 L1154.88 27.2059 L1162.37 27.2059 L1162.37 34.2544 Q1164.93 30.082 1168.49 28.0971 Q1172.06 26.1121 1176.96 26.1121 Q1181.9 26.1121 1185.34 28.6237 Q1188.83 31.1352 1190.49 35.9153 Z" fill="#000000" fill-rule="evenodd" fill-opacity="1" /><path clip-path="url(#clip050)" d="M 0 0 M1262.67 12.096 L1270.86 12.096 L1270.86 65.6895 L1300.31 65.6895 L1300.31 72.576 L1262.67 72.576 L1262.67 12.096 Z" fill="#000000" fill-rule="evenodd" fill-opacity="1" /><path clip-path="url(#clip050)" d="M 0 0 M1308.57 27.2059 L1316.02 27.2059 L1316.02 72.576 L1308.57 72.576 L1308.57 27.2059 M1308.57 9.54393 L1316.02 9.54393 L1316.02 18.9825 L1308.57 18.9825 L1308.57 9.54393 Z" fill="#000000" fill-rule="evenodd" fill-opacity="1" /><path clip-path="url(#clip050)" d="M 0 0 M1369.33 45.1919 L1369.33 72.576 L1361.88 72.576 L1361.88 45.4349 Q1361.88 38.994 1359.37 35.7938 Q1356.86 32.5936 1351.83 32.5936 Q1345.8 32.5936 1342.31 36.4419 Q1338.83 40.2903 1338.83 46.9338 L1338.83 72.576 L1331.34 72.576 L1331.34 27.2059 L1338.83 27.2059 L1338.83 34.2544 Q1341.5 30.163 1345.11 28.1376 Q1348.76 26.1121 1353.5 26.1121 Q1361.31 26.1121 1365.32 30.9732 Q1369.33 35.7938 1369.33 45.1919 Z" fill="#000000" fill-rule="evenodd" fill-opacity="1" /><path clip-path="url(#clip050)" d="M 0 0 M1423.01 48.0275 L1423.01 51.6733 L1388.74 51.6733 Q1389.22 59.3701 1393.36 63.421 Q1397.53 67.4314 1404.94 67.4314 Q1409.24 67.4314 1413.25 66.3781 Q1417.3 65.3249 1421.27 63.2184 L1421.27 70.267 Q1417.26 71.9684 1413.04 72.8596 Q1408.83 73.7508 1404.5 73.7508 Q1393.64 73.7508 1387.28 67.4314 Q1380.96 61.1119 1380.96 50.3365 Q1380.96 39.1965 1386.96 32.6746 Q1392.99 26.1121 1403.2 26.1121 Q1412.35 26.1121 1417.66 32.0264 Q1423.01 37.9003 1423.01 48.0275 M1415.56 45.84 Q1415.47 39.7232 1412.11 36.0774 Q1408.79 32.4315 1403.28 32.4315 Q1397.04 32.4315 1393.28 35.9558 Q1389.55 39.4801 1388.98 45.8805 L1415.56 45.84 Z" fill="#000000" fill-rule="evenodd" fill-opacity="1" /><path clip-path="url(#clip050)" d="M 0 0 M1507.23 16.7545 L1507.23 25.383 Q1503.1 21.5346 1498.4 19.6307 Q1493.74 17.7268 1488.47 17.7268 Q1478.1 17.7268 1472.59 24.0867 Q1467.08 30.4061 1467.08 42.3968 Q1467.08 54.3469 1472.59 60.7069 Q1478.1 67.0263 1488.47 67.0263 Q1493.74 67.0263 1498.4 65.1223 Q1503.1 63.2184 1507.23 59.3701 L1507.23 67.9175 Q1502.93 70.8341 1498.11 72.2924 Q1493.33 73.7508 1487.99 73.7508 Q1474.25 73.7508 1466.35 65.3654 Q1458.45 56.9395 1458.45 42.3968 Q1458.45 27.8135 1466.35 19.4281 Q1474.25 11.0023 1487.99 11.0023 Q1493.41 11.0023 1498.19 12.4606 Q1503.01 13.8784 1507.23 16.7545 Z" fill="#000000" fill-rule="evenodd" fill-opacity="1" /><path clip-path="url(#clip050)" d="M 0 0 M1557.26 45.1919 L1557.26 72.576 L1549.8 72.576 L1549.8 45.4349 Q1549.8 38.994 1547.29 35.7938 Q1544.78 32.5936 1539.76 32.5936 Q1533.72 32.5936 1530.24 36.4419 Q1526.75 40.2903 1526.75 46.9338 L1526.75 72.576 L1519.26 72.576 L1519.26 9.54393 L1526.75 9.54393 L1526.75 34.2544 Q1529.43 30.163 1533.03 28.1376 Q1536.68 26.1121 1541.42 26.1121 Q1549.24 26.1121 1553.25 30.9732 Q1557.26 35.7938 1557.26 45.1919 Z" fill="#000000" fill-rule="evenodd" fill-opacity="1" /><path clip-path="url(#clip050)" d="M 0 0 M1592.74 49.7694 Q1583.71 49.7694 1580.22 51.8354 Q1576.74 53.9013 1576.74 58.8839 Q1576.74 62.8538 1579.33 65.2034 Q1581.97 67.5124 1586.46 67.5124 Q1592.66 67.5124 1596.39 63.1374 Q1600.15 58.7219 1600.15 51.4303 L1600.15 49.7694 L1592.74 49.7694 M1607.61 46.6907 L1607.61 72.576 L1600.15 72.576 L1600.15 65.6895 Q1597.6 69.8214 1593.79 71.8063 Q1589.99 73.7508 1584.48 73.7508 Q1577.51 73.7508 1573.38 69.8619 Q1569.29 65.9325 1569.29 59.3701 Q1569.29 51.7138 1574.39 47.825 Q1579.54 43.9361 1589.7 43.9361 L1600.15 43.9361 L1600.15 43.2069 Q1600.15 38.0623 1596.75 35.2672 Q1593.39 32.4315 1587.27 32.4315 Q1583.38 32.4315 1579.7 33.3632 Q1576.01 34.295 1572.61 36.1584 L1572.61 29.2718 Q1576.7 27.692 1580.55 26.9223 Q1584.4 26.1121 1588.04 26.1121 Q1597.89 26.1121 1602.75 31.2163 Q1607.61 36.3204 1607.61 46.6907 Z" fill="#000000" fill-rule="evenodd" fill-opacity="1" /><path clip-path="url(#clip050)" d="M 0 0 M1649.25 34.1734 Q1648 33.4443 1646.5 33.1202 Q1645.04 32.7556 1643.26 32.7556 Q1636.94 32.7556 1633.53 36.8875 Q1630.17 40.9789 1630.17 48.6757 L1630.17 72.576 L1622.68 72.576 L1622.68 27.2059 L1630.17 27.2059 L1630.17 34.2544 Q1632.52 30.1225 1636.29 28.1376 Q1640.06 26.1121 1645.44 26.1121 Q1646.21 26.1121 1647.15 26.2337 Q1648.08 26.3147 1649.21 26.5172 L1649.25 34.1734 Z" fill="#000000" fill-rule="evenodd" fill-opacity="1" /><path clip-path="url(#clip050)" d="M 0 0 M1664.44 14.324 L1664.44 27.2059 L1679.8 27.2059 L1679.8 32.9987 L1664.44 32.9987 L1664.44 57.6282 Q1664.44 63.1779 1665.94 64.7578 Q1667.48 66.3376 1672.14 66.3376 L1679.8 66.3376 L1679.8 72.576 L1672.14 72.576 Q1663.51 72.576 1660.23 69.3758 Q1656.95 66.1351 1656.95 57.6282 L1656.95 32.9987 L1651.48 32.9987 L1651.48 27.2059 L1656.95 27.2059 L1656.95 14.324 L1664.44 14.324 Z" fill="#000000" fill-rule="evenodd" fill-opacity="1" /><polyline clip-path="url(#clip052)" style="stroke:#009af9; stroke-width:8; stroke-opacity:1; fill:none" points="
  280.231,653.174 423.957,482.805 567.683,1359.56 711.408,1027.3 855.134,1229.12 998.86,411.069 1142.59,959.097 1286.31,1294.84 1430.04,1386.4 1573.76,1058.91 
  1717.49,1378.7 1861.21,992.265 2004.94,236.034 2148.67,160.256 2292.39,1319.36 
  "/>
<path clip-path="url(#clip050)" d="
M1909.67 287.756 L2281.66 287.756 L2281.66 166.796 L1909.67 166.796  Z
  " fill="#ffffff" fill-rule="evenodd" fill-opacity="1"/>
<polyline clip-path="url(#clip050)" style="stroke:#000000; stroke-width:4; stroke-opacity:1; fill:none" points="
  1909.67,287.756 2281.66,287.756 2281.66,166.796 1909.67,166.796 1909.67,287.756 
  "/>
<polyline clip-path="url(#clip050)" style="stroke:#009af9; stroke-width:4; stroke-opacity:1; fill:none" points="
  1933.37,227.276 2075.56,227.276 
  "/>
<path clip-path="url(#clip050)" d="M 0 0 M2099.26 209.996 L2103.94 209.996 L2103.94 240.621 L2120.77 240.621 L2120.77 244.556 L2099.26 244.556 L2099.26 209.996 Z" fill="#000000" fill-rule="evenodd" fill-opacity="1" /><path clip-path="url(#clip050)" d="M 0 0 M2125.49 218.63 L2129.75 218.63 L2129.75 244.556 L2125.49 244.556 L2125.49 218.63 M2125.49 208.537 L2129.75 208.537 L2129.75 213.931 L2125.49 213.931 L2125.49 208.537 Z" fill="#000000" fill-rule="evenodd" fill-opacity="1" /><path clip-path="url(#clip050)" d="M 0 0 M2160.21 228.908 L2160.21 244.556 L2155.95 244.556 L2155.95 229.047 Q2155.95 225.366 2154.52 223.537 Q2153.08 221.709 2150.21 221.709 Q2146.76 221.709 2144.77 223.908 Q2142.78 226.107 2142.78 229.903 L2142.78 244.556 L2138.5 244.556 L2138.5 218.63 L2142.78 218.63 L2142.78 222.658 Q2144.31 220.32 2146.37 219.162 Q2148.45 218.005 2151.16 218.005 Q2155.63 218.005 2157.92 220.783 Q2160.21 223.537 2160.21 228.908 Z" fill="#000000" fill-rule="evenodd" fill-opacity="1" /><path clip-path="url(#clip050)" d="M 0 0 M2190.88 230.528 L2190.88 232.611 L2171.3 232.611 Q2171.58 237.009 2173.94 239.324 Q2176.32 241.616 2180.56 241.616 Q2183.01 241.616 2185.3 241.014 Q2187.62 240.412 2189.89 239.209 L2189.89 243.236 Q2187.6 244.208 2185.19 244.718 Q2182.78 245.227 2180.3 245.227 Q2174.1 245.227 2170.47 241.616 Q2166.85 238.005 2166.85 231.847 Q2166.85 225.482 2170.28 221.755 Q2173.73 218.005 2179.56 218.005 Q2184.79 218.005 2187.83 221.385 Q2190.88 224.741 2190.88 230.528 M2186.62 229.278 Q2186.58 225.783 2184.66 223.699 Q2182.76 221.616 2179.61 221.616 Q2176.04 221.616 2173.89 223.63 Q2171.76 225.644 2171.44 229.301 L2186.62 229.278 Z" fill="#000000" fill-rule="evenodd" fill-opacity="1" /><path clip-path="url(#clip050)" d="M 0 0 M2214.35 240.621 L2221.99 240.621 L2221.99 214.255 L2213.68 215.922 L2213.68 211.662 L2221.95 209.996 L2226.62 209.996 L2226.62 240.621 L2234.26 240.621 L2234.26 244.556 L2214.35 244.556 L2214.35 240.621 Z" fill="#000000" fill-rule="evenodd" fill-opacity="1" /></svg>
