<?xml version="1.0" encoding="utf-8"?>
<svg xmlns="http://www.w3.org/2000/svg" xmlns:xlink="http://www.w3.org/1999/xlink" width="600" height="400" viewBox="0 0 2400 1600">
<defs>
  <clipPath id="clip970">
    <rect x="0" y="0" width="2400" height="1600"/>
  </clipPath>
</defs>
<path clip-path="url(#clip970)" d="
M0 1600 L2400 1600 L2400 0 L0 0  Z
  " fill="#ffffff" fill-rule="evenodd" fill-opacity="1"/>
<defs>
  <clipPath id="clip971">
    <rect x="480" y="0" width="1681" height="1600"/>
  </clipPath>
</defs>
<path clip-path="url(#clip970)" d="
M156.598 1486.45 L2352.76 1486.45 L2352.76 123.472 L156.598 123.472  Z
  " fill="#ffffff" fill-rule="evenodd" fill-opacity="1"/>
<defs>
  <clipPath id="clip972">
    <rect x="156" y="123" width="2197" height="1364"/>
  </clipPath>
</defs>
<polyline clip-path="url(#clip972)" style="stroke:#000000; stroke-width:2; stroke-opacity:0.1; fill:none" points="
  366.743,1486.45 366.743,123.472 
  "/>
<polyline clip-path="url(#clip972)" style="stroke:#000000; stroke-width:2; stroke-opacity:0.1; fill:none" points="
  662.721,1486.45 662.721,123.472 
  "/>
<polyline clip-path="url(#clip972)" style="stroke:#000000; stroke-width:2; stroke-opacity:0.1; fill:none" points="
  958.699,1486.45 958.699,123.472 
  "/>
<polyline clip-path="url(#clip972)" style="stroke:#000000; stroke-width:2; stroke-opacity:0.1; fill:none" points="
  1254.68,1486.45 1254.68,123.472 
  "/>
<polyline clip-path="url(#clip972)" style="stroke:#000000; stroke-width:2; stroke-opacity:0.1; fill:none" points="
  1550.66,1486.45 1550.66,123.472 
  "/>
<polyline clip-path="url(#clip972)" style="stroke:#000000; stroke-width:2; stroke-opacity:0.1; fill:none" points="
  1846.63,1486.45 1846.63,123.472 
  "/>
<polyline clip-path="url(#clip972)" style="stroke:#000000; stroke-width:2; stroke-opacity:0.1; fill:none" points="
  2142.61,1486.45 2142.61,123.472 
  "/>
<polyline clip-path="url(#clip970)" style="stroke:#000000; stroke-width:4; stroke-opacity:1; fill:none" points="
  156.598,1486.45 2352.76,1486.45 
  "/>
<polyline clip-path="url(#clip970)" style="stroke:#000000; stroke-width:4; stroke-opacity:1; fill:none" points="
  366.743,1486.45 366.743,1470.09 
  "/>
<polyline clip-path="url(#clip970)" style="stroke:#000000; stroke-width:4; stroke-opacity:1; fill:none" points="
  662.721,1486.45 662.721,1470.09 
  "/>
<polyline clip-path="url(#clip970)" style="stroke:#000000; stroke-width:4; stroke-opacity:1; fill:none" points="
  958.699,1486.45 958.699,1470.09 
  "/>
<polyline clip-path="url(#clip970)" style="stroke:#000000; stroke-width:4; stroke-opacity:1; fill:none" points="
  1254.68,1486.45 1254.68,1470.09 
  "/>
<polyline clip-path="url(#clip970)" style="stroke:#000000; stroke-width:4; stroke-opacity:1; fill:none" points="
  1550.66,1486.45 1550.66,1470.09 
  "/>
<polyline clip-path="url(#clip970)" style="stroke:#000000; stroke-width:4; stroke-opacity:1; fill:none" points="
  1846.63,1486.45 1846.63,1470.09 
  "/>
<polyline clip-path="url(#clip970)" style="stroke:#000000; stroke-width:4; stroke-opacity:1; fill:none" points="
  2142.61,1486.45 2142.61,1470.09 
  "/>
<path clip-path="url(#clip970)" d="M 0 0 M361.396 1543.18 L377.715 1543.18 L377.715 1547.12 L355.771 1547.12 L355.771 1543.18 Q358.433 1540.43 363.016 1535.8 Q367.622 1531.15 368.803 1529.81 Q371.048 1527.28 371.928 1525.55 Q372.831 1523.79 372.831 1522.1 Q372.831 1519.34 370.886 1517.61 Q368.965 1515.87 365.863 1515.87 Q363.664 1515.87 361.21 1516.63 Q358.78 1517.4 356.002 1518.95 L356.002 1514.23 Q358.826 1513.09 361.28 1512.51 Q363.733 1511.93 365.77 1511.93 Q371.141 1511.93 374.335 1514.62 Q377.53 1517.31 377.53 1521.8 Q377.53 1523.93 376.72 1525.85 Q375.932 1527.74 373.826 1530.34 Q373.247 1531.01 370.145 1534.23 Q367.044 1537.42 361.396 1543.18 Z" fill="#000000" fill-rule="evenodd" fill-opacity="1" /><path clip-path="url(#clip970)" d="M 0 0 M665.73 1516.63 L653.925 1535.08 L665.73 1535.08 L665.73 1516.63 M664.503 1512.56 L670.383 1512.56 L670.383 1535.08 L675.313 1535.08 L675.313 1538.97 L670.383 1538.97 L670.383 1547.12 L665.73 1547.12 L665.73 1538.97 L650.128 1538.97 L650.128 1534.46 L664.503 1512.56 Z" fill="#000000" fill-rule="evenodd" fill-opacity="1" /><path clip-path="url(#clip970)" d="M 0 0 M959.104 1527.98 Q955.956 1527.98 954.104 1530.13 Q952.275 1532.28 952.275 1536.03 Q952.275 1539.76 954.104 1541.93 Q955.956 1544.09 959.104 1544.09 Q962.252 1544.09 964.081 1541.93 Q965.933 1539.76 965.933 1536.03 Q965.933 1532.28 964.081 1530.13 Q962.252 1527.98 959.104 1527.98 M968.386 1513.32 L968.386 1517.58 Q966.627 1516.75 964.822 1516.31 Q963.039 1515.87 961.28 1515.87 Q956.65 1515.87 954.197 1519 Q951.766 1522.12 951.419 1528.44 Q952.785 1526.43 954.845 1525.36 Q956.905 1524.27 959.382 1524.27 Q964.59 1524.27 967.599 1527.44 Q970.632 1530.59 970.632 1536.03 Q970.632 1541.36 967.484 1544.57 Q964.335 1547.79 959.104 1547.79 Q953.109 1547.79 949.937 1543.21 Q946.766 1538.6 946.766 1529.87 Q946.766 1521.68 950.655 1516.82 Q954.544 1511.93 961.095 1511.93 Q962.854 1511.93 964.636 1512.28 Q966.442 1512.63 968.386 1513.32 Z" fill="#000000" fill-rule="evenodd" fill-opacity="1" /><path clip-path="url(#clip970)" d="M 0 0 M1254.68 1530.71 Q1251.34 1530.71 1249.42 1532.49 Q1247.52 1534.27 1247.52 1537.4 Q1247.52 1540.52 1249.42 1542.31 Q1251.34 1544.09 1254.68 1544.09 Q1258.01 1544.09 1259.93 1542.31 Q1261.85 1540.5 1261.85 1537.4 Q1261.85 1534.27 1259.93 1532.49 Q1258.03 1530.71 1254.68 1530.71 M1250 1528.72 Q1246.99 1527.98 1245.3 1525.92 Q1243.64 1523.86 1243.64 1520.89 Q1243.64 1516.75 1246.58 1514.34 Q1249.54 1511.93 1254.68 1511.93 Q1259.84 1511.93 1262.78 1514.34 Q1265.72 1516.75 1265.72 1520.89 Q1265.72 1523.86 1264.03 1525.92 Q1262.36 1527.98 1259.38 1528.72 Q1262.76 1529.5 1264.63 1531.8 Q1266.53 1534.09 1266.53 1537.4 Q1266.53 1542.42 1263.45 1545.11 Q1260.39 1547.79 1254.68 1547.79 Q1248.96 1547.79 1245.88 1545.11 Q1242.83 1542.42 1242.83 1537.4 Q1242.83 1534.09 1244.72 1531.8 Q1246.62 1529.5 1250 1528.72 M1248.29 1521.33 Q1248.29 1524.02 1249.95 1525.52 Q1251.64 1527.03 1254.68 1527.03 Q1257.69 1527.03 1259.38 1525.52 Q1261.09 1524.02 1261.09 1521.33 Q1261.09 1518.65 1259.38 1517.14 Q1257.69 1515.64 1254.68 1515.64 Q1251.64 1515.64 1249.95 1517.14 Q1248.29 1518.65 1248.29 1521.33 Z" fill="#000000" fill-rule="evenodd" fill-opacity="1" /><path clip-path="url(#clip970)" d="M 0 0 M1525.34 1543.18 L1532.98 1543.18 L1532.98 1516.82 L1524.67 1518.49 L1524.67 1514.23 L1532.94 1512.56 L1537.61 1512.56 L1537.61 1543.18 L1545.25 1543.18 L1545.25 1547.12 L1525.34 1547.12 L1525.34 1543.18 Z" fill="#000000" fill-rule="evenodd" fill-opacity="1" /><path clip-path="url(#clip970)" d="M 0 0 M1564.69 1515.64 Q1561.08 1515.64 1559.25 1519.2 Q1557.45 1522.75 1557.45 1529.87 Q1557.45 1536.98 1559.25 1540.55 Q1561.08 1544.09 1564.69 1544.09 Q1568.33 1544.09 1570.13 1540.55 Q1571.96 1536.98 1571.96 1529.87 Q1571.96 1522.75 1570.13 1519.2 Q1568.33 1515.64 1564.69 1515.64 M1564.69 1511.93 Q1570.5 1511.93 1573.56 1516.54 Q1576.64 1521.12 1576.64 1529.87 Q1576.64 1538.6 1573.56 1543.21 Q1570.5 1547.79 1564.69 1547.79 Q1558.88 1547.79 1555.81 1543.21 Q1552.75 1538.6 1552.75 1529.87 Q1552.75 1521.12 1555.81 1516.54 Q1558.88 1511.93 1564.69 1511.93 Z" fill="#000000" fill-rule="evenodd" fill-opacity="1" /><path clip-path="url(#clip970)" d="M 0 0 M1822.12 1543.18 L1829.76 1543.18 L1829.76 1516.82 L1821.45 1518.49 L1821.45 1514.23 L1829.71 1512.56 L1834.39 1512.56 L1834.39 1543.18 L1842.03 1543.18 L1842.03 1547.12 L1822.12 1547.12 L1822.12 1543.18 Z" fill="#000000" fill-rule="evenodd" fill-opacity="1" /><path clip-path="url(#clip970)" d="M 0 0 M1855.5 1543.18 L1871.82 1543.18 L1871.82 1547.12 L1849.87 1547.12 L1849.87 1543.18 Q1852.54 1540.43 1857.12 1535.8 Q1861.73 1531.15 1862.91 1529.81 Q1865.15 1527.28 1866.03 1525.55 Q1866.93 1523.79 1866.93 1522.1 Q1866.93 1519.34 1864.99 1517.61 Q1863.07 1515.87 1859.97 1515.87 Q1857.77 1515.87 1855.31 1516.63 Q1852.88 1517.4 1850.11 1518.95 L1850.11 1514.23 Q1852.93 1513.09 1855.38 1512.51 Q1857.84 1511.93 1859.87 1511.93 Q1865.24 1511.93 1868.44 1514.62 Q1871.63 1517.31 1871.63 1521.8 Q1871.63 1523.93 1870.82 1525.85 Q1870.04 1527.74 1867.93 1530.34 Q1867.35 1531.01 1864.25 1534.23 Q1861.15 1537.42 1855.5 1543.18 Z" fill="#000000" fill-rule="evenodd" fill-opacity="1" /><path clip-path="url(#clip970)" d="M 0 0 M2117.06 1543.18 L2124.69 1543.18 L2124.69 1516.82 L2116.38 1518.49 L2116.38 1514.23 L2124.65 1512.56 L2129.32 1512.56 L2129.32 1543.18 L2136.96 1543.18 L2136.96 1547.12 L2117.06 1547.12 L2117.06 1543.18 Z" fill="#000000" fill-rule="evenodd" fill-opacity="1" /><path clip-path="url(#clip970)" d="M 0 0 M2159.25 1516.63 L2147.45 1535.08 L2159.25 1535.08 L2159.25 1516.63 M2158.03 1512.56 L2163.91 1512.56 L2163.91 1535.08 L2168.84 1535.08 L2168.84 1538.97 L2163.91 1538.97 L2163.91 1547.12 L2159.25 1547.12 L2159.25 1538.97 L2143.65 1538.97 L2143.65 1534.46 L2158.03 1512.56 Z" fill="#000000" fill-rule="evenodd" fill-opacity="1" /><polyline clip-path="url(#clip972)" style="stroke:#000000; stroke-width:2; stroke-opacity:0.1; fill:none" points="
  156.598,1322.34 2352.76,1322.34 
  "/>
<polyline clip-path="url(#clip972)" style="stroke:#000000; stroke-width:2; stroke-opacity:0.1; fill:none" points="
  156.598,1000.01 2352.76,1000.01 
  "/>
<polyline clip-path="url(#clip972)" style="stroke:#000000; stroke-width:2; stroke-opacity:0.1; fill:none" points="
  156.598,677.674 2352.76,677.674 
  "/>
<polyline clip-path="url(#clip972)" style="stroke:#000000; stroke-width:2; stroke-opacity:0.1; fill:none" points="
  156.598,355.34 2352.76,355.34 
  "/>
<polyline clip-path="url(#clip970)" style="stroke:#000000; stroke-width:4; stroke-opacity:1; fill:none" points="
  156.598,1486.45 156.598,123.472 
  "/>
<polyline clip-path="url(#clip970)" style="stroke:#000000; stroke-width:4; stroke-opacity:1; fill:none" points="
  156.598,1322.34 182.952,1322.34 
  "/>
<polyline clip-path="url(#clip970)" style="stroke:#000000; stroke-width:4; stroke-opacity:1; fill:none" points="
  156.598,1000.01 182.952,1000.01 
  "/>
<polyline clip-path="url(#clip970)" style="stroke:#000000; stroke-width:4; stroke-opacity:1; fill:none" points="
  156.598,677.674 182.952,677.674 
  "/>
<polyline clip-path="url(#clip970)" style="stroke:#000000; stroke-width:4; stroke-opacity:1; fill:none" points="
  156.598,355.34 182.952,355.34 
  "/>
<path clip-path="url(#clip970)" d="M 0 0 M65.0198 1308.14 Q61.4087 1308.14 59.58 1311.7 Q57.7745 1315.25 57.7745 1322.38 Q57.7745 1329.48 59.58 1333.05 Q61.4087 1336.59 65.0198 1336.59 Q68.6541 1336.59 70.4596 1333.05 Q72.2883 1329.48 72.2883 1322.38 Q72.2883 1315.25 70.4596 1311.7 Q68.6541 1308.14 65.0198 1308.14 M65.0198 1304.44 Q70.83 1304.44 73.8855 1309.04 Q76.9642 1313.63 76.9642 1322.38 Q76.9642 1331.1 73.8855 1335.71 Q70.83 1340.29 65.0198 1340.29 Q59.2097 1340.29 56.131 1335.71 Q53.0754 1331.1 53.0754 1322.38 Q53.0754 1313.63 56.131 1309.04 Q59.2097 1304.44 65.0198 1304.44 Z" fill="#000000" fill-rule="evenodd" fill-opacity="1" /><path clip-path="url(#clip970)" d="M 0 0 M85.1818 1333.74 L90.066 1333.74 L90.066 1339.62 L85.1818 1339.62 L85.1818 1333.74 Z" fill="#000000" fill-rule="evenodd" fill-opacity="1" /><path clip-path="url(#clip970)" d="M 0 0 M104.279 1335.69 L120.598 1335.69 L120.598 1339.62 L98.6539 1339.62 L98.6539 1335.69 Q101.316 1332.93 105.899 1328.3 Q110.506 1323.65 111.686 1322.31 Q113.932 1319.78 114.811 1318.05 Q115.714 1316.29 115.714 1314.6 Q115.714 1311.84 113.77 1310.11 Q111.848 1308.37 108.746 1308.37 Q106.547 1308.37 104.094 1309.13 Q101.663 1309.9 98.8854 1311.45 L98.8854 1306.73 Q101.709 1305.59 104.163 1305.01 Q106.617 1304.44 108.654 1304.44 Q114.024 1304.44 117.219 1307.12 Q120.413 1309.81 120.413 1314.3 Q120.413 1316.43 119.603 1318.35 Q118.816 1320.25 116.709 1322.84 Q116.131 1323.51 113.029 1326.73 Q109.927 1329.92 104.279 1335.69 Z" fill="#000000" fill-rule="evenodd" fill-opacity="1" /><path clip-path="url(#clip970)" d="M 0 0 M62.9365 985.806 Q59.3254 985.806 57.4967 989.371 Q55.6912 992.912 55.6912 1000.04 Q55.6912 1007.15 57.4967 1010.71 Q59.3254 1014.25 62.9365 1014.25 Q66.5707 1014.25 68.3763 1010.71 Q70.205 1007.15 70.205 1000.04 Q70.205 992.912 68.3763 989.371 Q66.5707 985.806 62.9365 985.806 M62.9365 982.102 Q68.7467 982.102 71.8022 986.709 Q74.8809 991.292 74.8809 1000.04 Q74.8809 1008.77 71.8022 1013.38 Q68.7467 1017.96 62.9365 1017.96 Q57.1264 1017.96 54.0477 1013.38 Q50.9921 1008.77 50.9921 1000.04 Q50.9921 991.292 54.0477 986.709 Q57.1264 982.102 62.9365 982.102 Z" fill="#000000" fill-rule="evenodd" fill-opacity="1" /><path clip-path="url(#clip970)" d="M 0 0 M83.0984 1011.41 L87.9827 1011.41 L87.9827 1017.29 L83.0984 1017.29 L83.0984 1011.41 Z" fill="#000000" fill-rule="evenodd" fill-opacity="1" /><path clip-path="url(#clip970)" d="M 0 0 M111.015 986.801 L99.2095 1005.25 L111.015 1005.25 L111.015 986.801 M109.788 982.727 L115.668 982.727 L115.668 1005.25 L120.598 1005.25 L120.598 1009.14 L115.668 1009.14 L115.668 1017.29 L111.015 1017.29 L111.015 1009.14 L95.4132 1009.14 L95.4132 1004.63 L109.788 982.727 Z" fill="#000000" fill-rule="evenodd" fill-opacity="1" /><path clip-path="url(#clip970)" d="M 0 0 M63.2606 663.472 Q59.6495 663.472 57.8208 667.037 Q56.0152 670.579 56.0152 677.708 Q56.0152 684.815 57.8208 688.38 Q59.6495 691.921 63.2606 691.921 Q66.8948 691.921 68.7004 688.38 Q70.5291 684.815 70.5291 677.708 Q70.5291 670.579 68.7004 667.037 Q66.8948 663.472 63.2606 663.472 M63.2606 659.769 Q69.0707 659.769 72.1263 664.375 Q75.205 668.958 75.205 677.708 Q75.205 686.435 72.1263 691.042 Q69.0707 695.625 63.2606 695.625 Q57.4504 695.625 54.3717 691.042 Q51.3162 686.435 51.3162 677.708 Q51.3162 668.958 54.3717 664.375 Q57.4504 659.769 63.2606 659.769 Z" fill="#000000" fill-rule="evenodd" fill-opacity="1" /><path clip-path="url(#clip970)" d="M 0 0 M83.4225 689.074 L88.3067 689.074 L88.3067 694.954 L83.4225 694.954 L83.4225 689.074 Z" fill="#000000" fill-rule="evenodd" fill-opacity="1" /><path clip-path="url(#clip970)" d="M 0 0 M109.071 675.81 Q105.922 675.81 104.071 677.963 Q102.242 680.116 102.242 683.866 Q102.242 687.593 104.071 689.769 Q105.922 691.921 109.071 691.921 Q112.219 691.921 114.047 689.769 Q115.899 687.593 115.899 683.866 Q115.899 680.116 114.047 677.963 Q112.219 675.81 109.071 675.81 M118.353 661.158 L118.353 665.417 Q116.594 664.583 114.788 664.144 Q113.006 663.704 111.246 663.704 Q106.617 663.704 104.163 666.829 Q101.733 669.954 101.385 676.273 Q102.751 674.259 104.811 673.195 Q106.871 672.107 109.348 672.107 Q114.557 672.107 117.566 675.278 Q120.598 678.426 120.598 683.866 Q120.598 689.19 117.45 692.407 Q114.302 695.625 109.071 695.625 Q103.075 695.625 99.9039 691.042 Q96.7326 686.435 96.7326 677.708 Q96.7326 669.514 100.621 664.653 Q104.51 659.769 111.061 659.769 Q112.82 659.769 114.603 660.116 Q116.408 660.463 118.353 661.158 Z" fill="#000000" fill-rule="evenodd" fill-opacity="1" /><path clip-path="url(#clip970)" d="M 0 0 M63.5152 341.139 Q59.9041 341.139 58.0754 344.704 Q56.2699 348.245 56.2699 355.375 Q56.2699 362.481 58.0754 366.046 Q59.9041 369.588 63.5152 369.588 Q67.1494 369.588 68.955 366.046 Q70.7837 362.481 70.7837 355.375 Q70.7837 348.245 68.955 344.704 Q67.1494 341.139 63.5152 341.139 M63.5152 337.435 Q69.3254 337.435 72.3809 342.042 Q75.4596 346.625 75.4596 355.375 Q75.4596 364.102 72.3809 368.708 Q69.3254 373.291 63.5152 373.291 Q57.7051 373.291 54.6264 368.708 Q51.5708 364.102 51.5708 355.375 Q51.5708 346.625 54.6264 342.042 Q57.7051 337.435 63.5152 337.435 Z" fill="#000000" fill-rule="evenodd" fill-opacity="1" /><path clip-path="url(#clip970)" d="M 0 0 M83.6771 366.741 L88.5614 366.741 L88.5614 372.62 L83.6771 372.62 L83.6771 366.741 Z" fill="#000000" fill-rule="evenodd" fill-opacity="1" /><path clip-path="url(#clip970)" d="M 0 0 M108.746 356.208 Q105.413 356.208 103.492 357.991 Q101.594 359.773 101.594 362.898 Q101.594 366.023 103.492 367.805 Q105.413 369.588 108.746 369.588 Q112.08 369.588 114.001 367.805 Q115.922 366 115.922 362.898 Q115.922 359.773 114.001 357.991 Q112.103 356.208 108.746 356.208 M104.071 354.217 Q101.061 353.477 99.3715 351.417 Q97.7048 349.356 97.7048 346.393 Q97.7048 342.25 100.645 339.843 Q103.608 337.435 108.746 337.435 Q113.908 337.435 116.848 339.843 Q119.788 342.25 119.788 346.393 Q119.788 349.356 118.098 351.417 Q116.432 353.477 113.445 354.217 Q116.825 355.004 118.7 357.296 Q120.598 359.588 120.598 362.898 Q120.598 367.921 117.52 370.606 Q114.464 373.291 108.746 373.291 Q103.029 373.291 99.9502 370.606 Q96.8947 367.921 96.8947 362.898 Q96.8947 359.588 98.7928 357.296 Q100.691 355.004 104.071 354.217 M102.358 346.833 Q102.358 349.518 104.024 351.023 Q105.714 352.528 108.746 352.528 Q111.756 352.528 113.445 351.023 Q115.158 349.518 115.158 346.833 Q115.158 344.148 113.445 342.643 Q111.756 341.139 108.746 341.139 Q105.714 341.139 104.024 342.643 Q102.358 344.148 102.358 346.833 Z" fill="#000000" fill-rule="evenodd" fill-opacity="1" /><path clip-path="url(#clip970)" d="M 0 0 M789.836 17.6457 Q780.924 17.6457 775.658 24.2892 Q770.432 30.9327 770.432 42.3968 Q770.432 53.8203 775.658 60.4638 Q780.924 67.1073 789.836 67.1073 Q798.748 67.1073 803.933 60.4638 Q809.159 53.8203 809.159 42.3968 Q809.159 30.9327 803.933 24.2892 Q798.748 17.6457 789.836 17.6457 M789.836 11.0023 Q802.556 11.0023 810.171 19.5497 Q817.787 28.0566 817.787 42.3968 Q817.787 56.6965 810.171 65.2439 Q802.556 73.7508 789.836 73.7508 Q777.075 73.7508 769.419 65.2439 Q761.804 56.737 761.804 42.3968 Q761.804 28.0566 769.419 19.5497 Q777.075 11.0023 789.836 11.0023 Z" fill="#000000" fill-rule="evenodd" fill-opacity="1" /><path clip-path="url(#clip970)" d="M 0 0 M867.978 45.1919 L867.978 72.576 L860.524 72.576 L860.524 45.4349 Q860.524 38.994 858.013 35.7938 Q855.501 32.5936 850.478 32.5936 Q844.442 32.5936 840.958 36.4419 Q837.474 40.2903 837.474 46.9338 L837.474 72.576 L829.98 72.576 L829.98 27.2059 L837.474 27.2059 L837.474 34.2544 Q840.148 30.163 843.753 28.1376 Q847.399 26.1121 852.139 26.1121 Q859.957 26.1121 863.967 30.9732 Q867.978 35.7938 867.978 45.1919 Z" fill="#000000" fill-rule="evenodd" fill-opacity="1" /><path clip-path="url(#clip970)" d="M 0 0 M921.652 48.0275 L921.652 51.6733 L887.382 51.6733 Q887.868 59.3701 892 63.421 Q896.172 67.4314 903.585 67.4314 Q907.879 67.4314 911.89 66.3781 Q915.94 65.3249 919.91 63.2184 L919.91 70.267 Q915.9 71.9684 911.687 72.8596 Q907.474 73.7508 903.14 73.7508 Q892.283 73.7508 885.923 67.4314 Q879.604 61.1119 879.604 50.3365 Q879.604 39.1965 885.599 32.6746 Q891.635 26.1121 901.843 26.1121 Q910.998 26.1121 916.305 32.0264 Q921.652 37.9003 921.652 48.0275 M914.199 45.84 Q914.118 39.7232 910.755 36.0774 Q907.434 32.4315 901.924 32.4315 Q895.686 32.4315 891.919 35.9558 Q888.192 39.4801 887.625 45.8805 L914.199 45.84 Z" fill="#000000" fill-rule="evenodd" fill-opacity="1" /><path clip-path="url(#clip970)" d="M 0 0 M989.262 44.2197 Q991.895 45.1109 994.366 48.0275 Q996.878 50.9442 999.389 56.0483 L1007.69 72.576 L998.903 72.576 L991.166 57.061 Q988.168 50.9847 985.332 48.9997 Q982.537 47.0148 977.676 47.0148 L968.764 47.0148 L968.764 72.576 L960.581 72.576 L960.581 12.096 L979.054 12.096 Q989.424 12.096 994.528 16.4305 Q999.632 20.7649 999.632 29.5149 Q999.632 35.2267 996.959 38.994 Q994.325 42.7613 989.262 44.2197 M968.764 18.8205 L968.764 40.2903 L979.054 40.2903 Q984.968 40.2903 987.966 37.5762 Q991.004 34.8216 991.004 29.5149 Q991.004 24.2082 987.966 21.5346 Q984.968 18.8205 979.054 18.8205 L968.764 18.8205 Z" fill="#000000" fill-rule="evenodd" fill-opacity="1" /><path clip-path="url(#clip970)" d="M 0 0 M1036.7 49.7694 Q1027.66 49.7694 1024.18 51.8354 Q1020.7 53.9013 1020.7 58.8839 Q1020.7 62.8538 1023.29 65.2034 Q1025.92 67.5124 1030.42 67.5124 Q1036.62 67.5124 1040.34 63.1374 Q1044.11 58.7219 1044.11 51.4303 L1044.11 49.7694 L1036.7 49.7694 M1051.56 46.6907 L1051.56 72.576 L1044.11 72.576 L1044.11 65.6895 Q1041.56 69.8214 1037.75 71.8063 Q1033.94 73.7508 1028.43 73.7508 Q1021.47 73.7508 1017.33 69.8619 Q1013.24 65.9325 1013.24 59.3701 Q1013.24 51.7138 1018.35 47.825 Q1023.49 43.9361 1033.66 43.9361 L1044.11 43.9361 L1044.11 43.2069 Q1044.11 38.0623 1040.71 35.2672 Q1037.35 32.4315 1031.23 32.4315 Q1027.34 32.4315 1023.65 33.3632 Q1019.97 34.295 1016.56 36.1584 L1016.56 29.2718 Q1020.66 27.692 1024.5 26.9223 Q1028.35 26.1121 1032 26.1121 Q1041.84 26.1121 1046.7 31.2163 Q1051.56 36.3204 1051.56 46.6907 Z" fill="#000000" fill-rule="evenodd" fill-opacity="1" /><path clip-path="url(#clip970)" d="M 0 0 M1104.63 45.1919 L1104.63 72.576 L1097.18 72.576 L1097.18 45.4349 Q1097.18 38.994 1094.67 35.7938 Q1092.15 32.5936 1087.13 32.5936 Q1081.1 32.5936 1077.61 36.4419 Q1074.13 40.2903 1074.13 46.9338 L1074.13 72.576 L1066.63 72.576 L1066.63 27.2059 L1074.13 27.2059 L1074.13 34.2544 Q1076.8 30.163 1080.41 28.1376 Q1084.05 26.1121 1088.79 26.1121 Q1096.61 26.1121 1100.62 30.9732 Q1104.63 35.7938 1104.63 45.1919 Z" fill="#000000" fill-rule="evenodd" fill-opacity="1" /><path clip-path="url(#clip970)" d="M 0 0 M1149.35 34.0924 L1149.35 9.54393 L1156.81 9.54393 L1156.81 72.576 L1149.35 72.576 L1149.35 65.7705 Q1147 69.8214 1143.4 71.8063 Q1139.83 73.7508 1134.81 73.7508 Q1126.59 73.7508 1121.4 67.1883 Q1116.26 60.6258 1116.26 49.9314 Q1116.26 39.2371 1121.4 32.6746 Q1126.59 26.1121 1134.81 26.1121 Q1139.83 26.1121 1143.4 28.0971 Q1147 30.0415 1149.35 34.0924 M1123.95 49.9314 Q1123.95 58.1548 1127.32 62.8538 Q1130.72 67.5124 1136.63 67.5124 Q1142.55 67.5124 1145.95 62.8538 Q1149.35 58.1548 1149.35 49.9314 Q1149.35 41.7081 1145.95 37.0496 Q1142.55 32.3505 1136.63 32.3505 Q1130.72 32.3505 1127.32 37.0496 Q1123.95 41.7081 1123.95 49.9314 Z" fill="#000000" fill-rule="evenodd" fill-opacity="1" /><path clip-path="url(#clip970)" d="M 0 0 M1189.74 32.4315 Q1183.75 32.4315 1180.26 37.1306 Q1176.78 41.7891 1176.78 49.9314 Q1176.78 58.0738 1180.22 62.7728 Q1183.71 67.4314 1189.74 67.4314 Q1195.7 67.4314 1199.18 62.7323 Q1202.66 58.0333 1202.66 49.9314 Q1202.66 41.8701 1199.18 37.1711 Q1195.7 32.4315 1189.74 32.4315 M1189.74 26.1121 Q1199.46 26.1121 1205.01 32.4315 Q1210.56 38.7509 1210.56 49.9314 Q1210.56 61.0714 1205.01 67.4314 Q1199.46 73.7508 1189.74 73.7508 Q1179.98 73.7508 1174.43 67.4314 Q1168.92 61.0714 1168.92 49.9314 Q1168.92 38.7509 1174.43 32.4315 Q1179.98 26.1121 1189.74 26.1121 Z" fill="#000000" fill-rule="evenodd" fill-opacity="1" /><path clip-path="url(#clip970)" d="M 0 0 M1258.24 35.9153 Q1261.04 30.8922 1264.93 28.5022 Q1268.81 26.1121 1274.08 26.1121 Q1281.17 26.1121 1285.02 31.0947 Q1288.87 36.0368 1288.87 45.1919 L1288.87 72.576 L1281.37 72.576 L1281.37 45.4349 Q1281.37 38.913 1279.06 35.7533 Q1276.75 32.5936 1272.01 32.5936 Q1266.22 32.5936 1262.86 36.4419 Q1259.5 40.2903 1259.5 46.9338 L1259.5 72.576 L1252 72.576 L1252 45.4349 Q1252 38.8725 1249.69 35.7533 Q1247.39 32.5936 1242.56 32.5936 Q1236.85 32.5936 1233.49 36.4824 Q1230.13 40.3308 1230.13 46.9338 L1230.13 72.576 L1222.63 72.576 L1222.63 27.2059 L1230.13 27.2059 L1230.13 34.2544 Q1232.68 30.082 1236.25 28.0971 Q1239.81 26.1121 1244.71 26.1121 Q1249.65 26.1121 1253.1 28.6237 Q1256.58 31.1352 1258.24 35.9153 Z" fill="#000000" fill-rule="evenodd" fill-opacity="1" /><path clip-path="url(#clip970)" d="M 0 0 M1330.43 12.096 L1338.61 12.096 L1338.61 65.6895 L1368.06 65.6895 L1368.06 72.576 L1330.43 72.576 L1330.43 12.096 Z" fill="#000000" fill-rule="evenodd" fill-opacity="1" /><path clip-path="url(#clip970)" d="M 0 0 M1376.33 27.2059 L1383.78 27.2059 L1383.78 72.576 L1376.33 72.576 L1376.33 27.2059 M1376.33 9.54393 L1383.78 9.54393 L1383.78 18.9825 L1376.33 18.9825 L1376.33 9.54393 Z" fill="#000000" fill-rule="evenodd" fill-opacity="1" /><path clip-path="url(#clip970)" d="M 0 0 M1437.09 45.1919 L1437.09 72.576 L1429.64 72.576 L1429.64 45.4349 Q1429.64 38.994 1427.12 35.7938 Q1424.61 32.5936 1419.59 32.5936 Q1413.55 32.5936 1410.07 36.4419 Q1406.59 40.2903 1406.59 46.9338 L1406.59 72.576 L1399.09 72.576 L1399.09 27.2059 L1406.59 27.2059 L1406.59 34.2544 Q1409.26 30.163 1412.86 28.1376 Q1416.51 26.1121 1421.25 26.1121 Q1429.07 26.1121 1433.08 30.9732 Q1437.09 35.7938 1437.09 45.1919 Z" fill="#000000" fill-rule="evenodd" fill-opacity="1" /><path clip-path="url(#clip970)" d="M 0 0 M1490.76 48.0275 L1490.76 51.6733 L1456.49 51.6733 Q1456.98 59.3701 1461.11 63.421 Q1465.28 67.4314 1472.7 67.4314 Q1476.99 67.4314 1481 66.3781 Q1485.05 65.3249 1489.02 63.2184 L1489.02 70.267 Q1485.01 71.9684 1480.8 72.8596 Q1476.59 73.7508 1472.25 73.7508 Q1461.39 73.7508 1455.03 67.4314 Q1448.72 61.1119 1448.72 50.3365 Q1448.72 39.1965 1454.71 32.6746 Q1460.75 26.1121 1470.95 26.1121 Q1480.11 26.1121 1485.42 32.0264 Q1490.76 37.9003 1490.76 48.0275 M1483.31 45.84 Q1483.23 39.7232 1479.87 36.0774 Q1476.55 32.4315 1471.04 32.4315 Q1464.8 32.4315 1461.03 35.9558 Q1457.3 39.4801 1456.74 45.8805 L1483.31 45.84 Z" fill="#000000" fill-rule="evenodd" fill-opacity="1" /><path clip-path="url(#clip970)" d="M 0 0 M1574.98 16.7545 L1574.98 25.383 Q1570.85 21.5346 1566.15 19.6307 Q1561.49 17.7268 1556.23 17.7268 Q1545.86 17.7268 1540.35 24.0867 Q1534.84 30.4061 1534.84 42.3968 Q1534.84 54.3469 1540.35 60.7069 Q1545.86 67.0263 1556.23 67.0263 Q1561.49 67.0263 1566.15 65.1223 Q1570.85 63.2184 1574.98 59.3701 L1574.98 67.9175 Q1570.69 70.8341 1565.87 72.2924 Q1561.09 73.7508 1555.74 73.7508 Q1542.01 73.7508 1534.11 65.3654 Q1526.21 56.9395 1526.21 42.3968 Q1526.21 27.8135 1534.11 19.4281 Q1542.01 11.0023 1555.74 11.0023 Q1561.17 11.0023 1565.95 12.4606 Q1570.77 13.8784 1574.98 16.7545 Z" fill="#000000" fill-rule="evenodd" fill-opacity="1" /><path clip-path="url(#clip970)" d="M 0 0 M1625.01 45.1919 L1625.01 72.576 L1617.56 72.576 L1617.56 45.4349 Q1617.56 38.994 1615.05 35.7938 Q1612.53 32.5936 1607.51 32.5936 Q1601.47 32.5936 1597.99 36.4419 Q1594.51 40.2903 1594.51 46.9338 L1594.51 72.576 L1587.01 72.576 L1587.01 9.54393 L1594.51 9.54393 L1594.51 34.2544 Q1597.18 30.163 1600.79 28.1376 Q1604.43 26.1121 1609.17 26.1121 Q1616.99 26.1121 1621 30.9732 Q1625.01 35.7938 1625.01 45.1919 Z" fill="#000000" fill-rule="evenodd" fill-opacity="1" /><path clip-path="url(#clip970)" d="M 0 0 M1660.5 49.7694 Q1651.46 49.7694 1647.98 51.8354 Q1644.5 53.9013 1644.5 58.8839 Q1644.5 62.8538 1647.09 65.2034 Q1649.72 67.5124 1654.22 67.5124 Q1660.42 67.5124 1664.14 63.1374 Q1667.91 58.7219 1667.91 51.4303 L1667.91 49.7694 L1660.5 49.7694 M1675.36 46.6907 L1675.36 72.576 L1667.91 72.576 L1667.91 65.6895 Q1665.36 69.8214 1661.55 71.8063 Q1657.74 73.7508 1652.23 73.7508 Q1645.27 73.7508 1641.13 69.8619 Q1637.04 65.9325 1637.04 59.3701 Q1637.04 51.7138 1642.15 47.825 Q1647.29 43.9361 1657.46 43.9361 L1667.91 43.9361 L1667.91 43.2069 Q1667.91 38.0623 1664.51 35.2672 Q1661.14 32.4315 1655.03 32.4315 Q1651.14 32.4315 1647.45 33.3632 Q1643.77 34.295 1640.36 36.1584 L1640.36 29.2718 Q1644.46 27.692 1648.3 26.9223 Q1652.15 26.1121 1655.8 26.1121 Q1665.64 26.1121 1670.5 31.2163 Q1675.36 36.3204 1675.36 46.6907 Z" fill="#000000" fill-rule="evenodd" fill-opacity="1" /><path clip-path="url(#clip970)" d="M 0 0 M1717.01 34.1734 Q1715.75 33.4443 1714.25 33.1202 Q1712.79 32.7556 1711.01 32.7556 Q1704.69 32.7556 1701.29 36.8875 Q1697.93 40.9789 1697.93 48.6757 L1697.93 72.576 L1690.43 72.576 L1690.43 27.2059 L1697.93 27.2059 L1697.93 34.2544 Q1700.28 30.1225 1704.04 28.1376 Q1707.81 26.1121 1713.2 26.1121 Q1713.97 26.1121 1714.9 26.2337 Q1715.83 26.3147 1716.97 26.5172 L1717.01 34.1734 Z" fill="#000000" fill-rule="evenodd" fill-opacity="1" /><path clip-path="url(#clip970)" d="M 0 0 M1732.2 14.324 L1732.2 27.2059 L1747.55 27.2059 L1747.55 32.9987 L1732.2 32.9987 L1732.2 57.6282 Q1732.2 63.1779 1733.7 64.7578 Q1735.24 66.3376 1739.89 66.3376 L1747.55 66.3376 L1747.55 72.576 L1739.89 72.576 Q1731.27 72.576 1727.98 69.3758 Q1724.7 66.1351 1724.7 57.6282 L1724.7 32.9987 L1719.23 32.9987 L1719.23 27.2059 L1724.7 27.2059 L1724.7 14.324 L1732.2 14.324 Z" fill="#000000" fill-rule="evenodd" fill-opacity="1" /><polyline clip-path="url(#clip972)" style="stroke:#009af9; stroke-width:4; stroke-opacity:1; fill:none" points="
  218.754,678.959 366.743,500.297 514.732,1419.73 662.721,1071.3 810.71,1282.94 958.699,425.069 1106.69,999.774 1254.68,1351.86 1402.67,1447.87 1550.66,1104.45 
  1698.64,1439.8 1846.63,1034.56 1994.62,241.514 2142.61,162.047 2290.6,1377.57 
  "/>
<path clip-path="url(#clip970)" d="
M1983.1 289.865 L2279.55 289.865 L2279.55 168.905 L1983.1 168.905  Z
  " fill="#ffffff" fill-rule="evenodd" fill-opacity="1"/>
<polyline clip-path="url(#clip970)" style="stroke:#000000; stroke-width:4; stroke-opacity:1; fill:none" points="
  1983.1,289.865 2279.55,289.865 2279.55,168.905 1983.1,168.905 1983.1,289.865 
  "/>
<polyline clip-path="url(#clip970)" style="stroke:#009af9; stroke-width:4; stroke-opacity:1; fill:none" points="
  2007.5,229.385 2153.92,229.385 
  "/>
<path clip-path="url(#clip970)" d="M 0 0 M2192.16 249.072 Q2190.35 253.702 2188.64 255.114 Q2186.93 256.526 2184.06 256.526 L2180.65 256.526 L2180.65 252.961 L2183.15 252.961 Q2184.91 252.961 2185.89 252.128 Q2186.86 251.294 2188.04 248.192 L2188.8 246.248 L2178.32 220.739 L2182.83 220.739 L2190.93 241.017 L2199.03 220.739 L2203.55 220.739 L2192.16 249.072 Z" fill="#000000" fill-rule="evenodd" fill-opacity="1" /><path clip-path="url(#clip970)" d="M 0 0 M2210.84 242.729 L2218.48 242.729 L2218.48 216.364 L2210.17 218.031 L2210.17 213.771 L2218.43 212.105 L2223.11 212.105 L2223.11 242.729 L2230.75 242.729 L2230.75 246.665 L2210.84 246.665 L2210.84 242.729 Z" fill="#000000" fill-rule="evenodd" fill-opacity="1" /></svg>
